<svg xmlns="http://www.w3.org/2000/svg" xmlns:xlink="http://www.w3.org/1999/xlink" width="500" zoomAndPan="magnify" viewBox="0 0 375 374.999991" height="500" preserveAspectRatio="xMidYMid meet" version="1.0"><defs><clipPath id="ede3e8a816"><path d="M 10 20.714844 L 344 20.714844 L 344 357.464844 L 10 357.464844 Z M 10 20.714844 " clip-rule="nonzero"/></clipPath></defs><g clip-path="url(#ede3e8a816)"><path fill="#c62328" d="M 239.058594 65.296875 C 239.203125 64.933594 239.570312 64.714844 239.933594 64.789062 C 240.007812 64.789062 246.5 66.902344 246.5 73.6875 C 246.5 74.125 246.210938 74.417969 245.773438 74.417969 C 245.332031 74.417969 245.042969 74.125 245.042969 73.6875 C 245.042969 67.925781 239.789062 66.246094 239.570312 66.171875 C 239.132812 66.101562 238.914062 65.664062 239.058594 65.296875 Z M 238.402344 71.5 C 239.132812 72.15625 239.863281 73.25 240.226562 74.855469 C 240.300781 75.222656 240.589844 75.441406 240.957031 75.441406 C 241.027344 75.441406 241.101562 75.441406 241.101562 75.441406 C 241.464844 75.367188 241.757812 74.929688 241.613281 74.5625 C 240.300781 68.945312 235.777344 68.875 235.777344 68.875 C 235.335938 68.875 235.046875 69.164062 235.046875 69.601562 C 235.046875 70.039062 235.335938 70.332031 235.777344 70.332031 C 235.777344 70.332031 236.140625 70.332031 236.578125 70.476562 C 236.285156 70.699219 235.921875 70.988281 235.628906 71.425781 C 234.828125 72.519531 234.679688 73.6875 235.265625 74.125 C 235.847656 74.5625 236.941406 74.054688 237.746094 72.960938 C 238.109375 72.449219 238.328125 71.9375 238.402344 71.5 Z M 237.234375 205.972656 C 237.378906 205.972656 237.453125 205.972656 237.597656 205.898438 C 237.964844 205.679688 238.039062 205.242188 237.890625 204.878906 C 234.972656 199.917969 236.722656 185.835938 236.722656 185.6875 C 236.796875 185.324219 236.503906 184.960938 236.066406 184.886719 C 235.703125 184.8125 235.335938 185.105469 235.265625 185.542969 C 235.191406 186.125 233.441406 200.28125 236.578125 205.679688 C 236.722656 205.828125 236.941406 205.972656 237.234375 205.972656 Z M 204.402344 209.839844 C 204.546875 209.914062 204.691406 209.984375 204.839844 209.984375 C 205.058594 209.984375 205.277344 209.914062 205.421875 209.695312 C 205.640625 209.402344 205.566406 208.890625 205.277344 208.671875 C 197.6875 202.980469 195.644531 195.320312 195.570312 195.175781 C 195.5 194.808594 195.0625 194.519531 194.695312 194.664062 C 194.332031 194.738281 194.039062 195.175781 194.1875 195.539062 C 194.257812 195.902344 196.375 203.855469 204.402344 209.839844 Z M 336.464844 351.683594 C 331.652344 354.019531 326.324219 355.476562 320.707031 356.0625 C 314.140625 356.789062 304.433594 357.59375 292.832031 357.59375 C 279.917969 357.59375 264.742188 356.644531 248.835938 353.578125 C 208.414062 345.847656 144.132812 348.472656 143.476562 348.472656 L 110.132812 349.421875 C 109.691406 349.421875 100.574219 348.835938 100.792969 343.582031 C 100.9375 340.664062 106.335938 338.621094 116.917969 337.453125 C 118.8125 337.234375 120.636719 337.089844 122.460938 337.089844 C 125.597656 337.015625 135.375 336.289062 136.761719 331.398438 L 102.617188 331.398438 C 102.324219 331.398438 102.03125 331.398438 101.59375 331.398438 C 99.039062 331.398438 94.226562 331.105469 93.421875 329.0625 C 93.058594 328.117188 93.566406 327.019531 94.953125 325.855469 C 95.976562 324.976562 97.144531 324.320312 98.53125 323.882812 C 100.644531 323.152344 101.15625 322.496094 101.15625 322.351562 C 101.15625 322.351562 101.082031 321.476562 96.777344 320.234375 C 88.753906 318.046875 84.738281 318.046875 83.351562 318.191406 L 83.351562 321.839844 C 83.351562 324.175781 82.332031 326.363281 80.582031 327.824219 C 78.828125 329.28125 76.496094 330.011719 74.234375 329.648438 L 60.589844 327.605469 C 58.984375 327.386719 57.378906 327.457031 55.84375 327.96875 L 39.136719 333.222656 C 36.65625 334.027344 34.101562 334.390625 31.546875 334.390625 C 29.140625 334.390625 26.734375 334.027344 24.398438 333.367188 L 20.605469 332.273438 C 19.507812 331.984375 18.707031 331.035156 18.632812 329.867188 C 18.488281 328.699219 19.070312 327.675781 20.09375 327.09375 L 24.324219 324.757812 L 12.871094 324.832031 C 12.796875 324.832031 12.722656 324.832031 12.652344 324.832031 C 11.484375 324.46875 10.609375 323.445312 10.386719 322.207031 C 10.167969 320.964844 10.679688 319.722656 11.703125 318.996094 C 11.703125 318.996094 11.773438 318.996094 11.773438 318.921875 L 40.523438 303.527344 C 42.492188 302.503906 44.097656 300.898438 45.265625 299.003906 L 105.023438 199.40625 C 108.597656 193.496094 114.289062 189.410156 121.003906 187.804688 C 127.570312 186.273438 134.28125 187.292969 140.046875 190.722656 C 142.234375 189.484375 144.570312 188.609375 147.125 188.167969 C 153.035156 187.148438 158.945312 188.535156 163.757812 192.035156 L 186.816406 211.082031 L 187.984375 202.03125 C 183.3125 194.152344 181.929688 186.785156 183.75 180.144531 C 184.917969 176.128906 187.035156 172.992188 189.222656 170.660156 L 139.316406 170.660156 C 133.261719 170.660156 127.570312 168.175781 123.410156 163.800781 C 119.25 159.347656 117.207031 153.585938 117.574219 147.527344 L 119.617188 91.566406 C 119.6875 90.472656 119.542969 89.375 119.179688 88.355469 L 111.226562 70.476562 C 110.132812 67.339844 110.421875 63.910156 112.101562 61.066406 L 114.726562 56.617188 C 114.507812 55.082031 113.777344 47.566406 117.9375 40.5625 L 117.9375 38.59375 C 117.9375 37.863281 118.15625 37.132812 118.449219 36.550781 C 118.960938 35.746094 119.542969 35.527344 119.980469 35.527344 C 120.636719 35.527344 121.292969 35.964844 121.878906 36.84375 C 121.949219 36.769531 122.097656 36.695312 122.171875 36.695312 C 122.753906 36.476562 123.410156 36.84375 124.066406 37.570312 C 124.652344 38.226562 125.015625 39.03125 125.308594 39.980469 L 131.144531 62.234375 C 131.726562 64.347656 132.894531 66.246094 134.5 67.777344 L 134.867188 68.144531 C 134.867188 68.144531 134.9375 68.214844 134.9375 68.144531 C 135.011719 68.144531 135.011719 68.070312 135.011719 68.070312 C 133.769531 54.9375 135.011719 54.570312 135.742188 54.351562 C 136.179688 54.207031 136.761719 54.207031 137.566406 54.71875 C 139.828125 56.175781 141.578125 61.359375 142.671875 69.53125 C 144.132812 80.621094 139.171875 87.769531 138.078125 89.230469 L 145.808594 144.902344 C 156.390625 143.734375 179.007812 137.75 192.726562 133.957031 C 200.460938 131.839844 208.339844 131.183594 216.292969 132.058594 L 218.773438 132.351562 C 226.875 119.949219 227.019531 107.617188 226.945312 104.554688 L 224.027344 104.84375 C 223.808594 104.84375 223.589844 104.84375 223.296875 104.84375 C 219.941406 104.84375 216.949219 102.511719 216.222656 99.226562 C 215.929688 97.984375 216.074219 96.671875 216.511719 95.359375 L 218.046875 90.835938 C 217.679688 90.542969 217.386719 90.179688 217.242188 89.742188 C 216.804688 88.648438 217.023438 87.917969 217.316406 87.480469 C 217.535156 87.042969 217.972656 86.824219 218.335938 86.605469 C 217.023438 85.21875 217.097656 83.464844 218.410156 81.714844 C 218.554688 81.496094 218.703125 81.351562 218.847656 81.132812 C 219.503906 80.253906 220.308594 79.160156 221.183594 78.140625 C 221.546875 77.773438 221.621094 77.191406 221.402344 76.753906 L 220.527344 74.929688 C 220.527344 74.855469 220.453125 74.785156 220.453125 74.785156 C 220.308594 74.054688 220.453125 73.324219 220.890625 72.742188 C 221.328125 72.15625 221.984375 71.71875 222.714844 71.644531 L 223.371094 71.574219 C 226.070312 71.207031 228.84375 70.769531 231.6875 66.539062 C 232.417969 65.371094 233.367188 64.347656 234.316406 63.402344 C 233.367188 61.722656 230.667969 56.542969 232.566406 51.652344 C 234.023438 48.003906 237.671875 45.523438 243.4375 44.210938 C 246.429688 43.554688 249.417969 44.285156 249.492188 44.355469 C 249.636719 44.355469 251.460938 44.867188 253.578125 46.398438 C 255.695312 46.765625 274.007812 50.195312 283.566406 64.496094 C 289.183594 72.886719 290.71875 83.394531 288.308594 95.722656 C 288.308594 95.796875 288.308594 95.871094 288.238281 95.941406 C 288.019531 97.183594 287.726562 98.496094 287.359375 99.808594 C 287.359375 99.882812 287.070312 101.5625 286.265625 104.261719 C 286.265625 104.332031 286.265625 104.40625 286.195312 104.480469 C 283.933594 112.214844 277.804688 127.753906 263.722656 135.855469 L 276.050781 143.296875 C 286.339844 149.5 290.425781 162.414062 285.683594 173.429688 L 274.445312 199.1875 L 261.167969 244.5 C 262.699219 246.175781 269.703125 254.347656 274.082031 269.597656 C 274.8125 272.226562 275.90625 274.925781 277.21875 277.769531 C 284.953125 294.1875 299.546875 307.175781 317.128906 313.375 C 320.488281 314.542969 324.207031 315.710938 328.003906 316.804688 C 330.410156 317.535156 332.671875 318.484375 334.640625 319.652344 C 338.070312 321.695312 339.53125 323.445312 339.238281 325.195312 C 338.875 327.09375 336.246094 328.40625 330.921875 329.210938 C 329.972656 329.355469 329.167969 329.574219 328.441406 329.792969 C 326.980469 330.378906 326.105469 331.035156 326.03125 331.691406 C 325.960938 332.347656 326.6875 333.296875 328.074219 334.316406 C 329.023438 334.972656 330.117188 335.558594 331.359375 335.996094 C 335.882812 337.527344 343.542969 340.8125 343.910156 344.75 C 344.128906 346.867188 341.71875 349.203125 336.464844 351.683594 Z M 275.394531 144.464844 L 274.007812 143.660156 L 238.984375 214.949219 C 236.796875 219.472656 232.273438 222.390625 227.3125 222.753906 L 202.578125 224.433594 L 223.515625 241.726562 L 235.921875 243.695312 C 245.550781 245.375 255.039062 240.339844 258.90625 231.363281 L 284.441406 172.773438 C 288.894531 162.414062 285.027344 150.226562 275.394531 144.464844 Z M 283.347656 108.566406 C 278.96875 114.621094 274.738281 119.65625 270.945312 123.816406 C 270.945312 123.816406 270.945312 123.816406 270.945312 123.886719 C 270.871094 123.960938 270.796875 124.035156 270.726562 124.105469 C 264.304688 131.039062 258.976562 135.417969 255.695312 137.824219 C 271.820312 132.71875 279.773438 118.195312 283.347656 108.566406 Z M 247.375 154.09375 C 246.867188 154.242188 246.429688 154.386719 245.917969 154.535156 C 244.96875 156.136719 239.714844 164.53125 232.710938 167.082031 C 232.785156 167.449219 232.855469 167.886719 233.003906 168.324219 C 233.730469 168.175781 235.046875 167.886719 236.578125 167.375 C 237.746094 166.9375 239.058594 166.425781 240.371094 165.695312 C 245.1875 162.851562 247.523438 159.058594 247.375 154.09375 Z M 223.296875 185.835938 C 222.933594 186.054688 222.570312 186.199219 222.132812 186.273438 C 221.765625 187.222656 220.816406 190.066406 220.671875 193.421875 C 220.597656 195.464844 220.816406 197.363281 221.328125 199.042969 C 221.402344 198.53125 221.621094 197.875 221.839844 197 C 222.058594 196.121094 222.421875 195.027344 222.789062 193.496094 C 223.957031 189.410156 223.664062 187.003906 223.296875 185.835938 Z M 218.046875 186.785156 C 215.636719 188.898438 212.0625 193.351562 213.15625 200.429688 C 213.667969 203.855469 214.90625 206.191406 216.878906 207.503906 C 218.265625 208.382812 219.722656 208.601562 220.816406 208.601562 C 218.265625 205.972656 213.375 199.113281 218.046875 186.785156 Z M 224.320312 206.558594 C 223.371094 205.609375 222.570312 204.660156 221.914062 203.636719 C 221.914062 203.566406 221.839844 203.566406 221.839844 203.492188 C 217.535156 196.707031 219.722656 188.753906 220.671875 186.125 C 220.453125 186.054688 220.160156 185.90625 220.015625 185.835938 C 217.242188 192.402344 216.878906 198.386719 218.847656 203.054688 C 219.066406 203.566406 219.285156 204.074219 219.578125 204.515625 C 219.722656 204.585938 219.796875 204.585938 219.871094 204.734375 C 220.964844 206.117188 222.859375 206.484375 224.320312 206.558594 Z M 221.621094 181.601562 C 220.746094 181.601562 220.015625 182.332031 220.015625 183.207031 C 220.015625 184.082031 220.746094 184.8125 221.621094 184.8125 C 222.496094 184.8125 223.226562 184.082031 223.226562 183.207031 C 223.226562 182.332031 222.570312 181.601562 221.621094 181.601562 Z M 225.488281 180.4375 C 225.269531 173.941406 227.3125 169.5625 228.988281 167.15625 C 227.675781 167.886719 226.070312 169.054688 224.902344 170.804688 C 223.226562 173.359375 222.789062 176.640625 223.589844 180.582031 C 224.027344 180.582031 224.683594 180.582031 225.488281 180.4375 Z M 242.851562 153.585938 C 242.925781 153.585938 243.070312 153.585938 243.21875 153.585938 C 242.269531 139.941406 249.128906 134.6875 249.417969 134.46875 C 249.417969 134.46875 249.492188 134.46875 249.492188 134.394531 C 249.273438 133.445312 248.980469 132.351562 248.761719 131.113281 C 246.355469 132.9375 239.421875 139.355469 242.851562 153.585938 Z M 286.414062 97.695312 C 284.589844 98.863281 282.179688 99.445312 280.210938 99.738281 C 280.066406 101.34375 279.1875 108.347656 274.738281 117.25 C 277.949219 113.382812 281.378906 108.929688 284.953125 103.824219 C 285.757812 101.195312 286.046875 99.445312 286.046875 99.371094 C 286.195312 98.863281 286.265625 98.277344 286.414062 97.695312 Z M 269.777344 122.867188 C 276.925781 111.996094 278.460938 102.4375 278.679688 99.957031 C 277.582031 100.101562 276.78125 100.101562 276.707031 100.101562 C 275.539062 100.175781 274.445312 100.246094 273.351562 100.246094 C 272.550781 100.246094 271.746094 100.246094 270.945312 100.175781 C 270.871094 103.675781 269.851562 118.269531 258.539062 133.59375 C 261.605469 131.113281 265.398438 127.609375 269.777344 122.867188 Z M 243.949219 154.898438 C 242.925781 155.042969 242.34375 155.042969 242.269531 155.042969 C 241.90625 155.042969 241.683594 154.824219 241.539062 154.460938 C 241.394531 153.949219 241.246094 153.367188 241.175781 152.855469 C 239.714844 154.605469 237.160156 158.253906 237.890625 162.046875 C 240.664062 159.566406 242.851562 156.578125 243.949219 154.898438 Z M 247.085938 139.722656 C 246.429688 140.960938 245.773438 142.566406 245.261719 144.609375 C 248.691406 142.859375 250.078125 138.335938 250.367188 137.460938 C 250.222656 137.023438 250.078125 136.511719 249.929688 135.925781 C 249.347656 136.4375 248.179688 137.679688 247.085938 139.722656 Z M 244.675781 148.257812 C 249.859375 146.507812 253.140625 141.691406 254.308594 139.648438 C 253.503906 139.867188 252.703125 140.011719 251.902344 140.230469 C 251.828125 140.230469 251.828125 140.230469 251.753906 140.230469 C 251.679688 140.230469 251.609375 140.230469 251.535156 140.230469 C 251.535156 140.230469 251.460938 140.230469 251.460938 140.230469 C 251.390625 140.230469 251.390625 140.230469 251.316406 140.160156 C 251.316406 140.160156 251.242188 140.160156 251.242188 140.085938 C 251.242188 140.085938 251.171875 140.011719 251.171875 140.011719 C 251.171875 140.011719 251.097656 139.941406 251.097656 139.941406 C 251.097656 139.941406 251.097656 139.941406 251.097656 139.867188 C 251.097656 139.867188 251.097656 139.867188 251.097656 139.792969 C 251.097656 139.792969 251.097656 139.792969 251.097656 139.722656 C 250.222656 141.835938 248.398438 145.046875 245.113281 146.289062 C 245.042969 146.289062 245.042969 146.289062 244.96875 146.289062 C 244.824219 146.945312 244.75 147.601562 244.675781 148.257812 Z M 262.117188 98.277344 C 260.511719 102.363281 252.121094 123.742188 254.746094 134.03125 C 255.695312 128.191406 258.976562 114.183594 268.972656 103.238281 C 269.121094 103.09375 269.265625 103.019531 269.410156 103.019531 C 269.558594 101.707031 269.558594 100.6875 269.628906 100.101562 C 266.859375 99.738281 264.304688 99.152344 262.117188 98.277344 Z M 256.132812 134.394531 C 265.035156 123.011719 268.027344 111.847656 269.046875 105.28125 C 260 115.933594 257.007812 128.996094 256.132812 134.394531 Z M 287.582031 91.199219 C 284.078125 90.980469 270.359375 89.011719 260.074219 73.324219 C 260.074219 73.398438 260.144531 73.46875 260.144531 73.617188 C 262.625 85.070312 268.246094 91.128906 272.621094 94.191406 C 276.925781 97.257812 280.792969 97.984375 281.449219 98.132812 C 283.566406 97.695312 285.902344 96.820312 286.996094 95.433594 C 287.214844 93.898438 287.433594 92.511719 287.582031 91.199219 Z M 249.273438 49.828125 C 249.492188 51.363281 249.636719 53.257812 249.492188 55.59375 C 249.417969 56.25 249.347656 57.125 249.273438 58.148438 C 249.054688 60.191406 248.835938 62.964844 248.761719 66.171875 C 248.980469 68.144531 252.410156 97.257812 276.707031 98.644531 C 276.855469 98.644531 277.292969 98.644531 277.949219 98.570312 C 272.550781 96.601562 262.335938 90.617188 258.6875 73.835938 C 255.402344 58.511719 251.390625 52.238281 249.273438 49.828125 Z M 248.980469 74.636719 C 249.636719 81.132812 251.460938 87.917969 256.058594 92.585938 C 259.125 95.722656 263.210938 97.695312 268.246094 98.421875 C 256.570312 94.046875 251.316406 82.589844 248.980469 74.636719 Z M 252.191406 138.410156 C 252.703125 138.117188 253.433594 137.605469 254.308594 136.949219 C 249.128906 127.246094 258.90625 102.070312 260.730469 97.621094 C 259.050781 96.820312 257.519531 95.796875 256.132812 94.558594 C 243.730469 109.515625 250.660156 133.59375 252.191406 138.410156 Z M 240.738281 150.082031 C 239.789062 150.300781 237.671875 151.03125 235.847656 152.78125 C 235.117188 155.261719 233.878906 161.320312 234.972656 164.382812 C 235.554688 164.019531 236.140625 163.582031 236.722656 163.144531 C 235.046875 157.523438 239.714844 152.34375 240.957031 151.105469 C 240.808594 150.738281 240.808594 150.449219 240.738281 150.082031 Z M 233.660156 155.628906 C 232.273438 158.253906 231.910156 161.609375 232.492188 165.625 C 232.855469 165.476562 233.292969 165.332031 233.660156 165.113281 C 232.636719 162.558594 233.074219 158.472656 233.660156 155.628906 Z M 231.179688 166.792969 C 230.011719 168.105469 227.824219 171.167969 227.164062 176.128906 C 230.15625 175.328125 232.273438 171.679688 233.222656 169.710938 C 232.785156 169.78125 232.566406 169.855469 232.566406 169.855469 C 232.566406 169.855469 232.492188 169.855469 232.492188 169.855469 C 232.128906 169.855469 231.835938 169.636719 231.761719 169.273438 C 231.542969 168.46875 231.324219 167.59375 231.179688 166.792969 Z M 231.761719 177.734375 C 234.097656 175.765625 235.484375 172.847656 235.921875 169.054688 C 235.554688 169.125 235.265625 169.273438 234.972656 169.34375 C 234.316406 170.878906 231.542969 176.933594 226.945312 177.664062 C 226.875 178.464844 226.875 179.269531 226.875 180.144531 C 228.480469 179.777344 230.230469 179.050781 231.761719 177.734375 Z M 259.5625 137.898438 C 258.46875 138.335938 257.371094 138.773438 256.207031 139.136719 C 256.207031 139.210938 256.207031 139.355469 256.132812 139.429688 C 255.988281 139.792969 252.121094 147.746094 244.605469 149.863281 C 244.53125 150.957031 244.605469 152.125 244.675781 153.367188 C 244.824219 153.367188 244.96875 153.292969 245.1875 153.292969 C 245.261719 153.292969 245.332031 153.21875 245.40625 153.21875 C 246.0625 153.074219 246.867188 152.855469 247.667969 152.5625 C 247.742188 152.492188 247.886719 152.417969 248.035156 152.417969 C 252.191406 150.8125 257.589844 147.019531 259.5625 137.898438 Z M 255.914062 48.222656 C 257.664062 50.046875 259.34375 52.675781 260.511719 56.324219 C 264.523438 69.238281 274.226562 79.378906 286.558594 83.464844 L 288.019531 83.976562 C 287.871094 76.828125 286.046875 70.550781 282.472656 65.226562 C 274.882812 53.84375 261.53125 49.609375 255.914062 48.222656 Z M 249.199219 45.671875 C 249.199219 45.671875 248.691406 45.523438 247.886719 45.453125 C 248.105469 45.890625 248.398438 46.546875 248.691406 47.421875 C 249.929688 48.222656 254.820312 52.382812 258.976562 68.65625 C 269.191406 87.699219 284.515625 89.59375 287.800781 89.8125 C 287.945312 88.355469 288.019531 86.96875 288.019531 85.582031 L 286.121094 84.925781 C 273.351562 80.695312 263.28125 70.1875 259.125 56.835938 C 257.664062 52.019531 255.109375 49.246094 252.996094 47.640625 C 252.921875 47.640625 252.921875 47.566406 252.847656 47.566406 C 250.953125 46.109375 249.347656 45.671875 249.199219 45.671875 Z M 235.484375 62.234375 C 235.777344 62.015625 235.996094 61.796875 236.285156 61.578125 C 235.996094 59.460938 235.265625 50.265625 243.289062 45.671875 C 238.328125 46.910156 235.191406 49.027344 234.023438 52.089844 C 232.417969 56.03125 234.535156 60.480469 235.484375 62.234375 Z M 223.007812 87.84375 C 222.058594 83.902344 220.160156 83.101562 219.429688 82.957031 C 218.703125 84.050781 218.773438 85 219.578125 85.800781 C 220.378906 86.53125 220.964844 86.894531 223.007812 87.84375 Z M 116.039062 54.425781 L 116.917969 52.96875 C 116.988281 52.820312 117.207031 52.675781 117.425781 52.601562 C 117.644531 52.527344 117.863281 52.601562 118.011719 52.75 C 118.082031 52.820312 118.15625 52.820312 118.230469 52.96875 C 118.082031 51.289062 118.011719 49.609375 118.011719 47.933594 L 118.011719 43.847656 C 116.1875 47.859375 115.96875 51.945312 116.039062 54.425781 Z M 139.316406 169.273438 L 190.539062 169.273438 C 191.265625 168.617188 191.996094 168.03125 192.652344 167.519531 L 197.90625 154.023438 C 198.054688 153.65625 198.492188 153.4375 198.855469 153.585938 C 199.21875 153.730469 199.4375 154.167969 199.292969 154.535156 L 194.769531 166.0625 C 195.132812 165.84375 195.351562 165.695312 195.425781 165.695312 L 240.589844 143.589844 C 240.957031 139.792969 242.195312 136.949219 243.363281 134.980469 C 243.582031 134.613281 243.800781 134.25 244.019531 133.957031 C 243.582031 134.101562 243.144531 134.25 242.5625 134.46875 L 241.976562 134.6875 C 241.90625 134.6875 241.832031 134.6875 241.757812 134.6875 C 241.464844 134.6875 241.175781 134.46875 241.027344 134.175781 C 240.882812 133.8125 241.101562 133.375 241.464844 133.226562 L 242.050781 133.007812 C 243.144531 132.644531 243.582031 132.5 244.605469 132.058594 C 244.894531 131.914062 245.1875 131.988281 245.332031 132.132812 C 246.574219 130.746094 247.742188 129.945312 248.324219 129.507812 C 246.5 119.511719 245.84375 104.261719 254.890625 93.535156 C 247.886719 86.382812 246.867188 74.929688 247.15625 66.171875 C 247.15625 66.171875 247.15625 66.171875 247.15625 66.101562 C 247.230469 62.890625 247.523438 60.042969 247.667969 58 C 247.742188 56.980469 247.816406 56.105469 247.886719 55.519531 C 248.253906 49.539062 246.867188 46.691406 246.28125 45.816406 C 237.308594 49.027344 237.160156 57.417969 237.453125 60.554688 C 241.683594 57.417969 246.0625 55.886719 246.28125 55.738281 C 246.648438 55.59375 247.085938 55.8125 247.230469 56.175781 C 247.375 56.542969 247.15625 56.980469 246.792969 57.125 C 246.71875 57.125 237.234375 60.628906 232.785156 67.269531 C 229.574219 72.082031 226.289062 72.519531 223.445312 72.960938 L 222.789062 73.03125 C 222.421875 73.105469 222.132812 73.25 221.984375 73.542969 C 221.839844 73.835938 221.691406 74.125 221.765625 74.417969 L 222.570312 76.167969 C 223.007812 77.191406 222.859375 78.359375 222.132812 79.160156 C 221.402344 80.035156 220.671875 80.914062 220.089844 81.714844 C 221.472656 82.226562 223.589844 83.832031 224.464844 88.574219 C 225.707031 89.085938 226 89.15625 226.070312 89.15625 C 226.507812 89.15625 226.800781 89.449219 226.800781 89.886719 C 226.800781 90.324219 226.4375 90.617188 226.070312 90.617188 C 225.851562 90.617188 225.414062 90.617188 222.570312 89.304688 C 221.109375 88.648438 220.308594 88.207031 219.578125 87.769531 C 219.285156 87.769531 218.703125 87.988281 218.484375 88.28125 C 218.335938 88.5 218.410156 88.792969 218.554688 89.15625 C 218.847656 89.960938 220.160156 90.179688 220.597656 90.25 C 221.035156 90.25 221.328125 90.617188 221.253906 91.054688 C 221.253906 91.417969 220.890625 91.710938 220.527344 91.710938 C 220.527344 91.710938 220.527344 91.710938 220.453125 91.710938 C 220.378906 91.710938 219.871094 91.636719 219.285156 91.492188 L 217.828125 95.796875 C 217.460938 96.890625 217.386719 97.914062 217.605469 98.863281 C 218.265625 101.707031 220.890625 103.605469 223.808594 103.3125 L 236.503906 102.070312 C 236.871094 102.070312 237.234375 102.289062 237.308594 102.730469 C 237.378906 103.09375 237.089844 103.457031 236.652344 103.53125 L 228.332031 104.332031 C 228.40625 106.886719 228.332031 115.863281 223.734375 126.078125 C 223.882812 126.515625 224.320312 127.609375 225.121094 128.777344 C 225.339844 129.140625 225.269531 129.578125 224.902344 129.796875 C 224.757812 129.871094 224.613281 129.945312 224.464844 129.945312 C 224.246094 129.945312 224.027344 129.796875 223.882812 129.652344 C 223.445312 128.996094 223.152344 128.410156 222.859375 127.902344 C 221.984375 129.726562 220.890625 131.550781 219.648438 133.445312 C 218.921875 134.542969 218.117188 135.636719 217.242188 136.730469 C 217.097656 136.949219 216.878906 137.023438 216.660156 137.023438 C 216.511719 137.023438 216.367188 136.949219 216.222656 136.875 C 215.929688 136.65625 215.855469 136.144531 216.074219 135.855469 C 216.660156 135.125 217.167969 134.394531 217.679688 133.664062 L 216.003906 133.445312 C 208.269531 132.570312 200.460938 133.226562 192.945312 135.269531 C 179.082031 139.136719 156.171875 145.195312 145.519531 146.289062 C 145.445312 146.363281 145.300781 146.433594 145.152344 146.433594 C 145.152344 146.433594 145.082031 146.433594 145.082031 146.433594 C 144.933594 146.433594 144.863281 146.359375 144.714844 146.359375 C 143.914062 146.433594 143.183594 146.433594 142.601562 146.433594 C 142.308594 146.433594 142.015625 146.433594 141.796875 146.433594 C 141.359375 146.433594 141.066406 146.070312 141.140625 145.632812 C 141.140625 145.195312 141.503906 144.902344 141.941406 144.976562 C 142.601562 145.046875 143.402344 144.976562 144.277344 144.902344 L 136.542969 89.011719 C 136.542969 88.792969 136.542969 88.574219 136.691406 88.425781 C 136.761719 88.355469 142.671875 81.132812 141.140625 69.601562 C 139.679688 58.511719 137.347656 56.25 136.617188 55.8125 C 136.472656 55.667969 136.253906 55.667969 136.105469 55.667969 C 135.8125 56.324219 135.523438 59.535156 136.324219 67.851562 C 136.398438 68.507812 136.035156 69.09375 135.449219 69.382812 C 134.867188 69.675781 134.210938 69.601562 133.699219 69.164062 L 133.332031 68.800781 C 131.507812 67.121094 130.195312 65.007812 129.539062 62.597656 L 123.703125 40.34375 C 123.484375 39.613281 123.191406 38.957031 122.753906 38.519531 C 122.609375 38.300781 122.460938 38.226562 122.390625 38.15625 C 122.316406 38.300781 122.171875 38.664062 122.097656 39.394531 C 121.660156 43.628906 125.527344 62.597656 125.527344 62.746094 C 125.597656 63.109375 125.378906 63.546875 124.941406 63.621094 C 124.578125 63.691406 124.140625 63.472656 124.066406 63.035156 C 123.921875 62.234375 120.128906 43.699219 120.566406 39.175781 C 120.566406 38.8125 120.636719 38.445312 120.710938 38.15625 C 120.710938 38.082031 120.636719 38.082031 120.636719 38.007812 C 119.980469 36.914062 119.617188 36.914062 119.617188 36.914062 C 119.617188 36.914062 119.46875 36.988281 119.324219 37.207031 C 119.105469 37.570312 118.960938 38.007812 118.960938 38.519531 L 118.960938 47.859375 C 118.960938 51.433594 119.25 55.011719 119.835938 58.511719 L 121.148438 66.390625 C 121.222656 66.757812 120.929688 67.195312 120.566406 67.269531 C 120.492188 67.269531 120.492188 67.269531 120.417969 67.269531 C 120.054688 67.269531 119.761719 67.050781 119.6875 66.683594 L 118.886719 58.804688 C 118.8125 58.511719 118.8125 58.148438 118.742188 57.855469 C 118.59375 58.804688 118.375 59.753906 118.011719 60.703125 L 116.550781 65.078125 L 117.425781 69.3125 C 117.5 69.675781 117.28125 70.113281 116.84375 70.1875 C 116.480469 70.257812 116.039062 70.039062 115.96875 69.601562 L 115.019531 65.226562 C 115.019531 65.078125 115.019531 64.933594 115.019531 64.859375 L 116.550781 60.335938 C 116.917969 59.242188 117.207031 58.148438 117.28125 57.125 C 117.355469 56.25 117.355469 55.59375 117.28125 55.15625 L 113.269531 62.015625 C 111.808594 64.496094 111.515625 67.488281 112.464844 70.1875 L 120.417969 88.0625 C 120.855469 89.304688 121.074219 90.617188 120.929688 91.855469 L 118.886719 147.820312 C 118.523438 153.511719 120.417969 158.910156 124.285156 163.070312 C 128.371094 167.011719 133.625 169.273438 139.316406 169.273438 Z M 189.296875 202.105469 L 187.984375 212.320312 L 200.898438 222.972656 L 227.164062 221.148438 C 231.617188 220.859375 235.628906 218.160156 237.597656 214.144531 L 244.386719 200.355469 C 242.488281 193.570312 243.65625 184.886719 247.886719 174.453125 C 251.023438 166.644531 254.890625 160.734375 254.890625 160.664062 C 255.109375 160.296875 255.546875 160.222656 255.914062 160.445312 C 256.277344 160.664062 256.351562 161.101562 256.132812 161.464844 C 255.988281 161.683594 242.414062 182.84375 245.40625 198.3125 L 272.695312 142.785156 C 272.695312 142.785156 272.695312 142.785156 272.695312 142.714844 L 262.261719 136.4375 C 261.898438 136.65625 261.53125 136.804688 261.167969 137.023438 C 259.34375 147.164062 253.433594 151.613281 248.761719 153.511719 C 249.347656 162.414062 242.488281 166.574219 237.453125 168.398438 C 237.015625 172.921875 235.410156 176.421875 232.636719 178.757812 C 229.71875 181.238281 226.363281 181.820312 224.394531 181.894531 C 224.539062 182.261719 224.683594 182.699219 224.683594 183.136719 C 224.683594 183.644531 224.539062 184.082031 224.320312 184.523438 C 224.757812 185.542969 225.632812 188.316406 224.175781 193.859375 C 223.808594 195.394531 223.445312 196.488281 223.226562 197.363281 C 222.421875 200.0625 222.421875 200.0625 223.078125 202.761719 L 223.078125 202.835938 C 224.027344 204.222656 225.121094 205.460938 226.582031 206.558594 C 226.800781 206.703125 226.945312 207.066406 226.875 207.285156 C 226.800781 207.578125 226.582031 207.796875 226.289062 207.796875 C 226.21875 207.796875 225.632812 207.871094 224.832031 207.871094 C 224.027344 207.871094 223.007812 207.796875 221.914062 207.503906 C 222.496094 208.015625 222.859375 208.308594 222.859375 208.308594 C 223.078125 208.453125 223.226562 208.746094 223.152344 209.039062 C 223.078125 209.328125 222.933594 209.546875 222.640625 209.621094 C 222.570312 209.621094 221.765625 209.839844 220.597656 209.839844 C 219.359375 209.839844 217.679688 209.621094 216.074219 208.527344 C 213.738281 206.996094 212.28125 204.296875 211.695312 200.5 C 210.238281 190.941406 216.730469 185.617188 218.773438 184.230469 C 218.628906 183.863281 218.554688 183.5 218.554688 183.136719 C 218.554688 181.457031 219.941406 180.070312 221.621094 180.070312 C 221.765625 180.070312 221.914062 180.070312 221.984375 180.144531 C 221.328125 176.128906 221.839844 172.703125 223.664062 170 C 226 166.425781 229.644531 165.113281 230.886719 164.75 C 230.375 160.222656 231.105469 156.503906 233.074219 153.65625 C 233.511719 152.929688 234.097656 152.34375 234.609375 151.832031 C 236.871094 149.570312 239.496094 148.769531 240.589844 148.550781 C 240.519531 147.382812 240.445312 146.289062 240.519531 145.265625 L 196.082031 167.011719 C 196.011719 167.011719 187.617188 171.535156 185.066406 180.65625 C 183.3125 187.003906 184.699219 194.007812 189.222656 201.59375 C 189.296875 201.742188 189.371094 201.886719 189.296875 202.105469 Z M 26.804688 323.300781 L 60.953125 304.257812 C 62.121094 303.597656 63.070312 302.722656 63.796875 301.628906 L 132.75 197.582031 C 134.355469 195.246094 136.324219 193.203125 138.585938 191.671875 C 133.261719 188.679688 127.203125 187.878906 121.222656 189.265625 C 114.875 190.796875 109.546875 194.664062 106.191406 200.210938 L 46.359375 299.878906 C 45.121094 301.996094 43.296875 303.746094 41.105469 304.914062 L 12.359375 320.308594 C 11.773438 320.746094 11.554688 321.402344 11.628906 322.058594 C 11.703125 322.714844 12.140625 323.226562 12.796875 323.445312 Z M 81.894531 317.097656 C 81.894531 313.523438 83.644531 310.09375 86.492188 307.976562 C 100.9375 297.324219 148.511719 259.964844 153.179688 225.453125 C 153.253906 225.089844 153.617188 224.796875 153.984375 224.796875 C 154.347656 224.871094 154.640625 225.234375 154.640625 225.601562 C 153.691406 232.386719 151.136719 239.316406 147.5625 246.175781 L 154.710938 257.777344 L 162.375 246.6875 C 162.59375 246.46875 178.9375 224.945312 162.664062 193.203125 C 158.214844 189.992188 152.742188 188.679688 147.34375 189.703125 C 144.863281 190.140625 142.527344 191.015625 140.484375 192.257812 C 140.484375 192.257812 140.410156 192.328125 140.410156 192.328125 C 137.929688 193.859375 135.742188 195.902344 134.0625 198.457031 L 64.964844 302.433594 C 64.089844 303.746094 62.921875 304.765625 61.609375 305.570312 L 20.605469 328.480469 C 20.09375 328.773438 19.875 329.28125 19.945312 329.792969 C 20.019531 330.304688 20.382812 330.816406 20.894531 330.960938 L 24.691406 332.054688 C 29.285156 333.367188 34.027344 333.367188 38.625 331.910156 L 55.335938 326.65625 C 57.085938 326.074219 58.984375 325.925781 60.734375 326.21875 L 74.378906 328.261719 C 76.277344 328.554688 78.097656 327.96875 79.558594 326.800781 C 81.019531 325.5625 81.820312 323.808594 81.820312 321.914062 L 81.820312 317.097656 Z M 139.390625 280.03125 L 153.761719 259.089844 L 146.6875 247.636719 C 142.453125 255.222656 136.910156 262.667969 130.851562 269.671875 L 137.710938 282.730469 C 138.660156 281.273438 139.242188 280.25 139.390625 280.03125 Z M 136.980469 329.941406 C 136.835938 328.625 135.742188 325.050781 129.613281 319.652344 C 121.878906 312.792969 131.875 293.019531 136.910156 284.265625 L 129.902344 270.910156 C 114.21875 288.640625 95.609375 303.160156 87.367188 309.21875 C 84.957031 310.96875 83.5 313.8125 83.351562 316.734375 C 85.03125 316.585938 89.191406 316.660156 97.144531 318.847656 C 100.863281 319.871094 102.542969 320.964844 102.542969 322.277344 C 102.542969 323.445312 101.375 324.394531 98.96875 325.269531 C 97.800781 325.707031 96.777344 326.21875 95.902344 327.019531 C 94.953125 327.824219 94.734375 328.335938 94.808594 328.554688 C 95.171875 329.5 99.113281 330.011719 102.617188 329.941406 Z M 342.449219 344.824219 C 342.15625 342.199219 336.320312 339.207031 330.847656 337.308594 C 329.460938 336.796875 328.222656 336.214844 327.199219 335.484375 C 325.230469 334.097656 324.355469 332.785156 324.574219 331.472656 C 324.71875 330.230469 325.886719 329.210938 327.929688 328.40625 C 328.730469 328.117188 329.679688 327.898438 330.703125 327.675781 C 336.757812 326.800781 337.707031 325.414062 337.78125 324.832031 C 338 323.882812 336.539062 322.425781 333.914062 320.820312 C 332.015625 319.722656 329.898438 318.777344 327.566406 318.121094 C 323.699219 317.023438 320.050781 315.859375 316.621094 314.617188 C 298.671875 308.269531 283.785156 295.0625 275.90625 278.28125 C 274.519531 275.363281 273.425781 272.515625 272.695312 269.890625 C 268.027344 253.398438 259.925781 245.15625 259.855469 245.082031 C 259.632812 244.863281 259.5625 244.644531 259.632812 244.351562 L 269.851562 209.695312 L 260.21875 231.800781 C 256.570312 240.121094 248.472656 245.300781 239.640625 245.300781 C 238.328125 245.300781 237.015625 245.15625 235.628906 244.9375 L 225.632812 243.332031 L 247.59375 261.425781 C 247.886719 261.71875 247.960938 262.15625 247.667969 262.449219 C 247.375 262.738281 246.9375 262.8125 246.648438 262.519531 L 165.21875 195.246094 C 179.59375 226.257812 163.613281 247.125 163.394531 247.34375 L 155.148438 259.308594 L 140.558594 280.617188 C 140.410156 280.90625 121.585938 310.457031 130.488281 318.339844 C 138.734375 325.632812 138.441406 330.011719 138.367188 330.523438 C 137.785156 337.164062 127.058594 338.183594 122.535156 338.332031 C 120.785156 338.402344 118.960938 338.476562 117.136719 338.695312 C 106.335938 339.863281 102.398438 341.90625 102.324219 343.4375 C 102.105469 347.230469 110.132812 347.742188 110.203125 347.742188 L 143.476562 346.792969 C 144.132812 346.792969 208.558594 344.09375 249.199219 351.902344 C 279.117188 357.667969 306.769531 355.914062 320.632812 354.382812 C 326.105469 353.800781 331.210938 352.339844 335.957031 350.078125 C 342.011719 347.378906 342.523438 345.554688 342.449219 344.824219 Z M 184.480469 228.375 C 184.480469 227.933594 184.117188 227.644531 183.75 227.644531 C 183.3125 227.644531 183.023438 228.007812 183.023438 228.375 C 183.023438 228.519531 183.386719 246.324219 173.902344 258.726562 C 164.199219 271.496094 162.445312 287.621094 162.445312 287.765625 C 162.375 288.132812 162.664062 288.496094 163.101562 288.570312 C 163.101562 288.570312 163.175781 288.570312 163.175781 288.570312 C 163.539062 288.570312 163.832031 288.277344 163.90625 287.910156 C 163.90625 287.765625 165.582031 272.007812 175.070312 259.601562 C 184.847656 246.832031 184.480469 229.101562 184.480469 228.375 Z M 207.757812 252.085938 C 207.390625 252.234375 207.246094 252.671875 207.390625 253.035156 C 207.464844 253.179688 214.105469 267.410156 195.351562 287.328125 C 175.871094 308.050781 187.835938 333.734375 187.910156 334.027344 C 188.058594 334.316406 188.277344 334.464844 188.566406 334.464844 C 188.640625 334.464844 188.785156 334.464844 188.859375 334.390625 C 189.222656 334.246094 189.371094 333.808594 189.222656 333.441406 C 189.078125 333.222656 177.621094 308.34375 196.375 288.421875 C 215.855469 267.699219 208.925781 253.109375 208.632812 252.453125 C 208.558594 252.011719 208.121094 251.867188 207.757812 252.085938 Z M 184.191406 288.277344 C 184.410156 287.910156 184.335938 287.472656 183.972656 287.253906 C 183.605469 287.035156 183.167969 287.109375 182.949219 287.472656 C 182.730469 287.765625 163.03125 318.996094 183.023438 341.320312 C 183.167969 341.46875 183.386719 341.539062 183.53125 341.539062 C 183.679688 341.539062 183.898438 341.46875 184.042969 341.320312 C 184.335938 341.03125 184.335938 340.59375 184.117188 340.300781 C 164.855469 318.847656 183.972656 288.570312 184.191406 288.277344 Z M 244.238281 268.941406 C 243.800781 268.941406 243.507812 269.304688 243.507812 269.671875 C 243.507812 270.035156 244.3125 304.695312 231.105469 313.742188 C 230.742188 313.960938 230.667969 314.398438 230.886719 314.761719 C 231.03125 314.980469 231.25 315.054688 231.46875 315.054688 C 231.617188 315.054688 231.761719 314.980469 231.910156 314.910156 C 237.746094 310.894531 241.757812 302.066406 243.730469 288.570312 C 245.1875 278.644531 244.96875 269.671875 244.96875 269.597656 C 244.96875 269.234375 244.605469 268.941406 244.238281 268.941406 Z M 291.519531 329.5 C 291.59375 329.574219 291.738281 329.574219 291.8125 329.574219 C 292.105469 329.574219 292.324219 329.429688 292.46875 329.136719 C 292.613281 328.773438 292.46875 328.335938 292.105469 328.1875 C 274.957031 320.015625 270.140625 294.699219 268.902344 284.265625 C 265.691406 257.339844 255.914062 248.585938 255.546875 248.292969 C 255.257812 248 254.820312 248.074219 254.527344 248.367188 C 254.234375 248.65625 254.308594 249.09375 254.601562 249.386719 C 254.671875 249.460938 264.304688 258.144531 267.515625 284.484375 C 269.046875 296.960938 272.183594 307.394531 277 315.417969 C 280.941406 321.914062 285.976562 326.800781 291.519531 329.5 Z M 311.292969 345.699219 C 291.445312 344.3125 271.234375 323.882812 271.015625 323.664062 C 270.726562 323.371094 270.289062 323.371094 269.996094 323.664062 C 269.703125 323.957031 269.703125 324.394531 269.996094 324.6875 C 270.070312 324.757812 275.25 330.011719 282.835938 335.339844 C 289.914062 340.300781 300.496094 346.355469 311.21875 347.085938 C 311.21875 347.085938 311.21875 347.085938 311.292969 347.085938 C 311.660156 347.085938 312.023438 346.792969 312.023438 346.429688 C 312.023438 346.066406 311.730469 345.699219 311.292969 345.699219 Z M 247.59375 266.316406 C 247.304688 266.605469 247.304688 267.042969 247.59375 267.335938 C 247.667969 267.410156 252.558594 272.664062 247.375 293.09375 C 247.304688 293.457031 247.523438 293.894531 247.886719 293.96875 C 247.960938 293.96875 248.035156 293.96875 248.035156 293.96875 C 248.324219 293.96875 248.691406 293.75 248.761719 293.382812 C 254.164062 272.007812 248.761719 266.460938 248.542969 266.242188 C 248.324219 266.023438 247.886719 266.023438 247.59375 266.316406 Z M 254.820312 268.941406 C 254.453125 269.085938 254.234375 269.523438 254.382812 269.890625 C 254.382812 269.960938 256.789062 276.457031 254.746094 284.046875 C 254.671875 284.410156 254.890625 284.847656 255.257812 284.921875 C 255.328125 284.921875 255.402344 284.921875 255.476562 284.921875 C 255.769531 284.921875 256.058594 284.703125 256.207031 284.410156 C 258.320312 276.3125 255.839844 269.597656 255.769531 269.304688 C 255.621094 269.015625 255.183594 268.796875 254.820312 268.941406 Z M 274.738281 36.402344 C 274.8125 36.476562 274.957031 36.476562 275.03125 36.476562 C 275.320312 36.476562 275.539062 36.332031 275.6875 36.039062 L 277.363281 32.316406 C 277.511719 31.953125 277.363281 31.515625 277 31.371094 C 276.636719 31.222656 276.199219 31.371094 276.050781 31.734375 L 274.375 35.457031 C 274.226562 35.820312 274.375 36.183594 274.738281 36.402344 Z M 271.164062 44.355469 C 271.234375 44.429688 271.382812 44.429688 271.453125 44.429688 C 271.746094 44.429688 271.964844 44.285156 272.113281 43.992188 L 273.789062 40.199219 C 273.9375 39.832031 273.789062 39.394531 273.425781 39.25 C 273.058594 39.105469 272.621094 39.25 272.476562 39.613281 L 270.796875 43.410156 C 270.652344 43.773438 270.796875 44.210938 271.164062 44.355469 Z M 289.914062 26.335938 C 290.0625 26.40625 290.207031 26.480469 290.28125 26.480469 C 290.5 26.480469 290.789062 26.335938 290.863281 26.117188 L 293.488281 21.957031 C 293.710938 21.59375 293.636719 21.15625 293.269531 20.9375 C 292.90625 20.714844 292.46875 20.789062 292.25 21.15625 L 289.625 25.3125 C 289.476562 25.679688 289.625 26.117188 289.914062 26.335938 Z M 281.597656 39.394531 C 281.742188 39.46875 281.890625 39.542969 281.960938 39.542969 C 282.179688 39.542969 282.472656 39.394531 282.546875 39.175781 L 288.238281 30.347656 C 288.457031 29.984375 288.382812 29.546875 288.019531 29.328125 C 287.652344 29.109375 287.214844 29.179688 286.996094 29.546875 L 281.378906 38.375 C 281.160156 38.738281 281.230469 39.175781 281.597656 39.394531 Z M 277 46.617188 C 277.144531 46.691406 277.292969 46.765625 277.363281 46.765625 C 277.582031 46.765625 277.875 46.617188 277.949219 46.398438 L 280.574219 42.3125 C 280.792969 41.949219 280.722656 41.511719 280.355469 41.292969 C 279.992188 41.074219 279.554688 41.148438 279.335938 41.511719 L 276.707031 45.597656 C 276.5625 45.960938 276.636719 46.398438 277 46.617188 Z M 281.960938 49.539062 C 281.742188 49.828125 281.816406 50.339844 282.109375 50.558594 C 282.253906 50.632812 282.398438 50.707031 282.546875 50.707031 C 282.765625 50.707031 282.984375 50.632812 283.128906 50.414062 L 289.332031 41.804688 C 289.550781 41.511719 289.476562 41 289.183594 40.78125 C 288.894531 40.5625 288.382812 40.636719 288.164062 40.929688 Z M 296.261719 44.429688 C 296.480469 44.429688 296.699219 44.355469 296.847656 44.210938 L 298.890625 41.804688 C 299.179688 41.511719 299.109375 41 298.816406 40.78125 C 298.523438 40.488281 298.085938 40.5625 297.796875 40.855469 L 295.753906 43.261719 C 295.460938 43.554688 295.53125 44.066406 295.824219 44.285156 C 295.898438 44.355469 296.117188 44.429688 296.261719 44.429688 Z M 290.351562 51.363281 C 290.570312 51.363281 290.789062 51.289062 290.9375 51.144531 L 294.875 46.546875 C 295.167969 46.253906 295.09375 45.742188 294.804688 45.523438 C 294.511719 45.234375 294.074219 45.304688 293.78125 45.597656 L 289.84375 50.195312 C 289.550781 50.484375 289.625 50.996094 289.914062 51.214844 C 289.988281 51.289062 290.132812 51.363281 290.351562 51.363281 Z M 287.582031 52.675781 L 286.265625 54.207031 C 285.976562 54.5 286.046875 55.011719 286.339844 55.230469 C 286.484375 55.375 286.632812 55.375 286.851562 55.375 C 287.070312 55.375 287.289062 55.300781 287.433594 55.15625 L 288.746094 53.625 C 289.039062 53.332031 288.964844 52.820312 288.675781 52.601562 C 288.308594 52.382812 287.871094 52.382812 287.582031 52.675781 Z M 310.78125 42.023438 C 310.929688 42.023438 311.148438 41.949219 311.292969 41.804688 L 313.410156 39.90625 C 313.703125 39.613281 313.703125 39.175781 313.480469 38.886719 C 313.191406 38.59375 312.753906 38.59375 312.460938 38.8125 L 310.34375 40.710938 C 310.054688 41 310.054688 41.4375 310.273438 41.730469 C 310.34375 41.949219 310.5625 42.023438 310.78125 42.023438 Z M 303.265625 48.734375 C 303.414062 48.734375 303.632812 48.664062 303.777344 48.515625 L 308.59375 44.210938 C 308.886719 43.917969 308.886719 43.480469 308.667969 43.191406 C 308.375 42.898438 307.9375 42.898438 307.644531 43.117188 L 302.828125 47.421875 C 302.539062 47.714844 302.539062 48.152344 302.757812 48.441406 C 302.828125 48.664062 303.046875 48.734375 303.265625 48.734375 Z M 296.992188 53.625 C 297.136719 53.769531 297.355469 53.84375 297.503906 53.84375 C 297.648438 53.84375 297.867188 53.769531 298.015625 53.625 L 300.347656 51.507812 C 300.640625 51.214844 300.640625 50.777344 300.421875 50.484375 C 300.128906 50.195312 299.691406 50.195312 299.398438 50.414062 L 297.066406 52.527344 C 296.773438 52.820312 296.699219 53.332031 296.992188 53.625 Z M 290.351562 60.261719 C 290.5 60.261719 290.71875 60.191406 290.863281 60.042969 L 294.292969 56.980469 C 294.585938 56.6875 294.585938 56.25 294.367188 55.957031 C 294.074219 55.667969 293.636719 55.667969 293.34375 55.886719 L 289.914062 58.949219 C 289.625 59.242188 289.625 59.679688 289.84375 59.972656 C 289.914062 60.191406 290.132812 60.261719 290.351562 60.261719 Z M 301.589844 62.085938 C 301.664062 62.085938 301.734375 62.085938 301.808594 62.015625 L 306.84375 60.191406 C 307.207031 60.042969 307.425781 59.605469 307.28125 59.242188 C 307.132812 58.878906 306.695312 58.660156 306.332031 58.804688 L 301.296875 60.628906 C 300.933594 60.773438 300.714844 61.210938 300.859375 61.578125 C 301.003906 61.941406 301.296875 62.085938 301.589844 62.085938 Z M 297.210938 62.160156 L 292.105469 63.984375 C 291.738281 64.128906 291.519531 64.566406 291.667969 64.933594 C 291.738281 65.226562 292.03125 65.445312 292.324219 65.445312 C 292.394531 65.445312 292.46875 65.445312 292.542969 65.371094 L 297.648438 63.546875 C 298.015625 63.402344 298.234375 62.964844 298.085938 62.597656 C 298.015625 62.234375 297.648438 62.015625 297.210938 62.160156 Z M 306.84375 68.945312 C 306.914062 69.3125 307.207031 69.53125 307.574219 69.53125 C 307.644531 69.53125 307.644531 69.53125 307.71875 69.53125 L 318.226562 67.851562 C 318.589844 67.777344 318.882812 67.414062 318.808594 67.050781 C 318.734375 66.683594 318.371094 66.390625 318.007812 66.464844 L 307.5 68.144531 C 307.0625 68.214844 306.84375 68.582031 306.84375 68.945312 Z M 301.152344 70.625 L 304.726562 70.039062 C 305.089844 69.96875 305.382812 69.601562 305.308594 69.238281 C 305.238281 68.875 304.871094 68.582031 304.507812 68.65625 L 300.933594 69.238281 C 300.566406 69.3125 300.277344 69.675781 300.347656 70.039062 C 300.421875 70.40625 300.714844 70.625 301.078125 70.625 C 301.078125 70.625 301.078125 70.625 301.152344 70.625 Z M 297.503906 69.75 L 294.730469 70.1875 C 294.367188 70.257812 294.074219 70.625 294.148438 70.988281 C 294.21875 71.355469 294.511719 71.574219 294.875 71.574219 C 294.949219 71.574219 294.949219 71.574219 295.023438 71.574219 L 297.796875 71.136719 C 298.160156 71.0625 298.453125 70.699219 298.378906 70.332031 C 298.234375 69.96875 297.867188 69.675781 297.503906 69.75 Z M 317.496094 76.972656 C 317.933594 76.972656 318.226562 76.679688 318.226562 76.242188 C 318.226562 75.804688 317.933594 75.511719 317.496094 75.511719 L 315.378906 75.511719 C 314.941406 75.511719 314.648438 75.804688 314.648438 76.242188 C 314.648438 76.679688 314.941406 76.972656 315.378906 76.972656 Z M 312.460938 76.972656 C 312.898438 76.972656 313.191406 76.679688 313.191406 76.242188 C 313.191406 75.804688 312.898438 75.511719 312.460938 75.511719 L 308.667969 75.511719 C 308.230469 75.511719 307.9375 75.804688 307.9375 76.242188 C 307.9375 76.679688 308.230469 76.972656 308.667969 76.972656 Z M 294.949219 76.242188 C 294.949219 76.679688 295.242188 76.972656 295.679688 76.972656 L 304.726562 76.972656 C 305.164062 76.972656 305.457031 76.679688 305.457031 76.242188 C 305.457031 75.804688 305.164062 75.511719 304.726562 75.511719 L 295.679688 75.511719 C 295.242188 75.511719 294.949219 75.804688 294.949219 76.242188 Z M 321.726562 85.726562 L 328.804688 86.3125 C 328.804688 86.3125 328.878906 86.3125 328.878906 86.3125 C 329.242188 86.3125 329.609375 86.019531 329.609375 85.65625 C 329.609375 85.289062 329.316406 84.925781 328.949219 84.851562 L 321.875 84.269531 C 321.433594 84.195312 321.144531 84.5625 321.070312 84.925781 C 321.070312 85.289062 321.363281 85.65625 321.726562 85.726562 Z M 318.152344 83.902344 L 315.746094 83.683594 C 315.304688 83.613281 315.015625 83.976562 314.941406 84.339844 C 314.941406 84.78125 315.234375 85.070312 315.597656 85.144531 L 318.007812 85.363281 C 318.007812 85.363281 318.078125 85.363281 318.078125 85.363281 C 318.445312 85.363281 318.808594 85.070312 318.808594 84.707031 C 318.882812 84.339844 318.589844 83.976562 318.152344 83.902344 Z M 302.464844 83.320312 C 302.464844 83.757812 302.757812 84.050781 303.121094 84.121094 L 312.460938 84.925781 C 312.460938 84.925781 312.535156 84.925781 312.535156 84.925781 C 312.898438 84.925781 313.261719 84.632812 313.261719 84.269531 C 313.261719 83.832031 312.972656 83.539062 312.605469 83.464844 L 303.265625 82.664062 C 302.828125 82.589844 302.464844 82.882812 302.464844 83.320312 Z M 300.203125 83.832031 C 300.203125 83.832031 300.277344 83.832031 300.203125 83.832031 C 300.640625 83.832031 300.933594 83.539062 301.003906 83.175781 C 301.003906 82.738281 300.714844 82.445312 300.347656 82.371094 L 296.191406 82.007812 C 295.753906 81.933594 295.460938 82.296875 295.386719 82.664062 C 295.386719 83.101562 295.679688 83.394531 296.042969 83.464844 Z M 304.070312 91.273438 C 303.707031 91.199219 303.265625 91.417969 303.195312 91.855469 C 303.121094 92.222656 303.339844 92.660156 303.777344 92.734375 L 310.054688 93.972656 C 310.125 93.972656 310.125 93.972656 310.199219 93.972656 C 310.5625 93.972656 310.855469 93.753906 310.929688 93.390625 C 311 93.023438 310.78125 92.585938 310.34375 92.511719 Z M 295.972656 91.199219 L 300.496094 92.074219 C 300.566406 92.074219 300.566406 92.074219 300.640625 92.074219 C 301.003906 92.074219 301.296875 91.855469 301.371094 91.492188 C 301.441406 91.128906 301.222656 90.691406 300.785156 90.617188 L 296.261719 89.742188 C 295.898438 89.667969 295.460938 89.886719 295.386719 90.324219 C 295.3125 90.761719 295.605469 91.128906 295.972656 91.199219 Z M 156.316406 107.835938 C 156.316406 107.542969 156.535156 107.253906 156.828125 107.179688 C 163.539062 105.574219 164.707031 104.480469 166.3125 97.695312 C 166.386719 97.402344 166.679688 97.183594 166.96875 97.183594 C 167.261719 97.183594 167.554688 97.402344 167.625 97.695312 C 169.230469 104.40625 170.328125 105.574219 177.113281 107.179688 C 177.402344 107.253906 177.621094 107.542969 177.621094 107.835938 C 177.621094 108.128906 177.402344 108.417969 177.113281 108.492188 C 170.398438 110.097656 169.230469 111.191406 167.625 117.976562 C 167.554688 118.269531 167.261719 118.488281 166.96875 118.488281 C 166.679688 118.488281 166.386719 118.269531 166.3125 117.976562 C 164.707031 111.265625 163.613281 110.097656 156.828125 108.492188 C 156.535156 108.417969 156.316406 108.128906 156.316406 107.835938 Z M 159.671875 107.835938 C 163.980469 109.148438 165.65625 110.753906 166.96875 115.132812 C 168.285156 110.828125 169.886719 109.148438 174.265625 107.835938 C 169.960938 106.523438 168.285156 104.917969 166.96875 100.539062 C 165.65625 104.917969 164.050781 106.523438 159.671875 107.835938 Z M 302.757812 173.503906 C 302.464844 173.429688 302.246094 173.140625 302.246094 172.847656 C 302.246094 172.554688 302.464844 172.261719 302.757812 172.191406 C 309.46875 170.585938 310.636719 169.492188 312.242188 162.707031 C 312.316406 162.414062 312.605469 162.195312 312.898438 162.195312 C 313.191406 162.195312 313.480469 162.414062 313.554688 162.707031 C 315.160156 169.417969 316.253906 170.585938 323.039062 172.191406 C 323.332031 172.265625 323.550781 172.554688 323.550781 172.847656 C 323.550781 173.140625 323.332031 173.429688 323.039062 173.503906 C 316.328125 175.109375 315.160156 176.203125 313.554688 182.988281 C 313.480469 183.28125 313.191406 183.5 312.898438 183.5 C 312.605469 183.5 312.316406 183.28125 312.242188 182.988281 C 310.636719 176.277344 309.46875 175.109375 302.757812 173.503906 Z M 305.601562 172.847656 C 309.90625 174.160156 311.585938 175.765625 312.898438 180.144531 C 314.210938 175.839844 315.816406 174.160156 320.195312 172.847656 C 315.890625 171.535156 314.210938 169.929688 312.898438 165.550781 C 311.585938 169.929688 309.90625 171.535156 305.601562 172.847656 Z M 172.660156 38.082031 C 176.019531 38.886719 178.351562 39.613281 180.03125 40.636719 C 179.519531 41.730469 178.863281 42.972656 177.914062 44.429688 C 177.695312 44.722656 177.769531 45.160156 178.0625 45.453125 C 178.351562 45.742188 178.71875 45.742188 179.082031 45.597656 C 180.542969 44.648438 181.78125 43.992188 182.875 43.480469 C 183.898438 45.160156 184.628906 47.496094 185.429688 50.851562 C 185.503906 51.214844 185.867188 51.433594 186.234375 51.433594 C 186.597656 51.433594 186.960938 51.144531 187.035156 50.851562 C 187.835938 47.496094 188.566406 45.160156 189.589844 43.480469 C 190.683594 43.992188 191.925781 44.648438 193.382812 45.597656 C 193.527344 45.671875 193.675781 45.742188 193.820312 45.742188 C 194.039062 45.742188 194.257812 45.671875 194.40625 45.523438 C 194.695312 45.234375 194.695312 44.867188 194.550781 44.503906 C 193.601562 43.042969 192.945312 41.804688 192.433594 40.710938 C 194.113281 39.6875 196.449219 38.957031 199.804688 38.15625 C 200.167969 38.082031 200.386719 37.71875 200.386719 37.351562 C 200.386719 36.988281 200.097656 36.621094 199.804688 36.550781 C 196.449219 35.746094 194.113281 35.019531 192.433594 33.996094 C 192.945312 32.902344 193.601562 31.660156 194.550781 30.203125 C 194.769531 29.910156 194.695312 29.472656 194.40625 29.179688 C 194.113281 28.890625 193.746094 28.890625 193.382812 29.035156 C 191.925781 29.910156 190.683594 30.640625 189.589844 31.152344 C 188.566406 29.472656 187.835938 27.136719 187.035156 23.78125 C 186.960938 23.417969 186.597656 23.199219 186.234375 23.199219 C 185.867188 23.199219 185.503906 23.488281 185.429688 23.78125 C 184.628906 27.136719 183.898438 29.472656 182.875 31.152344 C 181.78125 30.640625 180.542969 29.984375 179.082031 29.035156 C 178.789062 28.816406 178.351562 28.890625 178.0625 29.179688 C 177.769531 29.472656 177.769531 29.835938 177.914062 30.203125 C 178.863281 31.660156 179.519531 32.902344 180.03125 33.996094 C 178.351562 35.019531 176.019531 35.746094 172.660156 36.550781 C 172.296875 36.621094 172.078125 36.988281 172.078125 37.351562 C 172.078125 37.71875 172.296875 38.007812 172.660156 38.082031 Z M 306.695312 229.6875 C 306.695312 229.394531 306.476562 229.175781 306.257812 229.101562 C 303.851562 228.519531 302.171875 228.007812 300.933594 227.277344 C 301.296875 226.476562 301.808594 225.601562 302.464844 224.578125 C 302.609375 224.359375 302.539062 224.066406 302.390625 223.847656 C 302.171875 223.628906 301.882812 223.628906 301.664062 223.777344 C 300.566406 224.433594 299.691406 224.945312 298.960938 225.308594 C 298.234375 224.066406 297.722656 222.390625 297.136719 219.980469 C 297.066406 219.691406 296.847656 219.542969 296.554688 219.542969 C 296.261719 219.542969 296.042969 219.761719 295.972656 219.980469 C 295.386719 222.390625 294.875 224.066406 294.148438 225.308594 C 293.34375 224.945312 292.46875 224.433594 291.445312 223.777344 C 291.226562 223.628906 290.9375 223.703125 290.71875 223.847656 C 290.5 224.066406 290.5 224.359375 290.644531 224.578125 C 291.300781 225.671875 291.8125 226.550781 292.175781 227.277344 C 290.9375 228.007812 289.257812 228.519531 286.851562 229.101562 C 286.558594 229.175781 286.414062 229.394531 286.414062 229.6875 C 286.414062 229.976562 286.632812 230.199219 286.851562 230.269531 C 289.257812 230.855469 290.9375 231.363281 292.175781 232.09375 C 291.8125 232.898438 291.300781 233.773438 290.644531 234.792969 C 290.5 235.011719 290.570312 235.304688 290.71875 235.523438 C 290.9375 235.742188 291.226562 235.742188 291.445312 235.597656 C 292.542969 234.941406 293.417969 234.429688 294.148438 234.0625 C 294.875 235.304688 295.386719 236.984375 295.972656 239.390625 C 296.042969 239.683594 296.261719 239.828125 296.554688 239.828125 C 296.847656 239.828125 297.066406 239.609375 297.136719 239.390625 C 297.722656 236.984375 298.234375 235.304688 298.960938 234.0625 C 299.765625 234.429688 300.640625 234.941406 301.664062 235.597656 C 301.734375 235.667969 301.882812 235.667969 301.953125 235.667969 C 302.101562 235.667969 302.246094 235.597656 302.390625 235.523438 C 302.609375 235.304688 302.609375 235.011719 302.464844 234.792969 C 301.808594 233.699219 301.296875 232.824219 300.933594 232.09375 C 302.171875 231.363281 303.851562 230.855469 306.257812 230.269531 C 306.476562 230.199219 306.695312 229.976562 306.695312 229.6875 Z M 321.070312 208.746094 C 321.070312 206.410156 322.96875 204.515625 325.300781 204.515625 C 327.636719 204.515625 329.535156 206.410156 329.535156 208.746094 C 329.535156 211.082031 327.636719 212.976562 325.300781 212.976562 C 322.96875 212.976562 321.070312 211.082031 321.070312 208.746094 Z M 322.53125 208.746094 C 322.53125 210.277344 323.769531 211.519531 325.300781 211.519531 C 326.835938 211.519531 328.074219 210.277344 328.074219 208.746094 C 328.074219 207.214844 326.835938 205.972656 325.300781 205.972656 C 323.769531 205.972656 322.53125 207.214844 322.53125 208.746094 Z M 193.96875 75.730469 C 193.96875 78.066406 192.070312 79.964844 189.734375 79.964844 C 187.398438 79.964844 185.503906 78.066406 185.503906 75.730469 C 185.503906 73.398438 187.398438 71.5 189.734375 71.5 C 192.070312 71.5 193.96875 73.398438 193.96875 75.730469 Z M 192.507812 75.730469 C 192.507812 74.199219 191.265625 72.960938 189.734375 72.960938 C 188.203125 72.960938 186.960938 74.199219 186.960938 75.730469 C 186.960938 77.265625 188.203125 78.503906 189.734375 78.503906 C 191.265625 78.503906 192.507812 77.335938 192.507812 75.730469 Z M 219.285156 25.386719 C 220.234375 25.386719 221.035156 24.582031 221.035156 23.636719 C 221.035156 22.6875 220.234375 21.882812 219.285156 21.882812 C 218.335938 21.882812 217.535156 22.6875 217.535156 23.636719 C 217.535156 24.582031 218.335938 25.386719 219.285156 25.386719 Z M 305.601562 282.730469 C 307.207031 282.730469 308.449219 281.417969 308.449219 279.886719 C 308.449219 278.355469 307.132812 277.039062 305.601562 277.039062 C 304.070312 277.039062 302.757812 278.355469 302.757812 279.886719 C 302.757812 281.417969 303.996094 282.730469 305.601562 282.730469 Z M 232.054688 131.988281 C 232.199219 131.695312 232.566406 131.550781 232.929688 131.621094 C 233.222656 131.695312 233.441406 132.058594 233.441406 132.351562 C 233.292969 135.050781 233.511719 135.417969 235.847656 136.804688 C 236.140625 136.949219 236.285156 137.3125 236.214844 137.679688 C 236.140625 137.96875 235.847656 138.1875 235.484375 138.1875 C 232.785156 138.042969 232.417969 138.261719 231.03125 140.597656 C 230.886719 140.816406 230.667969 140.960938 230.375 140.960938 C 230.304688 140.960938 230.230469 140.960938 230.15625 140.960938 C 229.867188 140.890625 229.644531 140.523438 229.644531 140.230469 C 229.792969 137.53125 229.574219 137.167969 227.238281 135.78125 C 226.945312 135.636719 226.800781 135.269531 226.875 134.90625 C 226.945312 134.613281 227.238281 134.394531 227.601562 134.394531 C 230.304688 134.542969 230.667969 134.320312 232.054688 131.988281 Z M 229.867188 135.78125 C 230.523438 136.363281 230.886719 137.023438 231.03125 137.96875 C 231.617188 137.3125 232.273438 136.949219 233.222656 136.804688 C 232.566406 136.21875 232.199219 135.5625 232.054688 134.613281 C 231.398438 135.269531 230.742188 135.636719 229.867188 135.78125 Z M 235.777344 135.78125 C 236.722656 135.78125 237.820312 135.707031 238.839844 135.488281 C 239.203125 135.417969 239.496094 135.050781 239.421875 134.613281 C 239.351562 134.25 238.984375 133.957031 238.546875 134.03125 C 237.597656 134.175781 236.652344 134.320312 235.777344 134.320312 C 235.335938 134.320312 235.046875 134.6875 235.046875 135.050781 C 235.046875 135.417969 235.335938 135.78125 235.777344 135.78125 Z M 228.1875 133.738281 C 228.332031 133.8125 228.480469 133.882812 228.550781 133.882812 C 228.769531 133.882812 229.0625 133.738281 229.136719 133.519531 C 229.355469 133.15625 229.28125 132.71875 228.917969 132.5 C 228.113281 131.988281 227.382812 131.332031 226.65625 130.601562 C 226.363281 130.308594 225.925781 130.308594 225.632812 130.601562 C 225.339844 130.894531 225.339844 131.332031 225.632812 131.621094 C 226.4375 132.425781 227.3125 133.15625 228.1875 133.738281 Z M 228.1875 133.738281 " fill-opacity="1" fill-rule="nonzero"/></g></svg>