<svg xmlns="http://www.w3.org/2000/svg" xmlns:xlink="http://www.w3.org/1999/xlink" width="500" zoomAndPan="magnify" viewBox="0 0 375 374.999991" height="500" preserveAspectRatio="xMidYMid meet" version="1.0"><defs><clipPath id="01e8b846a8"><path d="M 51.570312 237 L 70 237 L 70 263 L 51.570312 263 Z M 51.570312 237 " clip-rule="nonzero"/></clipPath><clipPath id="21e5604465"><path d="M 57 6.863281 L 293 6.863281 L 293 368 L 57 368 Z M 57 6.863281 " clip-rule="nonzero"/></clipPath></defs><path fill="#c62328" d="M 260.347656 270.402344 C 259.910156 270.402344 259.546875 270.050781 259.546875 269.625 L 259.546875 254.875 C 259.546875 254.460938 259.910156 254.070312 260.347656 254.070312 C 260.789062 254.070312 261.152344 254.460938 261.152344 254.875 L 261.152344 269.625 C 261.152344 270.050781 260.789062 270.402344 260.347656 270.402344 " fill-opacity="1" fill-rule="nonzero"/><path fill="#c62328" d="M 260.347656 223.015625 C 259.910156 223.015625 259.546875 222.664062 259.546875 222.214844 L 259.546875 207.488281 C 259.546875 207.035156 259.910156 206.683594 260.347656 206.683594 C 260.789062 206.683594 261.152344 207.035156 261.152344 207.488281 L 261.152344 222.214844 C 261.152344 222.664062 260.789062 223.015625 260.347656 223.015625 " fill-opacity="1" fill-rule="nonzero"/><path fill="#c62328" d="M 243.71875 239.597656 L 228.714844 239.597656 C 228.277344 239.597656 227.914062 239.246094 227.914062 238.792969 C 227.914062 238.34375 228.265625 237.992188 228.703125 237.992188 L 243.71875 237.992188 C 244.15625 237.992188 244.519531 238.34375 244.519531 238.792969 C 244.519531 239.246094 244.15625 239.597656 243.71875 239.597656 " fill-opacity="1" fill-rule="nonzero"/><path fill="#c62328" d="M 276.980469 239.472656 C 276.542969 239.472656 276.191406 239.121094 276.175781 238.667969 C 276.175781 238.21875 276.527344 237.867188 276.980469 237.867188 L 291.980469 237.742188 C 292.433594 237.742188 292.785156 238.09375 292.785156 238.542969 C 292.796875 238.996094 292.433594 239.34375 291.992188 239.34375 L 276.992188 239.472656 C 276.980469 239.472656 276.980469 239.472656 276.980469 239.472656 " fill-opacity="1" fill-rule="nonzero"/><path fill="#c62328" d="M 282.71875 261.316406 C 282.519531 261.316406 282.320312 261.226562 282.15625 261.089844 L 271.554688 250.664062 C 271.226562 250.347656 271.226562 249.859375 271.539062 249.546875 C 271.839844 249.222656 272.355469 249.222656 272.667969 249.507812 L 283.285156 259.9375 C 283.597656 260.261719 283.597656 260.777344 283.285156 261.066406 C 283.132812 261.226562 282.921875 261.316406 282.71875 261.316406 " fill-opacity="1" fill-rule="nonzero"/><path fill="#c62328" d="M 248.582031 227.789062 C 248.378906 227.789062 248.179688 227.726562 248.027344 227.566406 L 237.414062 217.136719 L 238.542969 216.023438 L 249.144531 226.410156 C 249.457031 226.738281 249.46875 227.25 249.15625 227.566406 C 248.992188 227.726562 248.792969 227.789062 248.582031 227.789062 " fill-opacity="1" fill-rule="nonzero"/><path fill="#c62328" d="M 238.152344 261.476562 C 237.941406 261.476562 237.738281 261.414062 237.589844 261.253906 C 237.277344 260.9375 237.277344 260.425781 237.589844 260.136719 L 248.203125 249.710938 C 248.519531 249.382812 249.019531 249.382812 249.332031 249.710938 C 249.644531 250.023438 249.632812 250.539062 249.320312 250.824219 L 238.71875 261.253906 C 238.554688 261.414062 238.355469 261.476562 238.152344 261.476562 " fill-opacity="1" fill-rule="nonzero"/><path fill="#c62328" d="M 272.191406 227.890625 C 271.992188 227.890625 271.777344 227.789062 271.628906 227.628906 C 271.316406 227.339844 271.316406 226.824219 271.628906 226.511719 L 282.15625 216.023438 C 282.46875 215.695312 282.96875 215.695312 283.285156 216.023438 C 283.597656 216.335938 283.597656 216.824219 283.285156 217.136719 L 272.757812 227.628906 C 272.605469 227.789062 272.394531 227.890625 272.191406 227.890625 " fill-opacity="1" fill-rule="nonzero"/><path fill="#c62328" d="M 270.25 264.949219 C 269.9375 264.949219 269.625 264.75 269.496094 264.4375 L 266.1875 255.863281 C 266.027344 255.449219 266.238281 255 266.652344 254.835938 C 267.054688 254.671875 267.53125 254.875 267.679688 255.289062 L 271 263.859375 C 271.152344 264.273438 270.953125 264.722656 270.539062 264.886719 C 270.4375 264.914062 270.351562 264.949219 270.25 264.949219 " fill-opacity="1" fill-rule="nonzero"/><path fill="#c62328" d="M 253.054688 222.5 C 252.742188 222.5 252.429688 222.300781 252.316406 221.988281 L 248.992188 213.414062 C 248.832031 213 249.042969 212.550781 249.457031 212.386719 C 249.871094 212.238281 250.335938 212.425781 250.484375 212.839844 L 253.792969 221.410156 C 253.957031 221.785156 253.757812 222.277344 253.34375 222.4375 C 253.242188 222.464844 253.15625 222.5 253.054688 222.5 " fill-opacity="1" fill-rule="nonzero"/><path fill="#c62328" d="M 234.191406 249.734375 C 233.878906 249.734375 233.566406 249.546875 233.453125 249.222656 C 233.304688 248.808594 233.503906 248.355469 233.917969 248.195312 L 242.640625 244.921875 C 243.054688 244.757812 243.515625 244.984375 243.667969 245.410156 C 243.816406 245.824219 243.605469 246.277344 243.191406 246.4375 L 234.480469 249.671875 C 234.378906 249.710938 234.292969 249.734375 234.191406 249.734375 " fill-opacity="1" fill-rule="nonzero"/><path fill="#c62328" d="M 277.230469 233.21875 C 276.917969 233.21875 276.617188 233.015625 276.492188 232.703125 C 276.328125 232.289062 276.527344 231.839844 276.941406 231.675781 L 285.589844 228.242188 C 286.003906 228.078125 286.46875 228.277344 286.628906 228.691406 C 286.792969 229.105469 286.59375 229.558594 286.179688 229.71875 L 277.53125 233.152344 C 277.429688 233.179688 277.332031 233.21875 277.230469 233.21875 " fill-opacity="1" fill-rule="nonzero"/><path fill="#c62328" d="M 285.777344 250.574219 C 285.664062 250.574219 285.566406 250.539062 285.453125 250.511719 L 276.953125 246.753906 C 276.554688 246.5625 276.367188 246.113281 276.542969 245.699219 C 276.714844 245.273438 277.191406 245.121094 277.59375 245.273438 L 286.105469 249.035156 C 286.503906 249.222656 286.691406 249.710938 286.503906 250.085938 C 286.378906 250.375 286.078125 250.574219 285.777344 250.574219 " fill-opacity="1" fill-rule="nonzero"/><path fill="#c62328" d="M 242.425781 232.316406 C 242.328125 232.316406 242.214844 232.289062 242.113281 232.25 L 233.605469 228.492188 C 233.203125 228.304688 233.015625 227.828125 233.191406 227.4375 C 233.367188 227.027344 233.84375 226.863281 234.253906 227.027344 L 242.753906 230.773438 C 243.152344 230.972656 243.339844 231.414062 243.167969 231.839844 C 243.027344 232.125 242.738281 232.316406 242.425781 232.316406 " fill-opacity="1" fill-rule="nonzero"/><path fill="#c62328" d="M 249.121094 264.398438 C 249.007812 264.398438 248.894531 264.398438 248.78125 264.335938 C 248.378906 264.148438 248.203125 263.695312 248.390625 263.28125 L 252.214844 254.9375 C 252.402344 254.523438 252.878906 254.359375 253.28125 254.523438 C 253.679688 254.710938 253.855469 255.1875 253.667969 255.574219 L 249.847656 263.949219 C 249.722656 264.234375 249.421875 264.398438 249.121094 264.398438 " fill-opacity="1" fill-rule="nonzero"/><path fill="#c62328" d="M 267.566406 222.753906 C 267.453125 222.753906 267.34375 222.726562 267.242188 222.6875 C 266.828125 222.5 266.652344 222.050781 266.839844 221.636719 L 270.589844 213.253906 C 270.777344 212.839844 271.238281 212.675781 271.640625 212.839844 C 272.054688 213.039062 272.230469 213.476562 272.054688 213.902344 L 268.292969 222.277344 C 268.167969 222.589844 267.867188 222.753906 267.566406 222.753906 " fill-opacity="1" fill-rule="nonzero"/><path fill="#c62328" d="M 273.558594 260.613281 C 273.296875 260.613281 273.03125 260.488281 272.882812 260.261719 L 268.40625 253.167969 C 268.167969 252.816406 268.28125 252.304688 268.644531 252.078125 C 269.019531 251.828125 269.523438 251.953125 269.761719 252.34375 L 274.234375 259.398438 C 274.460938 259.773438 274.359375 260.261719 273.984375 260.511719 C 273.847656 260.574219 273.695312 260.613281 273.558594 260.613281 " fill-opacity="1" fill-rule="nonzero"/><path fill="#c62328" d="M 251.097656 225.609375 C 250.835938 225.609375 250.574219 225.484375 250.421875 225.222656 L 245.949219 218.164062 C 245.710938 217.777344 245.824219 217.300781 246.199219 217.050781 C 246.5625 216.824219 247.0625 216.949219 247.300781 217.300781 L 251.777344 224.394531 C 252.015625 224.746094 251.902344 225.257812 251.527344 225.484375 C 251.386719 225.585938 251.238281 225.609375 251.097656 225.609375 " fill-opacity="1" fill-rule="nonzero"/><path fill="#c62328" d="M 238.554688 253.007812 C 238.292969 253.007812 238.027344 252.878906 237.878906 252.628906 C 237.652344 252.242188 237.765625 251.753906 238.140625 251.539062 L 245.347656 247.140625 C 245.722656 246.914062 246.210938 247.015625 246.449219 247.390625 C 246.675781 247.78125 246.5625 248.257812 246.1875 248.480469 L 238.96875 252.878906 C 238.84375 252.980469 238.703125 253.007812 238.554688 253.007812 " fill-opacity="1" fill-rule="nonzero"/><path fill="#c62328" d="M 274.386719 231 C 274.121094 231 273.859375 230.875 273.707031 230.609375 C 273.46875 230.257812 273.597656 229.746094 273.960938 229.519531 L 281.140625 225.070312 C 281.503906 224.84375 282.003906 224.96875 282.242188 225.320312 C 282.46875 225.710938 282.355469 226.1875 281.980469 226.449219 L 274.8125 230.875 C 274.671875 230.972656 274.535156 231 274.386719 231 " fill-opacity="1" fill-rule="nonzero"/><path fill="#c62328" d="M 284.710938 245.375 C 284.648438 245.375 284.585938 245.375 284.523438 245.335938 L 276.265625 243.445312 C 275.839844 243.355469 275.574219 242.929688 275.664062 242.492188 C 275.765625 242.066406 276.191406 241.777344 276.628906 241.914062 L 284.886719 243.808594 C 285.3125 243.894531 285.589844 244.320312 285.488281 244.757812 C 285.402344 245.121094 285.074219 245.375 284.710938 245.375 " fill-opacity="1" fill-rule="nonzero"/><path fill="#c62328" d="M 243.566406 235.910156 C 243.503906 235.910156 243.441406 235.910156 243.378906 235.910156 L 235.121094 234.019531 C 234.695312 233.917969 234.417969 233.46875 234.519531 233.054688 C 234.617188 232.601562 235.046875 232.351562 235.484375 232.441406 L 243.742188 234.332031 C 244.167969 234.433594 244.445312 234.882812 244.34375 235.296875 C 244.257812 235.6875 243.929688 235.910156 243.566406 235.910156 " fill-opacity="1" fill-rule="nonzero"/><path fill="#c62328" d="M 254.421875 264.011719 C 254.359375 264.011719 254.296875 263.984375 254.234375 263.984375 C 253.808594 263.882812 253.542969 263.433594 253.644531 263.019531 L 255.574219 254.898438 C 255.6875 254.484375 256.113281 254.195312 256.539062 254.320312 C 256.976562 254.421875 257.226562 254.835938 257.140625 255.289062 L 255.199219 263.410156 C 255.109375 263.757812 254.785156 264.011719 254.421875 264.011719 " fill-opacity="1" fill-rule="nonzero"/><path fill="#c62328" d="M 263.921875 223.554688 C 263.859375 223.554688 263.796875 223.554688 263.734375 223.554688 C 263.304688 223.464844 263.03125 223.015625 263.144531 222.589844 L 265 214.441406 C 265.097656 214.027344 265.523438 213.765625 265.964844 213.867188 C 266.390625 213.964844 266.652344 214.378906 266.566406 214.832031 L 264.699219 222.953125 C 264.609375 223.328125 264.285156 223.554688 263.921875 223.554688 " fill-opacity="1" fill-rule="nonzero"/><path fill="#c62328" d="M 265.085938 263.984375 C 264.722656 263.984375 264.382812 263.695312 264.308594 263.347656 L 262.667969 255.160156 C 262.59375 254.710938 262.867188 254.296875 263.304688 254.195312 C 263.734375 254.132812 264.160156 254.386719 264.234375 254.835938 L 265.875 263.019531 C 265.964844 263.433594 265.675781 263.859375 265.25 263.949219 C 265.199219 263.949219 265.136719 263.984375 265.085938 263.984375 " fill-opacity="1" fill-rule="nonzero"/><path fill="#c62328" d="M 256.726562 223.390625 C 256.351562 223.390625 256.011719 223.140625 255.9375 222.753906 L 254.308594 214.605469 C 254.21875 214.15625 254.496094 213.742188 254.933594 213.640625 C 255.375 213.554688 255.785156 213.839844 255.875 214.28125 L 257.503906 222.464844 C 257.589844 222.878906 257.316406 223.304688 256.878906 223.390625 C 256.828125 223.390625 256.777344 223.390625 256.726562 223.390625 " fill-opacity="1" fill-rule="nonzero"/><path fill="#c62328" d="M 235.109375 244.671875 C 234.730469 244.671875 234.394531 244.410156 234.316406 244.03125 C 234.242188 243.582031 234.519531 243.15625 234.957031 243.09375 L 243.292969 241.488281 C 243.71875 241.402344 244.144531 241.6875 244.21875 242.101562 C 244.308594 242.554688 244.019531 242.96875 243.59375 243.066406 L 235.257812 244.671875 C 235.207031 244.671875 235.15625 244.671875 235.109375 244.671875 " fill-opacity="1" fill-rule="nonzero"/><path fill="#c62328" d="M 276.554688 236.550781 C 276.175781 236.550781 275.839844 236.300781 275.765625 235.910156 C 275.675781 235.496094 275.964844 235.070312 276.390625 234.984375 L 284.710938 233.304688 C 285.136719 233.21875 285.566406 233.503906 285.652344 233.957031 C 285.742188 234.371094 285.453125 234.785156 285.027344 234.882812 L 276.703125 236.550781 C 276.652344 236.550781 276.605469 236.550781 276.554688 236.550781 " fill-opacity="1" fill-rule="nonzero"/><path fill="#c62328" d="M 281.027344 253.582031 C 280.863281 253.582031 280.714844 253.558594 280.589844 253.457031 L 273.546875 248.808594 C 273.167969 248.542969 273.070312 248.066406 273.308594 247.679688 C 273.558594 247.328125 274.046875 247.242188 274.421875 247.453125 L 281.464844 252.117188 C 281.828125 252.367188 281.929688 252.855469 281.691406 253.230469 C 281.527344 253.457031 281.277344 253.582031 281.027344 253.582031 " fill-opacity="1" fill-rule="nonzero"/><path fill="#c62328" d="M 245.949219 230.421875 C 245.796875 230.421875 245.648438 230.398438 245.511719 230.296875 L 238.464844 225.648438 C 238.101562 225.421875 238.003906 224.90625 238.242188 224.558594 C 238.492188 224.167969 238.980469 224.066406 239.355469 224.332031 L 246.386719 228.980469 C 246.761719 229.207031 246.863281 229.71875 246.625 230.070312 C 246.476562 230.296875 246.210938 230.421875 245.949219 230.421875 " fill-opacity="1" fill-rule="nonzero"/><path fill="#c62328" d="M 245.972656 260.488281 C 245.824219 260.488281 245.660156 260.425781 245.523438 260.324219 C 245.160156 260.074219 245.070312 259.585938 245.320312 259.234375 L 250.058594 252.304688 C 250.308594 251.953125 250.796875 251.851562 251.164062 252.117188 C 251.527344 252.34375 251.625 252.855469 251.375 253.207031 L 246.636719 260.136719 C 246.488281 260.363281 246.238281 260.488281 245.972656 260.488281 " fill-opacity="1" fill-rule="nonzero"/><path fill="#c62328" d="M 269.433594 225.960938 C 269.285156 225.960938 269.132812 225.933594 268.996094 225.835938 C 268.632812 225.585938 268.53125 225.09375 268.785156 224.707031 L 273.457031 217.75 C 273.707031 217.402344 274.210938 217.300781 274.574219 217.5625 C 274.9375 217.777344 275.039062 218.289062 274.785156 218.652344 L 270.097656 225.609375 C 269.949219 225.835938 269.699219 225.960938 269.433594 225.960938 " fill-opacity="1" fill-rule="nonzero"/><path fill="#c62328" d="M 260.347656 226.535156 C 253.605469 226.535156 248.128906 231.925781 248.128906 238.542969 C 248.128906 245.148438 253.605469 250.539062 260.347656 250.539062 C 267.089844 250.539062 272.566406 245.148438 272.566406 238.542969 C 272.566406 231.925781 267.089844 226.535156 260.347656 226.535156 Z M 260.347656 252.140625 C 252.730469 252.140625 246.523438 246.050781 246.523438 238.542969 C 246.523438 231.0625 252.730469 224.96875 260.347656 224.96875 C 267.96875 224.96875 274.171875 231.0625 274.171875 238.542969 C 274.171875 246.050781 267.96875 252.140625 260.347656 252.140625 " fill-opacity="1" fill-rule="nonzero"/><path fill="#c62328" d="M 78.324219 97.148438 C 67.042969 97.148438 57.867188 88.800781 57.867188 78.601562 C 57.867188 68.371094 67.042969 60.050781 78.324219 60.050781 C 81.078125 60.050781 83.761719 60.539062 86.28125 61.503906 C 86.769531 61.691406 87.019531 62.246094 86.832031 62.757812 C 86.644531 63.234375 86.09375 63.484375 85.589844 63.296875 C 83.285156 62.394531 80.839844 61.957031 78.324219 61.957031 C 68.109375 61.957031 59.785156 69.425781 59.785156 78.601562 C 59.785156 87.75 68.109375 95.21875 78.324219 95.21875 C 80.855469 95.21875 83.296875 94.765625 85.589844 93.878906 C 86.09375 93.675781 86.644531 93.941406 86.832031 94.453125 C 87.019531 94.929688 86.769531 95.480469 86.28125 95.667969 C 83.761719 96.632812 81.078125 97.148438 78.324219 97.148438 " fill-opacity="1" fill-rule="nonzero"/><path fill="#c62328" d="M 85.941406 95.730469 C 85.917969 95.730469 85.890625 95.730469 85.867188 95.730469 C 76.003906 94.929688 68.585938 87.546875 68.585938 78.601562 C 68.585938 69.613281 76.003906 62.246094 85.867188 61.441406 C 86.382812 61.40625 86.855469 61.792969 86.894531 62.332031 C 86.933594 62.847656 86.542969 63.296875 86.015625 63.359375 C 77.167969 64.0625 70.5 70.617188 70.5 78.601562 C 70.5 86.558594 77.167969 93.101562 86.015625 93.816406 C 86.542969 93.878906 86.933594 94.328125 86.894531 94.867188 C 86.855469 95.34375 86.429688 95.730469 85.941406 95.730469 " fill-opacity="1" fill-rule="nonzero"/><path fill="#c62328" d="M 108.652344 117.941406 C 99.753906 117.941406 96.257812 113.867188 96.257812 103.503906 C 96.257812 113.867188 92.761719 117.941406 83.863281 117.941406 C 92.761719 117.941406 96.257812 122.011719 96.257812 132.402344 C 96.257812 122.011719 99.753906 117.941406 108.652344 117.941406 " fill-opacity="1" fill-rule="nonzero"/><path fill="#c62328" d="M 246.5625 66.566406 C 241.386719 66.566406 239.34375 64.199219 239.34375 58.160156 C 239.34375 64.199219 237.3125 66.566406 232.125 66.566406 C 237.3125 66.566406 239.34375 68.949219 239.34375 75.003906 C 239.34375 68.949219 241.386719 66.566406 246.5625 66.566406 " fill-opacity="1" fill-rule="nonzero"/><path fill="#c62328" d="M 307.734375 262.179688 C 302.546875 262.179688 300.515625 259.8125 300.515625 253.78125 C 300.515625 259.8125 298.484375 262.179688 293.296875 262.179688 C 298.484375 262.179688 300.515625 264.5625 300.515625 270.589844 C 300.515625 264.5625 302.546875 262.179688 307.734375 262.179688 " fill-opacity="1" fill-rule="nonzero"/><path fill="#c62328" d="M 124.855469 34.382812 C 117.449219 34.382812 114.542969 30.988281 114.542969 22.351562 C 114.542969 30.988281 111.621094 34.382812 104.214844 34.382812 C 111.621094 34.382812 114.542969 37.792969 114.542969 46.414062 C 114.542969 37.792969 117.449219 34.382812 124.855469 34.382812 " fill-opacity="1" fill-rule="nonzero"/><g clip-path="url(#01e8b846a8)"><path fill="#c62328" d="M 69.988281 250.285156 C 63.507812 250.285156 60.964844 246.726562 60.964844 237.742188 C 60.964844 246.726562 58.421875 250.285156 51.941406 250.285156 C 58.421875 250.285156 60.964844 253.808594 60.964844 262.832031 C 60.964844 253.808594 63.507812 250.285156 69.988281 250.285156 " fill-opacity="1" fill-rule="nonzero"/></g><path fill="#c62328" d="M 224.855469 104.59375 C 214.464844 104.59375 210.378906 99.84375 210.378906 87.710938 C 210.378906 99.84375 206.28125 104.59375 195.878906 104.59375 C 206.28125 104.59375 210.378906 109.367188 210.378906 121.5 C 210.378906 109.367188 214.464844 104.59375 224.855469 104.59375 " fill-opacity="1" fill-rule="nonzero"/><path fill="#c62328" d="M 320.59375 194.226562 C 310.191406 194.226562 306.105469 189.488281 306.105469 177.359375 C 306.105469 189.488281 302.019531 194.226562 291.628906 194.226562 C 302.019531 194.226562 306.105469 199.015625 306.105469 211.109375 C 306.105469 199.015625 310.191406 194.226562 320.59375 194.226562 " fill-opacity="1" fill-rule="nonzero"/><path fill="#c62328" d="M 101.40625 295.96875 C 90.765625 295.96875 86.59375 291.09375 86.59375 278.710938 C 86.59375 291.09375 82.421875 295.96875 71.78125 295.96875 C 82.421875 295.96875 86.59375 300.820312 86.59375 313.226562 C 86.59375 300.820312 90.765625 295.96875 101.40625 295.96875 " fill-opacity="1" fill-rule="nonzero"/><path fill="#c62328" d="M 93.964844 261.929688 C 93.964844 260.613281 92.886719 259.5625 91.570312 259.5625 C 90.242188 259.5625 89.164062 260.613281 89.164062 261.929688 C 89.164062 263.28125 90.242188 264.335938 91.570312 264.335938 C 92.886719 264.335938 93.964844 263.28125 93.964844 261.929688 " fill-opacity="1" fill-rule="nonzero"/><path fill="#c62328" d="M 106.609375 86.457031 C 106.609375 85.117188 105.542969 84.050781 104.214844 84.050781 C 102.898438 84.050781 101.820312 85.117188 101.820312 86.457031 C 101.820312 87.773438 102.898438 88.839844 104.214844 88.839844 C 105.542969 88.839844 106.609375 87.773438 106.609375 86.457031 " fill-opacity="1" fill-rule="nonzero"/><path fill="#c62328" d="M 206.394531 62.394531 C 206.394531 61.078125 205.316406 59.988281 204 59.988281 C 202.671875 59.988281 201.609375 61.078125 201.609375 62.394531 C 201.609375 63.710938 202.671875 64.800781 204 64.800781 C 205.316406 64.800781 206.394531 63.710938 206.394531 62.394531 " fill-opacity="1" fill-rule="nonzero"/><path fill="#c62328" d="M 241.824219 106.222656 C 241.824219 104.90625 240.746094 103.816406 239.429688 103.816406 C 238.117188 103.816406 237.039062 104.90625 237.039062 106.222656 C 237.039062 107.539062 238.117188 108.628906 239.429688 108.628906 C 240.746094 108.628906 241.824219 107.539062 241.824219 106.222656 " fill-opacity="1" fill-rule="nonzero"/><path fill="#c62328" d="M 65.75 117.941406 C 65.75 116.625 64.6875 115.558594 63.359375 115.558594 C 62.042969 115.558594 60.964844 116.625 60.964844 117.941406 C 60.964844 119.257812 62.042969 120.347656 63.359375 120.347656 C 64.6875 120.347656 65.75 119.257812 65.75 117.941406 " fill-opacity="1" fill-rule="nonzero"/><path fill="#c62328" d="M 322.988281 230.195312 C 322.988281 228.878906 321.921875 227.828125 320.59375 227.828125 C 319.277344 227.828125 318.199219 228.878906 318.199219 230.195312 C 318.199219 231.550781 319.277344 232.601562 320.59375 232.601562 C 321.921875 232.601562 322.988281 231.550781 322.988281 230.195312 " fill-opacity="1" fill-rule="nonzero"/><g clip-path="url(#21e5604465)"><path fill="#c62328" d="M 258.207031 106.484375 C 258.355469 106.386719 258.445312 106.359375 258.519531 106.359375 C 258.554688 106.359375 258.582031 106.359375 258.605469 106.359375 C 259.609375 106.574219 260.375 107.160156 260.949219 108.089844 C 263.558594 112.351562 261.199219 121.949219 261.175781 122.039062 C 261.039062 122.589844 261.363281 123.167969 261.914062 123.328125 C 262.46875 123.492188 263.03125 123.167969 263.207031 122.613281 C 265.6875 114.792969 269.6875 106.097656 271.816406 105.644531 C 271.902344 105.644531 272.078125 105.621094 272.394531 105.972656 C 275.050781 109.117188 271.503906 121.6875 268.632812 128.84375 C 268.433594 129.332031 268.621094 129.871094 269.070312 130.160156 C 269.523438 130.421875 270.097656 130.324219 270.425781 129.910156 C 274.359375 125.097656 281.027344 118.390625 283.472656 118.605469 C 283.671875 118.640625 283.835938 118.703125 283.984375 118.992188 C 285.503906 121.75 279.1875 128.53125 274.222656 132.464844 C 273.808594 132.792969 273.695312 133.367188 273.945312 133.820312 C 274.199219 134.269531 274.738281 134.457031 275.210938 134.296875 C 279.863281 132.691406 287.21875 130.898438 288.984375 131.925781 C 289.125 131.988281 289.125 132.050781 289.136719 132.089844 C 289.460938 133.71875 283.160156 137.929688 277.292969 140.648438 C 276.777344 140.914062 276.554688 141.488281 276.765625 142.003906 C 276.980469 142.542969 277.570312 142.804688 278.09375 142.605469 C 281.617188 141.328125 287.972656 139.785156 290.027344 141.039062 C 290.351562 141.226562 290.515625 141.453125 290.578125 141.777344 C 290.515625 142.027344 289.5625 144.347656 271.730469 149.574219 C 269.824219 150.113281 267.917969 150.664062 266.078125 151.175781 C 270.023438 149.121094 273.609375 146.777344 274.625 144.574219 C 275.113281 143.542969 274.972656 142.667969 274.773438 142.167969 C 274.371094 141.101562 273.609375 140.398438 272.554688 140.074219 C 269.988281 139.332031 265.9375 141.363281 263.082031 143.117188 C 264.984375 138.65625 267.179688 131.351562 262.917969 128.390625 C 262.140625 127.855469 261.265625 127.789062 260.449219 128.140625 C 257.691406 129.359375 255.523438 136.902344 254.082031 143.832031 C 254.121094 127.628906 255.148438 108.980469 258.207031 106.484375 Z M 259.746094 147.003906 C 260.125 147.328125 260.675781 147.355469 261.074219 147.042969 C 264.058594 144.785156 269.648438 141.453125 271.980469 142.089844 C 272.394531 142.230469 272.644531 142.480469 272.804688 142.894531 C 272.855469 143.054688 272.90625 143.28125 272.71875 143.695312 C 271.164062 147.066406 260.199219 151.792969 254.457031 153.933594 C 255.875 144.144531 258.746094 131.1875 261.300781 130.058594 C 261.351562 130.035156 261.390625 130.035156 261.4375 130.035156 C 261.515625 130.035156 261.589844 130.035156 261.726562 130.132812 C 265.476562 132.730469 261.402344 142.253906 259.507812 145.6875 C 259.269531 146.140625 259.371094 146.679688 259.746094 147.003906 Z M 242.890625 191.695312 C 246.839844 190.792969 256.0625 191.121094 261.589844 191.445312 C 253.105469 193.335938 240.949219 193.976562 233.992188 194.164062 C 236.699219 193.335938 240.046875 192.371094 242.890625 191.695312 Z M 248.617188 197.308594 C 246.488281 196.859375 241.6875 196.058594 237.339844 195.355469 C 243.941406 195.066406 253.054688 194.453125 260.25 193.050781 C 255.6875 195.480469 250.636719 197.722656 248.617188 197.308594 Z M 233.730469 139.597656 C 233.703125 148.644531 233.828125 160.738281 234.605469 164.773438 C 235.144531 167.570312 234.792969 171.617188 234.207031 175.339844 C 234.066406 172.34375 233.679688 168.785156 232.875 164.8125 C 231.535156 158.234375 232.589844 147.554688 233.730469 139.597656 Z M 237.753906 156.816406 C 238.292969 159.035156 238.753906 160.964844 239.054688 162.367188 C 239.832031 166.066406 237.324219 172.894531 235.070312 177.960938 C 235.882812 173.597656 236.5625 168.183594 235.859375 164.523438 C 235.257812 161.339844 235.058594 152.71875 235.019531 144.761719 C 235.882812 149.019531 236.914062 153.320312 237.753906 156.816406 Z M 268.167969 166.515625 C 268.167969 165.125 268.621094 163.824219 269.449219 162.757812 C 269.722656 166.957031 273.21875 170.328125 277.492188 170.328125 C 278.121094 170.328125 278.734375 170.238281 279.335938 170.101562 C 278.207031 171.679688 276.367188 172.671875 274.335938 172.671875 C 270.925781 172.671875 268.167969 169.914062 268.167969 166.515625 Z M 207.5625 305.980469 C 214.828125 300.492188 222.460938 294.140625 228.378906 289.074219 C 228.277344 289.238281 228.164062 289.363281 228.050781 289.527344 C 227.9375 289.527344 227.824219 289.589844 227.738281 289.652344 C 227.5625 289.816406 209.828125 305.40625 197.144531 325.070312 C 189.363281 337.140625 185.503906 344.296875 183.609375 348.230469 C 185.578125 339.09375 191.65625 317.976562 207.5625 305.980469 Z M 222.097656 297.472656 C 218.703125 302.070312 215.492188 306.433594 213.136719 309.128906 C 209.953125 312.75 209.351562 316.511719 208.714844 320.484375 C 208.085938 324.429688 207.433594 328.542969 204.300781 333.480469 C 198.300781 342.941406 188.625 348.304688 184.011719 350.449219 C 185.492188 347.113281 189.226562 339.695312 198.222656 325.746094 C 206.882812 312.335938 217.9375 300.78125 224.027344 294.878906 C 223.378906 295.742188 222.738281 296.609375 222.097656 297.472656 Z M 157.96875 343.003906 C 155.035156 336.585938 146.527344 326.347656 141.714844 320.832031 C 140.058594 318.941406 138.378906 317.085938 136.773438 315.320312 C 145.308594 321.960938 157.339844 332.414062 163.121094 342.589844 C 168.34375 351.828125 172.683594 357.503906 175.851562 360.652344 C 170.5625 357.992188 162.003906 351.828125 157.96875 343.003906 Z M 172.621094 349.835938 C 175.027344 354.847656 177.105469 359.171875 179.25 361.804688 C 179.285156 361.839844 179.3125 361.867188 179.335938 361.941406 C 176.992188 360.363281 171.84375 355.386719 164.222656 341.976562 C 157.554688 330.207031 142.742188 318.113281 134.242188 311.785156 C 140.796875 314.929688 151 320.808594 160.738281 330.296875 C 165.5 334.957031 169.285156 342.839844 172.621094 349.835938 Z M 124.167969 237.414062 C 119.792969 229.207031 114.339844 218.941406 112.136719 209.792969 C 110.808594 204.304688 110.96875 196.859375 111.558594 190.253906 C 112.222656 201.320312 115.117188 216.972656 124.417969 233.605469 C 125.871094 236.226562 127.464844 238.917969 129.003906 241.550781 C 133.929688 249.9375 139.019531 258.597656 141.9375 267.507812 C 137.628906 261.226562 130.996094 251.277344 128.515625 245.925781 C 127.425781 243.542969 125.910156 240.722656 124.167969 237.414062 Z M 124.40625 222.753906 C 138.691406 239.34375 143.617188 250.863281 143.980469 269.824219 L 143.855469 269.335938 C 141.035156 259.484375 135.484375 250.0625 130.109375 240.910156 C 128.503906 238.191406 126.988281 235.585938 125.535156 232.992188 C 114.054688 212.449219 112.449219 193.460938 112.6875 182.910156 C 114.203125 194.652344 117.699219 214.957031 124.40625 222.753906 Z M 163.519531 268.183594 C 164.785156 277.644531 166.539062 292.796875 166.589844 304.316406 C 165.714844 300.429688 164.609375 295.367188 163.894531 291.09375 C 163.09375 286.242188 163.257812 275.816406 163.519531 268.183594 Z M 169.296875 283.199219 C 168.910156 285.742188 168.257812 291.03125 167.617188 296.320312 C 167.003906 285.191406 165.464844 272.871094 164.449219 265.550781 C 166.941406 271.742188 169.785156 279.902344 169.296875 283.199219 Z M 119.792969 285.953125 C 119.089844 287.722656 117.511719 288.851562 115.757812 289.039062 C 117.011719 287.757812 117.761719 286.03125 117.761719 284.136719 C 117.761719 282.234375 117.011719 280.503906 115.769531 279.226562 C 116.195312 279.25 116.621094 279.351562 117.035156 279.511719 C 119.566406 280.539062 120.808594 283.421875 119.792969 285.953125 Z M 79.890625 224.621094 C 88.109375 232.414062 101.597656 243.769531 115.355469 249.035156 C 111.222656 248.542969 105.894531 247.59375 100.980469 245.636719 C 94.953125 243.253906 85.980469 232.578125 79.890625 224.621094 Z M 121.183594 249.484375 C 121.070312 249.484375 120.957031 249.445312 120.847656 249.445312 C 105.957031 245.5625 90.566406 232.929688 81.355469 224.230469 C 88.625 229.71875 97.183594 235.785156 102.449219 237.351562 C 115.757812 241.300781 119.945312 246.976562 121.183594 249.484375 Z M 59.574219 166.605469 C 59.671875 165 60.136719 164.011719 60.9375 163.683594 C 61.214844 163.597656 61.527344 163.523438 61.878906 163.523438 C 65.277344 163.523438 71.832031 168.433594 75.515625 171.84375 C 75.917969 172.21875 76.53125 172.21875 76.929688 171.867188 C 77.332031 171.519531 77.40625 170.902344 77.09375 170.453125 C 71.167969 162.117188 62.394531 147.515625 64.046875 143.832031 C 64.171875 143.570312 64.386719 143.28125 65.085938 143.179688 C 71.480469 142.480469 79.414062 159.261719 81.917969 165.777344 C 82.121094 166.253906 82.644531 166.542969 83.160156 166.417969 C 83.675781 166.292969 84.011719 165.804688 83.949219 165.265625 C 82.757812 155.3125 82.660156 143.859375 84.578125 142.703125 C 84.777344 142.578125 85.179688 142.832031 85.402344 142.992188 C 90.328125 146.464844 91.40625 162.019531 91.40625 167.734375 C 91.40625 168.246094 91.796875 168.699219 92.320312 168.761719 C 92.835938 168.847656 93.324219 168.535156 93.472656 168.019531 C 95.707031 160.515625 99.300781 152.230469 101.21875 151.980469 C 101.433594 151.917969 101.722656 152.292969 101.859375 152.519531 C 104.890625 157.242188 99.402344 180.589844 94.601562 188.875 C 96.457031 182.523438 98.964844 171.90625 95.691406 170.238281 C 95.015625 169.875 94.289062 169.875 93.636719 170.238281 C 91.320312 171.457031 89.992188 177.671875 89.375 181.492188 C 86.746094 178.699219 81.394531 173.699219 77.484375 174.3125 C 76.328125 174.464844 76.015625 175.238281 75.941406 175.554688 C 75.726562 176.394531 75.339844 177.898438 83.988281 185.339844 C 84.726562 185.980469 85.480469 186.59375 86.191406 187.207031 C 74.699219 181.96875 59.132812 173.308594 59.574219 166.605469 Z M 92.257812 189.390625 C 85.714844 184.3125 79.035156 178.386719 78.097656 176.355469 C 78.132812 176.355469 78.160156 176.355469 78.183594 176.355469 C 81.242188 176.355469 86.542969 181.304688 89.300781 184.539062 C 89.5625 184.867188 90.003906 184.992188 90.402344 184.867188 C 90.804688 184.765625 91.105469 184.414062 91.144531 184 C 91.957031 177.484375 93.710938 172.21875 94.664062 172.09375 C 94.664062 172.09375 94.691406 172.09375 94.726562 172.09375 C 94.742188 172.132812 96.03125 173.023438 94.277344 181.429688 C 93.601562 184.601562 92.734375 187.746094 92.257812 189.390625 Z M 155.097656 219.457031 C 158.945312 219.417969 162.066406 216.308594 162.105469 212.449219 C 163.070312 213.390625 163.644531 214.667969 163.644531 216.046875 C 163.644531 218.777344 161.414062 220.984375 158.695312 220.984375 C 157.304688 220.984375 156.011719 220.410156 155.097656 219.457031 Z M 165.414062 129.03125 C 166.390625 116.9375 170 104.105469 172.90625 95.320312 C 170.324219 109.203125 166.929688 133.078125 169.585938 151.464844 C 172.179688 169.300781 169.886719 178.472656 168.308594 182.332031 C 167.203125 174.023438 163.945312 147.191406 165.414062 129.03125 Z M 177.957031 157.71875 C 178.183594 168.761719 173.597656 176.519531 170.277344 180.691406 C 171.765625 175.855469 173.109375 166.769531 170.851562 151.277344 C 168.234375 133.179688 171.554688 109.695312 174.109375 95.832031 C 174.148438 100.417969 174.398438 105.355469 174.648438 110.234375 C 175.027344 117.515625 175.390625 124.417969 174.886719 128.84375 C 174.25 134.457031 175.074219 138.367188 176.039062 142.894531 C 176.878906 146.816406 177.820312 151.238281 177.957031 157.71875 Z M 124.769531 138.757812 C 122.914062 138.757812 121.308594 137.765625 120.457031 136.25 C 120.984375 136.386719 121.535156 136.449219 122.074219 136.449219 C 125.371094 136.449219 128.140625 134.171875 128.917969 131.125 C 129.429688 131.890625 129.71875 132.828125 129.71875 133.820312 C 129.71875 136.550781 127.488281 138.757812 124.769531 138.757812 Z M 126.5 95.128906 C 125.320312 88.125 120.882812 76.746094 119.042969 72.183594 C 118.289062 70.328125 117.539062 68.523438 116.8125 66.855469 C 121.972656 74.339844 128.753906 85.34375 130.472656 93.816406 C 132.800781 105.332031 140.308594 114.09375 143.28125 117.199219 C 139.480469 115.558594 128.414062 106.511719 126.5 95.128906 Z M 134.242188 83.386719 C 135.371094 87.195312 136.523438 91.847656 137.652344 96.347656 C 139.332031 103.152344 141.074219 110.144531 142.855469 114.855469 C 139.480469 111.007812 133.691406 103.300781 131.726562 93.550781 C 129.617188 83.1875 120.445312 69.527344 115.230469 62.371094 C 121.546875 67.269531 132.175781 76.394531 134.242188 83.386719 Z M 136.398438 14.882812 C 137.101562 13.957031 138.117188 12.890625 139.082031 12.890625 C 139.179688 12.890625 139.292969 12.890625 139.394531 12.929688 C 142.265625 13.667969 144.808594 23.191406 145.6875 29.671875 C 145.761719 30.183594 146.1875 30.597656 146.703125 30.597656 C 146.714844 30.597656 146.726562 30.597656 146.726562 30.597656 C 147.238281 30.597656 147.679688 30.25 147.765625 29.734375 C 148.667969 24.898438 151.816406 11.800781 155.574219 9.304688 C 156.175781 8.917969 156.589844 8.941406 156.839844 9.015625 C 157.503906 9.144531 158.03125 9.554688 158.457031 10.234375 C 160.863281 14.117188 158.957031 24.859375 158.019531 28.707031 C 157.894531 29.21875 158.167969 29.734375 158.65625 29.933594 C 159.144531 30.121094 159.699219 29.933594 159.960938 29.484375 C 164.195312 21.976562 170.101562 14.117188 172.230469 14.433594 C 172.554688 14.46875 172.882812 15.046875 173.082031 15.910156 C 174.675781 22.964844 169.421875 29.796875 167.21875 32.304688 C 166.792969 32.753906 166.464844 33.105469 166.253906 33.367188 C 165.863281 33.78125 165.875 34.421875 166.289062 34.808594 C 166.691406 35.222656 167.34375 35.222656 167.757812 34.808594 C 167.832031 34.746094 168.269531 34.320312 168.898438 33.621094 C 172.644531 29.734375 178.046875 25.308594 180.289062 25.761719 C 180.566406 25.824219 180.929688 25.988281 181.179688 26.75 C 182.671875 31.375 174.585938 37.378906 170.902344 39.558594 C 170.75 39.648438 170.625 39.710938 170.527344 39.785156 C 170.023438 40.074219 169.863281 40.714844 170.148438 41.226562 C 170.4375 41.742188 171.078125 41.902344 171.578125 41.601562 C 171.617188 41.578125 171.714844 41.539062 171.855469 41.453125 C 175.976562 39.046875 182.382812 36.289062 184.238281 37.40625 C 184.375 37.503906 184.789062 37.753906 184.714844 38.910156 C 184.238281 45.324219 169.246094 52.292969 164.875 52.644531 C 162.453125 52.832031 157.769531 53.710938 154.058594 54.410156 C 160.386719 50.363281 164.835938 47.191406 165.363281 44.148438 C 165.527344 43.246094 165.3125 42.378906 164.75 41.679688 C 164.171875 40.902344 163.332031 40.488281 162.34375 40.425781 C 159.335938 40.261719 155.085938 43.820312 152.703125 46.066406 C 152.429688 41.828125 151.351562 34.257812 147.304688 33.429688 C 146.25 33.207031 145.324219 33.492188 144.683594 34.195312 C 142.753906 36.375 143.957031 43.183594 145.421875 48.898438 C 139.246094 37.894531 131.660156 21.175781 136.398438 14.882812 Z M 149.382812 54.925781 C 147.003906 47.582031 144.632812 37.441406 146.261719 35.613281 C 146.3125 35.550781 146.402344 35.449219 146.625 35.449219 C 146.6875 35.449219 146.777344 35.449219 146.875 35.488281 C 149.421875 35.988281 150.636719 43.40625 150.699219 48.507812 C 150.699219 48.921875 150.960938 49.308594 151.363281 49.472656 C 151.765625 49.625 152.226562 49.535156 152.515625 49.210938 C 154.972656 46.617188 159.710938 42.542969 162.140625 42.542969 C 162.167969 42.542969 162.203125 42.542969 162.242188 42.542969 C 162.617188 42.542969 162.882812 42.667969 163.09375 42.957031 C 163.292969 43.207031 163.34375 43.46875 163.292969 43.796875 C 162.855469 46.289062 156.527344 50.339844 151.914062 53.285156 C 151.039062 53.859375 150.183594 54.410156 149.382812 54.925781 Z M 161.902344 68.8125 C 162.417969 71.871094 165.050781 74.175781 168.21875 74.175781 C 168.332031 74.175781 168.433594 74.136719 168.546875 74.136719 C 167.78125 75.390625 166.402344 76.230469 164.875 76.230469 C 162.492188 76.230469 160.5625 74.300781 160.5625 71.933594 C 160.5625 70.742188 161.0625 69.613281 161.902344 68.8125 Z M 272.96875 151.402344 C 290.789062 146.140625 292.960938 143.542969 292.660156 141.515625 C 292.507812 140.523438 291.96875 139.757812 291.105469 139.246094 C 289.738281 138.40625 287.582031 138.367188 285.375 138.632812 C 288.683594 136.476562 291.65625 133.882812 291.203125 131.664062 C 291.066406 131 290.664062 130.449219 290.039062 130.097656 C 287.972656 128.90625 283.058594 129.832031 279.25 130.863281 C 282.996094 127.277344 287.859375 121.664062 285.839844 117.964844 C 285.363281 117.101562 284.613281 116.625 283.671875 116.523438 C 280.714844 116.273438 275.902344 120.699219 272.492188 124.355469 C 274.535156 118.101562 277.042969 108.214844 274.007812 104.617188 C 273.28125 103.753906 272.367188 103.402344 271.402344 103.589844 C 268.894531 104.105469 266.25 108.980469 264.257812 113.667969 C 264.222656 111.234375 263.832031 108.792969 262.742188 107 C 261.867188 105.582031 260.636719 104.65625 259.09375 104.304688 C 258.304688 104.105469 257.542969 104.304688 256.863281 104.84375 C 251.097656 109.566406 251.953125 149.121094 252.113281 155.210938 C 251 156.792969 245.574219 164.523438 238.355469 175.589844 C 240.246094 170.816406 241.835938 165.351562 241.125 161.957031 C 240.808594 160.515625 240.347656 158.585938 239.808594 156.339844 C 237.800781 148.070312 234.78125 135.523438 235.519531 129.105469 C 235.570312 128.53125 235.195312 128.015625 234.632812 127.917969 C 234.078125 127.855469 233.554688 128.203125 233.441406 128.742188 C 233.226562 129.746094 228.402344 153.394531 230.808594 165.226562 C 233.128906 176.65625 231.800781 184.765625 231.785156 184.828125 C 231.75 185.089844 231.8125 185.378906 231.949219 185.566406 C 217.789062 208.027344 200.191406 238.503906 192.898438 261.742188 C 193.148438 236.613281 182.972656 215.058594 171.429688 190.644531 C 170.601562 188.875 169.75 187.082031 168.910156 185.277344 C 171.429688 182.996094 180.402344 173.699219 180.050781 157.65625 C 179.914062 151.015625 178.949219 146.464844 178.109375 142.480469 C 177.167969 138.117188 176.378906 134.359375 176.980469 129.105469 C 177.507812 124.480469 177.144531 117.515625 176.753906 110.144531 C 176.265625 100.644531 175.753906 90.832031 176.941406 84.25 C 177.03125 83.699219 176.71875 83.1875 176.191406 83.023438 C 175.675781 82.898438 175.136719 83.160156 174.925781 83.636719 C 174.824219 83.902344 165.035156 107.476562 163.320312 128.882812 C 162.027344 144.785156 164.324219 167.21875 165.6875 178.347656 C 162.304688 171.003906 158.933594 163.371094 155.726562 155.148438 C 149.394531 138.957031 146.777344 122.039062 146.0625 106.875 C 148.457031 105.683594 155.585938 101.257812 155.585938 90.179688 C 155.585938 81.78125 159.921875 78.148438 161.277344 77.222656 C 162.304688 77.921875 163.53125 78.347656 164.875 78.347656 C 167.980469 78.347656 170.6875 76.03125 171.191406 72.984375 C 171.191406 72.960938 171.191406 72.960938 171.191406 72.960938 C 171.191406 72.960938 171.203125 72.921875 171.203125 72.882812 C 171.203125 72.882812 171.203125 72.859375 171.203125 72.820312 C 171.203125 72.796875 171.214844 72.757812 171.203125 72.734375 C 171.203125 72.695312 171.203125 72.671875 171.203125 72.632812 C 171.203125 72.597656 171.191406 72.570312 171.191406 72.535156 C 171.179688 72.472656 171.164062 72.445312 171.152344 72.410156 C 171.152344 72.382812 171.152344 72.382812 171.140625 72.347656 C 171.140625 72.347656 171.128906 72.347656 171.128906 72.308594 C 171.113281 72.28125 171.089844 72.246094 171.078125 72.21875 C 171.050781 72.183594 171.039062 72.15625 171.027344 72.15625 C 171.003906 72.121094 170.976562 72.082031 170.953125 72.058594 C 170.941406 72.019531 170.914062 72.019531 170.890625 71.996094 C 170.863281 71.957031 170.839844 71.933594 170.8125 71.933594 C 170.789062 71.894531 170.765625 71.871094 170.738281 71.871094 C 170.703125 71.832031 170.675781 71.832031 170.640625 71.792969 C 170.613281 71.792969 170.578125 71.769531 170.550781 71.769531 C 170.527344 71.769531 170.488281 71.730469 170.449219 71.730469 C 170.414062 71.730469 170.386719 71.707031 170.351562 71.707031 C 170.351562 71.707031 170.339844 71.707031 170.324219 71.707031 C 170.300781 71.707031 170.277344 71.707031 170.25 71.707031 C 170.210938 71.707031 170.175781 71.707031 170.148438 71.707031 C 170.113281 71.707031 170.074219 71.707031 170.039062 71.707031 C 170.011719 71.707031 169.976562 71.707031 169.9375 71.707031 C 169.898438 71.730469 169.875 71.730469 169.824219 71.730469 C 169.8125 71.730469 169.785156 71.769531 169.773438 71.769531 C 169.285156 71.957031 168.757812 72.058594 168.21875 72.058594 C 165.839844 72.058594 163.910156 70.128906 163.910156 67.757812 C 163.910156 67.53125 163.933594 67.308594 163.957031 67.121094 C 163.957031 67.121094 163.957031 67.082031 163.957031 67.058594 C 163.972656 67.019531 163.972656 66.980469 163.972656 66.957031 C 163.972656 66.917969 163.972656 66.855469 163.957031 66.832031 C 163.957031 66.792969 163.957031 66.769531 163.945312 66.730469 C 163.945312 66.695312 163.933594 66.667969 163.921875 66.628906 C 163.921875 66.605469 163.910156 66.566406 163.910156 66.566406 C 163.894531 66.566406 163.894531 66.542969 163.894531 66.542969 C 163.882812 66.503906 163.859375 66.46875 163.847656 66.441406 C 163.820312 66.40625 163.808594 66.378906 163.796875 66.34375 C 163.769531 66.316406 163.746094 66.316406 163.734375 66.28125 C 163.707031 66.253906 163.683594 66.21875 163.65625 66.179688 C 163.632812 66.179688 163.609375 66.15625 163.570312 66.117188 C 163.558594 66.117188 163.53125 66.09375 163.507812 66.09375 C 163.484375 66.054688 163.445312 66.027344 163.40625 66.027344 C 163.382812 65.992188 163.355469 65.992188 163.332031 65.992188 C 163.292969 65.964844 163.257812 65.964844 163.21875 65.929688 C 163.195312 65.929688 163.15625 65.929688 163.132812 65.929688 C 163.121094 65.929688 163.105469 65.890625 163.105469 65.890625 C 163.082031 65.890625 163.054688 65.890625 163.03125 65.890625 C 162.992188 65.890625 162.945312 65.890625 162.90625 65.890625 C 162.894531 65.890625 162.867188 65.890625 162.855469 65.890625 C 162.792969 65.890625 162.742188 65.890625 162.691406 65.929688 C 162.679688 65.929688 162.679688 65.929688 162.667969 65.929688 C 162.617188 65.929688 162.582031 65.964844 162.542969 65.964844 C 160.0625 66.917969 158.457031 69.261719 158.457031 71.933594 C 158.457031 73.375 158.933594 74.6875 159.734375 75.742188 C 157.78125 77.222656 153.480469 81.417969 153.480469 90.179688 C 153.480469 99.140625 148.46875 103.113281 145.960938 104.554688 C 145.097656 80.40625 148.90625 61.179688 149.710938 57.457031 C 152.253906 56.917969 161.441406 55.050781 165.050781 54.738281 C 169.058594 54.410156 186.191406 47.441406 186.804688 39.070312 C 186.957031 37.054688 186.09375 36.089844 185.351562 35.636719 C 183.921875 34.746094 181.644531 35.035156 179.261719 35.738281 C 182.042969 32.941406 184.261719 29.484375 183.171875 26.113281 C 182.632812 24.445312 181.542969 23.867188 180.726562 23.707031 C 178.773438 23.292969 176.101562 24.695312 173.570312 26.589844 C 175.074219 23.378906 176.039062 19.507812 175.136719 15.460938 C 174.597656 13.117188 173.433594 12.476562 172.542969 12.351562 C 169.296875 11.835938 164.472656 18.253906 161.164062 23.417969 C 161.851562 18.707031 162.265625 12.351562 160.25 9.105469 C 159.523438 7.953125 158.519531 7.210938 157.304688 6.960938 C 156.3125 6.738281 155.347656 6.925781 154.421875 7.5625 C 150.863281 9.90625 148.242188 18.417969 146.839844 24.121094 C 145.710938 18.855469 143.542969 11.835938 139.933594 10.910156 C 138.179688 10.421875 136.425781 11.347656 134.71875 13.605469 C 127.023438 23.804688 145.234375 52.933594 147.703125 56.753906 C 146.988281 59.988281 142.828125 80.367188 143.917969 105.933594 C 143.855469 106.160156 143.867188 106.359375 143.929688 106.574219 C 143.929688 106.574219 143.945312 106.574219 143.945312 106.574219 C 144.03125 108.601562 144.15625 110.660156 144.320312 112.738281 C 142.765625 108.214844 141.210938 101.960938 139.683594 95.832031 C 138.566406 91.332031 137.414062 86.660156 136.261719 82.8125 C 133.242188 72.570312 114.492188 59.097656 111.972656 57.292969 C 111.722656 57.066406 111.546875 57.003906 111.359375 56.980469 C 110.859375 56.84375 110.355469 57.105469 110.15625 57.558594 C 109.941406 58.035156 110.09375 58.585938 110.519531 58.871094 C 110.519531 58.871094 110.542969 58.871094 110.570312 58.898438 C 112.136719 60.765625 122.574219 84.566406 124.417969 95.480469 C 126.449219 107.511719 138.691406 118.164062 143.316406 119.40625 C 143.679688 119.507812 144.007812 119.570312 144.28125 119.570312 C 144.558594 119.570312 144.785156 119.507812 144.972656 119.445312 C 146.351562 131.3125 149.03125 143.832031 153.757812 155.925781 C 153.859375 156.152344 153.957031 156.402344 154.058594 156.628906 C 151.3125 154.410156 147.214844 150.1875 143.253906 143.859375 C 139.417969 137.765625 133.203125 135.675781 131.675781 135.234375 C 131.773438 134.785156 131.824219 134.296875 131.824219 133.820312 C 131.824219 131.414062 130.632812 129.195312 128.628906 127.917969 C 128.617188 127.878906 128.589844 127.878906 128.566406 127.878906 C 128.566406 127.855469 128.554688 127.855469 128.527344 127.855469 C 128.480469 127.816406 128.429688 127.789062 128.378906 127.789062 C 128.367188 127.789062 128.367188 127.789062 128.367188 127.789062 C 128.304688 127.753906 128.242188 127.753906 128.179688 127.753906 C 128.164062 127.753906 128.164062 127.753906 128.152344 127.753906 C 128.089844 127.726562 128.039062 127.726562 127.988281 127.726562 C 127.976562 127.726562 127.964844 127.726562 127.953125 127.726562 C 127.925781 127.726562 127.914062 127.753906 127.902344 127.753906 C 127.863281 127.753906 127.828125 127.753906 127.789062 127.753906 C 127.75 127.789062 127.726562 127.789062 127.703125 127.789062 C 127.664062 127.816406 127.625 127.816406 127.601562 127.855469 C 127.5625 127.855469 127.539062 127.855469 127.511719 127.878906 C 127.476562 127.917969 127.449219 127.917969 127.425781 127.941406 C 127.402344 127.941406 127.375 127.980469 127.351562 128.015625 C 127.324219 128.042969 127.300781 128.042969 127.277344 128.078125 C 127.25 128.105469 127.226562 128.140625 127.199219 128.167969 C 127.199219 128.167969 127.1875 128.203125 127.175781 128.203125 C 127.164062 128.203125 127.164062 128.230469 127.148438 128.230469 C 127.136719 128.265625 127.113281 128.304688 127.101562 128.328125 C 127.085938 128.367188 127.074219 128.390625 127.0625 128.429688 C 127.050781 128.457031 127.039062 128.492188 127.039062 128.53125 C 127.023438 128.554688 127.023438 128.59375 127.011719 128.617188 C 127.011719 128.65625 127.011719 128.679688 127.011719 128.71875 C 127 128.78125 127 128.820312 127 128.84375 C 127.011719 128.84375 127 128.882812 127 128.882812 C 127.023438 129.03125 127.039062 129.195312 127.039062 129.394531 C 127.039062 132.113281 124.804688 134.332031 122.074219 134.332031 C 121.109375 134.332031 120.183594 134.042969 119.367188 133.53125 C 119.230469 133.429688 119.066406 133.367188 118.902344 133.367188 C 118.902344 133.367188 118.890625 133.367188 118.890625 133.367188 C 118.839844 133.367188 118.777344 133.367188 118.726562 133.367188 C 118.714844 133.367188 118.703125 133.367188 118.691406 133.367188 C 118.664062 133.367188 118.652344 133.367188 118.640625 133.367188 C 118.601562 133.367188 118.566406 133.367188 118.527344 133.40625 C 118.488281 133.40625 118.464844 133.40625 118.441406 133.429688 C 118.402344 133.429688 118.363281 133.429688 118.339844 133.46875 C 118.300781 133.46875 118.277344 133.492188 118.25 133.492188 C 118.214844 133.53125 118.1875 133.554688 118.164062 133.554688 C 118.140625 133.59375 118.113281 133.632812 118.089844 133.632812 C 118.0625 133.65625 118.039062 133.695312 118.015625 133.71875 C 117.988281 133.71875 117.964844 133.757812 117.949219 133.78125 C 117.9375 133.820312 117.925781 133.820312 117.914062 133.820312 C 117.902344 133.84375 117.902344 133.84375 117.886719 133.882812 C 117.875 133.917969 117.851562 133.945312 117.839844 133.980469 C 117.824219 134.007812 117.8125 134.042969 117.800781 134.070312 C 117.789062 134.109375 117.789062 134.144531 117.777344 134.171875 C 117.761719 134.207031 117.761719 134.234375 117.75 134.269531 C 117.75 134.296875 117.75 134.332031 117.75 134.359375 C 117.75 134.394531 117.738281 134.433594 117.75 134.457031 C 117.75 134.496094 117.75 134.496094 117.75 134.519531 C 118.101562 138.15625 121.121094 140.875 124.769531 140.875 C 127.425781 140.875 129.730469 139.394531 130.933594 137.214844 C 131.75 137.441406 137.867188 139.269531 141.460938 144.984375 C 147.089844 153.972656 153.03125 158.871094 155.460938 160.164062 C 159.109375 169.136719 162.894531 177.421875 166.652344 185.402344 C 166.652344 185.441406 166.652344 185.441406 166.667969 185.441406 C 167.617188 187.496094 168.582031 189.515625 169.535156 191.53125 C 182.808594 219.644531 194.277344 243.894531 189.8125 274.0625 C 189.574219 275.238281 189.351562 276.429688 189.113281 277.621094 C 183.210938 242.328125 166.503906 223.464844 163.933594 220.773438 C 165.0625 219.519531 165.75 217.851562 165.75 216.046875 C 165.75 213.0625 163.871094 210.40625 161.0625 209.40625 C 160.675781 209.277344 160.25 209.378906 159.960938 209.667969 C 159.671875 209.957031 159.585938 210.371094 159.722656 210.757812 C 159.910156 211.273438 160 211.847656 160 212.386719 C 160 215.121094 157.78125 217.363281 155.046875 217.363281 C 154.472656 217.363281 153.90625 217.238281 153.382812 217.074219 C 153.003906 216.910156 152.566406 217.011719 152.277344 217.300781 C 151.988281 217.589844 151.890625 218.003906 152.027344 218.390625 C 153.03125 221.210938 155.699219 223.101562 158.695312 223.101562 C 160.011719 223.101562 161.25 222.726562 162.304688 222.074219 C 164.308594 224.167969 183.085938 244.671875 187.933594 284.136719 C 183.699219 308.902344 181.644531 336.109375 180.714844 352.339844 C 180.714844 352.378906 180.714844 352.402344 180.714844 352.402344 C 180.703125 352.464844 180.714844 352.503906 180.714844 352.527344 C 180.703125 352.667969 180.691406 352.792969 180.691406 352.957031 C 179.148438 343.96875 176.367188 332.703125 172.207031 321.058594 C 171.929688 320.257812 171.628906 319.457031 171.328125 318.628906 C 171.316406 318.628906 171.316406 318.628906 171.316406 318.628906 C 170.351562 316.019531 169.273438 313.300781 168.082031 310.445312 C 168.359375 307.976562 170.550781 289.011719 171.378906 283.523438 C 172.304688 277.355469 164.160156 259.484375 163.820312 258.722656 C 163.621094 258.308594 163.132812 258.042969 162.667969 258.144531 C 162.191406 258.207031 161.839844 258.621094 161.804688 259.109375 C 161.753906 260.101562 160.4375 283.171875 161.816406 291.445312 C 162.316406 294.402344 162.992188 297.734375 163.65625 300.820312 C 159.109375 291.644531 153.332031 282.042969 146.113281 273.410156 C 146.300781 251.664062 141.5625 239.433594 126.007812 221.375 C 116.984375 210.882812 113.867188 174.464844 113.839844 174.085938 C 113.789062 173.574219 113.375 173.148438 112.851562 173.121094 C 112.335938 173.121094 111.859375 173.449219 111.761719 173.949219 C 111.558594 174.914062 106.960938 197.308594 110.09375 210.269531 C 112.347656 219.707031 117.863281 230.070312 122.300781 238.417969 C 124.03125 241.6875 125.535156 244.507812 126.609375 246.816406 C 128.554688 251.027344 132.828125 257.757812 136.675781 263.496094 C 106.710938 234.019531 95.089844 192.785156 94.976562 192.371094 C 94.953125 192.308594 94.929688 192.210938 94.890625 192.148438 C 100.179688 186.054688 107.824219 157.90625 103.625 151.363281 C 102.722656 149.960938 101.660156 149.761719 100.929688 149.886719 C 98.050781 150.273438 95.167969 156.691406 93.273438 161.894531 C 92.773438 155.148438 91.242188 144.535156 86.617188 141.265625 C 85.203125 140.261719 84.148438 140.488281 83.5 140.875 C 80.652344 142.578125 80.714844 151.816406 81.21875 158.847656 C 77.722656 151.429688 71.339844 140.359375 64.863281 141.101562 C 63.207031 141.289062 62.46875 142.230469 62.128906 142.992188 C 60.226562 147.191406 66.792969 158.621094 71.390625 165.777344 C 67.71875 163.144531 63.082031 160.578125 60.164062 161.730469 C 58.53125 162.40625 57.628906 163.972656 57.46875 166.480469 C 56.753906 177.644531 87.070312 190.066406 92.949219 192.371094 C 92.898438 192.535156 92.898438 192.722656 92.949219 192.910156 C 93.035156 193.238281 99.589844 216.5625 115.53125 240.785156 C 112.5625 238.894531 108.527344 236.964844 103.050781 235.335938 C 96.746094 233.441406 84.449219 223.980469 77.105469 218.328125 C 75.515625 217.113281 74.125 216.023438 73.019531 215.21875 C 72.59375 214.894531 72.03125 214.929688 71.65625 215.28125 C 71.292969 215.632812 71.230469 216.210938 71.515625 216.625 C 72.257812 217.714844 89.738281 243.445312 100.203125 247.59375 C 109.992188 251.464844 120.957031 251.601562 122.539062 251.601562 C 122.625 251.601562 122.6875 251.601562 122.714844 251.601562 C 122.875 251.601562 123.039062 251.566406 123.191406 251.503906 C 127.25 256.703125 131.789062 261.804688 136.800781 266.578125 C 150.824219 279.863281 161.050781 298.25 168.019531 315.957031 C 162.65625 311.949219 151.1875 303.023438 144.230469 295.230469 C 136.261719 286.28125 125.558594 284.488281 122.25 284.136719 C 122.238281 281.34375 120.570312 278.671875 117.8125 277.582031 C 116.171875 276.917969 114.378906 276.917969 112.738281 277.519531 C 112.398438 277.582031 112.109375 277.808594 111.960938 278.160156 C 111.773438 278.648438 111.972656 279.226562 112.425781 279.476562 C 112.460938 279.476562 112.511719 279.511719 112.5625 279.539062 C 114.429688 280.277344 115.644531 282.105469 115.644531 284.136719 C 115.644531 286.15625 114.429688 287.949219 112.550781 288.726562 C 112.5 288.75 112.449219 288.75 112.410156 288.789062 C 112.386719 288.8125 112.375 288.8125 112.363281 288.8125 C 112.324219 288.851562 112.285156 288.875 112.25 288.914062 C 112.234375 288.914062 112.210938 288.949219 112.199219 288.949219 C 112.160156 289.011719 112.109375 289.039062 112.074219 289.101562 C 112.011719 289.199219 111.972656 289.300781 111.933594 289.390625 C 111.933594 289.425781 111.921875 289.453125 111.910156 289.488281 C 111.910156 289.488281 111.910156 289.527344 111.910156 289.550781 C 111.898438 289.589844 111.886719 289.652344 111.886719 289.675781 C 111.886719 289.714844 111.886719 289.714844 111.886719 289.714844 C 111.886719 289.816406 111.910156 289.902344 111.933594 289.964844 C 111.949219 290.003906 111.949219 290.039062 111.960938 290.039062 C 111.960938 290.066406 111.960938 290.066406 111.960938 290.101562 C 111.984375 290.128906 112.011719 290.164062 112.023438 290.191406 C 112.0625 290.253906 112.074219 290.292969 112.109375 290.328125 C 112.148438 290.390625 112.1875 290.417969 112.234375 290.453125 C 112.261719 290.480469 112.296875 290.515625 112.335938 290.554688 C 112.386719 290.578125 112.4375 290.617188 112.488281 290.640625 C 112.523438 290.640625 112.5625 290.679688 112.597656 290.679688 C 113.4375 291.03125 114.328125 291.195312 115.179688 291.195312 C 117.988281 291.195312 120.644531 289.527344 121.75 286.757812 C 121.824219 286.570312 121.875 286.40625 121.925781 286.21875 C 124.804688 286.542969 135.160156 288.210938 142.664062 296.609375 C 151.386719 306.433594 167.03125 317.914062 169.410156 319.617188 C 174.886719 334.40625 178.109375 348.429688 179.386719 358.34375 C 177.832031 355.835938 176.214844 352.464844 174.523438 348.90625 C 171.101562 341.789062 167.242188 333.703125 162.203125 328.792969 C 146.925781 313.902344 130.484375 307.75 128.164062 306.910156 C 127.863281 306.746094 127.703125 306.746094 127.550781 306.746094 C 127.039062 306.785156 126.597656 307.171875 126.523438 307.648438 C 126.449219 308.164062 126.75 308.640625 127.238281 308.800781 C 127.238281 308.800781 127.261719 308.839844 127.289062 308.839844 C 129.582031 310.242188 151.175781 333.214844 156.050781 343.867188 C 161.390625 355.523438 175.550781 364.148438 179.964844 364.210938 C 180.011719 365.175781 180.039062 366.101562 180.039062 366.902344 C 180.039062 367.480469 180.515625 367.96875 181.078125 367.96875 C 181.089844 367.96875 181.089844 367.96875 181.105469 367.96875 C 181.667969 367.96875 182.132812 367.519531 182.15625 366.941406 C 182.15625 366.777344 182.320312 361.578125 182.769531 353.304688 C 185.839844 352.089844 198.523438 346.5 206.082031 334.59375 C 209.441406 329.304688 210.167969 324.78125 210.804688 320.808594 C 211.40625 316.984375 211.933594 313.675781 214.71875 310.507812 C 217.136719 307.75 220.367188 303.386719 223.804688 298.726562 C 228.828125 291.933594 234.519531 284.199219 238.980469 279.800781 C 239.394531 279.414062 239.40625 278.734375 239.019531 278.324219 C 238.617188 277.910156 237.964844 277.910156 237.539062 278.296875 C 237.375 278.421875 221.070312 293.109375 206.28125 304.277344 C 193.5625 313.902344 186.929688 329.082031 183.636719 339.796875 C 185.089844 319.804688 187.847656 292.308594 192.882812 269.789062 C 197.535156 248.996094 213.613281 219.480469 228.101562 195.742188 C 228.203125 195.804688 228.316406 195.832031 228.425781 195.867188 C 228.578125 195.867188 243.992188 198.3125 248.230469 199.179688 C 248.492188 199.242188 248.78125 199.265625 249.09375 199.265625 C 254.183594 199.265625 265.261719 192.398438 266.578125 191.570312 C 266.742188 191.46875 266.851562 191.34375 266.929688 191.183594 C 267.167969 191.019531 267.28125 190.730469 267.179688 190.441406 C 267.089844 190.21875 266.914062 190.089844 266.691406 190.066406 C 266.550781 189.902344 266.351562 189.839844 266.152344 189.804688 C 265.425781 189.777344 248.542969 188.425781 242.464844 189.839844 C 238.464844 190.769531 233.542969 192.273438 230.671875 193.199219 C 234.40625 190.089844 241.964844 185.277344 253.871094 184.0625 C 263.582031 183.035156 269.398438 174.726562 270.210938 173.472656 C 271.414062 174.175781 272.820312 174.601562 274.335938 174.601562 C 278.007812 174.601562 281.226562 172.132812 282.144531 168.558594 C 282.144531 168.558594 282.144531 168.558594 282.144531 168.535156 C 282.15625 168.496094 282.167969 168.472656 282.167969 168.410156 C 282.167969 168.410156 282.167969 168.371094 282.167969 168.371094 C 282.179688 168.308594 282.167969 168.273438 282.167969 168.210938 C 282.167969 168.210938 282.167969 168.183594 282.167969 168.183594 C 282.167969 168.183594 282.15625 168.148438 282.15625 168.148438 C 282.15625 168.082031 282.128906 168.046875 282.117188 167.984375 C 282.117188 167.984375 282.105469 167.957031 282.09375 167.957031 C 282.082031 167.921875 282.054688 167.859375 282.042969 167.832031 C 282.042969 167.832031 282.03125 167.832031 282.03125 167.832031 C 282.03125 167.796875 282.019531 167.796875 282.003906 167.757812 C 281.980469 167.734375 281.957031 167.695312 281.917969 167.671875 C 281.90625 167.671875 281.894531 167.632812 281.878906 167.632812 C 281.84375 167.609375 281.816406 167.570312 281.78125 167.53125 C 281.765625 167.53125 281.753906 167.507812 281.730469 167.507812 C 281.691406 167.46875 281.65625 167.46875 281.617188 167.445312 C 281.605469 167.445312 281.578125 167.445312 281.566406 167.40625 C 281.527344 167.40625 281.492188 167.40625 281.453125 167.382812 C 281.453125 167.382812 281.441406 167.382812 281.441406 167.382812 C 281.429688 167.382812 281.402344 167.382812 281.378906 167.382812 C 281.339844 167.382812 281.304688 167.34375 281.253906 167.34375 C 281.089844 167.34375 280.925781 167.382812 280.777344 167.46875 C 280.765625 167.46875 280.738281 167.46875 280.726562 167.46875 C 280.714844 167.507812 280.714844 167.507812 280.714844 167.507812 C 279.75 168.082031 278.632812 168.410156 277.492188 168.410156 C 274.097656 168.410156 271.339844 165.640625 271.339844 162.242188 C 271.339844 161.730469 271.402344 161.253906 271.515625 160.765625 C 271.515625 160.738281 271.515625 160.738281 271.515625 160.738281 C 271.601562 160.476562 271.589844 160.1875 271.429688 159.9375 C 271.328125 159.773438 271.164062 159.648438 270.988281 159.550781 C 270.976562 159.550781 270.964844 159.550781 270.953125 159.550781 C 270.902344 159.511719 270.863281 159.511719 270.8125 159.511719 C 270.789062 159.488281 270.761719 159.488281 270.738281 159.488281 C 270.699219 159.488281 270.664062 159.488281 270.625 159.488281 C 270.625 159.488281 270.613281 159.488281 270.613281 159.488281 C 270.601562 159.488281 270.589844 159.488281 270.574219 159.488281 C 270.488281 159.488281 270.414062 159.511719 270.324219 159.511719 C 270.300781 159.550781 270.273438 159.550781 270.261719 159.550781 C 270.210938 159.585938 270.160156 159.585938 270.113281 159.613281 C 270.085938 159.648438 270.074219 159.648438 270.050781 159.675781 C 270.035156 159.675781 270.011719 159.675781 270 159.710938 C 267.679688 161.191406 266.238281 163.746094 266.238281 166.515625 C 266.238281 168.785156 267.179688 170.816406 268.683594 172.28125 C 268.632812 172.382812 263.042969 181.167969 253.667969 182.132812 C 243.230469 183.222656 236.046875 186.882812 231.660156 189.992188 C 242.753906 172.21875 252.214844 158.710938 253.808594 156.464844 C 255.722656 156.015625 264.421875 153.933594 272.96875 151.402344 " fill-opacity="1" fill-rule="nonzero"/></g></svg>