<svg xmlns="http://www.w3.org/2000/svg" xmlns:xlink="http://www.w3.org/1999/xlink" width="500" zoomAndPan="magnify" viewBox="0 0 375 374.999991" height="500" preserveAspectRatio="xMidYMid meet" version="1.0"><defs><clipPath id="d2efc60c23"><path d="M 308 253 L 320.144531 253 L 320.144531 265 L 308 265 Z M 308 253 " clip-rule="nonzero"/></clipPath><clipPath id="de9468ae3f"><path d="M 54.644531 16 L 308 16 L 308 365 L 54.644531 365 Z M 54.644531 16 " clip-rule="nonzero"/></clipPath></defs><path fill="#c62328" d="M 280.347656 219.417969 C 281.667969 218.664062 282.347656 217.574219 282.09375 216.066406 C 281.867188 214.722656 281.015625 213.875 279.691406 213.589844 C 278.316406 213.292969 277.25 213.863281 276.453125 214.964844 C 276.667969 213.9375 277.945312 212.652344 279.738281 212.703125 C 281.613281 212.757812 282.914062 214.191406 283.042969 215.828125 C 283.21875 218.019531 281.527344 219.234375 280.359375 219.417969 Z M 280.347656 219.417969 " fill-opacity="1" fill-rule="nonzero"/><path fill="#c62328" d="M 279.320312 207.585938 L 279.386719 207.585938 L 279.386719 212.835938 L 279.320312 212.835938 Z M 279.320312 207.585938 " fill-opacity="1" fill-rule="nonzero"/><path fill="#c62328" d="M 277.460938 207.796875 L 277.527344 207.785156 L 278.617188 212.921875 L 278.554688 212.933594 Z M 277.460938 207.796875 " fill-opacity="1" fill-rule="nonzero"/><path fill="#c62328" d="M 275.703125 208.378906 L 275.765625 208.351562 L 277.898438 213.148438 L 277.839844 213.175781 Z M 275.703125 208.378906 " fill-opacity="1" fill-rule="nonzero"/><path fill="#c62328" d="M 274.09375 209.308594 L 274.148438 209.269531 L 277.234375 213.515625 L 277.179688 213.554688 Z M 274.09375 209.308594 " fill-opacity="1" fill-rule="nonzero"/><path fill="#c62328" d="M 272.726562 210.5625 L 272.769531 210.511719 L 276.671875 214.027344 L 276.628906 214.074219 Z M 272.726562 210.5625 " fill-opacity="1" fill-rule="nonzero"/><path fill="#c62328" d="M 271.636719 212.0625 L 271.667969 212.007812 L 276.214844 214.632812 L 276.183594 214.6875 Z M 271.636719 212.0625 " fill-opacity="1" fill-rule="nonzero"/><path fill="#c62328" d="M 270.882812 213.773438 L 270.902344 213.710938 L 275.894531 215.335938 L 275.875 215.398438 Z M 270.882812 213.773438 " fill-opacity="1" fill-rule="nonzero"/><path fill="#c62328" d="M 270.5 215.589844 L 270.507812 215.527344 L 275.730469 216.074219 L 275.722656 216.140625 Z M 270.5 215.589844 " fill-opacity="1" fill-rule="nonzero"/><path fill="#c62328" d="M 270.503906 217.386719 L 275.722656 216.835938 L 275.730469 216.902344 L 270.507812 217.453125 Z M 270.503906 217.386719 " fill-opacity="1" fill-rule="nonzero"/><path fill="#c62328" d="M 270.894531 219.175781 L 275.886719 217.546875 L 275.90625 217.609375 L 270.914062 219.238281 Z M 270.894531 219.175781 " fill-opacity="1" fill-rule="nonzero"/><path fill="#c62328" d="M 271.632812 220.9375 L 276.179688 218.316406 L 276.214844 218.375 L 271.664062 220.996094 Z M 271.632812 220.9375 " fill-opacity="1" fill-rule="nonzero"/><path fill="#c62328" d="M 272.71875 222.429688 L 276.617188 218.914062 L 276.660156 218.964844 L 272.761719 222.480469 Z M 272.71875 222.429688 " fill-opacity="1" fill-rule="nonzero"/><path fill="#c62328" d="M 274.113281 223.6875 L 277.195312 219.4375 L 277.25 219.476562 L 274.164062 223.726562 Z M 274.113281 223.6875 " fill-opacity="1" fill-rule="nonzero"/><path fill="#c62328" d="M 275.714844 224.625 L 277.851562 219.828125 L 277.910156 219.855469 L 275.777344 224.652344 Z M 275.714844 224.625 " fill-opacity="1" fill-rule="nonzero"/><path fill="#c62328" d="M 277.457031 225.152344 L 278.546875 220.015625 L 278.613281 220.03125 L 277.519531 225.167969 Z M 277.457031 225.152344 " fill-opacity="1" fill-rule="nonzero"/><path fill="#c62328" d="M 279.320312 220.140625 L 279.386719 220.140625 L 279.386719 225.390625 L 279.320312 225.390625 Z M 279.320312 220.140625 " fill-opacity="1" fill-rule="nonzero"/><path fill="#c62328" d="M 280.074219 220.054688 L 280.140625 220.039062 L 281.230469 225.175781 L 281.167969 225.191406 Z M 280.074219 220.054688 " fill-opacity="1" fill-rule="nonzero"/><path fill="#c62328" d="M 280.808594 219.828125 L 280.867188 219.800781 L 283.003906 224.597656 L 282.945312 224.625 Z M 280.808594 219.828125 " fill-opacity="1" fill-rule="nonzero"/><path fill="#c62328" d="M 281.480469 219.460938 L 281.53125 219.421875 L 284.617188 223.667969 L 284.566406 223.707031 Z M 281.480469 219.460938 " fill-opacity="1" fill-rule="nonzero"/><path fill="#c62328" d="M 282.046875 218.945312 L 282.089844 218.894531 L 285.992188 222.410156 L 285.949219 222.457031 Z M 282.046875 218.945312 " fill-opacity="1" fill-rule="nonzero"/><path fill="#c62328" d="M 282.507812 218.339844 L 282.542969 218.285156 L 287.089844 220.910156 L 287.054688 220.964844 Z M 282.507812 218.339844 " fill-opacity="1" fill-rule="nonzero"/><path fill="#c62328" d="M 282.816406 217.652344 L 282.835938 217.589844 L 287.832031 219.210938 L 287.8125 219.273438 Z M 282.816406 217.652344 " fill-opacity="1" fill-rule="nonzero"/><path fill="#c62328" d="M 282.976562 216.898438 L 282.980469 216.832031 L 288.203125 217.382812 L 288.195312 217.449219 Z M 282.976562 216.898438 " fill-opacity="1" fill-rule="nonzero"/><path fill="#c62328" d="M 282.980469 216.078125 L 288.203125 215.527344 L 288.210938 215.59375 L 282.988281 216.140625 Z M 282.980469 216.078125 " fill-opacity="1" fill-rule="nonzero"/><path fill="#c62328" d="M 282.828125 215.296875 L 287.820312 213.667969 L 287.839844 213.730469 L 282.847656 215.359375 Z M 282.828125 215.296875 " fill-opacity="1" fill-rule="nonzero"/><path fill="#c62328" d="M 282.484375 214.664062 L 287.03125 212.042969 L 287.066406 212.097656 L 282.515625 214.71875 Z M 282.484375 214.664062 " fill-opacity="1" fill-rule="nonzero"/><path fill="#c62328" d="M 282.042969 214.035156 L 285.945312 210.523438 L 285.988281 210.570312 L 282.089844 214.085938 Z M 282.042969 214.035156 " fill-opacity="1" fill-rule="nonzero"/><path fill="#c62328" d="M 281.476562 213.542969 L 284.558594 209.292969 L 284.613281 209.332031 L 281.53125 213.582031 Z M 281.476562 213.542969 " fill-opacity="1" fill-rule="nonzero"/><path fill="#c62328" d="M 280.820312 213.167969 L 282.957031 208.371094 L 283.015625 208.394531 L 280.878906 213.195312 Z M 280.820312 213.167969 " fill-opacity="1" fill-rule="nonzero"/><path fill="#c62328" d="M 280.066406 212.878906 L 281.160156 207.742188 L 281.222656 207.757812 L 280.132812 212.894531 Z M 280.066406 212.878906 " fill-opacity="1" fill-rule="nonzero"/><path fill="#c62328" d="M 281.265625 216.535156 C 281.265625 216.800781 281.214844 217.054688 281.113281 217.300781 C 281.011719 217.546875 280.867188 217.761719 280.679688 217.949219 C 280.492188 218.136719 280.277344 218.28125 280.03125 218.382812 C 279.789062 218.484375 279.53125 218.535156 279.269531 218.535156 C 279.003906 218.535156 278.746094 218.484375 278.503906 218.382812 C 278.257812 218.28125 278.042969 218.136719 277.855469 217.949219 C 277.667969 217.761719 277.523438 217.546875 277.421875 217.300781 C 277.320312 217.054688 277.269531 216.800781 277.269531 216.535156 C 277.269531 216.273438 277.320312 216.015625 277.421875 215.773438 C 277.523438 215.527344 277.667969 215.3125 277.855469 215.125 C 278.042969 214.9375 278.257812 214.792969 278.503906 214.691406 C 278.746094 214.589844 279.003906 214.539062 279.269531 214.539062 C 279.53125 214.539062 279.789062 214.589844 280.03125 214.691406 C 280.277344 214.792969 280.492188 214.9375 280.679688 215.125 C 280.867188 215.3125 281.011719 215.527344 281.113281 215.773438 C 281.214844 216.015625 281.265625 216.273438 281.265625 216.535156 Z M 281.265625 216.535156 " fill-opacity="1" fill-rule="nonzero"/><path fill="#c62328" d="M 140.480469 40 C 140.480469 40.359375 140.410156 40.707031 140.273438 41.039062 C 140.132812 41.375 139.9375 41.667969 139.683594 41.921875 C 139.429688 42.175781 139.132812 42.375 138.800781 42.511719 C 138.46875 42.648438 138.121094 42.71875 137.761719 42.71875 C 137.402344 42.71875 137.054688 42.648438 136.722656 42.511719 C 136.386719 42.375 136.09375 42.175781 135.839844 41.921875 C 135.585938 41.667969 135.386719 41.375 135.25 41.039062 C 135.113281 40.707031 135.042969 40.359375 135.042969 40 C 135.042969 39.640625 135.113281 39.292969 135.25 38.960938 C 135.386719 38.628906 135.585938 38.332031 135.839844 38.078125 C 136.09375 37.824219 136.386719 37.628906 136.722656 37.488281 C 137.054688 37.351562 137.402344 37.28125 137.761719 37.28125 C 138.121094 37.28125 138.46875 37.351562 138.800781 37.488281 C 139.132812 37.628906 139.429688 37.824219 139.683594 38.078125 C 139.9375 38.332031 140.132812 38.628906 140.273438 38.960938 C 140.410156 39.292969 140.480469 39.640625 140.480469 40 Z M 140.480469 40 " fill-opacity="1" fill-rule="nonzero"/><path fill="#c62328" d="M 137.761719 23.605469 L 137.53125 36.910156 L 137.992188 36.910156 Z M 137.761719 23.605469 " fill-opacity="1" fill-rule="nonzero"/><path fill="#c62328" d="M 133.308594 29.117188 L 136.507812 37.226562 L 136.789062 37.117188 Z M 133.308594 29.117188 " fill-opacity="1" fill-rule="nonzero"/><path fill="#c62328" d="M 126.15625 28.40625 L 135.402344 37.980469 L 135.730469 37.652344 Z M 126.15625 28.40625 " fill-opacity="1" fill-rule="nonzero"/><path fill="#c62328" d="M 126.921875 35.449219 L 134.914062 38.929688 L 135.03125 38.648438 Z M 126.921875 35.449219 " fill-opacity="1" fill-rule="nonzero"/><path fill="#c62328" d="M 121.355469 40 L 134.660156 40.242188 L 134.660156 39.769531 Z M 121.355469 40 " fill-opacity="1" fill-rule="nonzero"/><path fill="#c62328" d="M 126.878906 44.453125 L 134.988281 41.257812 L 134.867188 40.972656 Z M 126.878906 44.453125 " fill-opacity="1" fill-rule="nonzero"/><path fill="#c62328" d="M 126.15625 51.605469 L 135.730469 42.359375 L 135.402344 42.03125 Z M 126.15625 51.605469 " fill-opacity="1" fill-rule="nonzero"/><path fill="#c62328" d="M 133.210938 50.851562 L 136.679688 42.851562 L 136.398438 42.742188 Z M 133.210938 50.851562 " fill-opacity="1" fill-rule="nonzero"/><path fill="#c62328" d="M 137.761719 56.40625 L 137.992188 43.101562 L 137.53125 43.101562 Z M 137.761719 56.40625 " fill-opacity="1" fill-rule="nonzero"/><path fill="#c62328" d="M 142.203125 50.894531 L 139.015625 42.785156 L 138.734375 42.894531 Z M 142.203125 50.894531 " fill-opacity="1" fill-rule="nonzero"/><path fill="#c62328" d="M 149.355469 51.605469 L 140.121094 42.03125 L 139.78125 42.359375 Z M 149.355469 51.605469 " fill-opacity="1" fill-rule="nonzero"/><path fill="#c62328" d="M 148.601562 44.550781 L 140.609375 41.082031 L 140.492188 41.363281 Z M 148.601562 44.550781 " fill-opacity="1" fill-rule="nonzero"/><path fill="#c62328" d="M 154.167969 40 L 140.863281 39.769531 L 140.863281 40.242188 Z M 154.167969 40 " fill-opacity="1" fill-rule="nonzero"/><path fill="#c62328" d="M 148.644531 35.558594 L 140.535156 38.757812 L 140.652344 39.027344 Z M 148.644531 35.558594 " fill-opacity="1" fill-rule="nonzero"/><path fill="#c62328" d="M 149.355469 28.40625 L 139.78125 37.652344 L 140.121094 37.980469 Z M 149.355469 28.40625 " fill-opacity="1" fill-rule="nonzero"/><path fill="#c62328" d="M 142.3125 29.160156 L 138.832031 37.164062 L 139.113281 37.273438 Z M 142.3125 29.160156 " fill-opacity="1" fill-rule="nonzero"/><path fill="#c62328" d="M 139.53125 40 C 139.53125 40.253906 139.480469 40.5 139.382812 40.734375 C 139.285156 40.972656 139.148438 41.179688 138.96875 41.359375 C 138.785156 41.539062 138.578125 41.679688 138.34375 41.777344 C 138.109375 41.871094 137.863281 41.921875 137.609375 41.921875 C 137.355469 41.921875 137.109375 41.871094 136.875 41.777344 C 136.636719 41.679688 136.429688 41.539062 136.25 41.359375 C 136.070312 41.179688 135.929688 40.972656 135.832031 40.734375 C 135.734375 40.5 135.6875 40.253906 135.6875 40 C 135.6875 39.746094 135.734375 39.5 135.832031 39.265625 C 135.929688 39.03125 136.070312 38.820312 136.25 38.640625 C 136.429688 38.460938 136.636719 38.324219 136.875 38.226562 C 137.109375 38.128906 137.355469 38.078125 137.609375 38.078125 C 137.863281 38.078125 138.109375 38.128906 138.34375 38.226562 C 138.578125 38.324219 138.785156 38.460938 138.96875 38.640625 C 139.148438 38.820312 139.285156 39.03125 139.382812 39.265625 C 139.480469 39.5 139.53125 39.746094 139.53125 40 Z M 139.53125 40 " fill-opacity="1" fill-rule="nonzero"/><path fill="#c62328" d="M 139.824219 40 C 139.824219 40.234375 139.777344 40.457031 139.679688 40.671875 C 139.585938 40.886719 139.449219 41.078125 139.273438 41.242188 C 139.09375 41.40625 138.890625 41.535156 138.660156 41.625 C 138.425781 41.714844 138.1875 41.757812 137.9375 41.757812 C 137.6875 41.757812 137.445312 41.714844 137.214844 41.625 C 136.980469 41.535156 136.777344 41.40625 136.601562 41.242188 C 136.421875 41.078125 136.289062 40.886719 136.191406 40.671875 C 136.09375 40.457031 136.046875 40.234375 136.046875 40 C 136.046875 39.765625 136.09375 39.542969 136.191406 39.328125 C 136.289062 39.113281 136.421875 38.921875 136.601562 38.757812 C 136.777344 38.59375 136.980469 38.464844 137.214844 38.375 C 137.445312 38.289062 137.6875 38.242188 137.9375 38.242188 C 138.1875 38.242188 138.425781 38.289062 138.660156 38.375 C 138.890625 38.464844 139.09375 38.59375 139.273438 38.757812 C 139.449219 38.921875 139.585938 39.113281 139.679688 39.328125 C 139.777344 39.542969 139.824219 39.765625 139.824219 40 Z M 139.824219 40 " fill-opacity="1" fill-rule="nonzero"/><path fill="#c62328" d="M 138.765625 40.085938 C 138.765625 40.226562 138.695312 40.296875 138.558594 40.296875 C 138.421875 40.296875 138.351562 40.226562 138.351562 40.085938 C 138.351562 39.949219 138.421875 39.878906 138.558594 39.878906 C 138.695312 39.878906 138.765625 39.949219 138.765625 40.085938 Z M 138.765625 40.085938 " fill-opacity="1" fill-rule="nonzero"/><path fill="#c62328" d="M 138.558594 39.464844 L 138.460938 39.847656 L 138.667969 39.847656 Z M 138.558594 39.464844 " fill-opacity="1" fill-rule="nonzero"/><path fill="#c62328" d="M 138.121094 39.652344 L 138.316406 40 L 138.472656 39.847656 Z M 138.121094 39.652344 " fill-opacity="1" fill-rule="nonzero"/><path fill="#c62328" d="M 137.9375 40.085938 L 138.316406 40.195312 L 138.316406 39.980469 Z M 137.9375 40.085938 " fill-opacity="1" fill-rule="nonzero"/><path fill="#c62328" d="M 138.121094 40.535156 L 138.472656 40.339844 L 138.316406 40.1875 Z M 138.121094 40.535156 " fill-opacity="1" fill-rule="nonzero"/><path fill="#c62328" d="M 138.558594 40.710938 L 138.667969 40.339844 L 138.460938 40.339844 Z M 138.558594 40.710938 " fill-opacity="1" fill-rule="nonzero"/><path fill="#c62328" d="M 139.007812 40.535156 L 138.808594 40.1875 L 138.65625 40.339844 Z M 139.007812 40.535156 " fill-opacity="1" fill-rule="nonzero"/><path fill="#c62328" d="M 139.191406 40.085938 L 138.808594 39.980469 L 138.808594 40.195312 Z M 139.191406 40.085938 " fill-opacity="1" fill-rule="nonzero"/><path fill="#c62328" d="M 139.007812 39.652344 L 138.65625 39.847656 L 138.808594 40 Z M 139.007812 39.652344 " fill-opacity="1" fill-rule="nonzero"/><path fill="#c62328" d="M 137.761719 42.902344 L 137.738281 42.902344 C 137.738281 42.902344 137.707031 42.894531 137.707031 42.871094 C 137.707031 42.851562 137.71875 42.839844 137.738281 42.839844 L 137.761719 42.839844 C 137.761719 42.839844 137.816406 42.839844 137.816406 42.839844 C 137.835938 42.839844 137.847656 42.851562 137.847656 42.871094 C 137.847656 42.894531 137.835938 42.902344 137.816406 42.902344 Z M 137.53125 42.894531 C 137.511719 42.894531 137.488281 42.894531 137.464844 42.894531 C 137.445312 42.894531 137.433594 42.871094 137.433594 42.851562 C 137.433594 42.828125 137.457031 42.816406 137.476562 42.816406 C 137.5 42.816406 137.519531 42.816406 137.542969 42.816406 C 137.566406 42.816406 137.574219 42.839844 137.574219 42.851562 C 137.574219 42.871094 137.554688 42.882812 137.542969 42.882812 Z M 138.023438 42.894531 C 138.023438 42.894531 137.992188 42.882812 137.992188 42.859375 C 137.992188 42.839844 138 42.828125 138.023438 42.828125 C 138.046875 42.828125 138.066406 42.828125 138.089844 42.828125 C 138.109375 42.828125 138.121094 42.839844 138.132812 42.859375 C 138.132812 42.882812 138.121094 42.894531 138.101562 42.902344 C 138.078125 42.902344 138.054688 42.902344 138.035156 42.902344 Z M 137.25 42.859375 C 137.226562 42.859375 137.203125 42.859375 137.183594 42.851562 C 137.160156 42.851562 137.148438 42.828125 137.148438 42.804688 C 137.148438 42.785156 137.171875 42.773438 137.195312 42.785156 C 137.214844 42.785156 137.238281 42.785156 137.257812 42.796875 C 137.28125 42.796875 137.292969 42.816406 137.292969 42.839844 C 137.292969 42.859375 137.269531 42.871094 137.257812 42.871094 Z M 138.296875 42.851562 C 138.296875 42.851562 138.261719 42.839844 138.261719 42.816406 C 138.261719 42.796875 138.261719 42.785156 138.296875 42.773438 C 138.316406 42.773438 138.339844 42.773438 138.363281 42.761719 C 138.382812 42.761719 138.394531 42.761719 138.40625 42.785156 C 138.40625 42.804688 138.40625 42.816406 138.382812 42.828125 C 138.363281 42.828125 138.339844 42.828125 138.316406 42.839844 Z M 136.976562 42.796875 C 136.953125 42.796875 136.933594 42.785156 136.910156 42.773438 C 136.886719 42.773438 136.878906 42.75 136.886719 42.730469 C 136.886719 42.707031 136.910156 42.695312 136.933594 42.707031 C 136.953125 42.707031 136.976562 42.71875 136.996094 42.730469 C 137.019531 42.730469 137.03125 42.75 137.019531 42.773438 C 137.019531 42.785156 136.996094 42.796875 136.988281 42.796875 Z M 138.570312 42.785156 C 138.570312 42.785156 138.535156 42.785156 138.535156 42.761719 C 138.535156 42.742188 138.535156 42.730469 138.558594 42.71875 C 138.582031 42.71875 138.601562 42.707031 138.625 42.695312 C 138.644531 42.695312 138.65625 42.695312 138.667969 42.71875 C 138.667969 42.742188 138.667969 42.75 138.644531 42.761719 C 138.625 42.761719 138.601562 42.773438 138.582031 42.785156 Z M 136.714844 42.707031 C 136.714844 42.707031 136.714844 42.707031 136.703125 42.707031 C 136.679688 42.707031 136.660156 42.6875 136.636719 42.6875 C 136.617188 42.6875 136.617188 42.652344 136.617188 42.640625 C 136.617188 42.621094 136.648438 42.621094 136.660156 42.621094 C 136.679688 42.621094 136.703125 42.640625 136.722656 42.640625 C 136.746094 42.640625 136.746094 42.664062 136.746094 42.6875 C 136.746094 42.695312 136.722656 42.707031 136.714844 42.707031 Z M 138.832031 42.695312 C 138.832031 42.695312 138.808594 42.695312 138.796875 42.675781 C 138.796875 42.652344 138.796875 42.632812 138.820312 42.632812 C 138.84375 42.632812 138.863281 42.609375 138.886719 42.609375 C 138.90625 42.609375 138.929688 42.609375 138.929688 42.632812 C 138.929688 42.652344 138.929688 42.675781 138.90625 42.675781 C 138.886719 42.675781 138.863281 42.695312 138.84375 42.695312 C 138.84375 42.695312 138.84375 42.695312 138.832031 42.695312 Z M 136.460938 42.585938 C 136.460938 42.585938 136.460938 42.585938 136.453125 42.585938 C 136.429688 42.585938 136.40625 42.566406 136.386719 42.554688 C 136.363281 42.554688 136.363281 42.523438 136.375 42.511719 C 136.375 42.488281 136.40625 42.488281 136.417969 42.5 C 136.441406 42.511719 136.460938 42.523438 136.484375 42.53125 C 136.507812 42.53125 136.507812 42.566406 136.496094 42.578125 C 136.496094 42.585938 136.472656 42.597656 136.460938 42.597656 Z M 139.082031 42.578125 C 139.082031 42.578125 139.058594 42.578125 139.050781 42.554688 C 139.050781 42.53125 139.050781 42.511719 139.058594 42.511719 C 139.082031 42.511719 139.105469 42.488281 139.125 42.480469 C 139.148438 42.480469 139.160156 42.480469 139.167969 42.488281 C 139.167969 42.511719 139.167969 42.523438 139.160156 42.53125 C 139.136719 42.542969 139.113281 42.554688 139.09375 42.566406 C 139.09375 42.566406 139.09375 42.566406 139.082031 42.566406 Z M 136.210938 42.457031 C 136.210938 42.457031 136.199219 42.457031 136.191406 42.457031 C 136.167969 42.445312 136.144531 42.433594 136.136719 42.414062 C 136.125 42.414062 136.113281 42.378906 136.136719 42.371094 C 136.136719 42.359375 136.167969 42.347656 136.179688 42.371094 C 136.199219 42.378906 136.222656 42.390625 136.234375 42.402344 C 136.242188 42.402344 136.253906 42.433594 136.234375 42.445312 C 136.234375 42.445312 136.210938 42.457031 136.199219 42.457031 Z M 139.324219 42.433594 C 139.324219 42.433594 139.300781 42.433594 139.289062 42.425781 C 139.289062 42.414062 139.289062 42.390625 139.289062 42.378906 C 139.3125 42.371094 139.332031 42.359375 139.34375 42.335938 C 139.355469 42.335938 139.378906 42.335938 139.386719 42.335938 C 139.398438 42.347656 139.386719 42.371094 139.386719 42.378906 C 139.367188 42.390625 139.34375 42.402344 139.332031 42.425781 C 139.332031 42.425781 139.324219 42.425781 139.3125 42.425781 Z M 135.980469 42.292969 C 135.980469 42.292969 135.972656 42.292969 135.960938 42.292969 C 135.9375 42.28125 135.925781 42.261719 135.90625 42.25 C 135.894531 42.238281 135.882812 42.214844 135.90625 42.195312 C 135.917969 42.183594 135.9375 42.171875 135.960938 42.195312 C 135.980469 42.207031 135.992188 42.226562 136.015625 42.238281 C 136.027344 42.25 136.035156 42.269531 136.015625 42.28125 C 136.015625 42.28125 135.992188 42.292969 135.980469 42.292969 Z M 139.550781 42.269531 C 139.550781 42.269531 139.53125 42.269531 139.519531 42.261719 C 139.507812 42.25 139.519531 42.226562 139.519531 42.207031 C 139.539062 42.195312 139.550781 42.171875 139.574219 42.160156 C 139.585938 42.152344 139.605469 42.160156 139.628906 42.160156 C 139.640625 42.171875 139.628906 42.195312 139.628906 42.214844 C 139.605469 42.226562 139.59375 42.25 139.574219 42.261719 C 139.574219 42.261719 139.5625 42.261719 139.550781 42.261719 Z M 135.773438 42.105469 C 135.773438 42.105469 135.753906 42.105469 135.753906 42.105469 C 135.730469 42.097656 135.71875 42.074219 135.699219 42.054688 C 135.6875 42.042969 135.6875 42.019531 135.699219 42 C 135.710938 41.988281 135.730469 41.988281 135.753906 42 C 135.765625 42.007812 135.785156 42.03125 135.808594 42.042969 C 135.820312 42.054688 135.820312 42.074219 135.808594 42.097656 C 135.808594 42.097656 135.796875 42.097656 135.785156 42.097656 Z M 139.757812 42.085938 C 139.757812 42.085938 139.738281 42.085938 139.738281 42.085938 C 139.726562 42.074219 139.726562 42.054688 139.738281 42.03125 C 139.757812 42.019531 139.769531 42 139.78125 41.988281 C 139.792969 41.976562 139.8125 41.976562 139.835938 41.988281 C 139.855469 42 139.847656 42.019531 139.835938 42.042969 C 139.8125 42.0625 139.804688 42.074219 139.78125 42.097656 C 139.78125 42.097656 139.769531 42.097656 139.757812 42.097656 Z M 135.578125 41.910156 C 135.578125 41.910156 135.554688 41.910156 135.554688 41.898438 C 135.546875 41.878906 135.523438 41.867188 135.511719 41.84375 C 135.5 41.835938 135.511719 41.8125 135.511719 41.789062 C 135.523438 41.78125 135.546875 41.789062 135.566406 41.789062 C 135.578125 41.8125 135.601562 41.824219 135.609375 41.84375 C 135.621094 41.855469 135.621094 41.878906 135.609375 41.898438 C 135.609375 41.898438 135.601562 41.898438 135.589844 41.898438 Z M 139.957031 41.890625 C 139.957031 41.890625 139.945312 41.890625 139.933594 41.890625 C 139.921875 41.878906 139.910156 41.855469 139.933594 41.835938 C 139.945312 41.8125 139.964844 41.800781 139.976562 41.78125 C 139.988281 41.769531 140.011719 41.757812 140.03125 41.78125 C 140.042969 41.789062 140.054688 41.8125 140.03125 41.835938 C 140.019531 41.855469 140 41.867188 139.988281 41.890625 C 139.988281 41.890625 139.964844 41.898438 139.964844 41.898438 Z M 135.402344 41.683594 C 135.402344 41.683594 135.382812 41.683594 135.371094 41.671875 C 135.359375 41.648438 135.347656 41.628906 135.328125 41.617188 C 135.328125 41.605469 135.328125 41.582031 135.328125 41.574219 C 135.339844 41.574219 135.359375 41.574219 135.371094 41.574219 C 135.382812 41.59375 135.394531 41.605469 135.414062 41.628906 C 135.425781 41.636719 135.414062 41.660156 135.414062 41.671875 C 135.414062 41.671875 135.402344 41.671875 135.394531 41.671875 Z M 140.128906 41.660156 C 140.128906 41.660156 140.121094 41.660156 140.109375 41.660156 C 140.097656 41.648438 140.085938 41.628906 140.109375 41.617188 C 140.121094 41.59375 140.128906 41.582031 140.152344 41.5625 C 140.152344 41.550781 140.183594 41.539062 140.195312 41.5625 C 140.207031 41.5625 140.21875 41.59375 140.195312 41.605469 C 140.183594 41.628906 140.175781 41.648438 140.152344 41.660156 C 140.152344 41.660156 140.128906 41.671875 140.121094 41.671875 Z M 135.261719 41.453125 C 135.261719 41.453125 135.238281 41.453125 135.230469 41.429688 C 135.21875 41.410156 135.207031 41.386719 135.195312 41.363281 C 135.195312 41.34375 135.195312 41.320312 135.207031 41.320312 C 135.230469 41.320312 135.238281 41.320312 135.25 41.332031 C 135.261719 41.355469 135.273438 41.375 135.285156 41.398438 C 135.285156 41.417969 135.285156 41.429688 135.273438 41.441406 C 135.273438 41.441406 135.261719 41.441406 135.25 41.441406 Z M 140.273438 41.429688 C 140.273438 41.429688 140.261719 41.429688 140.25 41.429688 C 140.226562 41.429688 140.226562 41.398438 140.238281 41.386719 C 140.25 41.363281 140.261719 41.34375 140.273438 41.320312 C 140.273438 41.300781 140.304688 41.300781 140.316406 41.308594 C 140.335938 41.308594 140.335938 41.34375 140.328125 41.355469 C 140.316406 41.375 140.304688 41.398438 140.292969 41.417969 C 140.292969 41.429688 140.273438 41.441406 140.261719 41.441406 Z M 135.128906 41.203125 C 135.128906 41.203125 135.109375 41.203125 135.097656 41.179688 C 135.097656 41.15625 135.074219 41.136719 135.066406 41.113281 C 135.066406 41.09375 135.066406 41.070312 135.085938 41.070312 C 135.109375 41.070312 135.128906 41.070312 135.128906 41.09375 C 135.128906 41.113281 135.152344 41.136719 135.164062 41.15625 C 135.164062 41.179688 135.164062 41.203125 135.140625 41.203125 C 135.140625 41.203125 135.140625 41.203125 135.128906 41.203125 Z M 140.402344 41.179688 C 140.402344 41.179688 140.402344 41.179688 140.390625 41.179688 C 140.371094 41.179688 140.371094 41.148438 140.371094 41.136719 C 140.371094 41.113281 140.390625 41.09375 140.390625 41.070312 C 140.390625 41.046875 140.425781 41.046875 140.4375 41.046875 C 140.457031 41.046875 140.457031 41.082031 140.457031 41.09375 C 140.457031 41.113281 140.4375 41.136719 140.425781 41.15625 C 140.425781 41.167969 140.402344 41.179688 140.390625 41.179688 Z M 135.03125 40.9375 C 135.03125 40.9375 135 40.9375 135 40.917969 C 135 40.894531 134.988281 40.875 134.976562 40.851562 C 134.976562 40.832031 134.976562 40.820312 135 40.808594 C 135.023438 40.808594 135.03125 40.808594 135.042969 40.832031 C 135.042969 40.851562 135.054688 40.875 135.066406 40.894531 C 135.066406 40.917969 135.066406 40.929688 135.042969 40.9375 C 135.042969 40.9375 135.042969 40.9375 135.03125 40.9375 Z M 140.5 40.917969 C 140.480469 40.917969 140.46875 40.894531 140.480469 40.875 C 140.480469 40.851562 140.492188 40.832031 140.5 40.808594 C 140.5 40.785156 140.523438 40.777344 140.546875 40.785156 C 140.566406 40.785156 140.578125 40.808594 140.566406 40.832031 C 140.566406 40.851562 140.554688 40.875 140.546875 40.894531 C 140.546875 40.90625 140.523438 40.917969 140.511719 40.917969 Z M 134.957031 40.675781 C 134.957031 40.675781 134.921875 40.675781 134.921875 40.65625 C 134.921875 40.632812 134.921875 40.613281 134.914062 40.589844 C 134.914062 40.566406 134.914062 40.558594 134.933594 40.546875 C 134.957031 40.546875 134.96875 40.546875 134.976562 40.566406 C 134.976562 40.589844 134.976562 40.613281 134.988281 40.632812 C 134.988281 40.65625 134.988281 40.667969 134.96875 40.675781 Z M 140.578125 40.644531 C 140.554688 40.644531 140.546875 40.621094 140.554688 40.601562 C 140.554688 40.578125 140.554688 40.558594 140.566406 40.535156 C 140.566406 40.511719 140.589844 40.503906 140.609375 40.503906 C 140.632812 40.503906 140.644531 40.523438 140.644531 40.546875 C 140.644531 40.566406 140.644531 40.589844 140.632812 40.613281 C 140.632812 40.621094 140.609375 40.644531 140.601562 40.644531 Z M 134.902344 40.394531 C 134.902344 40.394531 134.867188 40.382812 134.867188 40.359375 C 134.867188 40.339844 134.867188 40.316406 134.867188 40.296875 C 134.867188 40.273438 134.878906 40.261719 134.902344 40.25 C 134.921875 40.25 134.933594 40.261719 134.945312 40.285156 C 134.945312 40.304688 134.945312 40.328125 134.945312 40.351562 C 134.945312 40.371094 134.933594 40.382812 134.914062 40.394531 Z M 140.621094 40.371094 C 140.601562 40.371094 140.589844 40.351562 140.589844 40.328125 C 140.589844 40.304688 140.589844 40.285156 140.589844 40.261719 C 140.589844 40.242188 140.609375 40.230469 140.621094 40.230469 C 140.644531 40.230469 140.652344 40.25 140.652344 40.261719 C 140.652344 40.285156 140.652344 40.304688 140.652344 40.328125 C 140.652344 40.351562 140.632812 40.359375 140.621094 40.359375 Z M 134.878906 40.121094 C 134.878906 40.121094 134.847656 40.109375 134.847656 40.085938 C 134.847656 40.066406 134.847656 40.042969 134.847656 40.023438 C 134.847656 40 134.859375 39.988281 134.878906 39.988281 C 134.878906 39.988281 134.914062 40 134.914062 40.023438 C 134.914062 40.042969 134.914062 40.066406 134.914062 40.085938 C 134.914062 40.109375 134.902344 40.121094 134.878906 40.121094 Z M 140.644531 40.085938 C 140.644531 40.085938 140.609375 40.066406 140.609375 40.054688 C 140.609375 40.035156 140.609375 40.011719 140.609375 39.988281 C 140.609375 39.96875 140.621094 39.957031 140.644531 39.957031 C 140.664062 39.957031 140.675781 39.96875 140.675781 39.988281 C 140.675781 40.011719 140.675781 40.035156 140.675781 40.054688 C 140.675781 40.078125 140.664062 40.085938 140.644531 40.085938 Z M 140.644531 39.890625 C 140.644531 39.890625 140.609375 39.878906 140.609375 39.859375 C 140.609375 39.835938 140.609375 39.816406 140.609375 39.792969 C 140.609375 39.769531 140.621094 39.761719 140.644531 39.761719 C 140.664062 39.761719 140.675781 39.769531 140.675781 39.792969 C 140.675781 39.816406 140.675781 39.835938 140.675781 39.859375 C 140.675781 39.878906 140.664062 39.890625 140.644531 39.890625 Z M 134.878906 39.835938 C 134.859375 39.835938 134.847656 39.816406 134.847656 39.804688 C 134.847656 39.78125 134.847656 39.761719 134.847656 39.738281 C 134.847656 39.714844 134.867188 39.707031 134.878906 39.707031 C 134.902344 39.707031 134.914062 39.726562 134.914062 39.738281 C 134.914062 39.761719 134.914062 39.78125 134.914062 39.804688 C 134.914062 39.824219 134.890625 39.835938 134.878906 39.835938 Z M 140.609375 39.609375 C 140.609375 39.609375 140.578125 39.597656 140.578125 39.574219 C 140.578125 39.554688 140.578125 39.53125 140.578125 39.507812 C 140.578125 39.488281 140.578125 39.476562 140.609375 39.464844 C 140.632812 39.464844 140.644531 39.464844 140.652344 39.5 C 140.652344 39.519531 140.652344 39.542969 140.652344 39.5625 C 140.652344 39.585938 140.652344 39.597656 140.621094 39.609375 Z M 134.914062 39.5625 C 134.890625 39.5625 134.878906 39.542969 134.878906 39.519531 C 134.878906 39.5 134.878906 39.476562 134.890625 39.453125 C 134.890625 39.433594 134.914062 39.421875 134.933594 39.421875 C 134.957031 39.421875 134.96875 39.445312 134.96875 39.464844 C 134.96875 39.488281 134.96875 39.507812 134.957031 39.53125 C 134.957031 39.554688 134.933594 39.5625 134.921875 39.5625 Z M 140.554688 39.335938 C 140.554688 39.335938 140.523438 39.335938 140.523438 39.3125 C 140.523438 39.289062 140.511719 39.269531 140.5 39.246094 C 140.5 39.226562 140.5 39.214844 140.523438 39.203125 C 140.546875 39.203125 140.554688 39.203125 140.566406 39.226562 C 140.566406 39.246094 140.578125 39.269531 140.589844 39.289062 C 140.589844 39.3125 140.589844 39.324219 140.566406 39.335938 Z M 134.96875 39.289062 C 134.945312 39.289062 134.933594 39.269531 134.945312 39.246094 C 134.945312 39.226562 134.957031 39.203125 134.96875 39.183594 C 134.96875 39.160156 134.988281 39.148438 135.011719 39.160156 C 135.03125 39.160156 135.042969 39.183594 135.03125 39.203125 C 135.03125 39.226562 135.023438 39.246094 135.011719 39.269531 C 135.011719 39.28125 134.988281 39.289062 134.976562 39.289062 Z M 140.480469 39.0625 C 140.480469 39.0625 140.445312 39.0625 140.445312 39.039062 C 140.445312 39.019531 140.4375 38.996094 140.425781 38.972656 C 140.425781 38.953125 140.425781 38.929688 140.445312 38.929688 C 140.46875 38.929688 140.492188 38.929688 140.492188 38.953125 C 140.492188 38.972656 140.5 38.996094 140.511719 39.019531 C 140.511719 39.039062 140.511719 39.0625 140.492188 39.0625 C 140.492188 39.0625 140.492188 39.0625 140.480469 39.0625 Z M 135.054688 39.019531 C 135.054688 39.019531 135.054688 39.019531 135.042969 39.019531 C 135.023438 39.019531 135.011719 38.996094 135.023438 38.972656 C 135.023438 38.953125 135.042969 38.929688 135.042969 38.910156 C 135.042969 38.886719 135.074219 38.886719 135.085938 38.886719 C 135.109375 38.886719 135.109375 38.917969 135.109375 38.929688 C 135.109375 38.953125 135.085938 38.972656 135.085938 38.996094 C 135.085938 39.007812 135.066406 39.019531 135.054688 39.019531 Z M 140.371094 38.8125 C 140.371094 38.8125 140.347656 38.8125 140.335938 38.789062 C 140.335938 38.765625 140.316406 38.746094 140.304688 38.722656 C 140.304688 38.703125 140.304688 38.679688 140.316406 38.679688 C 140.335938 38.679688 140.347656 38.679688 140.359375 38.691406 C 140.359375 38.710938 140.382812 38.734375 140.390625 38.757812 C 140.390625 38.777344 140.390625 38.800781 140.371094 38.800781 C 140.371094 38.800781 140.371094 38.800781 140.359375 38.800781 Z M 135.164062 38.765625 C 135.164062 38.765625 135.164062 38.765625 135.152344 38.765625 C 135.128906 38.765625 135.128906 38.734375 135.140625 38.722656 C 135.140625 38.703125 135.164062 38.679688 135.175781 38.65625 C 135.175781 38.636719 135.207031 38.636719 135.21875 38.648438 C 135.238281 38.648438 135.238281 38.679688 135.230469 38.691406 C 135.230469 38.710938 135.207031 38.734375 135.195312 38.757812 C 135.195312 38.765625 135.175781 38.777344 135.164062 38.777344 Z M 140.238281 38.558594 C 140.238281 38.558594 140.21875 38.558594 140.207031 38.539062 C 140.195312 38.515625 140.183594 38.492188 140.175781 38.484375 C 140.175781 38.460938 140.175781 38.449219 140.183594 38.441406 C 140.195312 38.441406 140.21875 38.441406 140.226562 38.449219 C 140.238281 38.472656 140.25 38.492188 140.261719 38.515625 C 140.261719 38.539062 140.261719 38.546875 140.25 38.558594 C 140.25 38.558594 140.238281 38.558594 140.226562 38.558594 Z M 135.292969 38.515625 C 135.292969 38.515625 135.285156 38.515625 135.273438 38.515625 C 135.25 38.515625 135.25 38.484375 135.261719 38.472656 C 135.273438 38.449219 135.285156 38.429688 135.292969 38.40625 C 135.292969 38.394531 135.328125 38.386719 135.339844 38.40625 C 135.347656 38.40625 135.359375 38.441406 135.339844 38.449219 C 135.328125 38.472656 135.316406 38.492188 135.304688 38.503906 C 135.304688 38.503906 135.285156 38.527344 135.273438 38.527344 Z M 140.085938 38.332031 C 140.085938 38.332031 140.066406 38.332031 140.054688 38.320312 C 140.042969 38.296875 140.019531 38.285156 140.011719 38.265625 C 140 38.253906 140.011719 38.230469 140.011719 38.222656 C 140.019531 38.210938 140.042969 38.222656 140.054688 38.222656 C 140.066406 38.242188 140.085938 38.253906 140.097656 38.277344 C 140.109375 38.285156 140.097656 38.308594 140.097656 38.320312 C 140.097656 38.320312 140.085938 38.320312 140.074219 38.320312 Z M 135.457031 38.285156 C 135.457031 38.285156 135.445312 38.285156 135.4375 38.285156 C 135.425781 38.277344 135.414062 38.253906 135.4375 38.242188 C 135.445312 38.222656 135.46875 38.210938 135.480469 38.1875 C 135.492188 38.175781 135.511719 38.167969 135.523438 38.1875 C 135.535156 38.199219 135.546875 38.222656 135.523438 38.242188 C 135.511719 38.265625 135.492188 38.277344 135.480469 38.296875 C 135.480469 38.296875 135.457031 38.308594 135.445312 38.308594 Z M 139.910156 38.113281 C 139.910156 38.113281 139.890625 38.113281 139.890625 38.101562 C 139.878906 38.078125 139.855469 38.070312 139.847656 38.046875 C 139.835938 38.035156 139.835938 38.015625 139.847656 37.992188 C 139.855469 37.980469 139.878906 37.980469 139.902344 37.992188 C 139.910156 38.015625 139.933594 38.023438 139.945312 38.046875 C 139.957031 38.058594 139.957031 38.078125 139.945312 38.101562 C 139.945312 38.101562 139.933594 38.101562 139.921875 38.101562 Z M 135.632812 38.070312 C 135.632812 38.070312 135.609375 38.070312 135.609375 38.070312 C 135.601562 38.058594 135.601562 38.035156 135.609375 38.015625 C 135.621094 37.992188 135.644531 37.980469 135.65625 37.960938 C 135.664062 37.949219 135.6875 37.949219 135.710938 37.960938 C 135.71875 37.96875 135.71875 37.992188 135.710938 38.015625 C 135.699219 38.035156 135.675781 38.046875 135.664062 38.070312 C 135.664062 38.070312 135.65625 38.078125 135.644531 38.078125 Z M 139.714844 37.90625 C 139.714844 37.90625 139.695312 37.90625 139.695312 37.90625 C 139.671875 37.894531 139.660156 37.871094 139.640625 37.859375 C 139.628906 37.851562 139.628906 37.828125 139.640625 37.804688 C 139.648438 37.796875 139.671875 37.796875 139.695312 37.804688 C 139.714844 37.816406 139.726562 37.839844 139.75 37.851562 C 139.757812 37.859375 139.757812 37.882812 139.75 37.90625 C 139.75 37.90625 139.738281 37.914062 139.726562 37.914062 Z M 135.828125 37.871094 C 135.828125 37.871094 135.808594 37.871094 135.808594 37.859375 C 135.796875 37.851562 135.796875 37.828125 135.808594 37.804688 C 135.828125 37.796875 135.839844 37.773438 135.863281 37.761719 C 135.871094 37.75 135.894531 37.761719 135.917969 37.761719 C 135.925781 37.773438 135.925781 37.796875 135.917969 37.816406 C 135.894531 37.828125 135.882812 37.851562 135.863281 37.859375 C 135.863281 37.859375 135.851562 37.859375 135.839844 37.859375 Z M 139.507812 37.730469 C 139.507812 37.730469 139.496094 37.730469 139.484375 37.730469 C 139.464844 37.71875 139.453125 37.695312 139.429688 37.6875 C 139.421875 37.675781 139.410156 37.652344 139.429688 37.644531 C 139.441406 37.632812 139.464844 37.621094 139.476562 37.644531 C 139.496094 37.652344 139.507812 37.675781 139.53125 37.6875 C 139.539062 37.695312 139.550781 37.71875 139.53125 37.730469 C 139.53125 37.730469 139.507812 37.742188 139.496094 37.742188 Z M 136.046875 37.695312 C 136.046875 37.695312 136.027344 37.695312 136.015625 37.6875 C 136.003906 37.675781 136.015625 37.652344 136.015625 37.644531 C 136.035156 37.632812 136.046875 37.609375 136.070312 37.597656 C 136.082031 37.589844 136.101562 37.597656 136.113281 37.597656 C 136.125 37.609375 136.113281 37.632812 136.113281 37.644531 C 136.089844 37.652344 136.082031 37.664062 136.058594 37.6875 C 136.058594 37.6875 136.046875 37.6875 136.035156 37.6875 Z M 139.277344 37.566406 C 139.277344 37.566406 139.269531 37.566406 139.257812 37.566406 C 139.234375 37.554688 139.214844 37.542969 139.203125 37.535156 C 139.179688 37.535156 139.179688 37.5 139.191406 37.488281 C 139.191406 37.46875 139.222656 37.46875 139.234375 37.480469 C 139.257812 37.488281 139.277344 37.5 139.300781 37.511719 C 139.324219 37.511719 139.324219 37.542969 139.3125 37.554688 C 139.3125 37.554688 139.289062 37.578125 139.277344 37.578125 Z M 136.289062 37.542969 C 136.289062 37.542969 136.265625 37.542969 136.253906 37.523438 C 136.253906 37.5 136.253906 37.488281 136.265625 37.480469 C 136.289062 37.46875 136.308594 37.457031 136.332031 37.445312 C 136.351562 37.445312 136.375 37.445312 136.375 37.457031 C 136.375 37.480469 136.375 37.488281 136.363281 37.5 C 136.34375 37.511719 136.320312 37.523438 136.308594 37.535156 C 136.308594 37.535156 136.296875 37.535156 136.289062 37.535156 Z M 139.027344 37.433594 C 139.027344 37.433594 139.027344 37.433594 139.015625 37.433594 C 138.996094 37.433594 138.972656 37.414062 138.953125 37.402344 C 138.929688 37.402344 138.929688 37.371094 138.929688 37.359375 C 138.929688 37.347656 138.960938 37.335938 138.972656 37.335938 C 138.996094 37.335938 139.015625 37.359375 139.039062 37.371094 C 139.058594 37.371094 139.058594 37.402344 139.050781 37.414062 C 139.050781 37.425781 139.027344 37.433594 139.015625 37.433594 Z M 136.527344 37.414062 C 136.527344 37.414062 136.507812 37.414062 136.496094 37.390625 C 136.496094 37.371094 136.496094 37.347656 136.515625 37.347656 C 136.539062 37.347656 136.5625 37.324219 136.582031 37.316406 C 136.605469 37.316406 136.625 37.316406 136.625 37.335938 C 136.625 37.359375 136.625 37.378906 136.605469 37.378906 C 136.582031 37.378906 136.5625 37.402344 136.539062 37.414062 C 136.539062 37.414062 136.539062 37.414062 136.527344 37.414062 Z M 138.777344 37.316406 C 138.777344 37.316406 138.777344 37.316406 138.765625 37.316406 C 138.742188 37.316406 138.722656 37.304688 138.699219 37.292969 C 138.679688 37.292969 138.667969 37.273438 138.679688 37.25 C 138.6875 37.226562 138.699219 37.21875 138.722656 37.226562 C 138.742188 37.226562 138.765625 37.238281 138.789062 37.25 C 138.808594 37.25 138.808594 37.273438 138.808594 37.292969 C 138.808594 37.304688 138.789062 37.316406 138.777344 37.316406 Z M 136.789062 37.304688 C 136.789062 37.304688 136.757812 37.304688 136.757812 37.28125 C 136.757812 37.261719 136.757812 37.238281 136.777344 37.238281 C 136.800781 37.238281 136.824219 37.226562 136.84375 37.21875 C 136.867188 37.21875 136.878906 37.21875 136.886719 37.238281 C 136.886719 37.261719 136.886719 37.273438 136.867188 37.28125 C 136.84375 37.28125 136.824219 37.292969 136.800781 37.304688 C 136.800781 37.304688 136.800781 37.304688 136.789062 37.304688 Z M 138.503906 37.238281 C 138.480469 37.238281 138.460938 37.226562 138.4375 37.21875 C 138.417969 37.21875 138.40625 37.195312 138.417969 37.171875 C 138.417969 37.152344 138.4375 37.140625 138.460938 37.152344 C 138.480469 37.152344 138.503906 37.164062 138.527344 37.171875 C 138.546875 37.171875 138.558594 37.195312 138.546875 37.21875 C 138.546875 37.226562 138.527344 37.238281 138.515625 37.238281 Z M 137.050781 37.226562 C 137.050781 37.226562 137.019531 37.226562 137.019531 37.207031 C 137.019531 37.183594 137.019531 37.171875 137.039062 37.164062 C 137.0625 37.164062 137.085938 37.152344 137.105469 37.140625 C 137.128906 37.140625 137.140625 37.140625 137.148438 37.164062 C 137.148438 37.183594 137.148438 37.195312 137.128906 37.207031 C 137.105469 37.207031 137.085938 37.207031 137.0625 37.21875 Z M 138.230469 37.171875 C 138.210938 37.171875 138.1875 37.171875 138.164062 37.171875 C 138.144531 37.171875 138.132812 37.152344 138.132812 37.128906 C 138.132812 37.109375 138.15625 37.097656 138.175781 37.097656 C 138.199219 37.097656 138.21875 37.097656 138.242188 37.097656 C 138.261719 37.097656 138.273438 37.117188 138.273438 37.140625 C 138.273438 37.164062 138.253906 37.171875 138.242188 37.171875 Z M 137.324219 37.171875 C 137.324219 37.171875 137.292969 37.164062 137.292969 37.140625 C 137.292969 37.117188 137.292969 37.109375 137.324219 37.097656 C 137.347656 37.097656 137.367188 37.097656 137.390625 37.097656 C 137.414062 37.097656 137.421875 37.109375 137.433594 37.128906 C 137.433594 37.152344 137.421875 37.164062 137.402344 37.171875 C 137.378906 37.171875 137.359375 37.171875 137.335938 37.171875 Z M 137.957031 37.140625 C 137.9375 37.140625 137.914062 37.140625 137.890625 37.140625 C 137.871094 37.140625 137.859375 37.117188 137.859375 37.109375 C 137.859375 37.085938 137.882812 37.074219 137.890625 37.074219 C 137.914062 37.074219 137.9375 37.074219 137.957031 37.074219 C 137.980469 37.074219 137.992188 37.097656 137.992188 37.109375 C 137.992188 37.128906 137.96875 37.140625 137.957031 37.140625 Z M 137.609375 37.140625 C 137.609375 37.140625 137.574219 37.128906 137.574219 37.109375 C 137.574219 37.085938 137.585938 37.074219 137.609375 37.074219 C 137.628906 37.074219 137.652344 37.074219 137.675781 37.074219 C 137.675781 37.074219 137.707031 37.085938 137.707031 37.109375 C 137.707031 37.128906 137.695312 37.140625 137.675781 37.140625 C 137.652344 37.140625 137.628906 37.140625 137.609375 37.140625 Z M 137.609375 37.140625 " fill-opacity="1" fill-rule="nonzero"/><path fill="#c62328" d="M 154.203125 158.679688 C 147.859375 161.117188 144.113281 165.503906 144.222656 172.316406 C 144.320312 178.382812 147.5 182.738281 153.175781 184.902344 C 159.070312 187.148438 164.15625 185.359375 168.457031 181.039062 C 166.796875 185.402344 160.304688 190.261719 152.433594 188.796875 C 144.191406 187.269531 139.398438 180.109375 139.921875 172.75 C 140.632812 162.925781 148.917969 158.703125 154.203125 158.691406 Z M 154.203125 158.679688 " fill-opacity="1" fill-rule="nonzero"/><path fill="#c62328" d="M 151.953125 163.320312 C 151.953125 163.320312 151.667969 166.800781 149.691406 166.867188 L 151.953125 166.867188 Z M 151.953125 163.320312 " fill-opacity="1" fill-rule="nonzero"/><path fill="#c62328" d="M 151.953125 163.320312 C 151.953125 163.320312 152.234375 166.800781 154.210938 166.867188 L 151.953125 166.867188 C 151.953125 166.867188 151.953125 163.320312 151.953125 163.320312 Z M 151.953125 163.320312 " fill-opacity="1" fill-rule="nonzero"/><path fill="#c62328" d="M 152.007812 170.40625 C 152.007812 170.40625 151.722656 166.921875 149.746094 166.855469 L 152.007812 166.855469 Z M 152.007812 170.40625 " fill-opacity="1" fill-rule="nonzero"/><path fill="#c62328" d="M 152.007812 170.40625 C 152.007812 170.40625 152.289062 166.921875 154.265625 166.855469 L 152.007812 166.855469 C 152.007812 166.855469 152.007812 170.40625 152.007812 170.40625 Z M 152.007812 170.40625 " fill-opacity="1" fill-rule="nonzero"/><path fill="#c62328" d="M 155.261719 176.410156 C 155.261719 176.410156 155.03125 179.234375 153.425781 179.289062 L 155.261719 179.289062 Z M 155.261719 176.410156 " fill-opacity="1" fill-rule="nonzero"/><path fill="#c62328" d="M 155.261719 176.410156 C 155.261719 176.410156 155.488281 179.234375 157.09375 179.289062 L 155.261719 179.289062 C 155.261719 179.289062 155.261719 176.410156 155.261719 176.410156 Z M 155.261719 176.410156 " fill-opacity="1" fill-rule="nonzero"/><path fill="#c62328" d="M 155.304688 182.171875 C 155.304688 182.171875 155.074219 179.34375 153.46875 179.289062 L 155.304688 179.289062 Z M 155.304688 182.171875 " fill-opacity="1" fill-rule="nonzero"/><path fill="#c62328" d="M 155.304688 182.171875 C 155.304688 182.171875 155.53125 179.34375 157.136719 179.289062 L 155.304688 179.289062 C 155.304688 179.289062 155.304688 182.171875 155.304688 182.171875 Z M 155.304688 182.171875 " fill-opacity="1" fill-rule="nonzero"/><path fill="#c62328" d="M 162.378906 165.820312 C 162.378906 165.820312 161.996094 170.632812 159.253906 170.730469 L 162.378906 170.730469 Z M 162.378906 165.820312 " fill-opacity="1" fill-rule="nonzero"/><path fill="#c62328" d="M 162.378906 165.820312 C 162.378906 165.820312 162.757812 170.632812 165.5 170.730469 L 162.378906 170.730469 C 162.378906 170.730469 162.378906 165.820312 162.378906 165.820312 Z M 162.378906 165.820312 " fill-opacity="1" fill-rule="nonzero"/><path fill="#c62328" d="M 162.453125 175.632812 C 162.453125 175.632812 162.070312 170.820312 159.332031 170.722656 L 162.453125 170.722656 Z M 162.453125 175.632812 " fill-opacity="1" fill-rule="nonzero"/><path fill="#c62328" d="M 162.453125 175.632812 C 162.453125 175.632812 162.835938 170.820312 165.574219 170.722656 L 162.453125 170.722656 C 162.453125 170.722656 162.453125 175.632812 162.453125 175.632812 Z M 162.453125 175.632812 " fill-opacity="1" fill-rule="nonzero"/><path fill="#c62328" d="M 210.625 81.089844 C 193.269531 82.007812 192.527344 82.738281 191.621094 100.09375 C 190.703125 82.738281 189.972656 81.996094 172.617188 81.089844 C 189.972656 80.171875 190.714844 79.441406 191.621094 62.082031 C 192.539062 79.441406 193.269531 80.183594 210.625 81.089844 Z M 210.625 81.089844 " fill-opacity="1" fill-rule="nonzero"/><path fill="#c62328" d="M 157.835938 312.785156 C 140.480469 313.703125 139.738281 314.433594 138.832031 331.789062 C 137.914062 314.433594 137.183594 313.691406 119.828125 312.785156 C 137.183594 311.867188 137.925781 311.136719 138.832031 293.78125 C 139.75 311.136719 140.480469 311.878906 157.835938 312.785156 Z M 157.835938 312.785156 " fill-opacity="1" fill-rule="nonzero"/><path fill="#c62328" d="M 210.625 17.765625 C 205.300781 18.046875 205.070312 18.265625 204.785156 23.605469 C 204.503906 18.277344 204.285156 18.046875 198.945312 17.765625 C 204.273438 17.480469 204.503906 17.261719 204.785156 11.925781 C 205.070312 17.25 205.289062 17.480469 210.625 17.765625 Z M 210.625 17.765625 " fill-opacity="1" fill-rule="nonzero"/><path fill="#c62328" d="M 109.421875 165.089844 C 104.097656 165.371094 103.867188 165.589844 103.582031 170.929688 C 103.300781 165.601562 103.082031 165.371094 97.742188 165.089844 C 103.070312 164.804688 103.300781 164.585938 103.582031 159.25 C 103.867188 164.574219 104.085938 164.804688 109.421875 165.089844 Z M 109.421875 165.089844 " fill-opacity="1" fill-rule="nonzero"/><path fill="#c62328" d="M 103.582031 284.28125 C 98.257812 284.566406 98.027344 284.785156 97.742188 290.121094 C 97.460938 284.796875 97.242188 284.566406 91.902344 284.28125 C 97.230469 284 97.460938 283.78125 97.742188 278.441406 C 98.027344 283.769531 98.246094 284 103.582031 284.28125 Z M 103.582031 284.28125 " fill-opacity="1" fill-rule="nonzero"/><g clip-path="url(#d2efc60c23)"><path fill="#c62328" d="M 320.421875 258.859375 C 315.09375 259.140625 314.863281 259.359375 314.582031 264.699219 C 314.296875 259.371094 314.078125 259.140625 308.742188 258.859375 C 314.066406 258.574219 314.296875 258.355469 314.582031 253.019531 C 314.863281 258.34375 315.082031 258.574219 320.421875 258.859375 Z M 320.421875 258.859375 " fill-opacity="1" fill-rule="nonzero"/></g><g clip-path="url(#de9468ae3f)"><path fill="#c62328" d="M 54.667969 58.132812 C 86.664062 30.253906 129.640625 9.261719 172.878906 18.300781 C 188.171875 21.574219 204.894531 28.460938 214.394531 41.429688 C 224.621094 55.21875 221.585938 73.558594 212.382812 87.003906 C 193.945312 114.625 158.730469 122.484375 135.554688 144.925781 C 129.707031 150.429688 124.609375 156.78125 120.984375 163.976562 C 114.269531 177.042969 114.238281 190.742188 128.59375 198.261719 C 154.8125 211.199219 195.59375 199.714844 223.910156 196.984375 C 245.109375 194.640625 268.066406 194.988281 287.039062 205.949219 C 296.328125 211.460938 304.089844 220.378906 306.449219 231.097656 C 309.132812 241.851562 304.59375 253.726562 295.445312 259.972656 C 289.375 264.4375 281.941406 266.542969 274.585938 267.582031 C 239.171875 272.308594 203.0625 265.332031 167.976562 272.6875 C 141.636719 278.105469 89.25 296.34375 117.25 330.414062 C 130.164062 346.308594 156.011719 350.925781 175.136719 355.71875 C 206.652344 362.683594 239.074219 365.183594 271.320312 364.394531 C 282.019531 364.253906 293.078125 363.261719 303.554688 362.648438 C 292.835938 363.675781 282.09375 364.363281 271.332031 364.703125 C 239.050781 365.714844 206.578125 363.273438 174.996094 356.40625 C 155.652344 351.636719 129.683594 347.039062 116.5625 330.992188 C 87.929688 296.136719 140.546875 277.132812 167.757812 271.664062 C 199.535156 264.9375 232.359375 270.222656 264.445312 267.625 C 274.921875 266.828125 286.1875 265.636719 294.886719 259.207031 C 308.992188 249.261719 309.296875 230.933594 299.234375 217.902344 C 292.519531 209.046875 282.433594 203.492188 271.867188 200.480469 C 229.535156 188.1875 186.46875 210.152344 143.6875 203.808594 C 104.097656 197.226562 112.183594 166.3125 135.128906 144.480469 C 159.996094 120.386719 199.917969 112.648438 215.941406 79.769531 C 223.058594 65.28125 221.914062 48.789062 210.199219 37.0625 C 200.203125 27.085938 186.457031 21.574219 172.8125 18.625 C 151.710938 14.238281 129.496094 16.945312 109.457031 24.574219 C 89.25 32.054688 71.019531 44.617188 54.667969 58.144531 Z M 54.667969 58.132812 " fill-opacity="1" fill-rule="nonzero"/></g></svg>