<svg xmlns="http://www.w3.org/2000/svg" xmlns:xlink="http://www.w3.org/1999/xlink" width="500" zoomAndPan="magnify" viewBox="0 0 375 374.999991" height="500" preserveAspectRatio="xMidYMid meet" version="1.0"><defs><clipPath id="a4b2ccd719"><path d="M 84.15625 73 L 267.90625 73 L 267.90625 364.6875 L 84.15625 364.6875 Z M 84.15625 73 " clip-rule="nonzero"/></clipPath><clipPath id="a4d34e38b4"><path d="M 84.15625 170 L 96 170 L 96 172 L 84.15625 172 Z M 84.15625 170 " clip-rule="nonzero"/></clipPath><clipPath id="f627d6fba7"><path d="M 256 170 L 267.90625 170 L 267.90625 172 L 256 172 Z M 256 170 " clip-rule="nonzero"/></clipPath></defs><g clip-path="url(#a4b2ccd719)"><path fill="#885138" d="M 85.3125 363.847656 C 85.3125 360.675781 85.3125 357.503906 85.3125 354.332031 C 85.3125 346.042969 85.3125 337.753906 85.3125 329.46875 C 85.3125 317.949219 85.3125 306.429688 85.3125 294.914062 C 85.3125 281.914062 85.3125 268.917969 85.3125 255.921875 C 85.3125 243.367188 85.3125 230.8125 85.3125 218.257812 C 85.3125 207.886719 85.3125 197.519531 85.3125 187.148438 C 85.3125 180.851562 85.3125 174.558594 85.3125 168.265625 C 85.3125 159.289062 86.039062 150.425781 88.355469 141.710938 C 92.882812 124.703125 102.433594 109.214844 115.503906 97.460938 C 128.621094 85.664062 145.105469 77.84375 162.542969 75.21875 C 180.59375 72.5 199.347656 75.347656 215.746094 83.375 C 231.441406 91.0625 244.777344 103.289062 253.804688 118.269531 C 262.316406 132.398438 266.769531 148.679688 266.796875 165.164062 C 266.804688 168.839844 266.796875 172.511719 266.796875 176.1875 C 266.796875 184.785156 266.796875 193.382812 266.796875 201.980469 C 266.796875 213.730469 266.796875 225.480469 266.796875 237.226562 C 266.796875 250.265625 266.796875 263.296875 266.796875 276.332031 C 266.796875 288.8125 266.796875 301.292969 266.796875 313.773438 C 266.796875 323.824219 266.796875 333.878906 266.796875 343.933594 C 266.796875 349.785156 266.796875 355.640625 266.796875 361.496094 C 266.796875 362.28125 266.796875 363.066406 266.796875 363.847656 C 266.960938 363.683594 267.128906 363.515625 267.296875 363.347656 C 261.214844 363.347656 255.132812 363.347656 249.054688 363.347656 C 234.554688 363.347656 220.054688 363.347656 205.554688 363.347656 C 187.929688 363.347656 170.308594 363.347656 152.683594 363.347656 C 137.535156 363.347656 122.390625 363.347656 107.246094 363.347656 C 102.253906 363.347656 97.257812 363.347656 92.265625 363.347656 C 89.902344 363.347656 87.492188 363.210938 85.132812 363.347656 C 85.027344 363.355469 84.917969 363.347656 84.8125 363.347656 C 84.171875 363.347656 84.171875 364.347656 84.8125 364.347656 C 90.894531 364.347656 96.976562 364.347656 103.054688 364.347656 C 117.554688 364.347656 132.054688 364.347656 146.554688 364.347656 C 164.179688 364.347656 181.804688 364.347656 199.429688 364.347656 C 214.574219 364.347656 229.71875 364.347656 244.863281 364.347656 C 249.859375 364.347656 254.851562 364.347656 259.84375 364.347656 C 262.207031 364.347656 264.617188 364.488281 266.976562 364.347656 C 267.082031 364.34375 267.1875 364.347656 267.296875 364.347656 C 267.566406 364.347656 267.792969 364.121094 267.792969 363.847656 C 267.792969 360.632812 267.792969 357.414062 267.792969 354.199219 C 267.792969 345.804688 267.792969 337.410156 267.792969 329.015625 C 267.792969 317.324219 267.792969 305.632812 267.792969 293.941406 C 267.792969 280.832031 267.792969 267.726562 267.792969 254.621094 C 267.792969 241.980469 267.792969 229.339844 267.792969 216.703125 C 267.792969 206.410156 267.792969 196.121094 267.792969 185.828125 C 267.792969 179.769531 267.792969 173.710938 267.792969 167.652344 C 267.792969 157.804688 266.765625 148.09375 263.917969 138.625 C 258.917969 122.011719 249.128906 106.96875 236.027344 95.621094 C 222.796875 84.160156 206.371094 76.597656 189.042969 74.136719 C 171.339844 71.625 153.066406 74.347656 136.898438 82.011719 C 121.300781 89.40625 107.929688 101.257812 98.652344 115.816406 C 89.296875 130.496094 84.347656 147.6875 84.316406 165.089844 C 84.308594 168.441406 84.316406 171.789062 84.316406 175.140625 C 84.316406 183.628906 84.316406 192.113281 84.316406 200.601562 C 84.316406 212.34375 84.316406 224.089844 84.316406 235.832031 C 84.316406 248.949219 84.316406 262.0625 84.316406 275.179688 C 84.316406 287.789062 84.316406 300.394531 84.316406 313.003906 C 84.316406 323.222656 84.316406 333.4375 84.316406 343.65625 C 84.316406 349.605469 84.316406 355.550781 84.316406 361.496094 C 84.316406 362.28125 84.316406 363.066406 84.316406 363.847656 C 84.316406 364.492188 85.3125 364.492188 85.3125 363.847656 " fill-opacity="1" fill-rule="nonzero"/></g><path fill="#885138" d="M 90.558594 171.46875 C 90.558594 168.855469 90.523438 166.238281 90.570312 163.628906 C 90.652344 158.664062 91.160156 153.707031 92.101562 148.832031 C 93.914062 139.4375 97.316406 130.371094 102.132812 122.101562 C 106.859375 113.980469 112.921875 106.65625 120.003906 100.484375 C 127.132812 94.265625 135.304688 89.226562 144.070312 85.679688 C 153.085938 82.03125 162.710938 79.949219 172.425781 79.542969 C 182.257812 79.132812 192.140625 80.410156 201.535156 83.351562 C 210.578125 86.179688 219.121094 90.542969 226.742188 96.171875 C 234.3125 101.761719 240.960938 108.617188 246.324219 116.355469 C 251.734375 124.164062 255.839844 132.859375 258.398438 142.015625 C 259.71875 146.726562 260.632812 151.554688 261.121094 156.425781 C 261.503906 160.257812 261.550781 164.089844 261.550781 167.933594 C 261.550781 169.113281 261.550781 170.289062 261.550781 171.46875 C 261.550781 172.113281 262.550781 172.113281 262.550781 171.46875 C 262.550781 168.773438 262.585938 166.078125 262.535156 163.382812 C 262.4375 158.375 261.90625 153.371094 260.949219 148.453125 C 259.097656 138.945312 255.617188 129.757812 250.722656 121.402344 C 245.933594 113.222656 239.796875 105.835938 232.640625 99.628906 C 225.441406 93.382812 217.238281 88.34375 208.410156 84.757812 C 199.320312 81.066406 189.605469 78.972656 179.804688 78.550781 C 169.851562 78.121094 159.820312 79.410156 150.308594 82.386719 C 141.1875 85.242188 132.554688 89.628906 124.867188 95.308594 C 117.242188 100.941406 110.550781 107.800781 105.121094 115.574219 C 99.609375 123.457031 95.429688 132.265625 92.8125 141.527344 C 91.476562 146.242188 90.554688 151.074219 90.039062 155.949219 C 89.625 159.882812 89.558594 163.816406 89.558594 167.765625 C 89.558594 169 89.558594 170.234375 89.558594 171.46875 C 89.558594 172.113281 90.558594 172.113281 90.558594 171.46875 " fill-opacity="1" fill-rule="nonzero"/><path fill="#885138" d="M 257.074219 353.117188 C 251.664062 353.117188 246.25 353.117188 240.839844 353.117188 C 227.941406 353.117188 215.042969 353.117188 202.148438 353.117188 C 186.566406 353.117188 170.980469 353.117188 155.398438 353.117188 C 141.929688 353.117188 128.460938 353.117188 114.988281 353.117188 C 110.546875 353.117188 106.105469 353.117188 101.664062 353.117188 C 100.277344 353.117188 98.890625 353.117188 97.503906 353.117188 C 96.851562 353.117188 95.957031 352.953125 95.316406 353.117188 C 95.234375 353.136719 95.121094 353.117188 95.035156 353.117188 C 95.199219 353.28125 95.367188 353.449219 95.53125 353.613281 C 95.53125 350.699219 95.53125 347.785156 95.53125 344.871094 C 95.53125 337.230469 95.53125 329.59375 95.53125 321.953125 C 95.53125 311.296875 95.53125 300.640625 95.53125 289.984375 C 95.53125 277.886719 95.53125 265.789062 95.53125 253.691406 C 95.53125 241.851562 95.53125 230.007812 95.53125 218.167969 C 95.53125 208.273438 95.53125 198.378906 95.53125 188.484375 C 95.53125 182.125 95.53125 175.761719 95.53125 169.398438 C 95.53125 162.640625 95.753906 155.941406 97.082031 149.269531 C 100.277344 133.195312 108.457031 118.3125 120.25 106.957031 C 132.125 95.519531 147.417969 87.914062 163.699219 85.390625 C 180.371094 82.808594 197.742188 85.574219 212.753906 93.289062 C 227.175781 100.707031 239.199219 112.484375 246.917969 126.761719 C 253.347656 138.65625 256.570312 151.992188 256.574219 165.496094 C 256.578125 169.53125 256.574219 173.574219 256.574219 177.613281 C 256.574219 185.988281 256.574219 194.367188 256.574219 202.746094 C 256.574219 213.910156 256.574219 225.074219 256.574219 236.242188 C 256.574219 248.378906 256.574219 260.515625 256.574219 272.652344 C 256.574219 284.234375 256.574219 295.8125 256.574219 307.390625 C 256.574219 316.707031 256.574219 326.019531 256.574219 335.335938 C 256.574219 340.710938 256.574219 346.09375 256.574219 351.46875 C 256.574219 352.183594 256.574219 352.898438 256.574219 353.613281 C 256.574219 354.257812 257.574219 354.257812 257.574219 353.613281 C 257.574219 350.636719 257.574219 347.660156 257.574219 344.683594 C 257.574219 336.96875 257.574219 329.253906 257.574219 321.539062 C 257.574219 310.675781 257.574219 299.816406 257.574219 288.957031 C 257.574219 276.796875 257.574219 264.640625 257.574219 252.480469 C 257.574219 240.554688 257.574219 228.628906 257.574219 216.699219 C 257.574219 206.867188 257.574219 197.035156 257.574219 187.203125 C 257.574219 181.027344 257.574219 174.851562 257.574219 168.679688 C 257.574219 161.210938 257.152344 153.8125 255.453125 146.5 C 251.769531 130.644531 243.238281 116.066406 231.28125 105.039062 C 219.34375 94.03125 204.1875 86.71875 188.128906 84.34375 C 171.695312 81.914062 154.691406 84.542969 139.808594 91.945312 C 125.410156 99.109375 113.269531 110.582031 105.28125 124.546875 C 98.195312 136.929688 94.546875 151.03125 94.535156 165.289062 C 94.53125 169.042969 94.535156 172.800781 94.535156 176.558594 C 94.535156 184.847656 94.535156 193.140625 94.535156 201.429688 C 94.535156 212.554688 94.535156 223.675781 94.535156 234.800781 C 94.535156 247.0625 94.535156 259.324219 94.535156 271.585938 C 94.535156 283.285156 94.535156 294.984375 94.535156 306.679688 C 94.535156 316.121094 94.535156 325.558594 94.535156 335 C 94.535156 340.476562 94.535156 345.957031 94.535156 351.4375 C 94.535156 352.164062 94.535156 352.890625 94.535156 353.613281 C 94.535156 353.882812 94.765625 354.113281 95.035156 354.113281 C 100.445312 354.113281 105.859375 354.113281 111.273438 354.113281 C 124.167969 354.113281 137.066406 354.113281 149.960938 354.113281 C 165.546875 354.113281 181.125 354.113281 196.710938 354.113281 C 210.179688 354.113281 223.648438 354.113281 237.121094 354.113281 C 241.5625 354.113281 246.003906 354.113281 250.445312 354.113281 C 252.546875 354.113281 254.695312 354.246094 256.792969 354.113281 C 256.882812 354.109375 256.980469 354.113281 257.074219 354.113281 C 257.714844 354.113281 257.71875 353.117188 257.074219 353.117188 " fill-opacity="1" fill-rule="nonzero"/><g clip-path="url(#a4d34e38b4)"><path fill="#885138" d="M 84.8125 171.96875 C 85.964844 171.96875 87.117188 171.96875 88.269531 171.96875 C 90.101562 171.96875 91.9375 171.96875 93.773438 171.96875 C 94.191406 171.96875 94.613281 171.96875 95.035156 171.96875 C 95.675781 171.96875 95.675781 170.96875 95.035156 170.96875 C 93.882812 170.96875 92.730469 170.96875 91.578125 170.96875 C 89.746094 170.96875 87.910156 170.96875 86.074219 170.96875 C 85.65625 170.96875 85.234375 170.96875 84.8125 170.96875 C 84.171875 170.96875 84.171875 171.96875 84.8125 171.96875 " fill-opacity="1" fill-rule="nonzero"/></g><g clip-path="url(#f627d6fba7)"><path fill="#885138" d="M 257.074219 171.96875 C 258.226562 171.96875 259.378906 171.96875 260.53125 171.96875 C 262.363281 171.96875 264.199219 171.96875 266.035156 171.96875 C 266.457031 171.96875 266.875 171.96875 267.296875 171.96875 C 267.9375 171.96875 267.9375 170.96875 267.296875 170.96875 C 266.144531 170.96875 264.992188 170.96875 263.839844 170.96875 C 262.003906 170.96875 260.171875 170.96875 258.335938 170.96875 C 257.914062 170.96875 257.496094 170.96875 257.074219 170.96875 C 256.433594 170.96875 256.429688 171.96875 257.074219 171.96875 " fill-opacity="1" fill-rule="nonzero"/></g><path fill="#885138" d="M 175.554688 73.714844 C 175.554688 74.871094 175.554688 76.023438 175.554688 77.175781 C 175.554688 79.015625 175.554688 80.851562 175.554688 82.6875 C 175.554688 83.109375 175.554688 83.53125 175.554688 83.953125 C 175.554688 84.59375 176.554688 84.59375 176.554688 83.953125 C 176.554688 82.796875 176.554688 81.644531 176.554688 80.492188 C 176.554688 78.652344 176.554688 76.816406 176.554688 74.976562 C 176.554688 74.558594 176.554688 74.136719 176.554688 73.714844 C 176.554688 73.074219 175.554688 73.070312 175.554688 73.714844 " fill-opacity="1" fill-rule="nonzero"/><path fill="#885138" d="M 155.117188 201.554688 C 155.554688 202.339844 155.3125 203.316406 154.996094 204.160156 C 154.667969 205.039062 154.179688 205.890625 153.613281 206.640625 C 152.324219 208.339844 150.5 209.535156 148.589844 210.425781 C 146.585938 211.363281 144.398438 211.960938 142.203125 212.210938 C 140.0625 212.457031 137.808594 212.339844 135.851562 211.359375 C 134.113281 210.488281 132.726562 208.933594 132.3125 207.007812 C 132.214844 206.558594 132.183594 206.101562 132.214844 205.625 C 132.21875 205.5625 132.226562 205.5 132.234375 205.4375 C 132.25 205.230469 132.222656 205.484375 132.238281 205.386719 C 132.25 205.300781 132.265625 205.21875 132.28125 205.136719 C 132.320312 204.957031 132.371094 204.777344 132.429688 204.605469 C 132.457031 204.515625 132.488281 204.429688 132.527344 204.347656 C 132.488281 204.4375 132.574219 204.242188 132.585938 204.21875 C 132.664062 204.054688 132.753906 203.894531 132.851562 203.738281 C 132.941406 203.59375 133.039062 203.457031 133.140625 203.320312 C 133.078125 203.402344 133.171875 203.28125 133.175781 203.277344 C 133.207031 203.242188 133.238281 203.207031 133.269531 203.167969 C 133.328125 203.097656 133.390625 203.027344 133.453125 202.957031 C 133.992188 202.378906 134.5 201.992188 135.148438 201.578125 C 135.828125 201.148438 136.546875 200.78125 137.28125 200.457031 C 137.605469 200.3125 137.949219 200.171875 138.335938 200.027344 C 138.691406 199.890625 139.054688 199.761719 139.417969 199.640625 C 140.070312 199.421875 140.734375 199.222656 141.394531 199.035156 C 143.496094 198.433594 145.6875 198.253906 147.859375 198.476562 C 150.039062 198.699219 152.289062 199.335938 154.117188 200.578125 C 154.503906 200.839844 154.875 201.148438 155.117188 201.554688 C 155.445312 202.105469 156.308594 201.601562 155.976562 201.046875 C 155.371094 200.035156 154.210938 199.382812 153.171875 198.894531 C 152.097656 198.386719 150.957031 198.019531 149.792969 197.773438 C 147.441406 197.28125 145 197.261719 142.640625 197.707031 C 141.007812 198.019531 139.378906 198.550781 137.832031 199.15625 C 136.242188 199.773438 134.675781 200.535156 133.375 201.652344 C 132.117188 202.734375 131.242188 204.191406 131.207031 205.882812 C 131.160156 208.066406 132.375 210.128906 134.078125 211.429688 C 135.894531 212.820312 138.257812 213.347656 140.511719 213.320312 C 142.917969 213.292969 145.371094 212.769531 147.617188 211.914062 C 149.792969 211.085938 151.917969 209.925781 153.546875 208.234375 C 154.304688 207.453125 154.9375 206.558594 155.4375 205.59375 C 155.921875 204.660156 156.332031 203.625 156.347656 202.5625 C 156.351562 202.035156 156.238281 201.511719 155.976562 201.046875 C 155.664062 200.488281 154.800781 200.992188 155.117188 201.554688 " fill-opacity="1" fill-rule="nonzero"/><path fill="#885138" d="M 155.429688 202.867188 C 156.578125 204.402344 158.09375 205.613281 159.828125 206.421875 C 161.609375 207.253906 163.550781 207.679688 165.515625 207.753906 C 167.515625 207.832031 169.546875 207.542969 171.449219 206.921875 C 173.421875 206.273438 175.261719 205.273438 176.851562 203.941406 C 178.464844 202.589844 179.785156 200.871094 180.65625 198.953125 C 180.78125 198.6875 180.894531 198.414062 181.003906 198.140625 C 181.101562 197.886719 180.894531 197.589844 180.652344 197.523438 C 180.371094 197.445312 180.140625 197.621094 180.039062 197.875 C 180.015625 197.9375 179.992188 198 179.964844 198.0625 C 179.953125 198.09375 179.941406 198.125 179.925781 198.15625 C 179.933594 198.132812 179.957031 198.082031 179.917969 198.175781 C 179.867188 198.300781 179.808594 198.421875 179.753906 198.542969 C 179.644531 198.78125 179.523438 199.019531 179.398438 199.253906 C 179.160156 199.703125 178.890625 200.140625 178.601562 200.5625 C 178.535156 200.660156 178.464844 200.757812 178.390625 200.855469 C 178.355469 200.90625 178.316406 200.957031 178.277344 201.011719 C 178.261719 201.03125 178.160156 201.164062 178.210938 201.101562 C 178.054688 201.296875 177.894531 201.496094 177.726562 201.6875 C 177.402344 202.0625 177.054688 202.417969 176.691406 202.753906 C 176.507812 202.925781 176.320312 203.089844 176.128906 203.25 C 176.039062 203.324219 175.949219 203.398438 175.855469 203.472656 C 175.832031 203.488281 175.710938 203.585938 175.773438 203.539062 C 175.722656 203.574219 175.675781 203.613281 175.625 203.652344 C 175.226562 203.949219 174.8125 204.226562 174.390625 204.484375 C 173.972656 204.738281 173.542969 204.96875 173.105469 205.183594 C 172.890625 205.289062 172.671875 205.386719 172.449219 205.480469 C 172.421875 205.496094 172.394531 205.507812 172.367188 205.519531 C 172.445312 205.484375 172.371094 205.515625 172.355469 205.523438 C 172.300781 205.546875 172.242188 205.570312 172.1875 205.59375 C 172.070312 205.636719 171.957031 205.683594 171.839844 205.726562 C 170.933594 206.066406 170 206.328125 169.046875 206.503906 C 168.808594 206.546875 168.566406 206.589844 168.324219 206.621094 C 168.292969 206.625 168.261719 206.628906 168.230469 206.632812 C 168.253906 206.632812 168.328125 206.621094 168.230469 206.632812 C 168.175781 206.640625 168.125 206.648438 168.070312 206.65625 C 167.941406 206.671875 167.8125 206.683594 167.6875 206.695312 C 167.210938 206.742188 166.734375 206.765625 166.257812 206.769531 C 165.785156 206.773438 165.3125 206.753906 164.84375 206.714844 C 164.605469 206.695312 164.371094 206.671875 164.136719 206.640625 C 164.046875 206.628906 164.183594 206.648438 164.070312 206.632812 C 164.011719 206.625 163.953125 206.617188 163.894531 206.605469 C 163.777344 206.589844 163.660156 206.570312 163.542969 206.546875 C 162.636719 206.386719 161.742188 206.136719 160.882812 205.796875 C 160.835938 205.777344 160.789062 205.761719 160.742188 205.742188 C 160.714844 205.730469 160.691406 205.71875 160.664062 205.707031 C 160.589844 205.679688 160.734375 205.738281 160.664062 205.707031 C 160.550781 205.660156 160.441406 205.609375 160.332031 205.558594 C 160.128906 205.46875 159.933594 205.367188 159.738281 205.261719 C 159.34375 205.054688 158.960938 204.820312 158.59375 204.566406 C 158.5 204.503906 158.40625 204.4375 158.316406 204.371094 C 158.277344 204.339844 158.234375 204.3125 158.195312 204.28125 C 158.183594 204.273438 158.113281 204.21875 158.164062 204.253906 C 158.214844 204.296875 158.113281 204.214844 158.113281 204.214844 C 157.9375 204.078125 157.761719 203.929688 157.59375 203.777344 C 157.261719 203.476562 156.949219 203.15625 156.65625 202.816406 C 156.585938 202.734375 156.519531 202.652344 156.449219 202.570312 C 156.414062 202.523438 156.378906 202.480469 156.34375 202.433594 C 156.40625 202.511719 156.304688 202.386719 156.292969 202.363281 C 156.128906 202.148438 155.859375 202.035156 155.609375 202.183594 C 155.398438 202.308594 155.265625 202.648438 155.429688 202.867188 " fill-opacity="1" fill-rule="nonzero"/><path fill="#885138" d="M 146.070312 177.011719 C 145.246094 178.503906 145.652344 180.269531 146.4375 181.691406 C 147.214844 183.089844 148.433594 184.183594 149.292969 185.53125 C 149.738281 186.234375 150.042969 186.980469 150.195312 187.800781 C 150.351562 188.660156 150.34375 189.542969 150.339844 190.410156 C 150.339844 191.339844 150.347656 192.265625 150.492188 193.183594 C 150.640625 194.097656 150.976562 194.96875 151.363281 195.808594 C 152.230469 197.695312 153.464844 199.390625 154.71875 201.035156 C 154.882812 201.25 155.148438 201.363281 155.402344 201.214844 C 155.613281 201.089844 155.746094 200.746094 155.582031 200.53125 C 154.476562 199.085938 153.398438 197.609375 152.558594 195.992188 C 152.167969 195.230469 151.8125 194.4375 151.597656 193.605469 C 151.378906 192.761719 151.34375 191.890625 151.339844 191.023438 C 151.328125 189.25 151.378906 187.464844 150.59375 185.820312 C 149.917969 184.398438 148.761719 183.296875 147.847656 182.035156 C 146.9375 180.789062 146.121094 178.988281 146.933594 177.519531 C 147.242188 176.953125 146.382812 176.449219 146.070312 177.011719 " fill-opacity="1" fill-rule="nonzero"/><path fill="#885138" d="M 177.308594 183.160156 C 179.125 184.5625 180.355469 186.671875 180.789062 188.917969 C 180.914062 189.550781 180.960938 190.191406 180.949219 190.847656 C 180.9375 191.492188 181.933594 191.488281 181.945312 190.847656 C 182 188.28125 181.058594 185.757812 179.410156 183.804688 C 178.933594 183.242188 178.394531 182.746094 177.8125 182.296875 C 177.597656 182.132812 177.25 182.265625 177.128906 182.476562 C 176.976562 182.734375 177.09375 182.996094 177.308594 183.160156 " fill-opacity="1" fill-rule="nonzero"/><path fill="#885138" d="M 156.984375 195.042969 C 156.929688 195.324219 156.921875 195.617188 157.027344 195.886719 C 157.136719 196.164062 157.3125 196.378906 157.558594 196.546875 C 158.019531 196.867188 158.644531 196.851562 159.140625 196.625 C 159.625 196.402344 160.023438 195.914062 160.105469 195.382812 C 160.148438 195.070312 160.113281 194.773438 159.972656 194.492188 C 159.851562 194.257812 159.65625 194.066406 159.4375 193.925781 C 159.207031 193.777344 158.929688 193.695312 158.65625 193.683594 C 158.328125 193.671875 158.042969 193.796875 157.789062 193.992188 C 157.695312 194.066406 157.640625 194.234375 157.640625 194.347656 C 157.640625 194.472656 157.695312 194.617188 157.789062 194.699219 C 157.882812 194.789062 158.007812 194.855469 158.140625 194.847656 C 158.28125 194.839844 158.382812 194.785156 158.492188 194.699219 C 158.363281 194.804688 158.472656 194.722656 158.507812 194.703125 C 158.550781 194.679688 158.582031 194.691406 158.464844 194.71875 C 158.480469 194.714844 158.496094 194.707031 158.511719 194.703125 C 158.542969 194.691406 158.574219 194.6875 158.605469 194.679688 C 158.679688 194.660156 158.550781 194.6875 158.546875 194.6875 C 158.566406 194.691406 158.597656 194.683594 158.617188 194.683594 C 158.640625 194.683594 158.773438 194.699219 158.675781 194.683594 C 158.574219 194.667969 158.707031 194.691406 158.730469 194.699219 C 158.761719 194.707031 158.792969 194.71875 158.828125 194.726562 C 158.898438 194.75 158.78125 194.707031 158.777344 194.703125 C 158.800781 194.71875 158.824219 194.726562 158.847656 194.738281 C 158.878906 194.753906 158.914062 194.773438 158.945312 194.792969 C 158.960938 194.804688 158.976562 194.824219 158.996094 194.832031 C 158.992188 194.828125 158.902344 194.75 158.957031 194.800781 C 158.980469 194.824219 159.003906 194.847656 159.027344 194.871094 C 159.039062 194.882812 159.050781 194.894531 159.0625 194.910156 C 159.125 194.976562 159 194.8125 159.046875 194.886719 C 159.066406 194.917969 159.085938 194.949219 159.101562 194.984375 C 159.128906 195.023438 159.121094 195.066406 159.089844 194.945312 C 159.09375 194.960938 159.101562 194.976562 159.109375 194.992188 C 159.117188 195.023438 159.125 195.054688 159.132812 195.089844 C 159.152344 195.160156 159.125 195.050781 159.128906 195.042969 C 159.121094 195.0625 159.128906 195.105469 159.132812 195.128906 C 159.132812 195.15625 159.128906 195.179688 159.128906 195.207031 C 159.128906 195.269531 159.148438 195.09375 159.136719 195.160156 C 159.128906 195.203125 159.117188 195.246094 159.105469 195.289062 C 159.101562 195.308594 159.09375 195.324219 159.085938 195.34375 C 159.0625 195.421875 159.097656 195.316406 159.101562 195.308594 C 159.074219 195.347656 159.058594 195.398438 159.03125 195.4375 C 159.019531 195.460938 159.003906 195.480469 158.992188 195.5 C 158.957031 195.554688 159.058594 195.425781 159.015625 195.472656 C 158.984375 195.507812 158.957031 195.539062 158.925781 195.574219 C 158.90625 195.589844 158.835938 195.632812 158.832031 195.652344 C 158.839844 195.625 158.917969 195.59375 158.863281 195.632812 C 158.835938 195.648438 158.8125 195.667969 158.785156 195.683594 C 158.746094 195.707031 158.707031 195.726562 158.667969 195.746094 C 158.605469 195.78125 158.785156 195.707031 158.6875 195.738281 C 158.667969 195.746094 158.648438 195.753906 158.628906 195.757812 C 158.59375 195.769531 158.554688 195.78125 158.515625 195.789062 C 158.5 195.792969 158.46875 195.792969 158.453125 195.800781 C 158.535156 195.789062 158.550781 195.789062 158.496094 195.792969 C 158.488281 195.792969 158.476562 195.792969 158.46875 195.792969 C 158.425781 195.796875 158.382812 195.796875 158.339844 195.792969 C 158.316406 195.792969 158.292969 195.785156 158.269531 195.789062 C 158.277344 195.789062 158.402344 195.8125 158.324219 195.792969 C 158.289062 195.785156 158.253906 195.777344 158.21875 195.765625 C 158.203125 195.761719 158.183594 195.753906 158.167969 195.75 C 158.078125 195.722656 158.269531 195.800781 158.191406 195.761719 C 158.152344 195.742188 158.117188 195.722656 158.082031 195.699219 C 158.066406 195.691406 157.996094 195.636719 158.070312 195.695312 C 158.140625 195.746094 158.078125 195.699219 158.0625 195.683594 C 158.03125 195.65625 158.007812 195.621094 157.980469 195.59375 C 158.066406 195.675781 158.03125 195.664062 158.003906 195.625 C 157.996094 195.605469 157.984375 195.589844 157.972656 195.570312 C 157.964844 195.554688 157.929688 195.476562 157.964844 195.5625 C 158 195.648438 157.964844 195.558594 157.960938 195.539062 C 157.953125 195.511719 157.921875 195.363281 157.9375 195.460938 C 157.953125 195.542969 157.941406 195.480469 157.941406 195.457031 C 157.941406 195.429688 157.9375 195.402344 157.941406 195.375 C 157.941406 195.351562 157.945312 195.332031 157.945312 195.3125 C 157.949219 195.277344 157.945312 195.292969 157.9375 195.371094 C 157.9375 195.351562 157.941406 195.332031 157.949219 195.3125 C 158 195.054688 157.875 194.757812 157.597656 194.695312 C 157.351562 194.636719 157.042969 194.769531 156.984375 195.042969 " fill-opacity="1" fill-rule="nonzero"/><path fill="#885138" d="M 176.785156 244.089844 C 176.296875 244.28125 175.957031 244.648438 175.792969 245.148438 C 175.636719 245.621094 175.6875 246.160156 175.921875 246.59375 C 176.449219 247.570312 177.714844 247.867188 178.71875 247.585938 C 179.367188 247.40625 179.925781 247.027344 180.429688 246.59375 C 180.632812 246.414062 180.613281 246.066406 180.429688 245.886719 C 180.226562 245.683594 179.929688 245.710938 179.726562 245.886719 C 179.347656 246.210938 178.90625 246.5 178.425781 246.628906 C 177.996094 246.746094 177.558594 246.703125 177.214844 246.511719 C 177.164062 246.480469 177.113281 246.449219 177.066406 246.414062 C 177.125 246.457031 177.007812 246.367188 177.003906 246.367188 C 176.898438 246.269531 176.875 246.238281 176.820312 246.15625 C 176.796875 246.113281 176.773438 246.074219 176.753906 246.027344 C 176.796875 246.121094 176.734375 245.957031 176.726562 245.933594 C 176.714844 245.890625 176.703125 245.847656 176.699219 245.800781 C 176.714844 245.914062 176.703125 245.753906 176.703125 245.730469 C 176.703125 245.675781 176.703125 245.625 176.710938 245.570312 C 176.695312 245.679688 176.71875 245.535156 176.722656 245.523438 C 176.738281 245.464844 176.753906 245.410156 176.777344 245.351562 C 176.746094 245.433594 176.785156 245.335938 176.800781 245.308594 C 176.824219 245.269531 176.847656 245.234375 176.871094 245.199219 C 176.8125 245.285156 176.921875 245.148438 176.9375 245.132812 C 177.011719 245.050781 176.878906 245.160156 176.972656 245.101562 C 176.992188 245.089844 177.148438 245.015625 177.050781 245.054688 C 177.300781 244.953125 177.476562 244.71875 177.398438 244.4375 C 177.335938 244.199219 177.039062 243.988281 176.785156 244.089844 " fill-opacity="1" fill-rule="nonzero"/><path fill="#885138" d="M 189.632812 197.007812 C 190.542969 199.550781 192.5 201.628906 194.777344 203.03125 C 196.703125 204.210938 198.914062 204.828125 201.140625 205.117188 C 203.144531 205.378906 205.199219 205.320312 207.171875 204.867188 C 209.132812 204.414062 210.988281 203.546875 212.542969 202.257812 C 214.238281 200.859375 215.457031 198.980469 216.21875 196.925781 C 216.324219 196.648438 216.417969 196.363281 216.503906 196.078125 C 216.695312 195.464844 215.730469 195.199219 215.542969 195.8125 C 215.214844 196.878906 214.804688 197.839844 214.21875 198.800781 C 213.691406 199.667969 213.125 200.371094 212.371094 201.078125 C 212.019531 201.414062 211.679688 201.691406 211.339844 201.9375 C 210.957031 202.214844 210.550781 202.46875 210.136719 202.695312 C 209.933594 202.808594 209.722656 202.914062 209.515625 203.011719 C 209.40625 203.0625 209.296875 203.113281 209.1875 203.164062 C 209.167969 203.171875 209.03125 203.230469 209.109375 203.195312 C 209.046875 203.222656 208.988281 203.246094 208.929688 203.269531 C 208.492188 203.449219 208.039062 203.601562 207.585938 203.730469 C 207.125 203.859375 206.660156 203.964844 206.191406 204.046875 C 206.082031 204.066406 205.96875 204.085938 205.855469 204.105469 C 205.796875 204.113281 205.742188 204.121094 205.6875 204.128906 C 205.664062 204.132812 205.640625 204.136719 205.613281 204.140625 C 205.703125 204.128906 205.59375 204.140625 205.578125 204.144531 C 205.34375 204.171875 205.109375 204.199219 204.871094 204.21875 C 203.910156 204.296875 202.9375 204.292969 201.976562 204.210938 C 201.730469 204.1875 201.484375 204.164062 201.238281 204.132812 C 201.214844 204.128906 201.1875 204.125 201.167969 204.121094 C 201.082031 204.113281 201.234375 204.132812 201.152344 204.121094 C 201.09375 204.113281 201.039062 204.105469 200.980469 204.097656 C 200.859375 204.078125 200.738281 204.058594 200.613281 204.039062 C 200.140625 203.960938 199.667969 203.863281 199.195312 203.746094 C 198.160156 203.492188 197.152344 203.164062 196.207031 202.6875 C 193.992188 201.5625 192.019531 199.777344 190.921875 197.523438 C 190.792969 197.261719 190.691406 197.015625 190.59375 196.742188 C 190.503906 196.488281 190.253906 196.316406 189.980469 196.390625 C 189.734375 196.460938 189.539062 196.753906 189.632812 197.007812 " fill-opacity="1" fill-rule="nonzero"/><path fill="#885138" d="M 182.035156 134.640625 C 182.046875 134.742188 182.042969 134.683594 182.039062 134.664062 C 182.042969 134.699219 182.046875 134.734375 182.050781 134.769531 C 182.0625 134.84375 182.070312 134.917969 182.082031 134.992188 C 182.101562 135.148438 182.121094 135.304688 182.136719 135.460938 C 182.179688 135.800781 182.21875 136.140625 182.257812 136.480469 C 182.339844 137.171875 182.414062 137.867188 182.496094 138.558594 C 182.660156 139.929688 182.773438 141.363281 183.230469 142.675781 C 183.480469 143.390625 183.839844 144.058594 184.359375 144.617188 C 184.875 145.175781 185.519531 145.601562 186.175781 145.980469 C 187.601562 146.8125 189.082031 147.566406 190.574219 148.273438 C 192.097656 149 193.648438 149.667969 195.222656 150.273438 C 196.75 150.859375 198.3125 151.375 199.925781 151.667969 C 203.175781 152.265625 206.519531 151.820312 209.804688 151.917969 C 211.4375 151.96875 213.066406 152.140625 214.640625 152.589844 C 216.230469 153.042969 217.832031 153.472656 219.492188 153.511719 C 219.914062 153.523438 220.335938 153.503906 220.753906 153.460938 C 221.023438 153.429688 221.253906 153.25 221.253906 152.960938 C 221.253906 152.714844 221.023438 152.433594 220.753906 152.460938 C 219.132812 152.636719 217.53125 152.351562 215.972656 151.929688 C 215.195312 151.722656 214.4375 151.480469 213.648438 151.324219 C 212.828125 151.160156 211.996094 151.054688 211.164062 150.992188 C 209.554688 150.867188 207.941406 150.898438 206.328125 150.933594 C 204.714844 150.96875 203.085938 151.039062 201.476562 150.886719 C 199.882812 150.738281 198.320312 150.3125 196.808594 149.792969 C 195.289062 149.269531 193.800781 148.652344 192.335938 147.992188 C 190.832031 147.316406 189.351562 146.585938 187.902344 145.804688 C 186.648438 145.125 185.246094 144.457031 184.523438 143.15625 C 184.191406 142.554688 184.007812 141.886719 183.875 141.21875 C 183.742188 140.554688 183.664062 139.921875 183.585938 139.320312 C 183.417969 137.984375 183.28125 136.644531 183.117188 135.3125 C 183.082031 135 183.039062 134.683594 182.996094 134.371094 C 182.960938 134.105469 182.617188 133.960938 182.382812 134.023438 C 182.09375 134.101562 182 134.371094 182.035156 134.640625 " fill-opacity="1" fill-rule="nonzero"/><path fill="#885138" d="M 218.90625 159.1875 C 218.890625 160.824219 218.976562 162.457031 219.097656 164.085938 C 219.214844 165.621094 219.378906 167.175781 219.796875 168.664062 C 220.152344 169.925781 220.6875 171.285156 221.878906 171.980469 C 222.449219 172.3125 223.132812 172.394531 223.753906 172.144531 C 224.480469 171.847656 224.996094 171.210938 225.367188 170.539062 C 226.078125 169.25 226.335938 167.710938 226.535156 166.269531 C 226.753906 164.652344 226.785156 163.003906 226.597656 161.382812 C 226.429688 159.867188 226.089844 158.375 225.507812 156.960938 C 225.21875 156.25 224.878906 155.558594 224.472656 154.902344 C 224.109375 154.320312 223.710938 153.742188 223.203125 153.273438 C 222.703125 152.808594 222.101562 152.433594 221.410156 152.367188 C 220.6875 152.296875 219.992188 152.675781 219.601562 153.273438 C 219.1875 153.90625 219.164062 154.691406 219.097656 155.417969 C 219.023438 156.253906 218.96875 157.09375 218.9375 157.933594 C 218.917969 158.351562 218.910156 158.769531 218.90625 159.1875 C 218.898438 159.832031 219.894531 159.832031 219.902344 159.1875 C 219.910156 158.402344 219.9375 157.621094 219.988281 156.835938 C 220.03125 156.097656 220.074219 155.3125 220.179688 154.597656 C 220.25 154.117188 220.441406 153.613281 220.890625 153.425781 C 221.132812 153.328125 221.320312 153.335938 221.554688 153.398438 C 221.796875 153.46875 222.023438 153.597656 222.246094 153.765625 C 222.6875 154.097656 223.027344 154.535156 223.328125 154.976562 C 223.71875 155.546875 224.058594 156.152344 224.351562 156.78125 C 224.929688 158.027344 225.296875 159.371094 225.511719 160.722656 C 225.738281 162.148438 225.777344 163.613281 225.667969 165.050781 C 225.613281 165.769531 225.503906 166.480469 225.375 167.1875 C 225.253906 167.839844 225.121094 168.484375 224.910156 169.113281 C 224.710938 169.695312 224.429688 170.289062 224.011719 170.75 C 223.828125 170.953125 223.601562 171.148438 223.347656 171.234375 C 223.109375 171.3125 222.9375 171.316406 222.734375 171.261719 C 222.3125 171.152344 221.898438 170.789062 221.628906 170.417969 C 221.28125 169.945312 221.085938 169.4375 220.90625 168.882812 C 220.476562 167.558594 220.277344 166.167969 220.152344 164.785156 C 220.019531 163.308594 219.929688 161.824219 219.90625 160.34375 C 219.898438 159.960938 219.898438 159.574219 219.902344 159.1875 C 219.90625 158.546875 218.910156 158.546875 218.90625 159.1875 " fill-opacity="1" fill-rule="nonzero"/><path fill="#885138" d="M 221.027344 170.984375 C 219.78125 177.824219 219.492188 184.777344 218.859375 191.6875 C 218.542969 195.160156 218.039062 198.601562 217.539062 202.050781 C 217.054688 205.398438 216.886719 208.757812 216.589844 212.125 C 216.441406 213.8125 216.179688 215.460938 215.761719 217.105469 C 215.363281 218.675781 214.890625 220.230469 214.558594 221.820312 C 213.878906 225.09375 213.996094 228.429688 214.429688 231.726562 C 214.871094 235.0625 215.597656 238.351562 216.042969 241.683594 C 216.394531 244.328125 216.550781 247 216.695312 249.664062 C 216.992188 255.285156 217.097656 260.921875 217.195312 266.554688 C 217.207031 267.144531 217.21875 267.734375 217.226562 268.328125 C 217.238281 268.96875 218.234375 268.96875 218.226562 268.328125 C 218.128906 262.828125 218.039062 257.324219 217.796875 251.828125 C 217.679688 249.175781 217.53125 246.527344 217.285156 243.882812 C 216.984375 240.699219 216.367188 237.566406 215.839844 234.414062 C 215.289062 231.132812 214.859375 227.792969 215.164062 224.464844 C 215.46875 221.132812 216.773438 218.011719 217.289062 214.71875 C 217.800781 211.433594 217.785156 208.09375 218.171875 204.792969 C 218.570312 201.398438 219.1875 198.035156 219.5625 194.636719 C 220.328125 187.703125 220.523438 180.707031 221.5625 173.804688 C 221.691406 172.949219 221.832031 172.097656 221.988281 171.25 C 222.101562 170.621094 221.140625 170.351562 221.027344 170.984375 " fill-opacity="1" fill-rule="nonzero"/><path fill="#885138" d="M 207.390625 190.140625 C 207.386719 190.871094 207.78125 191.554688 208.503906 191.769531 C 209.246094 191.984375 209.992188 191.636719 210.429688 191.035156 C 210.839844 190.464844 210.949219 189.605469 210.527344 189.011719 C 210.117188 188.421875 209.410156 188.144531 208.710938 188.324219 C 207.882812 188.542969 207.410156 189.316406 207.390625 190.140625 C 207.382812 190.402344 207.625 190.652344 207.890625 190.636719 C 208.164062 190.625 208.378906 190.417969 208.386719 190.140625 C 208.386719 190.105469 208.390625 190.074219 208.390625 190.042969 C 208.394531 190.027344 208.398438 189.945312 208.394531 190.015625 C 208.386719 190.097656 208.398438 189.980469 208.402344 189.96875 C 208.40625 189.945312 208.410156 189.921875 208.417969 189.894531 C 208.429688 189.847656 208.449219 189.800781 208.460938 189.75 C 208.492188 189.632812 208.425781 189.8125 208.460938 189.746094 C 208.476562 189.710938 208.492188 189.679688 208.511719 189.644531 C 208.523438 189.625 208.617188 189.460938 208.550781 189.574219 C 208.574219 189.53125 208.617188 189.496094 208.65625 189.460938 C 208.660156 189.457031 208.695312 189.414062 208.707031 189.410156 C 208.695312 189.421875 208.679688 189.433594 208.664062 189.445312 C 208.679688 189.433594 208.695312 189.421875 208.710938 189.414062 C 208.761719 189.378906 208.816406 189.351562 208.871094 189.320312 C 208.933594 189.285156 208.757812 189.355469 208.871094 189.320312 C 208.894531 189.316406 208.917969 189.304688 208.941406 189.300781 C 208.972656 189.289062 209.054688 189.253906 209.085938 189.265625 C 209.066406 189.269531 209.046875 189.269531 209.023438 189.273438 C 209.042969 189.273438 209.0625 189.269531 209.078125 189.269531 C 209.109375 189.265625 209.140625 189.265625 209.171875 189.265625 C 209.195312 189.265625 209.21875 189.269531 209.246094 189.269531 C 209.347656 189.273438 209.148438 189.242188 209.257812 189.273438 C 209.304688 189.285156 209.347656 189.296875 209.394531 189.308594 C 209.488281 189.335938 209.375 189.296875 209.371094 189.296875 C 209.390625 189.296875 209.429688 189.328125 209.449219 189.335938 C 209.480469 189.355469 209.546875 189.417969 209.582031 189.421875 C 209.570312 189.417969 209.496094 189.347656 209.558594 189.410156 C 209.585938 189.433594 209.613281 189.457031 209.636719 189.480469 C 209.636719 189.480469 209.683594 189.523438 209.683594 189.53125 C 209.683594 189.511719 209.632812 189.457031 209.667969 189.515625 C 209.699219 189.5625 209.726562 189.613281 209.753906 189.664062 C 209.792969 189.726562 209.761719 189.648438 209.746094 189.640625 C 209.753906 189.644531 209.769531 189.703125 209.769531 189.707031 C 209.777344 189.730469 209.78125 189.753906 209.789062 189.78125 C 209.820312 189.886719 209.792969 189.710938 209.796875 189.8125 C 209.796875 189.878906 209.792969 189.941406 209.792969 190.003906 C 209.796875 190.082031 209.820312 189.894531 209.792969 190.019531 C 209.785156 190.046875 209.78125 190.074219 209.773438 190.101562 C 209.761719 190.15625 209.742188 190.210938 209.722656 190.265625 C 209.691406 190.378906 209.761719 190.199219 209.726562 190.265625 C 209.707031 190.296875 209.695312 190.328125 209.675781 190.363281 C 209.648438 190.410156 209.617188 190.457031 209.589844 190.5 C 209.546875 190.566406 209.59375 190.480469 209.601562 190.488281 C 209.601562 190.488281 209.558594 190.535156 209.554688 190.542969 C 209.519531 190.582031 209.476562 190.621094 209.4375 190.65625 C 209.40625 190.683594 209.378906 190.738281 209.441406 190.660156 C 209.425781 190.679688 209.386719 190.695312 209.363281 190.710938 C 209.351562 190.71875 209.238281 190.796875 209.222656 190.789062 C 209.230469 190.792969 209.304688 190.757812 209.230469 190.78125 C 209.207031 190.789062 209.183594 190.796875 209.160156 190.804688 C 209.128906 190.816406 209.09375 190.820312 209.0625 190.828125 C 208.992188 190.851562 209.183594 190.824219 209.0625 190.828125 C 208.996094 190.832031 208.933594 190.832031 208.867188 190.828125 C 208.785156 190.828125 208.886719 190.828125 208.882812 190.832031 C 208.882812 190.835938 208.777344 190.808594 208.769531 190.804688 C 208.757812 190.800781 208.699219 190.789062 208.695312 190.78125 C 208.75 190.804688 208.761719 190.808594 208.726562 190.792969 C 208.710938 190.785156 208.695312 190.777344 208.675781 190.765625 C 208.65625 190.753906 208.632812 190.742188 208.613281 190.726562 C 208.515625 190.671875 208.679688 190.796875 208.601562 190.71875 C 208.582031 190.703125 208.566406 190.6875 208.550781 190.671875 C 208.535156 190.652344 208.519531 190.636719 208.503906 190.617188 C 208.515625 190.632812 208.527344 190.648438 208.539062 190.664062 C 208.542969 190.640625 208.464844 190.539062 208.449219 190.515625 C 208.394531 190.414062 208.472656 190.589844 208.453125 190.519531 C 208.445312 190.492188 208.433594 190.464844 208.425781 190.433594 C 208.417969 190.40625 208.410156 190.378906 208.402344 190.351562 C 208.398438 190.332031 208.386719 190.210938 208.390625 190.289062 C 208.394531 190.363281 208.390625 190.285156 208.390625 190.265625 C 208.386719 190.222656 208.386719 190.183594 208.386719 190.140625 C 208.386719 189.878906 208.15625 189.625 207.890625 189.640625 C 207.617188 189.652344 207.390625 189.859375 207.390625 190.140625 " fill-opacity="1" fill-rule="nonzero"/><path fill="#885138" d="M 199.253906 178.363281 C 202.433594 177.441406 205.996094 177.15625 209.039062 178.699219 C 209.804688 179.085938 210.507812 179.574219 211.125 180.171875 C 211.585938 180.621094 212.292969 179.914062 211.832031 179.464844 C 209.285156 177 205.59375 176.292969 202.175781 176.730469 C 201.097656 176.867188 200.035156 177.097656 198.988281 177.398438 C 198.371094 177.578125 198.636719 178.542969 199.253906 178.363281 " fill-opacity="1" fill-rule="nonzero"/><path fill="#885138" d="M 151.234375 187.800781 C 151.457031 186.796875 151.90625 185.867188 152.507812 185.035156 C 153.011719 184.335938 153.621094 183.722656 154.359375 183.34375 C 154.597656 183.222656 154.667969 182.882812 154.539062 182.660156 C 154.394531 182.417969 154.09375 182.355469 153.855469 182.480469 C 152.972656 182.929688 152.261719 183.6875 151.683594 184.476562 C 151.019531 185.382812 150.515625 186.433594 150.273438 187.535156 C 150.214844 187.796875 150.351562 188.074219 150.621094 188.148438 C 150.871094 188.21875 151.179688 188.066406 151.234375 187.800781 " fill-opacity="1" fill-rule="nonzero"/><path fill="#885138" d="M 160.949219 157.613281 C 161.714844 158.269531 162.574219 158.765625 163.523438 159.105469 C 164.433594 159.429688 165.386719 159.609375 166.316406 159.863281 C 168.097656 160.351562 169.808594 161.0625 171.410156 161.972656 C 172.316406 162.492188 173.195312 163.070312 174.019531 163.710938 C 174.230469 163.875 174.515625 163.917969 174.722656 163.710938 C 174.894531 163.539062 174.9375 163.171875 174.722656 163.003906 C 173.238281 161.847656 171.628906 160.863281 169.90625 160.097656 C 169.03125 159.707031 168.128906 159.363281 167.210938 159.082031 C 166.296875 158.804688 165.359375 158.617188 164.441406 158.351562 C 163.421875 158.054688 162.46875 157.601562 161.65625 156.90625 C 161.449219 156.730469 161.148438 156.707031 160.949219 156.90625 C 160.769531 157.085938 160.746094 157.4375 160.949219 157.613281 " fill-opacity="1" fill-rule="nonzero"/><path fill="#885138" d="M 177.464844 160.570312 C 179.164062 158.339844 181.1875 156.339844 183.433594 154.664062 C 183.648438 154.503906 183.757812 154.234375 183.613281 153.980469 C 183.488281 153.769531 183.148438 153.640625 182.929688 153.804688 C 180.535156 155.585938 178.410156 157.6875 176.601562 160.066406 C 176.4375 160.28125 176.570312 160.625 176.78125 160.75 C 177.039062 160.898438 177.300781 160.785156 177.464844 160.570312 " fill-opacity="1" fill-rule="nonzero"/><path fill="#885138" d="M 158.484375 136.207031 C 158.730469 136.699219 159.179688 136.878906 159.671875 137.042969 C 160.128906 137.199219 160.589844 137.339844 161.054688 137.472656 C 162.003906 137.742188 162.964844 137.960938 163.941406 138.136719 C 165.886719 138.484375 167.871094 138.652344 169.847656 138.636719 C 171.832031 138.625 173.808594 138.425781 175.757812 138.058594 C 176.734375 137.878906 177.703125 137.652344 178.65625 137.378906 C 179.625 137.105469 180.613281 136.777344 181.496094 136.300781 C 182.765625 135.613281 183.402344 134.140625 182.828125 132.78125 C 182.144531 131.160156 180.3125 130.699219 178.730469 130.503906 C 177.792969 130.386719 176.847656 130.324219 175.910156 130.269531 C 174.851562 130.210938 173.792969 130.199219 172.734375 130.238281 C 170.988281 130.300781 169.246094 130.515625 167.523438 130.816406 C 165.800781 131.117188 164.097656 131.519531 162.453125 132.132812 C 161.519531 132.480469 160.585938 132.867188 159.707031 133.34375 C 159.089844 133.675781 158.441406 134.183594 158.292969 134.910156 C 158.203125 135.367188 158.296875 135.792969 158.484375 136.207031 C 158.59375 136.457031 158.953125 136.511719 159.167969 136.386719 C 159.421875 136.238281 159.457031 135.953125 159.347656 135.703125 C 159.277344 135.554688 159.253906 135.429688 159.25 135.304688 C 159.25 135.269531 159.253906 135.234375 159.253906 135.199219 C 159.261719 135.039062 159.242188 135.242188 159.261719 135.152344 C 159.269531 135.121094 159.277344 135.089844 159.285156 135.058594 C 159.292969 135.035156 159.300781 135.011719 159.3125 134.988281 C 159.296875 135.023438 159.296875 135.027344 159.308594 134.996094 C 159.386719 134.835938 159.398438 134.824219 159.5 134.714844 C 159.636719 134.570312 159.695312 134.527344 159.824219 134.4375 C 160.480469 133.988281 161.257812 133.675781 161.992188 133.378906 C 163.546875 132.742188 165.15625 132.292969 166.804688 131.964844 C 168.394531 131.644531 170 131.414062 171.613281 131.296875 C 173.476562 131.160156 175.332031 131.222656 177.1875 131.363281 C 178.023438 131.425781 178.859375 131.480469 179.675781 131.671875 C 180.058594 131.761719 180.449219 131.875 180.800781 132.054688 C 181.109375 132.207031 181.292969 132.339844 181.515625 132.570312 C 181.570312 132.625 181.617188 132.679688 181.664062 132.738281 C 181.722656 132.808594 181.601562 132.648438 181.691406 132.773438 C 181.707031 132.800781 181.726562 132.828125 181.742188 132.851562 C 181.777344 132.90625 181.808594 132.960938 181.839844 133.015625 C 181.859375 133.050781 181.878906 133.085938 181.894531 133.121094 C 181.910156 133.152344 181.9375 133.21875 181.910156 133.148438 C 181.960938 133.277344 182 133.410156 182.027344 133.542969 C 182.03125 133.574219 182.039062 133.601562 182.042969 133.632812 C 182.023438 133.53125 182.042969 133.628906 182.042969 133.65625 C 182.050781 133.730469 182.054688 133.800781 182.050781 133.878906 C 182.050781 133.945312 182.046875 134.011719 182.039062 134.078125 C 182.050781 133.976562 182.03125 134.132812 182.019531 134.164062 C 182.003906 134.238281 181.984375 134.3125 181.960938 134.382812 C 181.953125 134.414062 181.941406 134.441406 181.929688 134.46875 C 181.882812 134.601562 181.976562 134.394531 181.90625 134.515625 C 181.84375 134.636719 181.785156 134.75 181.703125 134.859375 C 181.648438 134.933594 181.777344 134.777344 181.675781 134.890625 C 181.652344 134.917969 181.632812 134.941406 181.609375 134.964844 C 181.554688 135.027344 181.492188 135.085938 181.429688 135.144531 C 181.335938 135.226562 181.238281 135.292969 181.09375 135.378906 C 180.914062 135.484375 180.726562 135.570312 180.539062 135.65625 C 180.117188 135.847656 179.683594 136.007812 179.246094 136.152344 C 178.359375 136.449219 177.449219 136.683594 176.535156 136.882812 C 174.746094 137.277344 172.929688 137.519531 171.101562 137.605469 C 167.425781 137.777344 163.726562 137.316406 160.226562 136.175781 C 159.878906 136.0625 159.503906 136.015625 159.347656 135.703125 C 159.222656 135.464844 158.886719 135.394531 158.664062 135.523438 C 158.417969 135.667969 158.363281 135.96875 158.484375 136.207031 " fill-opacity="1" fill-rule="nonzero"/><path fill="#885138" d="M 153.027344 207.597656 C 153.140625 210.292969 153.257812 212.988281 153.371094 215.683594 C 153.429688 217.027344 153.484375 218.375 153.542969 219.722656 C 153.601562 221.0625 153.683594 222.40625 153.640625 223.746094 C 153.550781 226.273438 152.738281 228.628906 151.636719 230.886719 C 150.503906 233.203125 149.214844 235.449219 147.984375 237.71875 C 145.394531 242.488281 142.808594 247.257812 140.21875 252.027344 C 137.761719 256.554688 135.222656 261.042969 132.882812 265.625 C 130.789062 269.714844 129.070312 273.996094 128.601562 278.601562 C 128.539062 279.199219 128.503906 279.800781 128.480469 280.398438 C 128.457031 281.042969 129.457031 281.042969 129.480469 280.398438 C 129.640625 275.75 131.148438 271.386719 133.183594 267.246094 C 134.238281 265.097656 135.398438 263.003906 136.539062 260.902344 C 137.820312 258.539062 139.105469 256.175781 140.386719 253.8125 C 142.976562 249.039062 145.5625 244.269531 148.152344 239.5 C 149.414062 237.171875 150.707031 234.859375 151.929688 232.507812 C 153.050781 230.367188 154.078125 228.113281 154.453125 225.707031 C 154.863281 223.074219 154.566406 220.351562 154.453125 217.703125 C 154.339844 215.007812 154.226562 212.316406 154.109375 209.621094 C 154.082031 208.945312 154.050781 208.273438 154.023438 207.597656 C 153.996094 206.960938 153 206.953125 153.027344 207.597656 " fill-opacity="1" fill-rule="nonzero"/><path fill="#885138" d="M 182.882812 206.269531 C 182.765625 209.949219 182.503906 213.621094 182.105469 217.28125 C 181.707031 220.90625 181.167969 224.519531 180.488281 228.105469 C 180.101562 230.136719 179.671875 232.160156 179.199219 234.175781 C 179.136719 234.441406 179.28125 234.71875 179.546875 234.792969 C 179.800781 234.859375 180.097656 234.707031 180.160156 234.445312 C 181.003906 230.847656 181.710938 227.21875 182.273438 223.570312 C 182.839844 219.902344 183.265625 216.214844 183.542969 212.511719 C 183.703125 210.433594 183.8125 208.351562 183.878906 206.269531 C 183.898438 205.628906 182.902344 205.628906 182.882812 206.269531 " fill-opacity="1" fill-rule="nonzero"/><path fill="#885138" d="M 158.429688 245.746094 C 157.671875 246.851562 157.28125 248.15625 157.085938 249.464844 C 156.878906 250.84375 156.828125 252.246094 156.867188 253.636719 C 156.941406 256.421875 157.425781 259.203125 158.300781 261.847656 C 158.800781 263.355469 159.421875 264.824219 160.164062 266.226562 C 160.289062 266.464844 160.621094 266.539062 160.847656 266.40625 C 161.085938 266.265625 161.148438 265.960938 161.023438 265.722656 C 159.777344 263.355469 158.886719 260.804688 158.367188 258.179688 C 157.855469 255.566406 157.699219 252.847656 157.988281 250.199219 C 158.140625 248.808594 158.492188 247.417969 159.289062 246.25 C 159.441406 246.03125 159.332031 245.699219 159.109375 245.566406 C 158.863281 245.421875 158.582031 245.523438 158.429688 245.746094 " fill-opacity="1" fill-rule="nonzero"/><path fill="#885138" d="M 198.289062 247.523438 C 198.246094 250.640625 198.042969 253.769531 197.390625 256.820312 C 196.808594 259.558594 195.863281 262.222656 194.414062 264.625 C 193.625 265.929688 192.695312 267.140625 191.617188 268.214844 C 191.160156 268.667969 191.863281 269.375 192.320312 268.921875 C 194.332031 266.917969 195.832031 264.472656 196.902344 261.851562 C 198.070312 259.003906 198.679688 255.96875 199 252.921875 C 199.183594 251.125 199.261719 249.324219 199.285156 247.523438 C 199.296875 246.882812 198.296875 246.882812 198.289062 247.523438 " fill-opacity="1" fill-rule="nonzero"/><path fill="#885138" d="M 127.484375 278.183594 C 126.109375 279.855469 125.1875 281.878906 124.5 283.921875 C 123.804688 285.996094 123.324219 288.183594 123.234375 290.375 C 123.148438 292.460938 123.550781 295.054688 125.589844 296.136719 C 126.746094 296.746094 128.085938 296.703125 129.339844 296.5 C 130.691406 296.28125 132.023438 295.902344 133.320312 295.46875 C 135.976562 294.585938 138.519531 293.402344 141.09375 292.3125 C 142.976562 291.519531 144.886719 290.796875 146.808594 290.113281 C 151.015625 288.617188 155.296875 287.300781 159.640625 286.261719 C 161.566406 285.800781 163.507812 285.390625 165.464844 285.101562 C 165.878906 285.042969 166.214844 285 166.667969 284.945312 C 167.0625 284.902344 167.460938 284.867188 167.859375 284.839844 C 168.542969 284.789062 169.230469 284.769531 169.914062 284.800781 C 170.054688 284.808594 170.199219 284.820312 170.34375 284.832031 C 170.414062 284.839844 170.484375 284.847656 170.554688 284.855469 C 170.589844 284.859375 170.625 284.863281 170.660156 284.867188 C 170.515625 284.851562 170.632812 284.863281 170.660156 284.867188 C 170.929688 284.90625 171.199219 284.800781 171.273438 284.519531 C 171.339844 284.285156 171.195312 283.945312 170.925781 283.90625 C 169.550781 283.703125 168.148438 283.785156 166.769531 283.9375 C 164.929688 284.136719 163.101562 284.46875 161.292969 284.863281 C 157.03125 285.78125 152.828125 287.011719 148.699219 288.402344 C 146.710938 289.070312 144.742188 289.78125 142.792969 290.550781 C 140.519531 291.449219 138.300781 292.46875 136.039062 293.390625 C 134.761719 293.910156 133.464844 294.398438 132.144531 294.796875 C 130.921875 295.167969 129.636719 295.527344 128.355469 295.621094 C 127.257812 295.703125 126.125 295.535156 125.339844 294.691406 C 124.671875 293.972656 124.371094 292.9375 124.269531 291.980469 C 124.054688 289.964844 124.433594 287.871094 124.941406 285.933594 C 125.484375 283.851562 126.261719 281.789062 127.417969 279.96875 C 127.660156 279.585938 127.917969 279.21875 128.191406 278.886719 C 128.363281 278.679688 128.394531 278.386719 128.191406 278.183594 C 128.015625 278.003906 127.65625 277.972656 127.484375 278.183594 " fill-opacity="1" fill-rule="nonzero"/><path fill="#885138" d="M 124.324219 294.644531 C 123.476562 296.148438 122.984375 297.839844 122.632812 299.523438 C 122.234375 301.441406 122.019531 303.394531 121.886719 305.34375 C 121.765625 307.207031 121.726562 309.074219 121.742188 310.941406 C 121.75 311.769531 121.734375 312.613281 121.8125 313.441406 C 121.863281 313.972656 121.980469 314.5 122.328125 314.921875 C 122.707031 315.382812 123.289062 315.53125 123.859375 315.574219 C 125.058594 315.667969 126.285156 315.578125 127.476562 315.425781 C 128.722656 315.261719 129.953125 315.003906 131.164062 314.675781 C 133.554688 314.03125 135.863281 313.132812 138.167969 312.234375 C 140.578125 311.296875 142.992188 310.363281 145.394531 309.410156 C 146.574219 308.941406 147.75 308.457031 148.886719 307.894531 C 149.996094 307.347656 151.050781 306.714844 152.0625 306.007812 C 154.089844 304.597656 155.9375 302.953125 157.875 301.421875 C 159.746094 299.9375 161.664062 298.503906 163.53125 297.011719 C 164.027344 296.621094 164.515625 296.222656 165 295.824219 C 165.207031 295.652344 165.175781 295.296875 165 295.117188 C 164.792969 294.910156 164.503906 294.945312 164.292969 295.117188 C 162.453125 296.636719 160.550781 298.082031 158.667969 299.542969 C 157.71875 300.277344 156.777344 301.015625 155.84375 301.773438 C 154.90625 302.542969 153.980469 303.320312 153.023438 304.066406 C 152.117188 304.773438 151.175781 305.445312 150.195312 306.042969 C 149.148438 306.679688 148.054688 307.214844 146.933594 307.703125 C 144.664062 308.695312 142.324219 309.542969 140.015625 310.445312 C 137.726562 311.339844 135.445312 312.269531 133.109375 313.042969 C 130.851562 313.792969 128.527344 314.394531 126.144531 314.558594 C 125.542969 314.601562 124.9375 314.613281 124.332031 314.597656 C 123.914062 314.585938 123.363281 314.613281 123.070312 314.261719 C 122.851562 313.996094 122.808594 313.539062 122.789062 313.164062 C 122.769531 312.78125 122.765625 312.394531 122.757812 312.011719 C 122.722656 310.25 122.730469 308.484375 122.808594 306.726562 C 122.894531 304.828125 123.050781 302.925781 123.355469 301.070312 C 123.503906 300.179688 123.683594 299.292969 123.917969 298.417969 C 124.03125 298.003906 124.152344 297.59375 124.289062 297.1875 C 124.414062 296.820312 124.574219 296.40625 124.699219 296.121094 C 124.84375 295.789062 125.007812 295.464844 125.1875 295.148438 C 125.5 294.585938 124.640625 294.082031 124.324219 294.644531 " fill-opacity="1" fill-rule="nonzero"/><path fill="#885138" d="M 141.207031 353.394531 C 143.199219 349.167969 145.863281 345.320312 148.207031 341.292969 C 149.371094 339.289062 150.429688 337.230469 151.503906 335.179688 C 152.601562 333.078125 153.746094 331.015625 154.949219 328.972656 C 157.210938 325.128906 158.101562 320.722656 159.082031 316.425781 C 160.148438 311.746094 161.234375 307.0625 162.660156 302.476562 C 165.179688 294.382812 168.894531 286.441406 174.96875 280.398438 C 178.070312 277.316406 181.726562 274.832031 185.828125 273.296875 C 190.214844 271.65625 194.898438 270.953125 199.523438 270.363281 C 204.402344 269.742188 209.292969 269.421875 214.207031 269.21875 C 215.597656 269.164062 217.078125 269.199219 218.433594 268.828125 C 218.980469 268.679688 219.570312 268.441406 219.90625 267.964844 C 220.25 267.484375 220.183594 266.898438 219.910156 266.398438 C 219.480469 265.609375 218.617188 265.285156 217.808594 265.015625 C 217.199219 264.808594 216.9375 265.773438 217.542969 265.976562 C 218.109375 266.167969 219.128906 266.472656 219.152344 267.21875 C 219.164062 267.511719 218.640625 267.722656 218.324219 267.820312 C 217.015625 268.226562 215.554688 268.164062 214.207031 268.222656 C 209.382812 268.417969 204.574219 268.730469 199.78125 269.332031 C 195.242188 269.902344 190.648438 270.558594 186.3125 272.0625 C 182.230469 273.480469 178.542969 275.734375 175.355469 278.648438 C 169.160156 284.316406 165.183594 291.945312 162.488281 299.804688 C 160.984375 304.175781 159.855469 308.667969 158.808594 313.164062 C 157.804688 317.460938 157.085938 321.945312 155.328125 326.015625 C 154.429688 328.09375 153.15625 329.984375 152.074219 331.972656 C 150.96875 334.007812 149.925781 336.070312 148.832031 338.113281 C 146.679688 342.121094 144.113281 345.875 141.90625 349.851562 C 141.355469 350.847656 140.832031 351.859375 140.347656 352.890625 C 140.074219 353.46875 140.933594 353.976562 141.207031 353.394531 " fill-opacity="1" fill-rule="nonzero"/><path fill="#885138" d="M 124.1875 315.195312 C 123.738281 318.035156 124.257812 320.894531 125.222656 323.570312 C 125.6875 324.851562 126.222656 326.109375 126.828125 327.328125 C 127.394531 328.472656 128.007812 329.597656 128.546875 330.753906 C 129.074219 331.878906 129.515625 333.054688 129.75 334.277344 C 129.980469 335.492188 130.058594 336.742188 130.101562 337.976562 C 130.191406 340.457031 130.074219 342.945312 130.265625 345.421875 C 130.457031 347.898438 130.984375 350.367188 132.253906 352.527344 C 132.414062 352.796875 132.585938 353.0625 132.765625 353.320312 C 132.917969 353.542969 133.203125 353.644531 133.449219 353.5 C 133.667969 353.375 133.78125 353.039062 133.628906 352.816406 C 132.253906 350.839844 131.582031 348.53125 131.332031 346.15625 C 131.074219 343.714844 131.171875 341.253906 131.121094 338.800781 C 131.097656 337.554688 131.035156 336.308594 130.871094 335.074219 C 130.703125 333.800781 130.394531 332.585938 129.90625 331.390625 C 129.421875 330.203125 128.835938 329.066406 128.25 327.929688 C 127.664062 326.792969 127.117188 325.652344 126.636719 324.472656 C 125.59375 321.929688 124.847656 319.203125 125.042969 316.433594 C 125.0625 316.109375 125.097656 315.785156 125.148438 315.460938 C 125.191406 315.195312 125.082031 314.921875 124.800781 314.84375 C 124.566406 314.78125 124.230469 314.925781 124.1875 315.195312 " fill-opacity="1" fill-rule="nonzero"/><path fill="#885138" d="M 220.21875 272.589844 C 212.804688 272.828125 205.339844 273.296875 198.082031 274.925781 C 190.921875 276.535156 183.984375 279.375 178.292969 284.097656 C 177.558594 284.707031 176.8125 285.324219 176.191406 286.046875 C 175.570312 286.777344 174.980469 287.535156 174.421875 288.316406 C 173.289062 289.898438 172.296875 291.578125 171.425781 293.320312 C 169.683594 296.792969 168.40625 300.484375 167.316406 304.210938 C 166.191406 308.03125 165.351562 311.941406 164.160156 315.746094 C 162.863281 319.855469 161.167969 323.828125 159.242188 327.679688 C 157.316406 331.535156 155.171875 335.277344 152.988281 338.992188 C 152.445312 339.917969 151.902344 340.839844 151.355469 341.761719 C 150.835938 342.640625 150.183594 343.519531 149.84375 344.484375 C 149.480469 345.523438 148.722656 346.445312 148.125 347.363281 C 147.519531 348.292969 146.914062 349.222656 146.339844 350.167969 C 146.050781 350.636719 145.769531 351.113281 145.5 351.59375 C 145.238281 352.0625 144.886719 352.414062 144.566406 352.84375 C 144.183594 353.359375 145.050781 353.859375 145.429688 353.347656 C 145.597656 353.121094 145.8125 352.945312 145.988281 352.730469 C 146.140625 352.542969 146.242188 352.308594 146.359375 352.101562 C 146.644531 351.597656 146.9375 351.101562 147.238281 350.605469 C 147.832031 349.640625 148.449219 348.6875 149.066406 347.738281 C 149.644531 346.851562 150.386719 345.957031 150.738281 344.953125 C 151.074219 343.996094 151.703125 343.132812 152.214844 342.265625 C 154.382812 338.601562 156.550781 334.941406 158.554688 331.183594 C 160.558594 327.425781 162.390625 323.570312 163.890625 319.578125 C 165.316406 315.769531 166.257812 311.839844 167.3125 307.921875 C 169.304688 300.515625 171.71875 292.925781 176.726562 286.957031 C 177.921875 285.535156 179.46875 284.359375 180.972656 283.28125 C 182.453125 282.214844 184.015625 281.257812 185.632812 280.410156 C 188.824219 278.730469 192.222656 277.480469 195.703125 276.542969 C 202.808594 274.625 210.1875 273.992188 217.519531 273.6875 C 218.417969 273.648438 219.320312 273.617188 220.21875 273.589844 C 220.859375 273.570312 220.859375 272.570312 220.21875 272.589844 " fill-opacity="1" fill-rule="nonzero"/><path fill="#885138" d="M 226.613281 353.132812 C 226.292969 350.421875 225.691406 347.761719 225.273438 345.066406 C 224.855469 342.347656 224.589844 339.597656 224.347656 336.859375 C 223.863281 331.382812 223.617188 325.886719 222.886719 320.4375 C 222.195312 315.308594 221.375 310.042969 219.378906 305.238281 C 217.761719 301.339844 215.152344 297.949219 211.578125 295.660156 C 207.5 293.039062 202.507812 291.773438 197.691406 291.628906 C 192.792969 291.480469 187.890625 292.574219 183.515625 294.796875 C 179.382812 296.898438 175.746094 300.003906 173.09375 303.816406 C 171.675781 305.851562 170.582031 308.101562 169.621094 310.378906 C 168.613281 312.761719 167.777344 315.210938 167.054688 317.691406 C 165.539062 322.882812 164.484375 328.195312 163.441406 333.496094 C 162.40625 338.777344 161.394531 344.082031 159.675781 349.191406 C 159.253906 350.445312 158.792969 351.6875 158.296875 352.914062 C 158.195312 353.167969 158.40625 353.460938 158.644531 353.53125 C 158.929688 353.613281 159.15625 353.429688 159.257812 353.179688 C 161.242188 348.269531 162.523438 343.148438 163.574219 337.964844 C 164.640625 332.691406 165.589844 327.390625 166.886719 322.167969 C 168.117188 317.210938 169.625 312.277344 171.953125 307.714844 C 172.992188 305.675781 174.226562 303.765625 175.742188 302.046875 C 177.21875 300.375 178.898438 298.882812 180.734375 297.613281 C 184.652344 294.914062 189.25 293.203125 193.992188 292.75 C 198.847656 292.277344 203.871094 293.019531 208.324219 295.042969 C 210.238281 295.910156 212.027344 297.023438 213.578125 298.453125 C 215.054688 299.816406 216.292969 301.410156 217.277344 303.164062 C 219.691406 307.457031 220.632812 312.464844 221.40625 317.277344 C 221.828125 319.898438 222.171875 322.527344 222.421875 325.175781 C 222.671875 327.855469 222.851562 330.542969 223.054688 333.230469 C 223.257812 335.914062 223.484375 338.59375 223.78125 341.269531 C 224.082031 343.941406 224.515625 346.582031 225 349.226562 C 225.234375 350.523438 225.460938 351.824219 225.613281 353.132812 C 225.644531 353.402344 225.820312 353.628906 226.113281 353.632812 C 226.359375 353.636719 226.644531 353.398438 226.613281 353.132812 " fill-opacity="1" fill-rule="nonzero"/><path fill="#885138" d="M 203.164062 299.890625 C 206.515625 300.710938 209.476562 302.542969 211.636719 305.25 C 213.964844 308.164062 215.378906 311.792969 216.5 315.324219 C 217.699219 319.113281 218.472656 323.035156 218.9375 326.980469 C 219.410156 330.964844 219.578125 334.972656 219.640625 338.984375 C 219.710938 343.175781 219.769531 347.378906 220.234375 351.550781 C 220.292969 352.089844 220.359375 352.621094 220.433594 353.15625 C 220.46875 353.421875 220.8125 353.570312 221.046875 353.503906 C 221.335938 353.425781 221.429688 353.160156 221.394531 352.890625 C 220.828125 348.6875 220.726562 344.433594 220.660156 340.199219 C 220.589844 336.117188 220.480469 332.042969 220.050781 327.980469 C 219.617188 323.941406 218.910156 319.921875 217.753906 316.019531 C 217.195312 314.128906 216.53125 312.265625 215.753906 310.449219 C 215.019531 308.71875 214.152344 307.035156 213.0625 305.5 C 212.003906 304.003906 210.753906 302.6875 209.277344 301.605469 C 207.882812 300.585938 206.316406 299.8125 204.675781 299.28125 C 204.265625 299.144531 203.847656 299.027344 203.425781 298.925781 C 202.804688 298.773438 202.535156 299.738281 203.164062 299.890625 " fill-opacity="1" fill-rule="nonzero"/><path fill="#885138" d="M 182.976562 307.539062 C 180.480469 309.230469 178.261719 311.304688 176.371094 313.652344 C 174.484375 315.992188 172.910156 318.570312 171.644531 321.292969 C 170.226562 324.359375 169.207031 327.589844 168.53125 330.898438 C 167.84375 334.277344 167.492188 337.714844 167.3125 341.152344 C 167.128906 344.683594 167.035156 348.238281 166.308594 351.710938 C 166.21875 352.148438 166.117188 352.585938 166.007812 353.019531 C 165.847656 353.640625 166.8125 353.90625 166.96875 353.28125 C 167.851562 349.835938 168.066406 346.269531 168.234375 342.730469 C 168.394531 339.34375 168.632812 335.96875 169.21875 332.625 C 169.796875 329.292969 170.6875 326 172.019531 322.890625 C 173.179688 320.179688 174.636719 317.59375 176.398438 315.230469 C 178.148438 312.886719 180.230469 310.761719 182.589844 309.03125 C 182.882812 308.816406 183.179688 308.605469 183.480469 308.402344 C 183.703125 308.25 183.800781 307.960938 183.660156 307.71875 C 183.53125 307.496094 183.203125 307.386719 182.976562 307.539062 " fill-opacity="1" fill-rule="nonzero"/><path fill="#885138" d="M 180.417969 327.617188 C 181.429688 326.050781 182.847656 324.867188 184.550781 324.097656 C 185.308594 323.757812 186.222656 323.480469 187.085938 323.308594 C 187.984375 323.132812 188.878906 323.050781 189.828125 323.042969 C 193.332031 323.015625 196.765625 324.070312 199.699219 325.980469 C 200.035156 326.199219 200.367188 326.433594 200.6875 326.671875 C 200.867188 326.808594 200.917969 326.847656 201.101562 326.996094 C 201.257812 327.117188 201.410156 327.246094 201.5625 327.375 C 202.164062 327.894531 202.734375 328.449219 203.269531 329.035156 C 203.550781 329.339844 203.820312 329.652344 204.082031 329.972656 C 204.34375 330.296875 204.507812 330.511719 204.761719 330.863281 C 205.234375 331.511719 205.671875 332.1875 206.074219 332.878906 C 207.757812 335.75 208.855469 338.824219 209.65625 342.078125 C 210.464844 345.367188 210.90625 348.574219 211.148438 351.925781 C 211.175781 352.324219 211.203125 352.726562 211.226562 353.125 C 211.242188 353.394531 211.445312 353.625 211.722656 353.625 C 211.984375 353.625 212.238281 353.398438 212.222656 353.125 C 212.027344 349.6875 211.617188 346.253906 210.871094 342.890625 C 210.125 339.542969 209.035156 336.238281 207.40625 333.214844 C 205.828125 330.273438 203.699219 327.632812 200.992188 325.660156 C 198.078125 323.539062 194.53125 322.269531 190.9375 322.070312 C 187.121094 321.859375 183.042969 322.894531 180.46875 325.886719 C 180.140625 326.273438 179.832031 326.683594 179.558594 327.109375 C 179.410156 327.335938 179.511719 327.660156 179.738281 327.792969 C 179.976562 327.9375 180.273438 327.84375 180.417969 327.617188 " fill-opacity="1" fill-rule="nonzero"/><path fill="#885138" d="M 177.8125 293.308594 C 180.632812 290.820312 183.527344 288.363281 186.894531 286.632812 C 190.332031 284.863281 194.164062 284.0625 197.996094 283.734375 C 202.164062 283.382812 206.34375 283.644531 210.519531 283.566406 C 211.558594 283.546875 212.59375 283.503906 213.628906 283.421875 C 214.609375 283.347656 215.601562 283.261719 216.5625 283.058594 C 218.175781 282.722656 219.75 282.039062 220.972656 280.917969 C 222.085938 279.902344 222.800781 278.554688 222.9375 277.050781 C 223.058594 275.6875 222.632812 274.230469 221.605469 273.296875 C 221.335938 273.050781 221.035156 272.839844 220.714844 272.671875 C 220.144531 272.378906 219.636719 273.242188 220.210938 273.535156 C 221.335938 274.117188 221.914062 275.21875 221.957031 276.425781 C 222.003906 277.726562 221.515625 278.933594 220.578125 279.910156 C 219.496094 281.035156 218.03125 281.699219 216.527344 282.046875 C 215.65625 282.246094 214.777344 282.328125 213.886719 282.40625 C 212.851562 282.488281 211.816406 282.539062 210.78125 282.558594 C 206.679688 282.652344 202.574219 282.390625 198.476562 282.699219 C 194.632812 282.988281 190.789062 283.703125 187.273438 285.335938 C 183.886719 286.910156 180.941406 289.261719 178.136719 291.699219 C 177.792969 291.996094 177.449219 292.300781 177.105469 292.601562 C 176.902344 292.777344 176.921875 293.125 177.105469 293.308594 C 177.308594 293.507812 177.609375 293.484375 177.8125 293.308594 " fill-opacity="1" fill-rule="nonzero"/><path fill="#885138" d="M 221.867188 278.640625 C 221.917969 278.695312 221.96875 278.753906 222.015625 278.8125 C 222.0625 278.863281 221.964844 278.742188 222.003906 278.796875 C 222.015625 278.8125 222.027344 278.824219 222.039062 278.84375 C 222.066406 278.882812 222.097656 278.925781 222.125 278.964844 C 222.230469 279.125 222.320312 279.289062 222.402344 279.457031 C 222.421875 279.496094 222.4375 279.535156 222.457031 279.574219 C 222.46875 279.601562 222.515625 279.714844 222.5 279.675781 C 222.484375 279.632812 222.535156 279.761719 222.542969 279.78125 C 222.5625 279.832031 222.582031 279.878906 222.597656 279.929688 C 222.675781 280.136719 222.742188 280.351562 222.800781 280.5625 C 222.929688 281.019531 223.019531 281.488281 223.089844 281.957031 C 223.09375 281.984375 223.09375 282.011719 223.101562 282.035156 C 223.097656 282.023438 223.09375 281.972656 223.097656 282.03125 C 223.105469 282.09375 223.113281 282.15625 223.121094 282.214844 C 223.132812 282.335938 223.148438 282.457031 223.15625 282.582031 C 223.179688 282.828125 223.195312 283.070312 223.203125 283.316406 C 223.214844 283.789062 223.207031 284.261719 223.164062 284.734375 C 223.15625 284.839844 223.144531 284.941406 223.132812 285.046875 C 223.128906 285.070312 223.125 285.09375 223.125 285.117188 C 223.125 285.09375 223.136719 285.023438 223.121094 285.121094 C 223.113281 285.175781 223.105469 285.226562 223.097656 285.28125 C 223.0625 285.480469 223.023438 285.679688 222.96875 285.878906 C 222.925781 286.054688 222.867188 286.234375 222.800781 286.40625 C 222.757812 286.515625 222.824219 286.359375 222.785156 286.4375 C 222.769531 286.46875 222.757812 286.503906 222.742188 286.535156 C 222.703125 286.609375 222.664062 286.683594 222.621094 286.753906 C 222.335938 287.210938 221.90625 287.570312 221.511719 287.929688 C 221.054688 288.34375 220.601562 288.769531 220.28125 289.304688 C 219.941406 289.863281 219.769531 290.5 219.730469 291.152344 C 219.648438 292.464844 220.105469 293.765625 220.523438 294.988281 C 220.921875 296.171875 221.257812 297.355469 221.40625 298.601562 C 221.5625 299.902344 221.585938 301.21875 221.53125 302.527344 C 221.417969 305.15625 220.996094 307.761719 220.542969 310.347656 C 220.488281 310.65625 220.433594 310.964844 220.378906 311.277344 C 220.335938 311.539062 220.453125 311.8125 220.730469 311.890625 C 220.96875 311.957031 221.296875 311.808594 221.34375 311.539062 C 221.804688 308.902344 222.269531 306.253906 222.464844 303.578125 C 222.65625 300.960938 222.601562 298.246094 221.816406 295.722656 C 221.425781 294.484375 220.878906 293.25 220.746094 291.949219 C 220.6875 291.351562 220.714844 290.761719 220.9375 290.199219 C 221.15625 289.660156 221.558594 289.242188 221.980469 288.851562 C 222.433594 288.429688 222.90625 288.027344 223.285156 287.53125 C 223.53125 287.210938 223.703125 286.855469 223.832031 286.472656 C 224.121094 285.625 224.199219 284.699219 224.203125 283.808594 C 224.210938 282.808594 224.109375 281.804688 223.894531 280.828125 C 223.710938 279.988281 223.433594 279.113281 222.941406 278.398438 C 222.832031 278.234375 222.707031 278.078125 222.570312 277.933594 C 222.125 277.46875 221.421875 278.175781 221.867188 278.640625 " fill-opacity="1" fill-rule="nonzero"/><path fill="#885138" d="M 191.535156 291.054688 C 195 289.371094 198.847656 288.519531 202.691406 288.535156 C 204.601562 288.539062 206.507812 288.757812 208.367188 289.199219 C 210.414062 289.679688 212.363281 290.476562 214.390625 291.015625 C 215.4375 291.292969 216.519531 291.53125 217.601562 291.621094 C 218.539062 291.699219 219.472656 291.574219 220.378906 291.328125 C 221 291.164062 220.738281 290.199219 220.113281 290.367188 C 219.3125 290.582031 218.585938 290.6875 217.746094 290.632812 C 216.863281 290.574219 215.957031 290.371094 215.074219 290.15625 C 213.015625 289.652344 211.042969 288.835938 208.984375 288.320312 C 205.175781 287.359375 201.160156 287.292969 197.308594 288.066406 C 195.136719 288.503906 193.027344 289.222656 191.03125 290.191406 C 190.792969 290.308594 190.726562 290.652344 190.855469 290.875 C 191 291.121094 191.292969 291.171875 191.535156 291.054688 " fill-opacity="1" fill-rule="nonzero"/><path fill="#885138" d="M 223.335938 284.03125 C 222.773438 284.746094 221.949219 285.183594 221.109375 285.558594 C 220.246094 285.945312 219.300781 286.210938 218.371094 286.464844 C 216.058594 287.105469 213.71875 287.742188 211.320312 287.988281 C 209.992188 288.128906 208.636719 288.152344 207.3125 287.960938 C 207.046875 287.925781 206.777344 288.027344 206.699219 288.3125 C 206.632812 288.546875 206.777344 288.886719 207.046875 288.925781 C 209.609375 289.296875 212.1875 288.980469 214.703125 288.433594 C 215.90625 288.167969 217.097656 287.851562 218.285156 287.527344 C 219.285156 287.25 220.28125 286.984375 221.238281 286.582031 C 222.25 286.160156 223.347656 285.621094 224.042969 284.738281 C 224.207031 284.523438 224.246094 284.238281 224.042969 284.03125 C 223.867188 283.855469 223.503906 283.816406 223.335938 284.03125 " fill-opacity="1" fill-rule="nonzero"/><path fill="#885138" d="M 122.511719 310.75 C 125.617188 310.824219 128.710938 310.355469 131.710938 309.566406 C 134.695312 308.777344 137.585938 307.6875 140.460938 306.574219 C 143.320312 305.464844 146.171875 304.347656 148.992188 303.136719 C 151.789062 301.929688 154.554688 300.628906 157.238281 299.183594 C 159.894531 297.757812 162.476562 296.1875 164.921875 294.425781 C 165.21875 294.207031 165.515625 293.988281 165.8125 293.765625 C 166.03125 293.605469 166.140625 293.335938 165.992188 293.082031 C 165.867188 292.871094 165.527344 292.742188 165.3125 292.90625 C 162.914062 294.707031 160.375 296.308594 157.753906 297.765625 C 155.109375 299.234375 152.386719 300.554688 149.621094 301.777344 C 146.875 302.992188 144.078125 304.097656 141.277344 305.1875 C 138.421875 306.304688 135.554688 307.417969 132.609375 308.277344 C 129.699219 309.125 126.707031 309.703125 123.675781 309.757812 C 123.285156 309.761719 122.902344 309.761719 122.511719 309.753906 C 121.871094 309.738281 121.871094 310.738281 122.511719 310.75 " fill-opacity="1" fill-rule="nonzero"/><path fill="#885138" d="M 128.519531 280.46875 C 127.984375 281.585938 127.542969 282.753906 127.148438 283.925781 C 126.921875 284.617188 126.707031 285.320312 126.550781 286.03125 C 126.410156 286.648438 126.292969 287.289062 126.304688 287.917969 C 126.320312 288.582031 126.554688 289.121094 126.992188 289.621094 C 127.511719 290.214844 128.261719 290.578125 129.015625 290.773438 C 130.773438 291.21875 132.628906 290.894531 134.390625 290.621094 C 138.585938 289.964844 142.695312 288.867188 146.769531 287.679688 C 150.832031 286.496094 154.867188 285.214844 158.972656 284.179688 C 163.046875 283.152344 167.199219 282.378906 171.40625 282.210938 C 171.925781 282.191406 172.449219 282.179688 172.96875 282.175781 C 173.609375 282.175781 173.609375 281.175781 172.96875 281.179688 C 168.796875 281.203125 164.648438 281.828125 160.589844 282.761719 C 156.5625 283.6875 152.609375 284.90625 148.648438 286.085938 C 144.652344 287.273438 140.640625 288.433594 136.542969 289.230469 C 135.523438 289.429688 134.5 289.605469 133.472656 289.753906 C 132.625 289.875 131.777344 289.992188 130.921875 289.988281 C 130.144531 289.988281 129.390625 289.917969 128.667969 289.609375 C 128.417969 289.503906 128.097656 289.304688 127.890625 289.117188 C 127.78125 289.011719 127.664062 288.882812 127.597656 288.792969 C 127.546875 288.722656 127.5 288.648438 127.457031 288.574219 C 127.433594 288.527344 127.414062 288.484375 127.386719 288.441406 C 127.367188 288.402344 127.363281 288.339844 127.394531 288.460938 C 127.371094 288.371094 127.339844 288.285156 127.324219 288.195312 C 127.292969 288.054688 127.324219 288.273438 127.3125 288.121094 C 127.308594 288.0625 127.304688 288 127.304688 287.9375 C 127.296875 287.667969 127.316406 287.394531 127.355469 287.128906 C 127.339844 287.226562 127.355469 287.121094 127.359375 287.097656 C 127.367188 287.058594 127.371094 287.015625 127.375 286.976562 C 127.390625 286.902344 127.402344 286.828125 127.417969 286.757812 C 127.449219 286.585938 127.484375 286.414062 127.523438 286.246094 C 127.601562 285.902344 127.691406 285.566406 127.789062 285.226562 C 127.992188 284.53125 128.222656 283.839844 128.476562 283.160156 C 128.589844 282.851562 128.707031 282.546875 128.828125 282.242188 C 128.882812 282.113281 128.9375 281.984375 128.988281 281.855469 C 128.988281 281.855469 129.042969 281.722656 129.015625 281.792969 C 128.988281 281.859375 129.039062 281.730469 129.039062 281.734375 C 129.066406 281.671875 129.09375 281.609375 129.121094 281.546875 C 129.203125 281.355469 129.289062 281.164062 129.382812 280.972656 C 129.496094 280.730469 129.449219 280.433594 129.203125 280.289062 C 128.984375 280.164062 128.636719 280.226562 128.519531 280.46875 " fill-opacity="1" fill-rule="nonzero"/><path fill="#885138" d="M 129.195312 275.542969 C 128.523438 275.941406 127.90625 276.367188 127.601562 277.121094 C 127.335938 277.792969 127.386719 278.585938 127.632812 279.253906 C 128.246094 280.914062 129.835938 281.789062 131.519531 281.984375 C 132.398438 282.085938 133.285156 282.015625 134.164062 281.914062 C 135.128906 281.804688 136.097656 281.667969 137.058594 281.523438 C 138.953125 281.230469 140.839844 280.878906 142.722656 280.507812 C 146.480469 279.769531 150.226562 278.957031 154.019531 278.386719 C 155.929688 278.097656 157.855469 277.878906 159.789062 277.789062 C 161.738281 277.699219 163.695312 277.789062 165.640625 277.902344 C 169.363281 278.113281 173.128906 278.417969 176.828125 277.777344 C 177.289062 277.699219 177.746094 277.605469 178.199219 277.496094 C 178.824219 277.34375 178.5625 276.378906 177.9375 276.53125 C 174.457031 277.378906 170.84375 277.207031 167.296875 277 C 165.417969 276.890625 163.539062 276.761719 161.65625 276.753906 C 159.789062 276.746094 157.925781 276.886719 156.074219 277.109375 C 152.375 277.550781 148.71875 278.285156 145.070312 279.023438 C 141.46875 279.75 137.859375 280.488281 134.207031 280.910156 C 132.65625 281.089844 130.804688 281.246094 129.503906 280.195312 C 128.570312 279.441406 127.914062 277.871094 128.9375 276.910156 C 129.160156 276.703125 129.433594 276.5625 129.699219 276.40625 C 130.25 276.078125 129.75 275.214844 129.195312 275.542969 " fill-opacity="1" fill-rule="nonzero"/><path fill="#885138" d="M 162.359375 300.199219 C 160.285156 303.109375 158.132812 305.964844 156.058594 308.878906 C 154.367188 311.257812 152.589844 313.734375 150.214844 315.484375 C 147.746094 317.296875 144.632812 318.273438 141.578125 318.253906 C 140.800781 318.25 140.027344 318.179688 139.265625 318.019531 C 138.472656 317.851562 137.695312 317.609375 136.921875 317.363281 C 135.582031 316.9375 134.253906 316.546875 132.851562 316.382812 C 131.5625 316.226562 130.246094 316.21875 128.957031 316.382812 C 127.632812 316.550781 126.316406 316.878906 125.140625 317.53125 C 124.882812 317.671875 124.632812 317.832031 124.394531 318.011719 C 124.179688 318.171875 124.070312 318.441406 124.21875 318.695312 C 124.339844 318.90625 124.683594 319.035156 124.898438 318.871094 C 125.921875 318.109375 127.085938 317.714844 128.339844 317.480469 C 129.578125 317.25 130.910156 317.214844 132.199219 317.316406 C 132.816406 317.363281 133.296875 317.425781 133.910156 317.550781 C 134.636719 317.699219 135.351562 317.914062 136.058594 318.136719 C 137.625 318.632812 139.171875 319.128906 140.828125 319.226562 C 144.007812 319.421875 147.277344 318.550781 149.972656 316.851562 C 152.554688 315.230469 154.488281 312.75 156.253906 310.3125 C 158.320312 307.460938 160.402344 304.617188 162.460938 301.761719 C 162.714844 301.410156 162.96875 301.058594 163.222656 300.703125 C 163.378906 300.484375 163.261719 300.148438 163.042969 300.019531 C 162.792969 299.875 162.515625 299.980469 162.359375 300.199219 " fill-opacity="1" fill-rule="nonzero"/><path fill="#885138" d="M 131.730469 320.6875 C 131.320312 324.875 132.539062 328.964844 133.140625 333.074219 C 133.761719 337.316406 133.523438 341.625 133.03125 345.867188 C 132.753906 348.296875 132.601562 350.730469 133.007812 353.152344 C 133.050781 353.417969 133.378906 353.566406 133.621094 353.5 C 133.902344 353.425781 134.011719 353.15625 133.96875 352.886719 C 133.617188 350.78125 133.722656 348.628906 133.957031 346.519531 C 134.191406 344.382812 134.414062 342.253906 134.484375 340.105469 C 134.554688 337.96875 134.488281 335.832031 134.226562 333.714844 C 133.96875 331.652344 133.53125 329.625 133.171875 327.582031 C 132.773438 325.304688 132.5 322.996094 132.730469 320.6875 C 132.753906 320.417969 132.480469 320.1875 132.230469 320.1875 C 131.9375 320.1875 131.757812 320.417969 131.730469 320.6875 " fill-opacity="1" fill-rule="nonzero"/><path fill="#885138" d="M 139.792969 321.089844 C 139.410156 323.15625 139.472656 325.246094 139.71875 327.324219 C 139.964844 329.378906 140.363281 331.414062 140.578125 333.476562 C 141.015625 337.671875 140.457031 341.867188 139.625 345.980469 C 139.152344 348.324219 138.585938 350.652344 138.019531 352.976562 C 137.867188 353.601562 138.828125 353.867188 138.980469 353.242188 C 139.992188 349.089844 141.015625 344.917969 141.492188 340.664062 C 141.726562 338.566406 141.8125 336.449219 141.652344 334.34375 C 141.496094 332.269531 141.113281 330.226562 140.828125 328.167969 C 140.515625 325.917969 140.339844 323.605469 140.753906 321.355469 C 140.804688 321.089844 140.683594 320.816406 140.40625 320.738281 C 140.164062 320.671875 139.84375 320.820312 139.792969 321.089844 " fill-opacity="1" fill-rule="nonzero"/><path fill="#885138" d="M 158.253906 135.257812 C 158.175781 136.59375 158.246094 137.929688 158.53125 139.234375 C 158.847656 140.679688 159.277344 142.09375 159.566406 143.546875 C 159.839844 144.925781 160.136719 146.355469 160.121094 147.769531 C 160.113281 148.429688 160.015625 149.097656 159.734375 149.699219 C 159.449219 150.316406 159.003906 150.847656 158.535156 151.328125 C 157.550781 152.335938 156.441406 153.234375 155.347656 154.113281 C 154.203125 155.035156 153.019531 155.90625 151.792969 156.714844 C 150.582031 157.515625 149.332031 158.253906 148.019531 158.867188 C 146.746094 159.464844 145.425781 159.964844 144.113281 160.464844 C 141.582031 161.429688 138.996094 162.402344 136.796875 164.023438 C 134.839844 165.460938 133.21875 167.304688 132.039062 169.425781 C 129.242188 174.453125 128.867188 180.550781 129.230469 186.175781 C 129.617188 192.085938 130.757812 197.914062 131.113281 203.828125 C 131.15625 204.523438 131.1875 205.21875 131.203125 205.914062 C 131.214844 206.554688 132.210938 206.558594 132.199219 205.914062 C 132.074219 200.027344 130.941406 194.21875 130.402344 188.367188 C 129.875 182.632812 129.835938 176.472656 132.292969 171.132812 C 133.292969 168.957031 134.730469 167.011719 136.5625 165.46875 C 138.621094 163.730469 141.121094 162.675781 143.613281 161.71875 C 146.28125 160.691406 148.929688 159.691406 151.367188 158.171875 C 153.839844 156.636719 156.148438 154.835938 158.320312 152.902344 C 159.332031 152 160.339844 151 160.808594 149.695312 C 161.273438 148.40625 161.128906 146.996094 160.9375 145.671875 C 160.71875 144.167969 160.425781 142.671875 160.066406 141.195312 C 159.757812 139.925781 159.359375 138.691406 159.257812 137.382812 C 159.203125 136.675781 159.207031 135.96875 159.25 135.257812 C 159.285156 134.617188 158.289062 134.617188 158.253906 135.257812 " fill-opacity="1" fill-rule="nonzero"/><path fill="#885138" d="M 218.554688 268.503906 C 219.507812 269.789062 219.871094 271.308594 219.726562 272.894531 C 219.699219 273.164062 219.972656 273.394531 220.222656 273.394531 C 220.515625 273.394531 220.699219 273.164062 220.722656 272.894531 C 220.882812 271.160156 220.460938 269.40625 219.417969 268 C 219.257812 267.785156 218.984375 267.671875 218.734375 267.820312 C 218.519531 267.945312 218.394531 268.285156 218.554688 268.503906 " fill-opacity="1" fill-rule="nonzero"/></svg>