<svg xmlns="http://www.w3.org/2000/svg" xmlns:xlink="http://www.w3.org/1999/xlink" width="500" zoomAndPan="magnify" viewBox="0 0 375 374.999991" height="500" preserveAspectRatio="xMidYMid meet" version="1.0"><defs><clipPath id="9fec3deb13"><path d="M 13 107 L 364 107 L 364 344.5 L 13 344.5 Z M 13 107 " clip-rule="nonzero"/></clipPath><clipPath id="11b4ec53b3"><path d="M 157 30.25 L 212 30.25 L 212 129 L 157 129 Z M 157 30.25 " clip-rule="nonzero"/></clipPath><clipPath id="a1ba273685"><path d="M 6.753906 166 L 52 166 L 52 212 L 6.753906 212 Z M 6.753906 166 " clip-rule="nonzero"/></clipPath><clipPath id="a5d0a800eb"><path d="M 323 163 L 368.253906 163 L 368.253906 210 L 323 210 Z M 323 163 " clip-rule="nonzero"/></clipPath></defs><g clip-path="url(#9fec3deb13)"><path fill="#c62328" d="M 63.660156 262.128906 C 61.890625 263.40625 58.46875 265.910156 56.804688 270.246094 C 55.136719 274.582031 55.21875 280.753906 60.265625 289.550781 C 65.308594 298.351562 75.316406 309.773438 87.902344 319.328125 C 100.488281 328.878906 115.648438 336.5625 131.519531 340.527344 C 147.394531 344.496094 163.980469 344.75 174.414062 344.339844 C 184.851562 343.929688 189.140625 342.855469 195.792969 342.855469 C 202.445312 342.855469 211.460938 343.929688 221.929688 343.707031 C 232.398438 343.488281 244.316406 341.972656 256.011719 337.148438 C 267.710938 332.324219 279.1875 324.191406 287.980469 316.933594 C 296.773438 309.679688 302.882812 303.300781 307.140625 296.6875 C 311.402344 290.070312 313.8125 283.214844 313.785156 278.0625 C 313.761719 272.90625 311.292969 269.453125 308.714844 267.011719 C 306.136719 264.574219 303.449219 263.148438 302.355469 262.433594 C 301.257812 261.722656 301.75 261.722656 305.78125 259.828125 C 309.8125 257.9375 317.378906 254.15625 323 251.414062 C 328.621094 248.671875 332.292969 246.972656 336.246094 246.121094 C 340.199219 245.273438 344.425781 245.273438 346.839844 245.167969 C 349.253906 245.058594 349.847656 244.839844 351.195312 243.664062 C 352.542969 242.488281 354.644531 240.355469 356.054688 239.148438 C 357.464844 237.941406 358.1875 237.660156 358.4375 236.71875 C 358.6875 235.777344 358.46875 234.179688 359.457031 231.214844 C 360.441406 228.25 362.632812 223.917969 363.136719 221.695312 C 363.640625 219.46875 362.457031 219.351562 361.082031 220.714844 C 359.707031 222.078125 358.140625 224.921875 357.265625 226.296875 C 356.386719 227.671875 356.199219 227.578125 355.839844 227.148438 C 355.484375 226.722656 354.964844 225.964844 354.464844 224.921875 C 353.96875 223.878906 353.496094 222.550781 353.121094 221.6875 C 352.746094 220.824219 352.476562 220.421875 351.738281 219.511719 C 351.003906 218.601562 349.800781 217.183594 348.953125 216.4375 C 348.101562 215.6875 347.601562 215.609375 347.339844 215.375 C 347.074219 215.140625 347.042969 214.753906 346.816406 214.035156 C 346.589844 213.316406 346.167969 212.273438 345.539062 211.890625 C 344.90625 211.511719 344.066406 211.789062 342.886719 212.960938 C 341.710938 214.128906 340.199219 216.1875 338.925781 217.835938 C 337.648438 219.484375 336.609375 220.722656 334.382812 222.855469 C 332.15625 224.988281 328.734375 228.019531 326.605469 230.402344 C 324.472656 232.789062 323.628906 234.535156 322.960938 235.679688 C 322.292969 236.824219 321.800781 237.371094 320.042969 238.542969 C 318.285156 239.714844 315.257812 241.515625 309.902344 243.082031 C 304.542969 244.648438 296.855469 245.984375 289.042969 247.210938 C 281.234375 248.4375 273.300781 249.554688 269.074219 249.925781 C 264.847656 250.292969 264.328125 249.910156 263.335938 247.851562 C 262.339844 245.792969 260.867188 242.058594 259.054688 235.882812 C 257.242188 229.707031 255.085938 221.09375 253.671875 215.914062 C 252.253906 210.734375 251.570312 208.988281 251.019531 203.394531 C 250.46875 197.800781 250.046875 188.355469 248.808594 182.054688 C 247.570312 175.757812 245.511719 172.601562 242.519531 169.800781 C 239.523438 167.003906 235.589844 164.558594 230.964844 163.226562 C 226.339844 161.898438 221.023438 161.6875 216.289062 159.875 C 211.554688 158.066406 207.40625 154.65625 204.710938 151.820312 C 202.019531 148.980469 200.777344 146.71875 200.136719 142.25 C 199.492188 137.777344 200.214844 133.835938 199.246094 127.753906 C 198.28125 121.667969 179.441406 114.753906 173.582031 111.375 C 167.722656 107.996094 165.988281 106.074219 165.644531 107.59375 C 165.304688 109.113281 166.359375 114.074219 167.96875 118.660156 C 169.582031 123.246094 171.75 127.460938 172.929688 131.460938 C 174.109375 135.460938 174.292969 139.242188 173.085938 143.085938 C 171.875 146.929688 169.273438 150.835938 165.972656 153.707031 C 162.671875 156.582031 158.671875 158.421875 153.109375 160.128906 C 147.542969 161.832031 140.414062 163.398438 135.140625 166.109375 C 129.863281 168.820312 126.441406 172.667969 124.265625 178.445312 C 122.09375 184.21875 121.164062 191.917969 120.703125 199.476562 C 120.238281 207.03125 120.238281 214.445312 118.777344 222.429688 C 117.316406 230.417969 114.394531 238.972656 113.003906 243.53125 C 111.613281 248.09375 111.753906 248.664062 110.292969 249.058594 C 108.832031 249.449219 105.765625 249.664062 101.488281 249.878906 C 97.210938 250.09375 91.722656 250.304688 83.738281 249.203125 C 75.753906 248.097656 65.273438 245.671875 59.695312 243.660156 C 54.113281 241.648438 53.4375 240.042969 51.785156 238.023438 C 50.132812 236.003906 47.507812 233.566406 44.203125 230.355469 C 40.898438 227.144531 36.914062 223.160156 34.429688 220.253906 C 31.945312 217.347656 30.960938 215.519531 29.835938 214.957031 C 28.710938 214.394531 27.445312 215.097656 26.765625 216.058594 C 26.085938 217.019531 25.992188 218.234375 25.234375 220.667969 C 24.472656 223.097656 23.050781 226.738281 22.246094 228.421875 C 21.445312 230.105469 21.261719 229.832031 20.589844 228.738281 C 19.914062 227.640625 18.746094 225.726562 17.742188 224.296875 C 16.738281 222.863281 15.902344 221.914062 15.164062 221.6875 C 14.421875 221.460938 13.785156 221.953125 13.792969 222.765625 C 13.804688 223.574219 14.460938 224.707031 15.28125 226.421875 C 16.101562 228.132812 17.089844 230.433594 17.820312 232.785156 C 18.550781 235.136719 19.023438 237.539062 19.300781 239.1875 C 19.578125 240.832031 19.660156 241.71875 20.894531 242.636719 C 22.128906 243.550781 24.515625 244.492188 27.648438 245.324219 C 30.78125 246.15625 34.667969 246.878906 37.386719 247.390625 C 40.101562 247.90625 41.65625 248.210938 43.53125 249.207031 C 45.402344 250.207031 47.59375 251.898438 50.644531 253.730469 C 53.695312 255.558594 57.605469 257.53125 60.253906 258.722656 C 62.90625 259.914062 64.289062 260.332031 64.921875 260.566406 C 65.554688 260.800781 65.429688 260.851562 63.660156 262.128906 Z M 29.574219 224.589844 C 28.246094 224.1875 27.371094 226.371094 26.699219 228.289062 C 26.023438 230.207031 25.554688 231.855469 25.808594 233.148438 C 26.058594 234.441406 27.035156 235.382812 28.195312 236.058594 C 29.355469 236.730469 30.699219 237.132812 31.945312 236.898438 C 33.1875 236.660156 34.332031 235.789062 34.734375 234.695312 C 35.136719 233.601562 34.800781 232.289062 33.742188 230.140625 C 32.683594 227.988281 30.902344 224.996094 29.574219 224.589844 Z M 348.65625 221.324219 C 348.703125 221.621094 349.265625 223.179688 349.78125 224.914062 C 350.292969 226.644531 350.761719 228.546875 350.964844 230.261719 C 351.167969 231.976562 351.105469 233.507812 351.105469 234.144531 C 351.105469 234.785156 351.167969 234.535156 351.417969 233.710938 C 351.664062 232.882812 352.101562 231.480469 352.210938 230.371094 C 352.320312 229.265625 352.105469 228.453125 351.605469 227.265625 C 351.105469 226.082031 350.324219 224.523438 349.703125 223.257812 C 349.078125 221.996094 348.609375 221.027344 348.65625 221.324219 Z M 343.253906 220.976562 C 342.09375 222.332031 339.863281 226.125 339.03125 228.832031 C 338.203125 231.535156 338.769531 233.148438 339.769531 234.074219 C 340.765625 235 342.1875 235.234375 343.324219 234.953125 C 344.464844 234.667969 345.320312 233.859375 345.605469 232.769531 C 345.890625 231.679688 345.605469 230.300781 345.34375 228.429688 C 345.082031 226.554688 344.84375 224.183594 344.679688 222.449219 C 344.511719 220.71875 344.417969 219.628906 343.253906 220.980469 Z M 227.554688 216.152344 C 226.078125 218.734375 223.433594 225.394531 221.601562 231.988281 C 219.769531 238.582031 218.746094 245.109375 218.832031 251.667969 C 218.917969 258.222656 220.109375 264.808594 223.261719 271.792969 C 226.410156 278.777344 231.519531 286.15625 234.414062 290.160156 C 237.3125 294.160156 237.992188 294.785156 238.476562 294.84375 C 238.957031 294.898438 239.242188 294.386719 242.394531 291.210938 C 245.542969 288.03125 251.5625 282.183594 255.054688 279.003906 C 258.546875 275.824219 259.511719 275.3125 258.632812 274.945312 C 257.75 274.574219 255.027344 274.347656 253.097656 273.296875 C 251.167969 272.246094 250.03125 270.375 246.679688 263.675781 C 243.332031 256.976562 237.765625 245.449219 234.558594 236.792969 C 231.351562 228.132812 230.5 222.34375 229.921875 218.703125 C 229.339844 215.0625 229.03125 213.570312 227.554688 216.152344 Z M 145.554688 217.820312 C 146.035156 217.09375 146.5625 218.644531 147.460938 220.34375 C 148.355469 222.039062 149.621094 223.890625 150.445312 225.890625 C 151.273438 227.894531 151.65625 230.046875 152.132812 231.707031 C 152.605469 233.371094 153.171875 234.542969 153.503906 236.785156 C 153.835938 239.023438 153.933594 242.335938 153.871094 246.359375 C 153.804688 250.382812 153.574219 255.121094 153.515625 257.773438 C 153.460938 260.429688 153.574219 261.003906 153.832031 261.480469 C 154.089844 261.953125 154.492188 262.324219 154.339844 263.679688 C 154.1875 265.03125 153.480469 267.363281 151.925781 271.214844 C 150.371094 275.066406 147.972656 280.4375 144.542969 284.847656 C 141.117188 289.253906 136.660156 292.707031 133.582031 294.554688 C 130.503906 296.402344 128.804688 296.652344 127.636719 296.5625 C 126.46875 296.46875 125.835938 296.039062 121.242188 292.75 C 116.648438 289.464844 108.09375 283.320312 102.984375 279.371094 C 97.871094 275.425781 96.207031 273.671875 95.445312 272.828125 C 94.6875 271.980469 94.828125 272.035156 98.488281 272.8125 C 102.152344 273.585938 109.328125 275.082031 113.863281 275.609375 C 118.402344 276.140625 120.296875 275.710938 123.566406 271.859375 C 126.835938 268.007812 131.484375 260.738281 135.15625 252.28125 C 138.824219 243.820312 141.523438 234.175781 143.085938 227.855469 C 144.648438 221.535156 145.078125 218.542969 145.558594 217.820312 Z M 145.554688 217.820312 " fill-opacity="1" fill-rule="evenodd"/></g><path fill="#c62328" d="M 343.257812 220.976562 C 342.09375 222.328125 339.863281 226.125 339.035156 228.828125 C 338.203125 231.53125 338.773438 233.148438 339.769531 234.070312 C 340.765625 234.996094 342.1875 235.234375 343.328125 234.949219 C 344.464844 234.664062 345.320312 233.859375 345.605469 232.765625 C 345.890625 231.675781 345.605469 230.300781 345.34375 228.425781 C 345.082031 226.554688 344.847656 224.179688 344.679688 222.449219 C 344.511719 220.71875 344.417969 219.625 343.257812 220.976562 Z M 343.257812 220.976562 " fill-opacity="1" fill-rule="evenodd"/><g clip-path="url(#11b4ec53b3)"><path fill="#000000" d="M 189.820312 30.9375 C 187.421875 30.625 183.144531 30.25 179.832031 30.941406 C 176.519531 31.632812 174.167969 33.390625 172.449219 36.140625 C 170.730469 38.886719 169.640625 42.617188 169.496094 45.699219 C 169.347656 48.78125 170.144531 51.214844 170.5625 52.703125 C 170.984375 54.191406 171.023438 54.738281 170.773438 56.015625 C 170.523438 57.296875 169.976562 59.308594 169.390625 60.441406 C 168.800781 61.570312 168.171875 61.824219 166.363281 64.011719 C 164.550781 66.203125 161.558594 70.328125 159.738281 75.480469 C 157.917969 80.636719 157.273438 86.816406 157.964844 92.953125 C 158.65625 99.085938 160.683594 105.175781 162.808594 109.742188 C 164.933594 114.308594 167.152344 117.351562 169.691406 119.808594 C 172.226562 122.265625 175.082031 124.136719 178.492188 125.675781 C 181.898438 127.214844 185.863281 128.417969 189.761719 128.496094 C 193.664062 128.578125 197.5 127.53125 199.988281 126.230469 C 202.476562 124.929688 203.621094 123.375 205.207031 120.03125 C 206.792969 116.6875 208.820312 111.550781 210.089844 108.109375 C 211.355469 104.667969 211.863281 102.921875 211.929688 98.070312 C 211.992188 93.21875 211.609375 85.261719 210.832031 80.535156 C 210.054688 75.8125 208.882812 74.320312 207.25 71.722656 C 205.617188 69.121094 203.523438 65.410156 202.460938 63.222656 C 201.398438 61.035156 201.367188 60.367188 201.496094 59.496094 C 201.621094 58.625 201.90625 57.546875 201.921875 56.753906 C 201.9375 55.960938 201.683594 55.453125 201.652344 54.5 C 201.621094 53.550781 201.8125 52.15625 201.8125 49.761719 C 201.8125 47.367188 201.621094 43.972656 200.90625 41.261719 C 200.195312 38.550781 198.957031 36.523438 197.59375 35.046875 C 196.230469 33.574219 194.742188 32.652344 193.738281 32.070312 C 192.734375 31.488281 192.214844 31.242188 189.820312 30.933594 Z M 189.820312 30.9375 " fill-opacity="1" fill-rule="evenodd"/></g><path fill="#000000" d="M 157.804688 92.261719 C 157.53125 95.089844 157.320312 100.007812 157.316406 103.6875 C 157.3125 107.367188 157.515625 109.808594 158.074219 112.621094 C 158.636719 115.4375 159.550781 118.625 160.3125 121.8125 C 161.074219 125 161.6875 128.1875 160.941406 131.800781 C 160.195312 135.410156 158.09375 139.449219 157.71875 143.023438 C 157.347656 146.601562 158.703125 149.722656 159.363281 151.027344 C 160.023438 152.335938 159.992188 151.824219 159.738281 150.773438 C 159.484375 149.722656 159.007812 148.128906 158.941406 146.382812 C 158.871094 144.636719 159.210938 142.738281 160.144531 140.515625 C 161.078125 138.292969 162.601562 135.75 163.3125 132.496094 C 164.027344 129.238281 163.925781 125.273438 163.3125 121.726562 C 162.703125 118.183594 161.585938 115.0625 160.972656 112.078125 C 160.363281 109.09375 160.261719 106.246094 160.820312 101.972656 C 161.382812 97.699219 162.601562 92.003906 163.398438 87.863281 C 164.195312 83.726562 164.570312 81.148438 164.230469 80.675781 C 163.890625 80.199219 162.839844 81.828125 161.804688 83.386719 C 160.769531 84.945312 159.753906 86.441406 159.078125 87.558594 C 158.40625 88.679688 158.074219 89.425781 157.800781 92.257812 Z M 157.804688 92.261719 " fill-opacity="1" fill-rule="evenodd"/><path fill="#000000" d="M 205.285156 69.402344 C 206.46875 70.554688 208.171875 73.578125 209.25 76.246094 C 210.332031 78.914062 210.78125 81.230469 211.417969 85.265625 C 212.054688 89.296875 212.878906 95.046875 213.570312 100.089844 C 214.265625 105.132812 214.832031 109.464844 214.898438 113.535156 C 214.964844 117.601562 214.53125 121.402344 214.082031 124.386719 C 213.628906 127.367188 213.164062 129.535156 212.964844 131.617188 C 212.765625 133.703125 212.832031 135.703125 213.546875 137.902344 C 214.265625 140.105469 215.628906 142.503906 216.332031 145.304688 C 217.03125 148.105469 217.066406 151.304688 216.996094 153.339844 C 216.929688 155.371094 216.765625 156.238281 216.699219 156.539062 C 216.632812 156.839844 216.664062 156.570312 216.515625 154.523438 C 216.363281 152.472656 216.03125 148.636719 214.699219 145.105469 C 213.363281 141.570312 211.03125 138.335938 210.53125 133.921875 C 210.03125 129.503906 211.363281 123.902344 211.964844 119.867188 C 212.566406 115.832031 212.429688 113.367188 211.699219 110.632812 C 210.964844 107.898438 209.628906 104.898438 208.597656 101.679688 C 207.5625 98.464844 206.832031 95.03125 206.328125 91.363281 C 205.828125 87.695312 205.5625 83.796875 205.164062 80.679688 C 204.761719 77.5625 204.230469 75.226562 203.8125 73.527344 C 203.398438 71.828125 203.097656 70.761719 203.273438 69.867188 C 203.453125 68.972656 204.105469 68.25 205.285156 69.402344 Z M 205.285156 69.402344 " fill-opacity="1" fill-rule="evenodd"/><path stroke-linecap="butt" transform="matrix(0.0966818, 0, 0, 0.0966818, 6.755538, 30.549917)" fill="none" stroke-linejoin="miter" d="M 2245.793522 3118.649106 C 2245.793522 3118.649106 1942.527301 2714.294145 2030.565817 2049.136698 " stroke="#ffa8a7" stroke-width="1.87" stroke-opacity="1" stroke-miterlimit="2.613"/><path fill="#000000" d="M 202.65625 233.015625 C 202.65625 233.015625 202.820312 231.636719 201.203125 228.007812 C 199.585938 224.375 199.777344 216.667969 201.757812 210.085938 C 203.738281 203.503906 203.28125 196.105469 203.28125 196.105469 C 203.28125 196.105469 204.28125 202.09375 205.773438 208.269531 C 207.265625 214.449219 206.585938 224.253906 202.65625 233.015625 Z M 202.65625 233.015625 " fill-opacity="1" fill-rule="evenodd"/><path fill="#000000" d="M 202.140625 264.753906 C 202.140625 264.753906 202.636719 263.460938 201.949219 259.542969 C 201.261719 255.628906 203.320312 248.199219 206.839844 242.296875 C 210.359375 236.390625 211.710938 229.101562 211.710938 229.101562 C 211.710938 229.101562 211.226562 235.152344 211.171875 241.511719 C 211.121094 247.867188 208.082031 257.210938 202.140625 264.753906 Z M 202.140625 264.753906 " fill-opacity="1" fill-rule="evenodd"/><path fill="#000000" d="M 204.390625 283.203125 C 204.390625 283.203125 203.773438 281.960938 204.082031 277.996094 C 204.390625 274.035156 201.636719 266.835938 197.566406 261.292969 C 193.5 255.753906 191.457031 248.628906 191.457031 248.628906 C 191.457031 248.628906 192.519531 254.605469 193.175781 260.925781 C 193.835938 267.25 197.757812 276.261719 204.390625 283.203125 Z M 204.390625 283.203125 " fill-opacity="1" fill-rule="evenodd"/><path fill="#000000" d="M 207.988281 299.921875 C 207.988281 299.921875 208.429688 298.609375 207.578125 294.726562 C 206.730469 290.84375 208.472656 283.332031 211.746094 277.289062 C 215.015625 271.242188 216.066406 263.902344 216.066406 263.902344 C 216.066406 263.902344 215.832031 269.96875 216.042969 276.324219 C 216.257812 282.675781 213.609375 292.140625 207.988281 299.921875 Z M 207.988281 299.921875 " fill-opacity="1" fill-rule="evenodd"/><path fill="#000000" d="M 216.015625 318.972656 C 216.015625 318.972656 215.140625 317.898438 214.5625 313.964844 C 213.984375 310.03125 209.703125 303.625 204.507812 299.125 C 199.3125 294.625 195.738281 288.128906 195.738281 288.128906 C 195.738281 288.128906 198.097656 293.722656 200.144531 299.742188 C 202.1875 305.761719 208.007812 313.675781 216.015625 318.976562 Z M 216.015625 318.972656 " fill-opacity="1" fill-rule="evenodd"/><path stroke-linecap="butt" transform="matrix(0.0966818, 0, 0, 0.0966818, 6.755538, 30.549917)" fill="none" stroke-linejoin="miter" d="M 1514.374871 3118.649106 C 1514.374871 3118.649106 1817.641092 2714.294145 1729.602576 2049.136698 " stroke="#ffa8a7" stroke-width="1.87" stroke-opacity="1" stroke-miterlimit="2.613"/><path fill="#000000" d="M 174.398438 233.015625 C 174.398438 233.015625 174.230469 231.636719 175.847656 228.007812 C 177.464844 224.375 177.273438 216.667969 175.292969 210.085938 C 173.3125 203.503906 173.769531 196.105469 173.769531 196.105469 C 173.769531 196.105469 172.773438 202.09375 171.277344 208.269531 C 169.785156 214.449219 170.464844 224.253906 174.398438 233.015625 Z M 174.398438 233.015625 " fill-opacity="1" fill-rule="evenodd"/><path fill="#000000" d="M 174.914062 264.753906 C 174.914062 264.753906 174.417969 263.460938 175.105469 259.542969 C 175.789062 255.628906 173.734375 248.199219 170.214844 242.296875 C 166.695312 236.390625 165.339844 229.101562 165.339844 229.101562 C 165.339844 229.101562 165.828125 235.152344 165.878906 241.511719 C 165.929688 247.867188 168.972656 257.210938 174.914062 264.753906 Z M 174.914062 264.753906 " fill-opacity="1" fill-rule="evenodd"/><path fill="#000000" d="M 172.660156 283.203125 C 172.660156 283.203125 173.277344 281.960938 172.96875 277.996094 C 172.660156 274.035156 175.417969 266.835938 179.484375 261.292969 C 183.550781 255.753906 185.597656 248.628906 185.597656 248.628906 C 185.597656 248.628906 184.535156 254.605469 183.875 260.925781 C 183.214844 267.25 179.296875 276.261719 172.660156 283.203125 Z M 172.660156 283.203125 " fill-opacity="1" fill-rule="evenodd"/><path fill="#000000" d="M 169.0625 299.921875 C 169.0625 299.921875 168.621094 298.609375 169.472656 294.726562 C 170.320312 290.84375 168.578125 283.332031 165.308594 277.289062 C 162.035156 271.242188 160.988281 263.902344 160.988281 263.902344 C 160.988281 263.902344 161.222656 269.96875 161.007812 276.324219 C 160.792969 282.675781 163.441406 292.140625 169.0625 299.921875 Z M 169.0625 299.921875 " fill-opacity="1" fill-rule="evenodd"/><path fill="#000000" d="M 161.035156 318.972656 C 161.035156 318.972656 161.910156 317.898438 162.488281 313.964844 C 163.066406 310.03125 167.351562 303.625 172.546875 299.125 C 177.738281 294.625 181.316406 288.128906 181.316406 288.128906 C 181.316406 288.128906 178.953125 293.722656 176.910156 299.742188 C 174.863281 305.761719 169.042969 313.675781 161.035156 318.976562 Z M 161.035156 318.972656 " fill-opacity="1" fill-rule="evenodd"/><g clip-path="url(#a1ba273685)"><path stroke-linecap="butt" transform="matrix(0.0966818, 0, 0, 0.0966818, 6.755538, 30.549917)" fill="none" stroke-linejoin="miter" d="M 458.478332 1640.175774 C 458.478332 1647.650362 458.114703 1655.124949 457.387446 1662.599536 C 456.619786 1670.03372 455.5289 1677.4275 454.074386 1684.780878 C 452.619872 1692.134256 450.801729 1699.406827 448.619957 1706.558189 C 446.438186 1713.749954 443.933189 1720.780106 441.064564 1727.689048 C 438.195939 1734.638394 435.004088 1741.385724 431.448609 1748.011845 C 427.933533 1754.597562 424.095231 1761.021667 419.933704 1767.243755 C 415.772177 1773.506247 411.287425 1779.485917 406.560254 1785.303974 C 401.792679 1791.081628 396.782686 1796.616863 391.449467 1801.909678 C 386.156651 1807.242897 380.621416 1812.252891 374.843762 1817.020465 C 369.025705 1821.747637 363.046036 1826.232389 356.783544 1830.393916 C 350.561455 1834.555443 344.13735 1838.393744 337.551633 1841.90882 C 330.925513 1845.464299 324.178183 1848.65615 317.228837 1851.524775 C 310.319894 1854.393401 303.289742 1856.898398 296.097977 1859.080169 C 288.946615 1861.26194 281.674044 1863.080083 274.320666 1864.534597 C 266.967289 1865.989112 259.573508 1867.079997 252.139324 1867.847658 C 244.664737 1868.574915 237.19015 1868.938543 229.715563 1868.938543 C 222.200573 1868.938543 214.725985 1868.574915 207.291801 1867.847658 C 199.817214 1867.079997 192.423434 1865.989112 185.070056 1864.534597 C 177.716678 1863.080083 170.444107 1861.26194 163.292745 1859.080169 C 156.141384 1856.898398 149.070828 1854.393401 142.161886 1851.524775 C 135.21254 1848.65615 128.46521 1845.464299 121.839089 1841.90882 C 115.253372 1838.393744 108.829267 1834.555443 102.607179 1830.393916 C 96.38509 1826.232389 90.365017 1821.747637 84.587363 1817.020465 C 78.769306 1812.252891 73.234071 1807.242897 67.941256 1801.909678 C 62.64844 1796.616863 57.598043 1791.081628 52.870872 1785.303974 C 48.103298 1779.485917 43.658948 1773.506247 39.497422 1767.243755 C 35.335895 1761.021667 31.45719 1754.597562 27.942114 1748.011845 C 24.427038 1741.385724 21.194784 1734.638394 18.326159 1727.689048 C 15.457533 1720.780106 12.952536 1713.749954 10.770765 1706.558189 C 8.588994 1699.406827 6.770851 1692.134256 5.316337 1684.780878 C 3.861822 1677.4275 2.770937 1670.03372 2.04368 1662.599536 C 1.316422 1655.124949 0.912391 1647.650362 0.912391 1640.175774 C 0.912391 1632.660784 1.316422 1625.186197 2.04368 1617.752013 C 2.770937 1610.277426 3.861822 1602.883645 5.316337 1595.530268 C 6.770851 1588.17689 8.588994 1580.904319 10.770765 1573.752957 C 12.952536 1566.601595 15.457533 1559.53104 18.326159 1552.622097 C 21.194784 1545.672751 24.427038 1538.925421 27.942114 1532.299301 C 31.45719 1525.713584 35.335895 1519.289479 39.497422 1513.06739 C 43.658948 1506.845302 48.103298 1500.825229 52.870872 1495.047575 C 57.598043 1489.229518 62.64844 1483.694283 67.941256 1478.401467 C 73.234071 1473.108652 78.769306 1468.058255 84.587363 1463.331084 C 90.365017 1458.563509 96.38509 1454.11916 102.607179 1449.957633 C 108.829267 1445.796106 115.253372 1441.917402 121.839089 1438.402325 C 128.46521 1434.887249 135.21254 1431.654995 142.161886 1428.78637 C 149.070828 1425.917745 156.141384 1423.412748 163.292745 1421.230977 C 170.444107 1419.049205 177.716678 1417.231062 185.070056 1415.776548 C 192.423434 1414.322034 199.817214 1413.231148 207.291801 1412.503891 C 214.725985 1411.776634 222.200573 1411.372602 229.715563 1411.372602 C 237.19015 1411.372602 244.664737 1411.776634 252.139324 1412.503891 C 259.573508 1413.231148 266.967289 1414.322034 274.320666 1415.776548 C 281.674044 1417.231062 288.946615 1419.049205 296.097977 1421.230977 C 303.289742 1423.412748 310.319894 1425.917745 317.228837 1428.78637 C 324.178183 1431.654995 330.925513 1434.887249 337.551633 1438.402325 C 344.13735 1441.917402 350.561455 1445.796106 356.783544 1449.957633 C 363.046036 1454.11916 369.025705 1458.563509 374.843762 1463.331084 C 380.621416 1468.058255 386.156651 1473.108652 391.449467 1478.401467 C 396.782686 1483.694283 401.792679 1489.229518 406.560254 1495.047575 C 411.287425 1500.825229 415.772177 1506.845302 419.933704 1513.06739 C 424.095231 1519.289479 427.933533 1525.713584 431.448609 1532.299301 C 435.004088 1538.925421 438.195939 1545.672751 441.064564 1552.622097 C 443.933189 1559.53104 446.438186 1566.601595 448.619957 1573.752957 C 450.801729 1580.904319 452.619872 1588.17689 454.074386 1595.530268 C 455.5289 1602.883645 456.619786 1610.277426 457.387446 1617.752013 C 458.114703 1625.186197 458.478332 1632.660784 458.478332 1640.175774 Z M 458.478332 1640.175774 " stroke="#ffa8a7" stroke-width="1.87" stroke-opacity="1" stroke-miterlimit="2.613"/></g><path fill="#000000" d="M 45.304688 199.101562 C 41.941406 204.601562 35.882812 208.269531 28.964844 208.269531 C 18.390625 208.269531 9.820312 199.695312 9.820312 189.125 C 9.820312 182.207031 13.488281 176.148438 18.984375 172.78125 C 17.203125 175.6875 16.179688 179.105469 16.179688 182.761719 C 16.179688 193.335938 24.75 201.90625 35.324219 201.90625 C 38.980469 201.90625 42.398438 200.882812 45.304688 199.101562 Z M 45.304688 199.101562 " fill-opacity="1" fill-rule="evenodd"/><path fill="#000000" d="M 37.589844 152.402344 L 37.613281 152.589844 C 39.027344 163.484375 43.726562 171.484375 50.109375 173.855469 L 50.144531 173.867188 L 50.035156 173.910156 C 43.660156 176.328125 38.984375 184.363281 37.597656 195.273438 L 37.589844 195.335938 L 37.5625 195.152344 C 36.148438 184.253906 31.449219 176.253906 25.070312 173.882812 L 25.03125 173.867188 L 25.140625 173.828125 C 31.515625 171.410156 36.195312 163.375 37.582031 152.464844 Z M 37.589844 152.402344 " fill-opacity="1" fill-rule="evenodd"/><path fill="#000000" d="M 48.996094 153.558594 L 49.003906 153.617188 C 49.460938 157.140625 50.980469 159.726562 53.039062 160.492188 L 53.054688 160.496094 L 53.019531 160.511719 C 50.957031 161.292969 49.445312 163.890625 48.996094 167.414062 L 48.996094 167.4375 L 48.988281 167.375 C 48.53125 163.855469 47.011719 161.269531 44.949219 160.503906 L 44.9375 160.496094 L 44.972656 160.484375 C 47.03125 159.703125 48.542969 157.105469 48.992188 153.578125 Z M 48.996094 153.558594 " fill-opacity="1" fill-rule="evenodd"/><g clip-path="url(#a5d0a800eb)"><path stroke-linecap="butt" transform="matrix(0.0966818, 0, 0, 0.0966818, 6.755538, 30.549917)" fill="none" stroke-linejoin="miter" d="M 3737.96353 1613.752099 C 3737.96353 1621.267089 3737.599901 1628.741676 3736.872644 1636.17586 C 3736.145387 1643.650447 3735.054501 1651.044228 3733.559584 1658.397606 C 3732.10507 1665.750983 3730.286927 1672.983151 3728.105155 1680.174916 C 3725.963787 1687.326278 3723.418387 1694.396833 3720.549762 1701.305776 C 3717.681137 1708.214719 3714.489286 1715.002452 3710.97421 1721.588169 C 3707.418731 1728.21429 3703.580429 1734.638394 3699.418902 1740.860483 C 3695.257375 1747.082572 3690.813026 1753.102645 3686.045452 1758.880298 C 3681.277877 1764.698355 3676.267884 1770.23359 3670.975068 1775.526406 C 3665.682252 1780.819222 3660.106614 1785.829215 3654.32896 1790.59679 C 3648.551307 1795.364364 3642.531234 1799.808713 3636.309145 1803.97024 C 3630.087056 1808.131767 3623.662952 1811.970069 3617.036831 1815.525548 C 3610.451114 1819.040624 3603.663381 1822.232475 3596.754438 1825.1011 C 3589.805092 1827.969725 3582.77494 1830.515125 3575.623578 1832.696897 C 3568.431813 1834.838265 3561.159242 1836.656408 3553.846268 1838.151325 C 3546.49289 1839.605839 3539.099109 1840.696725 3531.624522 1841.423982 C 3524.149935 1842.151239 3516.675348 1842.514868 3509.200761 1842.514868 C 3501.726174 1842.514868 3494.251587 1842.151239 3486.776999 1841.423982 C 3479.302412 1840.696725 3471.908632 1839.605839 3464.555254 1838.151325 C 3457.201876 1836.656408 3449.969708 1834.838265 3442.777943 1832.696897 C 3435.626582 1830.515125 3428.556026 1827.969725 3421.647084 1825.1011 C 3414.738141 1822.232475 3407.950408 1819.040624 3401.36469 1815.525548 C 3394.73857 1811.970069 3388.314465 1808.131767 3382.092377 1803.97024 C 3375.870288 1799.808713 3369.850215 1795.364364 3364.072561 1790.59679 C 3358.294907 1785.829215 3352.719269 1780.819222 3347.426454 1775.526406 C 3342.133638 1770.23359 3337.123644 1764.698355 3332.35607 1758.880298 C 3327.588495 1753.102645 3323.144146 1747.082572 3318.98262 1740.860483 C 3314.821093 1734.638394 3310.982791 1728.21429 3307.427312 1721.588169 C 3303.912236 1715.002452 3300.720385 1708.214719 3297.85176 1701.305776 C 3294.983134 1694.396833 3292.437734 1687.326278 3290.296366 1680.174916 C 3288.114595 1672.983151 3286.296452 1665.750983 3284.841938 1658.397606 C 3283.34702 1651.044228 3282.256135 1643.650447 3281.528878 1636.17586 C 3280.80162 1628.741676 3280.437992 1621.267089 3280.437992 1613.752099 C 3280.437992 1606.277512 3280.80162 1598.802925 3281.528878 1591.328338 C 3282.256135 1583.894154 3283.34702 1576.45997 3284.841938 1569.146995 C 3286.296452 1561.793618 3288.114595 1554.521046 3290.296366 1547.369685 C 3292.437734 1540.17792 3294.983134 1533.147768 3297.85176 1526.198422 C 3300.720385 1519.289479 3303.912236 1512.542149 3307.427312 1505.916029 C 3310.982791 1499.330311 3314.821093 1492.906207 3318.98262 1486.643715 C 3323.144146 1480.421626 3327.588495 1474.401553 3332.35607 1468.623899 C 3337.123644 1462.846245 3342.133638 1457.311011 3347.426454 1451.977792 C 3352.719269 1446.684976 3358.294907 1441.674982 3364.072561 1436.907408 C 3369.850215 1432.180237 3375.870288 1427.695484 3382.092377 1423.533958 C 3388.314465 1419.372431 3394.73857 1415.534129 3401.36469 1412.019053 C 3407.950408 1408.463574 3414.738141 1405.271723 3421.647084 1402.403098 C 3428.556026 1399.534472 3435.626582 1397.029476 3442.777943 1394.847704 C 3449.969708 1392.665933 3457.201876 1390.84779 3464.555254 1389.393276 C 3471.908632 1387.938762 3479.302412 1386.807473 3486.776999 1386.080216 C 3494.251587 1385.352958 3501.726174 1384.98933 3509.200761 1384.98933 C 3516.675348 1384.98933 3524.149935 1385.352958 3531.624522 1386.080216 C 3539.099109 1386.807473 3546.49289 1387.938762 3553.846268 1389.393276 C 3561.159242 1390.84779 3568.431813 1392.665933 3575.623578 1394.847704 C 3582.77494 1397.029476 3589.805092 1399.534472 3596.754438 1402.403098 C 3603.663381 1405.271723 3610.451114 1408.463574 3617.036831 1412.019053 C 3623.662952 1415.534129 3630.087056 1419.372431 3636.309145 1423.533958 C 3642.531234 1427.695484 3648.551307 1432.180237 3654.32896 1436.907408 C 3660.106614 1441.674982 3665.682252 1446.684976 3670.975068 1451.977792 C 3676.267884 1457.311011 3681.277877 1462.846245 3686.045452 1468.623899 C 3690.813026 1474.401553 3695.257375 1480.421626 3699.418902 1486.643715 C 3703.580429 1492.906207 3707.418731 1499.330311 3710.97421 1505.916029 C 3714.489286 1512.542149 3717.681137 1519.289479 3720.549762 1526.198422 C 3723.418387 1533.147768 3725.963787 1540.17792 3728.105155 1547.369685 C 3730.286927 1554.521046 3732.10507 1561.793618 3733.559584 1569.146995 C 3735.054501 1576.45997 3736.145387 1583.894154 3736.872644 1591.328338 C 3737.599901 1598.802925 3737.96353 1606.277512 3737.96353 1613.752099 Z M 3737.96353 1613.752099 " stroke="#ffa8a7" stroke-width="1.87" stroke-opacity="1" stroke-miterlimit="2.613"/></g><path fill="#000000" d="M 329.691406 196.550781 C 333.054688 202.046875 339.113281 205.714844 346.03125 205.714844 C 356.605469 205.714844 365.175781 197.144531 365.175781 186.570312 C 365.175781 179.65625 361.507812 173.59375 356.011719 170.230469 C 357.789062 173.136719 358.816406 176.554688 358.816406 180.210938 C 358.816406 190.785156 350.246094 199.355469 339.671875 199.355469 C 336.015625 199.355469 332.597656 198.328125 329.691406 196.550781 Z M 329.691406 196.550781 " fill-opacity="1" fill-rule="evenodd"/><path fill="#000000" d="M 337.40625 149.847656 L 337.382812 150.035156 C 335.96875 160.933594 331.265625 168.933594 324.886719 171.304688 L 324.847656 171.316406 L 324.957031 171.359375 C 331.332031 173.777344 336.011719 181.8125 337.398438 192.71875 L 337.40625 192.785156 L 337.429688 192.597656 C 338.84375 181.703125 343.546875 173.703125 349.925781 171.332031 L 349.964844 171.316406 L 349.855469 171.277344 C 343.480469 168.855469 338.800781 160.820312 337.414062 149.914062 Z M 337.40625 149.847656 " fill-opacity="1" fill-rule="evenodd"/><path fill="#000000" d="M 326 151.003906 L 325.992188 151.066406 C 325.535156 154.585938 324.015625 157.175781 321.953125 157.941406 L 321.941406 157.945312 L 321.976562 157.957031 C 324.035156 158.742188 325.546875 161.335938 325.996094 164.863281 L 326 164.882812 L 326.007812 164.824219 C 326.464844 161.300781 327.984375 158.714844 330.046875 157.949219 L 330.058594 157.945312 L 330.023438 157.933594 C 327.960938 157.148438 326.449219 154.554688 326 151.027344 Z M 326 151.003906 " fill-opacity="1" fill-rule="evenodd"/><path fill="#000000" d="M 220.539062 172.40625 L 220.542969 172.4375 C 220.769531 174.199219 221.53125 175.492188 222.5625 175.875 L 222.566406 175.875 L 222.550781 175.882812 C 221.519531 176.273438 220.761719 177.570312 220.539062 179.335938 L 220.539062 179.347656 L 220.535156 179.316406 C 220.308594 177.554688 219.546875 176.261719 218.515625 175.878906 L 218.511719 175.878906 L 218.527344 175.871094 C 219.558594 175.480469 220.3125 174.179688 220.539062 172.417969 Z M 220.539062 172.40625 " fill-opacity="1" fill-rule="evenodd"/><path fill="#000000" d="M 189.613281 160.808594 L 189.617188 160.839844 C 189.84375 162.601562 190.605469 163.894531 191.636719 164.277344 L 191.640625 164.277344 L 191.625 164.285156 C 190.59375 164.675781 189.839844 165.976562 189.613281 167.738281 L 189.613281 167.75 L 189.609375 167.71875 C 189.382812 165.957031 188.621094 164.664062 187.589844 164.28125 L 187.585938 164.28125 L 187.601562 164.273438 C 188.632812 163.882812 189.386719 162.585938 189.613281 160.820312 Z M 189.613281 160.808594 " fill-opacity="1" fill-rule="evenodd"/><path fill="#000000" d="M 145.433594 176.824219 L 145.4375 176.855469 C 145.664062 178.613281 146.425781 179.910156 147.457031 180.292969 L 147.464844 180.292969 L 147.445312 180.300781 C 146.417969 180.691406 145.660156 181.988281 145.4375 183.753906 L 145.433594 183.761719 L 145.429688 183.734375 C 145.203125 181.972656 144.441406 180.679688 143.410156 180.296875 L 143.40625 180.292969 L 143.421875 180.289062 C 144.453125 179.898438 145.210938 178.597656 145.433594 176.835938 Z M 145.433594 176.824219 " fill-opacity="1" fill-rule="evenodd"/><path fill="#000000" d="M 129.417969 230.945312 L 129.421875 230.972656 C 129.652344 232.734375 130.410156 234.027344 131.441406 234.410156 L 131.449219 234.414062 L 131.429688 234.417969 C 130.402344 234.808594 129.644531 236.109375 129.421875 237.871094 L 129.417969 237.882812 L 129.414062 237.851562 C 129.1875 236.09375 128.425781 234.800781 127.394531 234.414062 L 127.390625 234.414062 L 127.40625 234.40625 C 128.4375 234.015625 129.195312 232.71875 129.417969 230.953125 Z M 129.417969 230.945312 " fill-opacity="1" fill-rule="evenodd"/><path fill="#000000" d="M 43.53125 242.253906 L 43.535156 242.285156 C 43.765625 244.042969 44.523438 245.339844 45.554688 245.722656 L 45.5625 245.722656 L 45.542969 245.730469 C 44.515625 246.121094 43.757812 247.417969 43.535156 249.183594 L 43.535156 249.191406 L 43.53125 249.164062 C 43.300781 247.402344 42.542969 246.109375 41.507812 245.726562 L 41.503906 245.722656 L 41.519531 245.71875 C 42.550781 245.328125 43.308594 244.027344 43.53125 242.265625 Z M 43.53125 242.253906 " fill-opacity="1" fill-rule="evenodd"/><path fill="#000000" d="M 80.8125 274.425781 L 80.816406 274.457031 C 81.042969 276.21875 81.804688 277.511719 82.835938 277.894531 L 82.84375 277.898438 L 82.824219 277.902344 C 81.796875 278.292969 81.039062 279.59375 80.816406 281.355469 L 80.8125 281.367188 L 80.808594 281.335938 C 80.582031 279.574219 79.820312 278.28125 78.789062 277.898438 L 78.785156 277.898438 L 78.800781 277.890625 C 79.832031 277.5 80.589844 276.203125 80.8125 274.4375 Z M 80.8125 274.425781 " fill-opacity="1" fill-rule="evenodd"/><path fill="#000000" d="M 72.1875 289.308594 L 72.191406 289.335938 C 72.417969 291.097656 73.179688 292.390625 74.210938 292.773438 L 74.214844 292.777344 L 74.199219 292.78125 C 73.167969 293.171875 72.410156 294.472656 72.1875 296.234375 L 72.1875 296.246094 L 72.183594 296.214844 C 71.953125 294.457031 71.195312 293.160156 70.164062 292.777344 L 70.15625 292.777344 L 70.175781 292.769531 C 71.203125 292.378906 71.960938 291.082031 72.183594 289.316406 Z M 72.1875 289.308594 " fill-opacity="1" fill-rule="evenodd"/><path fill="#000000" d="M 102.917969 298.429688 L 102.921875 298.460938 C 103.152344 300.222656 103.910156 301.515625 104.941406 301.898438 L 104.949219 301.898438 L 104.929688 301.90625 C 103.902344 302.296875 103.144531 303.59375 102.921875 305.359375 L 102.921875 305.371094 L 102.917969 305.339844 C 102.6875 303.578125 101.929688 302.285156 100.898438 301.902344 L 100.890625 301.902344 L 100.90625 301.894531 C 101.9375 301.503906 102.695312 300.203125 102.917969 298.441406 Z M 102.917969 298.429688 " fill-opacity="1" fill-rule="evenodd"/><path fill="#000000" d="M 106.28125 315.71875 L 106.285156 315.746094 C 106.511719 317.507812 107.273438 318.800781 108.304688 319.183594 L 108.308594 319.1875 L 108.292969 319.191406 C 107.261719 319.582031 106.507812 320.882812 106.28125 322.644531 L 106.28125 322.65625 L 106.277344 322.625 C 106.050781 320.867188 105.289062 319.574219 104.257812 319.191406 L 104.253906 319.1875 L 104.269531 319.179688 C 105.300781 318.789062 106.054688 317.492188 106.28125 315.726562 Z M 106.28125 315.71875 " fill-opacity="1" fill-rule="evenodd"/><path fill="#000000" d="M 127.890625 306.59375 L 127.894531 306.625 C 128.121094 308.386719 128.882812 309.679688 129.914062 310.0625 L 129.917969 310.0625 L 129.902344 310.070312 C 128.871094 310.460938 128.113281 311.757812 127.890625 313.523438 L 127.890625 313.535156 L 127.886719 313.503906 C 127.65625 311.742188 126.898438 310.449219 125.867188 310.066406 L 125.859375 310.066406 L 125.878906 310.058594 C 126.90625 309.667969 127.664062 308.367188 127.886719 306.605469 Z M 127.890625 306.59375 " fill-opacity="1" fill-rule="evenodd"/><path fill="#000000" d="M 140.375 328.683594 L 140.378906 328.714844 C 140.605469 330.472656 141.367188 331.769531 142.398438 332.152344 L 142.402344 332.152344 L 142.386719 332.160156 C 141.355469 332.550781 140.601562 333.847656 140.375 335.613281 L 140.375 335.621094 L 140.371094 335.59375 C 140.144531 333.832031 139.382812 332.539062 138.351562 332.15625 L 138.347656 332.152344 L 138.363281 332.148438 C 139.394531 331.757812 140.148438 330.457031 140.375 328.695312 Z M 140.375 328.683594 " fill-opacity="1" fill-rule="evenodd"/><path fill="#000000" d="M 186.472656 312.355469 L 186.476562 312.386719 C 186.707031 314.148438 187.464844 315.441406 188.496094 315.824219 L 188.503906 315.824219 L 188.484375 315.832031 C 187.457031 316.222656 186.699219 317.519531 186.476562 319.285156 L 186.476562 319.292969 L 186.472656 319.265625 C 186.242188 317.503906 185.484375 316.210938 184.453125 315.828125 L 184.445312 315.824219 L 184.464844 315.820312 C 185.492188 315.429688 186.25 314.128906 186.472656 312.367188 Z M 186.472656 312.355469 " fill-opacity="1" fill-rule="evenodd"/><path fill="#000000" d="M 247.074219 317.566406 L 247.078125 317.597656 C 247.308594 319.359375 248.066406 320.652344 249.097656 321.035156 L 249.105469 321.035156 L 249.085938 321.042969 C 248.058594 321.433594 247.300781 322.734375 247.078125 324.496094 L 247.078125 324.507812 L 247.074219 324.476562 C 246.84375 322.714844 246.085938 321.421875 245.054688 321.039062 L 245.046875 321.039062 L 245.066406 321.03125 C 246.09375 320.640625 246.851562 319.34375 247.074219 317.578125 Z M 247.074219 317.566406 " fill-opacity="1" fill-rule="evenodd"/><path fill="#000000" d="M 233.625 301.222656 L 233.628906 301.25 C 233.855469 303.011719 234.613281 304.304688 235.648438 304.6875 L 235.652344 304.691406 L 235.636719 304.695312 C 234.605469 305.085938 233.847656 306.386719 233.625 308.148438 L 233.625 308.160156 L 233.621094 308.128906 C 233.390625 306.371094 232.632812 305.074219 231.601562 304.691406 L 231.59375 304.691406 L 231.613281 304.683594 C 232.640625 304.292969 233.398438 302.996094 233.621094 301.230469 Z M 233.625 301.222656 " fill-opacity="1" fill-rule="evenodd"/><path fill="#000000" d="M 271.566406 301.222656 L 271.570312 301.25 C 271.796875 303.011719 272.558594 304.304688 273.589844 304.6875 L 273.59375 304.691406 L 273.578125 304.695312 C 272.546875 305.085938 271.792969 306.386719 271.566406 308.148438 L 271.566406 308.160156 L 271.5625 308.128906 C 271.335938 306.371094 270.574219 305.074219 269.542969 304.691406 L 269.539062 304.691406 L 269.554688 304.683594 C 270.585938 304.292969 271.339844 302.996094 271.566406 301.230469 Z M 271.566406 301.222656 " fill-opacity="1" fill-rule="evenodd"/><path fill="#000000" d="M 269.160156 281.628906 L 269.164062 281.660156 C 269.390625 283.421875 270.152344 284.714844 271.183594 285.097656 L 271.191406 285.097656 L 271.171875 285.105469 C 270.144531 285.496094 269.386719 286.796875 269.164062 288.558594 L 269.160156 288.570312 L 269.15625 288.539062 C 268.929688 286.777344 268.167969 285.484375 267.136719 285.101562 L 267.132812 285.101562 L 267.148438 285.09375 C 268.179688 284.703125 268.9375 283.40625 269.160156 281.640625 Z M 269.160156 281.628906 " fill-opacity="1" fill-rule="evenodd"/><path fill="#000000" d="M 291.179688 287.253906 L 291.183594 287.285156 C 291.414062 289.046875 292.171875 290.339844 293.203125 290.722656 L 293.210938 290.722656 L 293.191406 290.730469 C 292.164062 291.121094 291.40625 292.421875 291.183594 294.183594 L 291.183594 294.195312 L 291.179688 294.164062 C 290.949219 292.402344 290.191406 291.109375 289.15625 290.726562 L 289.152344 290.726562 L 289.167969 290.71875 C 290.199219 290.328125 290.957031 289.03125 291.179688 287.265625 Z M 291.179688 287.253906 " fill-opacity="1" fill-rule="evenodd"/><path fill="#000000" d="M 296.863281 248.417969 L 296.867188 248.449219 C 297.097656 250.210938 297.855469 251.503906 298.886719 251.886719 L 298.894531 251.886719 L 298.875 251.894531 C 297.847656 252.285156 297.089844 253.585938 296.867188 255.347656 L 296.867188 255.359375 L 296.863281 255.328125 C 296.632812 253.566406 295.875 252.273438 294.84375 251.890625 L 294.835938 251.890625 L 294.855469 251.882812 C 295.882812 251.492188 296.640625 250.195312 296.863281 248.429688 Z M 296.863281 248.417969 " fill-opacity="1" fill-rule="evenodd"/><path fill="#000000" d="M 268.449219 256.628906 L 268.453125 256.660156 C 268.679688 258.417969 269.441406 259.710938 270.472656 260.09375 L 270.476562 260.097656 L 270.460938 260.105469 C 269.429688 260.496094 268.671875 261.792969 268.449219 263.558594 L 268.449219 263.566406 L 268.445312 263.539062 C 268.21875 261.777344 267.457031 260.484375 266.425781 260.101562 L 266.417969 260.097656 L 266.4375 260.089844 C 267.464844 259.699219 268.222656 258.402344 268.445312 256.640625 Z M 268.449219 256.628906 " fill-opacity="1" fill-rule="evenodd"/><path fill="#000000" d="M 250.449219 246.210938 L 250.453125 246.238281 C 250.683594 248 251.441406 249.292969 252.472656 249.675781 L 252.480469 249.679688 L 252.460938 249.683594 C 251.433594 250.074219 250.675781 251.375 250.453125 253.136719 L 250.449219 253.148438 L 250.445312 253.117188 C 250.21875 251.359375 249.457031 250.0625 248.425781 249.679688 L 248.421875 249.679688 L 248.4375 249.671875 C 249.46875 249.28125 250.226562 247.984375 250.449219 246.21875 Z M 250.449219 246.210938 " fill-opacity="1" fill-rule="evenodd"/><path fill="#000000" d="M 250.449219 228.84375 L 250.453125 228.875 C 250.683594 230.632812 251.441406 231.925781 252.472656 232.308594 L 252.480469 232.3125 L 252.460938 232.320312 C 251.433594 232.710938 250.675781 234.007812 250.453125 235.769531 L 250.449219 235.78125 L 250.445312 235.753906 C 250.21875 233.992188 249.457031 232.699219 248.425781 232.316406 L 248.421875 232.3125 L 248.4375 232.304688 C 249.46875 231.914062 250.226562 230.617188 250.449219 228.855469 Z M 250.449219 228.84375 " fill-opacity="1" fill-rule="evenodd"/><path fill="#000000" d="M 238.136719 207.058594 L 238.140625 207.085938 C 238.367188 208.847656 239.128906 210.140625 240.160156 210.523438 L 240.164062 210.527344 L 240.148438 210.53125 C 239.117188 210.921875 238.363281 212.222656 238.136719 213.984375 L 238.136719 213.996094 L 238.132812 213.964844 C 237.90625 212.207031 237.144531 210.910156 236.113281 210.527344 L 236.109375 210.527344 L 236.125 210.519531 C 237.15625 210.128906 237.910156 208.832031 238.136719 207.066406 Z M 238.136719 207.058594 " fill-opacity="1" fill-rule="evenodd"/><path fill="#000000" d="M 237.820312 186.535156 L 237.824219 186.5625 C 238.050781 188.324219 238.8125 189.617188 239.84375 190 L 239.847656 190.003906 L 239.832031 190.007812 C 238.800781 190.398438 238.046875 191.699219 237.820312 193.460938 L 237.820312 193.472656 L 237.816406 193.441406 C 237.589844 191.683594 236.828125 190.386719 235.796875 190.003906 L 235.792969 190.003906 L 235.808594 189.996094 C 236.839844 189.605469 237.597656 188.308594 237.820312 186.542969 Z M 237.820312 186.535156 " fill-opacity="1" fill-rule="evenodd"/><path fill="#000000" d="M 187.617188 178.957031 L 187.621094 178.984375 C 187.847656 180.746094 188.609375 182.039062 189.640625 182.421875 L 189.648438 182.425781 L 189.628906 182.429688 C 188.597656 182.820312 187.84375 184.121094 187.617188 185.882812 L 187.617188 185.894531 L 187.613281 185.863281 C 187.386719 184.105469 186.625 182.808594 185.59375 182.425781 L 185.589844 182.425781 L 185.605469 182.417969 C 186.636719 182.027344 187.394531 180.730469 187.617188 178.964844 Z M 187.617188 178.957031 " fill-opacity="1" fill-rule="evenodd"/><path fill="#000000" d="M 144.992188 197.269531 L 144.996094 197.300781 C 145.222656 199.058594 145.984375 200.351562 147.015625 200.734375 L 147.019531 200.738281 L 147.003906 200.746094 C 145.972656 201.136719 145.21875 202.433594 144.992188 204.195312 L 144.992188 204.207031 L 144.988281 204.179688 C 144.761719 202.417969 144 201.125 142.96875 200.742188 L 142.964844 200.738281 L 142.980469 200.730469 C 144.011719 200.339844 144.769531 199.042969 144.992188 197.28125 Z M 144.992188 197.269531 " fill-opacity="1" fill-rule="evenodd"/><path fill="#000000" d="M 119.21875 254.425781 L 119.222656 254.457031 C 119.449219 256.214844 120.210938 257.511719 121.242188 257.894531 L 121.246094 257.894531 L 121.230469 257.902344 C 120.199219 258.292969 119.441406 259.589844 119.21875 261.355469 L 119.21875 261.363281 L 119.214844 261.335938 C 118.988281 259.574219 118.226562 258.28125 117.195312 257.898438 L 117.1875 257.894531 L 117.207031 257.890625 C 118.238281 257.5 118.992188 256.199219 119.214844 254.4375 Z M 119.21875 254.425781 " fill-opacity="1" fill-rule="evenodd"/><path fill="#000000" d="M 86.066406 253.480469 L 86.070312 253.507812 C 86.296875 255.269531 87.054688 256.5625 88.089844 256.945312 L 88.09375 256.949219 L 88.078125 256.953125 C 87.046875 257.34375 86.289062 258.644531 86.066406 260.40625 L 86.066406 260.417969 L 86.0625 260.386719 C 85.832031 258.628906 85.074219 257.332031 84.042969 256.949219 L 84.035156 256.949219 L 84.054688 256.941406 C 85.082031 256.550781 85.839844 255.253906 86.0625 253.488281 Z M 86.066406 253.480469 " fill-opacity="1" fill-rule="evenodd"/></svg>