<svg xmlns="http://www.w3.org/2000/svg" xmlns:xlink="http://www.w3.org/1999/xlink" width="500" zoomAndPan="magnify" viewBox="0 0 375 374.999991" height="500" preserveAspectRatio="xMidYMid meet" version="1.0"><defs><clipPath id="893cd11796"><path d="M 12.105469 103 L 363 103 L 363 349 L 12.105469 349 Z M 12.105469 103 " clip-rule="nonzero"/></clipPath><clipPath id="d70e8991b5"><path d="M 228 102.398438 L 239 102.398438 L 239 120 L 228 120 Z M 228 102.398438 " clip-rule="nonzero"/></clipPath><clipPath id="5b6e2000f9"><path d="M 149 102.398438 L 160 102.398438 L 160 120 L 149 120 Z M 149 102.398438 " clip-rule="nonzero"/></clipPath></defs><path fill="#000000" d="M 318.839844 304.546875 C 321.070312 304.109375 330.570312 303.285156 332.953125 307.265625 C 333.328125 308.179688 330.441406 308.988281 326.015625 308.605469 C 325.21875 308.539062 316.832031 307.847656 316.558594 306.175781 C 316.414062 305.28125 318.246094 304.667969 318.839844 304.546875 Z M 318.839844 304.546875 " fill-opacity="1" fill-rule="evenodd"/><path stroke-linecap="butt" transform="matrix(0.122812, 0, 0, 0.122812, 12.854598, 102.411336)" fill="none" stroke-linejoin="miter" d="M 2084.773569 1977.886545 C 2084.773569 1977.886545 2025.295144 1836.06072 2239.226632 1793.089944 C 2453.158119 1750.150974 2495.779022 1612.20556 2495.779022 1612.20556 " stroke="#ffa8a7" stroke-width="1.42" stroke-opacity="1" stroke-miterlimit="2.613"/><path fill="#000000" d="M 320.992188 299.058594 C 321.871094 296.964844 324.589844 287.824219 321.171875 284.691406 C 320.351562 284.140625 318.980469 286.804688 318.460938 291.21875 C 318.367188 292.011719 317.355469 300.363281 318.941406 300.96875 C 319.789062 301.292969 320.757812 299.621094 320.992188 299.058594 Z M 320.992188 299.058594 " fill-opacity="1" fill-rule="evenodd"/><path fill="#000000" d="M 313.460938 307.792969 C 313.523438 305.519531 312.742188 296.019531 308.421875 294.332031 C 307.460938 294.117188 307.144531 297.097656 308.261719 301.402344 C 308.460938 302.175781 310.542969 310.328125 312.242188 310.316406 C 313.148438 310.308594 313.445312 308.402344 313.460938 307.792969 Z M 313.460938 307.792969 " fill-opacity="1" fill-rule="evenodd"/><path fill="#000000" d="M 310.203125 313.828125 C 312.472656 313.945312 321.882812 315.476562 323.21875 319.917969 C 323.355469 320.898438 320.359375 320.972656 316.160156 319.519531 C 315.402344 319.257812 307.445312 316.535156 307.589844 314.84375 C 307.667969 313.941406 309.59375 313.792969 310.203125 313.828125 Z M 310.203125 313.828125 " fill-opacity="1" fill-rule="evenodd"/><path fill="#000000" d="M 302.351562 315.503906 C 302.722656 313.261719 303.265625 303.746094 299.214844 301.480469 C 298.292969 301.132812 297.570312 304.042969 298.082031 308.457031 C 298.175781 309.253906 299.113281 317.613281 300.792969 317.835938 C 301.691406 317.957031 302.253906 316.105469 302.351562 315.503906 Z M 302.351562 315.503906 " fill-opacity="1" fill-rule="evenodd"/><path fill="#000000" d="M 298.894531 320.214844 C 301.128906 320.628906 310.261719 323.359375 311.015625 327.9375 C 311.027344 328.925781 308.046875 328.613281 304.070312 326.628906 C 303.351562 326.273438 295.808594 322.546875 296.171875 320.890625 C 296.367188 320.003906 298.296875 320.105469 298.894531 320.21875 Z M 298.894531 320.214844 " fill-opacity="1" fill-rule="evenodd"/><path fill="#000000" d="M 290.761719 319.660156 C 290.988281 317.398438 290.902344 307.867188 286.714844 305.871094 C 285.769531 305.585938 285.238281 308.539062 286.039062 312.90625 C 286.183594 313.695312 287.667969 321.976562 289.359375 322.089844 C 290.265625 322.148438 290.699219 320.265625 290.761719 319.660156 Z M 290.761719 319.660156 " fill-opacity="1" fill-rule="evenodd"/><path fill="#000000" d="M 285.046875 323.984375 C 287.128906 324.890625 295.410156 329.617188 295.109375 334.242188 C 294.898438 335.207031 292.066406 334.230469 288.640625 331.402344 C 288.023438 330.890625 281.515625 325.558594 282.242188 324.023438 C 282.628906 323.207031 284.488281 323.742188 285.046875 323.984375 Z M 285.046875 323.984375 " fill-opacity="1" fill-rule="evenodd"/><path fill="#000000" d="M 278.019531 324.472656 C 277.714844 322.644531 275.601562 315.160156 271.875 314.488281 C 271.070312 314.464844 271.285156 316.902344 272.855469 320.171875 C 273.136719 320.757812 276.082031 326.960938 277.4375 326.6875 C 278.164062 326.539062 278.105469 324.964844 278.019531 324.472656 Z M 278.019531 324.472656 " fill-opacity="1" fill-rule="evenodd"/><path fill="#000000" d="M 49.808594 290.09375 C 47.570312 289.699219 38.058594 289.074219 35.757812 293.101562 C 35.402344 294.023438 38.304688 294.769531 42.722656 294.296875 C 43.519531 294.214844 51.886719 293.351562 52.128906 291.671875 C 52.253906 290.773438 50.410156 290.199219 49.808594 290.09375 Z M 49.808594 290.09375 " fill-opacity="1" fill-rule="evenodd"/><path stroke-linecap="butt" transform="matrix(0.122812, 0, 0, 0.122812, 12.854598, 102.411336)" fill="none" stroke-linejoin="miter" d="M 714.41612 1851.709589 C 714.41612 1851.709589 770.936526 1708.675111 556.146259 1670.157265 C 341.355993 1631.607612 295.904298 1494.58459 295.904298 1494.58459 " stroke="#ffa8a7" stroke-width="1.42" stroke-opacity="1" stroke-miterlimit="2.613"/><path fill="#000000" d="M 47.542969 284.648438 C 46.621094 282.570312 43.714844 273.492188 47.066406 270.289062 C 47.875 269.71875 49.304688 272.355469 49.910156 276.757812 C 50.019531 277.550781 51.207031 285.878906 49.636719 286.519531 C 48.792969 286.855469 47.789062 285.207031 47.542969 284.652344 Z M 47.542969 284.648438 " fill-opacity="1" fill-rule="evenodd"/><path fill="#000000" d="M 55.253906 293.226562 C 55.144531 290.957031 55.726562 281.441406 60.015625 279.667969 C 60.972656 279.429688 61.347656 282.40625 60.320312 286.726562 C 60.136719 287.507812 58.222656 295.699219 56.527344 295.726562 C 55.621094 295.738281 55.28125 293.835938 55.253906 293.226562 Z M 55.253906 293.226562 " fill-opacity="1" fill-rule="evenodd"/><path fill="#000000" d="M 58.636719 299.191406 C 56.371094 299.359375 46.996094 301.082031 45.75 305.550781 C 45.632812 306.53125 48.628906 306.546875 52.796875 305.003906 C 53.546875 304.726562 61.453125 301.839844 61.273438 300.15625 C 61.175781 299.253906 59.246094 299.148438 58.636719 299.191406 Z M 58.636719 299.191406 " fill-opacity="1" fill-rule="evenodd"/><path fill="#000000" d="M 66.519531 300.707031 C 66.101562 298.472656 65.367188 288.96875 69.367188 286.621094 C 70.28125 286.253906 71.0625 289.148438 70.644531 293.570312 C 70.566406 294.367188 69.804688 302.746094 68.128906 303.003906 C 67.230469 303.140625 66.632812 301.304688 66.519531 300.707031 Z M 66.519531 300.707031 " fill-opacity="1" fill-rule="evenodd"/><path fill="#000000" d="M 70.078125 305.347656 C 67.851562 305.804688 58.773438 308.722656 58.117188 313.316406 C 58.125 314.304688 61.101562 313.929688 65.035156 311.867188 C 65.742188 311.492188 73.207031 307.613281 72.8125 305.964844 C 72.597656 305.082031 70.671875 305.226562 70.074219 305.347656 Z M 70.078125 305.347656 " fill-opacity="1" fill-rule="evenodd"/><path fill="#000000" d="M 78.195312 304.621094 C 77.921875 302.363281 77.8125 292.832031 81.957031 290.753906 C 82.898438 290.449219 83.488281 293.386719 82.777344 297.773438 C 82.648438 298.5625 81.335938 306.875 79.648438 307.023438 C 78.742188 307.097656 78.269531 305.226562 78.195312 304.621094 Z M 78.195312 304.621094 " fill-opacity="1" fill-rule="evenodd"/><path fill="#000000" d="M 84 308.828125 C 81.933594 309.777344 73.753906 314.671875 74.148438 319.292969 C 74.382812 320.25 77.195312 319.21875 80.558594 316.316406 C 81.167969 315.792969 87.5625 310.328125 86.804688 308.808594 C 86.398438 308 84.554688 308.574219 84 308.828125 Z M 84 308.828125 " fill-opacity="1" fill-rule="evenodd"/><path fill="#000000" d="M 91.03125 309.171875 C 91.300781 307.335938 93.261719 299.808594 96.96875 299.058594 C 97.773438 299.019531 97.609375 301.460938 96.109375 304.761719 C 95.835938 305.355469 93.023438 311.617188 91.660156 311.371094 C 90.929688 311.238281 90.957031 309.660156 91.03125 309.167969 Z M 91.03125 309.171875 " fill-opacity="1" fill-rule="evenodd"/><g clip-path="url(#893cd11796)"><path fill="#c62328" d="M 171.113281 293.757812 C 171.753906 294.90625 171.839844 294.972656 170.75 295.699219 C 169.65625 296.425781 167.390625 297.816406 160.242188 300.410156 C 153.089844 303.003906 141.050781 306.800781 124.972656 311.769531 C 108.894531 316.738281 88.773438 322.878906 76.0625 326.300781 C 63.351562 329.722656 58.046875 330.417969 53.136719 331.113281 C 48.226562 331.808594 43.710938 332.5 39.433594 333.296875 C 35.15625 334.09375 31.121094 334.996094 26.496094 336.9375 C 21.875 338.875 16.667969 341.851562 14.386719 343.550781 C 12.101562 345.25 12.738281 345.675781 13.933594 345.835938 C 15.128906 345.992188 16.882812 345.886719 18.15625 345.648438 C 19.433594 345.410156 20.230469 345.035156 21.078125 345.089844 C 21.929688 345.144531 22.832031 345.621094 24.320312 345.515625 C 25.804688 345.410156 27.878906 344.71875 29.445312 343.976562 C 31.011719 343.230469 32.074219 342.433594 34.148438 342.832031 C 36.21875 343.234375 39.300781 344.824219 41.503906 345.703125 C 43.710938 346.578125 45.039062 346.738281 46.367188 345.703125 C 47.695312 344.667969 49.023438 342.4375 50.21875 341.082031 C 51.414062 339.726562 52.476562 339.25 54.015625 338.980469 C 55.554688 338.71875 57.574219 338.664062 58.746094 338.796875 C 59.914062 338.929688 60.230469 339.25 60.683594 339.542969 C 61.132812 339.832031 61.71875 340.097656 63.046875 340.363281 C 64.375 340.628906 66.449219 340.894531 70.0625 341.425781 C 73.671875 341.957031 78.824219 342.753906 84.191406 342.515625 C 89.558594 342.277344 95.136719 341 100.582031 339.089844 C 106.027344 337.175781 111.339844 334.625 115.960938 333.21875 C 120.582031 331.8125 124.511719 331.542969 132.269531 331.757812 C 140.027344 331.96875 151.609375 332.660156 162.152344 331.625 C 172.699219 330.589844 182.210938 327.824219 187.308594 326.472656 C 192.410156 325.117188 193.101562 325.167969 196.050781 327.292969 C 198.996094 329.417969 204.203125 333.617188 212.757812 337.441406 C 221.308594 341.265625 233.210938 344.71875 240.753906 346.605469 C 248.300781 348.492188 251.488281 348.808594 262.511719 348.703125 C 273.535156 348.597656 292.394531 348.066406 307.773438 348.011719 C 323.152344 347.960938 335.054688 348.386719 343.660156 348.4375 C 352.265625 348.492188 357.578125 348.171875 360.234375 347.507812 C 362.890625 346.84375 362.890625 345.835938 362.332031 345.117188 C 361.777344 344.402344 360.660156 343.976562 358.988281 343.789062 C 357.3125 343.605469 355.082031 343.65625 353.699219 343.390625 C 352.320312 343.125 351.789062 342.542969 350.378906 341.265625 C 348.972656 339.992188 346.6875 338.027344 343.578125 337.253906 C 340.472656 336.484375 336.539062 336.910156 334.070312 336.40625 C 331.601562 335.902344 330.589844 334.464844 329.683594 332.832031 C 328.773438 331.199219 327.964844 329.367188 326.035156 328.386719 C 324.105469 327.410156 321.046875 327.289062 319.214844 328.328125 C 317.382812 329.367188 316.773438 331.566406 315.550781 332.878906 C 314.328125 334.191406 312.496094 334.621094 309.378906 334.589844 C 306.265625 334.558594 301.867188 334.070312 294.625 332.511719 C 287.386719 330.953125 277.304688 328.324219 268.355469 327.320312 C 259.402344 326.3125 251.582031 326.921875 247.1875 326.769531 C 242.785156 326.617188 241.808594 325.699219 237.289062 321.574219 C 232.765625 317.449219 224.703125 310.121094 220.601562 305.964844 C 216.5 301.808594 216.363281 300.824219 216.390625 297.023438 C 216.414062 293.222656 216.601562 286.597656 213.097656 282.535156 C 209.589844 278.476562 202.390625 276.976562 198.242188 275.921875 C 194.09375 274.867188 192.992188 274.257812 192.109375 273.25 C 191.222656 272.238281 190.550781 270.835938 190.917969 268.511719 C 191.28125 266.191406 192.6875 262.953125 195.988281 259.257812 C 199.285156 255.5625 204.480469 251.40625 207.535156 247.679688 C 210.589844 243.953125 211.507812 240.652344 211.78125 236.011719 C 212.054688 231.367188 211.6875 225.378906 211.230469 221.164062 C 210.773438 216.949219 210.222656 214.503906 210.34375 213.3125 C 210.46875 212.121094 211.261719 212.183594 213.613281 212.152344 C 215.964844 212.121094 219.878906 212 222.992188 209.160156 C 226.109375 206.316406 228.429688 200.757812 228.886719 196.207031 C 229.347656 191.65625 227.941406 188.109375 225.984375 185.851562 C 224.03125 183.589844 221.523438 182.613281 219.511719 182.429688 C 217.492188 182.246094 215.964844 182.855469 213.246094 184.019531 C 210.527344 185.179688 206.617188 186.890625 204.265625 187.929688 C 201.914062 188.96875 201.121094 189.332031 200.722656 189.121094 C 200.328125 188.90625 200.328125 188.109375 200.050781 186.339844 C 199.777344 184.566406 199.226562 181.816406 199.441406 177.054688 C 199.652344 172.289062 200.632812 165.507812 200.292969 158.816406 C 199.960938 152.125 198.308594 145.527344 197.636719 141.769531 C 196.964844 138.011719 197.269531 137.097656 198.921875 134.988281 C 200.570312 132.882812 203.5625 129.582031 204.96875 126.589844 C 206.375 123.59375 206.191406 120.90625 205.488281 120.355469 C 204.785156 119.804688 203.5625 121.394531 202.617188 122.738281 C 201.671875 124.085938 201 125.183594 200.722656 124.878906 C 200.449219 124.570312 200.570312 122.859375 200.417969 119.59375 C 200.265625 116.324219 199.835938 111.5 199.5 108.566406 C 199.164062 105.632812 198.921875 104.59375 198.21875 104.074219 C 197.515625 103.554688 196.355469 103.554688 195.558594 103.890625 C 194.765625 104.226562 194.339844 104.898438 193.023438 107.40625 C 191.710938 109.910156 189.511719 114.246094 188.503906 116.753906 C 187.496094 119.257812 187.679688 119.929688 187.953125 123.289062 C 188.226562 126.648438 188.59375 132.699219 188.535156 138.011719 C 188.472656 143.328125 187.984375 147.910156 188.015625 156.523438 C 188.046875 165.140625 188.59375 177.785156 188.871094 185.453125 C 189.144531 193.121094 189.144531 195.808594 189.023438 200.300781 C 188.898438 204.789062 188.65625 211.082031 188.320312 214.257812 C 187.984375 217.4375 187.554688 217.496094 184.257812 218.839844 C 180.957031 220.1875 174.785156 222.8125 170.753906 226.019531 C 166.722656 229.226562 164.828125 233.015625 164.738281 236.285156 C 164.644531 239.550781 166.355469 242.300781 167.242188 243.921875 C 168.128906 245.539062 168.1875 246.027344 167.699219 248.777344 C 167.210938 251.527344 166.171875 256.539062 166.140625 263.472656 C 166.109375 270.40625 167.089844 279.265625 168.179688 284.8125 C 169.265625 290.363281 170.46875 292.601562 171.113281 293.753906 Z M 171.113281 293.757812 " fill-opacity="1" fill-rule="evenodd"/></g><path fill="#000000" d="M 217.761719 182.230469 C 218.738281 181.769531 220.441406 180.914062 223.175781 180.855469 C 225.910156 180.792969 229.679688 181.527344 232.457031 183.992188 C 235.234375 186.460938 237.019531 190.660156 237.980469 194.265625 C 238.945312 197.871094 239.078125 200.878906 238.96875 202.839844 C 238.851562 204.796875 238.488281 205.710938 238.441406 206.394531 C 238.398438 207.078125 238.671875 207.535156 239.082031 207.828125 C 239.492188 208.125 240.039062 208.261719 240.996094 207.945312 C 241.953125 207.625 243.320312 206.851562 245.714844 206.988281 C 248.109375 207.125 251.527344 208.171875 254.578125 212 C 257.632812 215.832031 260.324219 222.441406 260.664062 229.6875 C 261.007812 236.9375 259 244.824219 257.042969 249.746094 C 255.082031 254.671875 253.167969 256.628906 251.367188 259.980469 C 249.566406 263.332031 247.878906 268.070312 247.378906 272.21875 C 246.875 276.367188 247.558594 279.925781 248.699219 282.589844 C 249.839844 285.257812 251.433594 287.035156 253.691406 288.152344 C 255.945312 289.269531 258.863281 289.726562 259.957031 289.953125 C 261.050781 290.183594 260.324219 290.183594 257.0625 290.292969 C 253.804688 290.410156 248.015625 290.636719 242.386719 290.089844 C 236.753906 289.542969 231.285156 288.21875 226.976562 282.703125 C 222.667969 277.1875 219.523438 267.480469 218.132812 259.296875 C 216.742188 251.113281 217.109375 244.457031 218.222656 238.964844 C 219.339844 233.472656 221.210938 229.140625 223.191406 225.652344 C 225.175781 222.164062 227.273438 219.523438 228.160156 218.335938 C 229.050781 217.152344 228.730469 217.425781 227.089844 217.996094 C 225.449219 218.566406 222.488281 219.433594 219.796875 219.113281 C 217.109375 218.792969 214.691406 217.289062 212.84375 215.671875 C 211 214.050781 209.722656 212.320312 209.195312 211.433594 C 208.671875 210.542969 208.902344 210.496094 209.46875 210.632812 C 210.039062 210.765625 210.945312 211.078125 212.003906 211.230469 C 213.0625 211.378906 214.269531 211.371094 215.308594 210.90625 C 216.347656 210.441406 217.222656 209.515625 217.691406 208.679688 C 218.15625 207.839844 218.214844 207.082031 217.847656 206.390625 C 217.480469 205.695312 216.691406 205.066406 215.582031 204.699219 C 214.476562 204.332031 213.054688 204.226562 212.007812 204.113281 C 210.957031 204 210.28125 203.878906 210.464844 203.757812 C 210.648438 203.636719 211.695312 203.519531 212.839844 203.214844 C 213.980469 202.90625 215.222656 202.414062 216.375 201.300781 C 217.53125 200.1875 218.59375 198.453125 219.441406 196.609375 C 220.289062 194.765625 220.921875 192.816406 221.234375 191.277344 C 221.550781 189.738281 221.550781 188.617188 221.351562 187.453125 C 221.15625 186.289062 220.761719 185.089844 219.882812 184.3125 C 219.007812 183.535156 217.648438 183.179688 217.089844 182.972656 C 216.535156 182.761719 216.785156 182.691406 217.757812 182.230469 Z M 217.761719 182.230469 " fill-opacity="1" fill-rule="evenodd"/><path fill="#000000" d="M 109.992188 269.039062 L 110.015625 269.199219 C 111.210938 278.429688 115.191406 285.207031 120.597656 287.214844 L 120.628906 287.226562 L 120.539062 287.261719 C 115.140625 289.308594 111.175781 296.117188 110 305.355469 L 109.992188 305.410156 L 109.972656 305.25 C 108.773438 296.019531 104.792969 289.246094 99.386719 287.238281 L 99.355469 287.222656 L 99.449219 287.1875 C 104.847656 285.140625 108.8125 278.332031 109.984375 269.09375 Z M 109.992188 269.039062 " fill-opacity="1" fill-rule="evenodd"/><path fill="#000000" d="M 119.046875 262.34375 L 119.054688 262.417969 C 119.625 266.796875 121.511719 270.011719 124.078125 270.964844 L 124.09375 270.972656 L 124.046875 270.988281 C 121.484375 271.960938 119.605469 275.191406 119.046875 279.574219 L 119.042969 279.601562 L 119.035156 279.527344 C 118.464844 275.148438 116.578125 271.933594 114.011719 270.980469 L 113.996094 270.972656 L 114.042969 270.957031 C 116.605469 269.984375 118.484375 266.753906 119.042969 262.371094 Z M 119.046875 262.34375 " fill-opacity="1" fill-rule="evenodd"/><path fill="#000000" d="M 281.574219 275.242188 L 281.582031 275.316406 C 282.152344 279.695312 284.039062 282.910156 286.605469 283.863281 L 286.621094 283.867188 L 286.574219 283.886719 C 284.011719 284.859375 282.132812 288.085938 281.574219 292.472656 L 281.570312 292.496094 L 281.5625 292.421875 C 280.992188 288.042969 279.105469 284.828125 276.539062 283.875 L 276.527344 283.867188 L 276.570312 283.851562 C 279.132812 282.878906 281.011719 279.652344 281.570312 275.265625 Z M 281.574219 275.242188 " fill-opacity="1" fill-rule="evenodd"/><path fill="#000000" d="M 138.167969 315.347656 L 138.175781 315.394531 C 138.53125 318.121094 139.707031 320.125 141.304688 320.71875 L 141.3125 320.722656 L 141.285156 320.730469 C 139.691406 321.335938 138.519531 323.347656 138.171875 326.078125 L 138.171875 326.09375 L 138.164062 326.046875 C 137.8125 323.320312 136.632812 321.316406 135.035156 320.726562 L 135.027344 320.722656 L 135.054688 320.710938 C 136.648438 320.105469 137.820312 318.09375 138.167969 315.363281 Z M 138.167969 315.347656 " fill-opacity="1" fill-rule="evenodd"/><path fill="#000000" d="M 193.789062 286.207031 C 194.082031 286.207031 194.375 286.21875 194.664062 286.242188 C 191.984375 288.269531 190.253906 291.480469 190.253906 295.097656 C 190.253906 300.9375 194.757812 305.71875 200.480469 306.164062 C 198.621094 307.574219 196.300781 308.410156 193.785156 308.410156 C 187.65625 308.410156 182.683594 303.441406 182.683594 297.308594 C 182.683594 291.175781 187.65625 286.207031 193.785156 286.207031 Z M 193.789062 286.207031 " fill-opacity="1" fill-rule="evenodd"/><path fill="#000000" d="M 198.261719 287.300781 L 198.265625 287.347656 C 198.621094 290.074219 199.796875 292.078125 201.394531 292.671875 L 201.40625 292.675781 L 201.378906 292.683594 C 199.78125 293.289062 198.609375 295.300781 198.265625 298.03125 L 198.261719 298.046875 L 198.257812 298 C 197.902344 295.273438 196.726562 293.273438 195.128906 292.679688 L 195.117188 292.675781 L 195.144531 292.664062 C 196.742188 292.058594 197.910156 290.046875 198.257812 287.316406 Z M 198.261719 287.300781 " fill-opacity="1" fill-rule="evenodd"/><path fill="#000000" d="M 173.542969 259.382812 L 173.546875 259.410156 C 173.742188 260.902344 174.386719 261.996094 175.257812 262.320312 L 175.261719 262.320312 L 175.25 262.328125 C 174.375 262.660156 173.734375 263.757812 173.542969 265.253906 L 173.542969 265.261719 L 173.539062 265.234375 C 173.347656 263.742188 172.703125 262.648438 171.828125 262.324219 L 171.824219 262.320312 L 171.839844 262.316406 C 172.710938 261.984375 173.351562 260.882812 173.542969 259.390625 Z M 173.542969 259.382812 " fill-opacity="1" fill-rule="evenodd"/><path fill="#000000" d="M 176.265625 277.589844 L 176.269531 277.613281 C 176.464844 279.105469 177.109375 280.199219 177.980469 280.523438 L 177.988281 280.527344 L 177.972656 280.535156 C 177.101562 280.863281 176.460938 281.964844 176.269531 283.457031 L 176.265625 283.464844 L 176.265625 283.441406 C 176.070312 281.949219 175.425781 280.855469 174.554688 280.53125 L 174.546875 280.527344 L 174.5625 280.519531 C 175.433594 280.191406 176.074219 279.089844 176.265625 277.597656 Z M 176.265625 277.589844 " fill-opacity="1" fill-rule="evenodd"/><path fill="#000000" d="M 184.550781 267.59375 L 184.554688 267.621094 C 184.75 269.113281 185.394531 270.207031 186.265625 270.53125 L 186.273438 270.53125 L 186.257812 270.539062 C 185.386719 270.871094 184.742188 271.96875 184.554688 273.464844 L 184.550781 273.472656 L 184.546875 273.445312 C 184.355469 271.953125 183.710938 270.859375 182.839844 270.535156 L 182.832031 270.53125 L 182.847656 270.527344 C 183.71875 270.195312 184.359375 269.097656 184.550781 267.601562 Z M 184.550781 267.59375 " fill-opacity="1" fill-rule="evenodd"/><path fill="#000000" d="M 193.910156 243.464844 L 193.914062 243.492188 C 194.109375 244.984375 194.753906 246.078125 195.625 246.402344 L 195.628906 246.402344 L 195.617188 246.410156 C 194.742188 246.742188 194.101562 247.839844 193.914062 249.335938 L 193.910156 249.34375 L 193.910156 249.316406 C 193.714844 247.824219 193.070312 246.730469 192.199219 246.40625 L 192.191406 246.402344 L 192.207031 246.398438 C 193.078125 246.066406 193.71875 244.96875 193.910156 243.472656 Z M 193.910156 243.464844 " fill-opacity="1" fill-rule="evenodd"/><path fill="#000000" d="M 235.261719 328.25 L 235.269531 328.296875 C 235.621094 331.023438 236.800781 333.027344 238.398438 333.621094 L 238.40625 333.621094 L 238.378906 333.632812 C 236.785156 334.238281 235.613281 336.25 235.265625 338.980469 L 235.265625 338.996094 L 235.257812 338.949219 C 234.90625 336.222656 233.726562 334.21875 232.128906 333.625 L 232.121094 333.621094 L 232.148438 333.613281 C 233.742188 333.007812 234.914062 330.996094 235.261719 328.265625 Z M 235.261719 328.25 " fill-opacity="1" fill-rule="evenodd"/><path fill="#000000" d="M 152.824219 313.515625 L 152.828125 313.542969 C 153.023438 315.035156 153.667969 316.128906 154.539062 316.453125 L 154.542969 316.453125 L 154.53125 316.460938 C 153.65625 316.792969 153.015625 317.890625 152.828125 319.386719 L 152.824219 319.394531 L 152.820312 319.367188 C 152.628906 317.875 151.984375 316.78125 151.109375 316.457031 L 151.105469 316.453125 L 151.121094 316.449219 C 151.992188 316.117188 152.632812 315.019531 152.824219 313.523438 Z M 152.824219 313.515625 " fill-opacity="1" fill-rule="evenodd"/><path fill="#000000" d="M 121.53125 320.996094 L 121.535156 321.023438 C 121.730469 322.515625 122.375 323.609375 123.246094 323.933594 L 123.25 323.933594 L 123.238281 323.941406 C 122.363281 324.273438 121.722656 325.371094 121.535156 326.867188 L 121.53125 326.875 L 121.527344 326.847656 C 121.335938 325.355469 120.691406 324.261719 119.816406 323.9375 L 119.8125 323.933594 L 119.828125 323.929688 C 120.699219 323.597656 121.339844 322.5 121.53125 321.003906 Z M 121.53125 320.996094 " fill-opacity="1" fill-rule="evenodd"/><path fill="#000000" d="M 224.085938 324.679688 L 224.089844 324.703125 C 224.285156 326.195312 224.925781 327.289062 225.800781 327.613281 L 225.804688 327.617188 L 225.789062 327.625 C 224.917969 327.953125 224.277344 329.054688 224.089844 330.546875 L 224.085938 330.554688 L 224.082031 330.53125 C 223.890625 329.039062 223.246094 327.945312 222.371094 327.621094 L 222.367188 327.617188 L 222.382812 327.609375 C 223.253906 327.28125 223.894531 326.179688 224.085938 324.6875 Z M 224.085938 324.679688 " fill-opacity="1" fill-rule="evenodd"/><path fill="#000000" d="M 247.09375 334.636719 L 247.097656 334.664062 C 247.292969 336.15625 247.9375 337.25 248.808594 337.574219 L 248.8125 337.578125 L 248.800781 337.582031 C 247.925781 337.914062 247.285156 339.011719 247.097656 340.507812 L 247.09375 340.515625 L 247.089844 340.488281 C 246.898438 338.996094 246.253906 337.902344 245.378906 337.578125 L 245.375 337.578125 L 245.390625 337.570312 C 246.261719 337.238281 246.902344 336.140625 247.09375 334.644531 Z M 247.09375 334.636719 " fill-opacity="1" fill-rule="evenodd"/><path fill="#000000" d="M 298.53125 245.53125 L 298.554688 245.6875 C 299.75 254.917969 303.730469 261.695312 309.136719 263.703125 L 309.167969 263.714844 L 309.078125 263.75 C 303.679688 265.800781 299.714844 272.605469 298.539062 281.84375 L 298.53125 281.898438 L 298.511719 281.742188 C 297.3125 272.511719 293.332031 265.734375 287.925781 263.726562 L 287.894531 263.714844 L 287.988281 263.679688 C 293.386719 261.628906 297.351562 254.824219 298.523438 245.585938 Z M 298.53125 245.53125 " fill-opacity="1" fill-rule="evenodd"/><path fill="#000000" d="M 194.636719 107.628906 C 209.699219 107.628906 223.355469 108.601562 233.25 110.171875 C 243.421875 111.785156 249.714844 114.152344 249.714844 116.878906 C 249.714844 119.605469 243.421875 121.96875 233.25 123.582031 C 225.734375 124.777344 216.050781 125.625 205.226562 125.964844 C 205.371094 125.601562 205.542969 125.144531 205.660156 124.75 C 216.253906 124.402344 225.714844 123.570312 233.0625 122.402344 C 242.609375 120.886719 248.511719 118.925781 248.511719 116.875 C 248.511719 114.828125 242.609375 112.867188 233.0625 111.351562 C 223.242188 109.792969 209.65625 108.828125 194.636719 108.828125 C 179.613281 108.828125 166.027344 109.792969 156.207031 111.351562 C 146.664062 112.867188 140.757812 114.828125 140.757812 116.875 C 140.757812 118.925781 146.664062 120.886719 156.207031 122.402344 C 164.574219 123.730469 175.675781 124.625 188.066406 124.863281 L 188.148438 126.066406 C 175.671875 125.828125 164.472656 124.925781 156.019531 123.582031 C 145.847656 121.96875 139.554688 119.605469 139.554688 116.878906 C 139.554688 114.152344 145.847656 111.785156 156.019531 110.171875 C 165.917969 108.601562 179.570312 107.628906 194.632812 107.628906 Z M 194.636719 107.628906 " fill-opacity="1" fill-rule="nonzero"/><g clip-path="url(#d70e8991b5)"><path fill="#000000" d="M 234.960938 102.410156 L 234.960938 102.488281 C 234.84375 106.902344 236.214844 110.371094 238.601562 111.707031 L 238.617188 111.714844 L 238.570312 111.726562 C 235.890625 112.289062 233.53125 115.191406 232.304688 119.4375 L 232.296875 119.460938 L 232.300781 119.386719 C 232.414062 114.96875 231.042969 111.5 228.65625 110.164062 L 228.644531 110.15625 L 228.6875 110.148438 C 231.371094 109.582031 233.726562 106.683594 234.953125 102.4375 L 234.960938 102.414062 Z M 234.960938 102.410156 " fill-opacity="1" fill-rule="evenodd"/></g><g clip-path="url(#5b6e2000f9)"><path fill="#000000" d="M 152.898438 102.867188 L 152.902344 102.945312 C 153.015625 107.359375 151.644531 110.828125 149.261719 112.164062 L 149.246094 112.171875 L 149.289062 112.183594 C 151.972656 112.746094 154.328125 115.648438 155.554688 119.890625 L 155.5625 119.917969 L 155.5625 119.84375 C 155.445312 115.425781 156.816406 111.957031 159.203125 110.621094 L 159.21875 110.613281 L 159.171875 110.605469 C 156.492188 110.039062 154.132812 107.140625 152.90625 102.894531 L 152.898438 102.871094 Z M 152.898438 102.867188 " fill-opacity="1" fill-rule="evenodd"/></g><path fill="#000000" d="M 267.675781 335.175781 L 267.679688 335.199219 C 267.871094 336.691406 268.515625 337.789062 269.390625 338.113281 L 269.394531 338.113281 L 269.378906 338.121094 C 268.507812 338.453125 267.867188 339.550781 267.675781 341.042969 L 267.675781 341.054688 L 267.671875 341.027344 C 267.476562 339.535156 266.835938 338.441406 265.960938 338.117188 L 265.957031 338.113281 L 265.972656 338.109375 C 266.84375 337.777344 267.484375 336.675781 267.675781 335.183594 Z M 267.675781 335.175781 " fill-opacity="1" fill-rule="evenodd"/><path stroke-linecap="butt" transform="matrix(0.122812, 0, 0, 0.122812, 12.854598, 102.411336)" fill="none" stroke-linejoin="miter" d="M 2127.076405 1925.882682 L 2359.869232 1943.980663 " stroke="#ffa8a7" stroke-width="1.42" stroke-opacity="1" stroke-miterlimit="2.613"/><path fill="#000000" d="M 311.75 338.730469 L 311.753906 338.757812 C 311.945312 340.25 312.589844 341.34375 313.464844 341.667969 L 313.46875 341.671875 L 313.453125 341.675781 C 312.582031 342.007812 311.941406 343.109375 311.75 344.601562 L 311.75 344.609375 L 311.746094 344.582031 C 311.550781 343.089844 310.90625 341.996094 310.035156 341.671875 L 310.03125 341.671875 L 310.042969 341.664062 C 310.917969 341.332031 311.558594 340.234375 311.746094 338.742188 Z M 311.75 338.730469 " fill-opacity="1" fill-rule="evenodd"/><path stroke-linecap="butt" transform="matrix(0.122812, 0, 0, 0.122812, 12.854598, 102.411336)" fill="none" stroke-linejoin="miter" d="M 1474.690331 373.813877 L 1474.690331 599.513822 " stroke="#ffa8a7" stroke-width="1.42" stroke-opacity="1" stroke-miterlimit="2.613"/><path stroke-linecap="butt" transform="matrix(0.122812, 0, 0, 0.122812, 12.854598, 102.411336)" fill="none" stroke-linejoin="miter" d="M 737.285097 1827.886412 L 510.058432 1885.774504 " stroke="#ffa8a7" stroke-width="1.42" stroke-opacity="1" stroke-miterlimit="2.613"/><path fill="#000000" d="M 107.976562 321.933594 L 107.980469 321.957031 C 108.175781 323.449219 108.816406 324.542969 109.691406 324.867188 L 109.695312 324.871094 L 109.679688 324.878906 C 108.808594 325.207031 108.167969 326.308594 107.976562 327.800781 L 107.976562 327.808594 L 107.972656 327.785156 C 107.777344 326.292969 107.136719 325.199219 106.261719 324.875 L 106.257812 324.871094 L 106.273438 324.863281 C 107.144531 324.535156 107.785156 323.433594 107.976562 321.941406 Z M 107.976562 321.933594 " fill-opacity="1" fill-rule="evenodd"/><path fill="#000000" d="M 68.863281 331.234375 L 68.867188 331.261719 C 69.0625 332.753906 69.703125 333.847656 70.578125 334.171875 L 70.582031 334.171875 L 70.566406 334.179688 C 69.695312 334.511719 69.054688 335.609375 68.863281 337.101562 L 68.863281 337.113281 L 68.859375 337.085938 C 68.664062 335.59375 68.023438 334.5 67.148438 334.175781 L 67.144531 334.171875 L 67.160156 334.167969 C 68.03125 333.835938 68.671875 332.734375 68.863281 331.242188 Z M 68.863281 331.234375 " fill-opacity="1" fill-rule="evenodd"/><path fill="#000000" d="M 193.875 180.273438 L 193.878906 180.300781 C 194.070312 181.792969 194.714844 182.886719 195.589844 183.210938 L 195.59375 183.214844 L 195.578125 183.21875 C 194.707031 183.550781 194.066406 184.648438 193.875 186.144531 L 193.875 186.152344 L 193.871094 186.125 C 193.675781 184.632812 193.035156 183.539062 192.160156 183.214844 L 192.15625 183.214844 L 192.171875 183.207031 C 193.042969 182.875 193.683594 181.777344 193.875 180.28125 Z M 193.875 180.273438 " fill-opacity="1" fill-rule="evenodd"/><path fill="#000000" d="M 193.554688 138.835938 L 193.558594 138.863281 C 193.753906 140.355469 194.398438 141.449219 195.269531 141.773438 L 195.273438 141.773438 L 195.261719 141.78125 C 194.386719 142.113281 193.746094 143.210938 193.558594 144.707031 L 193.554688 144.714844 L 193.550781 144.6875 C 193.359375 143.195312 192.714844 142.101562 191.839844 141.777344 L 191.835938 141.773438 L 191.851562 141.769531 C 192.722656 141.4375 193.363281 140.339844 193.554688 138.84375 Z M 193.554688 138.835938 " fill-opacity="1" fill-rule="evenodd"/><path fill="#000000" d="M 177.167969 232.777344 L 177.171875 232.804688 C 177.367188 234.296875 178.011719 235.390625 178.882812 235.714844 L 178.886719 235.71875 L 178.875 235.722656 C 178 236.054688 177.359375 237.15625 177.171875 238.648438 L 177.167969 238.65625 L 177.164062 238.632812 C 176.972656 237.140625 176.328125 236.042969 175.453125 235.71875 L 175.449219 235.71875 L 175.464844 235.710938 C 176.335938 235.378906 176.976562 234.28125 177.167969 232.789062 Z M 177.167969 232.777344 " fill-opacity="1" fill-rule="evenodd"/><path fill="#000000" d="M 202.300781 222.683594 L 202.300781 222.710938 C 202.496094 224.203125 203.140625 225.296875 204.011719 225.621094 L 204.019531 225.621094 L 204.003906 225.628906 C 203.132812 225.960938 202.492188 227.058594 202.300781 228.554688 L 202.300781 228.5625 L 202.296875 228.535156 C 202.101562 227.042969 201.457031 225.949219 200.585938 225.625 L 200.582031 225.621094 L 200.59375 225.617188 C 201.46875 225.285156 202.109375 224.1875 202.300781 222.691406 Z M 202.300781 222.683594 " fill-opacity="1" fill-rule="evenodd"/><path fill="#000000" d="M 207.132812 191.863281 L 207.136719 191.890625 C 207.328125 193.382812 207.972656 194.476562 208.847656 194.800781 L 208.851562 194.800781 L 208.835938 194.808594 C 207.964844 195.140625 207.324219 196.238281 207.132812 197.730469 L 207.132812 197.742188 L 207.128906 197.714844 C 206.933594 196.222656 206.289062 195.128906 205.417969 194.804688 L 205.414062 194.800781 L 205.425781 194.796875 C 206.300781 194.464844 206.941406 193.363281 207.128906 191.871094 Z M 207.132812 191.863281 " fill-opacity="1" fill-rule="evenodd"/><path fill="#000000" d="M 195.429688 203.007812 L 195.433594 203.035156 C 195.628906 204.527344 196.273438 205.621094 197.144531 205.945312 L 197.152344 205.949219 L 197.136719 205.953125 C 196.261719 206.285156 195.621094 207.386719 195.433594 208.878906 L 195.429688 208.886719 L 195.425781 208.863281 C 195.234375 207.371094 194.589844 206.273438 193.714844 205.949219 L 193.710938 205.949219 L 193.726562 205.941406 C 194.601562 205.609375 195.238281 204.511719 195.429688 203.019531 Z M 195.429688 203.007812 " fill-opacity="1" fill-rule="evenodd"/></svg>