<svg xmlns="http://www.w3.org/2000/svg" xmlns:xlink="http://www.w3.org/1999/xlink" width="500" zoomAndPan="magnify" viewBox="0 0 375 374.999991" height="500" preserveAspectRatio="xMidYMid meet" version="1.0"><defs><clipPath id="b1a73e0cfc"><path d="M 88 194 L 184 194 L 184 365.078125 L 88 365.078125 Z M 88 194 " clip-rule="nonzero"/></clipPath><clipPath id="5aafe73d35"><path d="M 121 32.078125 L 345.273438 32.078125 L 345.273438 365 L 121 365 Z M 121 32.078125 " clip-rule="nonzero"/></clipPath><clipPath id="49f396f7ab"><path d="M 120 32.078125 L 345.273438 32.078125 L 345.273438 365.078125 L 120 365.078125 Z M 120 32.078125 " clip-rule="nonzero"/></clipPath></defs><path fill="#000000" d="M 273.660156 259.730469 C 273.660156 259.730469 287.121094 205.652344 271.832031 205.644531 C 256.542969 205.632812 273.558594 239.789062 273.660156 259.730469 Z M 273.660156 259.730469 " fill-opacity="1" fill-rule="evenodd"/><path stroke-linecap="butt" transform="matrix(0.068047, 0, 0, 0.068047, 43.215698, 32.417536)" fill="none" stroke-linejoin="miter" d="M 3410.140061 3163.603879 C 3410.140061 3163.603879 3274.77873 4443.623791 2488.672681 4836.447195 " stroke="#ffa8a7" stroke-width="2.44" stroke-opacity="1" stroke-miterlimit="2.613"/><path fill="#000000" d="M 266.050781 289.226562 C 266.050781 289.226562 265.671875 233.5 250.859375 237.28125 C 236.046875 241.066406 261.003906 269.933594 266.050781 289.226562 Z M 266.050781 289.226562 " fill-opacity="1" fill-rule="evenodd"/><path stroke-linecap="butt" transform="matrix(0.068047, 0, 0, 0.068047, 43.215698, 32.417536)" fill="none" stroke-linejoin="miter" d="M 3265.192071 3792.075401 C 3265.192071 3792.075401 3456.178987 3676.34663 3559.967488 3483.006103 " stroke="#ffa8a7" stroke-width="2.44" stroke-opacity="1" stroke-miterlimit="2.613"/><path fill="#000000" d="M 251.226562 323.082031 C 251.226562 323.082031 245.222656 267.679688 230.867188 272.941406 C 216.511719 278.199219 244.257812 304.398438 251.226562 323.082031 Z M 251.226562 323.082031 " fill-opacity="1" fill-rule="evenodd"/><path fill="#000000" d="M 274.230469 284.132812 C 274.230469 284.132812 315.394531 252.824219 304.339844 243.933594 C 293.28125 235.042969 285.746094 269.644531 274.230469 284.132812 Z M 274.230469 284.132812 " fill-opacity="1" fill-rule="evenodd"/><path stroke-linecap="butt" transform="matrix(0.068047, 0, 0, 0.068047, 43.215698, 32.417536)" fill="none" stroke-linejoin="miter" d="M 2633.965102 4749.191375 C 2633.965102 4749.191375 2731.496442 4662.739228 2685.113086 4558.20446 " stroke="#ffa8a7" stroke-width="2.44" stroke-opacity="1" stroke-miterlimit="2.613"/><path fill="#000000" d="M 227.207031 346.746094 C 227.207031 346.746094 221.03125 300.816406 209.210938 305.496094 C 197.390625 310.175781 221.015625 331.363281 227.207031 346.746094 Z M 227.207031 346.746094 " fill-opacity="1" fill-rule="evenodd"/><path stroke-linecap="butt" transform="matrix(0.068047, 0, 0, 0.068047, 43.215698, 32.417536)" fill="none" stroke-linejoin="miter" d="M 2977.764512 4384.553898 C 2977.764512 4384.553898 3192.115322 4322.039695 3342.344585 4162.051557 " stroke="#ffa8a7" stroke-width="2.44" stroke-opacity="1" stroke-miterlimit="2.613"/><path fill="#000000" d="M 256.003906 326.941406 C 256.003906 326.941406 303.859375 307.324219 295.472656 295.878906 C 287.085938 284.4375 270.871094 315.917969 256.003906 326.941406 Z M 256.003906 326.941406 " fill-opacity="1" fill-rule="evenodd"/><path stroke-linecap="butt" transform="matrix(0.068047, 0, 0, 0.068047, 43.215698, 32.417536)" fill="none" stroke-linejoin="miter" d="M 2782.701831 4623.588919 C 2782.701831 4623.588919 2945.617631 4651.545225 3097.511644 4593.853054 " stroke="#ffa8a7" stroke-width="2.44" stroke-opacity="1" stroke-miterlimit="2.613"/><path fill="#000000" d="M 240.574219 347.789062 C 240.574219 347.789062 278.789062 350.257812 276.921875 339.917969 C 275.050781 329.582031 254.046875 345.273438 240.574219 347.789062 Z M 240.574219 347.789062 " fill-opacity="1" fill-rule="evenodd"/><path fill="#000000" d="M 91.824219 212.78125 C 91.824219 212.78125 71.734375 132.058594 94.554688 132.042969 C 117.378906 132.03125 91.976562 183.015625 91.824219 212.78125 Z M 91.824219 212.78125 " fill-opacity="1" fill-rule="evenodd"/><g clip-path="url(#b1a73e0cfc)"><path stroke-linecap="butt" transform="matrix(0.068047, 0, 0, 0.068047, 43.215698, 32.417536)" fill="none" stroke-linejoin="miter" d="M 679.147716 2386.510438 C 679.147716 2386.510438 881.213825 4297.183268 2054.632383 4883.576819 " stroke="#ffa8a7" stroke-width="2.44" stroke-opacity="1" stroke-miterlimit="2.613"/></g><path fill="#000000" d="M 103.1875 256.808594 C 103.1875 256.808594 103.75 173.625 125.863281 179.273438 C 147.972656 184.921875 110.71875 228.011719 103.1875 256.808594 Z M 103.1875 256.808594 " fill-opacity="1" fill-rule="evenodd"/><path stroke-linecap="butt" transform="matrix(0.068047, 0, 0, 0.068047, 43.215698, 32.417536)" fill="none" stroke-linejoin="miter" d="M 895.507706 3324.567904 C 895.507706 3324.567904 610.433758 3151.893229 455.497273 2863.202758 " stroke="#ffa8a7" stroke-width="2.44" stroke-opacity="1" stroke-miterlimit="2.613"/><path fill="#000000" d="M 125.3125 307.347656 C 125.3125 307.347656 134.277344 224.648438 155.707031 232.5 C 177.132812 240.355469 135.714844 279.457031 125.3125 307.347656 Z M 125.3125 307.347656 " fill-opacity="1" fill-rule="evenodd"/><path fill="#000000" d="M 90.972656 249.207031 C 90.972656 249.207031 29.527344 202.472656 46.03125 189.199219 C 62.535156 175.929688 73.785156 227.582031 90.972656 249.207031 Z M 90.972656 249.207031 " fill-opacity="1" fill-rule="evenodd"/><path stroke-linecap="butt" transform="matrix(0.068047, 0, 0, 0.068047, 43.215698, 32.417536)" fill="none" stroke-linejoin="miter" d="M 1837.755747 4753.324546 C 1837.755747 4753.324546 1692.233706 4624.277781 1761.46431 4468.250598 " stroke="#ffa8a7" stroke-width="2.44" stroke-opacity="1" stroke-miterlimit="2.613"/><path fill="#000000" d="M 161.167969 342.671875 C 161.167969 342.671875 170.386719 274.109375 188.03125 281.097656 C 205.679688 288.082031 170.410156 319.707031 161.167969 342.671875 Z M 161.167969 342.671875 " fill-opacity="1" fill-rule="evenodd"/><path stroke-linecap="butt" transform="matrix(0.068047, 0, 0, 0.068047, 43.215698, 32.417536)" fill="none" stroke-linejoin="miter" d="M 1324.553756 4209.008966 C 1324.553756 4209.008966 1004.57748 4115.725606 780.352986 3876.920205 " stroke="#ffa8a7" stroke-width="2.44" stroke-opacity="1" stroke-miterlimit="2.613"/><path fill="#000000" d="M 118.179688 313.113281 C 118.179688 313.113281 46.746094 283.828125 59.265625 266.746094 C 71.785156 249.660156 95.988281 296.65625 118.179688 313.113281 Z M 118.179688 313.113281 " fill-opacity="1" fill-rule="evenodd"/><path stroke-linecap="butt" transform="matrix(0.068047, 0, 0, 0.068047, 43.215698, 32.417536)" fill="none" stroke-linejoin="miter" d="M 1615.770054 4565.839344 C 1615.770054 4565.839344 1372.544456 4607.630289 1145.794136 4521.407762 " stroke="#ffa8a7" stroke-width="2.44" stroke-opacity="1" stroke-miterlimit="2.613"/><path fill="#000000" d="M 141.214844 344.230469 C 141.214844 344.230469 84.167969 347.914062 86.960938 332.480469 C 89.75 317.050781 121.105469 340.476562 141.214844 344.230469 Z M 141.214844 344.230469 " fill-opacity="1" fill-rule="evenodd"/><path fill="#000000" d="M 251.839844 124.566406 C 252.078125 126.488281 252.3125 129.554688 253 131.792969 C 253.6875 134.035156 254.828125 135.449219 254.652344 138.359375 C 254.472656 141.269531 252.980469 145.671875 252.84375 149.644531 C 252.707031 153.613281 253.925781 157.152344 254.296875 160.53125 C 254.671875 163.914062 254.199219 167.136719 253.039062 170.398438 C 251.878906 173.660156 250.027344 176.960938 248.984375 180.433594 C 247.941406 183.90625 247.710938 187.550781 247.359375 189.890625 C 247.011719 192.230469 246.546875 193.265625 245.953125 194.234375 C 245.355469 195.203125 244.632812 196.109375 244.402344 196.238281 C 244.167969 196.367188 244.425781 195.722656 244.839844 194.621094 C 245.253906 193.523438 245.824219 191.972656 246.160156 190.617188 C 246.496094 189.257812 246.597656 188.09375 246.546875 186.867188 C 246.496094 185.640625 246.289062 184.347656 245.925781 182.304688 C 245.5625 180.261719 245.046875 177.46875 245.109375 173.605469 C 245.175781 169.742188 245.824219 164.804688 245.667969 160.796875 C 245.511719 156.789062 244.554688 153.714844 242.472656 151.140625 C 240.394531 148.570312 237.1875 146.5 236.179688 143.863281 C 235.171875 141.226562 236.359375 138.023438 238.195312 134.429688 C 240.03125 130.835938 242.511719 126.855469 244.398438 124.230469 C 246.285156 121.605469 247.578125 120.339844 248.601562 120.042969 C 249.621094 119.746094 250.371094 120.417969 250.867188 121.144531 C 251.359375 121.867188 251.601562 122.644531 251.839844 124.566406 Z M 251.839844 124.566406 " fill-opacity="1" fill-rule="evenodd"/><path stroke-linecap="butt" transform="matrix(0.068047, 0, 0, 0.068047, 43.215698, 32.417536)" fill-opacity="1" fill="#c62328" fill-rule="evenodd" stroke-linejoin="miter" d="M 2908.361693 1640.128749 C 2908.993149 1625.949678 2908.591313 1604.9968 2914.446638 1580.312588 C 2920.359368 1555.628376 2932.586664 1527.21283 2939.590091 1503.389695 C 2946.593519 1479.623965 2948.315673 1460.393241 2951.587766 1444.893852 C 2954.85986 1429.394463 2959.681892 1417.569004 2969.498171 1410.16374 C 2979.314451 1402.758476 2994.182384 1399.658598 3017.316657 1399.027142 C 3040.508335 1398.395685 3071.908949 1400.11784 3090.278596 1387.660923 C 3108.648242 1375.204007 3113.87211 1348.56802 3114.962808 1333.068631 C 3116.053505 1317.569242 3113.011033 1313.206451 3113.412869 1309.475116 C 3113.87211 1305.743782 3117.77566 1302.701309 3119.78484 1295.525666 C 3121.736615 1288.292618 3121.736615 1276.926399 3122.368071 1265.789801 C 3123.056933 1254.653203 3124.377251 1243.746226 3132.012136 1236.742798 C 3139.64702 1229.796776 3153.59647 1226.696898 3157.098184 1220.382332 C 3160.599898 1214.067766 3153.59647 1204.423702 3144.469052 1195.066663 C 3135.284229 1185.65222 3123.91801 1176.467397 3114.733187 1165.79004 C 3105.548364 1155.055278 3098.602341 1142.827982 3095.100628 1133.241323 C 3091.598914 1123.654664 3091.598914 1116.651236 3090.910052 1105.285017 C 3090.278596 1093.918799 3088.958277 1078.189789 3086.317641 1065.101416 C 3083.734409 1052.013043 3079.773454 1041.507902 3069.957174 1026.639969 C 3060.140895 1011.829442 3044.411885 992.598719 3027.592178 974.917934 C 3010.77247 957.23715 2992.862065 941.048899 2960.083728 946.502388 C 2927.362795 951.955876 2879.716525 979.051105 2842.632802 1014.412674 C 2805.491674 1049.831648 2778.855687 1093.516963 2755.664008 1133.470943 C 2732.529735 1173.424924 2712.897176 1209.704975 2704.171594 1249.199715 C 2695.388606 1288.751859 2697.627407 1331.576097 2701.301336 1368.889441 C 2705.032671 1406.202785 2710.256539 1438.120045 2711.347237 1466.076351 C 2712.437934 1494.032656 2709.395462 1518.028006 2713.528632 1549.256405 C 2717.719208 1580.484804 2729.028021 1618.94625 2753.080777 1644.089704 C 2777.076127 1669.175752 2813.758014 1681.001212 2839.762545 1687.947234 C 2865.767075 1694.950662 2881.036844 1697.132057 2889.992046 1693.228507 C 2898.947249 1689.267552 2901.587886 1679.221652 2903.769281 1670.49607 C 2905.950677 1661.770488 2907.672831 1654.307819 2908.361693 1640.128749 Z M 2908.361693 1640.128749 " stroke="#000000" stroke-width="2.44" stroke-opacity="1" stroke-miterlimit="2.613"/><path fill="#000000" d="M 247.851562 98.597656 C 248.0625 97.125 247.765625 94.816406 246.117188 93.054688 C 244.472656 91.292969 241.476562 90.082031 238.675781 89.785156 C 235.875 89.488281 233.269531 90.105469 231.667969 90.242188 C 230.066406 90.378906 229.472656 90.035156 229.152344 89.519531 C 228.832031 89.007812 228.785156 88.320312 227.964844 86.847656 C 227.140625 85.371094 225.539062 83.109375 223.035156 82.515625 C 220.53125 81.917969 217.125 82.992188 214.851562 85.1875 C 212.574219 87.382812 211.433594 90.699219 211.433594 93.097656 C 211.433594 95.5 212.574219 96.988281 213.671875 97.820312 C 214.769531 98.65625 215.824219 98.839844 216.773438 99.148438 C 217.726562 99.457031 218.578125 99.894531 219.007812 100.121094 C 219.441406 100.34375 219.453125 100.355469 218.984375 101.46875 C 218.519531 102.578125 217.570312 104.785156 216.894531 106.5625 C 216.214844 108.339844 215.804688 109.683594 215.84375 110.917969 C 215.882812 112.15625 216.367188 113.28125 216.628906 113.867188 C 216.894531 114.453125 216.933594 114.492188 216.492188 114.980469 C 216.050781 115.46875 215.125 116.402344 214.582031 117.53125 C 214.039062 118.660156 213.878906 119.988281 213.71875 120.925781 C 213.558594 121.863281 213.398438 122.410156 213.125 122.730469 C 212.851562 123.050781 212.460938 123.144531 212.199219 124.296875 C 211.9375 125.453125 211.796875 127.671875 212.082031 129.921875 C 212.371094 132.175781 213.078125 134.460938 215.804688 135.941406 C 218.53125 137.425781 223.273438 138.101562 226.492188 138.449219 C 229.714844 138.796875 231.410156 138.816406 232.015625 138.34375 C 232.625 137.875 232.144531 136.910156 232.417969 135.015625 C 232.6875 133.121094 233.714844 130.289062 234.476562 128.628906 C 235.238281 126.964844 235.730469 126.46875 236.136719 125.355469 C 236.546875 124.238281 236.863281 122.507812 236.6875 121.355469 C 236.511719 120.207031 235.835938 119.640625 235.464844 118.527344 C 235.09375 117.414062 235.023438 115.75 235.378906 114.617188 C 235.730469 113.484375 236.511719 112.882812 237.429688 112.582031 C 238.351562 112.28125 239.410156 112.28125 240.066406 112.28125 C 240.722656 112.28125 240.96875 112.28125 241.480469 111.679688 C 241.996094 111.078125 242.773438 109.875 243.605469 108.054688 C 244.433594 106.230469 245.320312 103.789062 246.121094 102.25 C 246.921875 100.710938 247.640625 100.070312 247.851562 98.59375 Z M 247.851562 98.597656 " fill-opacity="1" fill-rule="evenodd"/><g clip-path="url(#5aafe73d35)"><path fill="#c62328" d="M 242.523438 143.039062 C 244.488281 143.21875 247.75 143.640625 250.761719 144.40625 C 253.773438 145.175781 256.539062 146.289062 259.644531 146.460938 C 262.753906 146.632812 266.207031 145.867188 272.460938 144.484375 C 278.71875 143.105469 287.773438 141.109375 292.992188 140.265625 C 298.210938 139.417969 299.59375 139.726562 301.378906 139.859375 C 303.164062 139.996094 305.351562 139.957031 309.476562 139.609375 C 313.601562 139.265625 319.664062 138.613281 324.382812 137.710938 C 329.101562 136.808594 332.480469 135.660156 334.148438 134.910156 C 335.820312 134.164062 335.78125 133.816406 336.222656 129.363281 C 336.664062 124.914062 337.585938 116.355469 338.273438 111.941406 C 338.964844 107.53125 339.425781 107.261719 339.90625 107.894531 C 340.386719 108.527344 340.886719 110.0625 341.308594 112.59375 C 341.730469 115.128906 342.074219 118.660156 342.382812 119.847656 C 342.6875 121.039062 342.957031 119.886719 343.28125 119.175781 C 343.609375 118.464844 343.992188 118.199219 344.394531 118.179688 C 344.800781 118.160156 345.222656 118.390625 345.316406 119.292969 C 345.414062 120.195312 345.183594 121.765625 345.046875 123.050781 C 344.914062 124.335938 344.875 125.335938 344.992188 127.0625 C 345.105469 128.789062 345.375 131.246094 344.835938 133.355469 C 344.300781 135.464844 342.957031 137.230469 340.710938 138.691406 C 338.464844 140.148438 335.320312 141.300781 331.519531 142.929688 C 327.722656 144.5625 323.269531 146.671875 318.664062 148.109375 C 314.0625 149.550781 309.300781 150.316406 304.160156 151.390625 C 299.019531 152.464844 293.492188 153.847656 288.445312 155.269531 C 283.398438 156.6875 278.832031 158.144531 275.320312 159.257812 C 271.808594 160.371094 269.355469 161.140625 266.839844 161.542969 C 264.328125 161.945312 261.757812 161.984375 259.207031 161.984375 C 256.652344 161.984375 254.121094 161.945312 252.355469 161.90625 C 250.589844 161.867188 249.59375 161.832031 249.246094 162.0625 C 248.902344 162.292969 249.210938 162.789062 249.457031 164.996094 C 249.707031 167.203125 249.898438 171.117188 248.210938 174.707031 C 246.523438 178.292969 242.953125 181.554688 239.597656 184.703125 C 236.238281 187.847656 233.089844 190.878906 230.90625 193.910156 C 228.71875 196.941406 227.488281 199.972656 225.261719 202.601562 C 223.039062 205.230469 219.8125 207.457031 215.171875 210.199219 C 210.527344 212.945312 204.464844 216.207031 201.453125 218.164062 C 198.4375 220.121094 198.476562 220.773438 198.476562 224.359375 C 198.476562 227.949219 198.4375 234.472656 197.921875 240.402344 C 197.402344 246.328125 196.40625 251.664062 195.964844 254.808594 C 195.523438 257.957031 195.636719 258.917969 195.390625 261.964844 C 195.140625 265.019531 194.527344 270.160156 193.566406 273.824219 C 192.605469 277.488281 191.300781 279.675781 190.632812 281.960938 C 189.960938 284.242188 189.921875 286.621094 189.996094 292.722656 C 190.074219 298.824219 190.265625 308.648438 190.382812 315.5 C 190.496094 322.347656 190.535156 326.226562 191.167969 331.175781 C 191.800781 336.125 193.03125 342.152344 194.3125 345.875 C 195.601562 349.59375 196.941406 351.015625 199.378906 352.339844 C 201.816406 353.664062 205.347656 354.890625 208.648438 356.0625 C 211.945312 357.234375 215.015625 358.34375 216.550781 359.191406 C 218.085938 360.035156 218.085938 360.609375 217.53125 361.394531 C 216.972656 362.183594 215.863281 363.179688 212.886719 363.410156 C 209.914062 363.640625 205.078125 363.105469 201.433594 362.757812 C 197.785156 362.414062 195.332031 362.261719 193.296875 362.605469 C 191.261719 362.949219 189.652344 363.792969 187.695312 364.292969 C 185.738281 364.792969 183.433594 364.945312 181.917969 364.3125 C 180.402344 363.679688 179.671875 362.257812 180.054688 359.859375 C 180.441406 357.464844 181.9375 354.085938 182.417969 351.054688 C 182.898438 348.023438 182.359375 345.335938 179.808594 337.507812 C 177.253906 329.679688 172.6875 316.707031 170.886719 306.519531 C 169.082031 296.332031 170.042969 288.925781 170.828125 283.339844 C 171.613281 277.757812 172.230469 273.996094 171.289062 267.339844 C 170.347656 260.683594 167.855469 251.125 166.453125 239.824219 C 165.050781 228.523438 164.746094 215.476562 164.015625 208.664062 C 163.289062 201.855469 162.136719 201.277344 157.398438 196.097656 C 152.660156 190.917969 144.332031 181.132812 138.363281 172.535156 C 132.398438 163.941406 128.789062 156.535156 126.949219 151.851562 C 125.105469 147.171875 125.027344 145.214844 125.46875 138.574219 C 125.910156 131.9375 126.871094 120.617188 127.160156 109.734375 C 127.445312 98.855469 127.0625 88.417969 126.832031 83.140625 C 126.601562 77.867188 126.527344 77.75 125.566406 76.90625 C 124.609375 76.0625 122.765625 74.488281 121.882812 73.339844 C 121 72.1875 121.078125 71.457031 121.25 70.902344 C 121.421875 70.34375 121.691406 69.960938 121.652344 69.347656 C 121.613281 68.734375 121.269531 67.890625 121.363281 67.140625 C 121.460938 66.394531 121.996094 65.742188 122.457031 64.894531 C 122.917969 64.050781 123.300781 63.015625 123.667969 62.5 C 124.03125 61.980469 124.375 61.980469 124.570312 61.613281 C 124.761719 61.25 124.800781 60.523438 124.011719 56.359375 C 123.226562 52.195312 121.613281 44.597656 121.152344 39.972656 C 120.695312 35.347656 121.382812 33.699219 121.996094 32.96875 C 122.613281 32.238281 123.148438 32.429688 124.050781 33.0625 C 124.953125 33.699219 126.21875 34.769531 127.621094 35.425781 C 129.019531 36.078125 130.554688 36.304688 131.554688 36.554688 C 132.550781 36.804688 133.011719 37.074219 133.453125 38.320312 C 133.894531 39.570312 134.316406 41.792969 134.679688 43.941406 C 135.046875 46.09375 135.351562 48.164062 137.097656 51.160156 C 138.84375 54.152344 142.03125 58.066406 143.582031 60.636719 C 145.136719 63.207031 145.0625 64.4375 144.273438 66.566406 C 143.488281 68.695312 141.992188 71.726562 141.414062 73.394531 C 140.839844 75.066406 141.1875 75.371094 142.914062 76.601562 C 144.640625 77.828125 147.746094 79.976562 154.15625 84.046875 C 160.5625 88.113281 170.273438 94.097656 176.085938 98.128906 C 181.902344 102.160156 183.820312 104.230469 188.460938 107.835938 C 193.105469 111.445312 200.472656 116.585938 204.964844 119.445312 C 209.453125 122.304688 211.066406 122.878906 212.097656 123.199219 C 213.132812 123.523438 213.589844 123.589844 216.269531 125.667969 C 218.945312 127.75 223.847656 131.84375 227.402344 134.628906 C 230.960938 137.414062 233.175781 138.890625 234.917969 140.066406 C 236.664062 141.242188 237.941406 142.113281 238.914062 142.519531 C 239.886719 142.921875 240.554688 142.859375 242.523438 143.039062 Z M 141.539062 86.46875 C 141.847656 88.011719 142.921875 90.925781 144.089844 95.992188 C 145.253906 101.0625 146.507812 108.285156 146.726562 114.898438 C 146.941406 121.507812 146.128906 127.507812 145.703125 130.929688 C 145.28125 134.355469 145.253906 135.199219 145.3125 135.664062 C 145.371094 136.128906 145.515625 136.21875 147.84375 139 C 150.175781 141.78125 154.691406 147.257812 157.660156 150.578125 C 160.632812 153.898438 162.058594 155.0625 162.976562 155.542969 C 163.894531 156.023438 164.300781 155.820312 164.652344 155.777344 C 165 155.734375 165.292969 155.851562 166.558594 157.175781 C 167.828125 158.5 170.070312 161.035156 173.535156 163.976562 C 177.003906 166.917969 181.691406 170.269531 186.542969 172.421875 C 191.390625 174.578125 196.402344 175.539062 199.167969 175.816406 C 201.933594 176.09375 202.460938 175.6875 202.894531 175.089844 C 203.332031 174.492188 203.683594 173.703125 203.652344 171.824219 C 203.625 169.945312 203.214844 166.976562 202.851562 164.28125 C 202.488281 161.585938 202.167969 159.171875 202.371094 155.804688 C 202.574219 152.441406 203.304688 148.128906 203.464844 145.128906 C 203.625 142.128906 203.214844 140.441406 200.40625 137.398438 C 197.59375 134.351562 192.382812 129.957031 187.996094 125.453125 C 183.613281 120.953125 180.058594 116.351562 177.671875 113.554688 C 175.285156 110.761719 174.058594 109.769531 172.328125 108.835938 C 170.59375 107.90625 168.351562 107.03125 164.839844 104.816406 C 161.332031 102.605469 156.554688 99.050781 152.898438 95.746094 C 149.242188 92.441406 146.710938 89.382812 145.105469 87.5625 C 143.503906 85.742188 142.835938 85.15625 142.265625 84.953125 C 141.699219 84.75 141.234375 84.925781 141.539062 86.46875 Z M 141.539062 86.46875 " fill-opacity="1" fill-rule="evenodd"/></g><g clip-path="url(#49f396f7ab)"><path stroke-linecap="butt" transform="matrix(0.068047, 0, 0, 0.068047, 43.215698, 32.417536)" fill="none" stroke-linejoin="miter" d="M 2928.970139 1625.662652 C 2957.844927 1628.303289 3005.778223 1634.503045 3050.037589 1645.754453 C 3094.296956 1657.063266 3134.939798 1673.423733 3180.576888 1675.949559 C 3226.271383 1678.475385 3277.017531 1667.223977 3368.923167 1646.902556 C 3460.886208 1626.63854 3593.951333 1597.304511 3670.644607 1584.905 C 3747.33788 1572.448083 3767.659301 1576.98309 3793.893452 1578.934865 C 3820.127603 1580.944045 3852.274484 1580.369993 3912.894316 1575.260935 C 3973.514149 1570.209283 4062.606933 1560.622624 4131.952348 1547.362035 C 4201.297762 1534.101447 4250.953212 1517.224334 4275.465209 1506.202547 C 4300.034611 1495.238164 4299.460559 1490.129106 4305.947341 1424.687241 C 4312.434122 1359.302782 4325.981736 1233.52811 4336.085042 1168.660297 C 4346.245752 1103.849889 4353.019559 1099.888934 4360.080392 1109.188567 C 4367.141225 1118.488201 4374.489083 1141.048422 4380.688839 1178.246956 C 4386.888595 1215.502895 4391.940247 1267.397145 4396.475254 1284.848309 C 4400.952855 1302.356878 4404.91381 1285.422361 4409.678437 1274.974625 C 4414.500469 1264.526888 4420.126173 1260.623338 4426.038903 1260.336313 C 4432.009038 1260.049287 4438.208794 1263.436191 4439.586517 1276.696779 C 4441.021646 1289.957367 4437.634742 1313.034235 4435.625562 1331.920528 C 4433.673787 1350.80682 4433.099736 1365.502537 4434.82189 1390.875611 C 4436.486639 1416.248685 4440.447594 1452.356521 4432.525684 1483.355299 C 4424.66118 1514.354077 4404.91381 1540.301202 4371.905852 1561.770727 C 4338.897894 1583.182845 4292.686752 1600.117363 4236.831547 1624.055308 C 4181.033746 1648.050659 4115.591882 1679.049437 4047.911216 1700.17453 C 3980.287956 1721.357028 3910.311085 1732.608437 3834.765915 1748.394851 C 3759.220745 1764.181266 3677.992465 1784.502687 3603.825018 1805.39816 C 3529.657572 1826.236227 3462.550958 1847.648346 3410.943733 1864.008812 C 3359.336508 1880.369279 3323.286077 1891.678092 3286.317164 1897.590822 C 3249.405656 1903.503552 3211.633071 1904.077603 3174.147512 1904.077603 C 3136.604547 1904.077603 3099.406014 1903.503552 3073.458888 1902.9295 C 3047.511763 1902.355449 3032.873451 1901.838803 3027.764393 1905.225706 C 3022.71274 1908.61261 3027.247747 1915.903063 3030.864271 1948.33697 C 3034.5382 1980.770876 3037.351052 2038.290831 3012.55203 2091.046159 C 2987.753007 2143.744082 2935.284705 2191.677377 2885.973686 2237.945924 C 2836.605262 2284.157065 2790.336715 2328.703457 2758.24724 2373.249849 C 2726.100359 2417.796241 2708.017738 2462.342634 2675.296806 2500.976296 C 2642.633279 2539.609958 2595.216629 2572.33089 2527.019318 2612.629302 C 2458.764601 2652.985119 2369.671817 2700.918414 2325.41245 2729.678392 C 2281.095679 2758.438369 2281.66973 2768.025028 2281.66973 2820.722951 C 2281.66973 2873.478279 2281.095679 2969.34487 2273.518199 3056.485879 C 2265.883315 3143.569483 2251.245003 3221.984911 2244.758222 3268.196052 C 2238.271441 3314.464599 2239.93619 3328.586264 2236.319666 3373.362277 C 2232.645737 3418.2531 2223.633129 3493.79827 2209.511463 3547.644296 C 2195.389798 3601.490321 2176.21648 3633.637202 2166.4002 3667.219212 C 2156.526515 3700.743816 2155.952464 3735.703549 2157.043161 3825.370385 C 2158.191264 3915.037221 2161.004116 4059.411159 2162.726271 4160.099782 C 2164.39102 4260.731001 2164.965071 4317.734309 2174.264705 4390.466627 C 2183.564338 4463.198945 2201.646959 4551.775083 2220.475846 4606.482186 C 2239.419544 4661.131884 2259.109508 4682.027356 2294.930318 4701.4877 C 2330.751129 4720.948044 2382.645379 4738.97326 2431.152726 4756.194803 C 2479.602668 4773.416346 2524.723112 4789.719407 2547.283334 4802.176324 C 2569.843555 4814.575835 2569.843555 4823.014391 2561.692025 4834.552825 C 2553.483089 4846.148665 2537.180028 4860.786976 2493.437308 4864.17388 C 2449.751993 4867.560783 2378.684424 4859.696279 2325.125424 4854.587221 C 2271.509019 4849.535568 2235.458589 4847.296767 2205.550508 4852.34842 C 2175.642428 4857.400073 2151.991509 4869.799584 2123.231531 4877.147443 C 2094.471554 4884.495301 2060.602518 4886.734102 2038.329322 4877.434468 C 2016.056126 4868.134835 2005.321364 4847.239362 2010.947068 4811.992604 C 2016.630178 4776.80325 2038.616348 4727.1478 2045.677181 4682.601408 C 2052.738014 4638.055016 2044.816104 4598.560276 2007.330544 4483.520367 C 1969.78758 4368.480457 1902.680966 4177.837972 1876.217194 4028.125355 C 1849.696018 3878.412738 1863.817683 3769.572584 1875.356117 3687.483228 C 1886.894551 3605.451276 1895.964564 3550.170122 1882.129924 3452.351756 C 1868.295284 3354.53339 1831.670802 3214.063001 1811.062355 3047.989918 C 1790.453908 2881.916835 1785.976307 2690.183652 1775.241545 2590.06908 C 1764.564188 2490.011913 1747.629671 2481.515952 1677.99723 2405.39673 C 1608.36479 2329.277509 1485.977022 2185.477622 1398.261961 2059.128899 C 1310.604305 1932.837581 1257.561952 1823.997427 1230.524129 1755.168658 C 1203.428901 1686.397295 1202.280798 1657.637318 1208.767579 1560.048572 C 1215.25436 1462.517232 1229.376026 1296.157123 1233.624007 1136.22639 C 1237.814582 976.353063 1232.188878 822.966517 1228.801975 745.412166 C 1225.415071 667.915221 1224.324373 666.193067 1210.202708 653.793556 C 1196.138447 641.394045 1169.043219 618.259771 1156.069656 601.382659 C 1143.096094 584.448141 1144.244197 573.713379 1146.770023 565.561849 C 1149.295849 557.352913 1153.256804 551.727209 1152.682753 542.714601 C 1152.108701 533.701993 1147.057049 521.302482 1148.434772 510.280695 C 1149.869901 499.316312 1157.734406 489.729653 1164.508213 477.272736 C 1171.28202 464.873225 1176.907724 449.660862 1182.303807 442.083383 C 1187.642486 434.448499 1192.694139 434.448499 1195.564396 429.052415 C 1198.377248 423.713737 1198.951299 413.03638 1187.35546 351.842496 C 1175.817026 290.648612 1152.108701 178.995606 1145.334894 111.027914 C 1138.618492 43.060223 1148.721798 18.835252 1157.734406 8.10049 C 1166.804418 -2.634272 1174.668923 0.17858 1187.929512 9.478214 C 1201.1901 18.835252 1219.789367 34.564262 1240.397814 44.208326 C 1260.948855 53.794985 1283.509077 57.124484 1298.204794 60.798413 C 1312.843106 64.472342 1319.616913 68.433297 1326.103694 86.745538 C 1332.590476 105.115185 1338.790231 137.778712 1344.12891 169.351541 C 1349.524993 200.981776 1354.002595 231.406503 1379.662694 275.436248 C 1405.322794 319.408589 1452.165392 376.928544 1474.955234 414.701129 C 1497.802482 452.473714 1496.711784 470.556335 1485.115945 501.842138 C 1473.577511 533.127942 1451.59134 577.674334 1443.095379 602.186331 C 1434.656823 626.755733 1439.765881 631.233334 1465.138954 649.315955 C 1490.512028 667.34117 1536.149118 698.913999 1630.35096 758.73016 C 1724.495397 818.488915 1867.204587 906.433597 1952.623442 965.675706 C 2038.099702 1024.917815 2066.285628 1055.342542 2134.482939 1108.32749 C 2202.737656 1161.369844 2311.003759 1236.915014 2377.019675 1278.93558 C 2442.978186 1320.956145 2466.686511 1329.394702 2481.841469 1334.101923 C 2497.053832 1338.86655 2503.770234 1339.842438 2543.150163 1370.381975 C 2582.472687 1400.978917 2654.516144 1461.139508 2706.754825 1502.069376 C 2759.050912 1542.999244 2791.599629 1564.698389 2817.202323 1581.977337 C 2842.862423 1599.256286 2861.633905 1612.057633 2875.927786 1618.027768 C 2890.221667 1623.940498 2900.037947 1623.022016 2928.970139 1625.662652 Z M 1444.932344 794.32135 C 1449.46735 816.996382 1465.253765 859.820619 1482.417903 934.275092 C 1499.524636 1008.786969 1517.951687 1114.929082 1521.166376 1212.115991 C 1524.323658 1309.245496 1512.383388 1397.419798 1506.126228 1447.706704 C 1499.926472 1498.051016 1499.524636 1510.450527 1500.385713 1517.28174 C 1501.24679 1524.112952 1503.370781 1525.43327 1537.584247 1566.305733 C 1571.855118 1607.178196 1638.215465 1687.660208 1681.843375 1736.454581 C 1725.52869 1785.248954 1746.481568 1802.355687 1759.971777 1809.41652 C 1773.461986 1816.477353 1779.432121 1813.492285 1784.598584 1812.860829 C 1789.707642 1812.229372 1794.013027 1813.951526 1812.612294 1833.41187 C 1831.268966 1852.872214 1864.219519 1890.128153 1915.137882 1933.354227 C 1966.113651 1976.580301 2034.999824 2025.833915 2106.297014 2057.464149 C 2177.536798 2089.151789 2251.187598 2103.273455 2291.830441 2107.34922 C 2332.473283 2111.424985 2340.222977 2105.45485 2346.594948 2096.671863 C 2353.024325 2087.888876 2358.190788 2076.293037 2357.731546 2048.681162 C 2357.32971 2021.069288 2351.30217 1977.441378 2345.963492 1937.831828 C 2340.624813 1898.222278 2335.917592 1862.745899 2338.902659 1813.262665 C 2341.887727 1763.836835 2352.622489 1700.461556 2354.9761 1656.374405 C 2357.32971 1612.287254 2351.30217 1587.488231 2310.027871 1542.769624 C 2268.696167 1497.993611 2192.117705 1433.412823 2127.651727 1367.224692 C 2063.243155 1301.093965 2011.004474 1233.470705 1975.92993 1192.368622 C 1940.855387 1151.323943 1922.830172 1136.743037 1897.399693 1123.023207 C 1871.911808 1109.360783 1838.961256 1096.50203 1787.354031 1063.953313 C 1735.804211 1031.462002 1665.597719 979.22332 1611.866504 930.658568 C 1558.135289 882.093816 1520.936755 837.145587 1497.343241 810.39479 C 1473.807131 783.643993 1463.990852 775.033221 1455.6097 772.048154 C 1447.285955 769.063086 1440.454742 771.646317 1444.932344 794.32135 Z M 1444.932344 794.32135 " stroke="#000000" stroke-width="2.44" stroke-opacity="1" stroke-miterlimit="2.613"/></g><path fill="#000000" d="M 226.867188 136.84375 C 226.867188 136.84375 228.871094 146.625 227.917969 155.28125 C 226.960938 163.933594 232.210938 167.816406 232.210938 167.816406 C 232.210938 167.816406 228.460938 160.867188 231.1875 154.394531 C 233.914062 147.921875 233.632812 137.164062 230.917969 134.199219 C 228.207031 131.234375 225.613281 133.214844 226.867188 136.84375 Z M 226.867188 136.84375 " fill-opacity="1" fill-rule="evenodd"/><path fill="#000000" d="M 181.277344 304.199219 L 181.285156 304.257812 C 181.726562 307.632812 183.183594 310.113281 185.160156 310.847656 L 185.171875 310.851562 L 185.136719 310.867188 C 183.160156 311.617188 181.710938 314.105469 181.28125 317.488281 L 181.277344 317.507812 L 181.269531 317.449219 C 180.832031 314.074219 179.375 311.59375 177.398438 310.855469 L 177.386719 310.851562 L 177.421875 310.839844 C 179.394531 310.089844 180.847656 307.601562 181.277344 304.21875 Z M 181.277344 304.199219 " fill-opacity="1" fill-rule="evenodd"/><path fill="#000000" d="M 178.621094 262.308594 L 178.628906 262.367188 C 179.070312 265.742188 180.527344 268.222656 182.503906 268.957031 L 182.515625 268.960938 L 182.480469 268.976562 C 180.503906 269.726562 179.054688 272.214844 178.625 275.597656 L 178.621094 275.617188 L 178.613281 275.558594 C 178.175781 272.183594 176.71875 269.703125 174.742188 268.964844 L 174.730469 268.960938 L 174.761719 268.949219 C 176.738281 268.199219 178.191406 265.710938 178.621094 262.328125 Z M 178.621094 262.308594 " fill-opacity="1" fill-rule="evenodd"/><path fill="#000000" d="M 188.417969 242.808594 L 188.425781 242.867188 C 188.863281 246.246094 190.320312 248.726562 192.296875 249.460938 L 192.308594 249.464844 L 192.273438 249.476562 C 190.296875 250.226562 188.847656 252.71875 188.417969 256.101562 L 188.414062 256.121094 L 188.410156 256.0625 C 187.96875 252.683594 186.511719 250.203125 184.535156 249.46875 L 184.523438 249.464844 L 184.558594 249.453125 C 186.535156 248.703125 187.984375 246.210938 188.414062 242.828125 Z M 188.417969 242.808594 " fill-opacity="1" fill-rule="evenodd"/><path fill="#000000" d="M 182.304688 215.511719 L 182.3125 215.570312 C 182.75 218.949219 184.207031 221.425781 186.1875 222.164062 L 186.199219 222.167969 L 186.164062 222.179688 C 184.1875 222.929688 182.738281 225.421875 182.308594 228.800781 L 182.304688 228.820312 L 182.296875 228.765625 C 181.859375 225.386719 180.402344 222.90625 178.421875 222.171875 L 178.414062 222.167969 L 178.445312 222.152344 C 180.421875 221.402344 181.875 218.914062 182.300781 215.53125 Z M 182.304688 215.511719 " fill-opacity="1" fill-rule="evenodd"/><path fill="#000000" d="M 176.617188 242.367188 L 176.621094 242.398438 C 176.859375 244.246094 177.660156 245.601562 178.738281 246.003906 L 178.746094 246.003906 L 178.726562 246.011719 C 177.648438 246.421875 176.855469 247.785156 176.617188 249.632812 L 176.617188 249.644531 L 176.613281 249.613281 C 176.375 247.765625 175.574219 246.410156 174.496094 246.007812 L 174.488281 246.003906 L 174.507812 246 C 175.585938 245.589844 176.382812 244.226562 176.617188 242.378906 Z M 176.617188 242.367188 " fill-opacity="1" fill-rule="evenodd"/><path fill="#000000" d="M 183.605469 286.007812 L 183.609375 286.039062 C 183.847656 287.886719 184.644531 289.242188 185.726562 289.644531 L 185.734375 289.644531 L 185.714844 289.652344 C 184.636719 290.0625 183.839844 291.425781 183.605469 293.273438 L 183.605469 293.285156 L 183.601562 293.253906 C 183.359375 291.40625 182.5625 290.050781 181.484375 289.648438 L 181.476562 289.644531 L 181.496094 289.640625 C 182.574219 289.226562 183.367188 287.867188 183.605469 286.015625 Z M 183.605469 286.007812 " fill-opacity="1" fill-rule="evenodd"/><path fill="#000000" d="M 137.574219 85.648438 L 137.578125 85.707031 C 138.019531 89.085938 139.476562 91.566406 141.453125 92.300781 L 141.464844 92.304688 L 141.429688 92.316406 C 139.453125 93.066406 138.003906 95.558594 137.574219 98.941406 L 137.570312 98.960938 L 137.5625 98.902344 C 137.125 95.523438 135.667969 93.042969 133.691406 92.308594 L 133.679688 92.304688 L 133.714844 92.292969 C 135.691406 91.542969 137.140625 89.050781 137.570312 85.667969 Z M 137.574219 85.648438 " fill-opacity="1" fill-rule="evenodd"/><path fill="#000000" d="M 138.296875 135.503906 L 138.300781 135.5625 C 138.742188 138.941406 140.199219 141.421875 142.175781 142.15625 L 142.1875 142.160156 L 142.152344 142.171875 C 140.175781 142.921875 138.726562 145.414062 138.296875 148.796875 L 138.292969 148.816406 L 138.285156 148.757812 C 137.847656 145.378906 136.390625 142.898438 134.414062 142.164062 L 134.402344 142.160156 L 134.4375 142.148438 C 136.414062 141.398438 137.863281 138.90625 138.292969 135.523438 Z M 138.296875 135.503906 " fill-opacity="1" fill-rule="evenodd"/><path fill="#000000" d="M 213.207031 184.21875 L 213.214844 184.277344 C 213.652344 187.65625 215.109375 190.136719 217.085938 190.871094 L 217.097656 190.875 L 217.066406 190.886719 C 215.089844 191.636719 213.636719 194.128906 213.207031 197.511719 L 213.207031 197.53125 L 213.199219 197.472656 C 212.757812 194.09375 211.304688 191.613281 209.324219 190.878906 L 209.3125 190.875 L 209.347656 190.863281 C 211.324219 190.113281 212.773438 187.621094 213.203125 184.238281 Z M 213.207031 184.21875 " fill-opacity="1" fill-rule="evenodd"/><path fill="#000000" d="M 166.242188 176.632812 L 166.25 176.691406 C 166.6875 180.070312 168.144531 182.550781 170.121094 183.285156 L 170.132812 183.289062 L 170.101562 183.300781 C 168.125 184.050781 166.671875 186.542969 166.242188 189.921875 L 166.242188 189.941406 L 166.234375 189.886719 C 165.796875 186.507812 164.339844 184.027344 162.359375 183.292969 L 162.347656 183.289062 L 162.382812 183.273438 C 164.359375 182.523438 165.808594 180.035156 166.238281 176.652344 Z M 166.242188 176.632812 " fill-opacity="1" fill-rule="evenodd"/><path fill="#000000" d="M 216.328125 135.144531 L 216.335938 135.203125 C 216.773438 138.578125 218.230469 141.058594 220.207031 141.792969 L 220.21875 141.796875 L 220.1875 141.8125 C 218.210938 142.5625 216.757812 145.050781 216.332031 148.433594 L 216.328125 148.453125 L 216.320312 148.394531 C 215.882812 145.019531 214.425781 142.539062 212.445312 141.800781 L 212.433594 141.796875 L 212.46875 141.785156 C 214.445312 141.035156 215.894531 138.542969 216.324219 135.164062 Z M 216.328125 135.144531 " fill-opacity="1" fill-rule="evenodd"/><path fill="#000000" d="M 185.257812 193.070312 L 185.261719 193.101562 C 185.503906 194.949219 186.300781 196.304688 187.382812 196.707031 L 187.386719 196.710938 L 187.371094 196.71875 C 186.289062 197.128906 185.496094 198.488281 185.261719 200.339844 L 185.257812 200.347656 L 185.253906 200.316406 C 185.015625 198.46875 184.21875 197.113281 183.136719 196.710938 L 183.128906 196.710938 L 183.148438 196.703125 C 184.230469 196.292969 185.023438 194.929688 185.257812 193.082031 L 185.261719 193.070312 Z M 185.257812 193.070312 " fill-opacity="1" fill-rule="evenodd"/><path fill="#000000" d="M 150.214844 163.445312 L 150.21875 163.476562 C 150.460938 165.324219 151.257812 166.683594 152.339844 167.082031 L 152.34375 167.085938 L 152.328125 167.09375 C 151.246094 167.503906 150.453125 168.867188 150.21875 170.714844 L 150.214844 170.726562 L 150.210938 170.695312 C 149.972656 168.847656 149.175781 167.492188 148.09375 167.089844 L 148.085938 167.085938 L 148.105469 167.078125 C 149.1875 166.667969 149.980469 165.308594 150.214844 163.457031 Z M 150.214844 163.445312 " fill-opacity="1" fill-rule="evenodd"/><path fill="#000000" d="M 136.851562 109.980469 L 136.855469 110.011719 C 137.09375 111.859375 137.890625 113.214844 138.972656 113.617188 L 138.976562 113.617188 L 138.960938 113.625 C 137.878906 114.035156 137.085938 115.398438 136.851562 117.246094 L 136.851562 117.257812 L 136.84375 117.226562 C 136.605469 115.378906 135.808594 114.023438 134.726562 113.621094 L 134.722656 113.617188 L 134.738281 113.609375 C 135.820312 113.199219 136.613281 111.839844 136.847656 109.988281 Z M 136.851562 109.980469 " fill-opacity="1" fill-rule="evenodd"/><path fill="#000000" d="M 196.097656 185.121094 L 196.101562 185.15625 C 196.339844 187.003906 197.136719 188.359375 198.21875 188.761719 L 198.226562 188.761719 L 198.207031 188.769531 C 197.125 189.179688 196.332031 190.542969 196.097656 192.390625 L 196.097656 192.402344 L 196.09375 192.371094 C 195.851562 190.523438 195.054688 189.164062 193.972656 188.765625 L 193.96875 188.761719 L 193.984375 188.753906 C 195.066406 188.34375 195.859375 186.980469 196.09375 185.132812 Z M 196.097656 185.121094 " fill-opacity="1" fill-rule="evenodd"/><path fill="#000000" d="M 217.050781 163.445312 L 217.054688 163.476562 C 217.292969 165.324219 218.09375 166.683594 219.171875 167.082031 L 219.179688 167.085938 L 219.160156 167.09375 C 218.082031 167.503906 217.285156 168.867188 217.050781 170.714844 L 217.050781 170.726562 L 217.046875 170.695312 C 216.808594 168.847656 216.007812 167.492188 214.929688 167.089844 L 214.921875 167.085938 L 214.941406 167.078125 C 216.019531 166.667969 216.8125 165.308594 217.050781 163.457031 Z M 217.050781 163.445312 " fill-opacity="1" fill-rule="evenodd"/><path fill="#000000" d="M 228.25 177.535156 L 228.253906 177.570312 C 228.492188 179.417969 229.289062 180.773438 230.371094 181.175781 L 230.378906 181.175781 L 230.359375 181.183594 C 229.28125 181.59375 228.484375 182.957031 228.25 184.804688 L 228.25 184.816406 L 228.246094 184.785156 C 228.003906 182.9375 227.207031 181.578125 226.125 181.179688 L 226.121094 181.175781 L 226.140625 181.167969 C 227.21875 180.757812 228.011719 179.394531 228.246094 177.546875 Z M 228.25 177.535156 " fill-opacity="1" fill-rule="evenodd"/><path fill="#000000" d="M 292.308594 145.011719 L 292.3125 145.042969 C 292.554688 146.890625 293.351562 148.246094 294.433594 148.648438 L 294.4375 148.648438 L 294.417969 148.65625 C 293.339844 149.066406 292.546875 150.429688 292.3125 152.277344 L 292.308594 152.289062 L 292.304688 152.257812 C 292.066406 150.410156 291.269531 149.054688 290.1875 148.652344 L 290.179688 148.648438 L 290.199219 148.640625 C 291.277344 148.230469 292.074219 146.867188 292.308594 145.019531 L 292.308594 145.007812 Z M 292.308594 145.011719 " fill-opacity="1" fill-rule="evenodd"/><path fill="#000000" d="M 198.265625 120.097656 L 198.269531 120.128906 C 198.507812 121.976562 199.304688 123.332031 200.386719 123.734375 L 200.394531 123.734375 L 200.375 123.742188 C 199.292969 124.152344 198.5 125.515625 198.265625 127.363281 L 198.265625 127.375 L 198.261719 127.34375 C 198.019531 125.496094 197.222656 124.140625 196.140625 123.738281 L 196.136719 123.734375 L 196.152344 123.726562 C 197.234375 123.316406 198.027344 121.957031 198.261719 120.105469 Z M 198.265625 120.097656 " fill-opacity="1" fill-rule="evenodd"/><path fill="#000000" d="M 162.859375 90.832031 L 162.863281 90.863281 C 163.105469 92.710938 163.902344 94.066406 164.984375 94.46875 L 164.988281 94.472656 L 164.972656 94.480469 C 163.890625 94.890625 163.097656 96.253906 162.863281 98.101562 L 162.859375 98.113281 L 162.855469 98.082031 C 162.617188 96.234375 161.820312 94.878906 160.738281 94.476562 L 160.730469 94.472656 L 160.75 94.464844 C 161.832031 94.054688 162.625 92.695312 162.859375 90.84375 Z M 162.859375 90.832031 " fill-opacity="1" fill-rule="evenodd"/><path fill="#000000" d="M 270.261719 146.871094 L 270.269531 146.929688 C 270.699219 150.222656 272.117188 152.640625 274.046875 153.355469 L 274.058594 153.359375 L 274.023438 153.371094 C 272.097656 154.101562 270.683594 156.53125 270.265625 159.828125 L 270.261719 159.847656 L 270.253906 159.792969 C 269.828125 156.5 268.40625 154.082031 266.480469 153.363281 L 266.46875 153.359375 L 266.5 153.347656 C 268.425781 152.617188 269.839844 150.1875 270.261719 146.890625 Z M 270.261719 146.871094 " fill-opacity="1" fill-rule="evenodd"/><path fill="#000000" d="M 329.199219 137.273438 L 329.203125 137.308594 C 329.441406 139.15625 330.238281 140.511719 331.320312 140.914062 L 331.324219 140.914062 L 331.308594 140.921875 C 330.226562 141.332031 329.433594 142.695312 329.199219 144.542969 L 329.199219 144.554688 L 329.195312 144.523438 C 328.953125 142.675781 328.15625 141.320312 327.074219 140.917969 L 327.070312 140.914062 L 327.085938 140.90625 C 328.167969 140.496094 328.960938 139.136719 329.195312 137.285156 L 329.195312 137.273438 Z M 329.199219 137.273438 " fill-opacity="1" fill-rule="evenodd"/></svg>