<svg xmlns="http://www.w3.org/2000/svg" xmlns:xlink="http://www.w3.org/1999/xlink" width="500" zoomAndPan="magnify" viewBox="0 0 375 374.999991" height="500" preserveAspectRatio="xMidYMid meet" version="1.0"><defs><clipPath id="092f623bca"><path d="M 223 51 L 291.355469 51 L 291.355469 120 L 223 120 Z M 223 51 " clip-rule="nonzero"/></clipPath><clipPath id="ce1f816616"><path d="M 125 3.449219 L 261 3.449219 L 261 371.699219 L 125 371.699219 Z M 125 3.449219 " clip-rule="nonzero"/></clipPath><clipPath id="88f08d9c4b"><path d="M 124 3.449219 L 262 3.449219 L 262 371.699219 L 124 371.699219 Z M 124 3.449219 " clip-rule="nonzero"/></clipPath><clipPath id="441549a9d9"><path d="M 55.855469 121 L 124 121 L 124 190 L 55.855469 190 Z M 55.855469 121 " clip-rule="nonzero"/></clipPath></defs><g clip-path="url(#092f623bca)"><path stroke-linecap="butt" transform="matrix(0.294431, 0, 0, 0.294431, 55.889967, 3.623963)" fill="none" stroke-linejoin="miter" d="M 799.584736 276.954553 C 799.584736 280.669345 799.398997 284.37087 799.027518 288.072396 C 798.669305 291.773921 798.125354 295.435645 797.395662 299.070834 C 796.679238 302.719291 795.777074 306.314679 794.702438 309.870266 C 793.614535 313.425853 792.367426 316.915104 790.947844 320.351287 C 789.528263 323.774203 787.949476 327.130783 786.198217 330.40776 C 784.446958 333.671471 782.536493 336.855578 780.48009 339.946816 C 778.41042 343.038054 776.208079 346.009888 773.846533 348.875585 C 771.484986 351.754549 769.004036 354.500842 766.377147 357.127731 C 763.750258 359.754619 761.003965 362.23557 758.125001 364.597116 C 755.259304 366.945396 752.28747 369.161004 749.196233 371.217407 C 746.104995 373.287077 742.920887 375.197542 739.657177 376.948801 C 736.380199 378.70006 733.023619 380.278847 729.600703 381.698428 C 726.164521 383.118009 722.675269 384.365118 719.119682 385.453022 C 715.564095 386.527658 711.968707 387.429822 708.333518 388.146246 C 704.685061 388.875937 701.023337 389.419889 697.321812 389.778101 C 693.633554 390.14958 689.918762 390.33532 686.203969 390.33532 C 682.502444 390.33532 678.787652 390.14958 675.099394 389.778101 C 671.397869 389.419889 667.736145 388.875937 664.087688 388.146246 C 660.452499 387.429822 656.85711 386.527658 653.301524 385.453022 C 649.745937 384.365118 646.256685 383.118009 642.820502 381.698428 C 639.397587 380.278847 636.041007 378.70006 632.764029 376.948801 C 629.487052 375.197542 626.316211 373.287077 623.224973 371.217407 C 620.133735 369.161004 617.161902 366.945396 614.282938 364.597116 C 611.417241 362.23557 608.670948 359.754619 606.044059 357.127731 C 603.41717 354.500842 600.922953 351.754549 598.574673 348.875585 C 596.213127 346.009888 594.010785 343.038054 591.941115 339.946816 C 589.884713 336.855578 587.974248 333.671471 586.222989 330.40776 C 584.47173 327.130783 582.892943 323.774203 581.473362 320.351287 C 580.05378 316.915104 578.793404 313.425853 577.718768 309.870266 C 576.644132 306.314679 575.741968 302.719291 575.012276 299.070834 C 574.295852 295.435645 573.7519 291.773921 573.380421 288.072396 C 573.022209 284.37087 572.83647 280.669345 572.83647 276.954553 C 572.83647 273.253028 573.022209 269.538236 573.380421 265.849978 C 573.7519 262.148452 574.295852 258.486729 575.012276 254.838272 C 575.741968 251.203082 576.644132 247.607694 577.718768 244.052107 C 578.793404 240.49652 580.05378 237.007269 581.473362 233.571086 C 582.892943 230.14817 584.47173 226.79159 586.222989 223.514613 C 587.974248 220.237635 589.884713 217.066795 591.941115 213.975557 C 594.010785 210.884319 596.213127 207.912485 598.574673 205.033521 C 600.922953 202.167824 603.41717 199.421532 606.044059 196.794643 C 608.670948 194.167754 611.417241 191.673536 614.282938 189.325257 C 617.161902 186.96371 620.133735 184.761369 623.224973 182.691699 C 626.316211 180.635296 629.487052 178.724832 632.764029 176.973572 C 636.041007 175.222313 639.397587 173.643527 642.820502 172.223945 C 646.256685 170.804364 649.745937 169.543988 653.301524 168.469352 C 656.85711 167.394715 660.452499 166.492551 664.087688 165.76286 C 667.736145 165.046436 671.397869 164.502484 675.099394 164.131005 C 678.787652 163.772793 682.502444 163.587053 686.203969 163.587053 C 689.918762 163.587053 693.633554 163.772793 697.321812 164.131005 C 701.023337 164.502484 704.685061 165.046436 708.333518 165.76286 C 711.968707 166.492551 715.564095 167.394715 719.119682 168.469352 C 722.675269 169.543988 726.164521 170.804364 729.600703 172.223945 C 733.023619 173.643527 736.380199 175.222313 739.657177 176.973572 C 742.920887 178.724832 746.104995 180.635296 749.196233 182.691699 C 752.28747 184.761369 755.259304 186.96371 758.125001 189.325257 C 761.003965 191.673536 763.750258 194.167754 766.377147 196.794643 C 769.004036 199.421532 771.484986 202.167824 773.846533 205.033521 C 776.208079 207.912485 778.41042 210.884319 780.48009 213.975557 C 782.536493 217.066795 784.446958 220.237635 786.198217 223.514613 C 787.949476 226.79159 789.528263 230.14817 790.947844 233.571086 C 792.367426 237.007269 793.614535 240.49652 794.702438 244.052107 C 795.777074 247.607694 796.679238 251.203082 797.395662 254.838272 C 798.125354 258.486729 798.669305 262.148452 799.027518 265.849978 C 799.398997 269.538236 799.584736 273.253028 799.584736 276.954553 Z M 799.584736 276.954553 " stroke="#ffa8a7" stroke-width="0.62" stroke-opacity="1" stroke-miterlimit="2.613"/></g><path fill="#000000" d="M 282.59375 100.230469 C 277.515625 108.527344 268.367188 114.0625 257.929688 114.0625 C 241.972656 114.0625 229.035156 101.125 229.035156 85.167969 C 229.035156 74.730469 234.570312 65.582031 242.867188 60.503906 C 240.183594 64.890625 238.632812 70.046875 238.632812 75.566406 C 238.632812 91.527344 251.570312 104.464844 267.53125 104.464844 C 273.046875 104.464844 278.207031 102.914062 282.59375 100.230469 Z M 282.59375 100.230469 " fill-opacity="1" fill-rule="evenodd"/><path fill="#000000" d="M 258.773438 75.460938 L 258.78125 75.519531 C 259.261719 79.214844 260.851562 81.921875 263.011719 82.726562 L 263.023438 82.730469 L 262.988281 82.746094 C 260.828125 83.566406 259.242188 86.289062 258.773438 89.980469 L 258.769531 90 L 258.761719 89.9375 C 258.28125 86.246094 256.691406 83.539062 254.53125 82.738281 L 254.519531 82.730469 L 254.558594 82.71875 C 256.714844 81.898438 258.300781 79.175781 258.769531 75.484375 Z M 258.773438 75.460938 " fill-opacity="1" fill-rule="evenodd"/><path fill="#000000" d="M 262.394531 72.78125 L 262.398438 72.8125 C 262.625 74.5625 263.382812 75.851562 264.40625 76.230469 L 264.410156 76.234375 L 264.394531 76.238281 C 263.371094 76.628906 262.617188 77.921875 262.394531 79.671875 L 262.394531 79.683594 L 262.390625 79.65625 C 262.164062 77.902344 261.410156 76.617188 260.382812 76.238281 L 260.378906 76.234375 L 260.394531 76.226562 C 261.421875 75.839844 262.171875 74.546875 262.394531 72.792969 Z M 262.394531 72.78125 " fill-opacity="1" fill-rule="evenodd"/><path fill="#000000" d="M 161.445312 91.660156 C 161.445312 91.660156 156.734375 97.589844 152.226562 91.660156 C 147.714844 85.734375 158.925781 83.46875 150.457031 78.628906 C 141.984375 73.789062 144.179688 57.941406 152.835938 60.136719 C 161.488281 62.332031 163.703125 46.015625 169.046875 53.675781 C 174.390625 61.335938 188.941406 56.152344 183.777344 66.988281 C 183.160156 68.285156 180.492188 76.988281 185.355469 79.425781 C 187.839844 80.671875 182.988281 85.808594 183.214844 88.441406 C 183.96875 97.21875 174.257812 93.214844 168.558594 91.464844 C 168.558594 91.464844 169.410156 90.734375 161.445312 91.660156 Z M 161.445312 91.660156 " fill-opacity="1" fill-rule="evenodd"/><g clip-path="url(#ce1f816616)"><path fill="#c62328" d="M 150.09375 169.273438 C 149.09375 172.222656 147.757812 176.21875 146.273438 181.460938 C 144.789062 186.699219 143.152344 193.183594 142.609375 200 C 142.0625 206.816406 142.609375 213.964844 144.425781 223.8125 C 146.242188 233.65625 149.332031 246.199219 151.664062 254.378906 C 153.996094 262.558594 155.574219 266.378906 156.390625 269.011719 C 157.210938 271.648438 157.269531 273.101562 156.875 277.949219 C 156.480469 282.792969 155.632812 291.035156 156.695312 299.003906 C 157.753906 306.96875 160.722656 314.664062 162.84375 320.785156 C 164.964844 326.902344 166.238281 331.449219 167.148438 335.628906 C 168.054688 339.8125 168.601562 343.628906 168.257812 348 C 167.917969 352.367188 166.691406 357.292969 165.734375 360.144531 C 164.777344 362.996094 164.089844 363.773438 163.789062 364.691406 C 163.492188 365.605469 163.585938 366.660156 164.613281 367.828125 C 165.644531 369 167.613281 370.277344 169.261719 370.714844 C 170.914062 371.152344 172.242188 370.738281 173.203125 370.761719 C 174.164062 370.785156 174.761719 371.242188 175.21875 371.335938 C 175.679688 371.425781 176 371.152344 176.273438 370.214844 C 176.546875 369.273438 176.777344 367.671875 176.800781 365.015625 C 176.824219 362.359375 176.640625 358.648438 177 356.101562 C 177.359375 353.554688 178.257812 352.167969 179.125 350.9375 C 179.988281 349.707031 180.820312 348.636719 180.214844 346.988281 C 179.609375 345.34375 177.566406 343.125 176.542969 340.511719 C 175.523438 337.898438 175.523438 334.882812 175.886719 327.433594 C 176.246094 319.984375 176.976562 308.105469 176.472656 298.019531 C 175.972656 287.933594 174.242188 279.648438 173.394531 275.195312 C 172.546875 270.742188 172.582031 270.117188 173.722656 268.300781 C 174.867188 266.480469 177.117188 263.46875 179.25 261.023438 C 181.382812 258.582031 183.390625 256.710938 184.707031 254.910156 C 186.023438 253.105469 186.648438 251.375 188.671875 249.765625 C 190.699219 248.15625 194.128906 246.664062 199.878906 243.703125 C 205.628906 240.742188 213.703125 236.308594 223.261719 231.800781 C 232.824219 227.296875 243.875 222.726562 250.855469 219.15625 C 257.835938 215.585938 260.746094 213.023438 260.882812 209.457031 C 261.023438 205.890625 258.390625 201.316406 252.898438 196.917969 C 247.410156 192.519531 239.058594 188.289062 232.046875 185.640625 C 225.027344 182.992188 219.347656 181.917969 213.894531 181.328125 C 208.4375 180.738281 203.207031 180.636719 199.1875 179.890625 C 195.167969 179.144531 192.363281 177.757812 189.921875 174.675781 C 187.476562 171.59375 185.398438 166.8125 184.015625 162.292969 C 182.628906 157.773438 181.9375 153.511719 182.734375 147.8125 C 183.53125 142.113281 185.816406 134.976562 187.515625 129.433594 C 189.214844 123.890625 190.320312 119.941406 191 116.546875 C 191.671875 113.152344 191.917969 110.3125 193.839844 105.566406 C 195.761719 100.820312 199.367188 94.167969 202.363281 86.5625 C 205.359375 78.957031 207.75 70.402344 209.050781 64.652344 C 210.347656 58.898438 210.558594 55.957031 208.527344 52.976562 C 206.503906 49.996094 202.238281 46.980469 196.230469 42.289062 C 190.222656 37.59375 182.460938 31.222656 178.550781 27.695312 C 174.640625 24.175781 174.582031 23.503906 174.429688 22.246094 C 174.28125 20.988281 174.035156 19.144531 173.433594 17.476562 C 172.832031 15.808594 171.871094 14.316406 171.214844 12.199219 C 170.558594 10.082031 170.207031 7.335938 169.679688 5.703125 C 169.144531 4.066406 168.4375 3.535156 167.804688 3.777344 C 167.171875 4.019531 166.621094 5.027344 165.914062 7.070312 C 165.210938 9.109375 164.359375 12.175781 163.570312 14.613281 C 162.785156 17.054688 162.066406 18.859375 161.707031 20.496094 C 161.347656 22.128906 161.347656 23.589844 161.175781 24.386719 C 161 25.1875 160.65625 25.328125 157.535156 27.679688 C 154.417969 30.03125 148.53125 34.597656 142.601562 39.359375 C 136.667969 44.121094 130.6875 49.082031 127.710938 52.429688 C 124.734375 55.777344 124.757812 57.515625 125.464844 60.644531 C 126.171875 63.773438 127.558594 68.292969 129.632812 74.773438 C 131.707031 81.253906 134.457031 89.699219 136.753906 95.59375 C 139.046875 101.492188 140.878906 104.839844 141.882812 107.203125 C 142.886719 109.5625 143.066406 110.9375 143.507812 113.863281 C 143.949219 116.792969 144.652344 121.265625 146.027344 125.425781 C 147.402344 129.585938 149.445312 133.429688 150.660156 138.117188 C 151.878906 142.804688 152.265625 148.339844 152.425781 152.550781 C 152.585938 156.761719 152.511719 159.652344 152.140625 162.046875 C 151.769531 164.4375 151.101562 166.335938 150.097656 169.28125 Z M 167.992188 11.015625 C 167.992188 11.015625 168.726562 24.320312 165.238281 28.214844 C 161.753906 32.109375 149.148438 47.792969 135.820312 58.144531 C 135.820312 58.144531 141.664062 78.128906 146.070312 85.507812 C 150.480469 92.886719 151.605469 100.367188 154.886719 101.90625 C 158.167969 103.445312 164.214844 99.242188 161.445312 91.660156 C 161.445312 91.660156 156.734375 89.710938 155.605469 80.792969 C 154.476562 71.875 160.011719 64.90625 166.878906 64.292969 C 173.746094 63.675781 179.792969 70.03125 180.203125 79.359375 C 180.609375 88.683594 172.921875 93.09375 172.921875 93.09375 C 172.921875 93.09375 174.550781 106.449219 180.515625 102.421875 C 186.484375 98.390625 190.667969 80.953125 194.699219 71.886719 C 198.730469 62.816406 199.738281 58.863281 199.738281 58.863281 C 194.511719 53.621094 169.960938 30.328125 169.203125 24.765625 C 168.738281 21.355469 167.984375 11.015625 167.984375 11.015625 Z M 224.203125 211.050781 C 224.203125 211.050781 202.058594 212.226562 194.464844 209.875 C 186.871094 207.527344 180.09375 204.089844 175.480469 209.605469 C 170.871094 215.121094 175.753906 243.953125 174.757812 253.351562 C 174.757812 253.351562 176.34375 250.925781 176.046875 246.113281 C 175.75 241.296875 177.828125 238.742188 181.515625 240.167969 C 185.199219 241.59375 186.984375 241.292969 189.003906 238.917969 C 191.023438 236.542969 209.507812 216.15625 224.203125 211.046875 Z M 224.203125 211.050781 " fill-opacity="1" fill-rule="evenodd"/></g><g clip-path="url(#88f08d9c4b)"><path stroke-linecap="butt" transform="matrix(0.294431, 0, 0, 0.294431, 55.889967, 3.623963)" fill="none" stroke-linejoin="miter" d="M 319.951986 562.608812 C 316.555604 572.625484 312.018251 586.197743 306.976747 604.002211 C 301.935243 621.793413 296.376322 643.816824 294.532193 666.96794 C 292.674797 690.119056 294.532193 714.397877 300.701401 747.844275 C 306.87061 781.277405 317.364898 823.878112 325.285366 851.659452 C 333.205834 879.440791 338.565748 892.41603 341.338575 901.358066 C 344.12467 910.313368 344.323676 915.248735 342.983698 931.713225 C 341.643719 948.164448 338.764755 976.158061 342.37341 1003.222976 C 345.968799 1030.274625 356.051806 1056.410842 363.25585 1077.200411 C 370.459893 1097.976714 374.784973 1113.419636 377.876211 1127.615449 C 380.954182 1141.82453 382.811578 1154.786501 381.644072 1169.632403 C 380.489833 1184.465038 376.323958 1201.19487 373.073515 1210.879865 C 369.823072 1220.564859 367.48806 1223.205015 366.466492 1226.322787 C 365.458191 1229.427292 365.776602 1233.009413 369.265853 1236.97628 C 372.768371 1240.956415 379.454998 1245.294761 385.05372 1246.780678 C 390.66571 1248.266595 395.176529 1246.860281 398.440239 1246.939884 C 401.70395 1247.019486 403.733818 1248.571739 405.286071 1248.89015 C 406.851591 1249.195293 407.939494 1248.266595 408.868192 1245.082488 C 409.79689 1241.885113 410.57965 1236.445596 410.659253 1227.423957 C 410.738855 1218.402319 410.115301 1205.798559 411.335875 1197.1484 C 412.55645 1188.498241 415.607887 1183.788415 418.553186 1179.609274 C 421.485219 1175.430133 424.311114 1171.794943 422.254711 1166.19622 C 420.198308 1160.610765 413.259607 1153.075043 409.783623 1144.199343 C 406.320906 1135.323643 406.320906 1125.08143 407.554748 1099.781041 C 408.775322 1074.480653 411.256273 1034.135355 409.544815 999.879663 C 407.846624 965.623972 401.969292 937.48442 399.090328 922.359909 C 396.211364 907.235398 396.330768 905.112659 400.204766 898.943451 C 404.092031 892.760975 411.733889 882.532029 418.977734 874.226815 C 426.221579 865.934868 433.040876 859.57992 437.511894 853.463779 C 441.982912 847.334372 444.10565 841.45704 450.978016 835.990989 C 457.863649 830.524937 469.512176 825.456899 489.04137 815.400426 C 508.570563 805.343952 535.99369 790.285777 568.458321 774.975526 C 600.93622 759.678542 638.468889 744.156017 662.177224 732.029874 C 685.885559 719.90373 695.769559 711.200503 696.233909 699.087626 C 696.711525 686.97475 687.769489 671.438958 669.115925 656.500186 C 650.475628 641.561415 622.110536 627.193129 598.296064 618.198025 C 574.455058 609.20292 555.164672 605.554464 536.643779 603.551129 C 518.109619 601.547795 500.344952 601.20285 486.69309 598.668831 C 473.041229 596.134812 463.51544 591.424986 455.223493 580.957232 C 446.918279 570.489478 439.860173 554.250529 435.163614 538.900477 C 430.453789 523.550424 428.105509 509.076002 430.812001 489.71928 C 433.518492 470.362559 441.279755 446.12354 447.05095 427.297503 C 452.822145 408.471467 456.576739 395.058413 458.885217 383.52929 C 461.16716 372.000167 462.002989 362.354974 468.530409 346.235429 C 475.05783 330.115884 487.303377 307.521987 497.479255 281.690913 C 507.655132 255.85984 515.774607 226.804857 520.192556 207.275664 C 524.597238 187.733203 525.313663 177.743065 518.414763 167.620256 C 511.542397 157.497447 497.054707 147.255234 476.649884 131.321429 C 456.245061 115.374356 429.883303 93.735691 416.60292 81.755486 C 403.322538 69.801815 403.123531 67.519872 402.606114 63.247861 C 402.101963 58.975849 401.266135 52.713771 399.222999 47.048713 C 397.179864 41.383655 393.916153 36.315617 391.687278 29.12484 C 389.458402 21.934064 388.264362 12.607282 386.473301 7.061627 C 384.655707 1.502706 382.254359 -0.301622 380.105086 0.52094 C 377.955813 1.343501 376.08515 4.766416 373.683802 11.705118 C 371.295722 18.630552 368.403491 29.045237 365.723533 37.323917 C 363.056843 45.615864 360.615694 51.745272 359.395119 57.304193 C 358.174545 62.849847 358.174545 67.811748 357.590792 70.51824 C 356.993771 73.237998 355.826265 73.715614 345.22584 81.702418 C 334.638682 89.689221 314.645139 105.198479 294.505659 121.371092 C 274.35291 137.543706 254.040957 154.392942 243.931415 165.76286 C 233.821873 177.132778 233.901476 183.036644 236.302824 193.663603 C 238.704172 204.290563 243.413998 219.640615 250.458836 241.650759 C 257.503674 263.660904 266.843723 292.344407 274.644787 312.364484 C 282.432584 332.397828 288.654861 343.767746 292.064509 351.79435 C 295.474158 359.807688 296.084445 364.477712 297.583629 374.414782 C 299.082813 384.365118 301.470894 399.555965 306.140919 413.685443 C 310.810943 427.814921 317.749644 440.869762 321.875717 456.7903 C 326.015057 472.710839 327.328502 491.510341 327.872453 505.812291 C 328.416405 520.114242 328.16433 529.931907 326.903954 538.064648 C 325.643578 546.184123 323.374901 552.631941 319.965253 562.635346 Z M 380.741908 25.104904 C 380.741908 25.104904 383.236125 70.292699 371.388591 83.520013 C 359.554325 96.747327 316.741344 150.014794 271.473946 185.17265 C 271.473946 185.17265 291.321551 253.047211 306.286857 278.108792 C 321.26543 303.170373 325.086359 328.576899 336.230736 333.804142 C 347.375113 339.031385 367.912607 324.755969 358.506223 299.004499 C 358.506223 299.004499 342.506082 292.384208 338.671885 262.095384 C 334.837689 231.80656 353.637191 208.138026 376.96078 206.055089 C 400.284368 203.958885 420.821863 225.544481 422.21491 257.226353 C 423.59469 288.894957 397.485007 303.87353 397.485007 303.87353 C 397.485007 303.87353 403.017394 349.233797 423.276279 335.555401 C 443.548431 321.863738 457.757512 262.639336 471.449175 231.846361 C 485.140838 201.04012 488.563753 187.613799 488.563753 187.613799 C 470.812353 169.80933 387.428534 90.697522 384.854713 71.80515 C 383.275927 60.222958 380.715373 25.104904 380.715373 25.104904 Z M 571.655696 704.500609 C 571.655696 704.500609 496.44442 708.494011 470.653148 700.507208 C 444.861876 692.533671 421.843431 680.85861 406.174968 699.591777 C 390.519772 718.324943 407.103666 816.249521 403.720551 848.1702 C 403.720551 848.1702 409.107 839.931322 408.098699 823.586236 C 407.090399 807.227883 414.148504 798.551189 426.672661 803.393686 C 439.18355 808.236184 445.246622 807.214616 452.105721 799.14821 C 458.964819 791.081804 521.744809 721.840729 571.655696 704.487342 Z M 571.655696 704.500609 " stroke="#000000" stroke-width="0.62" stroke-opacity="1" stroke-miterlimit="2.613"/></g><path fill="#000000" d="M 155.492188 79.371094 C 156.457031 79.273438 157.980469 78.664062 159.589844 77.773438 C 161.203125 76.882812 162.902344 75.71875 164.046875 74.511719 C 165.1875 73.308594 165.773438 72.0625 166.429688 70.878906 C 167.089844 69.699219 167.828125 68.585938 168.511719 67.886719 C 169.199219 67.1875 169.832031 66.910156 170.175781 67.011719 C 170.519531 67.113281 170.570312 67.59375 170.925781 68.371094 C 171.28125 69.144531 171.941406 70.210938 172.992188 71.527344 C 174.046875 72.847656 175.492188 74.421875 176.976562 75.617188 C 178.460938 76.808594 179.984375 77.621094 180.8125 77.949219 C 181.636719 78.28125 181.761719 78.125 181.722656 77.214844 C 181.6875 76.300781 181.484375 74.625 180.65625 72.339844 C 179.832031 70.054688 178.386719 67.164062 175.851562 65.035156 C 173.3125 62.902344 169.683594 61.53125 165.925781 61.457031 C 162.171875 61.378906 158.289062 62.597656 155.929688 64.171875 C 153.566406 65.742188 152.730469 67.671875 152.351562 69.792969 C 151.972656 71.910156 152.046875 74.21875 152.351562 75.730469 C 152.65625 77.242188 153.1875 77.949219 153.660156 78.507812 C 154.125 79.070312 154.53125 79.472656 155.5 79.371094 Z M 155.492188 79.371094 " fill-opacity="1" fill-rule="evenodd"/><g clip-path="url(#441549a9d9)"><path stroke-linecap="butt" transform="matrix(0.294431, 0, 0, 0.294431, 55.889967, 3.623963)" fill="none" stroke-linejoin="miter" d="M 227.055645 516.585189 C 227.055645 520.299981 226.883172 524.001506 226.511693 527.703031 C 226.153481 531.391289 225.609529 535.06628 224.879838 538.70147 C 224.163413 542.349927 223.26125 545.945315 222.173346 549.500902 C 221.09871 553.056489 219.851601 556.54574 218.43202 559.968656 C 217.012438 563.404839 215.420384 566.761419 213.669125 570.038396 C 211.917866 573.302107 210.020669 576.486214 207.950999 579.577452 C 205.894596 582.66869 203.678987 585.640524 201.330708 588.506221 C 198.969162 591.385185 196.474944 594.131478 193.861322 596.758366 C 191.234433 599.385255 188.474873 601.866206 185.609176 604.227752 C 182.74348 606.576032 179.758379 608.79164 176.680408 610.848043 C 173.58917 612.917713 170.405062 614.828177 167.128085 616.579437 C 163.851107 618.317429 160.507794 619.909482 157.071612 621.329064 C 153.648696 622.748645 150.146177 623.995754 146.603858 625.083657 C 143.048271 626.158294 139.452883 627.060458 135.804426 627.776882 C 132.169236 628.506573 128.494245 629.050525 124.805987 629.408737 C 121.104462 629.780216 117.402937 629.965956 113.688145 629.965956 C 109.973352 629.965956 106.271827 629.780216 102.583569 629.408737 C 98.882044 629.050525 95.22032 628.506573 91.571864 627.776882 C 87.936674 627.060458 84.328019 626.158294 80.785699 625.083657 C 77.230112 623.995754 73.740861 622.748645 70.304678 621.329064 C 66.868495 619.909482 63.525182 618.317429 60.248204 616.579437 C 56.971227 614.828177 53.787119 612.917713 50.709149 610.848043 C 47.617911 608.79164 44.63281 606.576032 41.767113 604.227752 C 38.901416 601.866206 36.155123 599.385255 33.528234 596.758366 C 30.901345 594.131478 28.407128 591.385185 26.058848 588.506221 C 23.697302 585.640524 21.494961 582.66869 19.425291 579.577452 C 17.368888 576.486214 15.458423 573.302107 13.707164 570.038396 C 11.955905 566.761419 10.377118 563.404839 8.94427 559.968656 C 7.524688 556.54574 6.27758 553.056489 5.202943 549.500902 C 4.128307 545.945315 3.226143 542.349927 2.496452 538.70147 C 1.780027 535.06628 1.236076 531.391289 0.864597 527.703031 C 0.506384 524.001506 0.320645 520.299981 0.320645 516.585189 C 0.320645 512.870397 0.506384 509.168871 0.864597 505.480613 C 1.236076 501.779088 1.780027 498.117364 2.496452 494.468908 C 3.226143 490.833718 4.128307 487.23833 5.202943 483.682743 C 6.27758 480.127156 7.524688 476.637905 8.94427 473.201722 C 10.377118 469.778806 11.955905 466.422226 13.707164 463.145249 C 15.458423 459.868271 17.368888 456.697431 19.425291 453.606193 C 21.494961 450.514955 23.697302 447.543121 26.058848 444.664157 C 28.407128 441.79846 30.901345 439.052167 33.528234 436.425278 C 36.155123 433.79839 38.901416 431.304172 41.767113 428.955893 C 44.63281 426.594346 47.617911 424.392005 50.709149 422.322335 C 53.787119 420.265932 56.971227 418.355467 60.248204 416.604208 C 63.525182 414.852949 66.868495 413.274162 70.304678 411.854581 C 73.740861 410.435 77.230112 409.174624 80.785699 408.099987 C 84.328019 407.025351 87.936674 406.123187 91.571864 405.393496 C 95.22032 404.677072 98.882044 404.13312 102.583569 403.761641 C 106.271827 403.403429 109.973352 403.217689 113.688145 403.217689 C 117.402937 403.217689 121.104462 403.403429 124.805987 403.761641 C 128.494245 404.13312 132.169236 404.677072 135.804426 405.393496 C 139.452883 406.123187 143.048271 407.025351 146.603858 408.099987 C 150.146177 409.174624 153.648696 410.435 157.071612 411.854581 C 160.507794 413.274162 163.851107 414.852949 167.128085 416.604208 C 170.405062 418.355467 173.58917 420.265932 176.680408 422.322335 C 179.758379 424.392005 182.74348 426.594346 185.609176 428.955893 C 188.474873 431.304172 191.234433 433.79839 193.861322 436.425278 C 196.474944 439.052167 198.969162 441.79846 201.330708 444.664157 C 203.678987 447.543121 205.894596 450.514955 207.950999 453.606193 C 210.020669 456.697431 211.917866 459.868271 213.669125 463.145249 C 215.420384 466.422226 217.012438 469.778806 218.43202 473.201722 C 219.851601 476.637905 221.09871 480.127156 222.173346 483.682743 C 223.26125 487.23833 224.163413 490.833718 224.879838 494.468908 C 225.609529 498.117364 226.153481 501.779088 226.511693 505.480613 C 226.883172 509.168871 227.055645 512.870397 227.055645 516.585189 Z M 227.055645 516.585189 " stroke="#ffa8a7" stroke-width="0.62" stroke-opacity="1" stroke-miterlimit="2.613"/></g><path fill="#000000" d="M 114.023438 170.785156 C 108.945312 179.082031 99.800781 184.617188 89.363281 184.617188 C 73.40625 184.617188 60.46875 171.679688 60.46875 155.722656 C 60.46875 145.285156 66.003906 136.136719 74.300781 131.058594 C 71.617188 135.445312 70.066406 140.601562 70.066406 146.121094 C 70.066406 162.082031 83.003906 175.019531 98.960938 175.019531 C 104.480469 175.019531 109.636719 173.46875 114.023438 170.785156 Z M 114.023438 170.785156 " fill-opacity="1" fill-rule="evenodd"/><path fill="#000000" d="M 90.207031 146.015625 L 90.214844 146.074219 C 90.695312 149.769531 92.285156 152.476562 94.445312 153.28125 L 94.457031 153.285156 L 94.417969 153.300781 C 92.261719 154.121094 90.675781 156.84375 90.207031 160.535156 L 90.203125 160.554688 L 90.195312 160.492188 C 89.714844 156.800781 88.125 154.09375 85.964844 153.292969 L 85.953125 153.285156 L 85.988281 153.269531 C 88.148438 152.453125 89.734375 149.730469 90.203125 146.039062 Z M 90.207031 146.015625 " fill-opacity="1" fill-rule="evenodd"/><path fill="#000000" d="M 93.828125 143.335938 L 93.832031 143.367188 C 94.058594 145.117188 94.8125 146.40625 95.839844 146.785156 L 95.84375 146.789062 L 95.828125 146.792969 C 94.800781 147.183594 94.050781 148.476562 93.828125 150.226562 L 93.828125 150.238281 L 93.824219 150.210938 C 93.597656 148.457031 92.839844 147.171875 91.816406 146.792969 L 91.8125 146.789062 L 91.828125 146.78125 C 92.851562 146.394531 93.605469 145.101562 93.828125 143.347656 Z M 93.828125 143.335938 " fill-opacity="1" fill-rule="evenodd"/></svg>