<svg xmlns="http://www.w3.org/2000/svg" xmlns:xlink="http://www.w3.org/1999/xlink" width="500" zoomAndPan="magnify" viewBox="0 0 375 374.999991" height="500" preserveAspectRatio="xMidYMid meet" version="1.0"><defs><clipPath id="87bf6cdd57"><path d="M 222 10.007812 L 234 10.007812 L 234 64 L 222 64 Z M 222 10.007812 " clip-rule="nonzero"/></clipPath><clipPath id="a4e3699022"><path d="M 93.875 47 L 167 47 L 167 112 L 93.875 112 Z M 93.875 47 " clip-rule="nonzero"/></clipPath><clipPath id="3461f502c1"><path d="M 177 215 L 276 215 L 276 364.757812 L 177 364.757812 Z M 177 215 " clip-rule="nonzero"/></clipPath></defs><path fill="#c62328" d="M 201.292969 233.988281 C 201.246094 233.988281 201.199219 233.976562 201.152344 233.960938 C 200.972656 233.882812 200.882812 233.671875 200.960938 233.488281 C 208.738281 214.875 212 198.339844 211.234375 181.449219 C 210.265625 160.140625 213.527344 137.933594 220.660156 117.230469 C 224.28125 106.710938 228.863281 96.707031 234.277344 87.5 C 239.878906 77.964844 246.363281 69.308594 253.542969 61.757812 C 253.679688 61.613281 253.90625 61.609375 254.050781 61.746094 C 254.195312 61.882812 254.199219 62.109375 254.0625 62.253906 C 246.917969 69.761719 240.472656 78.378906 234.894531 87.863281 C 229.507812 97.03125 224.945312 106.992188 221.335938 117.464844 C 214.230469 138.085938 210.988281 160.199219 211.949219 181.417969 C 212.722656 198.417969 209.441406 215.050781 201.621094 233.765625 C 201.566406 233.90625 201.429688 233.988281 201.289062 233.988281 Z M 201.292969 233.988281 " fill-opacity="1" fill-rule="nonzero"/><path fill="#c62328" d="M 201.289062 233.988281 C 201.109375 233.988281 200.953125 233.847656 200.933594 233.664062 C 199.332031 217.582031 205.816406 202.027344 212.085938 186.988281 C 214.417969 181.386719 216.832031 175.59375 218.773438 169.894531 C 222.261719 159.640625 226.828125 149.460938 232.347656 139.640625 C 237.671875 130.171875 243.9375 120.925781 250.972656 112.164062 C 251.09375 112.007812 251.320312 111.984375 251.476562 112.109375 C 251.628906 112.234375 251.65625 112.457031 251.53125 112.613281 C 244.519531 121.34375 238.277344 130.558594 232.976562 139.992188 C 227.476562 149.777344 222.925781 159.914062 219.453125 170.125 C 217.503906 175.847656 215.085938 181.648438 212.746094 187.261719 C 209.628906 194.742188 206.40625 202.472656 204.226562 210.179688 C 201.78125 218.808594 200.9375 226.46875 201.648438 233.59375 C 201.667969 233.789062 201.523438 233.96875 201.328125 233.988281 C 201.316406 233.988281 201.300781 233.988281 201.289062 233.988281 Z M 201.289062 233.988281 " fill-opacity="1" fill-rule="nonzero"/><path fill="#c62328" d="M 218.570312 172.09375 C 218.527344 172.09375 218.484375 172.085938 218.441406 172.070312 C 218.253906 172 218.164062 171.792969 218.234375 171.605469 C 220.820312 164.824219 224.445312 159.164062 229.324219 154.300781 C 233.851562 149.785156 239.460938 145.96875 246.46875 142.628906 C 249.589844 141.144531 252.910156 139.902344 256.125 138.707031 C 262.214844 136.433594 268.515625 134.082031 273.664062 129.957031 C 273.5625 128.65625 273.738281 127.328125 274.175781 126.101562 C 274.585938 124.953125 275.175781 124.078125 275.925781 123.5 C 276.871094 122.773438 278.109375 122.570312 279.078125 122.980469 C 280.378906 123.535156 281.109375 125.214844 280.699219 126.722656 C 280.363281 127.976562 279.351562 129.085938 277.929688 129.769531 C 277.0625 130.183594 276.15625 130.261719 275.28125 130.339844 C 274.925781 130.367188 274.554688 130.402344 274.191406 130.457031 C 268.9375 134.691406 262.550781 137.074219 256.375 139.378906 C 253.179688 140.570312 249.871094 141.804688 246.777344 143.277344 C 239.84375 146.578125 234.300781 150.351562 229.832031 154.808594 C 225.027344 159.601562 221.453125 165.179688 218.90625 171.863281 C 218.851562 172.007812 218.714844 172.09375 218.570312 172.09375 Z M 278.003906 123.488281 C 277.445312 123.488281 276.855469 123.691406 276.359375 124.070312 C 275.722656 124.558594 275.214844 125.324219 274.851562 126.34375 C 274.46875 127.414062 274.304688 128.570312 274.367188 129.707031 C 274.65625 129.671875 274.941406 129.648438 275.21875 129.625 C 276.066406 129.550781 276.867188 129.480469 277.621094 129.121094 C 278.855469 128.527344 279.722656 127.585938 280.007812 126.539062 C 280.324219 125.359375 279.78125 124.0625 278.796875 123.644531 C 278.550781 123.539062 278.28125 123.488281 278.003906 123.488281 Z M 278.003906 123.488281 " fill-opacity="1" fill-rule="nonzero"/><path fill="#c62328" d="M 265.359375 135.691406 C 265.359375 135.691406 265.359375 135.691406 265.355469 135.691406 C 265.25 135.6875 265.148438 135.640625 265.078125 135.554688 C 263.621094 133.714844 262.9375 131.324219 263.195312 128.992188 C 263.316406 127.890625 263.695312 127.125 264.324219 126.71875 C 264.78125 126.421875 265.355469 126.347656 265.9375 126.507812 C 266.644531 126.707031 267.28125 127.230469 267.597656 127.878906 C 268.046875 128.808594 268.050781 129.953125 267.609375 131.386719 C 267.144531 132.890625 266.640625 134.339844 265.636719 135.558594 C 265.570312 135.644531 265.46875 135.691406 265.363281 135.691406 Z M 265.339844 127.140625 C 265.140625 127.140625 264.921875 127.1875 264.714844 127.320312 C 264.277344 127.605469 264.003906 128.195312 263.90625 129.070312 C 263.6875 131.058594 264.214844 133.097656 265.367188 134.734375 C 266.105469 133.6875 266.527344 132.453125 266.921875 131.171875 C 267.308594 129.921875 267.320312 128.949219 266.953125 128.195312 C 266.726562 127.730469 266.253906 127.339844 265.746094 127.199219 C 265.628906 127.167969 265.488281 127.140625 265.339844 127.140625 Z M 265.339844 127.140625 " fill-opacity="1" fill-rule="nonzero"/><path fill="#c62328" d="M 271.855469 141.078125 C 271.066406 141.078125 270.296875 140.695312 269.769531 140.183594 C 269.003906 139.441406 268.566406 138.464844 268.144531 137.519531 C 268.03125 137.265625 267.921875 137.023438 267.808594 136.789062 C 267.785156 136.738281 267.726562 136.597656 267.605469 136.3125 C 267.425781 135.894531 267.015625 134.933594 266.902344 134.734375 C 266.847656 134.671875 266.8125 134.585938 266.8125 134.496094 C 266.8125 134.296875 266.972656 134.136719 267.167969 134.136719 C 267.179688 134.136719 267.207031 134.132812 267.246094 134.132812 C 268.605469 134.074219 270.441406 134.085938 271.46875 134.46875 C 273.019531 135.042969 274.144531 136.25 274.402344 137.613281 C 274.613281 138.738281 274.125 139.984375 273.210938 140.640625 C 272.78125 140.949219 272.316406 141.078125 271.855469 141.078125 Z M 267.746094 134.832031 C 267.761719 134.871094 267.777344 134.910156 267.796875 134.953125 C 267.949219 135.296875 268.132812 135.722656 268.265625 136.03125 C 268.351562 136.242188 268.4375 136.4375 268.453125 136.476562 C 268.574219 136.722656 268.6875 136.980469 268.800781 137.226562 C 269.195312 138.109375 269.601562 139.019531 270.265625 139.664062 C 270.898438 140.273438 271.953125 140.65625 272.789062 140.058594 C 273.476562 139.566406 273.855469 138.59375 273.695312 137.746094 C 273.53125 136.871094 272.792969 135.726562 271.21875 135.140625 C 270.566406 134.902344 269.34375 134.792969 267.746094 134.832031 Z M 267.171875 134.855469 Z M 267.167969 134.855469 Z M 267.097656 134.847656 C 267.121094 134.851562 267.144531 134.851562 267.167969 134.851562 C 267.144531 134.851562 267.121094 134.851562 267.097656 134.847656 Z M 267.097656 134.847656 " fill-opacity="1" fill-rule="nonzero"/><path fill="#c62328" d="M 256.683594 139.144531 C 256.65625 139.144531 256.625 139.140625 256.597656 139.132812 C 256.488281 139.105469 256.398438 139.03125 256.355469 138.929688 C 255.632812 137.300781 255.203125 135.414062 255.136719 133.617188 C 255.109375 132.8125 255.140625 131.769531 255.640625 130.875 C 256.1875 129.898438 257.234375 129.34375 258.1875 129.53125 C 259.238281 129.734375 259.886719 130.730469 260.148438 131.59375 C 260.539062 132.910156 260.367188 134.460938 259.667969 135.851562 C 259.097656 136.992188 258.167969 138.074219 256.90625 139.066406 C 256.84375 139.117188 256.761719 139.144531 256.683594 139.144531 Z M 257.808594 130.214844 C 257.167969 130.214844 256.566406 130.691406 256.269531 131.226562 C 255.855469 131.96875 255.832031 132.878906 255.855469 133.589844 C 255.914062 135.140625 256.253906 136.761719 256.828125 138.203125 C 257.820312 137.363281 258.558594 136.464844 259.027344 135.53125 C 259.644531 134.300781 259.800781 132.945312 259.460938 131.800781 C 259.261719 131.140625 258.789062 130.378906 258.050781 130.234375 C 257.96875 130.21875 257.890625 130.210938 257.808594 130.210938 Z M 257.808594 130.214844 " fill-opacity="1" fill-rule="nonzero"/><path fill="#c62328" d="M 261.527344 146.246094 C 261.101562 146.246094 260.664062 146.140625 260.234375 145.929688 C 259.503906 145.574219 258.839844 144.941406 258.410156 144.199219 C 257.914062 143.339844 257.5625 142.304688 257.441406 141.367188 C 257.410156 141.117188 257.394531 140.863281 257.378906 140.621094 C 257.363281 140.398438 257.347656 140.1875 257.324219 139.980469 C 257.273438 139.550781 257.1875 139.09375 257.125 138.933594 C 257.039062 138.867188 256.980469 138.761719 256.984375 138.644531 C 256.984375 138.449219 257.144531 138.289062 257.339844 138.289062 L 257.34375 138.289062 C 259.375 138.296875 263.160156 138.316406 264.167969 141.480469 C 264.640625 142.960938 264.203125 145.09375 262.792969 145.90625 C 262.398438 146.132812 261.972656 146.246094 261.53125 146.246094 Z M 257.894531 139.011719 C 257.949219 139.242188 257.992188 139.53125 258.035156 139.894531 C 258.0625 140.121094 258.078125 140.351562 258.09375 140.570312 C 258.109375 140.8125 258.125 141.042969 258.15625 141.277344 C 258.261719 142.125 258.582031 143.058594 259.03125 143.839844 C 259.386719 144.453125 259.953125 144.992188 260.550781 145.285156 C 261.015625 145.511719 261.71875 145.695312 262.433594 145.28125 C 263.527344 144.652344 263.863281 142.886719 263.484375 141.699219 C 262.785156 139.511719 260.4375 139.074219 257.894531 139.011719 Z M 257.894531 139.011719 " fill-opacity="1" fill-rule="nonzero"/><path fill="#c62328" d="M 248.378906 142.507812 C 248.378906 142.507812 248.375 142.507812 248.375 142.507812 C 248.269531 142.507812 248.167969 142.460938 248.101562 142.378906 C 246.5625 140.511719 244.925781 137.996094 245.929688 135.09375 C 246.125 134.539062 246.375 134.097656 246.695312 133.746094 C 247.097656 133.3125 247.605469 133.035156 248.128906 132.96875 C 248.792969 132.882812 249.511719 133.140625 250.054688 133.660156 C 250.488281 134.074219 250.816406 134.644531 251.023438 135.359375 C 251.417969 136.6875 251.296875 138.117188 250.675781 139.496094 C 250.164062 140.636719 249.425781 141.515625 248.648438 142.386719 C 248.582031 142.464844 248.484375 142.507812 248.378906 142.507812 Z M 248.382812 133.667969 C 248.328125 133.667969 248.273438 133.671875 248.21875 133.679688 C 247.863281 133.726562 247.511719 133.921875 247.222656 134.234375 C 246.96875 134.507812 246.769531 134.867188 246.609375 135.328125 C 245.777344 137.734375 247.058594 139.910156 248.390625 141.59375 C 249.039062 140.847656 249.609375 140.121094 250.023438 139.203125 C 250.570312 137.984375 250.679688 136.722656 250.335938 135.5625 C 250.160156 134.972656 249.898438 134.503906 249.554688 134.175781 C 249.214844 133.851562 248.789062 133.667969 248.382812 133.667969 Z M 248.382812 133.667969 " fill-opacity="1" fill-rule="nonzero"/><path fill="#c62328" d="M 253.378906 149.117188 C 252.449219 149.117188 251.496094 148.675781 250.734375 147.886719 C 250.023438 147.148438 249.570312 146.234375 249.183594 145.351562 C 248.789062 144.445312 248.367188 143.316406 248.039062 142.257812 C 248.007812 142.160156 248.019531 142.058594 248.070312 141.96875 C 248.121094 141.882812 248.203125 141.820312 248.300781 141.800781 C 249.972656 141.429688 252 141.734375 253.347656 142.558594 C 254.859375 143.480469 255.78125 145.132812 255.703125 146.761719 C 255.664062 147.523438 255.394531 148.167969 254.945312 148.570312 C 254.589844 148.886719 254.097656 149.078125 253.550781 149.113281 C 253.492188 149.117188 253.4375 149.117188 253.378906 149.117188 Z M 248.847656 142.429688 C 249.148438 143.347656 249.503906 144.289062 249.84375 145.066406 C 250.203125 145.886719 250.621094 146.734375 251.253906 147.390625 C 251.914062 148.074219 252.738281 148.441406 253.507812 148.398438 C 253.894531 148.375 254.234375 148.246094 254.46875 148.035156 C 254.878906 147.667969 254.96875 147.058594 254.984375 146.726562 C 255.050781 145.375 254.246094 143.945312 252.976562 143.171875 C 251.875 142.5 250.261719 142.21875 248.847656 142.429688 Z M 248.847656 142.429688 " fill-opacity="1" fill-rule="nonzero"/><path fill="#c62328" d="M 237.488281 148.453125 C 237.476562 148.453125 237.46875 148.453125 237.460938 148.449219 C 237.351562 148.441406 237.25 148.382812 237.191406 148.292969 C 236.015625 146.550781 235.535156 144.285156 235.800781 141.734375 C 235.886719 140.90625 236.144531 140.113281 236.527344 139.496094 C 237 138.734375 237.652344 138.269531 238.40625 138.15625 C 239.03125 138.0625 239.683594 138.242188 240.242188 138.664062 C 240.9375 139.191406 241.417969 140.023438 241.523438 140.886719 C 241.722656 142.445312 240.949219 143.941406 240.351562 144.929688 C 239.683594 146.039062 238.734375 147.28125 237.75 148.335938 C 237.679688 148.410156 237.585938 148.453125 237.488281 148.453125 Z M 238.738281 138.847656 C 238.664062 138.847656 238.589844 138.855469 238.511719 138.867188 C 237.328125 139.042969 236.652344 140.472656 236.515625 141.808594 C 236.351562 143.363281 236.410156 145.566406 237.539062 147.5 C 238.378906 146.5625 239.164062 145.507812 239.738281 144.558594 C 240.28125 143.660156 240.984375 142.3125 240.8125 140.976562 C 240.730469 140.308594 240.34375 139.644531 239.808594 139.238281 C 239.5625 139.050781 239.191406 138.847656 238.738281 138.847656 Z M 238.738281 138.847656 " fill-opacity="1" fill-rule="nonzero"/><path fill="#c62328" d="M 244.640625 153.050781 C 244.066406 153.050781 243.507812 152.925781 243.015625 152.6875 C 241.484375 151.945312 240.589844 150.46875 239.804688 149.164062 C 239.730469 149.042969 239.457031 148.4375 239.304688 148.082031 C 238.835938 147.011719 238.851562 146.976562 238.921875 146.820312 C 238.96875 146.710938 239.070312 146.632812 239.183594 146.609375 C 241.378906 146.179688 243.089844 146.25 244.417969 146.828125 C 245.820312 147.4375 247.273438 148.96875 247.335938 150.707031 C 247.359375 151.285156 247.171875 151.804688 246.792969 152.210938 C 246.324219 152.714844 245.585938 153.019531 244.773438 153.046875 C 244.726562 153.046875 244.683594 153.050781 244.640625 153.050781 Z M 239.726562 147.242188 C 239.9375 147.757812 240.351562 148.679688 240.417969 148.796875 C 241.152344 150.011719 241.988281 151.394531 243.328125 152.042969 C 243.753906 152.246094 244.246094 152.347656 244.75 152.332031 C 245.363281 152.308594 245.929688 152.082031 246.265625 151.722656 C 246.515625 151.453125 246.632812 151.121094 246.621094 150.738281 C 246.566406 149.304688 245.296875 147.996094 244.132812 147.488281 C 243.023438 147.003906 241.578125 146.921875 239.726562 147.242188 Z M 239.253906 146.960938 Z M 239.601562 146.914062 Z M 239.601562 146.914062 " fill-opacity="1" fill-rule="nonzero"/><path fill="#c62328" d="M 207.808594 215.550781 C 207.707031 215.550781 207.601562 215.507812 207.53125 215.417969 C 207.4375 215.300781 207.425781 215.144531 207.496094 215.019531 C 208.0625 210.136719 210.882812 205.363281 215.242188 201.910156 C 218.949219 198.976562 223.730469 196.933594 229.464844 195.832031 C 229.585938 195.808594 229.710938 195.847656 229.792969 195.9375 C 229.878906 196.027344 229.910156 196.152344 229.882812 196.269531 C 228.382812 202.175781 224.265625 207.386719 218.867188 210.210938 C 217.511719 210.921875 216.066406 211.496094 214.671875 212.050781 C 212.363281 212.964844 209.972656 213.914062 208.035156 215.472656 C 207.96875 215.527344 207.890625 215.550781 207.8125 215.550781 Z M 229.035156 196.648438 C 223.667969 197.75 219.179688 199.710938 215.6875 202.472656 C 211.695312 205.632812 209.042969 209.929688 208.3125 214.367188 C 210.175781 213.058594 212.324219 212.207031 214.40625 211.382812 C 215.785156 210.835938 217.214844 210.265625 218.535156 209.574219 C 223.582031 206.933594 227.476562 202.128906 229.035156 196.648438 Z M 229.035156 196.648438 " fill-opacity="1" fill-rule="nonzero"/><path fill="#c62328" d="M 207.976562 215.039062 C 207.902344 215.039062 207.828125 215.015625 207.765625 214.96875 C 207.605469 214.851562 207.570312 214.628906 207.6875 214.46875 C 211.058594 209.855469 215.550781 206.097656 220.683594 203.59375 C 220.863281 203.507812 221.078125 203.582031 221.164062 203.757812 C 221.253906 203.9375 221.179688 204.152344 221 204.238281 C 215.972656 206.691406 211.570312 210.375 208.269531 214.890625 C 208.199219 214.988281 208.089844 215.039062 207.976562 215.039062 Z M 207.976562 215.039062 " fill-opacity="1" fill-rule="nonzero"/><path fill="#c62328" d="M 201.289062 233.988281 C 201.109375 233.988281 200.953125 233.851562 200.933594 233.664062 C 199.320312 217.726562 204.898438 201.703125 210.292969 186.210938 C 212.4375 180.050781 214.65625 173.679688 216.34375 167.492188 C 218.59375 159.253906 220.046875 150.925781 221.539062 140.949219 C 223.453125 128.121094 225.089844 115.074219 226.398438 102.167969 C 227.941406 86.929688 229.183594 70.722656 226.019531 54.914062 C 224.414062 46.898438 221.558594 39.226562 217.765625 32.730469 C 213.5625 25.53125 208.277344 19.757812 202.054688 15.566406 C 201.890625 15.457031 201.847656 15.234375 201.957031 15.070312 C 202.070312 14.90625 202.292969 14.859375 202.457031 14.972656 C 208.769531 19.222656 214.128906 25.074219 218.386719 32.367188 C 222.21875 38.933594 225.101562 46.679688 226.722656 54.773438 C 229.90625 70.679688 228.660156 86.945312 227.113281 102.242188 C 225.804688 115.15625 224.167969 128.214844 222.25 141.054688 C 220.753906 151.054688 219.296875 159.410156 217.039062 167.679688 C 215.34375 173.890625 213.121094 180.273438 210.972656 186.445312 C 205.605469 201.867188 200.050781 217.8125 201.648438 233.59375 C 201.667969 233.789062 201.523438 233.964844 201.328125 233.988281 C 201.316406 233.988281 201.304688 233.988281 201.289062 233.988281 Z M 201.289062 233.988281 " fill-opacity="1" fill-rule="nonzero"/><path fill="#c62328" d="M 204.945312 204.132812 C 204.875 204.132812 204.804688 204.113281 204.742188 204.074219 C 200.984375 201.53125 197.101562 198.902344 194.265625 195.199219 C 191.109375 191.078125 189.457031 185.640625 189.734375 180.292969 C 189.738281 180.175781 189.804688 180.066406 189.90625 180.003906 C 190.007812 179.941406 190.132812 179.9375 190.242188 179.984375 C 194.589844 181.96875 198.484375 185.425781 201.214844 189.722656 C 203.953125 194.035156 205.40625 199.03125 205.304688 203.785156 C 205.300781 203.914062 205.226562 204.035156 205.109375 204.09375 C 205.058594 204.121094 205 204.132812 204.945312 204.132812 Z M 190.429688 180.867188 C 190.296875 185.871094 191.886719 190.910156 194.835938 194.761719 C 197.460938 198.195312 201.054688 200.707031 204.589844 203.101562 C 204.546875 198.6875 203.144531 194.101562 200.605469 190.105469 C 198.054688 186.085938 194.453125 182.824219 190.429688 180.867188 Z M 190.429688 180.867188 " fill-opacity="1" fill-rule="nonzero"/><path fill="#c62328" d="M 204.945312 204.132812 C 204.808594 204.132812 204.679688 204.054688 204.617188 203.921875 C 202.613281 199.445312 199.570312 195.09375 196.058594 191.664062 C 195.917969 191.527344 195.914062 191.296875 196.050781 191.15625 C 196.191406 191.015625 196.417969 191.011719 196.558594 191.148438 C 200.136719 194.640625 203.230469 199.070312 205.273438 203.628906 C 205.355469 203.808594 205.273438 204.023438 205.09375 204.101562 C 205.046875 204.125 204.996094 204.132812 204.945312 204.132812 Z M 204.945312 204.132812 " fill-opacity="1" fill-rule="nonzero"/><path fill="#c62328" d="M 211.824219 163.277344 C 211.691406 163.277344 211.566406 163.203125 211.503906 163.078125 C 211.160156 162.402344 210.839844 161.726562 210.527344 161.058594 C 206.582031 153.519531 201.003906 149.957031 194.082031 145.535156 L 193.261719 145.011719 C 193.046875 144.875 192.832031 144.738281 192.613281 144.601562 C 190.175781 143.0625 187.414062 141.316406 186.332031 138.414062 C 186.039062 137.636719 185.648438 136.148438 186.304688 134.933594 C 186.761719 134.078125 187.59375 133.605469 188.703125 133.5625 C 189.53125 133.527344 190.5 133.742188 191.363281 134.148438 C 192.5625 134.710938 193.929688 135.390625 195.007812 136.320312 C 204.0625 144.136719 206.832031 150.644531 209.511719 156.9375 C 210.042969 158.183594 210.582031 159.457031 211.175781 160.742188 C 211.515625 161.394531 211.84375 162.070312 212.152344 162.769531 C 212.230469 162.949219 212.15625 163.15625 211.980469 163.238281 C 211.929688 163.261719 211.875 163.273438 211.824219 163.273438 Z M 188.859375 134.273438 C 188.082031 134.273438 187.335938 134.523438 186.933594 135.273438 C 186.414062 136.238281 186.753906 137.496094 187.003906 138.164062 C 188 140.835938 190.539062 142.441406 192.992188 143.992188 C 193.214844 144.132812 193.433594 144.269531 193.648438 144.40625 L 194.46875 144.929688 C 198.140625 147.273438 201.605469 149.488281 204.582031 152.203125 C 206.09375 153.585938 207.421875 155.039062 208.59375 156.613281 C 206.019531 150.582031 203.175781 144.320312 194.535156 136.863281 C 193.53125 135.992188 192.210938 135.339844 191.054688 134.796875 C 190.511719 134.539062 189.667969 134.273438 188.863281 134.273438 Z M 188.859375 134.273438 " fill-opacity="1" fill-rule="nonzero"/><path fill="#c62328" d="M 211.824219 163.273438 C 211.644531 163.273438 211.492188 163.140625 211.46875 162.960938 C 210.746094 157.296875 210.234375 151.597656 209.742188 146.082031 C 208.46875 131.910156 207.269531 118.523438 202.808594 105.09375 C 200.042969 96.769531 197.414062 90.84375 194.015625 85.28125 C 193.910156 85.113281 193.964844 84.894531 194.132812 84.789062 C 194.304688 84.6875 194.523438 84.738281 194.625 84.910156 C 198.058594 90.519531 200.707031 96.488281 203.488281 104.871094 C 207.976562 118.378906 209.179688 131.804688 210.457031 146.019531 C 210.949219 151.527344 211.460938 157.222656 212.179688 162.871094 C 212.203125 163.066406 212.066406 163.246094 211.867188 163.269531 C 211.851562 163.273438 211.835938 163.273438 211.820312 163.273438 Z M 211.824219 163.273438 " fill-opacity="1" fill-rule="nonzero"/><path fill="#c62328" d="M 207.941406 126.492188 C 207.769531 126.492188 207.621094 126.371094 207.589844 126.195312 C 206.695312 121.039062 207.042969 116.335938 207.550781 112.019531 C 207.996094 108.234375 209.351562 102.820312 213.273438 98.519531 C 213.914062 97.816406 214.789062 97.015625 215.898438 97.015625 C 215.914062 97.015625 215.929688 97.015625 215.941406 97.015625 C 216.957031 97.03125 217.933594 97.78125 218.4375 98.917969 C 219.355469 100.992188 218.71875 103.546875 216.546875 106.507812 C 215.273438 108.234375 213.773438 110.09375 211.949219 112.183594 C 208.226562 116.449219 207.882812 123.511719 208.296875 126.078125 C 208.328125 126.269531 208.195312 126.453125 208.003906 126.488281 C 207.980469 126.492188 207.960938 126.492188 207.941406 126.492188 Z M 215.902344 97.730469 C 215.066406 97.730469 214.34375 98.410156 213.800781 99 C 210.011719 103.160156 208.699219 108.421875 208.261719 112.101562 C 207.863281 115.507812 207.730469 118.144531 207.761719 120.296875 C 208.230469 117.386719 209.304688 114.125 211.410156 111.710938 C 213.21875 109.636719 214.710938 107.796875 215.964844 106.082031 C 217.976562 103.347656 218.585938 101.03125 217.78125 99.210938 C 217.460938 98.484375 216.765625 97.75 215.929688 97.734375 C 215.921875 97.734375 215.910156 97.734375 215.902344 97.734375 Z M 215.902344 97.730469 " fill-opacity="1" fill-rule="nonzero"/><path fill="#c62328" d="M 236.921875 132.96875 C 236.773438 132.96875 236.632812 132.875 236.582031 132.726562 C 236 131.039062 235.128906 129.519531 234.289062 128.050781 C 233.28125 126.285156 232.234375 124.464844 231.675781 122.335938 C 230.597656 118.21875 231.21875 113.460938 233.519531 108.191406 C 233.570312 108.078125 233.675781 107.996094 233.804688 107.980469 C 233.929688 107.964844 234.054688 108.015625 234.132812 108.117188 C 236.851562 111.65625 238.648438 115.683594 239.324219 119.761719 C 240.039062 124.101562 239.453125 128.386719 237.621094 132.15625 C 237.546875 132.3125 237.371094 132.390625 237.210938 132.347656 C 237.226562 132.398438 237.242188 132.445312 237.257812 132.492188 C 237.324219 132.679688 237.222656 132.882812 237.035156 132.949219 C 236.996094 132.960938 236.957031 132.96875 236.917969 132.96875 Z M 233.933594 109.050781 C 231.898438 113.9375 231.375 118.34375 232.371094 122.152344 C 232.90625 124.191406 233.878906 125.894531 234.910156 127.695312 C 235.652344 128.992188 236.417969 130.324219 237 131.792969 C 238.746094 128.167969 239.304688 124.050781 238.613281 119.882812 C 237.988281 116.109375 236.375 112.375 233.933594 109.050781 Z M 233.933594 109.050781 " fill-opacity="1" fill-rule="nonzero"/><path fill="#c62328" d="M 236.917969 132.96875 C 236.726562 132.96875 236.566406 132.816406 236.5625 132.621094 C 236.402344 128.246094 235.621094 123.695312 234.363281 119.8125 C 234.304688 119.625 234.40625 119.421875 234.59375 119.359375 C 234.785156 119.300781 234.984375 119.402344 235.046875 119.59375 C 236.324219 123.535156 237.117188 128.15625 237.277344 132.597656 C 237.285156 132.792969 237.132812 132.960938 236.933594 132.96875 C 236.929688 132.96875 236.925781 132.96875 236.917969 132.96875 Z M 236.917969 132.96875 " fill-opacity="1" fill-rule="nonzero"/><path fill="#c62328" d="M 265.78125 95.308594 C 265.78125 95.308594 265.78125 95.308594 265.777344 95.308594 C 265.582031 95.308594 265.421875 95.144531 265.421875 94.949219 C 265.433594 93.476562 265.367188 91.964844 264.410156 91.070312 C 263.398438 90.121094 261.71875 90.304688 260.65625 90.960938 C 259.382812 91.738281 258.554688 93.136719 257.976562 94.261719 C 257.886719 94.441406 257.667969 94.507812 257.492188 94.417969 C 257.316406 94.328125 257.246094 94.113281 257.335938 93.9375 C 257.960938 92.722656 258.855469 91.222656 260.28125 90.347656 C 262.03125 89.273438 263.929688 89.636719 264.902344 90.546875 C 266.070312 91.640625 266.15625 93.394531 266.140625 94.957031 C 266.140625 95.152344 265.980469 95.3125 265.78125 95.3125 Z M 265.78125 95.308594 " fill-opacity="1" fill-rule="nonzero"/><path fill="#c62328" d="M 254.226562 113.765625 C 252.808594 113.765625 251.382812 113.164062 250.464844 112.050781 C 249.007812 110.285156 249.144531 107.246094 250.757812 105.550781 C 250.894531 105.40625 251.121094 105.398438 251.265625 105.535156 C 251.410156 105.671875 251.414062 105.898438 251.277344 106.042969 C 249.898438 107.496094 249.777344 110.089844 251.019531 111.59375 C 252.265625 113.109375 254.71875 113.496094 256.375 112.441406 L 256.515625 112.351562 C 257.046875 112.015625 257.292969 111.859375 257.46875 111.328125 C 257.535156 111.140625 257.738281 111.039062 257.925781 111.101562 C 258.113281 111.167969 258.214844 111.371094 258.148438 111.558594 C 257.890625 112.332031 257.472656 112.59375 256.898438 112.957031 L 256.761719 113.046875 C 256 113.53125 255.113281 113.765625 254.230469 113.765625 Z M 254.226562 113.765625 " fill-opacity="1" fill-rule="nonzero"/><path fill="#c62328" d="M 262.148438 58.128906 C 262.097656 58.128906 262.042969 58.128906 261.992188 58.125 C 260.996094 58.0625 260.0625 57.394531 259.207031 56.132812 C 258.902344 55.683594 258.582031 55.140625 258.5 54.523438 C 258.417969 53.898438 258.53125 53.507812 258.9375 53.03125 C 259.734375 52.085938 260.5625 51.101562 261.605469 50.351562 C 262.800781 49.488281 264.121094 49.085938 265.320312 49.226562 C 265.851562 49.285156 266.296875 49.449219 266.640625 49.707031 C 267.621094 50.445312 267.679688 51.84375 267.429688 52.816406 C 267.003906 54.460938 265.828125 55.773438 264.980469 56.617188 C 264.269531 57.328125 263.308594 58.128906 262.152344 58.128906 Z M 264.847656 49.917969 C 263.929688 49.917969 262.941406 50.269531 262.023438 50.933594 C 261.050781 51.632812 260.253906 52.582031 259.484375 53.496094 L 259.484375 53.5 C 259.207031 53.820312 259.15625 54.003906 259.210938 54.433594 C 259.273438 54.898438 259.53125 55.335938 259.800781 55.734375 C 260.523438 56.796875 261.273438 57.363281 262.035156 57.410156 C 262.976562 57.46875 263.835938 56.746094 264.472656 56.109375 C 265.261719 55.328125 266.351562 54.113281 266.730469 52.636719 C 266.925781 51.878906 266.90625 50.808594 266.207031 50.285156 C 265.964844 50.101562 265.640625 49.988281 265.238281 49.941406 C 265.105469 49.925781 264.976562 49.917969 264.84375 49.917969 Z M 259.210938 53.265625 Z M 259.210938 53.265625 " fill-opacity="1" fill-rule="nonzero"/><path fill="#c62328" d="M 255.429688 63.574219 C 254.863281 63.574219 254.359375 63.402344 253.992188 63.0625 C 253.519531 62.625 253.296875 61.890625 253.410156 61.152344 C 253.511719 60.472656 253.863281 59.878906 254.15625 59.4375 C 255.363281 57.621094 257.15625 56.164062 259.199219 55.335938 C 259.382812 55.261719 259.59375 55.351562 259.667969 55.535156 C 259.742188 55.71875 259.652344 55.929688 259.46875 56.003906 C 257.585938 56.765625 255.867188 58.164062 254.753906 59.835938 C 254.503906 60.214844 254.203125 60.71875 254.117188 61.261719 C 254.039062 61.769531 254.179688 62.257812 254.480469 62.539062 C 254.945312 62.964844 255.730469 62.898438 256.316406 62.691406 C 257.332031 62.335938 258.285156 61.546875 259 60.46875 C 259.59375 59.574219 260.03125 58.570312 260.429688 57.203125 C 260.484375 57.011719 260.683594 56.902344 260.871094 56.957031 C 261.0625 57.011719 261.171875 57.210938 261.117188 57.402344 C 260.703125 58.839844 260.234375 59.910156 259.597656 60.863281 C 259.03125 61.71875 258.042969 62.84375 256.554688 63.371094 C 256.167969 63.507812 255.785156 63.574219 255.429688 63.574219 Z M 255.429688 63.574219 " fill-opacity="1" fill-rule="nonzero"/><path fill="#c62328" d="M 259.96875 66.253906 C 259.378906 66.253906 258.773438 66.054688 258.296875 65.667969 C 257.238281 64.820312 256.96875 63.113281 257.699219 61.933594 C 257.804688 61.765625 258.023438 61.714844 258.191406 61.820312 C 258.359375 61.925781 258.414062 62.144531 258.308594 62.316406 C 257.769531 63.183594 257.972656 64.488281 258.746094 65.109375 C 259.292969 65.546875 260.058594 65.664062 260.65625 65.394531 C 261.222656 65.140625 261.679688 64.558594 262.050781 63.613281 C 262.796875 61.722656 262.945312 59.691406 262.480469 57.746094 C 262.433594 57.554688 262.554688 57.359375 262.746094 57.3125 C 262.941406 57.265625 263.132812 57.386719 263.179688 57.578125 C 263.679688 59.671875 263.519531 61.847656 262.71875 63.878906 C 262.273438 65.003906 261.695312 65.714844 260.949219 66.050781 C 260.644531 66.1875 260.308594 66.253906 259.96875 66.253906 Z M 259.96875 66.253906 " fill-opacity="1" fill-rule="nonzero"/><path fill="#c62328" d="M 252.886719 54.519531 C 252.871094 54.519531 252.859375 54.519531 252.847656 54.519531 C 252.199219 54.453125 251.378906 54.308594 250.765625 53.761719 C 249.894531 52.980469 249.734375 51.523438 250.402344 50.449219 C 250.976562 49.523438 252.0625 48.914062 253.308594 48.828125 C 254.277344 48.761719 255.320312 48.988281 256.496094 49.519531 C 257.78125 50.101562 259.128906 51.066406 260.199219 52.164062 C 260.335938 52.304688 260.332031 52.53125 260.191406 52.667969 C 260.050781 52.808594 259.824219 52.804688 259.683594 52.664062 C 258.675781 51.628906 257.402344 50.722656 256.199219 50.175781 C 255.136719 49.691406 254.207031 49.484375 253.359375 49.546875 C 252.359375 49.617188 251.457031 50.109375 251.011719 50.828125 C 250.53125 51.605469 250.632812 52.679688 251.242188 53.226562 C 251.703125 53.636719 252.378906 53.75 252.917969 53.804688 C 253.117188 53.824219 253.261719 54 253.242188 54.199219 C 253.222656 54.382812 253.066406 54.519531 252.882812 54.519531 Z M 252.886719 54.519531 " fill-opacity="1" fill-rule="nonzero"/><path fill="#c62328" d="M 264.558594 67.355469 C 264.125 67.355469 263.695312 67.25 263.316406 67.035156 C 262.386719 66.507812 261.582031 65.117188 261.910156 63.957031 C 261.964844 63.765625 262.164062 63.65625 262.351562 63.710938 C 262.542969 63.765625 262.65625 63.960938 262.601562 64.152344 C 262.394531 64.882812 262.914062 65.980469 263.667969 66.410156 C 264.375 66.8125 265.367188 66.660156 265.925781 66.066406 C 266.191406 65.785156 266.394531 65.390625 266.566406 64.828125 C 267.417969 62.042969 266.433594 58.710938 264.226562 56.90625 C 264.070312 56.78125 264.050781 56.554688 264.175781 56.398438 C 264.300781 56.246094 264.527344 56.222656 264.679688 56.347656 C 267.101562 58.328125 268.183594 61.984375 267.253906 65.039062 C 267.125 65.460938 266.902344 66.078125 266.449219 66.558594 C 265.960938 67.078125 265.257812 67.355469 264.554688 67.355469 Z M 264.558594 67.355469 " fill-opacity="1" fill-rule="nonzero"/><path fill="#c62328" d="M 194.320312 85.457031 C 194.230469 85.457031 194.144531 85.421875 194.074219 85.355469 C 193.941406 85.4375 193.761719 85.421875 193.644531 85.308594 C 190.753906 82.546875 190.105469 81.667969 189.035156 80.207031 C 188.84375 79.945312 188.636719 79.664062 188.402344 79.347656 C 188.296875 79.203125 188.1875 79.0625 188.078125 78.917969 C 187.050781 77.550781 185.988281 76.136719 185.277344 74.527344 C 184.636719 73.070312 183.777344 70.320312 185.238281 68.289062 C 186.054688 67.15625 187.335938 66.605469 188.574219 66.074219 C 189.609375 65.632812 190.585938 65.214844 191.316406 64.484375 C 191.648438 64.152344 191.921875 63.761719 192.210938 63.351562 C 192.441406 63.019531 192.679688 62.675781 192.957031 62.359375 C 194.003906 61.164062 195.554688 60.496094 197.003906 60.621094 C 198.226562 60.726562 199.375 61.359375 200.328125 62.445312 C 201.117188 63.351562 201.769531 64.578125 202.167969 65.902344 C 203.328125 69.785156 202.90625 74.0625 201.007812 77.640625 C 199.421875 80.636719 196.851562 83.195312 194.570312 85.355469 C 194.5 85.421875 194.414062 85.457031 194.324219 85.457031 Z M 196.652344 61.324219 C 195.511719 61.324219 194.328125 61.886719 193.496094 62.832031 C 193.246094 63.117188 193.027344 63.429688 192.796875 63.761719 C 192.503906 64.179688 192.203125 64.613281 191.824219 64.996094 C 190.996094 65.820312 189.910156 66.285156 188.855469 66.738281 C 187.65625 67.25 186.519531 67.738281 185.820312 68.707031 C 184.566406 70.453125 185.355469 72.921875 185.933594 74.238281 C 186.609375 75.773438 187.648438 77.152344 188.652344 78.488281 C 188.761719 78.632812 188.871094 78.773438 188.976562 78.917969 C 189.214844 79.238281 189.421875 79.519531 189.617188 79.785156 C 190.695312 81.257812 191.292969 82.074219 194.132812 84.785156 C 196.359375 82.671875 198.847656 80.179688 200.371094 77.308594 C 202.183594 73.894531 202.585938 69.8125 201.480469 66.109375 C 200.488281 62.792969 198.484375 61.46875 196.941406 61.339844 C 196.84375 61.328125 196.75 61.324219 196.652344 61.324219 Z M 196.652344 61.324219 " fill-opacity="1" fill-rule="nonzero"/><path fill="#c62328" d="M 185.496094 88.296875 C 185.152344 88.296875 184.800781 88.289062 184.445312 88.265625 C 180.984375 88.050781 177.003906 86.226562 175.90625 82.640625 C 175.570312 81.539062 175.558594 79.933594 176.636719 79.039062 C 177.039062 78.699219 177.53125 78.519531 178.003906 78.34375 C 178.570312 78.136719 179.101562 77.941406 179.367188 77.507812 C 179.609375 77.125 179.59375 76.625 179.578125 76.089844 C 179.5625 75.65625 179.550781 75.207031 179.667969 74.769531 C 179.945312 73.71875 180.964844 72.90625 182.199219 72.746094 C 183.289062 72.601562 184.351562 72.511719 185.335938 72.957031 C 185.515625 73.039062 185.597656 73.25 185.515625 73.429688 C 185.433594 73.609375 185.21875 73.691406 185.039062 73.609375 C 184.226562 73.242188 183.277344 73.328125 182.292969 73.457031 C 181.355469 73.582031 180.5625 74.195312 180.363281 74.953125 C 180.269531 75.292969 180.28125 75.667969 180.292969 76.070312 C 180.3125 76.683594 180.332031 77.320312 179.976562 77.890625 C 179.578125 78.527344 178.90625 78.777344 178.253906 79.019531 C 177.816406 79.179688 177.40625 79.332031 177.09375 79.589844 C 176.292969 80.261719 176.324219 81.539062 176.59375 82.433594 C 177.3125 84.777344 180.03125 87.269531 184.488281 87.550781 C 187.957031 87.765625 190.875 86.878906 193.675781 84.761719 C 193.832031 84.640625 194.058594 84.675781 194.175781 84.832031 C 194.296875 84.988281 194.265625 85.214844 194.105469 85.335938 C 191.449219 87.34375 188.691406 88.296875 185.496094 88.296875 Z M 185.496094 88.296875 " fill-opacity="1" fill-rule="nonzero"/><path fill="#c62328" d="M 180.527344 94.039062 C 180.386719 94.039062 180.25 94.039062 180.109375 94.03125 C 177.574219 93.902344 175.042969 92.550781 172.980469 90.21875 C 171.34375 88.375 170.167969 86.132812 169.570312 83.742188 C 169.25 82.449219 169.203125 81.113281 169.441406 79.980469 C 169.726562 78.605469 170.417969 77.566406 171.441406 76.972656 C 171.667969 76.839844 171.902344 76.738281 172.132812 76.636719 C 172.511719 76.464844 172.871094 76.304688 173.140625 76.046875 C 173.644531 75.558594 173.753906 74.800781 173.871094 74 C 173.984375 73.207031 174.105469 72.390625 174.609375 71.730469 C 175.324219 70.804688 176.613281 70.425781 178.445312 70.605469 C 179.246094 70.6875 181.914062 71.09375 182.585938 72.980469 C 182.652344 73.167969 182.554688 73.371094 182.367188 73.4375 C 182.179688 73.507812 181.976562 73.40625 181.90625 73.222656 C 181.488281 72.039062 179.808594 71.460938 178.375 71.320312 C 176.804688 71.164062 175.730469 71.449219 175.179688 72.167969 C 174.789062 72.679688 174.6875 73.371094 174.582031 74.101562 C 174.453125 74.988281 174.320312 75.90625 173.636719 76.5625 C 173.277344 76.910156 172.84375 77.101562 172.421875 77.289062 C 172.203125 77.390625 171.996094 77.480469 171.800781 77.59375 C 170.949219 78.085938 170.386719 78.9375 170.140625 80.125 C 169.929688 81.15625 169.972656 82.378906 170.269531 83.566406 C 170.835938 85.847656 171.957031 87.984375 173.515625 89.742188 C 174.636719 91.007812 176.984375 93.152344 180.144531 93.3125 C 181.421875 93.375 182.679688 93.09375 183.632812 92.84375 C 188.507812 91.550781 192.125 88.664062 193.554688 84.917969 C 193.625 84.730469 193.832031 84.640625 194.015625 84.710938 C 194.203125 84.78125 194.292969 84.988281 194.222656 85.175781 C 192.710938 89.140625 188.914062 92.1875 183.816406 93.535156 C 182.914062 93.777344 181.75 94.039062 180.523438 94.039062 Z M 180.527344 94.039062 " fill-opacity="1" fill-rule="nonzero"/><path fill="#c62328" d="M 183.511719 101.320312 C 183.324219 101.320312 183.136719 101.3125 182.941406 101.296875 C 180.992188 101.140625 179.222656 100.09375 178.324219 98.5625 C 177.308594 96.839844 177.480469 94.617188 178.722656 93.28125 C 178.859375 93.136719 179.085938 93.128906 179.230469 93.265625 C 179.375 93.398438 179.386719 93.625 179.25 93.773438 C 178.214844 94.882812 178.085938 96.746094 178.941406 98.199219 C 179.722656 99.53125 181.277344 100.445312 183 100.582031 C 184.523438 100.703125 186.207031 100.242188 187.75 99.285156 C 190.011719 97.875 191.703125 95.59375 192.398438 93.019531 C 192.667969 92.015625 192.753906 90.925781 192.839844 89.871094 C 192.972656 88.175781 193.113281 86.421875 194.011719 84.914062 C 194.113281 84.742188 194.335938 84.6875 194.503906 84.789062 C 194.675781 84.890625 194.730469 85.109375 194.628906 85.28125 C 193.8125 86.644531 193.6875 88.238281 193.554688 89.929688 C 193.46875 91.015625 193.378906 92.136719 193.089844 93.207031 C 192.351562 95.953125 190.542969 98.390625 188.128906 99.894531 C 187.054688 100.5625 185.417969 101.320312 183.511719 101.320312 Z M 183.511719 101.320312 " fill-opacity="1" fill-rule="nonzero"/><path fill="#c62328" d="M 197.34375 82.417969 C 197.191406 82.417969 197.050781 82.320312 197.003906 82.164062 C 196.945312 81.976562 197.050781 81.773438 197.242188 81.71875 C 199.855469 80.914062 202.070312 79.222656 203.652344 76.832031 C 205.175781 74.523438 205.964844 71.714844 205.871094 68.921875 C 205.777344 66.160156 204.8125 63.433594 203.074219 61.03125 C 201.390625 58.699219 199.046875 56.828125 196.472656 55.761719 C 195.679688 55.433594 194.496094 55.019531 193.335938 55.171875 C 192.066406 55.335938 191.28125 56.148438 191.066406 56.882812 C 191.027344 57.015625 190.996094 57.160156 190.964844 57.316406 C 190.851562 57.855469 190.726562 58.46875 190.152344 58.769531 C 189.691406 59.007812 189.179688 58.890625 188.769531 58.792969 L 188.703125 58.777344 C 187.152344 58.417969 185.105469 58.699219 184.289062 60.160156 C 183.8125 61.015625 183.777344 62.492188 184.777344 63.867188 C 185.558594 64.945312 186.644531 65.671875 187.976562 66.515625 C 188.148438 66.621094 188.195312 66.839844 188.089844 67.007812 C 187.984375 67.175781 187.765625 67.226562 187.597656 67.121094 C 186.492188 66.429688 185.121094 65.566406 184.195312 64.292969 C 183.152344 62.855469 182.941406 61.097656 183.664062 59.8125 C 184.121094 58.992188 184.914062 58.40625 185.953125 58.117188 C 186.851562 57.867188 187.886719 57.855469 188.863281 58.082031 L 188.933594 58.097656 C 189.257812 58.171875 189.597656 58.25 189.820312 58.132812 C 190.074219 58 190.15625 57.683594 190.261719 57.171875 C 190.296875 57.011719 190.332031 56.84375 190.378906 56.679688 C 190.714844 55.535156 191.867188 54.640625 193.238281 54.460938 C 194.570312 54.285156 195.878906 54.742188 196.746094 55.101562 C 199.441406 56.214844 201.894531 58.171875 203.65625 60.613281 C 205.476562 63.132812 206.488281 65.996094 206.585938 68.902344 C 206.683594 71.839844 205.855469 74.796875 204.25 77.230469 C 202.578125 79.761719 200.226562 81.554688 197.453125 82.40625 C 197.417969 82.417969 197.382812 82.421875 197.347656 82.421875 Z M 197.34375 82.417969 " fill-opacity="1" fill-rule="nonzero"/><path fill="#c62328" d="M 204.140625 86.640625 C 203.53125 86.640625 202.917969 86.597656 202.316406 86.554688 C 202.097656 86.539062 201.886719 86.519531 201.671875 86.507812 C 200.175781 86.414062 198.734375 86.253906 197.386719 86.039062 C 196.429688 85.882812 195.402344 85.6875 194.246094 85.445312 C 194.050781 85.40625 193.929688 85.214844 193.96875 85.023438 C 194.011719 84.828125 194.203125 84.703125 194.394531 84.746094 C 195.539062 84.984375 196.554688 85.175781 197.503906 85.328125 C 198.824219 85.542969 200.246094 85.699219 201.71875 85.789062 C 201.933594 85.804688 202.148438 85.820312 202.367188 85.835938 C 203.714844 85.933594 205.109375 86.035156 206.351562 85.605469 C 207.53125 85.195312 208.550781 84.339844 209.148438 83.25 C 210.144531 81.445312 210.359375 79.351562 209.726562 77.644531 C 209.035156 75.785156 207.269531 74.4375 205.429688 74.363281 C 205.234375 74.355469 205.078125 74.1875 205.085938 73.988281 C 205.09375 73.792969 205.265625 73.636719 205.460938 73.644531 C 207.582031 73.730469 209.613281 75.269531 210.398438 77.394531 C 211.105469 79.292969 210.871094 81.613281 209.777344 83.597656 C 209.09375 84.839844 207.929688 85.816406 206.585938 86.28125 C 205.789062 86.558594 204.964844 86.640625 204.140625 86.640625 Z M 204.140625 86.640625 " fill-opacity="1" fill-rule="nonzero"/><path fill="#c62328" d="M 184.289062 96.625 C 184.152344 96.625 184.023438 96.546875 183.960938 96.414062 C 183.878906 96.234375 183.957031 96.023438 184.136719 95.9375 C 187.449219 94.40625 191.316406 92.113281 191.828125 87.96875 C 191.855469 87.773438 192.035156 87.632812 192.230469 87.65625 C 192.429688 87.683594 192.566406 87.863281 192.542969 88.058594 C 191.984375 92.550781 187.917969 94.976562 184.441406 96.589844 C 184.390625 96.613281 184.339844 96.621094 184.289062 96.621094 Z M 184.289062 96.625 " fill-opacity="1" fill-rule="nonzero"/><path fill="#c62328" d="M 197.105469 84.121094 C 196.640625 84.121094 196.183594 84.09375 195.738281 84.035156 C 195.542969 84.007812 195.40625 83.828125 195.433594 83.628906 C 195.457031 83.433594 195.636719 83.296875 195.835938 83.320312 C 198.015625 83.617188 202.066406 83.085938 206.304688 80.621094 C 206.476562 80.519531 206.695312 80.578125 206.796875 80.75 C 206.894531 80.917969 206.839844 81.140625 206.667969 81.238281 C 204.25 82.644531 200.472656 84.121094 197.105469 84.121094 Z M 197.105469 84.121094 " fill-opacity="1" fill-rule="nonzero"/><path fill="#c62328" d="M 194.320312 85.457031 C 194.289062 85.457031 194.257812 85.453125 194.222656 85.441406 C 194.03125 85.390625 193.921875 85.191406 193.976562 85 C 195.496094 79.605469 195.371094 72.972656 193.640625 66.804688 C 193.585938 66.613281 193.695312 66.414062 193.886719 66.359375 C 194.078125 66.308594 194.277344 66.417969 194.332031 66.609375 C 196.097656 72.902344 196.222656 79.675781 194.667969 85.191406 C 194.621094 85.351562 194.476562 85.453125 194.320312 85.453125 Z M 194.320312 85.457031 " fill-opacity="1" fill-rule="nonzero"/><path fill="#c62328" d="M 194.320312 85.457031 C 194.140625 85.457031 193.984375 85.320312 193.964844 85.136719 C 193.535156 81.203125 191.804688 76.722656 189.332031 73.148438 C 189.21875 72.984375 189.261719 72.761719 189.425781 72.648438 C 189.585938 72.535156 189.8125 72.574219 189.925781 72.738281 C 192.460938 76.410156 194.234375 81.015625 194.675781 85.058594 C 194.699219 85.253906 194.554688 85.433594 194.359375 85.453125 C 194.347656 85.453125 194.332031 85.457031 194.320312 85.457031 Z M 194.320312 85.457031 " fill-opacity="1" fill-rule="nonzero"/><path fill="#c62328" d="M 194.320312 85.457031 C 194.308594 85.457031 194.296875 85.457031 194.289062 85.453125 C 191.992188 85.234375 189.132812 84.320312 188.007812 83.9375 C 186.222656 83.332031 184.179688 82.515625 182.5625 81.101562 C 182.414062 80.96875 182.398438 80.742188 182.53125 80.59375 C 182.660156 80.445312 182.886719 80.429688 183.035156 80.5625 C 184.558594 81.894531 186.519531 82.671875 188.242188 83.257812 C 189.339844 83.632812 192.136719 84.527344 194.355469 84.738281 C 194.550781 84.757812 194.699219 84.933594 194.679688 85.128906 C 194.660156 85.316406 194.503906 85.457031 194.320312 85.457031 Z M 194.320312 85.457031 " fill-opacity="1" fill-rule="nonzero"/><path fill="#c62328" d="M 184.855469 70.53125 C 184.777344 70.53125 184.699219 70.503906 184.632812 70.453125 C 181.269531 67.8125 178.824219 63.601562 178.40625 59.726562 C 178.320312 58.960938 178.285156 58.0625 178.628906 57.234375 C 178.957031 56.457031 179.742188 55.683594 180.753906 55.714844 C 180.867188 55.71875 180.976562 55.730469 181.078125 55.742188 C 181.285156 55.769531 181.484375 55.792969 181.597656 55.722656 C 181.742188 55.636719 181.800781 55.371094 181.855469 55.121094 C 181.863281 55.082031 181.875 55.042969 181.882812 55.003906 C 182.382812 52.851562 184.808594 51.34375 187.167969 51.714844 C 189.515625 52.082031 191.230469 53.367188 192.003906 55.335938 C 192.074219 55.519531 191.984375 55.726562 191.800781 55.800781 C 191.613281 55.875 191.40625 55.78125 191.332031 55.597656 C 190.660156 53.878906 189.140625 52.75 187.058594 52.421875 C 185.085938 52.113281 182.992188 53.398438 182.578125 55.167969 C 182.570312 55.203125 182.5625 55.242188 182.554688 55.277344 C 182.472656 55.640625 182.375 56.089844 181.96875 56.335938 C 181.644531 56.535156 181.285156 56.492188 180.992188 56.457031 C 180.898438 56.445312 180.8125 56.433594 180.730469 56.433594 C 180.058594 56.414062 179.515625 56.980469 179.289062 57.515625 C 179.007812 58.191406 179.042969 58.972656 179.117188 59.652344 C 179.515625 63.34375 181.855469 67.359375 185.074219 69.890625 C 185.230469 70.011719 185.257812 70.238281 185.136719 70.394531 C 185.066406 70.484375 184.960938 70.53125 184.855469 70.53125 Z M 184.855469 70.53125 " fill-opacity="1" fill-rule="nonzero"/><path fill="#c62328" d="M 184.714844 59.476562 C 184.585938 59.476562 184.464844 59.410156 184.398438 59.289062 L 184.335938 59.175781 C 183.632812 57.859375 183.019531 56.726562 181.691406 56.375 C 181.5 56.328125 181.386719 56.128906 181.4375 55.9375 C 181.488281 55.746094 181.683594 55.632812 181.875 55.683594 C 183.507812 56.113281 184.21875 57.433594 184.96875 58.835938 L 185.03125 58.949219 C 185.125 59.125 185.058594 59.339844 184.886719 59.433594 C 184.832031 59.464844 184.773438 59.476562 184.714844 59.476562 Z M 184.714844 59.476562 " fill-opacity="1" fill-rule="nonzero"/><path fill="#c62328" d="M 177.359375 71.28125 C 177.273438 71.28125 177.1875 71.25 177.117188 71.1875 C 176.488281 70.605469 175.695312 69.839844 175.191406 69.0625 C 174.601562 68.164062 174.359375 67.1875 174.511719 66.316406 C 174.691406 65.253906 175.523438 64.371094 176.484375 64.222656 C 176.53125 64.214844 176.574219 64.210938 176.621094 64.203125 C 176.738281 64.1875 176.859375 64.171875 176.910156 64.132812 C 177.023438 64.042969 176.96875 63.691406 176.953125 63.558594 C 176.867188 62.960938 176.800781 62.183594 177.046875 61.464844 C 177.304688 60.707031 178.039062 60.078125 178.792969 59.964844 C 178.992188 59.933594 179.171875 60.070312 179.203125 60.265625 C 179.230469 60.460938 179.097656 60.644531 178.902344 60.671875 C 178.40625 60.746094 177.898438 61.1875 177.726562 61.695312 C 177.53125 62.269531 177.585938 62.90625 177.664062 63.453125 C 177.707031 63.746094 177.792969 64.347656 177.359375 64.691406 C 177.152344 64.859375 176.90625 64.890625 176.710938 64.914062 C 176.671875 64.917969 176.632812 64.925781 176.597656 64.929688 C 175.929688 65.035156 175.351562 65.667969 175.21875 66.4375 C 175.101562 67.128906 175.304688 67.921875 175.792969 68.667969 C 176.253906 69.378906 177.003906 70.105469 177.605469 70.65625 C 177.753906 70.789062 177.761719 71.015625 177.628906 71.164062 C 177.558594 71.238281 177.460938 71.277344 177.363281 71.277344 Z M 177.359375 71.28125 " fill-opacity="1" fill-rule="nonzero"/><path fill="#c62328" d="M 173.785156 76.128906 C 173.695312 76.128906 173.601562 76.09375 173.535156 76.023438 C 171.46875 73.980469 170.039062 71.386719 169.386719 68.515625 C 169.066406 67.101562 169.03125 65.90625 169.273438 64.867188 C 169.589844 63.523438 170.425781 62.414062 171.507812 61.898438 C 171.96875 61.679688 172.457031 61.570312 172.929688 61.464844 C 173.296875 61.382812 173.640625 61.304688 173.964844 61.183594 C 174.230469 61.085938 174.480469 60.953125 174.746094 60.816406 C 175.152344 60.609375 175.570312 60.394531 176.042969 60.285156 C 176.933594 60.078125 177.636719 60.441406 177.941406 60.898438 C 178.050781 61.0625 178.007812 61.285156 177.839844 61.394531 C 177.675781 61.503906 177.453125 61.460938 177.34375 61.296875 C 177.183594 61.054688 176.757812 60.855469 176.207031 60.984375 C 175.820312 61.074219 175.460938 61.261719 175.074219 61.457031 C 174.804688 61.597656 174.519531 61.742188 174.21875 61.855469 C 173.847656 61.996094 173.460938 62.082031 173.085938 62.164062 C 172.632812 62.265625 172.203125 62.363281 171.816406 62.546875 C 170.929688 62.96875 170.242188 63.898438 169.972656 65.03125 C 169.753906 65.964844 169.792969 67.050781 170.089844 68.359375 C 170.707031 71.09375 172.074219 73.570312 174.039062 75.515625 C 174.179688 75.652344 174.179688 75.882812 174.039062 76.023438 C 173.96875 76.09375 173.878906 76.128906 173.785156 76.128906 Z M 173.785156 76.128906 " fill-opacity="1" fill-rule="nonzero"/><path fill="#c62328" d="M 170.578125 78.578125 C 170.488281 78.578125 170.398438 78.542969 170.328125 78.476562 L 170.234375 78.386719 C 169.472656 77.652344 168.605469 76.820312 168.0625 75.898438 C 167.40625 74.785156 167.207031 73.5625 167.511719 72.542969 C 167.710938 71.882812 168.136719 71.171875 168.546875 70.484375 C 168.917969 69.863281 169.304688 69.21875 169.480469 68.675781 C 169.542969 68.484375 169.746094 68.382812 169.933594 68.445312 C 170.121094 68.503906 170.226562 68.707031 170.164062 68.894531 C 169.960938 69.519531 169.558594 70.199219 169.164062 70.851562 C 168.773438 71.503906 168.371094 72.175781 168.199219 72.75 C 167.953125 73.578125 168.125 74.59375 168.679688 75.535156 C 169.175781 76.375 170 77.167969 170.730469 77.867188 L 170.828125 77.957031 C 170.96875 78.097656 170.976562 78.324219 170.835938 78.464844 C 170.765625 78.539062 170.671875 78.578125 170.578125 78.578125 Z M 170.578125 78.578125 " fill-opacity="1" fill-rule="nonzero"/><path fill="#c62328" d="M 228.339844 75.65625 C 228.148438 75.65625 227.988281 75.507812 227.980469 75.3125 C 227.863281 72.273438 228.921875 68.945312 230.730469 66.480469 C 230.738281 66.46875 230.75 66.453125 230.761719 66.4375 C 230.765625 66.433594 230.769531 66.429688 230.773438 66.425781 C 230.859375 66.308594 230.949219 66.191406 231.042969 66.078125 C 232.574219 63.949219 233.035156 60.808594 233.441406 58.023438 C 233.558594 57.21875 233.667969 56.457031 233.800781 55.722656 C 234.835938 50.035156 238.410156 44.863281 243.359375 41.882812 C 243.464844 41.820312 243.597656 41.816406 243.707031 41.871094 C 243.820312 41.925781 243.890625 42.035156 243.902344 42.160156 C 244.570312 49.847656 242.0625 57.105469 237.203125 61.574219 C 236.511719 62.210938 235.769531 62.796875 235.046875 63.363281 C 234.042969 64.15625 233.007812 64.976562 232.128906 65.914062 C 231.953125 66.105469 231.78125 66.300781 231.617188 66.507812 C 231.523438 66.636719 231.429688 66.757812 231.328125 66.878906 C 229.597656 69.214844 228.589844 72.386719 228.699219 75.285156 C 228.707031 75.484375 228.550781 75.648438 228.355469 75.65625 C 228.351562 75.65625 228.34375 75.65625 228.339844 75.65625 Z M 243.230469 42.8125 C 238.714844 45.726562 235.46875 50.558594 234.507812 55.855469 C 234.378906 56.574219 234.265625 57.328125 234.148438 58.128906 C 233.855469 60.15625 233.53125 62.363281 232.792969 64.28125 C 233.382812 63.761719 234 63.277344 234.601562 62.800781 C 235.3125 62.242188 236.046875 61.664062 236.714844 61.046875 C 241.292969 56.84375 243.707031 50.058594 243.230469 42.8125 Z M 243.230469 42.8125 " fill-opacity="1" fill-rule="nonzero"/><path fill="#c62328" d="M 228.148438 69.691406 C 227.960938 69.691406 227.800781 69.542969 227.792969 69.351562 C 227.664062 66.765625 227.082031 62.964844 225.007812 59.535156 C 223.097656 56.375 219.480469 54.726562 216.234375 53.429688 C 215.929688 53.308594 215.625 53.1875 215.316406 53.066406 C 213.5 52.355469 211.621094 51.621094 210.007812 50.449219 C 207.796875 48.851562 206.023438 46.382812 204.871094 43.304688 C 203.824219 40.5 203.382812 37.519531 203.066406 34.714844 C 203.050781 34.566406 203.125 34.421875 203.261719 34.355469 C 203.394531 34.285156 203.554688 34.308594 203.664062 34.410156 C 205.300781 35.902344 207.289062 36.8125 209.398438 37.777344 C 210.699219 38.371094 212.042969 38.984375 213.28125 39.746094 C 216.644531 41.8125 219.25 44.988281 220.625 48.6875 C 221.019531 49.75 221.3125 50.859375 221.597656 51.929688 C 221.988281 53.386719 222.386719 54.890625 223.039062 56.261719 C 224.042969 57.070312 224.933594 58.023438 225.621094 59.164062 C 227.773438 62.722656 228.378906 66.648438 228.511719 69.3125 C 228.519531 69.511719 228.367188 69.679688 228.167969 69.691406 C 228.164062 69.691406 228.15625 69.691406 228.152344 69.691406 Z M 203.886719 35.535156 C 204.191406 38.023438 204.632812 40.617188 205.542969 43.054688 C 206.644531 46 208.332031 48.355469 210.425781 49.871094 C 211.96875 50.984375 213.804688 51.703125 215.578125 52.398438 C 215.886719 52.519531 216.195312 52.640625 216.503906 52.765625 C 218.300781 53.484375 220.210938 54.308594 221.90625 55.4375 C 221.496094 54.347656 221.195312 53.214844 220.902344 52.113281 C 220.625 51.058594 220.332031 49.96875 219.949219 48.9375 C 218.632812 45.390625 216.128906 42.34375 212.902344 40.359375 C 211.703125 39.621094 210.378906 39.015625 209.097656 38.429688 C 207.308594 37.613281 205.460938 36.769531 203.886719 35.535156 Z M 203.886719 35.535156 " fill-opacity="1" fill-rule="nonzero"/><path fill="#c62328" d="M 222.742188 56.839844 C 222.640625 56.839844 222.539062 56.796875 222.46875 56.710938 C 218.929688 52.484375 215.476562 49.027344 212.210938 46.429688 C 212.058594 46.304688 212.03125 46.078125 212.15625 45.921875 C 212.277344 45.769531 212.503906 45.742188 212.660156 45.867188 C 215.960938 48.496094 219.449219 51.988281 223.019531 56.25 C 223.144531 56.402344 223.125 56.628906 222.972656 56.757812 C 222.90625 56.8125 222.824219 56.839844 222.742188 56.839844 Z M 222.742188 56.839844 " fill-opacity="1" fill-rule="nonzero"/><path fill="#c62328" d="M 231.449219 66.503906 C 231.375 66.503906 231.300781 66.480469 231.238281 66.433594 C 231.078125 66.316406 231.042969 66.09375 231.160156 65.933594 C 233.660156 62.519531 236.5625 57.175781 237.40625 52.9375 C 237.445312 52.742188 237.632812 52.617188 237.828125 52.65625 C 238.023438 52.695312 238.148438 52.882812 238.109375 53.078125 C 237.710938 55.085938 236.832031 57.488281 235.574219 60.023438 C 234.472656 62.234375 233.113281 64.484375 231.742188 66.359375 C 231.671875 66.453125 231.5625 66.503906 231.449219 66.503906 Z M 231.449219 66.503906 " fill-opacity="1" fill-rule="nonzero"/><path fill="#c62328" d="M 228.148438 69.691406 C 227.953125 69.691406 227.792969 69.535156 227.789062 69.335938 C 227.699219 61.136719 229.714844 49.042969 234.425781 40.511719 C 240.242188 29.972656 247.46875 21.574219 255.894531 15.550781 C 256.058594 15.433594 256.28125 15.472656 256.398438 15.632812 C 256.511719 15.792969 256.476562 16.019531 256.3125 16.132812 C 247.972656 22.09375 240.820312 30.410156 235.050781 40.859375 C 230.40625 49.273438 228.417969 61.222656 228.507812 69.328125 C 228.511719 69.523438 228.351562 69.6875 228.152344 69.691406 C 228.152344 69.691406 228.148438 69.691406 228.148438 69.691406 Z M 228.148438 69.691406 " fill-opacity="1" fill-rule="nonzero"/><path fill="#c62328" d="M 242.203125 29.691406 C 242.101562 29.691406 242 29.648438 241.929688 29.566406 C 241.800781 29.414062 241.816406 29.1875 241.96875 29.058594 C 246.953125 24.804688 253.082031 22.355469 259.683594 21.972656 C 259.886719 21.960938 260.050781 22.113281 260.0625 22.3125 C 260.074219 22.507812 259.925781 22.679688 259.726562 22.691406 C 253.28125 23.0625 247.300781 25.457031 242.433594 29.605469 C 242.367188 29.664062 242.285156 29.691406 242.203125 29.691406 Z M 242.203125 29.691406 " fill-opacity="1" fill-rule="nonzero"/><path fill="#c62328" d="M 240.382812 32.109375 C 240.28125 32.109375 240.179688 32.066406 240.109375 31.980469 C 239.980469 31.828125 240.003906 31.601562 240.15625 31.472656 C 245.128906 27.363281 250.226562 26.78125 257.351562 27.160156 C 257.546875 27.167969 257.699219 27.339844 257.691406 27.535156 C 257.679688 27.734375 257.511719 27.886719 257.3125 27.875 C 254.402344 27.71875 251.304688 27.664062 248.367188 28.269531 C 245.445312 28.878906 242.984375 30.070312 240.613281 32.027344 C 240.546875 32.082031 240.464844 32.109375 240.386719 32.109375 Z M 240.382812 32.109375 " fill-opacity="1" fill-rule="nonzero"/><path fill="#c62328" d="M 237.503906 36.371094 C 237.414062 36.371094 237.328125 36.339844 237.257812 36.273438 C 237.113281 36.140625 237.105469 35.914062 237.238281 35.765625 C 239.269531 33.589844 241.25 33.128906 243.761719 32.539062 C 244.199219 32.4375 244.652344 32.332031 245.128906 32.210938 C 248.035156 31.476562 251.25 31.246094 255.253906 31.476562 C 255.449219 31.488281 255.601562 31.660156 255.589844 31.855469 C 255.578125 32.054688 255.410156 32.207031 255.210938 32.195312 C 251.285156 31.96875 248.136719 32.191406 245.304688 32.90625 C 244.820312 33.027344 244.363281 33.136719 243.925781 33.238281 C 241.441406 33.820312 239.644531 34.242188 237.765625 36.257812 C 237.695312 36.332031 237.597656 36.371094 237.503906 36.371094 Z M 237.503906 36.371094 " fill-opacity="1" fill-rule="nonzero"/><g clip-path="url(#87bf6cdd57)"><path fill="#c62328" d="M 227.65625 63.574219 C 227.457031 63.574219 227.296875 63.414062 227.296875 63.21875 C 227.28125 60.796875 227.269531 58.074219 227.261719 55.441406 C 227.25 52.792969 227.242188 50.058594 227.226562 47.628906 C 227.226562 47.601562 227.226562 47.574219 227.226562 47.546875 C 227.21875 45.90625 227.203125 44.207031 226.835938 42.597656 C 226.476562 41.003906 225.769531 39.472656 225.085938 37.996094 C 224.875 37.539062 224.660156 37.070312 224.453125 36.601562 C 223.421875 34.253906 222.796875 32.164062 222.535156 30.210938 C 221.652344 23.550781 224.582031 17.328125 228.210938 10.464844 C 228.273438 10.34375 228.40625 10.269531 228.546875 10.277344 C 228.683594 10.28125 228.808594 10.371094 228.859375 10.5 C 230.53125 14.660156 232.261719 18.964844 233.046875 23.484375 C 233.664062 27.035156 233.910156 32.261719 231.582031 36.996094 C 231.171875 37.828125 230.691406 38.628906 230.226562 39.402344 C 229.769531 40.160156 229.296875 40.941406 228.90625 41.742188 C 228.058594 43.453125 227.9375 46.082031 227.945312 47.546875 C 227.945312 47.570312 227.945312 47.597656 227.945312 47.621094 L 227.945312 47.625 C 227.960938 50.054688 227.96875 52.792969 227.980469 55.4375 C 227.992188 58.070312 228 60.792969 228.015625 63.214844 C 228.015625 63.410156 227.855469 63.574219 227.65625 63.574219 Z M 228.480469 11.484375 C 225.082031 17.964844 222.417969 23.882812 223.246094 30.117188 C 223.496094 32 224.105469 34.027344 225.109375 36.3125 C 225.3125 36.773438 225.527344 37.238281 225.738281 37.691406 C 226.4375 39.207031 227.160156 40.769531 227.535156 42.4375 C 227.589844 42.660156 227.632812 42.886719 227.671875 43.113281 C 227.816406 42.511719 228.007812 41.933594 228.257812 41.421875 C 228.664062 40.597656 229.144531 39.800781 229.609375 39.03125 C 230.066406 38.269531 230.539062 37.480469 230.9375 36.679688 C 233.179688 32.117188 232.9375 27.054688 232.335938 23.605469 C 231.609375 19.417969 230.046875 15.386719 228.480469 11.484375 Z M 228.480469 11.484375 " fill-opacity="1" fill-rule="nonzero"/></g><path fill="#c62328" d="M 227.613281 46.648438 C 227.414062 46.648438 227.253906 46.484375 227.253906 46.289062 C 227.253906 44.910156 227.304688 43.628906 227.351562 42.390625 C 227.492188 38.886719 227.636719 35.269531 226.683594 28.851562 C 226.65625 28.65625 226.789062 28.472656 226.988281 28.445312 C 227.183594 28.414062 227.367188 28.550781 227.394531 28.746094 C 228.359375 35.230469 228.210938 38.882812 228.070312 42.417969 C 228.023438 43.652344 227.96875 44.925781 227.96875 46.289062 C 227.96875 46.484375 227.808594 46.648438 227.613281 46.648438 Z M 227.613281 46.648438 " fill-opacity="1" fill-rule="nonzero"/><path fill="#c62328" d="M 221.261719 39.078125 C 221.140625 39.078125 221.019531 39.015625 220.953125 38.902344 C 218.542969 34.808594 215.203125 31.105469 211.292969 28.191406 C 207.382812 25.28125 202.878906 23.144531 198.265625 22.007812 C 198.070312 21.960938 197.957031 21.765625 198.003906 21.574219 C 198.050781 21.382812 198.246094 21.265625 198.4375 21.3125 C 203.140625 22.46875 207.734375 24.648438 211.722656 27.617188 C 215.707031 30.585938 219.113281 34.359375 221.570312 38.539062 C 221.671875 38.710938 221.613281 38.929688 221.441406 39.027344 C 221.386719 39.0625 221.324219 39.078125 221.261719 39.078125 Z M 221.261719 39.078125 " fill-opacity="1" fill-rule="nonzero"/><path fill="#c62328" d="M 226.105469 53.921875 C 225.953125 53.921875 225.808594 53.824219 225.761719 53.671875 C 223.921875 47.921875 220.421875 42.1875 215.910156 37.53125 C 211.148438 32.609375 205.667969 29.234375 200.058594 27.769531 C 199.863281 27.71875 199.75 27.523438 199.800781 27.332031 C 199.851562 27.140625 200.046875 27.027344 200.238281 27.078125 C 205.976562 28.574219 211.574219 32.015625 216.425781 37.03125 C 221.011719 41.769531 224.570312 47.601562 226.445312 53.457031 C 226.503906 53.644531 226.402344 53.847656 226.210938 53.90625 C 226.175781 53.917969 226.140625 53.925781 226.101562 53.925781 Z M 226.105469 53.921875 " fill-opacity="1" fill-rule="nonzero"/><path fill="#c62328" d="M 254.328125 109.167969 C 254.140625 109.167969 253.984375 109.023438 253.972656 108.835938 C 253.667969 104.277344 254.957031 98.566406 257.335938 93.933594 C 257.957031 92.722656 258.855469 91.21875 260.277344 90.347656 C 262.027344 89.273438 263.929688 89.632812 264.898438 90.546875 C 266.070312 91.640625 266.152344 93.394531 266.140625 94.953125 C 266.136719 95.152344 265.976562 95.308594 265.78125 95.308594 L 265.777344 95.308594 C 265.578125 95.308594 265.421875 95.144531 265.421875 94.949219 C 265.433594 93.476562 265.367188 91.964844 264.410156 91.070312 C 263.398438 90.121094 261.71875 90.304688 260.652344 90.960938 C 259.382812 91.738281 258.554688 93.136719 257.972656 94.261719 C 255.652344 98.785156 254.394531 104.351562 254.6875 108.789062 C 254.703125 108.984375 254.550781 109.15625 254.355469 109.167969 C 254.347656 109.167969 254.339844 109.167969 254.328125 109.167969 Z M 254.328125 109.167969 " fill-opacity="1" fill-rule="nonzero"/><path fill="#c62328" d="M 254.332031 109.167969 C 254.269531 109.167969 254.207031 109.15625 254.152344 109.121094 C 253.980469 109.023438 253.921875 108.800781 254.019531 108.632812 C 255.925781 105.335938 258.734375 101.820312 261.175781 99.675781 C 261.328125 99.546875 261.554688 99.5625 261.683594 99.710938 C 261.816406 99.859375 261.800781 100.085938 261.652344 100.214844 C 259.296875 102.28125 256.480469 105.804688 254.644531 108.988281 C 254.578125 109.105469 254.457031 109.167969 254.332031 109.167969 Z M 254.332031 109.167969 " fill-opacity="1" fill-rule="nonzero"/><path fill="#c62328" d="M 254.332031 109.167969 C 254.207031 109.167969 254.089844 109.105469 254.019531 108.992188 C 251.996094 105.550781 250.929688 100.558594 251.230469 95.960938 C 251.242188 95.761719 251.414062 95.613281 251.613281 95.625 C 251.808594 95.636719 251.960938 95.808594 251.945312 96.007812 C 251.652344 100.46875 252.683594 105.304688 254.640625 108.628906 C 254.742188 108.800781 254.683594 109.019531 254.511719 109.121094 C 254.457031 109.152344 254.394531 109.167969 254.332031 109.167969 Z M 254.332031 109.167969 " fill-opacity="1" fill-rule="nonzero"/><path fill="#c62328" d="M 254.328125 109.167969 C 254.152344 109.167969 253.996094 109.035156 253.972656 108.855469 C 253.949219 108.65625 254.089844 108.476562 254.285156 108.453125 C 258.703125 107.90625 263.945312 105.609375 267.96875 102.460938 C 268.96875 101.679688 270.179688 100.601562 270.707031 99.207031 C 271.296875 97.640625 270.726562 96.148438 269.890625 95.539062 C 268.828125 94.769531 267.332031 94.988281 265.890625 95.277344 C 265.695312 95.316406 265.503906 95.191406 265.464844 94.996094 C 265.425781 94.800781 265.554688 94.613281 265.746094 94.574219 C 267.277344 94.265625 269.015625 94.019531 270.3125 94.960938 C 271.390625 95.742188 272.101562 97.539062 271.378906 99.460938 C 270.789062 101.023438 269.484375 102.1875 268.410156 103.027344 C 264.292969 106.25 258.914062 108.605469 254.375 109.167969 C 254.359375 109.167969 254.34375 109.171875 254.328125 109.171875 Z M 254.328125 109.167969 " fill-opacity="1" fill-rule="nonzero"/><path fill="#c62328" d="M 270.433594 116.546875 C 269.871094 116.546875 269.253906 116.496094 268.582031 116.386719 C 263.945312 115.628906 258.804688 113.039062 254.101562 109.085938 C 254.003906 109.003906 253.902344 108.921875 253.800781 108.839844 C 250.476562 106.09375 246.238281 101.777344 244.230469 96.414062 C 244.214844 96.371094 244.199219 96.332031 244.183594 96.292969 C 243.714844 95.007812 243.523438 93.910156 243.523438 92.976562 C 243.523438 91.214844 244.195312 90.039062 244.898438 89.289062 C 245.773438 88.359375 247.074219 87.894531 248.382812 88.046875 C 249.371094 88.160156 250.246094 88.613281 250.875 89.324219 C 251.257812 88.238281 252.027344 86.664062 253.375 86.089844 C 254.191406 85.742188 255.078125 85.820312 256.007812 86.324219 C 258.070312 87.441406 258.4375 90.113281 258.4375 92.527344 C 258.4375 92.773438 258.433594 93.023438 258.425781 93.265625 C 258.421875 93.460938 258.253906 93.617188 258.058594 93.613281 C 257.863281 93.609375 257.710938 93.449219 257.710938 93.253906 C 257.710938 93.25 257.710938 93.25 257.710938 93.246094 C 257.714844 93.007812 257.71875 92.765625 257.71875 92.519531 C 257.71875 90.3125 257.402344 87.898438 255.664062 86.957031 C 254.9375 86.5625 254.261719 86.496094 253.65625 86.75 C 252.691406 87.164062 251.828125 88.457031 251.347656 90.207031 C 251.308594 90.347656 251.1875 90.449219 251.046875 90.46875 C 250.902344 90.488281 250.761719 90.417969 250.691406 90.292969 C 250.195312 89.4375 249.320312 88.878906 248.296875 88.757812 C 247.214844 88.632812 246.140625 89.015625 245.421875 89.78125 C 244.816406 90.425781 244.246094 91.441406 244.246094 92.984375 C 244.246094 93.835938 244.417969 94.847656 244.859375 96.042969 C 245.957031 99.039062 248.53125 103.640625 254.558594 108.53125 C 254.558594 108.535156 254.5625 108.535156 254.566406 108.539062 C 259.171875 112.410156 264.1875 114.941406 268.695312 115.679688 C 272.234375 116.253906 273.933594 115.050781 274.738281 113.941406 C 275.351562 113.089844 275.523438 111.960938 275.199219 110.921875 C 274.890625 109.941406 274.175781 109.191406 273.242188 108.863281 C 273.105469 108.816406 273.011719 108.691406 273.003906 108.546875 C 272.992188 108.402344 273.074219 108.265625 273.203125 108.203125 C 274.832031 107.402344 275.9375 106.308594 276.160156 105.28125 C 276.296875 104.640625 276.105469 103.988281 275.578125 103.351562 C 274.476562 102.003906 272.371094 101.691406 269.152344 102.402344 C 268.957031 102.441406 268.769531 102.320312 268.726562 102.128906 C 268.683594 101.933594 268.804688 101.742188 269 101.699219 C 270.457031 101.378906 271.664062 101.257812 272.699219 101.332031 C 274.214844 101.4375 275.371094 101.960938 276.132812 102.894531 C 276.804688 103.710938 277.050781 104.566406 276.859375 105.433594 C 276.550781 106.867188 275.152344 107.917969 274.160156 108.503906 C 274.972656 108.980469 275.585938 109.757812 275.882812 110.707031 C 276.277344 111.960938 276.066406 113.328125 275.320312 114.363281 C 274.558594 115.417969 273.113281 116.546875 270.433594 116.546875 Z M 270.433594 116.546875 " fill-opacity="1" fill-rule="nonzero"/><path fill="#c62328" d="M 261.101562 110.222656 C 258.613281 110.222656 256.214844 109.863281 254.210938 109.148438 C 254.023438 109.082031 253.925781 108.878906 253.992188 108.691406 C 254.058594 108.503906 254.265625 108.40625 254.453125 108.472656 C 258.070312 109.761719 263.03125 109.851562 267.394531 108.710938 C 267.585938 108.660156 267.78125 108.773438 267.832031 108.964844 C 267.882812 109.160156 267.769531 109.355469 267.574219 109.40625 C 265.488281 109.953125 263.261719 110.222656 261.101562 110.222656 Z M 261.101562 110.222656 " fill-opacity="1" fill-rule="nonzero"/><path fill="#c62328" d="M 253.265625 59.289062 C 253.257812 59.289062 253.253906 59.289062 253.25 59.289062 C 252.371094 59.289062 251.617188 59.015625 251.132812 58.519531 C 250.183594 57.554688 250.410156 55.945312 251.164062 55.003906 C 251.808594 54.207031 252.816406 53.664062 254.242188 53.34375 C 255.875 52.976562 257.542969 53.175781 258.957031 53.414062 C 259.152344 53.449219 259.285156 53.632812 259.25 53.828125 C 259.21875 54.027344 259.03125 54.15625 258.835938 54.125 C 257.492188 53.894531 255.910156 53.703125 254.398438 54.042969 C 253.136719 54.328125 252.261719 54.789062 251.722656 55.457031 C 251.160156 56.15625 250.992188 57.351562 251.644531 58.015625 C 252.117188 58.496094 252.851562 58.570312 253.25 58.570312 C 253.257812 58.570312 253.261719 58.570312 253.265625 58.570312 C 254.0625 58.570312 254.703125 58.386719 255.34375 57.976562 C 255.511719 57.867188 255.734375 57.917969 255.839844 58.082031 C 255.949219 58.25 255.902344 58.472656 255.734375 58.578125 C 254.980469 59.0625 254.195312 59.289062 253.265625 59.289062 Z M 253.265625 59.289062 " fill-opacity="1" fill-rule="nonzero"/><path fill="#c62328" d="M 156.152344 48.414062 L 155.644531 47.90625 C 155.730469 47.816406 164.414062 39.125 167.960938 34.566406 C 171.4375 30.097656 170.464844 15.414062 170.457031 15.265625 L 171.171875 15.214844 C 171.214844 15.832031 172.167969 30.324219 168.527344 35.007812 C 164.953125 39.601562 156.238281 48.324219 156.152344 48.414062 Z M 156.152344 48.414062 " fill-opacity="1" fill-rule="nonzero"/><g clip-path="url(#a4e3699022)"><path fill="#c62328" d="M 94.480469 111.613281 L 93.871094 111.234375 C 94.0625 110.925781 113.0625 80.15625 126.292969 62.347656 C 129.375 58.195312 133.425781 54.847656 138.328125 52.394531 C 142.246094 50.4375 146.707031 49.042969 151.597656 48.253906 C 159.910156 46.910156 166.679688 47.792969 166.746094 47.804688 L 166.652344 48.515625 C 166.585938 48.503906 159.90625 47.636719 151.691406 48.964844 C 146.878906 49.746094 142.488281 51.117188 138.640625 53.042969 C 133.84375 55.441406 129.882812 58.714844 126.867188 62.773438 C 113.660156 80.558594 94.671875 111.304688 94.480469 111.613281 Z M 94.480469 111.613281 " fill-opacity="1" fill-rule="nonzero"/></g><path fill="#c62328" d="M 120.644531 125.066406 L 120.171875 124.527344 C 132.347656 113.871094 155.382812 84.746094 155.617188 84.457031 L 156.179688 84.902344 C 155.949219 85.195312 132.871094 114.367188 120.644531 125.066406 Z M 120.644531 125.066406 " fill-opacity="1" fill-rule="nonzero"/><path fill="#c62328" d="M 163.09375 101.792969 C 160.902344 96.78125 152.523438 89.03125 152.441406 88.957031 L 152.925781 88.425781 C 153.277344 88.746094 161.5 96.355469 163.753906 101.507812 Z M 163.09375 101.792969 " fill-opacity="1" fill-rule="nonzero"/><path fill="#c62328" d="M 228.253906 312.339844 C 211.363281 303.457031 194.933594 294.628906 179.660156 284.265625 C 161.742188 272.109375 148.28125 259.730469 138.515625 246.414062 C 133.332031 239.351562 129.617188 231.859375 127.472656 224.140625 C 124.839844 214.664062 126.488281 205.378906 132.511719 195.761719 C 137.769531 187.367188 145.5625 179.949219 152.4375 173.402344 C 156.835938 169.210938 159.6875 165.429688 161.414062 161.492188 C 163.347656 157.082031 163.890625 152.332031 163.070312 146.96875 C 161.367188 135.835938 143.707031 99.933594 143.53125 99.574219 L 144.175781 99.253906 C 144.90625 100.734375 162.058594 135.617188 163.78125 146.859375 C 164.621094 152.359375 164.0625 157.242188 162.070312 161.78125 C 160.308594 165.808594 157.402344 169.664062 152.933594 173.921875 C 146.089844 180.4375 138.332031 187.824219 133.121094 196.144531 C 127.207031 205.582031 125.585938 214.675781 128.164062 223.949219 C 130.289062 231.582031 133.964844 239 139.09375 245.988281 C 148.8125 259.238281 162.214844 271.5625 180.0625 283.671875 C 195.308594 294.015625 211.714844 302.832031 228.589844 311.703125 Z M 228.253906 312.339844 " fill-opacity="1" fill-rule="nonzero"/><g clip-path="url(#3461f502c1)"><path fill="#c62328" d="M 248.242188 364.714844 L 247.691406 364.257812 C 247.761719 364.167969 255.039062 355.269531 268.75 333.429688 C 271.523438 329.015625 274.066406 324.710938 274.683594 320.589844 C 275.3125 316.410156 274.03125 312.59375 270.519531 308.210938 C 266.59375 303.3125 262.773438 298.296875 259.078125 293.441406 C 249.789062 281.242188 240.179688 268.625 228.617188 257.570312 C 212.519531 242.179688 195.054688 228.941406 177.085938 215.613281 L 177.515625 215.035156 C 195.5 228.378906 212.984375 241.632812 229.113281 257.050781 C 240.714844 268.144531 250.339844 280.785156 259.648438 293.007812 C 263.34375 297.855469 267.160156 302.871094 271.078125 307.765625 C 278.730469 317.320312 275.535156 323.980469 269.359375 333.8125 C 255.621094 355.699219 248.316406 364.628906 248.242188 364.714844 Z M 248.242188 364.714844 " fill-opacity="1" fill-rule="nonzero"/></g><path fill="#c62328" d="M 183.378906 344.117188 C 178.4375 337.058594 173.589844 328.210938 168.964844 317.828125 C 165.269531 309.527344 161.707031 300.222656 158.378906 290.183594 C 152.714844 273.085938 149.652344 259.585938 149.621094 259.453125 L 150.320312 259.292969 C 150.351562 259.429688 153.410156 272.898438 159.066406 289.964844 C 162.386719 299.980469 165.9375 309.261719 169.625 317.539062 C 174.230469 327.882812 179.054688 336.683594 183.96875 343.703125 L 183.378906 344.113281 Z M 183.378906 344.117188 " fill-opacity="1" fill-rule="nonzero"/></svg>