<svg xmlns="http://www.w3.org/2000/svg" xmlns:xlink="http://www.w3.org/1999/xlink" width="500" zoomAndPan="magnify" viewBox="0 0 375 374.999991" height="500" preserveAspectRatio="xMidYMid meet" version="1.0"><defs><clipPath id="2f9e03b0a2"><path d="M 166 14 L 267.734375 14 L 267.734375 128 L 166 128 Z M 166 14 " clip-rule="nonzero"/></clipPath></defs><path fill="#c62328" d="M 124.53125 0.644531 C 127.441406 1.9375 130.589844 3.472656 133.898438 5.25 C 131.394531 3.796875 128.410156 2.097656 125.179688 0 C 125.015625 0.242188 124.773438 0.402344 124.53125 0.644531 Z M 124.53125 0.644531 " fill-opacity="1" fill-rule="nonzero"/><path fill="#1d1d1d" d="M 79.152344 77.4375 C 80.363281 76.390625 81.574219 75.339844 82.785156 74.128906 C 83.59375 73.238281 84.320312 72.351562 85.046875 71.464844 C 85.855469 70.414062 86.5 69.363281 87.144531 68.070312 C 87.710938 67.101562 88.277344 66.132812 88.679688 65.164062 C 89.082031 64.277344 89.40625 63.308594 89.730469 62.417969 C 89.8125 61.773438 89.972656 61.207031 90.054688 60.5625 C 90.296875 59.996094 90.375 59.351562 90.539062 58.625 C 90.859375 56.929688 90.78125 55.394531 90.457031 53.777344 C 90.699219 55.71875 90.457031 57.898438 89.890625 59.996094 C 89.566406 61.53125 89.003906 62.984375 88.4375 64.4375 C 87.628906 66.457031 86.660156 68.234375 85.53125 69.847656 C 84.804688 70.898438 84.078125 71.949219 83.1875 72.996094 C 82.382812 73.886719 81.492188 74.53125 80.605469 75.417969 C 79.230469 76.710938 77.777344 78.085938 76.40625 79.375 L 78.667969 77.679688 " fill-opacity="1" fill-rule="nonzero"/><path fill="#c62328" d="M 190.425781 94.71875 C 180.734375 101.015625 168.058594 100.128906 156.75 97.546875 C 152.957031 96.65625 149.082031 95.605469 145.203125 96.011719 C 143.023438 96.171875 141.003906 96.980469 138.90625 96.898438 C 136.078125 96.820312 133.578125 95.445312 130.832031 94.636719 C 122.835938 92.296875 114.277344 94.960938 107.011719 98.757812 C 100.390625 102.148438 93.605469 107.960938 94.25 115.390625 C 91.507812 114.421875 88.4375 115.066406 85.53125 115.390625 C 82.625 115.714844 79.3125 115.390625 77.457031 113.050781 C 76.082031 111.273438 76.003906 108.851562 75.4375 106.75 C 74.871094 104.652344 73.417969 102.308594 71.15625 102.390625 L 69.785156 102.472656 C 66.878906 109.898438 66.878906 118.460938 70.109375 125.644531 C 73.335938 132.832031 80.039062 138.566406 87.792969 140.261719 C 90.457031 140.746094 93.039062 140.828125 95.542969 141.554688 C 101.601562 143.085938 106.527344 148.175781 107.980469 154.230469 C 110.886719 151.082031 115.894531 151.484375 119.929688 152.695312 C 124.046875 153.828125 128.328125 155.523438 132.367188 154.070312 C 133.820312 153.585938 135.191406 152.695312 136.644531 152.617188 C 138.097656 152.535156 139.472656 153.101562 140.84375 153.585938 C 146.820312 155.523438 153.683594 153.910156 158.125 149.628906 C 159.175781 148.660156 160.304688 147.367188 161.757812 147.449219 C 162.566406 147.449219 163.210938 147.851562 164.019531 148.011719 C 165.070312 148.175781 166.199219 147.851562 167.167969 147.367188 C 176.050781 143.574219 184.125 137.839844 190.585938 130.734375 C 193.089844 127.90625 195.511719 124.757812 196.640625 121.125 C 198.5 115.148438 196.964844 108.203125 200.761719 103.277344 C 197.207031 100.289062 193.816406 97.546875 190.425781 94.71875 Z M 154.652344 120.640625 C 153.523438 124.839844 151.824219 128.714844 149.324219 132.105469 C 147.386719 135.902344 144.476562 139.375 140.601562 141.714844 C 137.613281 143.328125 134.140625 144.21875 130.75 144.542969 C 127.359375 144.703125 123.804688 144.460938 120.414062 143.492188 C 115.488281 142.039062 110.96875 139.292969 107.089844 135.902344 C 102.246094 130.8125 98.613281 124.839844 95.785156 118.621094 C 98.449219 123.222656 101.359375 127.582031 104.910156 131.378906 C 106.042969 132.996094 107.414062 134.609375 108.785156 136.0625 C 110.5625 137.113281 112.257812 138.082031 114.117188 138.890625 C 116.78125 140.421875 119.527344 141.632812 122.59375 142.28125 C 125.824219 143.167969 129.214844 143.332031 132.609375 143.085938 C 136.726562 142.28125 140.519531 140.421875 143.347656 137.757812 C 146.253906 135.335938 148.597656 132.023438 150.128906 128.554688 C 152.554688 123.386719 153.523438 117.570312 153.84375 111.757812 L 153.84375 110.867188 C 154.25 107.398438 154.328125 103.761719 154.410156 100.128906 C 154.976562 106.832031 155.621094 113.695312 154.652344 120.640625 Z M 154.652344 120.640625 " fill-opacity="1" fill-rule="nonzero"/><path fill="#c62328" d="M 165.390625 14.9375 C 165.3125 14.777344 154.976562 14.375 147.949219 21.074219 C 142.539062 26.242188 141.976562 33.429688 141.167969 36.578125 C 135.757812 55.636719 130.589844 75.015625 128.894531 94.800781 C 131.152344 95.203125 133.335938 95.605469 135.59375 95.929688 C 140.761719 68.878906 143.832031 49.417969 144.800781 36.578125 C 144.960938 33.589844 145.445312 26.648438 150.371094 21.480469 C 156.507812 15.261719 165.554688 15.261719 165.390625 14.9375 Z M 165.390625 14.9375 " fill-opacity="1" fill-rule="nonzero"/><path fill="#1d1d1d" d="M 159.09375 12.597656 C 157.15625 11.789062 155.136719 11.0625 153.039062 10.253906 L 148.839844 8.800781 L 144.476562 7.671875 L 141.003906 6.460938 L 137.777344 5.492188 L 135.59375 5.085938 L 133.578125 4.28125 C 131.71875 3.796875 129.863281 3.3125 128.003906 2.828125 C 130.347656 3.632812 132.6875 4.441406 135.03125 5.328125 C 136.808594 5.894531 138.582031 6.378906 140.199219 6.945312 C 142.539062 7.589844 144.882812 8.316406 147.222656 8.964844 L 151.824219 10.253906 L 156.023438 12.113281 C 158.367188 12.917969 160.707031 13.648438 163.050781 14.535156 L 159.578125 12.917969 " fill-opacity="1" fill-rule="nonzero"/><g clip-path="url(#2f9e03b0a2)"><path fill="#1d1d1d" d="M 258.820312 111.433594 C 254.136719 103.761719 249.453125 96.171875 244.527344 88.742188 C 242.75 86.242188 241.054688 83.65625 239.277344 81.234375 C 237.421875 78.8125 235.644531 76.308594 233.867188 73.804688 C 231.847656 71.382812 229.75 68.960938 227.648438 66.539062 L 224.5 62.902344 L 221.269531 59.429688 C 218.039062 55.476562 214.648438 51.4375 211.257812 47.5625 C 209.722656 45.785156 208.027344 44.167969 206.414062 42.394531 C 204.796875 40.617188 203.101562 39.082031 201.488281 37.46875 C 199.0625 35.53125 196.640625 33.671875 194.058594 31.894531 C 192.039062 29.554688 189.859375 27.292969 187.757812 25.195312 C 184.53125 22.691406 181.21875 20.429688 177.664062 18.492188 C 175.808594 17.523438 173.953125 16.714844 172.011719 16.070312 C 170.074219 15.421875 168.136719 14.9375 166.117188 14.535156 C 171.285156 15.828125 175.96875 18.25 180.167969 21.238281 C 184.367188 24.226562 188.082031 27.859375 191.636719 31.492188 C 197.207031 36.417969 202.535156 41.746094 207.703125 47.15625 C 214.8125 54.261719 221.433594 61.855469 227.8125 69.605469 C 232.089844 74.53125 236.371094 79.617188 240.488281 84.785156 C 243.800781 90.195312 246.949219 95.769531 249.9375 101.339844 C 255.910156 109.820312 261.644531 118.378906 267.21875 127.019531 C 264.792969 122.171875 262.292969 117.410156 259.707031 112.644531 " fill-opacity="1" fill-rule="nonzero"/></g><path fill="#1d1d1d" d="M 256.800781 164.566406 C 253.488281 170.382812 250.664062 176.4375 247.835938 182.492188 C 245.980469 186.691406 244.042969 190.730469 242.023438 194.765625 C 240.085938 199.046875 237.90625 203.246094 235.480469 207.285156 C 233.382812 210.511719 231.203125 213.582031 228.941406 216.8125 C 227.003906 219.71875 225.066406 222.625 223.128906 225.53125 C 222.078125 227.550781 221.109375 229.652344 220.140625 231.667969 C 218.765625 233.527344 217.394531 235.382812 216.183594 237.242188 C 213.355469 242.492188 210.933594 248.0625 209.15625 253.796875 C 210.613281 250.160156 212.144531 246.6875 214.082031 243.296875 C 216.023438 239.988281 218.039062 236.675781 220.300781 233.527344 C 223.128906 228.761719 226.195312 224.078125 229.34375 219.476562 C 233.464844 213.179688 237.5 206.800781 241.136719 200.175781 C 243.394531 195.816406 245.253906 191.214844 246.949219 186.613281 C 249.289062 182.492188 251.550781 178.214844 253.894531 174.175781 C 256.882812 167.152344 260.351562 160.289062 264.875 154.070312 C 262.128906 157.058594 259.707031 160.289062 257.445312 163.679688 " fill-opacity="1" fill-rule="nonzero"/><path fill="#1d1d1d" d="M 228.375 133.238281 C 224.582031 128.957031 220.867188 124.597656 217.070312 120.234375 C 214.40625 117.328125 211.824219 114.421875 209.15625 111.515625 C 206.25 108.6875 203.261719 105.863281 200.113281 103.117188 C 197.773438 100.773438 195.269531 98.515625 192.683594 96.414062 C 190.34375 94.476562 187.921875 92.699219 185.417969 91.003906 C 184.53125 90.519531 183.640625 90.035156 182.753906 89.632812 L 180.089844 88.339844 L 177.664062 86.5625 L 175.164062 84.949219 C 170.480469 82.6875 165.632812 80.832031 160.546875 79.699219 C 167.007812 81.71875 172.980469 84.785156 178.394531 88.421875 C 182.589844 90.761719 186.46875 93.507812 190.261719 96.496094 C 195.429688 100.371094 200.195312 104.652344 204.878906 109.253906 C 208.027344 112.082031 211.015625 115.066406 214.003906 117.976562 L 221.511719 127.746094 C 226.117188 132.589844 230.71875 137.273438 235.726562 141.796875 C 233.382812 139.132812 231.121094 136.546875 229.023438 133.800781 " fill-opacity="1" fill-rule="nonzero"/><path fill="#1d1d1d" d="M 194.945312 225.210938 L 204.152344 209.625 C 206.171875 205.992188 208.269531 202.4375 210.207031 198.804688 C 212.066406 194.929688 213.839844 191.054688 215.539062 187.097656 C 217.152344 183.945312 218.765625 180.878906 220.300781 177.730469 C 221.675781 174.902344 223.046875 171.996094 224.417969 169.089844 L 226.359375 163.113281 L 229.507812 157.703125 C 231.6875 152.777344 233.785156 147.769531 235.726562 142.683594 C 232.574219 148.984375 229.425781 155.199219 226.117188 161.335938 C 224.097656 166.019531 221.917969 170.542969 219.65625 175.144531 C 216.828125 181.363281 213.921875 187.5 210.933594 193.636719 C 209.078125 197.753906 207.21875 201.710938 205.28125 205.667969 L 198.09375 216.410156 L 188.242188 234.898438 L 194.382812 225.773438 " fill-opacity="1" fill-rule="nonzero"/><path fill="#1d1d1d" d="M 171.042969 266.875 C 172.09375 264.695312 173.0625 262.597656 174.273438 260.578125 C 174.921875 259.125 175.726562 257.671875 176.535156 256.21875 C 177.179688 254.683594 177.988281 253.230469 178.714844 251.613281 C 179.363281 250.484375 180.089844 249.273438 180.734375 247.980469 L 182.589844 244.75 L 183.640625 242.492188 L 185.09375 240.550781 C 186.144531 238.695312 187.355469 236.917969 188.484375 235.222656 C 186.871094 237.402344 185.175781 239.582031 183.5625 241.84375 C 182.511719 243.621094 181.542969 245.234375 180.574219 247.011719 C 179.28125 249.355469 178.070312 251.777344 176.859375 254.117188 C 176.210938 255.652344 175.40625 257.347656 174.679688 258.882812 C 173.789062 260.335938 172.902344 261.789062 172.175781 263.242188 C 171.125 265.746094 169.996094 268.328125 168.945312 270.832031 L 170.964844 267.039062 " fill-opacity="1" fill-rule="nonzero"/><path fill="#1d1d1d" d="M 167.085938 294.816406 C 166.601562 295.21875 165.957031 295.460938 165.230469 295.460938 L 165.554688 295.785156 L 165.632812 292.394531 L 165.714844 288.597656 L 165.714844 284.722656 L 165.875 281.492188 L 166.039062 278.585938 L 166.039062 276.726562 C 166.117188 276.164062 166.359375 275.4375 166.441406 274.871094 C 166.765625 273.335938 167.328125 271.640625 168.703125 270.753906 C 167.8125 271.238281 167.085938 272.125 166.683594 273.09375 C 166.199219 274.0625 166.039062 275.113281 165.796875 276.242188 C 165.714844 277.777344 165.472656 279.394531 165.390625 280.925781 C 165.3125 282.945312 165.230469 285.125 165.230469 287.144531 L 165.3125 291.261719 L 164.90625 295.140625 L 164.90625 295.867188 L 165.070312 295.867188 C 167.085938 295.703125 168.703125 293.523438 168.300781 291.585938 C 168.378906 292.714844 167.894531 293.847656 167.007812 294.492188 " fill-opacity="1" fill-rule="nonzero"/><path fill="#1d1d1d" d="M 170.480469 316.457031 C 169.914062 313.628906 169.429688 310.722656 169.1875 307.898438 L 168.863281 304.992188 C 168.785156 304.019531 168.785156 303.050781 168.703125 302.003906 C 168.542969 299.984375 168.378906 297.882812 168.378906 295.785156 C 168.460938 294.167969 168.542969 292.394531 168.785156 290.699219 C 168.945312 289.164062 169.1875 287.710938 169.347656 286.09375 L 169.511719 283.105469 C 169.832031 282.136719 170.074219 281.167969 170.480469 280.28125 C 171.042969 277.777344 171.851562 275.195312 172.578125 272.769531 C 171.207031 275.921875 170.15625 279.070312 169.1875 282.378906 C 168.703125 284.804688 168.300781 287.226562 168.058594 289.648438 C 167.734375 292.957031 167.652344 296.269531 167.734375 299.578125 C 167.894531 301.761719 168.136719 303.859375 168.378906 306.039062 C 168.378906 307.089844 168.378906 308.058594 168.460938 309.1875 C 168.460938 310.238281 168.542969 311.207031 168.621094 312.339844 C 168.785156 313.226562 169.027344 313.953125 169.1875 314.839844 C 169.347656 315.648438 169.589844 316.457031 169.832031 317.265625 C 170.15625 318.070312 170.800781 318.878906 171.691406 319.039062 C 172.175781 319.121094 172.578125 319.039062 172.980469 318.71875 C 173.386719 318.554688 173.628906 318.070312 173.628906 317.667969 C 173.628906 318.152344 173.226562 318.554688 172.820312 318.636719 C 172.417969 318.796875 171.933594 318.796875 171.527344 318.71875 C 170.722656 318.394531 170.398438 317.667969 170.15625 316.859375 " fill-opacity="1" fill-rule="nonzero"/><path fill="#1d1d1d" d="M 174.757812 316.859375 C 174.839844 315.8125 174.839844 314.839844 174.921875 313.871094 L 175.082031 310.964844 C 175.164062 309.59375 175.242188 308.21875 175.40625 307.007812 C 175.40625 305.636719 175.484375 304.183594 175.566406 302.808594 C 175.648438 301.679688 175.890625 300.550781 176.050781 299.417969 C 176.132812 298.367188 176.375 297.398438 176.535156 296.269531 L 176.617188 294.25 L 177.179688 292.3125 C 177.503906 290.535156 177.828125 288.839844 178.230469 287.144531 C 177.585938 289.40625 176.9375 291.503906 176.375 293.765625 C 176.050781 295.382812 175.808594 297.078125 175.566406 298.691406 C 175.242188 300.953125 175.082031 303.132812 175 305.394531 C 175 306.847656 174.921875 308.300781 174.921875 309.753906 C 174.757812 311.128906 174.515625 312.582031 174.4375 313.953125 L 174.4375 315.730469 C 174.4375 316.296875 174.4375 316.859375 174.355469 317.34375 C 174.273438 317.828125 173.871094 318.394531 173.386719 318.476562 C 172.902344 318.636719 172.253906 318.554688 171.933594 317.992188 C 172.09375 318.554688 172.902344 318.796875 173.46875 318.554688 C 174.113281 318.394531 174.515625 317.75 174.757812 317.183594 " fill-opacity="1" fill-rule="nonzero"/><path fill="#1d1d1d" d="M 179.605469 324.207031 C 178.957031 323.320312 178.636719 322.269531 178.554688 321.058594 C 178.472656 319.929688 178.554688 318.71875 178.554688 317.585938 L 178.636719 312.742188 L 178.472656 307.65625 L 178.554688 303.535156 L 178.636719 299.824219 L 178.472656 297.398438 L 178.796875 294.976562 L 178.878906 288.679688 L 178.070312 296.835938 L 177.988281 302.808594 L 177.988281 310.804688 L 178.148438 316.054688 C 178.070312 317.667969 177.746094 319.363281 177.746094 321.140625 C 177.90625 322.511719 178.394531 323.964844 179.605469 324.855469 C 180.167969 325.339844 180.734375 325.664062 181.542969 325.742188 C 182.1875 325.824219 182.996094 325.742188 183.480469 325.257812 C 182.914062 325.664062 182.105469 325.664062 181.460938 325.417969 C 180.816406 325.257812 180.167969 324.855469 179.847656 324.371094 " fill-opacity="1" fill-rule="nonzero"/><path fill="#1d1d1d" d="M 185.09375 322.996094 C 185.5 321.949219 185.578125 320.816406 185.742188 319.765625 L 186.226562 316.539062 L 186.789062 312.175781 L 187.195312 307.574219 L 187.757812 303.859375 L 188.242188 300.46875 L 188.324219 298.207031 L 188.890625 296.027344 L 189.699219 290.292969 L 188.082031 297.5625 L 187.273438 302.890625 L 186.386719 310.160156 L 185.984375 314.921875 L 185.015625 319.363281 C 184.851562 320.65625 184.851562 321.867188 184.367188 322.996094 C 184.046875 323.5625 183.722656 323.964844 183.074219 324.289062 C 182.511719 324.613281 181.785156 324.613281 181.300781 324.207031 C 181.785156 324.691406 182.589844 324.691406 183.15625 324.371094 C 183.804688 324.207031 184.289062 323.5625 184.609375 322.996094 " fill-opacity="1" fill-rule="nonzero"/><path fill="#1d1d1d" d="M 190.019531 319.6875 C 189.859375 318.796875 189.941406 317.828125 189.859375 316.859375 L 189.859375 313.953125 L 189.777344 309.996094 L 189.457031 305.878906 L 189.457031 302.566406 L 189.375 299.578125 L 189.050781 297.640625 L 189.214844 295.703125 L 189.132812 290.535156 L 188.726562 297.238281 L 188.808594 302.082031 L 189.132812 308.625 L 189.535156 312.902344 L 189.375 317.023438 L 189.457031 318.636719 C 189.535156 319.203125 189.535156 319.765625 189.941406 320.25 C 190.101562 320.574219 190.34375 320.738281 190.503906 320.816406 C 190.828125 320.980469 191.070312 320.980469 191.394531 320.898438 C 191.714844 320.816406 191.957031 320.738281 192.039062 320.414062 C 192.199219 320.25 192.199219 319.847656 192.121094 319.605469 C 192.199219 319.929688 192.121094 320.171875 191.957031 320.414062 C 191.796875 320.574219 191.472656 320.738281 191.152344 320.738281 C 190.828125 320.738281 190.585938 320.738281 190.503906 320.574219 C 190.34375 320.414062 190.183594 320.171875 190.101562 319.929688 " fill-opacity="1" fill-rule="nonzero"/><path fill="#1d1d1d" d="M 194.140625 318.960938 C 194.542969 317.910156 194.542969 316.941406 194.703125 315.8125 L 195.1875 312.660156 L 195.753906 308.460938 L 196.15625 304.101562 L 196.722656 300.46875 L 197.207031 297.238281 L 197.289062 295.058594 L 197.773438 293.039062 L 198.578125 287.46875 L 197.046875 294.492188 L 196.398438 299.660156 L 195.59375 306.6875 L 195.1875 311.289062 L 194.21875 315.570312 C 194.058594 316.699219 194.140625 317.992188 193.652344 319.039062 C 193.492188 319.523438 193.007812 320.007812 192.523438 320.171875 C 192.039062 320.332031 191.230469 320.25 190.988281 319.765625 C 191.3125 320.332031 192.039062 320.414062 192.765625 320.25 C 193.410156 320.089844 193.898438 319.605469 194.21875 318.960938 " fill-opacity="1" fill-rule="nonzero"/><path fill="#1d1d1d" d="M 200.277344 311.53125 C 199.628906 312.097656 198.742188 312.582031 197.851562 312.660156 L 198.175781 312.984375 L 198.578125 310.078125 C 198.660156 308.703125 198.902344 307.414062 198.984375 306.121094 C 198.984375 304.746094 199.0625 303.375 199.0625 302.003906 L 199.226562 298.691406 L 199.308594 295.703125 L 199.144531 293.765625 L 199.308594 291.828125 C 199.308594 290.050781 199.308594 288.355469 199.308594 286.660156 C 199.226562 288.921875 198.984375 291.101562 198.820312 293.363281 C 198.820312 294.976562 198.742188 296.59375 198.660156 298.207031 C 198.660156 300.386719 198.578125 302.566406 198.335938 304.746094 C 198.335938 306.203125 198.257812 307.574219 198.257812 309.027344 C 198.09375 310.402344 197.773438 311.773438 197.449219 313.144531 L 197.449219 313.46875 L 197.773438 313.386719 C 200.113281 312.902344 201.890625 310.722656 201.890625 308.542969 C 201.730469 309.671875 201.082031 310.804688 200.355469 311.53125 " fill-opacity="1" fill-rule="nonzero"/><path fill="#1d1d1d" d="M 203.34375 303.859375 C 204.152344 300.550781 204.796875 297.320312 205.523438 294.007812 C 205.929688 291.746094 206.332031 289.40625 206.65625 287.226562 C 206.976562 284.882812 207.140625 282.460938 207.21875 280.121094 C 207.542969 278.179688 207.703125 276.242188 208.027344 274.304688 C 208.1875 272.527344 208.429688 270.832031 208.511719 269.058594 C 208.511719 267.925781 208.429688 266.714844 208.429688 265.585938 C 208.59375 264.453125 208.835938 263.324219 208.996094 262.191406 C 209.15625 259.207031 209.320312 256.136719 209.398438 253.148438 C 208.996094 257.023438 208.511719 260.902344 207.945312 264.695312 C 207.785156 267.523438 207.542969 270.347656 207.300781 273.175781 C 206.976562 276.96875 206.65625 280.765625 206.25 284.480469 C 206.089844 286.902344 205.847656 289.40625 205.605469 291.910156 C 205.039062 294.25 204.476562 296.59375 203.746094 298.851562 C 203.101562 302.648438 202.375 306.523438 201.566406 310.320312 C 202.132812 308.382812 202.859375 306.445312 203.425781 304.503906 " fill-opacity="1" fill-rule="nonzero"/><path fill="#1d1d1d" d="M 184.046875 323.320312 C 183.964844 322.753906 183.640625 322.269531 183.238281 321.785156 C 182.914062 321.464844 182.671875 321.222656 182.347656 320.980469 C 181.945312 320.816406 181.542969 320.65625 181.21875 320.898438 C 180.894531 320.980469 180.652344 321.222656 180.332031 321.382812 C 180.167969 321.542969 179.925781 321.867188 179.847656 322.191406 C 179.847656 322.351562 179.765625 322.59375 179.765625 322.753906 C 179.765625 322.917969 179.683594 323.160156 179.683594 323.320312 C 179.683594 323.804688 179.847656 324.289062 180.007812 324.773438 C 179.925781 324.128906 179.847656 323.480469 179.847656 322.835938 C 179.847656 322.351562 180.007812 321.949219 180.25 321.542969 C 180.574219 321.058594 181.21875 320.738281 181.785156 320.980469 C 182.1875 321.058594 182.589844 321.300781 182.832031 321.542969 C 183.15625 321.867188 183.316406 322.191406 183.480469 322.511719 C 183.804688 323.078125 183.964844 323.644531 183.882812 324.371094 C 184.125 324.046875 184.125 323.722656 184.046875 323.320312 " fill-opacity="1" fill-rule="nonzero"/><path fill="#1d1d1d" d="M 192.605469 319.445312 C 192.605469 318.878906 192.523438 318.3125 192.441406 317.828125 C 192.363281 317.425781 192.28125 317.023438 191.957031 316.78125 C 191.796875 316.617188 191.472656 316.617188 191.3125 316.78125 C 191.152344 316.859375 190.988281 317.101562 190.910156 317.265625 C 190.746094 317.585938 190.585938 317.828125 190.425781 318.152344 C 190.34375 318.476562 190.261719 318.71875 190.101562 319.039062 C 190.101562 319.203125 190.019531 319.445312 190.019531 319.605469 C 189.941406 319.765625 189.941406 320.007812 189.859375 320.171875 C 189.777344 320.65625 189.777344 321.140625 189.777344 321.707031 C 189.777344 321.058594 189.941406 320.414062 190.101562 319.765625 C 190.183594 319.28125 190.261719 318.878906 190.503906 318.394531 C 190.585938 318.070312 190.828125 317.828125 190.910156 317.507812 C 190.988281 317.183594 191.3125 316.941406 191.472656 316.941406 C 191.636719 316.859375 191.878906 316.941406 191.957031 317.101562 C 192.039062 317.265625 192.121094 317.507812 192.28125 317.667969 C 192.363281 318.070312 192.441406 318.476562 192.441406 318.796875 C 192.523438 319.363281 192.523438 320.089844 192.441406 320.738281 C 192.441406 320.171875 192.605469 319.765625 192.605469 319.445312 " fill-opacity="1" fill-rule="nonzero"/><path fill="#1d1d1d" d="M 200.921875 310.320312 C 200.921875 309.753906 200.921875 309.1875 200.761719 308.703125 C 200.679688 308.300781 200.597656 307.898438 200.195312 307.65625 C 199.792969 307.332031 199.308594 307.574219 199.0625 307.816406 C 198.902344 308.140625 198.742188 308.382812 198.660156 308.703125 C 198.660156 309.027344 198.578125 309.269531 198.578125 309.59375 L 198.578125 310.160156 L 198.5 310.722656 L 198.417969 312.175781 L 198.742188 310.238281 L 198.820312 308.867188 C 198.820312 308.542969 198.902344 308.300781 198.984375 307.976562 C 199.0625 307.65625 199.386719 307.492188 199.628906 307.492188 C 200.035156 307.414062 200.277344 307.898438 200.519531 308.300781 C 200.597656 308.703125 200.679688 309.109375 200.679688 309.429688 C 200.761719 309.996094 200.761719 310.722656 200.597656 311.371094 C 200.839844 311.128906 200.921875 310.722656 200.921875 310.320312 " fill-opacity="1" fill-rule="nonzero"/><path fill="#1d1d1d" d="M 173.871094 316.617188 C 173.871094 316.054688 173.871094 315.328125 173.546875 314.761719 C 173.386719 314.355469 173.0625 313.953125 172.660156 313.792969 C 172.253906 313.628906 171.769531 313.46875 171.285156 313.628906 C 170.882812 313.710938 170.640625 313.953125 170.398438 314.195312 C 170.238281 314.519531 170.074219 314.761719 170.074219 315.164062 C 170.074219 315.328125 170.074219 315.570312 170.15625 315.8125 C 170.15625 315.972656 170.15625 316.214844 170.15625 316.457031 C 170.238281 317.023438 170.316406 317.507812 170.558594 318.070312 C 170.398438 317.425781 170.238281 316.617188 170.238281 315.972656 C 170.238281 315.488281 170.238281 314.921875 170.398438 314.519531 C 170.558594 313.871094 171.367188 313.550781 172.011719 313.710938 C 172.417969 313.792969 172.902344 314.035156 173.144531 314.355469 C 173.304688 314.761719 173.546875 315.164062 173.546875 315.648438 C 173.628906 316.296875 173.628906 317.101562 173.546875 317.828125 C 173.628906 317.425781 173.628906 317.023438 173.710938 316.78125 " fill-opacity="1" fill-rule="nonzero"/><path fill="#c62328" d="M 144.476562 239.097656 C 145.285156 242.8125 146.496094 246.527344 149.160156 249.191406 C 152.554688 252.90625 157.882812 254.441406 162.96875 254.441406 C 168.058594 254.359375 172.980469 252.90625 177.828125 251.453125 C 175.96875 255.652344 174.03125 259.851562 172.175781 263.96875 C 171.285156 265.988281 170.316406 268.085938 168.863281 269.785156 C 168.21875 270.589844 167.410156 271.316406 166.925781 272.285156 C 166.523438 273.09375 166.359375 273.902344 166.28125 274.789062 C 165.875 277.210938 165.472656 279.714844 164.988281 282.21875 C 162.160156 280.199219 160.0625 277.375 157.882812 274.546875 C 155.378906 271.15625 152.796875 267.765625 150.292969 264.453125 C 149.242188 263.082031 148.273438 261.707031 147.386719 260.175781 C 145.125 256.054688 144.71875 251.292969 144.398438 246.6875 C 144.234375 244.265625 143.992188 241.761719 143.75 239.261719 C 143.75 238.9375 143.75 238.613281 143.914062 238.371094 C 144.074219 238.128906 144.558594 238.292969 144.558594 238.535156 " fill-opacity="1" fill-rule="nonzero"/><path fill="#c62328" d="M 229.34375 216.972656 C 232.089844 219.878906 243.558594 232.316406 249.210938 242.246094 C 250.824219 245.15625 251.875 247.496094 252.117188 248.304688 C 252.761719 250.082031 254.378906 254.359375 255.105469 261.949219 C 255.589844 266.554688 255.910156 273.011719 254.941406 280.925781 C 253.003906 276.164062 248.96875 272.367188 244.527344 269.863281 C 240.085938 267.359375 234.996094 265.90625 229.992188 264.617188 C 222.886719 262.839844 215.699219 261.386719 208.351562 262.113281 C 208.351562 258.480469 208.753906 253.148438 210.855469 247.09375 C 212.226562 243.378906 213.761719 240.792969 218.28125 233.6875 C 221.269531 229.085938 224.984375 223.433594 229.34375 216.972656 Z M 229.34375 216.972656 " fill-opacity="1" fill-rule="nonzero"/><path fill="#1d1d1d" d="M 135.433594 322.433594 C 135.433594 318.71875 135.273438 315.164062 135.03125 311.449219 C 134.867188 308.945312 134.546875 306.523438 134.222656 303.941406 C 133.738281 301.4375 133.171875 298.851562 132.367188 296.351562 C 132.203125 295.300781 131.882812 294.332031 131.558594 293.199219 C 131.234375 292.230469 130.992188 291.183594 130.589844 290.214844 C 129.941406 288.355469 129.136719 286.578125 128.246094 284.882812 L 127.199219 283.347656 C 126.792969 282.863281 126.390625 282.378906 126.066406 281.894531 C 125.582031 280.765625 124.773438 279.714844 124.210938 278.585938 C 122.191406 276.082031 119.769531 273.742188 118.316406 270.914062 C 119.121094 272.851562 120.332031 274.628906 121.625 276.242188 C 122.191406 277.132812 122.917969 277.859375 123.484375 278.746094 C 124.046875 279.636719 124.613281 280.523438 125.097656 281.410156 C 126.714844 283.914062 128.085938 286.660156 129.296875 289.488281 C 130.832031 293.28125 132.042969 297.15625 132.769531 301.277344 C 133.335938 303.941406 133.898438 306.523438 134.304688 309.1875 C 134.382812 311.855469 134.304688 314.355469 134.304688 316.941406 L 134.625 320.089844 C 134.707031 321.140625 134.789062 322.269531 134.789062 323.238281 C 134.789062 324.289062 134.707031 325.257812 134.304688 326.226562 C 133.898438 327.195312 133.253906 328.085938 132.285156 328.488281 C 133.335938 328.164062 134.222656 327.359375 134.707031 326.226562 C 135.191406 325.175781 135.351562 324.046875 135.59375 322.917969 " fill-opacity="1" fill-rule="nonzero"/><path fill="#1d1d1d" d="M 122.433594 298.851562 C 123.242188 300.710938 123.886719 302.648438 124.453125 304.585938 C 124.855469 305.960938 125.257812 307.25 125.5 308.542969 C 125.90625 309.914062 126.148438 311.371094 126.472656 312.742188 L 126.875 316.214844 C 126.957031 317.265625 127.199219 318.394531 127.277344 319.445312 C 127.441406 320.089844 127.683594 320.816406 127.84375 321.464844 C 127.925781 322.109375 128.003906 322.835938 128.246094 323.480469 C 128.8125 325.257812 130.023438 326.875 131.640625 327.761719 C 130.589844 327.117188 129.78125 326.226562 129.296875 325.097656 C 128.8125 324.046875 128.488281 322.917969 128.328125 321.785156 C 127.925781 320.171875 127.761719 318.476562 127.519531 316.699219 C 127.199219 314.4375 126.875 312.097656 126.390625 309.914062 C 125.984375 308.460938 125.582031 307.007812 125.097656 305.554688 C 124.773438 304.101562 124.53125 302.730469 124.046875 301.277344 C 123.160156 299.015625 122.109375 296.914062 120.898438 294.816406 C 121.382812 295.945312 121.867188 297.078125 122.273438 298.207031 " fill-opacity="1" fill-rule="nonzero"/><path fill="#1d1d1d" d="M 126.148438 355.539062 C 127.117188 354.085938 127.277344 352.308594 127.519531 350.695312 C 127.601562 349.078125 127.683594 347.382812 127.601562 345.769531 C 127.519531 343.507812 127.199219 341.328125 126.957031 339.066406 C 126.550781 336.804688 126.066406 334.464844 125.664062 332.285156 C 125.5 330.425781 125.339844 328.488281 125.179688 326.632812 C 125.097656 324.855469 125.015625 323.238281 124.855469 321.464844 C 124.695312 320.414062 124.53125 319.203125 124.453125 318.152344 C 124.53125 317.101562 124.613281 315.890625 124.855469 314.839844 C 124.855469 311.933594 125.015625 309.027344 125.257812 306.121094 C 124.695312 309.835938 124.289062 313.628906 123.96875 317.425781 C 123.96875 320.171875 124.046875 322.996094 124.289062 325.664062 C 124.613281 329.375 125.097656 333.089844 125.742188 336.644531 C 126.230469 338.984375 126.714844 341.328125 127.035156 343.75 C 127.035156 346.089844 126.957031 348.433594 126.632812 350.695312 C 126.550781 352.550781 126.472656 354.488281 125.179688 355.863281 C 124.613281 356.507812 123.726562 356.832031 122.757812 356.832031 C 121.867188 356.832031 120.898438 356.265625 120.738281 355.378906 C 120.816406 356.347656 121.867188 356.992188 122.917969 357.234375 C 123.402344 357.316406 123.96875 357.234375 124.453125 357.15625 C 124.9375 356.992188 125.421875 356.667969 125.824219 356.265625 " fill-opacity="1" fill-rule="nonzero"/><path fill="#1d1d1d" d="M 113.875 321.058594 C 113.875 323.402344 114.359375 325.664062 114.761719 327.761719 C 115.085938 329.296875 115.40625 330.75 115.8125 332.203125 L 117.183594 336.804688 L 118.074219 340.601562 C 118.394531 341.730469 118.558594 342.941406 118.878906 344.074219 C 119.042969 344.878906 119.363281 345.527344 119.527344 346.332031 C 119.605469 347.140625 119.605469 347.867188 119.605469 348.675781 C 119.929688 350.613281 120.011719 352.632812 120.089844 354.730469 C 120.253906 352.066406 120.171875 349.484375 120.011719 346.820312 C 119.6875 344.960938 119.363281 343.023438 118.960938 341.164062 C 118.394531 338.664062 117.667969 336.242188 117.023438 333.738281 C 116.539062 332.203125 116.054688 330.507812 115.570312 328.972656 C 115.246094 327.4375 115.085938 325.742188 114.921875 324.207031 C 114.4375 321.707031 114.117188 319.039062 115.003906 316.539062 C 114.4375 317.828125 114.117188 319.203125 114.035156 320.496094 " fill-opacity="1" fill-rule="nonzero"/><path fill="#1d1d1d" d="M 110.320312 327.761719 L 110.480469 336.160156 C 110.5625 338.097656 110.5625 339.953125 110.886719 341.894531 C 111.210938 343.910156 111.773438 345.769531 112.5 347.625 C 112.984375 349.160156 113.46875 350.773438 113.875 352.308594 C 114.277344 353.683594 114.679688 355.136719 114.761719 356.589844 C 114.921875 357.476562 114.921875 358.445312 115.246094 359.414062 C 115.246094 359.898438 115.328125 360.382812 115.570312 360.867188 C 115.730469 361.351562 116.136719 361.757812 116.699219 361.917969 C 117.507812 362.078125 118.152344 361.757812 118.636719 361.273438 C 119.121094 360.789062 119.445312 360.222656 119.605469 359.496094 C 119.929688 358.203125 119.929688 356.992188 120.65625 356.105469 C 119.605469 357.15625 119.769531 359.09375 118.800781 360.464844 C 118.394531 361.109375 117.667969 361.59375 117.023438 361.515625 C 116.378906 361.433594 116.054688 360.867188 115.894531 360.0625 C 115.570312 359.011719 115.730469 357.800781 115.570312 356.667969 C 115.488281 355.539062 115.164062 354.246094 114.921875 353.199219 C 114.035156 350.046875 112.664062 347.222656 112.015625 344.234375 C 111.53125 342.296875 111.210938 340.277344 111.046875 338.179688 L 111.210938 332.203125 L 110.5625 322.59375 L 110.238281 327.277344 " fill-opacity="1" fill-rule="nonzero"/><path fill="#1d1d1d" d="M 100.632812 291.425781 L 102.40625 304.828125 L 103.78125 313.953125 L 105.636719 323.402344 L 106.605469 331.152344 C 107.011719 333.496094 107.253906 335.835938 107.738281 338.179688 C 108.222656 339.632812 108.625 341.164062 109.109375 342.621094 C 109.269531 344.152344 109.511719 345.769531 109.753906 347.222656 C 110.726562 350.53125 112.015625 353.761719 113.550781 356.75 L 113.632812 356.914062 L 113.792969 356.914062 C 114.761719 356.914062 115.40625 356.105469 115.328125 355.136719 C 115.40625 356.105469 114.679688 356.75 113.875 356.75 L 113.710938 356.75 L 113.632812 356.667969 C 111.773438 352.390625 110.644531 347.949219 109.917969 343.425781 C 109.027344 339.710938 108.464844 335.996094 107.898438 332.363281 L 105.3125 317.34375 L 103.214844 307.65625 L 102.570312 297.964844 L 99.824219 282.542969 L 100.390625 290.699219 " fill-opacity="1" fill-rule="nonzero"/><path fill="#1d1d1d" d="M 96.996094 253.796875 L 96.59375 259.527344 C 96.511719 260.820312 96.511719 262.191406 96.433594 263.40625 C 96.433594 264.777344 96.351562 266.148438 96.109375 267.359375 C 95.949219 268.410156 95.542969 269.542969 95.300781 270.589844 C 95.222656 271.558594 95.222656 272.609375 95.382812 273.578125 C 95.542969 274.226562 95.867188 274.871094 96.191406 275.4375 C 96.351562 276.082031 96.59375 276.726562 96.835938 277.292969 C 97.722656 278.746094 98.691406 280.121094 99.742188 281.492188 C 98.449219 279.636719 97.320312 277.777344 96.511719 275.757812 C 95.867188 274.304688 95.464844 272.769531 95.625 271.316406 C 95.625 270.269531 96.027344 269.300781 96.191406 268.167969 C 96.351562 267.117188 96.59375 265.988281 96.675781 264.9375 C 96.753906 263.484375 96.753906 262.113281 96.753906 260.738281 L 97.402344 256.78125 L 97.480469 250.160156 L 97.078125 253.554688 " fill-opacity="1" fill-rule="nonzero"/><path fill="#1d1d1d" d="M 97.644531 237.160156 L 97.078125 217.621094 L 96.511719 204.214844 L 95.140625 190.40625 C 95.058594 186.613281 94.816406 182.816406 94.65625 179.101562 L 94.007812 168.765625 C 93.605469 166.503906 93.203125 164.40625 92.71875 162.144531 C 92.71875 159.882812 92.636719 157.703125 92.554688 155.441406 C 91.585938 149.710938 89.890625 143.894531 86.984375 138.726562 C 88.519531 142.199219 89.648438 145.914062 90.296875 149.628906 C 90.941406 153.34375 91.34375 157.136719 91.425781 160.851562 C 92.070312 166.183594 92.3125 171.753906 92.71875 177.164062 L 93.605469 188.144531 L 94.414062 199.207031 L 95.949219 213.582031 L 95.542969 227.472656 L 97.320312 250.082031 L 97.644531 238.210938 " fill-opacity="1" fill-rule="nonzero"/><path fill="#1d1d1d" d="M 143.347656 229.410156 C 141.410156 224.242188 138.746094 219.316406 136.320312 214.550781 C 134.546875 211.242188 132.851562 207.929688 131.074219 204.617188 C 129.136719 201.226562 127.199219 197.917969 125.257812 194.523438 C 123.886719 191.699219 122.515625 188.792969 121.304688 185.886719 C 120.011719 183.21875 118.878906 180.636719 117.589844 178.132812 L 114.761719 173.289062 L 112.984375 167.957031 C 111.046875 163.515625 109.351562 158.914062 108.625 154.152344 C 109.109375 160.449219 111.289062 166.585938 113.390625 172.5625 C 115.246094 176.761719 117.183594 180.960938 119.203125 185.078125 C 122.03125 190.648438 124.855469 196.140625 127.761719 201.632812 C 129.78125 205.101562 131.882812 208.574219 133.980469 212.046875 C 135.515625 215.679688 137.210938 219.152344 138.664062 222.789062 C 141.652344 228.359375 144.398438 234.09375 145.445312 240.390625 C 145.285156 237.078125 144.558594 233.769531 143.589844 230.539062 " fill-opacity="1" fill-rule="nonzero"/><path fill="#1d1d1d" d="M 141.8125 213.015625 C 141.894531 213.90625 142.21875 214.632812 142.460938 215.4375 C 142.621094 216.003906 142.945312 216.488281 143.265625 216.972656 C 143.347656 217.136719 143.589844 217.378906 143.671875 217.539062 L 143.832031 217.699219 L 143.832031 217.378906 C 143.914062 216.972656 143.914062 216.570312 143.914062 216.328125 C 143.914062 215.84375 143.914062 215.359375 143.914062 214.875 C 143.832031 214.390625 143.75 213.984375 143.589844 213.582031 C 143.507812 213.257812 143.265625 213.097656 143.1875 212.773438 C 143.105469 212.453125 143.023438 212.210938 142.863281 211.96875 C 142.460938 211.320312 141.976562 210.675781 141.410156 210.191406 C 142.054688 210.835938 142.703125 211.726562 143.023438 212.613281 C 143.347656 213.179688 143.589844 213.90625 143.671875 214.550781 C 143.832031 215.4375 143.832031 216.410156 143.671875 217.296875 L 143.75 217.296875 C 143.347656 216.8125 143.105469 216.328125 142.78125 215.761719 C 142.621094 215.195312 142.378906 214.632812 142.296875 213.984375 C 141.976562 213.015625 141.8125 212.128906 141.8125 211.160156 C 141.8125 211.644531 141.8125 212.210938 141.8125 212.695312 " fill-opacity="1" fill-rule="nonzero"/><path fill="#1d1d1d" d="M 205.6875 187.097656 C 203.34375 182.65625 201.972656 177.648438 201.246094 172.5625 C 200.597656 169.167969 200.195312 165.617188 199.871094 162.144531 C 199.386719 158.511719 198.902344 154.957031 198.5 151.242188 C 198.417969 148.253906 198.335938 145.269531 198.335938 142.28125 C 198.257812 139.535156 198.257812 136.871094 198.335938 134.207031 C 198.175781 132.429688 198.015625 130.734375 197.851562 128.957031 C 198.015625 127.179688 198.335938 125.484375 198.660156 123.707031 C 198.820312 119.105469 199.226562 114.582031 199.628906 109.980469 C 198.578125 115.792969 197.691406 121.769531 197.125 127.664062 C 196.964844 132.023438 196.964844 136.304688 197.046875 140.664062 C 197.207031 146.480469 197.609375 152.375 198.335938 158.1875 C 198.820312 161.984375 199.386719 165.699219 200.195312 169.492188 C 200.519531 173.207031 200.839844 176.761719 201.730469 180.394531 C 203.667969 186.046875 206.898438 191.457031 211.582031 195.25 C 209.320312 192.992188 207.625 190.488281 206.332031 187.660156 " fill-opacity="1" fill-rule="nonzero"/><path fill="#1d1d1d" d="M 136.160156 311.046875 C 136.726562 307.171875 137.453125 303.375 138.339844 299.5 C 138.90625 296.835938 139.472656 294.25 140.117188 291.585938 L 141.652344 283.347656 C 142.21875 281.089844 142.703125 278.988281 143.1875 276.726562 C 143.589844 274.710938 144.074219 272.609375 144.316406 270.589844 C 144.398438 269.21875 144.476562 267.84375 144.476562 266.472656 L 144.960938 264.535156 L 145.367188 262.597656 C 145.769531 259.125 145.769531 255.570312 145.769531 252.019531 C 145.609375 256.621094 144.882812 261.144531 143.992188 265.585938 C 143.832031 267.199219 143.589844 268.894531 143.1875 270.429688 L 142.78125 272.851562 L 142.296875 275.273438 C 141.488281 279.636719 140.519531 283.996094 139.632812 288.273438 C 139.148438 291.101562 138.664062 294.007812 138.179688 296.835938 C 137.371094 299.578125 136.644531 302.164062 135.917969 304.910156 C 135.351562 309.511719 134.867188 313.953125 134.867188 318.554688 L 135.351562 315.082031 C 135.515625 313.953125 135.757812 312.742188 135.917969 311.613281 " fill-opacity="1" fill-rule="nonzero"/><path fill="#1d1d1d" d="M 133.414062 320.089844 C 132.851562 319.929688 132.125 320.007812 131.558594 320.25 C 131.152344 320.574219 130.992188 320.816406 130.75 321.222656 C 130.667969 321.625 130.667969 322.109375 130.667969 322.511719 C 130.667969 322.917969 130.75 323.160156 130.832031 323.5625 C 130.910156 323.886719 130.992188 324.128906 131.152344 324.449219 L 131.476562 325.015625 L 131.558594 325.582031 L 132.042969 327.117188 L 131.558594 325.097656 C 131.394531 324.613281 131.234375 324.128906 131.074219 323.644531 C 130.910156 322.996094 130.75 322.269531 130.910156 321.707031 C 130.910156 321.300781 131.074219 320.816406 131.394531 320.574219 C 131.71875 320.253906 132.203125 320.089844 132.527344 320.089844 C 133.171875 320.007812 133.898438 320.171875 134.382812 320.738281 C 134.0625 320.496094 133.820312 320.25 133.414062 320.089844 " fill-opacity="1" fill-rule="nonzero"/><path fill="#1d1d1d" d="M 122.675781 355.378906 L 122.757812 354.003906 L 122.835938 353.035156 C 122.835938 352.714844 122.835938 352.390625 122.757812 352.066406 C 122.757812 351.742188 122.675781 351.582031 122.59375 351.257812 C 122.515625 351.097656 122.273438 350.855469 122.109375 350.695312 C 122.03125 350.613281 121.789062 350.613281 121.625 350.613281 C 121.464844 350.613281 121.304688 350.53125 121.140625 350.613281 C 120.738281 350.695312 120.253906 351.015625 120.332031 351.5 C 120.332031 351.179688 120.496094 350.9375 120.738281 350.855469 C 120.898438 350.773438 121.222656 350.695312 121.546875 350.773438 C 121.949219 350.773438 122.191406 351.097656 122.433594 351.339844 C 122.757812 351.742188 122.757812 352.308594 122.835938 352.792969 C 122.835938 353.117188 122.835938 353.441406 122.835938 353.761719 L 122.757812 354.730469 L 122.757812 356.265625 L 122.757812 355.378906 " fill-opacity="1" fill-rule="nonzero"/><path fill="#1d1d1d" d="M 117.910156 360.140625 C 117.832031 359.65625 117.910156 359.253906 117.910156 358.769531 C 117.910156 358.445312 117.910156 358.203125 117.910156 357.800781 C 117.910156 357.476562 117.832031 357.15625 117.75 356.832031 C 117.667969 356.507812 117.589844 356.347656 117.347656 356.183594 C 117.183594 356.023438 116.941406 355.78125 116.78125 355.78125 C 116.621094 355.78125 116.457031 355.78125 116.296875 355.78125 C 116.136719 355.78125 115.972656 355.78125 115.8125 355.863281 C 115.40625 356.023438 115.164062 356.425781 115.246094 356.910156 C 115.085938 356.347656 115.730469 355.941406 116.214844 355.863281 C 116.621094 355.78125 117.023438 355.863281 117.183594 356.183594 C 117.589844 356.507812 117.667969 357.074219 117.75 357.558594 C 117.832031 357.882812 117.832031 358.203125 117.832031 358.527344 C 117.832031 358.851562 117.75 359.171875 117.75 359.496094 C 117.75 359.980469 117.832031 360.546875 118.152344 361.03125 C 118.074219 360.867188 118.074219 360.546875 117.910156 360.140625 " fill-opacity="1" fill-rule="nonzero"/><path fill="#1d1d1d" d="M 130.910156 327.84375 C 130.589844 328.328125 130.347656 328.8125 130.023438 329.296875 L 129.378906 330.265625 L 128.730469 331.234375 L 128.167969 332.042969 L 127.601562 332.6875 L 127.277344 333.171875 L 126.875 333.574219 C 126.550781 333.980469 126.230469 334.382812 125.90625 334.707031 C 126.390625 334.222656 126.875 333.816406 127.277344 333.332031 C 127.601562 332.929688 127.84375 332.527344 128.167969 332.203125 C 128.570312 331.71875 128.972656 331.152344 129.214844 330.667969 L 129.863281 329.617188 L 130.507812 328.648438 C 130.832031 328.085938 131.152344 327.519531 131.476562 326.875 L 130.910156 327.84375 " fill-opacity="1" fill-rule="nonzero"/><path fill="#1d1d1d" d="M 160.628906 286.335938 C 158.609375 288.355469 156.671875 290.535156 154.652344 292.796875 C 153.359375 294.332031 152.148438 295.945312 150.9375 297.480469 C 149.808594 299.257812 148.675781 300.871094 147.628906 302.648438 C 146.65625 304.019531 145.769531 305.476562 144.882812 306.847656 L 142.460938 310.722656 L 141.167969 313.46875 L 139.390625 315.8125 L 135.433594 322.433594 L 141.246094 314.277344 C 142.539062 312.257812 143.75 310.078125 145.042969 308.058594 C 146.65625 305.234375 148.355469 302.40625 150.210938 299.824219 C 151.339844 298.046875 152.554688 296.1875 153.84375 294.574219 C 155.296875 293.121094 156.671875 291.667969 158.207031 290.214844 C 160.386719 287.710938 162.566406 285.125 164.90625 282.785156 C 163.535156 283.832031 162.160156 285.046875 160.949219 286.175781 " fill-opacity="1" fill-rule="nonzero"/><path fill="#1d1d1d" d="M 193.410156 365.308594 L 207.21875 350.046875 L 216.425781 339.46875 L 225.46875 328.003906 L 233.382812 319.121094 C 235.726562 316.375 238.066406 313.710938 240.40625 310.886719 C 241.699219 308.945312 242.910156 306.929688 244.121094 304.828125 C 245.65625 303.050781 247.273438 301.355469 248.726562 299.417969 C 252.035156 294.167969 254.699219 288.515625 256.316406 282.460938 C 253.652344 290.132812 249.210938 296.753906 244.121094 302.808594 C 240.8125 307.492188 237.097656 311.855469 233.382812 316.214844 C 228.457031 322.191406 223.53125 328.164062 218.605469 334.140625 L 209.398438 346.089844 L 198.984375 356.507812 L 183.804688 375 L 192.683594 366.277344 " fill-opacity="1" fill-rule="nonzero"/><path fill="#1d1d1d" d="M 200.277344 371.285156 L 201.488281 365.230469 L 201.808594 362.726562 L 202.292969 360.625 L 202.699219 358.851562 L 202.777344 357.640625 L 203.183594 356.347656 L 203.746094 353.277344 L 202.617188 357.234375 L 201.972656 360.304688 L 201.324219 364.261719 L 201.003906 366.925781 L 200.277344 369.429688 L 199.550781 373.546875 L 200.195312 371.367188 " fill-opacity="1" fill-rule="nonzero"/><path fill="#1d1d1d" d="M 116.296875 77.4375 C 114.359375 78.40625 112.582031 79.78125 110.96875 81.316406 C 109.917969 82.363281 108.949219 83.574219 107.980469 84.707031 C 107.089844 86 106.203125 87.210938 105.476562 88.582031 C 104.828125 89.632812 104.101562 90.601562 103.457031 91.730469 C 102.890625 92.699219 102.328125 93.667969 101.84375 94.71875 C 101.519531 95.363281 101.359375 96.089844 101.035156 96.898438 C 100.632812 97.546875 100.390625 98.191406 99.984375 98.835938 C 99.339844 100.695312 98.933594 102.632812 98.691406 104.570312 C 99.097656 102.066406 99.984375 99.726562 101.117188 97.464844 C 101.761719 95.847656 102.648438 94.234375 103.617188 92.621094 C 104.75 90.4375 106.042969 88.421875 107.496094 86.402344 C 108.382812 85.027344 109.269531 83.738281 110.320312 82.527344 C 111.453125 81.476562 112.664062 80.507812 113.953125 79.699219 C 115.894531 78.164062 118.074219 76.875 120.496094 76.226562 C 119.203125 76.390625 117.992188 76.792969 116.699219 77.277344 " fill-opacity="1" fill-rule="nonzero"/><path fill="#1d1d1d" d="M 119.203125 263.648438 C 119.285156 259.285156 119.363281 254.765625 119.769531 250.402344 C 119.929688 247.414062 120.253906 244.347656 120.65625 241.441406 C 120.816406 238.292969 121.140625 235.222656 121.464844 231.992188 L 122.757812 224.402344 L 123.726562 217.457031 L 123.886719 212.855469 L 124.9375 208.414062 L 126.550781 196.625 L 123.242188 211.726562 L 121.707031 222.867188 L 120.011719 237.808594 C 119.6875 241.117188 119.527344 244.347656 119.527344 247.660156 C 119.042969 250.808594 118.636719 253.875 118.394531 257.105469 C 118.394531 262.273438 118.71875 267.359375 118.878906 272.449219 L 119.363281 264.375 " fill-opacity="1" fill-rule="nonzero"/></svg>