<svg xmlns="http://www.w3.org/2000/svg" xmlns:xlink="http://www.w3.org/1999/xlink" width="500" zoomAndPan="magnify" viewBox="0 0 375 374.999991" height="500" preserveAspectRatio="xMidYMid meet" version="1.0"><defs><clipPath id="f1c60628fe"><path d="M 135 4.152344 L 294 4.152344 L 294 48 L 135 48 Z M 135 4.152344 " clip-rule="nonzero"/></clipPath><clipPath id="9e2b27fe36"><path d="M 324 8 L 333 8 L 333 54 L 324 54 Z M 324 8 " clip-rule="nonzero"/></clipPath><clipPath id="0d15892116"><path d="M 153 294 L 202 294 L 202 374.652344 L 153 374.652344 Z M 153 294 " clip-rule="nonzero"/></clipPath><clipPath id="05ab9793bc"><path d="M 37.5 116 L 68 116 L 68 267 L 37.5 267 Z M 37.5 116 " clip-rule="nonzero"/></clipPath><clipPath id="2ed8194c82"><path d="M 53 264 L 83 264 L 83 374.652344 L 53 374.652344 Z M 53 264 " clip-rule="nonzero"/></clipPath></defs><g clip-path="url(#f1c60628fe)"><path fill="#c62328" d="M 140.808594 4.664062 C 139.304688 4.582031 137.796875 4.503906 136.292969 4.34375 C 136.054688 5.691406 135.738281 7.117188 135.5 8.464844 L 135.898438 8.226562 C 135.105469 13.296875 138.433594 18.367188 142.867188 20.902344 C 147.304688 23.4375 152.691406 23.914062 157.761719 23.675781 C 162.121094 23.4375 166.476562 22.804688 170.835938 22.09375 C 177.015625 21.140625 183.113281 20.191406 189.292969 19.238281 C 191.433594 18.921875 193.652344 18.605469 195.792969 18.84375 C 201.890625 19.636719 208.386719 25.023438 213.457031 21.539062 C 213.695312 25.183594 217.894531 27.242188 221.539062 27.71875 C 225.183594 28.191406 229.222656 28.113281 232.074219 30.410156 C 233.660156 31.757812 234.691406 33.816406 236.433594 35.003906 C 240.234375 37.621094 245.542969 35.242188 249.902344 36.511719 C 251.960938 37.144531 253.703125 38.570312 255.527344 39.839844 C 261.390625 44.039062 268.441406 46.574219 275.570312 47.207031 C 279.136719 43.246094 283.808594 37.144531 287.535156 28.746094 C 291.414062 20.191406 292.921875 12.425781 293.554688 7.039062 C 242.613281 6.324219 191.671875 5.535156 140.808594 4.664062 Z M 185.175781 12.425781 C 182.71875 12.742188 180.183594 12.824219 177.726562 12.902344 C 175.191406 13.378906 172.65625 13.613281 170.121094 13.933594 C 166.160156 14.167969 162.199219 14.167969 158.316406 14.011719 C 155.386719 13.851562 152.457031 13.695312 149.523438 13.21875 C 145.5625 12.269531 141.601562 10.84375 138.671875 8.148438 C 141.125 9.96875 144.058594 11.078125 146.988281 11.714844 C 148.097656 12.109375 149.285156 12.425781 150.394531 12.742188 C 151.582031 12.742188 152.773438 12.742188 153.960938 12.664062 C 155.78125 12.824219 157.605469 12.902344 159.425781 12.980469 C 161.40625 13.140625 163.46875 13.21875 165.449219 13.296875 C 167.902344 13.140625 170.359375 12.980469 172.816406 12.742188 C 175.191406 12.585938 177.488281 12.425781 179.867188 12.109375 C 183.273438 11.714844 186.679688 11.160156 190.007812 10.289062 L 190.5625 10.128906 C 192.621094 9.734375 194.683594 9.179688 196.664062 8.625 C 192.9375 10.289062 189.136719 11.476562 185.175781 12.425781 Z M 276.996094 21.933594 C 274.066406 23.359375 270.976562 24.46875 267.886719 25.023438 C 264.796875 26.132812 261.546875 26.925781 258.140625 27.242188 C 252.992188 27.558594 247.761719 26.925781 242.851562 25.5 C 239.128906 24.390625 235.640625 22.882812 232.234375 21.0625 C 230.015625 19.558594 227.878906 18.050781 225.976562 16.230469 C 224.074219 14.484375 222.332031 12.425781 221.378906 10.050781 C 222.332031 11.792969 223.597656 13.21875 225.105469 14.566406 C 226.609375 15.832031 228.195312 17.023438 229.9375 18.050781 C 230.570312 18.527344 231.125 19.003906 231.757812 19.476562 C 232.394531 19.953125 233.027344 20.347656 233.660156 20.824219 C 235.085938 21.378906 236.59375 21.855469 238.019531 22.328125 C 240.15625 23.199219 242.375 23.992188 244.671875 24.628906 C 247.128906 25.339844 249.664062 25.894531 252.277344 26.210938 C 255.449219 26.371094 258.617188 26.210938 261.707031 25.65625 C 264.714844 25.261719 267.648438 24.546875 270.421875 23.519531 C 272.480469 22.804688 274.460938 21.855469 276.441406 20.746094 C 278.34375 19.636719 280.164062 18.367188 281.828125 16.941406 L 282.382812 16.46875 C 284.445312 14.804688 286.34375 12.824219 288.007812 10.605469 C 285.234375 15.199219 281.433594 19.082031 276.996094 21.933594 Z M 276.996094 21.933594 " fill-opacity="1" fill-rule="nonzero"/></g><path fill="#1d1d1d" d="M 127.183594 50.535156 C 127.894531 48.15625 128.527344 45.699219 129.003906 43.246094 C 129.320312 41.582031 129.636719 39.917969 129.957031 38.175781 C 130.191406 36.429688 130.351562 34.6875 130.667969 32.867188 C 130.984375 31.441406 131.300781 30.09375 131.617188 28.667969 C 131.9375 27.398438 132.253906 26.132812 132.648438 24.863281 L 132.886719 23.597656 L 133.125 22.328125 L 133.679688 21.140625 L 134.3125 20.03125 C 135.105469 17.972656 136.136719 15.992188 137.324219 14.089844 C 135.582031 16.386719 134.152344 18.921875 132.964844 21.617188 C 132.648438 22.644531 132.253906 23.597656 132.015625 24.628906 C 131.699219 25.65625 131.460938 26.6875 131.222656 27.71875 C 130.589844 30.488281 130.113281 33.261719 129.71875 36.035156 L 129.082031 41.503906 C 128.609375 43.246094 128.132812 44.910156 127.578125 46.574219 C 127.023438 49.425781 126.3125 52.199219 125.441406 54.96875 C 126.074219 53.625 126.707031 52.199219 127.183594 50.769531 " fill-opacity="1" fill-rule="nonzero"/><path fill="#1d1d1d" d="M 120.289062 58.613281 C 117.199219 61.464844 113.953125 64.160156 110.625 66.773438 C 108.40625 68.597656 106.109375 70.339844 103.8125 72.082031 L 96.917969 77.945312 C 94.9375 79.371094 92.957031 80.875 90.976562 82.382812 C 89.234375 83.808594 87.492188 85.15625 85.828125 86.660156 C 84.796875 87.691406 83.847656 88.878906 82.894531 89.910156 C 81.707031 90.78125 80.597656 91.652344 79.410156 92.523438 C 78.0625 93.871094 76.714844 95.375 75.84375 97.039062 C 75.371094 97.910156 74.972656 98.859375 74.816406 99.8125 C 74.65625 100.839844 74.734375 101.871094 75.050781 102.820312 C 74.734375 101.554688 74.816406 100.207031 75.289062 99.019531 C 75.765625 97.832031 76.480469 96.800781 77.191406 95.929688 C 77.984375 94.980469 78.855469 94.1875 79.804688 93.394531 L 82.65625 91.097656 C 85.273438 88.71875 87.964844 86.34375 90.738281 84.125 C 94.382812 81.035156 98.105469 78.023438 101.910156 75.015625 C 104.285156 72.953125 106.664062 70.894531 108.960938 68.835938 L 112.761719 66.300781 C 114.03125 65.429688 115.21875 64.554688 116.488281 63.683594 C 120.050781 60.359375 123.539062 56.792969 126.546875 52.910156 L 123.777344 55.523438 L 120.84375 58.058594 " fill-opacity="1" fill-rule="nonzero"/><path fill="#c62328" d="M 73.46875 91.570312 C 75.132812 101.792969 78.140625 109.398438 80.519531 114.390625 C 88.046875 130.074219 98.820312 139.421875 109.277344 148.457031 C 115.296875 153.683594 119.417969 156.378906 122.746094 158.277344 C 128.527344 161.6875 134.789062 164.0625 141.207031 165.964844 C 175.984375 175.945312 209.339844 163.03125 209.339844 163.03125 C 216.546875 160.261719 222.648438 157.011719 227.640625 153.921875 C 232.074219 158.199219 234.609375 158.597656 236.117188 158.121094 C 236.671875 157.960938 237.144531 157.644531 238.019531 157.644531 C 240.078125 157.726562 241.664062 159.785156 242.613281 161.449219 C 236.988281 162.320312 230.96875 163.429688 227.164062 167.628906 C 225.183594 169.765625 223.996094 172.617188 221.777344 174.519531 C 220.273438 175.789062 218.371094 176.5 217.023438 177.925781 C 214.726562 180.304688 214.328125 184.027344 212.269531 186.722656 C 208.148438 191.949219 198.484375 191.316406 196.109375 197.574219 C 195.394531 199.316406 195.472656 201.457031 194.285156 202.960938 C 192.621094 205.101562 189.53125 205.023438 186.839844 205.417969 C 182.796875 206.050781 178.996094 208.429688 176.699219 211.757812 C 176.144531 212.546875 175.589844 213.5 174.71875 213.894531 C 173.6875 214.371094 172.417969 213.972656 171.3125 213.894531 C 167.585938 213.5 164.101562 215.558594 160.851562 217.460938 C 154.277344 221.261719 147.304688 224.351562 140.175781 226.808594 C 135.027344 228.550781 128.449219 229.503906 124.886719 225.382812 C 123.695312 223.957031 123.0625 222.214844 122.269531 220.550781 C 119.894531 215.71875 115.933594 211.914062 111.972656 208.191406 C 108.167969 204.546875 104.367188 200.980469 100.5625 197.335938 C 99.691406 196.542969 98.820312 195.671875 98.34375 194.5625 C 97.710938 193.21875 97.710938 191.632812 97.550781 190.046875 C 96.917969 185.847656 94.066406 182.285156 91.925781 178.5625 C 89.234375 173.886719 87.570312 168.738281 85.90625 163.585938 C 84.480469 159.230469 83.132812 154.871094 81.707031 150.515625 C 79.964844 144.96875 78.140625 139.421875 77.351562 133.640625 C 76.953125 130.710938 76.714844 127.460938 74.734375 125.242188 C 73.707031 124.054688 72.199219 123.261719 71.089844 122.074219 C 69.664062 120.488281 68.953125 118.351562 67.445312 116.765625 C 64.59375 113.753906 59.367188 113.597656 56.832031 110.347656 C 54.851562 107.734375 55.167969 103.851562 56.988281 101.160156 C 58.8125 98.464844 61.820312 96.722656 64.910156 95.613281 C 66.179688 94.582031 68 93.394531 70.457031 92.523438 C 71.488281 92.046875 72.515625 91.808594 73.46875 91.570312 Z M 73.46875 91.570312 " fill-opacity="1" fill-rule="nonzero"/><path fill="#1d1d1d" d="M 72.753906 71.289062 C 73.46875 71.210938 74.101562 70.972656 74.65625 70.65625 C 75.050781 70.417969 75.449219 70.101562 75.765625 69.785156 C 76.082031 69.46875 76.398438 69.070312 76.636719 68.675781 C 76.875 68.359375 77.03125 68.042969 77.269531 67.644531 C 77.429688 67.328125 77.585938 67.011719 77.667969 66.695312 C 77.746094 66.457031 77.746094 66.21875 77.824219 66.0625 L 78.0625 65.429688 C 78.222656 64.875 78.378906 64.238281 78.460938 63.683594 C 78.222656 64.398438 77.984375 65.191406 77.667969 65.824219 C 77.507812 66.378906 77.269531 66.855469 77.03125 67.410156 C 76.714844 68.121094 76.398438 68.753906 75.84375 69.308594 C 75.527344 69.707031 75.210938 70.023438 74.816406 70.339844 C 74.417969 70.578125 73.945312 70.734375 73.546875 70.894531 C 72.835938 71.210938 72.042969 71.289062 71.328125 71.132812 C 71.726562 71.210938 72.121094 71.289062 72.515625 71.289062 " fill-opacity="1" fill-rule="nonzero"/><path fill="#1d1d1d" d="M 71.089844 80.796875 C 71.25 80.085938 71.25 79.292969 71.25 78.578125 L 71.25 77.074219 L 71.171875 75.488281 L 71.171875 73.035156 L 71.089844 72.242188 L 71.171875 71.449219 C 71.171875 71.132812 71.171875 70.734375 71.089844 70.417969 C 71.011719 70.261719 70.933594 70.101562 70.855469 69.945312 C 70.773438 69.785156 70.535156 69.707031 70.300781 69.785156 C 70.535156 69.707031 70.773438 69.945312 70.855469 70.101562 C 70.933594 70.339844 71.011719 70.5 71.011719 70.734375 C 71.011719 71.132812 70.933594 71.605469 70.933594 72.003906 L 70.933594 73.90625 L 71.011719 76.441406 L 71.089844 78.105469 C 71.011719 78.660156 71.011719 79.132812 70.933594 79.6875 C 70.933594 80.558594 70.855469 81.429688 70.535156 82.222656 C 70.773438 81.828125 70.933594 81.351562 71.011719 80.957031 " fill-opacity="1" fill-rule="nonzero"/><path fill="#1d1d1d" d="M 71.804688 90.859375 C 71.882812 90.226562 71.960938 89.589844 71.960938 88.957031 C 71.960938 88.5625 71.960938 88.085938 71.882812 87.691406 C 71.804688 87.214844 71.726562 86.820312 71.644531 86.421875 C 71.566406 86.105469 71.566406 85.710938 71.488281 85.390625 L 71.25 84.441406 L 71.011719 83.808594 L 70.933594 83.175781 C 70.855469 82.9375 70.773438 82.621094 70.695312 82.382812 C 70.535156 82.144531 70.378906 81.90625 70.0625 81.828125 C 70.457031 81.90625 70.617188 82.300781 70.695312 82.621094 C 70.773438 82.9375 70.855469 83.332031 70.855469 83.648438 L 71.171875 85.15625 C 71.328125 85.867188 71.488281 86.5 71.566406 87.214844 C 71.644531 87.691406 71.726562 88.085938 71.804688 88.5625 C 71.804688 89.035156 71.726562 89.433594 71.644531 89.910156 C 71.644531 90.621094 71.566406 91.335938 71.328125 92.046875 C 71.488281 91.730469 71.566406 91.335938 71.644531 90.9375 " fill-opacity="1" fill-rule="nonzero"/><path fill="#1d1d1d" d="M 67.128906 90.9375 C 66.734375 90.304688 66.335938 89.671875 65.941406 88.957031 C 65.546875 88.324219 65.148438 87.609375 64.832031 86.976562 C 64.355469 86.105469 64.039062 85.074219 63.800781 84.125 C 63.484375 83.09375 63.167969 82.066406 62.929688 80.957031 L 62.375 78.339844 L 61.820312 75.964844 L 61.265625 74.460938 L 61.109375 72.875 L 60.238281 68.835938 L 60.949219 74.140625 L 61.820312 77.945312 L 63.089844 83.015625 C 63.40625 84.125 63.722656 85.234375 64.277344 86.183594 C 64.59375 87.214844 65.148438 88.246094 65.625 89.195312 C 66.65625 90.699219 67.683594 92.125 69.03125 93.316406 C 68.398438 92.601562 67.921875 91.808594 67.445312 91.015625 " fill-opacity="1" fill-rule="nonzero"/><path fill="#1d1d1d" d="M 74.179688 53.304688 C 72.914062 54.019531 71.804688 54.890625 70.695312 55.761719 C 69.980469 56.394531 69.191406 57.03125 68.554688 57.742188 C 67.84375 58.457031 67.210938 59.25 66.574219 60.039062 L 64.910156 61.863281 L 63.40625 63.527344 C 63.089844 63.921875 62.851562 64.320312 62.613281 64.714844 C 62.296875 65.03125 61.902344 65.429688 61.585938 65.746094 C 60.871094 66.773438 60.238281 67.882812 59.839844 69.152344 C 60.476562 67.566406 61.503906 66.300781 62.613281 65.109375 C 63.328125 64.160156 64.121094 63.289062 64.910156 62.417969 C 65.941406 61.230469 66.972656 59.960938 68.082031 58.773438 C 68.792969 57.980469 69.425781 57.1875 70.21875 56.476562 C 71.011719 55.839844 71.882812 55.285156 72.753906 54.734375 C 74.023438 53.703125 75.449219 52.832031 76.875 52.117188 C 76.082031 52.433594 75.289062 52.75 74.496094 53.148438 " fill-opacity="1" fill-rule="nonzero"/><path fill="#1d1d1d" d="M 95.96875 73.507812 C 94.382812 72.398438 92.878906 71.210938 91.53125 69.863281 C 90.582031 68.992188 89.710938 68.042969 88.917969 67.011719 C 88.046875 65.980469 87.332031 64.875 86.621094 63.683594 L 85.191406 60.675781 C 84.71875 59.804688 84.242188 58.851562 83.6875 57.980469 C 83.292969 57.425781 82.816406 56.949219 82.339844 56.476562 C 82.023438 55.921875 81.628906 55.367188 81.152344 54.8125 C 79.886719 53.625 78.460938 52.59375 76.875 51.800781 C 78.855469 52.988281 80.519531 54.574219 81.785156 56.316406 C 82.816406 57.503906 83.6875 58.929688 84.402344 60.359375 C 85.429688 62.257812 86.382812 64.238281 87.648438 66.0625 C 88.519531 67.25 89.472656 68.28125 90.5 69.230469 C 91.371094 70.261719 92.324219 71.289062 93.351562 72.242188 C 95.175781 73.589844 97.078125 74.695312 99.058594 75.886719 C 98.105469 75.171875 97.234375 74.460938 96.285156 73.667969 " fill-opacity="1" fill-rule="nonzero"/><path fill="#1d1d1d" d="M 77.507812 72.398438 L 77.191406 71.6875 L 76.714844 70.734375 L 76.558594 70.339844 L 76.398438 69.945312 L 76.242188 69.46875 L 76.003906 68.835938 L 76.160156 69.707031 L 76.398438 70.339844 C 76.480469 70.578125 76.636719 70.894531 76.714844 71.132812 L 76.953125 71.605469 L 77.113281 72.082031 L 77.507812 72.875 L 77.507812 72.398438 " fill-opacity="1" fill-rule="nonzero"/><path fill="#1d1d1d" d="M 74.578125 83.09375 C 75.527344 82.382812 76.242188 81.351562 76.875 80.402344 C 77.269531 79.6875 77.667969 78.976562 77.984375 78.183594 C 78.222656 77.390625 78.378906 76.519531 78.378906 75.726562 C 78.460938 75.015625 78.460938 74.378906 78.539062 73.746094 C 78.617188 73.113281 78.777344 72.558594 79.015625 72.003906 C 79.09375 71.605469 79.171875 71.210938 79.332031 70.816406 L 79.886719 69.785156 L 81.074219 66.855469 L 79.25 70.5 C 78.855469 71.371094 78.460938 72.320312 78.300781 73.351562 C 78.0625 74.695312 78.300781 76.042969 77.90625 77.3125 C 77.746094 78.183594 77.429688 78.976562 77.113281 79.765625 C 76.636719 80.480469 76.160156 81.113281 75.605469 81.75 C 74.816406 82.777344 73.785156 83.808594 72.4375 83.964844 C 73.152344 83.964844 73.863281 83.730469 74.496094 83.332031 " fill-opacity="1" fill-rule="nonzero"/><path fill="#1d1d1d" d="M 75.050781 83.886719 C 74.816406 83.886719 74.496094 83.886719 74.261719 83.808594 C 74.101562 83.808594 73.863281 83.808594 73.707031 83.730469 C 73.546875 83.730469 73.308594 83.730469 73.152344 83.648438 C 72.992188 83.648438 72.835938 83.570312 72.675781 83.570312 L 72.28125 83.492188 L 72.042969 83.410156 L 71.804688 83.253906 C 71.566406 83.175781 71.328125 83.09375 71.171875 83.015625 C 71.410156 83.175781 71.726562 83.332031 72.042969 83.410156 C 72.28125 83.492188 72.515625 83.570312 72.675781 83.570312 C 72.992188 83.648438 73.308594 83.730469 73.546875 83.730469 C 73.785156 83.730469 73.945312 83.730469 74.179688 83.730469 C 74.339844 83.730469 74.578125 83.808594 74.734375 83.808594 C 75.050781 83.808594 75.371094 83.808594 75.6875 83.730469 C 75.371094 83.964844 75.210938 83.964844 75.050781 83.886719 " fill-opacity="1" fill-rule="nonzero"/><path fill="#c62328" d="M 63.167969 97.039062 C 63.089844 95.929688 63.011719 94.898438 63.011719 93.789062 C 63.011719 91.890625 63.25 89.671875 64.910156 88.5625 C 66.019531 90.304688 67.445312 91.808594 69.109375 93 C 66.890625 94.105469 65.386719 95.929688 63.167969 97.039062 " fill-opacity="1" fill-rule="nonzero"/><path fill="#1d1d1d" d="M 53.742188 70.578125 C 53.980469 72.003906 54.296875 73.429688 54.769531 74.777344 C 55.089844 75.726562 55.40625 76.597656 55.800781 77.550781 C 56.277344 78.5 56.75 79.371094 57.226562 80.242188 C 57.625 80.957031 57.941406 81.75 58.335938 82.460938 C 58.730469 83.09375 59.128906 83.730469 59.523438 84.363281 C 59.839844 84.757812 60.160156 85.15625 60.476562 85.472656 C 60.710938 85.867188 60.949219 86.34375 61.1875 86.738281 C 61.980469 87.769531 62.773438 88.71875 63.644531 89.671875 C 62.613281 88.324219 61.742188 86.976562 60.871094 85.550781 C 60.160156 84.601562 59.523438 83.570312 58.890625 82.539062 C 58.019531 81.195312 57.226562 79.765625 56.59375 78.339844 C 56.117188 77.390625 55.640625 76.441406 55.246094 75.488281 C 55.007812 74.539062 54.769531 73.507812 54.613281 72.480469 C 54.136719 70.894531 53.820312 69.308594 53.742188 67.644531 C 53.660156 68.519531 53.660156 69.390625 53.742188 70.261719 " fill-opacity="1" fill-rule="nonzero"/><path fill="#1d1d1d" d="M 68.554688 54.097656 C 67.128906 54.179688 65.785156 54.574219 64.515625 55.128906 C 63.644531 55.523438 62.851562 56.078125 62.140625 56.714844 C 61.425781 57.425781 60.710938 58.140625 60.160156 58.851562 C 59.605469 59.40625 59.128906 60.039062 58.574219 60.675781 L 57.226562 62.417969 L 56.515625 63.605469 L 55.5625 64.636719 L 53.34375 67.566406 L 56.515625 64 L 58.574219 61.230469 C 59.445312 59.960938 60.476562 58.773438 61.503906 57.664062 C 62.21875 56.949219 62.929688 56.238281 63.800781 55.683594 C 64.675781 55.207031 65.625 54.96875 66.574219 54.734375 C 68.082031 54.257812 69.664062 54.097656 71.171875 54.574219 C 70.378906 54.257812 69.585938 54.097656 68.714844 54.019531 " fill-opacity="1" fill-rule="nonzero"/><path fill="#1d1d1d" d="M 54.214844 84.757812 L 53.820312 81.589844 L 53.503906 79.449219 L 53.027344 77.230469 L 52.789062 75.410156 C 52.710938 74.855469 52.632812 74.300781 52.550781 73.746094 C 52.472656 73.429688 52.394531 73.035156 52.316406 72.636719 C 52.316406 72.242188 52.394531 71.925781 52.472656 71.527344 C 52.550781 70.578125 52.710938 69.625 53.027344 68.753906 C 52.550781 69.863281 52.234375 71.054688 52.15625 72.320312 C 52.15625 73.191406 52.316406 74.140625 52.394531 75.015625 L 53.027344 78.578125 L 53.503906 80.875 L 53.660156 83.175781 L 54.296875 86.820312 L 54.136719 84.917969 " fill-opacity="1" fill-rule="nonzero"/><path fill="#1d1d1d" d="M 61.742188 91.492188 L 60.316406 90.621094 L 59.285156 89.988281 L 58.257812 89.433594 L 57.464844 88.878906 L 56.75 88.402344 L 56.195312 88.164062 L 55.722656 87.769531 L 54.453125 86.898438 C 54.929688 87.375 55.484375 87.769531 55.960938 88.164062 L 57.148438 88.957031 C 57.703125 89.273438 58.257812 89.671875 58.8125 89.988281 L 59.921875 90.542969 L 60.871094 91.253906 C 61.425781 91.570312 62.058594 91.890625 62.613281 92.125 L 61.742188 91.492188 " fill-opacity="1" fill-rule="nonzero"/><path fill="#1d1d1d" d="M 228.035156 135.304688 C 229.621094 132.847656 230.886719 130.234375 232.234375 127.777344 C 233.105469 126.035156 234.136719 124.371094 235.246094 122.867188 C 236.355469 121.203125 237.699219 119.695312 239.363281 118.507812 C 240.789062 117.636719 242.296875 117.082031 243.960938 116.925781 C 245.386719 116.6875 246.890625 116.925781 248.316406 117.398438 C 249.269531 117.636719 250.21875 117.875 251.25 118.03125 C 252.121094 118.429688 253.070312 118.746094 254.019531 119.0625 C 256.554688 119.617188 259.171875 119.855469 261.707031 119.855469 C 258.378906 119.460938 255.050781 118.824219 251.960938 117.636719 C 250.773438 117.320312 249.742188 116.925781 248.554688 116.527344 C 247.367188 116.132812 246.097656 115.894531 244.753906 115.972656 C 241.265625 116.210938 238.253906 118.113281 236.039062 120.566406 C 234.691406 122.230469 233.582031 124.132812 232.710938 126.035156 C 231.523438 127.699219 230.492188 129.519531 229.460938 131.261719 C 228.035156 134.273438 226.53125 137.207031 224.152344 139.582031 C 225.5 138.472656 226.6875 137.207031 227.796875 135.78125 " fill-opacity="1" fill-rule="nonzero"/><path fill="#1d1d1d" d="M 233.820312 157.011719 C 232.394531 156.695312 231.046875 156.0625 229.9375 155.109375 C 229.144531 154.476562 228.433594 153.84375 227.878906 152.972656 C 227.242188 152.179688 226.769531 151.226562 226.292969 150.277344 C 225.976562 149.484375 225.738281 148.691406 225.578125 147.820312 C 225.34375 147.109375 225.183594 146.316406 225.023438 145.523438 C 224.867188 145.046875 224.707031 144.574219 224.550781 144.097656 C 224.550781 143.621094 224.550781 143.066406 224.550781 142.59375 C 224.390625 141.246094 224.3125 139.976562 224.390625 138.632812 C 224.234375 140.296875 224.152344 142.039062 224.3125 143.78125 C 224.46875 145.046875 224.707031 146.238281 225.023438 147.503906 C 225.5 149.089844 226.054688 150.753906 226.925781 152.179688 C 227.480469 153.128906 228.273438 153.921875 229.066406 154.636719 C 229.777344 155.425781 230.648438 156.0625 231.519531 156.617188 C 233.105469 157.328125 234.929688 157.566406 236.59375 157.328125 C 235.71875 157.328125 234.769531 157.171875 233.976562 156.933594 " fill-opacity="1" fill-rule="nonzero"/><path fill="#1d1d1d" d="M 240.632812 158.277344 C 239.207031 156.695312 238.019531 154.953125 236.910156 153.128906 C 236.117188 151.863281 235.402344 150.671875 235.085938 149.328125 C 234.847656 148.613281 234.769531 147.902344 234.769531 147.1875 C 234.847656 146.476562 235.085938 145.761719 235.402344 145.128906 L 237.304688 141.957031 L 239.046875 139.027344 L 239.917969 136.96875 L 241.265625 135.226562 L 244.199219 130.234375 L 239.839844 136.335938 L 237.066406 141.007812 L 235.324219 144.175781 C 235.007812 144.730469 234.769531 145.285156 234.53125 145.839844 C 234.292969 146.394531 234.214844 147.109375 234.214844 147.742188 C 234.292969 149.40625 235.085938 150.832031 235.957031 152.179688 C 236.59375 153.527344 237.304688 154.871094 238.175781 156.21875 C 239.761719 158.121094 241.503906 159.941406 243.484375 161.527344 C 242.613281 160.578125 241.742188 159.625 240.949219 158.597656 " fill-opacity="1" fill-rule="nonzero"/><path fill="#1d1d1d" d="M 248.949219 162.242188 C 248.078125 162.953125 246.96875 163.269531 245.941406 163.03125 C 244.910156 162.714844 244.117188 161.921875 243.40625 161.050781 C 242.929688 160.417969 242.375 159.863281 242.136719 159.230469 C 241.898438 158.597656 241.980469 157.882812 242.21875 157.171875 C 242.375 156.378906 242.691406 155.664062 243.007812 154.871094 L 243.878906 152.496094 C 244.433594 151.226562 245.070312 150.039062 245.625 148.851562 C 246.179688 147.742188 246.652344 146.632812 247.289062 145.523438 C 247.605469 144.8125 247.921875 144.019531 248.238281 143.304688 C 248.714844 142.671875 249.269531 142.039062 249.742188 141.40625 C 250.929688 139.660156 252.199219 137.996094 253.625 136.492188 C 251.644531 138.316406 249.742188 140.375 248.160156 142.59375 C 247.128906 144.335938 246.179688 146.078125 245.386719 147.902344 C 244.277344 150.355469 243.324219 152.8125 242.296875 155.269531 C 241.980469 156.0625 241.664062 156.933594 241.582031 157.804688 C 241.503906 158.675781 241.742188 159.546875 242.21875 160.261719 C 242.613281 160.972656 243.089844 161.6875 243.644531 162.320312 C 244.199219 162.953125 244.832031 163.585938 245.78125 163.824219 C 246.496094 163.984375 247.289062 163.902344 247.921875 163.585938 C 248.554688 163.269531 249.1875 162.875 249.664062 162.320312 C 250.613281 161.289062 251.167969 159.941406 251.644531 158.753906 C 250.929688 160.023438 250.21875 161.289062 249.1875 162.160156 " fill-opacity="1" fill-rule="nonzero"/><path fill="#1d1d1d" d="M 253.070312 157.171875 C 253.703125 156.0625 254.339844 155.03125 254.972656 153.921875 C 255.367188 153.207031 255.84375 152.417969 256.320312 151.703125 C 256.714844 150.910156 257.191406 150.117188 257.664062 149.40625 C 258.0625 148.773438 258.539062 148.21875 258.933594 147.664062 C 259.328125 147.109375 259.726562 146.632812 260.121094 146.078125 L 260.753906 144.96875 L 261.707031 144.019531 C 262.417969 143.148438 263.132812 142.277344 263.84375 141.40625 C 262.816406 142.433594 261.785156 143.464844 260.753906 144.496094 C 260.121094 145.367188 259.488281 146.15625 258.855469 147.03125 C 258.0625 148.21875 257.269531 149.40625 256.554688 150.59375 C 256.082031 151.386719 255.683594 152.257812 255.210938 153.050781 C 254.65625 153.761719 254.179688 154.476562 253.703125 155.269531 C 253.070312 156.535156 252.4375 157.882812 251.804688 159.230469 C 252.199219 158.597656 252.59375 157.960938 252.992188 157.328125 " fill-opacity="1" fill-rule="nonzero"/><path fill="#1d1d1d" d="M 275.808594 145.128906 C 275.410156 146 275.09375 146.871094 274.382812 147.265625 C 273.589844 147.664062 272.71875 148.136719 271.847656 148.535156 C 270.738281 149.167969 269.550781 149.800781 268.441406 150.4375 C 267.332031 151.148438 266.222656 151.941406 265.113281 152.734375 C 264.160156 153.289062 263.210938 153.84375 262.339844 154.476562 C 261.46875 155.03125 260.675781 155.585938 259.882812 156.140625 C 259.410156 156.535156 258.933594 157.011719 258.378906 157.40625 C 257.746094 157.644531 257.191406 157.882812 256.554688 157.882812 C 254.972656 158.277344 253.148438 158.199219 251.644531 159.230469 C 253.703125 158.121094 256 158.832031 258.21875 157.882812 C 258.933594 157.488281 259.644531 157.011719 260.28125 156.617188 L 262.261719 155.269531 C 264.003906 154.082031 265.824219 152.890625 267.570312 151.703125 C 268.757812 150.910156 269.867188 150.117188 271.054688 149.40625 C 272.320312 148.851562 273.511719 148.375 274.777344 147.820312 C 275.253906 147.503906 275.648438 146.949219 275.886719 146.476562 C 276.125 145.921875 276.285156 145.445312 276.441406 144.890625 L 277.550781 141.800781 L 275.964844 144.890625 " fill-opacity="1" fill-rule="nonzero"/><path fill="#1d1d1d" d="M 294.664062 122.230469 C 294.425781 124.449219 293.792969 126.589844 292.683594 128.492188 C 291.96875 129.835938 291.097656 131.105469 290.226562 132.453125 L 287.929688 136.652344 L 285.789062 139.976562 C 285.15625 141.007812 284.445312 141.957031 283.730469 142.832031 C 283.253906 143.464844 282.78125 144.019531 282.226562 144.574219 C 281.511719 144.96875 280.800781 145.285156 280.085938 145.523438 C 278.265625 146.394531 276.363281 146.949219 274.382812 147.503906 C 276.996094 147.03125 279.609375 146.554688 281.988281 145.285156 C 283.652344 144.175781 285 142.671875 286.027344 141.007812 C 287.375 138.789062 288.640625 136.570312 289.988281 134.351562 L 292.367188 129.917969 C 293.316406 128.648438 294.1875 127.222656 294.820312 125.71875 C 295.457031 123.101562 295.457031 120.410156 295.375 117.796875 C 295.21875 119.140625 295.058594 120.566406 294.820312 121.914062 " fill-opacity="1" fill-rule="nonzero"/><path fill="#1d1d1d" d="M 273.429688 101.160156 L 271.214844 104.882812 C 270.738281 105.753906 270.261719 106.625 269.707031 107.496094 C 269.234375 108.445312 268.757812 109.320312 268.203125 110.269531 C 267.726562 110.980469 267.25 111.695312 266.777344 112.328125 C 266.300781 112.960938 265.90625 113.597656 265.429688 114.152344 C 265.191406 114.546875 264.875 115.023438 264.636719 115.417969 C 264.242188 115.734375 263.925781 116.050781 263.527344 116.371094 C 262.65625 117.320312 261.707031 118.191406 260.753906 119.0625 C 262.101562 118.113281 263.449219 117.003906 264.636719 115.816406 C 265.429688 114.863281 266.222656 113.914062 266.933594 112.882812 C 267.886719 111.535156 268.757812 110.109375 269.550781 108.683594 C 270.023438 107.734375 270.5 106.78125 270.976562 105.832031 L 272.71875 103.296875 L 275.015625 98.78125 L 273.511719 101 " fill-opacity="1" fill-rule="nonzero"/><path fill="#1d1d1d" d="M 299.257812 27.003906 L 299.335938 23.199219 L 299.417969 20.585938 L 299.335938 17.894531 L 299.496094 15.675781 L 299.574219 13.695312 L 299.496094 12.347656 L 299.734375 11.078125 L 299.972656 7.671875 C 299.734375 9.097656 299.496094 10.605469 299.257812 12.03125 L 299.101562 15.277344 C 299.101562 16.703125 299.019531 18.128906 299.019531 19.636719 L 299.179688 22.488281 L 298.941406 25.183594 C 299.019531 26.6875 299.019531 28.113281 299.101562 29.617188 L 299.257812 27.320312 " fill-opacity="1" fill-rule="nonzero"/><path fill="#1d1d1d" d="M 276.679688 92.601562 C 277.945312 88.402344 279.214844 84.203125 280.5625 80.085938 C 281.433594 77.230469 282.304688 74.378906 283.253906 71.527344 C 284.046875 68.519531 284.839844 65.507812 285.710938 62.496094 C 286.582031 60.121094 287.453125 57.742188 288.40625 55.367188 C 289.195312 53.226562 289.988281 51.007812 290.859375 48.871094 C 291.257812 47.363281 291.574219 45.9375 291.96875 44.511719 C 292.683594 43.164062 293.394531 41.820312 294.109375 40.550781 C 295.535156 36.90625 297.121094 33.34375 298.625 29.699219 C 296.167969 34.214844 293.871094 38.730469 291.574219 43.246094 C 290.226562 46.652344 288.878906 50.136719 287.613281 53.625 C 286.027344 58.296875 284.523438 63.050781 283.097656 67.804688 C 282.304688 70.972656 281.511719 74.0625 280.800781 77.230469 C 279.609375 80.164062 278.5 83.015625 277.394531 85.945312 C 276.203125 90.859375 275.015625 95.851562 273.984375 100.839844 C 274.859375 98.304688 275.730469 95.769531 276.601562 93.316406 " fill-opacity="1" fill-rule="nonzero"/><g clip-path="url(#9e2b27fe36)"><path fill="#1d1d1d" d="M 327.066406 48.632812 C 328.015625 46.097656 328.730469 43.484375 329.363281 40.867188 C 329.761719 39.046875 330.078125 37.222656 330.316406 35.402344 C 330.472656 33.5 330.472656 31.519531 330.472656 29.617188 C 330.550781 28.035156 330.632812 26.527344 330.632812 24.945312 C 330.632812 23.519531 330.550781 22.09375 330.472656 20.746094 C 330.394531 19.792969 330.234375 18.921875 330.234375 17.972656 C 330.394531 17.101562 330.710938 16.148438 331.027344 15.359375 C 331.582031 13.058594 332.453125 10.761719 333.246094 8.542969 C 331.898438 11.316406 330.472656 14.167969 329.839844 17.257812 C 329.523438 19.558594 329.679688 21.855469 329.761719 24.152344 C 329.917969 27.164062 329.917969 30.171875 329.679688 33.183594 C 329.601562 35.164062 329.523438 37.144531 329.285156 39.125 C 328.730469 40.949219 328.175781 42.769531 327.542969 44.589844 C 326.828125 47.601562 325.878906 50.535156 324.769531 53.464844 C 325.480469 52.039062 326.273438 50.535156 326.90625 49.027344 " fill-opacity="1" fill-rule="nonzero"/></g><path fill="#1d1d1d" d="M 322.3125 57.425781 C 320.570312 61.546875 318.667969 65.585938 316.765625 69.625 C 315.5 72.398438 314.230469 75.171875 312.886719 77.945312 C 311.695312 80.875 310.429688 83.808594 309.082031 86.738281 C 307.816406 89.035156 306.625 91.253906 305.28125 93.550781 C 304.171875 95.613281 302.980469 97.671875 301.875 99.730469 L 300.050781 104.011719 C 299.101562 105.277344 298.230469 106.464844 297.355469 107.8125 C 296.484375 109.636719 295.613281 111.457031 295.058594 113.515625 C 294.503906 115.496094 294.347656 117.636719 294.585938 119.695312 C 294.425781 117.003906 295.140625 114.390625 296.25 112.011719 C 297.355469 109.636719 298.785156 107.496094 300.210938 105.355469 C 302.109375 102.109375 304.011719 98.78125 305.835938 95.453125 C 308.132812 90.9375 310.429688 86.34375 312.488281 81.75 C 313.757812 78.660156 314.945312 75.570312 316.132812 72.480469 C 317.71875 69.707031 319.222656 66.933594 320.808594 64.082031 C 322.710938 59.25 324.453125 54.335938 326.195312 49.425781 C 325.007812 51.878906 323.820312 54.335938 322.550781 56.714844 " fill-opacity="1" fill-rule="nonzero"/><path fill="#1d1d1d" d="M 170.597656 123.023438 C 171.230469 121.835938 171.785156 120.648438 172.183594 119.378906 C 172.5 118.507812 172.738281 117.636719 172.894531 116.6875 C 172.894531 116.449219 172.894531 116.132812 172.738281 115.894531 C 172.578125 115.65625 172.339844 115.417969 172.023438 115.417969 C 171.46875 115.339844 170.914062 115.578125 170.597656 115.972656 C 170.28125 116.289062 170.121094 116.605469 169.964844 116.925781 L 169.410156 117.953125 L 168.457031 119.855469 L 167.984375 121.121094 L 167.269531 122.230469 C 167.03125 122.785156 166.714844 123.339844 166.792969 123.976562 C 166.792969 124.292969 166.953125 124.609375 167.191406 124.847656 C 167.429688 125.085938 167.824219 125.242188 168.140625 125.085938 C 167.667969 125.164062 167.269531 124.847656 167.113281 124.53125 C 166.875 124.210938 166.953125 123.738281 167.03125 123.421875 C 167.269531 122.707031 167.746094 122.074219 168.140625 121.441406 L 169.648438 118.429688 C 169.964844 117.796875 170.28125 117.003906 170.597656 116.449219 C 170.757812 116.132812 170.992188 115.894531 171.3125 115.734375 C 171.628906 115.578125 171.945312 115.578125 172.261719 115.816406 C 172.578125 116.050781 172.578125 116.605469 172.5 117.082031 C 172.417969 117.558594 172.339844 118.03125 172.261719 118.507812 C 171.945312 119.378906 171.546875 120.25 171.074219 121.121094 C 170.519531 122.550781 169.882812 123.976562 169.09375 125.242188 C 169.566406 124.609375 170.042969 123.976562 170.4375 123.261719 " fill-opacity="1" fill-rule="nonzero"/><path fill="#1d1d1d" d="M 96.207031 356.65625 C 97.472656 352.378906 99.058594 348.179688 100.722656 344.0625 C 102.386719 339.941406 104.285156 335.820312 106.109375 331.703125 C 108.566406 326.078125 111.019531 320.375 113.238281 314.511719 C 114.191406 311.421875 115.140625 308.332031 115.933594 305.160156 C 116.726562 301.992188 117.359375 298.902344 117.992188 295.734375 C 119.339844 290.664062 120.527344 285.59375 121.714844 280.445312 C 122.667969 275.769531 123.617188 271.175781 124.726562 266.578125 C 125.042969 263.488281 125.441406 260.398438 125.914062 257.390625 C 127.101562 254.539062 128.371094 251.683594 129.71875 248.914062 C 132.332031 241.386719 135.816406 234.097656 140.414062 227.601562 C 133.679688 235.445312 128.765625 245.03125 124.886719 254.855469 C 122.746094 262.222656 121.160156 269.75 119.578125 277.117188 C 117.753906 287.179688 116.011719 297.160156 113.082031 306.90625 C 111.417969 313.320312 109.277344 319.660156 107.136719 325.917969 C 104.128906 331.625 101.039062 337.25 98.1875 343.03125 C 94.78125 352.933594 92.085938 363.3125 92.007812 373.769531 C 92.71875 368.304688 94.066406 363.074219 95.886719 357.925781 " fill-opacity="1" fill-rule="nonzero"/><path fill="#1d1d1d" d="M 205.933594 285.59375 C 207.675781 281.949219 209.257812 278.226562 210.683594 274.34375 C 212.03125 270.460938 213.300781 266.660156 214.410156 262.777344 C 215.914062 257.46875 217.339844 252.082031 218.6875 246.773438 C 219.242188 243.921875 219.875 241.148438 220.429688 238.296875 L 222.015625 229.820312 C 223.28125 225.304688 224.234375 220.707031 225.023438 216.113281 C 225.660156 211.914062 226.292969 207.714844 226.769531 203.4375 L 226.847656 195.117188 L 228.90625 187.039062 L 230.253906 176.261719 C 230.730469 172.699219 231.203125 168.894531 230.175781 165.171875 C 230.570312 167.628906 230.414062 170.082031 230.015625 172.382812 C 229.621094 174.679688 229.066406 176.976562 228.589844 179.273438 L 225.578125 193.058594 C 224.707031 199.792969 223.914062 206.527344 222.886719 213.261719 C 222.332031 217.777344 221.699219 222.292969 220.824219 226.730469 L 217.894531 240.039062 L 214.488281 257.628906 C 212.507812 263.015625 210.527344 268.480469 208.230469 273.710938 C 205.535156 282.582031 201.8125 291.140625 197.453125 299.457031 C 200.226562 295.417969 202.84375 291.21875 205.296875 286.941406 " fill-opacity="1" fill-rule="nonzero"/><g clip-path="url(#0d15892116)"><path fill="#1d1d1d" d="M 194.601562 302.785156 C 191.59375 307.378906 188.660156 311.894531 185.730469 316.570312 L 179.945312 326.15625 C 178.125 329.5625 176.382812 333.050781 174.636719 336.535156 L 169.804688 344.617188 L 165.605469 352.140625 L 163.46875 357.371094 L 160.21875 361.964844 C 157.84375 366.246094 155.542969 370.523438 153.246094 374.800781 C 156.734375 369.492188 160.21875 364.183594 163.703125 358.957031 C 165.921875 354.914062 168.140625 350.953125 170.4375 346.992188 C 173.371094 341.527344 176.300781 336.140625 179.234375 330.75 L 184.699219 319.976562 L 191.59375 310.550781 C 194.683594 305.082031 197.851562 299.617188 201.019531 294.148438 L 195.078125 302.070312 " fill-opacity="1" fill-rule="nonzero"/></g><g clip-path="url(#05ab9793bc)"><path fill="#1d1d1d" d="M 48.433594 248.832031 C 45.421875 240.199219 43.125 231.324219 41.777344 222.292969 C 40.667969 216.191406 40.195312 210.011719 40.113281 203.753906 C 39.71875 197.335938 39.875 190.761719 40.195312 184.265625 C 40.828125 178.957031 41.539062 173.726562 42.648438 168.5 C 43.519531 163.746094 44.789062 159.152344 46.375 154.636719 C 47.007812 151.546875 47.878906 148.535156 48.828125 145.445312 C 50.492188 142.75 52.15625 140.058594 53.980469 137.441406 C 57.859375 130.234375 62.375 123.339844 67.210938 116.6875 C 60.238281 124.6875 53.660156 133.246094 48.195312 142.671875 C 44.867188 149.800781 42.175781 157.25 40.511719 165.011719 C 39.480469 170.242188 38.925781 175.472656 38.449219 180.699219 C 37.976562 185.929688 37.660156 191.15625 37.5 196.386719 C 37.578125 203.199219 38.292969 210.09375 39.558594 216.746094 C 39.796875 223.324219 40.589844 229.820312 41.777344 236.394531 C 45.027344 246.695312 49.304688 256.519531 54.136719 266.023438 C 52.234375 260.796875 50.492188 255.488281 48.910156 250.101562 " fill-opacity="1" fill-rule="nonzero"/></g><g clip-path="url(#2ed8194c82)"><path fill="#1d1d1d" d="M 81.628906 361.175781 C 81.230469 357.925781 80.675781 354.597656 80.203125 351.351562 C 79.648438 348.101562 79.171875 344.773438 78.539062 341.527344 C 78.0625 339.308594 77.667969 337.089844 77.113281 334.871094 C 76.636719 332.652344 76.160156 330.433594 75.605469 328.214844 C 74.894531 326 74.261719 323.699219 73.546875 321.480469 C 72.835938 319.265625 72.121094 316.964844 71.328125 314.75 C 70.378906 311.023438 69.347656 307.378906 68.320312 303.65625 C 67.289062 300.328125 66.257812 297 65.070312 293.675781 L 63.644531 290.585938 L 62.140625 287.496094 L 60.554688 280.839844 C 58.496094 275.292969 56.277344 269.828125 53.980469 264.359375 C 56.355469 271.648438 58.496094 279.019531 60.476562 286.464844 C 61.425781 289.078125 62.375 291.695312 63.167969 294.308594 C 64.039062 296.921875 64.910156 299.535156 65.703125 302.230469 C 68.082031 309.28125 70.378906 316.410156 72.359375 323.621094 C 73.152344 325.917969 73.863281 328.296875 74.578125 330.59375 L 76.636719 337.644531 L 77.507812 344.695312 L 78.222656 351.746094 C 79.015625 355.46875 79.804688 359.191406 80.441406 362.996094 C 80.835938 364.898438 81.152344 366.71875 81.46875 368.621094 L 81.945312 371.472656 C 82.105469 372.425781 82.339844 373.375 82.183594 374.246094 C 82.421875 373.296875 82.261719 372.265625 82.261719 371.316406 L 82.105469 368.304688 C 82.023438 366.324219 81.867188 364.265625 81.707031 362.28125 " fill-opacity="1" fill-rule="nonzero"/></g><path fill="#1d1d1d" d="M 126.867188 253.113281 L 128.371094 247.960938 C 128.6875 246.773438 129.003906 245.585938 129.320312 244.398438 C 129.558594 243.128906 129.71875 241.863281 129.875 240.59375 C 130.035156 239.5625 130.191406 238.535156 130.191406 237.503906 C 130.191406 236.554688 130.191406 235.601562 130.113281 234.652344 C 130.035156 234.019531 129.875 233.464844 129.71875 232.828125 C 129.71875 232.195312 129.636719 231.640625 129.558594 231.007812 C 129.242188 229.421875 128.6875 227.917969 128.054688 226.414062 C 128.6875 228.394531 129.082031 230.453125 129.242188 232.433594 C 129.480469 233.859375 129.636719 235.363281 129.558594 236.871094 C 129.636719 238.851562 129.402344 240.832031 129.003906 242.8125 C 128.847656 244.078125 128.609375 245.425781 128.292969 246.695312 L 126.945312 250.257812 L 125.519531 256.28125 L 126.628906 253.269531 " fill-opacity="1" fill-rule="nonzero"/><path fill="#1d1d1d" d="M 271.371094 54.574219 C 269.3125 59.011719 266.933594 63.367188 264.160156 67.410156 C 263.289062 68.835938 262.339844 70.261719 261.390625 71.6875 C 260.4375 73.113281 259.488281 74.460938 258.539062 75.886719 C 256.714844 78.894531 254.8125 81.90625 252.992188 84.917969 C 251.328125 87.214844 249.664062 89.589844 248 91.96875 C 246.574219 94.1875 245.148438 96.40625 243.878906 98.621094 L 242.851562 101 L 241.980469 103.375 L 240.554688 105.515625 L 239.285156 107.734375 C 237.382812 111.773438 236.117188 116.132812 235.085938 120.488281 C 236.828125 114.941406 239.285156 109.714844 242.296875 104.882812 C 243.246094 103.058594 244.199219 101.238281 245.226562 99.414062 L 246.8125 96.722656 L 248.476562 94.105469 C 251.328125 89.355469 254.496094 84.679688 257.585938 80.003906 C 259.488281 76.835938 261.308594 73.746094 263.132812 70.5 C 265.269531 67.726562 267.410156 64.875 269.3125 61.863281 C 271.847656 56.632812 273.984375 51.246094 275.253906 45.621094 L 273.589844 49.820312 C 273.351562 50.535156 272.957031 51.167969 272.640625 51.878906 L 271.609375 53.859375 " fill-opacity="1" fill-rule="nonzero"/></svg>