<svg xmlns="http://www.w3.org/2000/svg" xmlns:xlink="http://www.w3.org/1999/xlink" width="500" zoomAndPan="magnify" viewBox="0 0 375 374.999991" height="500" preserveAspectRatio="xMidYMid meet" version="1.0"><defs><clipPath id="d4cd7cc41f"><path d="M 204 86 L 266.726562 86 L 266.726562 187 L 204 187 Z M 204 86 " clip-rule="nonzero"/></clipPath><clipPath id="397c58246c"><path d="M 210 348 L 266.726562 348 L 266.726562 363 L 210 363 Z M 210 348 " clip-rule="nonzero"/></clipPath><clipPath id="efe932c0ee"><path d="M 190 352 L 258 352 L 258 365.421875 L 190 365.421875 Z M 190 352 " clip-rule="nonzero"/></clipPath><clipPath id="15706c1dca"><path d="M 108.476562 356 L 118 356 L 118 361 L 108.476562 361 Z M 108.476562 356 " clip-rule="nonzero"/></clipPath></defs><path fill="#000000" d="M 176.101562 36.917969 C 176.25 35.742188 174.707031 34.933594 174.78125 33.460938 C 174.855469 32.140625 176.101562 31.109375 177.058594 30.523438 C 171.914062 29.347656 170.074219 22.289062 172.722656 17.804688 C 175.367188 13.320312 180.808594 11.117188 186.101562 10.453125 C 190.070312 9.941406 194.1875 10.085938 197.789062 11.851562 C 201.390625 13.46875 204.328125 16.851562 204.625 20.746094 C 204.992188 24.566406 202.859375 28.609375 204.550781 32.066406 C 205.433594 33.828125 207.125 35.007812 208.59375 36.328125 C 217.488281 43.679688 221.675781 55.957031 219.324219 67.128906 C 218.8125 66.097656 217.195312 65.953125 216.164062 66.46875 C 215.136719 67.054688 214.472656 68.085938 213.886719 69.113281 C 210.871094 74.332031 207.933594 79.550781 204.917969 84.769531 C 204.109375 82.492188 203.226562 80.359375 202.273438 78.226562 C 201.242188 75.949219 199.183594 73.375 196.683594 73.964844 C 194.039062 74.625 193.746094 78.226562 194.113281 80.875 C 192.128906 78.300781 189.921875 75.875 187.351562 73.890625 C 186.542969 73.304688 185.660156 72.714844 184.703125 72.863281 C 183.160156 73.15625 182.71875 74.992188 182.570312 76.464844 C 182.132812 81.316406 181.617188 86.09375 181.175781 90.871094 C 179.042969 77.714844 174.707031 71.613281 172.355469 68.964844 C 171.324219 67.863281 169.195312 65.511719 167.648438 66.027344 C 166.328125 66.46875 165.8125 69.039062 166.105469 72.496094 C 165.152344 70.878906 163.828125 68.230469 163.167969 64.777344 C 162.359375 60.21875 163.238281 56.617188 164.195312 53.089844 C 165.886719 46.695312 167.210938 41.476562 171.472656 39.636719 C 173.238281 39.050781 175.882812 38.386719 176.101562 36.917969 Z M 176.101562 36.917969 " fill-opacity="1" fill-rule="nonzero"/><path fill="#c62328" d="M 163.167969 68.378906 C 162.652344 68.378906 162.136719 68.746094 161.84375 69.1875 C 161.550781 69.628906 161.476562 70.070312 161.476562 70.363281 C 161.402344 71.171875 161.402344 71.980469 161.402344 72.714844 C 161.476562 74.257812 161.769531 75.730469 162.136719 77.199219 C 162.652344 79.183594 163.386719 81.09375 163.976562 83.078125 C 164.855469 85.0625 165.960938 87.046875 167.578125 88.445312 C 168.164062 89.035156 168.898438 89.621094 169.707031 90.0625 C 170.148438 90.210938 170.515625 90.503906 170.957031 90.578125 C 171.253906 90.652344 171.398438 90.652344 171.691406 90.722656 C 171.839844 90.722656 171.988281 90.722656 172.207031 90.652344 C 172.355469 90.578125 172.574219 90.355469 172.574219 90.210938 C 172.648438 89.84375 172.574219 89.695312 172.574219 89.546875 C 172.5 89.402344 172.5 89.105469 172.429688 88.960938 C 172.28125 88.519531 172.0625 88.152344 171.914062 87.855469 C 171.472656 87.195312 171.03125 86.535156 170.515625 85.871094 C 169.78125 85.210938 169.121094 84.328125 168.53125 83.445312 C 168.164062 82.492188 167.945312 81.460938 167.722656 80.507812 C 166.914062 78.007812 166.695312 75.289062 166.328125 72.714844 C 166.402344 76.167969 166.472656 79.625 167.722656 83.007812 C 168.238281 84.183594 168.972656 85.359375 169.78125 86.386719 C 170.589844 87.417969 171.324219 88.371094 171.621094 89.402344 C 171.691406 89.546875 171.691406 89.769531 171.765625 89.914062 C 171.765625 89.988281 171.765625 89.988281 171.765625 89.988281 L 171.839844 89.914062 C 171.914062 89.914062 171.765625 89.914062 171.546875 89.84375 C 171.398438 89.84375 171.179688 89.769531 171.03125 89.695312 C 170.222656 89.402344 169.488281 89.105469 168.898438 88.59375 C 167.578125 87.636719 166.621094 86.238281 165.8125 84.769531 C 164.785156 82.859375 163.976562 80.800781 163.09375 78.816406 C 162.652344 76.757812 162.285156 74.699219 162.285156 72.566406 C 162.210938 71.6875 162.210938 70.804688 162.285156 70.070312 C 162.359375 69.703125 162.429688 69.261719 162.726562 69.113281 C 163.019531 68.964844 163.3125 68.820312 163.535156 69.1875 C 164.414062 70.582031 165.222656 72.199219 166.105469 73.671875 L 165.078125 71.171875 L 164.5625 69.847656 L 164.269531 69.261719 C 164.195312 69.113281 164.121094 68.820312 163.828125 68.597656 " fill-opacity="1" fill-rule="nonzero"/><path fill="#c62328" d="M 220.355469 71.6875 L 220.207031 78.890625 C 220.207031 79.699219 220.132812 80.433594 219.914062 81.242188 C 219.765625 82.050781 219.472656 82.710938 219.179688 83.519531 L 218.296875 85.945312 L 217.855469 87.121094 C 217.855469 87.195312 217.78125 87.195312 217.78125 87.269531 C 217.78125 87.269531 217.78125 87.269531 217.707031 87.269531 C 217.632812 87.195312 217.414062 86.976562 217.414062 86.828125 C 217.046875 85.503906 217.046875 84.183594 217.265625 82.785156 C 217.414062 81.609375 217.707031 80.285156 217.855469 79.035156 L 218.003906 76.609375 L 218.8125 74.257812 L 220.058594 67.9375 L 217.78125 75.949219 C 217.414062 77.933594 216.972656 79.917969 216.605469 81.902344 C 216.457031 83.300781 216.3125 84.695312 216.679688 86.019531 C 216.753906 86.386719 216.824219 86.679688 216.972656 87.046875 C 217.046875 87.195312 217.121094 87.417969 217.414062 87.5625 C 217.488281 87.636719 217.78125 87.636719 217.929688 87.636719 C 218.074219 87.5625 218.222656 87.34375 218.296875 87.269531 L 219.105469 85.359375 C 219.621094 83.742188 220.355469 81.976562 220.429688 80.285156 C 220.796875 78.667969 220.796875 76.90625 220.941406 75.214844 L 220.867188 71.097656 C 220.867188 70.4375 220.867188 69.703125 220.796875 69.039062 C 220.722656 68.671875 220.648438 68.378906 220.429688 68.011719 C 220.28125 67.644531 219.914062 67.421875 219.546875 67.421875 C 219.914062 67.496094 220.132812 67.789062 220.355469 68.085938 C 220.429688 68.453125 220.5 68.746094 220.5 69.113281 C 220.5 69.773438 220.429688 70.582031 220.355469 71.246094 " fill-opacity="1" fill-rule="nonzero"/><path fill="#c62328" d="M 218.441406 88.371094 C 219.398438 86.976562 220.429688 85.503906 221.164062 83.960938 C 221.675781 82.859375 222.046875 81.683594 222.339844 80.582031 C 222.484375 79.402344 222.484375 78.082031 222.414062 76.832031 C 222.414062 75.875 222.484375 74.847656 222.558594 73.890625 C 222.632812 73.007812 222.855469 72.128906 222.925781 71.246094 C 222.925781 70.65625 222.925781 70.070312 222.925781 69.480469 C 223 68.894531 223.222656 68.378906 223.222656 67.644531 C 223.148438 66.835938 222.484375 66.027344 221.605469 65.878906 C 220.648438 65.730469 219.765625 66.90625 220.429688 67.714844 C 220.28125 67.421875 220.132812 67.128906 220.28125 66.835938 C 220.355469 66.539062 220.574219 66.320312 220.722656 66.246094 C 221.164062 65.878906 221.75 66.097656 222.117188 66.394531 C 222.484375 66.6875 222.707031 67.203125 222.707031 67.570312 C 222.78125 68.011719 222.707031 68.523438 222.632812 68.964844 C 222.558594 70.363281 222.191406 71.757812 222.046875 73.230469 C 221.898438 75.214844 222.046875 77.125 221.898438 79.035156 C 221.898438 80.210938 221.605469 81.535156 221.308594 82.785156 C 220.796875 83.886719 220.058594 84.917969 219.324219 85.871094 C 218.738281 87.046875 218.003906 88.226562 217.195312 89.328125 L 217.265625 89.328125 C 216.753906 89.179688 216.457031 88.296875 216.824219 87.855469 C 216.386719 88.296875 216.457031 89.253906 217.195312 89.621094 L 217.265625 89.695312 L 217.339844 89.621094 L 218.148438 88.664062 " fill-opacity="1" fill-rule="nonzero"/><path fill="#c62328" d="M 169.78125 92.636719 C 169.855469 93.957031 170.074219 95.207031 170.222656 96.53125 C 170.371094 97.414062 170.515625 98.296875 170.664062 99.175781 C 170.957031 100.058594 171.105469 101.015625 171.398438 101.824219 C 171.546875 102.632812 171.765625 103.292969 171.914062 104.101562 C 172.0625 104.765625 172.28125 105.425781 172.429688 106.085938 L 172.941406 107.261719 L 173.238281 108.585938 C 173.605469 109.6875 173.972656 110.863281 174.414062 111.96875 C 174.046875 110.496094 173.679688 109.027344 173.382812 107.558594 C 173.015625 106.527344 172.796875 105.5 172.5 104.324219 C 172.0625 102.925781 171.691406 101.457031 171.324219 99.984375 C 171.03125 99.03125 170.8125 98.074219 170.589844 97.191406 C 170.515625 96.238281 170.445312 95.28125 170.445312 94.398438 C 170.148438 92.929688 170.003906 91.386719 169.855469 89.914062 C 169.855469 90.722656 169.855469 91.460938 169.855469 92.339844 " fill-opacity="1" fill-rule="nonzero"/><path fill="#c62328" d="M 218.664062 90.578125 C 218.371094 92.046875 218.148438 93.515625 217.78125 94.988281 L 217.195312 98 L 216.753906 101.234375 L 216.164062 103.734375 L 215.648438 106.085938 L 215.503906 107.628906 L 214.914062 109.101562 C 214.546875 110.425781 214.179688 111.671875 213.886719 112.996094 C 214.472656 111.378906 215.136719 109.6875 215.722656 108.070312 C 216.089844 106.894531 216.3125 105.574219 216.605469 104.324219 C 216.972656 102.707031 217.339844 100.941406 217.5625 99.324219 L 218.003906 96.015625 L 218.882812 92.929688 C 219.179688 91.164062 219.324219 89.472656 219.472656 87.710938 L 218.738281 90.355469 " fill-opacity="1" fill-rule="nonzero"/><path fill="#c62328" d="M 126.632812 167.757812 C 125.457031 164.378906 124.796875 160.847656 124.207031 157.320312 C 123.914062 155.484375 123.691406 153.792969 123.621094 151.953125 C 123.472656 150.191406 123.472656 148.5 123.691406 146.882812 C 124.0625 144.605469 124.941406 142.472656 126.265625 140.5625 C 127.515625 138.648438 129.28125 137.035156 131.117188 135.710938 C 132.074219 135.046875 133.101562 134.535156 134.277344 134.09375 C 135.527344 133.652344 136.777344 133.136719 138.027344 132.621094 L 145.378906 129.683594 C 149.421875 128.359375 153.609375 127.035156 157.507812 125.199219 C 161.035156 123.582031 164.488281 121.449219 167.722656 119.171875 C 169.5625 117.332031 171.253906 115.570312 172.871094 113.4375 C 174.855469 111.820312 176.691406 110.054688 178.308594 108 C 180.074219 105.132812 181.394531 102.042969 182.277344 98.957031 C 183.234375 95.871094 183.894531 92.5625 184.117188 89.253906 C 183.378906 93.515625 182.058594 97.558594 180.292969 101.382812 C 178.527344 105.203125 176.03125 108.585938 173.015625 111.304688 C 169.046875 115.789062 164.046875 119.316406 158.683594 122.113281 C 151.480469 126.082031 143.464844 128.578125 135.601562 131.519531 C 134.351562 132.035156 133.027344 132.476562 131.777344 133.136719 C 130.53125 133.800781 129.5 134.679688 128.398438 135.636719 C 126.414062 137.546875 124.941406 139.898438 123.988281 142.324219 C 123.398438 143.429688 122.8125 144.679688 122.445312 145.855469 C 122.078125 147.03125 121.929688 148.425781 121.855469 149.75 C 121.707031 152.324219 121.929688 155.042969 122.148438 157.613281 C 123.839844 165.996094 127.222656 173.933594 132 181.0625 C 129.941406 177.09375 128.398438 173.050781 127.222656 168.789062 " fill-opacity="1" fill-rule="nonzero"/><g clip-path="url(#d4cd7cc41f)"><path fill="#c62328" d="M 260.710938 173.34375 C 262.253906 169.742188 263.648438 166.066406 264.753906 162.246094 C 265.929688 158.421875 266.515625 154.378906 266.222656 150.265625 C 266.148438 148.867188 265.929688 147.617188 265.707031 146.222656 C 265.5625 144.824219 265.195312 143.429688 264.753906 142.105469 C 263.796875 139.3125 262.179688 136.738281 259.753906 134.828125 C 257.179688 132.917969 254.167969 132.183594 251.300781 131.59375 C 248.433594 131.152344 245.640625 131.003906 242.773438 130.636719 C 238.214844 129.757812 233.878906 128.578125 229.984375 126.375 C 226.382812 124.464844 223.148438 121.964844 220.429688 119.023438 C 218.371094 117.261719 216.53125 115.421875 214.769531 113.289062 C 213.519531 110.863281 212.5625 108.4375 211.679688 105.941406 C 210.136719 102.851562 208.8125 99.617188 207.636719 96.457031 C 206.386719 93.222656 205.433594 89.988281 204.917969 86.609375 C 205.210938 91.019531 206.242188 95.429688 207.5625 99.765625 C 208.886719 104.101562 210.429688 108.4375 212.5625 112.554688 C 214.328125 115.421875 216.386719 118.140625 218.738281 120.714844 C 221.164062 123.214844 223.808594 125.492188 226.75 127.257812 C 230.792969 129.609375 235.351562 131.152344 239.761719 131.960938 C 244.242188 132.84375 248.800781 132.992188 253.066406 134.09375 C 255.785156 134.679688 258.503906 135.929688 260.414062 137.988281 C 262.472656 140.046875 263.722656 142.765625 264.386719 145.558594 C 264.679688 148.351562 264.753906 151.074219 264.386719 153.867188 C 264.015625 156.511719 263.355469 159.230469 262.328125 161.730469 C 261.8125 163.863281 261.152344 166.066406 260.488281 168.125 C 259.753906 170.257812 259.09375 172.390625 258.285156 174.449219 C 256.667969 178.5625 254.753906 182.753906 252.625 186.648438 C 255.34375 182.828125 257.917969 178.785156 260.195312 174.449219 " fill-opacity="1" fill-rule="nonzero"/></g><path fill="#c62328" d="M 170.664062 325.503906 C 167.945312 316.023438 165.371094 306.390625 163.09375 296.835938 C 161.402344 290.292969 160.003906 283.679688 158.757812 277.0625 C 157.066406 270.226562 155.742188 263.316406 154.34375 256.40625 C 153.609375 250.675781 152.949219 245.015625 151.773438 239.28125 C 150.742188 234.0625 149.273438 229.0625 147.730469 224.066406 C 146.332031 220.976562 144.789062 217.816406 143.320312 214.730469 L 141.113281 204.734375 L 132.21875 179.59375 L 140.746094 213.113281 C 143.464844 220.976562 146.1875 228.84375 148.023438 236.855469 C 150.890625 247.585938 152.289062 258.761719 154.34375 269.785156 C 155.960938 276.988281 157.875 284.046875 160.078125 291.03125 C 161.035156 298.011719 162.285156 305.070312 163.605469 311.980469 C 167.136719 322.929688 171.03125 333.738281 175.074219 344.6875 L 171.105469 327.046875 " fill-opacity="1" fill-rule="nonzero"/><path fill="#c62328" d="M 237.628906 217.523438 C 238.953125 215.683594 240.273438 213.773438 241.449219 211.789062 C 242.257812 210.464844 243.066406 209.144531 243.730469 207.746094 C 244.464844 206.277344 245.050781 204.804688 245.714844 203.335938 C 246.300781 202.234375 246.890625 200.984375 247.40625 199.808594 C 247.847656 198.707031 248.359375 197.675781 248.800781 196.5 C 248.949219 195.691406 249.167969 195.03125 249.390625 194.222656 C 249.757812 193.558594 250.125 192.824219 250.417969 192.164062 C 251.152344 190.253906 251.667969 188.339844 252.257812 186.355469 C 251.300781 188.78125 250.199219 191.207031 249.167969 193.632812 C 248.582031 195.472656 247.847656 197.160156 247.039062 198.925781 C 246.082031 201.277344 245.050781 203.628906 243.949219 205.910156 C 243.214844 207.453125 242.554688 208.921875 241.816406 210.464844 C 240.863281 211.789062 239.980469 213.039062 238.878906 214.363281 C 237.554688 216.640625 236.160156 218.773438 234.613281 220.902344 C 235.496094 219.875 236.453125 218.847656 237.335938 217.816406 " fill-opacity="1" fill-rule="nonzero"/><path fill="#c62328" d="M 224.25 282.207031 C 225.941406 277.796875 227.632812 273.386719 229.25 268.976562 C 230.203125 265.964844 231.234375 262.875 232.117188 259.714844 C 232.484375 258.097656 232.851562 256.40625 233.144531 254.789062 C 233.511719 253.171875 233.878906 251.484375 234.171875 249.867188 C 234.910156 247.292969 235.570312 244.574219 236.304688 242 C 236.820312 239.574219 237.480469 237.148438 237.921875 234.722656 C 238.070312 233.105469 238.214844 231.5625 238.289062 229.871094 C 238.804688 228.328125 239.246094 226.785156 239.761719 225.316406 C 240.570312 221.199219 241.15625 217.007812 241.816406 212.890625 C 240.570312 218.183594 239.171875 223.402344 237.628906 228.695312 C 236.820312 232.589844 236.160156 236.414062 235.128906 240.308594 C 234.101562 245.527344 232.925781 250.675781 231.601562 255.820312 C 230.867188 259.199219 230.058594 262.582031 229.320312 265.964844 C 228 269.050781 226.675781 272.066406 225.351562 275.226562 C 223.734375 280.445312 221.972656 285.515625 220.132812 290.589844 C 221.382812 288.015625 222.707031 285.515625 223.957031 282.871094 " fill-opacity="1" fill-rule="nonzero"/><path fill="#c62328" d="M 208.667969 340.5 C 209.253906 336.53125 210.0625 332.5625 210.945312 328.664062 C 211.238281 327.269531 211.460938 326.019531 211.828125 324.621094 C 212.121094 323.226562 212.414062 321.976562 212.785156 320.578125 C 213.296875 317.710938 213.960938 314.992188 214.546875 312.125 C 215.28125 309.847656 215.945312 307.640625 216.679688 305.4375 C 217.265625 303.378906 218.003906 301.394531 218.664062 299.410156 L 219.472656 295.367188 L 221.308594 291.542969 L 224.910156 281.253906 C 222.925781 285.589844 221.015625 289.78125 219.03125 294.117188 C 218.003906 297.351562 216.824219 300.585938 215.871094 303.894531 C 214.621094 308.304688 213.371094 312.789062 212.34375 317.199219 C 211.753906 320.136719 211.3125 323.078125 210.871094 326.019531 L 209.621094 330.136719 L 208.445312 334.25 L 208.003906 337.707031 L 207.636719 341.234375 C 207.5625 342.410156 207.492188 343.585938 207.125 344.6875 C 206.828125 345.792969 206.316406 346.820312 205.359375 347.628906 C 206.386719 347.042969 207.125 345.792969 207.5625 344.6875 C 208.003906 343.511719 208.300781 342.261719 208.519531 341.085938 " fill-opacity="1" fill-rule="nonzero"/><path fill="#c62328" d="M 210.871094 349.027344 C 210.726562 348.730469 210.578125 348.511719 210.429688 348.363281 C 210.359375 348.21875 210.136719 347.996094 210.0625 347.921875 C 209.917969 347.777344 209.769531 347.628906 209.621094 347.484375 C 209.550781 347.410156 209.328125 347.1875 209.253906 347.113281 C 209.179688 347.042969 208.960938 346.96875 208.886719 346.820312 L 208.59375 346.675781 C 208.519531 346.601562 208.445312 346.527344 208.300781 346.527344 C 208.152344 346.378906 207.859375 346.234375 207.5625 346.085938 C 207.859375 346.234375 208.078125 346.453125 208.371094 346.675781 C 208.519531 346.820312 208.8125 346.96875 208.960938 347.113281 C 209.253906 347.261719 209.476562 347.554688 209.695312 347.777344 C 209.84375 347.921875 210.0625 348.070312 210.136719 348.21875 C 210.210938 348.363281 210.429688 348.585938 210.503906 348.730469 C 210.652344 349.027344 210.871094 349.246094 211.019531 349.613281 C 211.09375 349.394531 210.945312 349.171875 210.871094 349.027344 " fill-opacity="1" fill-rule="nonzero"/><g clip-path="url(#397c58246c)"><path fill="#c62328" d="M 264.605469 358.433594 C 263.871094 357.773438 262.988281 357.332031 262.179688 356.890625 L 259.679688 355.566406 C 257.988281 354.6875 256.371094 353.949219 254.609375 353.214844 C 252.183594 352.332031 249.757812 351.671875 247.183594 351.304688 C 244.539062 351.15625 241.890625 351.230469 239.320312 351.378906 C 237.1875 351.378906 235.054688 351.453125 232.925781 351.378906 C 230.9375 351.378906 229.101562 351.304688 227.191406 351.230469 C 225.941406 351.304688 224.691406 351.304688 223.367188 351.304688 C 222.117188 351.011719 220.867188 350.714844 219.765625 350.421875 C 216.605469 349.980469 213.296875 349.320312 210.210938 348.4375 C 214.179688 349.835938 218.371094 350.9375 222.558594 351.820312 C 225.648438 352.1875 228.734375 352.40625 231.894531 352.40625 C 236.085938 352.40625 240.203125 351.894531 244.316406 352.039062 C 246.964844 351.964844 249.757812 352.1875 252.402344 352.921875 C 254.828125 353.878906 257.109375 355.199219 259.3125 356.449219 L 262.253906 357.773438 C 263.207031 358.214844 264.015625 358.730469 264.753906 359.390625 C 265.121094 359.757812 265.339844 360.199219 265.488281 360.566406 C 265.632812 360.933594 265.339844 361.449219 265.046875 361.742188 C 264.3125 362.257812 262.839844 361.816406 262.621094 360.859375 C 262.695312 361.890625 264.238281 362.773438 265.339844 361.964844 C 265.855469 361.59375 266.148438 360.933594 266.074219 360.199219 C 266.003906 359.609375 265.632812 359.023438 265.265625 358.582031 " fill-opacity="1" fill-rule="nonzero"/></g><path fill="#c62328" d="M 260.34375 363.433594 C 260.929688 363.582031 261.738281 363.800781 262.472656 363.507812 C 262.839844 363.433594 263.28125 363.066406 263.28125 362.550781 C 263.355469 362.109375 262.988281 361.667969 262.839844 361.449219 C 262.105469 360.789062 261.445312 360.273438 260.636719 359.609375 C 259.828125 359.097656 259.019531 358.582031 258.136719 358.066406 C 257.546875 357.625 256.8125 357.183594 256.152344 356.746094 C 255.5625 356.375 254.902344 355.9375 254.316406 355.640625 L 252.992188 355.128906 L 251.816406 354.320312 C 251.300781 354.023438 250.785156 353.730469 250.125 353.511719 C 249.535156 353.363281 248.875 353.140625 248.140625 353.4375 C 249.023438 353.289062 249.832031 353.511719 250.417969 353.949219 C 251.152344 354.320312 251.742188 354.757812 252.476562 355.128906 C 253.433594 355.640625 254.535156 356.230469 255.492188 356.890625 C 256.8125 357.699219 258.136719 358.507812 259.386719 359.390625 C 260.269531 359.90625 261.078125 360.492188 261.886719 361.15625 C 262.253906 361.523438 262.621094 361.816406 262.769531 362.257812 C 262.839844 362.402344 262.839844 362.699219 262.695312 362.84375 C 262.621094 362.992188 262.398438 363.140625 262.179688 363.210938 C 261.445312 363.507812 260.636719 363.285156 259.972656 363.140625 C 259.164062 362.992188 258.429688 362.699219 257.769531 362.332031 C 258.503906 362.773438 259.164062 363.210938 259.972656 363.433594 " fill-opacity="1" fill-rule="nonzero"/><path fill="#c62328" d="M 258.210938 361.890625 C 258.0625 361.007812 257.402344 360.417969 256.667969 360.050781 C 255.929688 359.609375 255.269531 359.464844 254.535156 359.097656 C 253.578125 358.730469 252.476562 358.433594 251.519531 358.140625 C 250.492188 357.847656 249.390625 357.699219 248.359375 357.480469 C 247.476562 357.183594 246.667969 357.039062 245.789062 356.890625 C 244.980469 356.746094 244.171875 356.523438 243.363281 356.449219 L 241.746094 356.375 C 241.230469 356.230469 240.714844 356.082031 240.203125 355.9375 C 238.878906 355.789062 237.480469 355.566406 236.160156 355.496094 C 237.921875 355.789062 239.6875 356.082031 241.378906 356.523438 C 242.625 356.671875 243.949219 356.964844 245.199219 357.113281 C 246.890625 357.40625 248.582031 357.699219 250.273438 358.140625 C 251.300781 358.433594 252.476562 358.582031 253.578125 358.949219 C 254.535156 359.390625 255.636719 359.757812 256.519531 360.347656 C 257.253906 360.714844 257.917969 361.375 257.988281 362.183594 C 257.988281 362.625 257.84375 362.992188 257.476562 363.210938 C 257.109375 363.507812 256.59375 363.582031 256.300781 363.210938 C 257.035156 363.875 258.429688 363.140625 258.355469 362.035156 " fill-opacity="1" fill-rule="nonzero"/><path fill="#c62328" d="M 248.433594 356.890625 C 248.285156 356.597656 248.066406 356.375 247.847656 356.230469 C 247.699219 356.082031 247.476562 356.007812 247.332031 355.863281 C 247.183594 355.789062 246.890625 355.714844 246.742188 355.566406 C 246.597656 355.496094 246.375 355.496094 246.230469 355.496094 C 246.082031 355.496094 245.859375 355.496094 245.714844 355.566406 C 245.640625 355.566406 245.566406 355.640625 245.421875 355.714844 C 245.347656 355.714844 245.273438 355.789062 245.125 355.789062 C 244.832031 355.9375 244.683594 356.15625 244.613281 356.375 C 244.757812 356.007812 245.050781 355.863281 245.421875 355.714844 C 245.714844 355.640625 245.859375 355.566406 246.15625 355.566406 C 246.523438 355.566406 246.890625 355.566406 247.109375 355.714844 C 247.257812 355.789062 247.550781 355.863281 247.699219 356.082031 C 247.847656 356.230469 247.992188 356.449219 248.140625 356.597656 C 248.433594 356.890625 248.582031 357.113281 248.875 357.40625 C 248.726562 357.257812 248.65625 357.039062 248.433594 356.890625 " fill-opacity="1" fill-rule="nonzero"/><g clip-path="url(#efe932c0ee)"><path fill="#c62328" d="M 249.242188 362.625 L 242.847656 362.183594 C 240.714844 362.109375 238.585938 361.816406 236.378906 361.816406 C 234.835938 361.816406 233.363281 362.109375 231.96875 362.402344 C 230.570312 362.773438 229.101562 363.066406 227.707031 363.285156 C 224.839844 363.875 221.824219 363.949219 218.8125 364.242188 C 216.3125 364.242188 213.960938 364.167969 211.460938 364.09375 C 209.253906 364.019531 207.050781 363.800781 204.84375 363.582031 C 203.449219 363.582031 201.902344 363.507812 200.507812 363.285156 C 199.183594 362.773438 197.640625 362.332031 196.613281 361.449219 C 195.066406 360.566406 194.40625 358.800781 193.523438 357.113281 L 190.878906 352.1875 L 193.746094 358.875 C 194.1875 359.980469 194.773438 361.15625 195.875 361.964844 C 196.90625 362.84375 198.15625 363.285156 199.40625 363.582031 C 202.933594 364.460938 206.609375 364.757812 210.210938 364.976562 C 212.636719 365.050781 215.0625 364.976562 217.488281 364.902344 C 219.914062 364.828125 222.265625 364.757812 224.765625 364.535156 C 226.382812 364.390625 227.851562 364.09375 229.46875 363.652344 C 230.9375 363.210938 232.484375 362.699219 233.953125 362.332031 C 237.039062 362.035156 239.980469 362.699219 242.996094 362.992188 L 257.769531 363.140625 L 250.050781 362.109375 " fill-opacity="1" fill-rule="nonzero"/></g><path fill="#c62328" d="M 174.632812 347.261719 C 174.046875 346.96875 173.308594 346.820312 172.648438 346.601562 C 172.207031 346.453125 171.839844 346.160156 171.691406 345.792969 C 171.398438 345.425781 171.324219 344.910156 171.324219 344.46875 C 171.324219 344.101562 171.398438 343.660156 171.621094 343.367188 C 171.691406 343 171.914062 342.703125 171.988281 342.410156 L 172.132812 341.75 L 172.5 341.160156 C 172.796875 340.644531 173.015625 340.132812 173.382812 339.617188 C 172.941406 340.207031 172.5 340.941406 172.0625 341.601562 C 171.765625 342.117188 171.621094 342.632812 171.472656 343.144531 C 171.324219 343.808594 171.105469 344.6875 171.398438 345.425781 C 171.546875 345.9375 171.914062 346.304688 172.355469 346.527344 C 172.722656 346.820312 173.238281 347.042969 173.679688 347.1875 C 174.488281 347.335938 175.222656 347.554688 175.882812 348.070312 C 175.589844 347.777344 175.296875 347.554688 174.855469 347.410156 " fill-opacity="1" fill-rule="nonzero"/><path fill="#c62328" d="M 124.0625 356.523438 C 125.679688 356.007812 127.148438 355.347656 128.691406 354.980469 C 130.234375 354.539062 131.777344 354.539062 133.394531 354.613281 C 135.601562 354.6875 137.953125 354.980469 140.160156 355.054688 C 142.585938 354.980469 144.863281 354.90625 147.214844 354.613281 C 149.199219 354.539062 151.039062 354.464844 152.949219 354.246094 C 154.714844 354.097656 156.402344 353.804688 158.09375 353.4375 C 159.125 353.070312 160.226562 352.773438 161.402344 352.40625 C 162.578125 352.332031 163.605469 352.113281 164.785156 351.894531 C 166.179688 351.453125 167.648438 350.863281 168.828125 349.980469 C 169.414062 349.539062 170.074219 349.027344 170.515625 348.511719 C 171.03125 347.921875 171.398438 347.335938 171.765625 346.601562 C 170.8125 348.363281 169.121094 349.46875 167.429688 350.203125 C 165.664062 351.011719 163.902344 351.304688 161.992188 351.597656 C 159.34375 352.1875 156.550781 352.703125 153.832031 353.070312 C 150.230469 353.65625 146.480469 353.949219 142.730469 354.023438 C 140.304688 354.171875 137.878906 354.171875 135.453125 354.171875 C 133.175781 353.804688 130.75 353.511719 128.398438 353.878906 C 126.558594 354.464844 124.871094 355.347656 123.105469 356.007812 C 121.339844 356.671875 119.503906 357.183594 117.59375 356.890625 C 119.578125 357.480469 121.636719 357.183594 123.621094 356.597656 " fill-opacity="1" fill-rule="nonzero"/><g clip-path="url(#15706c1dca)"><path fill="#c62328" d="M 110.242188 360.417969 C 109.875 360.347656 109.507812 360.273438 109.210938 360.050781 C 108.84375 359.90625 108.625 359.609375 108.773438 359.464844 C 108.84375 359.316406 109.140625 359.097656 109.285156 359.023438 C 109.582031 358.875 109.726562 358.730469 110.019531 358.65625 C 110.460938 358.363281 110.976562 358.140625 111.417969 357.847656 C 111.859375 357.699219 112.300781 357.554688 112.667969 357.40625 C 113.035156 357.332031 113.476562 357.113281 113.84375 357.039062 C 114.136719 356.964844 114.359375 356.890625 114.652344 356.746094 C 114.945312 356.746094 115.167969 356.746094 115.460938 356.746094 C 116.046875 356.671875 116.855469 356.746094 117.296875 357.257812 C 117.152344 356.890625 116.710938 356.671875 116.269531 356.671875 C 115.828125 356.597656 115.386719 356.597656 114.871094 356.671875 C 114.285156 356.746094 113.550781 356.964844 112.886719 357.113281 C 112.003906 357.40625 111.195312 357.699219 110.386719 358.140625 C 109.875 358.433594 109.433594 358.730469 108.992188 359.097656 C 108.84375 359.242188 108.476562 359.464844 108.550781 359.683594 C 108.625 360.050781 108.917969 360.125 109.140625 360.273438 C 110.019531 360.640625 110.902344 360.714844 111.785156 360.566406 C 111.34375 360.640625 110.828125 360.566406 110.386719 360.492188 " fill-opacity="1" fill-rule="nonzero"/></g><path fill="#c62328" d="M 112.375 361.890625 C 111.933594 361.742188 111.636719 361.375 111.636719 361.007812 C 111.636719 360.640625 111.933594 360.492188 112.445312 360.347656 C 113.328125 359.90625 114.429688 359.683594 115.386719 359.464844 C 116.710938 359.097656 118.105469 358.949219 119.578125 358.800781 L 123.914062 357.921875 L 127.515625 357.480469 L 130.824219 357.039062 L 132.957031 356.523438 L 135.085938 356.523438 C 136.925781 356.375 138.835938 356.230469 140.671875 356.375 C 138.246094 356.082031 135.820312 356.007812 133.394531 356.082031 C 131.632812 356.230469 129.867188 356.523438 128.175781 356.746094 L 121.195312 357.847656 C 119.652344 358.214844 118.179688 358.433594 116.636719 358.800781 C 115.09375 358.949219 113.695312 359.242188 112.226562 359.757812 C 111.933594 359.90625 111.636719 360.050781 111.417969 360.273438 C 111.125 360.566406 111.125 360.933594 111.269531 361.300781 C 111.34375 361.667969 111.636719 361.890625 111.859375 362.109375 C 112.152344 362.257812 112.445312 362.402344 112.742188 362.476562 C 113.992188 362.550781 115.238281 362.476562 116.34375 362.183594 C 115.09375 362.257812 113.769531 362.257812 112.59375 362.035156 " fill-opacity="1" fill-rule="nonzero"/><path fill="#c62328" d="M 119.578125 362.773438 C 119.136719 362.773438 118.695312 362.773438 118.253906 362.773438 C 117.8125 362.773438 117.371094 362.773438 117.003906 362.699219 C 116.636719 362.625 116.417969 362.402344 116.269531 362.109375 C 116.195312 361.742188 116.269531 361.449219 116.5625 361.15625 C 117.152344 360.347656 118.546875 360.199219 119.722656 359.980469 C 120.972656 359.609375 122.222656 359.390625 123.472656 359.023438 C 124.5 358.875 125.53125 358.730469 126.558594 358.65625 L 129.425781 358.289062 L 131.265625 357.847656 C 131.851562 357.847656 132.515625 357.921875 133.101562 357.921875 C 133.910156 357.921875 134.71875 357.773438 135.527344 357.847656 C 136.335938 357.847656 137.144531 357.921875 137.953125 358.140625 C 136.996094 357.847656 135.894531 357.699219 134.867188 357.625 L 131.707031 357.625 L 127.148438 358.140625 C 125.089844 358.507812 123.105469 358.730469 121.121094 359.242188 C 120.53125 359.390625 119.796875 359.609375 119.136719 359.757812 C 118.546875 359.90625 117.8125 360.125 117.296875 360.417969 C 116.710938 360.566406 116.121094 361.007812 115.976562 361.742188 C 115.902344 362.109375 115.902344 362.402344 116.046875 362.773438 C 116.195312 363.140625 116.5625 363.285156 116.929688 363.359375 C 117.519531 363.433594 117.960938 363.359375 118.546875 363.359375 C 119.136719 363.359375 119.578125 363.285156 120.164062 363.285156 C 121.195312 363.210938 122.296875 362.992188 123.253906 362.84375 C 122.222656 362.917969 121.046875 362.917969 119.945312 362.917969 " fill-opacity="1" fill-rule="nonzero"/><path fill="#c62328" d="M 167.503906 362.699219 C 163.753906 363.359375 159.859375 363.210938 156.035156 362.84375 C 153.390625 362.550781 150.816406 362.257812 148.171875 361.890625 C 145.453125 361.742188 142.585938 361.523438 139.863281 361.597656 C 137.585938 361.523438 135.308594 361.597656 133.027344 361.890625 C 130.96875 362.257812 129.058594 362.773438 127 362.773438 C 126.414062 362.84375 125.679688 362.84375 125.015625 362.84375 C 124.429688 362.84375 123.691406 362.699219 123.179688 362.257812 C 123.03125 361.964844 122.738281 361.742188 122.738281 361.375 C 122.664062 361.007812 122.8125 360.789062 123.03125 360.566406 C 123.472656 360.125 124.0625 360.125 124.722656 360.125 L 135.085938 359.316406 L 128.25 359.242188 L 124.871094 359.242188 C 124.28125 359.242188 123.621094 359.242188 123.03125 359.609375 C 122.664062 359.757812 122.296875 360.050781 122.148438 360.492188 C 122.003906 360.859375 121.855469 361.375 122.003906 361.816406 C 122.148438 362.402344 122.589844 362.84375 123.03125 363.140625 C 123.472656 363.433594 123.914062 363.652344 124.355469 363.726562 C 125.238281 364.019531 126.117188 364.09375 127 364.09375 C 128.765625 364.09375 130.382812 363.726562 132.074219 363.507812 C 136.335938 362.550781 140.671875 362.550781 145.011719 362.917969 C 147.878906 362.992188 150.742188 363.285156 153.609375 363.359375 C 156.332031 363.875 159.125 364.316406 161.84375 364.460938 C 166.402344 364.167969 170.957031 363.140625 174.78125 360.714844 C 172.648438 361.742188 170.371094 362.332031 168.164062 362.699219 " fill-opacity="1" fill-rule="nonzero"/><path fill="#c62328" d="M 190.070312 345.644531 C 189.996094 347.921875 189.628906 350.054688 189.113281 352.1875 C 188.746094 353.65625 188.378906 355.128906 187.9375 356.597656 L 187.421875 358.949219 C 187.277344 359.757812 187.054688 360.492188 186.542969 361.007812 C 186.101562 361.449219 185.511719 361.59375 184.851562 361.890625 C 184.558594 361.964844 184.261719 362.035156 183.96875 362.183594 C 183.675781 362.257812 183.378906 362.332031 183.011719 362.476562 C 181.835938 362.773438 180.734375 362.84375 179.484375 362.917969 C 178.675781 362.992188 177.867188 363.066406 177.207031 363.210938 L 174.925781 362.84375 C 172.871094 362.773438 170.738281 362.773438 168.753906 363.140625 C 171.398438 362.992188 174.046875 363.285156 176.765625 363.652344 C 178.75 363.726562 180.660156 363.726562 182.644531 363.359375 C 183.96875 363.066406 185.21875 362.699219 186.394531 362.035156 C 186.984375 361.667969 187.570312 361.082031 187.792969 360.492188 C 188.085938 359.90625 188.160156 359.316406 188.304688 358.65625 C 188.671875 357.039062 189.039062 355.421875 189.261719 353.804688 C 189.777344 352.332031 190.214844 350.789062 190.585938 349.246094 C 190.878906 346.675781 190.730469 343.953125 190.144531 341.453125 C 190.289062 342.851562 190.289062 344.101562 190.214844 345.496094 " fill-opacity="1" fill-rule="nonzero"/><path fill="#c62328" d="M 176.03125 225.167969 C 174.707031 220.757812 173.457031 216.347656 171.988281 212.011719 C 170.957031 209.070312 169.855469 206.128906 168.679688 203.1875 C 167.355469 200.175781 165.960938 197.234375 164.488281 194.292969 C 163.535156 191.796875 162.429688 189.371094 161.476562 186.945312 C 160.519531 184.664062 159.417969 182.535156 158.386719 180.402344 C 157.507812 179.078125 156.625 177.828125 155.667969 176.507812 C 155.082031 175.035156 154.34375 173.640625 153.535156 172.242188 C 151.039062 168.863281 148.097656 165.847656 144.496094 163.570312 C 148.90625 166.875 152.066406 171.359375 154.417969 175.992188 C 156.476562 179.226562 158.019531 182.753906 159.710938 186.210938 C 161.992188 190.914062 164.121094 195.542969 166.179688 200.394531 C 167.722656 203.410156 169.121094 206.496094 170.445312 209.65625 C 171.324219 212.890625 172.132812 215.980469 172.871094 219.140625 C 174.707031 224.136719 176.398438 229.136719 178.308594 234.0625 L 176.472656 225.902344 " fill-opacity="1" fill-rule="nonzero"/><path fill="#c62328" d="M 190.585938 331.972656 C 189.628906 325.429688 188.304688 319.035156 187.128906 312.492188 C 186.246094 308.082031 185.511719 303.671875 185.144531 299.261719 C 184.410156 294.703125 184.117188 290 183.75 285.371094 C 183.75 281.546875 183.75 277.796875 183.675781 273.976562 C 183.527344 270.519531 183.308594 267.066406 182.941406 263.613281 C 182.5 261.332031 181.984375 259.199219 181.324219 256.921875 C 181.324219 254.644531 181.25 252.4375 181.25 250.085938 C 180.367188 244.277344 179.410156 238.472656 178.382812 232.738281 C 178.96875 240.308594 179.632812 247.953125 179.925781 255.527344 C 180.660156 260.964844 181.175781 266.40625 181.542969 271.917969 C 182.132812 279.269531 182.277344 286.691406 182.792969 294.117188 C 183.378906 298.96875 184.1875 303.820312 185.367188 308.449219 C 185.734375 313.082031 186.320312 317.785156 186.910156 322.492188 C 188.671875 329.839844 190.363281 337.265625 190.804688 344.910156 C 191.097656 340.941406 190.953125 336.972656 190.730469 332.929688 " fill-opacity="1" fill-rule="nonzero"/><path fill="#c62328" d="M 191.761719 332.191406 C 192.054688 328.957031 192.496094 325.796875 193.15625 322.5625 C 193.746094 319.328125 194.628906 316.242188 195.582031 313.082031 C 195.875 311.980469 196.097656 310.800781 196.316406 309.699219 C 196.390625 309.113281 196.464844 308.523438 196.464844 307.9375 L 196.613281 306.320312 C 196.90625 304.039062 197.199219 301.910156 197.566406 299.777344 C 198.007812 295.21875 198.597656 290.515625 199.183594 285.957031 C 199.992188 282.207031 200.65625 278.535156 201.390625 274.785156 C 201.976562 271.402344 202.566406 267.949219 203.007812 264.566406 L 203.007812 261.1875 L 202.933594 257.804688 L 204.328125 251.117188 C 204.84375 245.308594 205.726562 239.5 208.371094 234.429688 C 206.316406 237.515625 204.992188 241.191406 204.035156 244.867188 C 203.082031 248.617188 202.417969 252.363281 201.832031 256.113281 C 201.390625 261.554688 200.65625 266.992188 199.699219 272.359375 C 198.742188 279.710938 197.421875 286.988281 196.316406 294.335938 C 195.804688 299.1875 195.4375 303.964844 195.289062 308.746094 C 194.773438 311.097656 193.964844 313.226562 193.230469 315.507812 C 192.421875 317.785156 191.6875 319.917969 191.097656 322.269531 C 190.511719 326.09375 190.214844 329.839844 190.214844 333.664062 C 190.214844 337.484375 190.363281 341.234375 190.730469 345.058594 C 190.804688 341.085938 191.097656 337.117188 191.613281 333.222656 " fill-opacity="1" fill-rule="nonzero"/><path fill="#c62328" d="M 211.605469 226.417969 C 213.222656 221.933594 214.769531 217.375 216.605469 212.820312 C 217.78125 209.730469 218.882812 206.71875 220.058594 203.558594 C 221.089844 200.25 222.265625 197.089844 223.515625 193.855469 C 224.765625 191.355469 226.015625 188.855469 227.265625 186.429688 C 228.441406 184.152344 229.691406 181.945312 230.867188 179.742188 C 231.601562 178.269531 232.1875 176.726562 232.925781 175.183594 C 233.953125 173.859375 235.054688 172.609375 236.230469 171.359375 C 238.730469 167.832031 241.523438 164.523438 244.832031 161.730469 C 240.203125 164.964844 236.304688 169.15625 232.851562 173.640625 C 230.644531 177.09375 228.585938 180.621094 226.75 184.296875 C 224.324219 189.222656 222.191406 194.222656 220.207031 199.367188 C 219.03125 202.75 218.003906 206.128906 217.046875 209.585938 C 215.578125 212.671875 214.105469 215.832031 212.785156 218.992188 C 211.167969 224.359375 209.695312 229.726562 208.152344 235.089844 L 211.386719 227.078125 " fill-opacity="1" fill-rule="nonzero"/><path fill="#c62328" d="M 192.640625 216.273438 C 192.570312 211.273438 193.378906 206.128906 193.597656 200.984375 C 193.746094 197.457031 193.746094 193.925781 193.746094 190.324219 C 193.449219 186.722656 193.15625 182.976562 192.789062 179.371094 C 192.714844 176.433594 192.496094 173.417969 192.421875 170.480469 C 192.347656 167.832031 192.421875 165.113281 192.9375 162.539062 C 193.011719 160.777344 193.378906 159.085938 193.523438 157.246094 C 194.113281 155.628906 194.773438 153.941406 195.214844 152.175781 C 195.804688 147.472656 195.363281 142.839844 194.847656 138.28125 C 194.847656 141.296875 194.921875 144.238281 194.699219 147.25 C 194.40625 150.191406 193.820312 153.058594 192.863281 155.777344 C 192.347656 157.835938 191.6875 159.894531 191.246094 162.097656 C 190.804688 164.230469 190.65625 166.582031 190.65625 168.789062 C 190.730469 171.726562 191.097656 174.667969 191.246094 177.535156 C 191.539062 180.402344 191.6875 183.34375 191.832031 186.28125 C 192.203125 190.105469 192.421875 193.78125 192.640625 197.601562 C 192.273438 201.203125 191.761719 204.878906 191.097656 208.480469 C 191.023438 211.421875 191.023438 214.4375 191.394531 217.449219 C 191.539062 218.917969 191.832031 220.390625 192.273438 221.859375 C 192.347656 222.226562 192.421875 222.519531 192.640625 222.890625 C 192.714844 223.257812 192.9375 223.550781 193.082031 223.917969 C 193.230469 224.285156 193.523438 224.578125 193.964844 224.726562 C 194.40625 224.800781 194.921875 224.578125 194.921875 224.136719 C 194.847656 224.652344 194.332031 224.726562 193.964844 224.578125 C 193.597656 224.433594 193.449219 224.066406 193.378906 223.699219 C 193.230469 222.890625 193.011719 222.226562 192.9375 221.417969 C 192.640625 219.875 192.640625 218.40625 192.640625 216.863281 " fill-opacity="1" fill-rule="nonzero"/><path fill="#c62328" d="M 122.445312 343.144531 C 120.3125 337.410156 119.722656 331.238281 120.238281 325.136719 C 120.53125 321.019531 121.414062 316.902344 122.664062 312.859375 C 123.691406 308.597656 125.238281 304.480469 127.074219 300.511719 C 128.839844 297.351562 130.824219 294.265625 132.808594 291.324219 C 134.644531 288.53125 136.558594 285.882812 138.46875 283.3125 L 141.777344 277.726562 C 143.320312 276.179688 144.789062 274.492188 146.1875 272.875 C 149.347656 268.242188 152.214844 263.171875 153.832031 257.730469 C 151.183594 264.640625 146.554688 270.449219 141.777344 275.886719 C 138.6875 280.152344 135.382812 284.339844 132.367188 288.75 C 128.472656 294.777344 125.015625 301.101562 122.515625 307.789062 C 121.121094 312.199219 120.019531 316.757812 119.796875 321.386719 C 118.769531 325.722656 118.402344 330.207031 118.546875 334.691406 C 119.796875 341.96875 122.957031 348.953125 128.105469 354.246094 C 125.824219 351.230469 124.0625 347.777344 122.957031 344.320312 " fill-opacity="1" fill-rule="nonzero"/><path fill="#c62328" d="M 261.296875 345.058594 C 263.28125 339.25 264.457031 333.148438 264.679688 326.972656 C 264.753906 322.710938 264.3125 318.59375 263.503906 314.40625 C 262.472656 310.140625 260.929688 306.023438 258.871094 302.128906 C 258.503906 301.320312 258.136719 300.511719 257.84375 299.703125 L 257.328125 298.527344 L 256.738281 297.351562 C 256.300781 296.542969 255.929688 295.808594 255.417969 295 C 254.976562 294.191406 254.535156 293.457031 254.019531 292.71875 C 252.257812 290.074219 250.417969 287.425781 248.359375 284.855469 L 243.949219 280.371094 C 242.921875 278.535156 241.746094 276.84375 240.789062 275.003906 C 239.097656 272.875 237.628906 270.59375 236.085938 268.316406 C 234.542969 266.039062 233.21875 263.757812 232.117188 261.332031 C 234.613281 267.800781 238.4375 273.976562 242.1875 279.855469 C 245.347656 283.898438 248.582031 287.867188 251.375 292.058594 C 255.34375 297.496094 258.652344 303.527344 260.5625 310.066406 C 262.03125 314.183594 263.136719 318.519531 263.648438 323.003906 C 263.503906 327.339844 262.839844 331.53125 261.8125 335.722656 C 261.445312 339.175781 260.5625 342.558594 259.605469 345.867188 C 258.578125 349.171875 257.179688 352.40625 255.636719 355.566406 C 257.695312 352.554688 259.535156 349.246094 261.078125 345.867188 " fill-opacity="1" fill-rule="nonzero"/></svg>