<svg xmlns="http://www.w3.org/2000/svg" xmlns:xlink="http://www.w3.org/1999/xlink" width="500" zoomAndPan="magnify" viewBox="0 0 375 374.999991" height="500" preserveAspectRatio="xMidYMid meet" version="1.0"><defs><clipPath id="c732277d29"><path d="M 106.835938 6.90625 L 268 6.90625 L 268 364 L 106.835938 364 Z M 106.835938 6.90625 " clip-rule="nonzero"/></clipPath><clipPath id="00770a5d34"><path d="M 162 6.90625 L 201 6.90625 L 201 20 L 162 20 Z M 162 6.90625 " clip-rule="nonzero"/></clipPath><clipPath id="2a612b1469"><path d="M 106.835938 258 L 173 258 L 173 291 L 106.835938 291 Z M 106.835938 258 " clip-rule="nonzero"/></clipPath></defs><g clip-path="url(#c732277d29)"><path fill="#e7e0d5" d="M 267.023438 345.976562 C 266.457031 342.335938 265.679688 338.734375 265.15625 335.085938 C 264.097656 327.683594 263.554688 320.199219 262.988281 312.742188 C 262.449219 305.65625 261.785156 298.625 260.59375 291.613281 C 260.203125 289.308594 259.769531 287 259.242188 284.710938 C 259.269531 284.65625 259.285156 284.597656 259.296875 284.535156 C 259.988281 280.59375 260.6875 276.644531 260.984375 272.644531 C 261.277344 268.71875 261.226562 264.644531 260.097656 260.839844 C 259.511719 258.859375 258.660156 256.941406 258.382812 254.882812 C 258.261719 253.96875 258.28125 253.015625 258.578125 252.136719 C 258.890625 251.238281 259.484375 250.523438 260.167969 249.878906 C 260.851562 249.234375 261.574219 248.636719 262.175781 247.910156 C 262.582031 247.421875 262.875 246.871094 263.085938 246.269531 C 263.433594 245.257812 263.585938 244.171875 263.640625 243.097656 C 263.640625 243.085938 263.640625 243.078125 263.640625 243.066406 C 263.652344 242.808594 263.664062 242.550781 263.664062 242.292969 C 263.679688 240.769531 263.535156 239.234375 263.210938 237.746094 C 262.925781 236.453125 262.511719 235.132812 261.761719 234.03125 C 261.644531 233.859375 261.519531 233.695312 261.382812 233.539062 C 261.550781 232.996094 261.667969 232.429688 261.71875 231.847656 C 261.898438 229.824219 261.304688 227.679688 259.773438 226.28125 C 259.378906 225.917969 258.941406 225.613281 258.464844 225.367188 C 258.421875 225.34375 258.378906 225.328125 258.332031 225.316406 C 258.527344 222.8125 257.925781 220.355469 256.492188 218.289062 C 257.09375 217.765625 257.46875 217.042969 257.285156 216.136719 C 257.019531 214.820312 255.578125 214.179688 254.398438 213.757812 C 254.277344 206.9375 254.132812 200.117188 253.832031 193.300781 C 253.652344 189.253906 253.425781 185.207031 253.058594 181.171875 C 252.613281 176.339844 251.691406 171.589844 250.882812 166.808594 C 250.027344 161.753906 249.328125 156.617188 249.757812 151.484375 C 250.1875 146.402344 252.097656 141.652344 252.976562 136.65625 C 253.882812 131.472656 253.800781 126.148438 254.421875 120.921875 C 255.039062 115.710938 255.984375 110.539062 256.554688 105.320312 C 257.71875 94.683594 258.039062 83.960938 259.632812 73.375 C 259.789062 72.332031 259.960938 71.289062 260.144531 70.253906 C 260.226562 70.3125 260.3125 70.371094 260.398438 70.425781 C 261.285156 70.96875 262.320312 71.097656 263.28125 70.667969 C 264.277344 70.226562 265 69.269531 265.507812 68.335938 C 266.046875 67.34375 266.394531 66.269531 266.648438 65.171875 C 266.90625 64.039062 267.121094 62.890625 267.277344 61.738281 C 267.605469 59.308594 267.609375 56.828125 267.335938 54.390625 C 267.082031 52.140625 266.546875 49.921875 265.699219 47.816406 C 265.277344 46.773438 264.777344 45.761719 264.1875 44.804688 C 263.644531 43.914062 263.042969 43.027344 262.28125 42.308594 C 261.566406 41.632812 260.710938 41.042969 259.707031 40.925781 C 259.289062 40.875 258.867188 40.9375 258.480469 41.082031 C 256.023438 41.335938 253.546875 40.875 251.179688 40.234375 C 249.957031 39.902344 248.753906 39.53125 247.507812 39.285156 C 246.273438 39.046875 245.023438 38.890625 243.769531 38.800781 C 241.238281 38.613281 238.695312 38.675781 236.15625 38.734375 C 233.648438 38.789062 231.101562 38.890625 228.601562 38.605469 C 226.109375 38.320312 223.683594 37.636719 221.328125 36.800781 C 218.957031 35.960938 216.636719 34.984375 214.347656 33.945312 C 212.066406 32.90625 209.824219 31.785156 207.621094 30.582031 C 205.695312 29.53125 203.675781 28.460938 202.648438 26.425781 C 201.738281 24.613281 201.535156 22.503906 201.285156 20.519531 C 201.035156 18.496094 200.824219 16.46875 200.574219 14.441406 C 200.523438 14.015625 200.46875 13.589844 200.410156 13.164062 C 200.402344 13.125 200.394531 13.089844 200.382812 13.054688 C 200.550781 12.28125 200.464844 11.460938 200.160156 10.726562 C 199.183594 8.359375 196.40625 7.679688 194.117188 7.398438 C 192.71875 7.222656 191.296875 7.132812 189.886719 7.046875 C 188.261719 6.953125 186.628906 6.929688 185 6.988281 C 182.359375 7.082031 179.722656 7.394531 177.117188 7.84375 C 174.496094 8.296875 171.910156 8.902344 169.40625 9.8125 C 167.972656 10.328125 166.566406 10.925781 165.210938 11.628906 C 164.289062 12.105469 163.277344 12.800781 163.019531 13.875 C 162.984375 14.019531 162.964844 14.164062 162.957031 14.308594 C 162.953125 14.332031 162.945312 14.359375 162.941406 14.386719 C 162.828125 16.394531 162.921875 18.417969 163.351562 20.386719 C 163.820312 22.542969 164.464844 24.652344 164.902344 26.816406 C 165.335938 28.984375 165.824219 31.246094 165.816406 33.464844 C 165.8125 34.53125 165.664062 35.59375 165.238281 36.578125 C 164.800781 37.582031 164.070312 38.460938 163.308594 39.238281 C 161.789062 40.792969 160.070312 42.183594 158.378906 43.539062 C 156.628906 44.945312 154.828125 46.28125 152.953125 47.515625 C 151.128906 48.71875 149.25 49.839844 147.269531 50.773438 C 145.324219 51.691406 143.3125 52.460938 141.304688 53.226562 C 137.441406 54.695312 133.519531 56.160156 130.121094 58.570312 C 127.128906 60.695312 124.628906 63.492188 122.808594 66.675781 C 118.398438 74.40625 117.820312 83.839844 118.390625 92.527344 C 118.984375 101.601562 120.742188 110.5625 121.285156 119.640625 C 121.34375 120.667969 121.386719 121.695312 121.40625 122.722656 C 121.410156 122.753906 121.414062 122.789062 121.417969 122.816406 C 121.417969 122.867188 121.414062 122.917969 121.417969 122.96875 C 121.46875 126.164062 123.246094 129.144531 125.769531 131.039062 C 128.574219 133.144531 132.210938 133.921875 135.664062 133.835938 C 139.316406 133.746094 142.984375 132.941406 146.390625 131.644531 C 149.511719 130.453125 152.574219 128.777344 154.96875 126.410156 C 155.128906 130.152344 155.289062 133.894531 155.445312 137.640625 C 155.535156 139.714844 155.625 141.789062 155.714844 143.863281 C 155.796875 145.855469 155.921875 147.851562 155.867188 149.84375 C 155.761719 153.742188 154.582031 157.363281 152.90625 160.859375 C 151.175781 164.464844 149.160156 167.9375 147.25 171.449219 C 143.308594 178.707031 139.363281 185.964844 135.421875 193.222656 C 131.617188 200.226562 127.6875 207.175781 124.046875 214.265625 C 121.503906 219.222656 119.289062 224.367188 118.117188 229.792969 C 117.1875 230.351562 116.308594 230.945312 115.875 231.996094 C 115.644531 232.554688 115.578125 233.164062 115.625 233.765625 C 115.605469 233.78125 115.582031 233.804688 115.5625 233.828125 C 113.476562 236.359375 112.089844 239.476562 111.0625 242.570312 C 110.023438 245.707031 109.292969 249.027344 109.171875 252.335938 C 109.089844 254.59375 109.386719 257.234375 110.71875 259.117188 C 109.488281 261.363281 108.765625 263.855469 108.25 266.347656 C 107.632812 269.304688 107.292969 272.3125 107.101562 275.324219 C 106.914062 278.207031 106.859375 281.097656 106.890625 283.988281 C 106.902344 285.28125 106.867188 286.605469 107.019531 287.890625 C 107.101562 288.609375 107.332031 289.363281 107.867188 289.882812 C 108.5 290.484375 109.359375 290.605469 110.195312 290.644531 C 110.320312 290.648438 110.445312 290.652344 110.570312 290.65625 C 109.707031 294.363281 110.769531 298.425781 111.886719 301.957031 C 112.476562 303.816406 113.125 305.683594 113.929688 307.464844 C 114.898438 309.613281 116.140625 311.625 117.183594 313.738281 C 118.261719 315.925781 118.988281 318.199219 119.328125 320.617188 C 119.664062 323.042969 119.664062 325.5 119.632812 327.941406 C 119.570312 332.574219 119.445312 337.214844 120.746094 341.710938 C 121.5625 344.527344 122.804688 347.214844 124.425781 349.660156 C 124.441406 349.695312 124.460938 349.722656 124.484375 349.75 C 125.175781 350.78125 125.929688 351.773438 126.746094 352.707031 C 127.464844 353.527344 128.226562 354.304688 129.039062 355.03125 C 129.292969 355.261719 129.5625 355.515625 129.851562 355.738281 C 136.222656 368.117188 152.394531 362.441406 162.800781 360.25 C 177.242188 357.207031 191.964844 355.71875 206.683594 354.847656 C 210.378906 354.625 214.09375 354.363281 217.800781 354.363281 C 221.605469 354.367188 225.222656 354.925781 228.863281 356.027344 C 232.359375 357.085938 235.824219 358.175781 239.417969 358.894531 C 242.945312 359.597656 246.527344 360.042969 250.121094 360.21875 C 253.636719 360.386719 257.230469 360.371094 260.726562 359.9375 C 262.1875 359.753906 263.636719 359.367188 264.820312 358.453125 C 265.863281 357.648438 266.609375 356.496094 267.058594 355.265625 C 268.136719 352.347656 267.484375 348.957031 267.023438 345.976562 " fill-opacity="1" fill-rule="nonzero"/></g><path fill="#c62328" d="M 158.113281 115.917969 C 158.824219 117.175781 158.480469 118.710938 158.003906 120.019531 C 157.503906 121.398438 156.757812 122.722656 155.886719 123.902344 C 153.898438 126.59375 151.046875 128.492188 148.050781 129.898438 C 144.917969 131.367188 141.511719 132.300781 138.078125 132.699219 C 134.75 133.082031 131.257812 132.898438 128.207031 131.398438 C 125.449219 130.042969 123.234375 127.589844 122.5625 124.550781 C 122.40625 123.835938 122.347656 123.113281 122.394531 122.375 C 122.402344 122.285156 122.40625 122.195312 122.417969 122.101562 C 122.421875 122.0625 122.425781 122.023438 122.429688 121.984375 C 122.429688 121.988281 122.453125 121.800781 122.4375 121.914062 C 122.457031 121.777344 122.480469 121.640625 122.507812 121.5 C 122.5625 121.242188 122.632812 120.980469 122.714844 120.726562 C 122.761719 120.597656 122.808594 120.46875 122.855469 120.339844 C 122.863281 120.320312 122.902344 120.234375 122.867188 120.316406 C 122.878906 120.289062 122.886719 120.261719 122.902344 120.238281 C 122.929688 120.171875 122.957031 120.105469 122.992188 120.042969 C 123.105469 119.796875 123.238281 119.554688 123.382812 119.324219 C 123.527344 119.089844 123.683594 118.863281 123.851562 118.640625 C 123.90625 118.570312 123.871094 118.617188 123.859375 118.632812 C 123.882812 118.597656 123.910156 118.5625 123.941406 118.527344 C 123.976562 118.484375 124.015625 118.4375 124.050781 118.394531 C 124.148438 118.277344 124.246094 118.167969 124.34375 118.058594 C 125.164062 117.167969 126.015625 116.507812 127.015625 115.871094 C 128.050781 115.210938 129.144531 114.652344 130.265625 114.15625 C 130.804688 113.914062 131.324219 113.707031 131.917969 113.480469 C 132.476562 113.265625 133.042969 113.0625 133.613281 112.871094 C 134.628906 112.53125 135.65625 112.21875 136.6875 111.925781 C 139.960938 110.992188 143.382812 110.710938 146.769531 111.058594 C 148.46875 111.238281 150.148438 111.585938 151.773438 112.105469 C 153.441406 112.632812 155.046875 113.34375 156.492188 114.332031 C 157.121094 114.757812 157.722656 115.257812 158.113281 115.917969 C 158.421875 116.441406 159.234375 115.964844 158.925781 115.445312 C 158.472656 114.679688 157.792969 114.09375 157.070312 113.589844 C 156.324219 113.066406 155.523438 112.621094 154.695312 112.230469 C 153.054688 111.464844 151.320312 110.917969 149.550781 110.550781 C 146.003906 109.808594 142.308594 109.78125 138.746094 110.460938 C 137.425781 110.714844 136.136719 111.089844 134.851562 111.484375 C 133.703125 111.839844 132.5625 112.222656 131.441406 112.65625 C 129.054688 113.585938 126.695312 114.722656 124.730469 116.386719 C 123.832031 117.152344 123.023438 118.046875 122.4375 119.070312 C 121.8125 120.167969 121.476562 121.386719 121.441406 122.648438 C 121.351562 125.917969 123.171875 129.023438 125.722656 130.972656 C 128.480469 133.078125 132.066406 133.863281 135.480469 133.816406 C 137.332031 133.792969 139.191406 133.542969 141.007812 133.179688 C 142.785156 132.824219 144.535156 132.324219 146.230469 131.679688 C 149.523438 130.433594 152.742188 128.675781 155.214844 126.132812 C 156.351562 124.960938 157.296875 123.628906 158.058594 122.1875 C 158.789062 120.792969 159.417969 119.242188 159.449219 117.648438 C 159.464844 116.878906 159.304688 116.117188 158.925781 115.445312 C 158.625 114.917969 157.8125 115.390625 158.113281 115.917969 " fill-opacity="1" fill-rule="nonzero"/><path fill="#c62328" d="M 158.589844 117.933594 C 159.453125 119.085938 160.449219 120.125 161.582031 121.023438 C 162.710938 121.917969 163.9375 122.675781 165.246094 123.28125 C 166.570312 123.894531 167.957031 124.367188 169.378906 124.695312 C 170.84375 125.03125 172.34375 125.226562 173.84375 125.285156 C 175.371094 125.339844 176.894531 125.25 178.410156 125.039062 C 179.917969 124.828125 181.414062 124.484375 182.863281 124.007812 C 184.339844 123.527344 185.777344 122.910156 187.144531 122.164062 C 188.523438 121.410156 189.828125 120.523438 191.03125 119.511719 C 192.246094 118.492188 193.347656 117.34375 194.3125 116.085938 C 195.296875 114.8125 196.136719 113.425781 196.808594 111.960938 C 196.988281 111.5625 197.160156 111.160156 197.320312 110.753906 C 197.410156 110.515625 197.214844 110.238281 196.988281 110.175781 C 196.722656 110.101562 196.503906 110.265625 196.410156 110.503906 C 196.375 110.59375 196.34375 110.679688 196.304688 110.769531 C 196.285156 110.820312 196.261719 110.871094 196.242188 110.925781 C 196.234375 110.945312 196.222656 110.96875 196.214844 110.992188 C 196.234375 110.945312 196.214844 110.988281 196.207031 111.011719 C 196.125 111.195312 196.042969 111.386719 195.957031 111.570312 C 195.785156 111.9375 195.605469 112.300781 195.414062 112.660156 C 195.042969 113.355469 194.628906 114.03125 194.183594 114.679688 C 194.074219 114.839844 193.957031 115 193.839844 115.160156 C 193.789062 115.230469 193.734375 115.304688 193.679688 115.378906 C 193.652344 115.414062 193.625 115.449219 193.597656 115.484375 C 193.582031 115.507812 193.5625 115.535156 193.542969 115.558594 C 193.496094 115.617188 193.582031 115.507812 193.53125 115.570312 C 193.296875 115.871094 193.058594 116.164062 192.804688 116.453125 C 192.296875 117.035156 191.761719 117.589844 191.195312 118.113281 C 190.914062 118.375 190.625 118.628906 190.332031 118.875 C 190.183594 118.996094 190.035156 119.117188 189.886719 119.234375 C 189.851562 119.265625 189.816406 119.292969 189.78125 119.316406 C 189.765625 119.332031 189.679688 119.398438 189.738281 119.351562 C 189.664062 119.410156 189.585938 119.46875 189.511719 119.527344 C 188.902344 119.984375 188.269531 120.410156 187.617188 120.804688 C 186.976562 121.195312 186.3125 121.554688 185.636719 121.882812 C 185.296875 122.050781 184.949219 122.207031 184.601562 122.355469 C 184.5625 122.375 184.523438 122.390625 184.484375 122.40625 C 184.554688 122.378906 184.457031 122.417969 184.433594 122.429688 C 184.339844 122.464844 184.242188 122.503906 184.148438 122.542969 C 183.976562 122.613281 183.796875 122.679688 183.621094 122.746094 C 182.214844 123.273438 180.765625 123.675781 179.289062 123.949219 C 178.925781 124.015625 178.566406 124.074219 178.199219 124.125 C 178.171875 124.128906 178.144531 124.132812 178.117188 124.136719 C 178.109375 124.140625 178.039062 124.148438 178.089844 124.140625 C 178.136719 124.136719 178.023438 124.148438 178.003906 124.152344 C 177.914062 124.164062 177.820312 124.175781 177.726562 124.1875 C 177.542969 124.207031 177.355469 124.226562 177.171875 124.246094 C 176.433594 124.316406 175.691406 124.355469 174.949219 124.359375 C 174.21875 124.363281 173.492188 124.335938 172.765625 124.277344 C 172.402344 124.246094 172.042969 124.207031 171.679688 124.160156 C 171.65625 124.15625 171.636719 124.15625 171.617188 124.152344 C 171.625 124.152344 171.695312 124.164062 171.636719 124.15625 C 171.597656 124.148438 171.554688 124.144531 171.511719 124.136719 C 171.417969 124.125 171.320312 124.113281 171.226562 124.097656 C 171.046875 124.066406 170.867188 124.039062 170.6875 124.003906 C 169.296875 123.757812 167.929688 123.375 166.617188 122.855469 C 166.53125 122.820312 166.449219 122.789062 166.371094 122.753906 C 166.332031 122.738281 166.296875 122.722656 166.257812 122.707031 C 166.339844 122.742188 166.230469 122.695312 166.203125 122.683594 C 166.042969 122.613281 165.882812 122.542969 165.722656 122.46875 C 165.402344 122.320312 165.089844 122.164062 164.785156 122 C 164.175781 121.675781 163.585938 121.320312 163.019531 120.925781 C 162.875 120.828125 162.734375 120.726562 162.597656 120.621094 C 162.527344 120.570312 162.457031 120.519531 162.386719 120.46875 C 162.371094 120.453125 162.355469 120.441406 162.339844 120.429688 C 162.34375 120.433594 162.398438 120.476562 162.355469 120.441406 C 162.320312 120.414062 162.28125 120.386719 162.246094 120.355469 C 161.972656 120.140625 161.710938 119.914062 161.449219 119.683594 C 160.9375 119.222656 160.453125 118.726562 160.003906 118.203125 C 159.894531 118.074219 159.785156 117.945312 159.679688 117.816406 C 159.625 117.746094 159.570312 117.675781 159.515625 117.605469 C 159.484375 117.5625 159.523438 117.617188 159.527344 117.621094 C 159.515625 117.605469 159.5 117.589844 159.488281 117.570312 C 159.460938 117.535156 159.433594 117.496094 159.402344 117.460938 C 159.253906 117.253906 159 117.152344 158.761719 117.289062 C 158.5625 117.40625 158.4375 117.730469 158.589844 117.933594 " fill-opacity="1" fill-rule="nonzero"/><path fill="#c62328" d="M 144.222656 78.589844 C 142.984375 80.804688 143.65625 83.464844 144.835938 85.550781 C 146.054688 87.695312 147.929688 89.371094 149.234375 91.457031 C 149.921875 92.558594 150.378906 93.738281 150.605469 95.015625 C 150.835938 96.347656 150.824219 97.710938 150.820312 99.058594 C 150.816406 100.453125 150.824219 101.847656 151.054688 103.226562 C 151.285156 104.605469 151.792969 105.921875 152.378906 107.183594 C 153.566406 109.734375 155.191406 112.0625 156.878906 114.304688 C 157.085938 114.578125 157.292969 114.851562 157.5 115.125 C 157.65625 115.324219 157.90625 115.429688 158.144531 115.292969 C 158.34375 115.175781 158.46875 114.851562 158.3125 114.648438 C 156.625 112.4375 154.972656 110.179688 153.6875 107.707031 C 153.078125 106.542969 152.535156 105.320312 152.195312 104.050781 C 151.84375 102.742188 151.773438 101.386719 151.761719 100.035156 C 151.753906 98.675781 151.796875 97.316406 151.667969 95.960938 C 151.542969 94.59375 151.230469 93.253906 150.621094 92.011719 C 149.554688 89.824219 147.75 88.125 146.347656 86.160156 C 145.070312 84.378906 144.003906 81.964844 144.714844 79.785156 C 144.796875 79.53125 144.902344 79.296875 145.035156 79.066406 C 145.332031 78.535156 144.519531 78.058594 144.222656 78.589844 " fill-opacity="1" fill-rule="nonzero"/><path fill="#c62328" d="M 192.078125 87.609375 C 194.933594 89.800781 196.878906 93.097656 197.5625 96.613281 C 197.757812 97.613281 197.839844 98.628906 197.816406 99.652344 C 197.800781 100.257812 198.742188 100.257812 198.757812 99.652344 C 198.84375 95.785156 197.414062 91.949219 194.90625 89.015625 C 194.203125 88.191406 193.414062 87.457031 192.554688 86.796875 C 192.351562 86.644531 192.027344 86.769531 191.910156 86.964844 C 191.769531 87.210938 191.878906 87.457031 192.078125 87.609375 " fill-opacity="1" fill-rule="nonzero"/><path fill="#c62328" d="M 161.011719 106.167969 C 160.855469 106.9375 161.09375 107.679688 161.75 108.136719 C 162.375 108.566406 163.21875 108.558594 163.886719 108.253906 C 164.570312 107.945312 165.121094 107.273438 165.230469 106.527344 C 165.34375 105.753906 164.992188 105.046875 164.34375 104.628906 C 164.03125 104.425781 163.660156 104.3125 163.289062 104.296875 C 162.867188 104.285156 162.496094 104.433594 162.167969 104.6875 C 161.964844 104.84375 162.003906 105.1875 162.167969 105.351562 C 162.367188 105.550781 162.632812 105.507812 162.832031 105.351562 C 162.75 105.417969 162.894531 105.320312 162.914062 105.308594 C 162.9375 105.296875 163.015625 105.265625 162.921875 105.304688 C 162.945312 105.292969 162.96875 105.285156 162.992188 105.277344 C 163.039062 105.261719 163.085938 105.253906 163.136719 105.242188 C 163.222656 105.222656 163.136719 105.242188 163.121094 105.242188 C 163.160156 105.242188 163.195312 105.238281 163.234375 105.238281 C 163.265625 105.238281 163.296875 105.242188 163.328125 105.242188 C 163.34375 105.242188 163.425781 105.25 163.359375 105.242188 C 163.304688 105.238281 163.457031 105.261719 163.484375 105.269531 C 163.535156 105.28125 163.582031 105.300781 163.632812 105.316406 C 163.714844 105.339844 163.644531 105.316406 163.628906 105.3125 C 163.664062 105.324219 163.699219 105.34375 163.734375 105.363281 C 163.785156 105.386719 163.835938 105.417969 163.882812 105.449219 C 163.910156 105.46875 163.9375 105.484375 163.964844 105.507812 C 163.949219 105.492188 163.898438 105.449219 163.957031 105.507812 C 163.996094 105.542969 164.035156 105.578125 164.070312 105.613281 C 164.089844 105.632812 164.105469 105.652344 164.125 105.671875 C 164.195312 105.746094 164.09375 105.617188 164.144531 105.695312 C 164.175781 105.746094 164.207031 105.796875 164.234375 105.84375 C 164.246094 105.867188 164.28125 105.949219 164.242188 105.855469 C 164.25 105.878906 164.261719 105.902344 164.269531 105.925781 C 164.285156 105.976562 164.296875 106.027344 164.308594 106.078125 C 164.328125 106.15625 164.3125 106.101562 164.308594 106.082031 C 164.316406 106.128906 164.316406 106.175781 164.316406 106.21875 C 164.316406 106.257812 164.3125 106.296875 164.3125 106.332031 C 164.308594 106.410156 164.324219 106.265625 164.3125 106.34375 C 164.300781 106.410156 164.285156 106.476562 164.269531 106.542969 C 164.257812 106.566406 164.203125 106.710938 164.234375 106.640625 C 164.203125 106.710938 164.164062 106.777344 164.125 106.84375 C 164.105469 106.875 164.082031 106.90625 164.0625 106.9375 C 164.019531 107 164.101562 106.894531 164.050781 106.953125 C 164.007812 107.007812 163.960938 107.058594 163.910156 107.109375 C 163.789062 107.230469 163.789062 107.230469 163.640625 107.320312 C 163.582031 107.359375 163.519531 107.390625 163.457031 107.421875 C 163.378906 107.457031 163.558594 107.386719 163.417969 107.4375 C 163.390625 107.449219 163.359375 107.457031 163.332031 107.46875 C 163.273438 107.488281 163.210938 107.503906 163.152344 107.515625 C 163.121094 107.523438 163.089844 107.527344 163.058594 107.53125 C 163.148438 107.519531 163.023438 107.53125 163 107.53125 C 162.9375 107.535156 162.871094 107.535156 162.808594 107.53125 C 162.769531 107.527344 162.738281 107.527344 162.699219 107.519531 C 162.722656 107.523438 162.785156 107.539062 162.699219 107.519531 C 162.648438 107.503906 162.59375 107.496094 162.542969 107.480469 C 162.515625 107.472656 162.488281 107.460938 162.464844 107.453125 C 162.359375 107.425781 162.515625 107.488281 162.429688 107.441406 C 162.371094 107.414062 162.3125 107.382812 162.257812 107.347656 C 162.257812 107.347656 162.15625 107.273438 162.210938 107.316406 C 162.261719 107.355469 162.179688 107.285156 162.171875 107.277344 C 162.125 107.234375 162.082031 107.191406 162.042969 107.140625 C 162.105469 107.214844 162.050781 107.148438 162.035156 107.125 C 162.019531 107.097656 162.003906 107.074219 161.988281 107.046875 C 161.988281 107.042969 161.933594 106.929688 161.960938 106.996094 C 161.984375 107.050781 161.941406 106.933594 161.9375 106.921875 C 161.929688 106.898438 161.925781 106.871094 161.914062 106.84375 C 161.914062 106.832031 161.894531 106.707031 161.898438 106.765625 C 161.90625 106.828125 161.898438 106.734375 161.898438 106.722656 C 161.898438 106.679688 161.894531 106.636719 161.898438 106.589844 C 161.898438 106.5625 161.902344 106.53125 161.902344 106.5 C 161.90625 106.46875 161.90625 106.472656 161.902344 106.511719 C 161.90625 106.480469 161.910156 106.445312 161.917969 106.414062 C 161.96875 106.167969 161.847656 105.90625 161.589844 105.835938 C 161.359375 105.773438 161.0625 105.914062 161.011719 106.167969 " fill-opacity="1" fill-rule="nonzero"/><path fill="#c62328" d="M 191.207031 181.570312 C 189.878906 182.082031 189.394531 183.769531 190.0625 184.988281 C 190.828125 186.375 192.636719 186.765625 194.0625 186.351562 C 194.988281 186.082031 195.796875 185.539062 196.515625 184.917969 C 196.707031 184.75 196.6875 184.421875 196.515625 184.25 C 196.324219 184.058594 196.042969 184.085938 195.851562 184.25 C 195.351562 184.679688 194.796875 185.074219 194.183594 185.316406 C 193.636719 185.535156 192.992188 185.640625 192.453125 185.539062 C 191.898438 185.433594 191.4375 185.210938 191.070312 184.792969 C 190.910156 184.617188 190.8125 184.425781 190.753906 184.203125 C 190.738281 184.140625 190.726562 184.078125 190.714844 184.015625 C 190.726562 184.09375 190.707031 183.914062 190.707031 183.898438 C 190.703125 183.839844 190.703125 183.785156 190.707031 183.730469 C 190.707031 183.707031 190.722656 183.519531 190.714844 183.589844 C 190.730469 183.449219 190.769531 183.308594 190.820312 183.171875 C 190.824219 183.164062 190.855469 183.089844 190.824219 183.152344 C 190.839844 183.125 190.851562 183.09375 190.867188 183.066406 C 190.902344 183 190.941406 182.929688 190.984375 182.867188 C 190.984375 182.863281 191.03125 182.800781 191.003906 182.839844 C 190.976562 182.875 191.046875 182.785156 191.054688 182.777344 C 191.101562 182.726562 191.152344 182.679688 191.203125 182.632812 C 191.261719 182.582031 191.15625 182.664062 191.21875 182.621094 C 191.25 182.59375 191.28125 182.574219 191.316406 182.554688 C 191.339844 182.539062 191.371094 182.523438 191.398438 182.507812 C 191.480469 182.464844 191.363281 182.515625 191.457031 182.480469 C 191.695312 182.390625 191.859375 182.164062 191.785156 181.902344 C 191.722656 181.675781 191.449219 181.480469 191.207031 181.570312 " fill-opacity="1" fill-rule="nonzero"/><path fill="#c62328" d="M 211.136719 109.019531 C 212.507812 112.855469 215.496094 115.988281 218.929688 118.09375 C 221.84375 119.875 225.1875 120.808594 228.554688 121.242188 C 231.585938 121.636719 234.695312 121.546875 237.683594 120.867188 C 240.648438 120.191406 243.464844 118.886719 245.816406 116.945312 C 248.378906 114.828125 250.242188 111.996094 251.394531 108.890625 C 251.554688 108.464844 251.695312 108.03125 251.828125 107.59375 C 252.007812 107.015625 251.097656 106.769531 250.921875 107.347656 C 249.972656 110.457031 248.351562 113.320312 245.980469 115.550781 C 245.710938 115.800781 245.433594 116.046875 245.148438 116.28125 C 244.839844 116.535156 244.652344 116.679688 244.324219 116.917969 C 243.726562 117.34375 243.105469 117.734375 242.464844 118.082031 C 242.148438 118.257812 241.828125 118.421875 241.5 118.574219 C 241.335938 118.652344 241.167969 118.730469 240.996094 118.804688 C 240.800781 118.890625 240.769531 118.902344 240.558594 118.988281 C 239.875 119.261719 239.171875 119.5 238.464844 119.695312 C 237.765625 119.894531 237.054688 120.054688 236.339844 120.179688 C 236.171875 120.210938 236.003906 120.238281 235.835938 120.265625 C 235.742188 120.277344 235.648438 120.292969 235.558594 120.304688 C 235.511719 120.3125 235.464844 120.320312 235.417969 120.324219 C 235.507812 120.3125 235.328125 120.335938 235.3125 120.339844 C 234.941406 120.386719 234.570312 120.421875 234.195312 120.453125 C 232.710938 120.570312 231.214844 120.558594 229.726562 120.429688 C 229.371094 120.398438 229.007812 120.359375 228.648438 120.3125 C 228.601562 120.308594 228.554688 120.304688 228.507812 120.296875 C 228.355469 120.273438 228.601562 120.308594 228.449219 120.285156 C 228.355469 120.273438 228.261719 120.261719 228.167969 120.246094 C 227.980469 120.222656 227.792969 120.191406 227.609375 120.160156 C 226.867188 120.035156 226.128906 119.882812 225.398438 119.699219 C 223.789062 119.300781 222.21875 118.785156 220.746094 118.03125 C 217.3125 116.277344 214.242188 113.492188 212.554688 109.988281 C 212.359375 109.589844 212.195312 109.1875 212.042969 108.769531 C 211.957031 108.53125 211.722656 108.371094 211.464844 108.441406 C 211.234375 108.503906 211.050781 108.777344 211.136719 109.019531 " fill-opacity="1" fill-rule="nonzero"/><path fill="#c62328" d="M 199.472656 13.390625 C 199.746094 15.402344 199.953125 17.429688 200.1875 19.445312 C 200.433594 21.515625 200.609375 23.671875 201.289062 25.652344 C 201.652344 26.710938 202.179688 27.703125 202.9375 28.53125 C 203.710938 29.371094 204.679688 30.019531 205.664062 30.589844 C 207.84375 31.859375 210.101562 33.007812 212.382812 34.085938 C 214.675781 35.175781 217.007812 36.1875 219.375 37.101562 C 221.730469 38.011719 224.140625 38.8125 226.625 39.277344 C 229.101562 39.742188 231.605469 39.769531 234.113281 39.734375 C 236.65625 39.699219 239.195312 39.589844 241.734375 39.664062 C 244.265625 39.734375 246.800781 39.996094 249.246094 40.679688 C 251.703125 41.375 254.164062 42.054688 256.734375 42.113281 C 257.371094 42.125 258.007812 42.097656 258.640625 42.03125 C 258.894531 42.003906 259.109375 41.832031 259.109375 41.558594 C 259.109375 41.328125 258.894531 41.0625 258.640625 41.089844 C 256.113281 41.363281 253.597656 40.914062 251.164062 40.253906 C 249.960938 39.925781 248.777344 39.554688 247.550781 39.316406 C 246.320312 39.074219 245.074219 38.921875 243.824219 38.828125 C 241.328125 38.640625 238.824219 38.695312 236.324219 38.75 C 233.84375 38.804688 231.332031 38.910156 228.859375 38.660156 C 226.390625 38.40625 223.976562 37.746094 221.636719 36.933594 C 219.289062 36.121094 216.988281 35.160156 214.722656 34.140625 C 212.425781 33.105469 210.164062 31.984375 207.949219 30.785156 C 205.988281 29.726562 203.84375 28.667969 202.734375 26.636719 C 201.742188 24.824219 201.527344 22.660156 201.277344 20.644531 C 201.019531 18.605469 200.808594 16.558594 200.558594 14.515625 C 200.5 14.058594 200.441406 13.597656 200.378906 13.140625 C 200.34375 12.890625 200.023438 12.75 199.800781 12.8125 C 199.53125 12.886719 199.4375 13.136719 199.472656 13.390625 " fill-opacity="1" fill-rule="nonzero"/><path fill="#c62328" d="M 256.097656 51.113281 C 256.070312 53.605469 256.207031 56.09375 256.390625 58.578125 C 256.5625 60.894531 256.8125 63.226562 257.433594 65.472656 C 257.949219 67.347656 258.714844 69.390625 260.46875 70.441406 C 261.28125 70.925781 262.261719 71.0625 263.148438 70.695312 C 264.203125 70.261719 264.945312 69.308594 265.484375 68.332031 C 266.003906 67.382812 266.347656 66.34375 266.597656 65.292969 C 266.859375 64.195312 267.0625 63.070312 267.21875 61.953125 C 267.558594 59.53125 267.601562 57.0625 267.335938 54.632812 C 267.09375 52.363281 266.59375 50.117188 265.746094 47.992188 C 265.324219 46.9375 264.828125 45.910156 264.242188 44.933594 C 263.6875 44.011719 263.070312 43.09375 262.289062 42.347656 C 261.585938 41.667969 260.722656 41.082031 259.730469 40.953125 C 258.691406 40.824219 257.664062 41.339844 257.105469 42.21875 C 256.511719 43.15625 256.484375 44.316406 256.386719 45.386719 C 256.273438 46.671875 256.1875 47.960938 256.140625 49.253906 C 256.117188 49.871094 256.101562 50.492188 256.097656 51.113281 C 256.089844 51.714844 257.027344 51.71875 257.035156 51.113281 C 257.050781 49.871094 257.09375 48.632812 257.171875 47.394531 C 257.210938 46.800781 257.253906 46.210938 257.308594 45.617188 C 257.355469 45.0625 257.390625 44.449219 257.480469 43.933594 C 257.621094 43.101562 257.976562 42.289062 258.789062 41.984375 C 259.558594 41.695312 260.324219 42.003906 261.007812 42.488281 C 261.734375 43.003906 262.308594 43.71875 262.792969 44.421875 C 263.417969 45.328125 263.960938 46.289062 264.425781 47.289062 C 265.332031 49.238281 265.914062 51.339844 266.242188 53.464844 C 266.589844 55.671875 266.648438 57.9375 266.476562 60.164062 C 266.386719 61.292969 266.214844 62.398438 266.007812 63.507812 C 265.820312 64.523438 265.605469 65.539062 265.265625 66.515625 C 264.9375 67.441406 264.480469 68.363281 263.8125 69.089844 C 263.511719 69.414062 263.144531 69.710938 262.734375 69.855469 C 262.351562 69.988281 261.992188 70.007812 261.636719 69.917969 C 260.910156 69.742188 260.273438 69.183594 259.8125 68.59375 C 259.550781 68.257812 259.328125 67.886719 259.144531 67.507812 C 259.042969 67.300781 259.007812 67.214844 258.921875 66.988281 C 258.820312 66.730469 258.730469 66.472656 258.640625 66.214844 C 257.949219 64.140625 257.628906 61.96875 257.429688 59.796875 C 257.222656 57.507812 257.082031 55.203125 257.042969 52.902344 C 257.03125 52.304688 257.03125 51.707031 257.035156 51.113281 C 257.039062 50.507812 256.101562 50.503906 256.097656 51.113281 " fill-opacity="1" fill-rule="nonzero"/><path fill="#c62328" d="M 259.34375 69.273438 C 257.4375 79.734375 256.992188 90.371094 256.027344 100.9375 C 255.535156 106.292969 254.761719 111.589844 253.988281 116.90625 C 253.25 122.019531 252.992188 127.140625 252.539062 132.277344 C 252.308594 134.890625 251.90625 137.445312 251.261719 139.988281 C 250.648438 142.398438 249.917969 144.78125 249.414062 147.21875 C 248.375 152.210938 248.5625 157.304688 249.226562 162.335938 C 249.902344 167.449219 251.019531 172.488281 251.703125 177.601562 C 252.238281 181.65625 252.484375 185.75 252.699219 189.832031 C 253.160156 198.457031 253.324219 207.097656 253.472656 215.730469 C 253.488281 216.636719 253.503906 217.542969 253.519531 218.449219 C 253.527344 219.054688 254.46875 219.054688 254.460938 218.449219 C 254.3125 210.015625 254.175781 201.582031 253.804688 193.152344 C 253.625 189.089844 253.398438 185.023438 253.019531 180.972656 C 252.5625 176.117188 251.617188 171.335938 250.808594 166.53125 C 249.960938 161.476562 249.292969 156.328125 249.757812 151.199219 C 250.226562 146.058594 252.238281 141.253906 253.03125 136.175781 C 253.816406 131.167969 253.792969 126.066406 254.378906 121.035156 C 254.988281 115.832031 255.9375 110.671875 256.511719 105.460938 C 257.691406 94.800781 258 84.054688 259.597656 73.441406 C 259.792969 72.132812 260.011719 70.824219 260.25 69.523438 C 260.355469 68.929688 259.449219 68.679688 259.34375 69.273438 " fill-opacity="1" fill-rule="nonzero"/><path fill="#c62328" d="M 238.414062 98.566406 C 238.410156 99.550781 238.921875 100.492188 239.910156 100.78125 C 240.914062 101.074219 241.9375 100.609375 242.53125 99.792969 C 243.109375 98.996094 243.269531 97.820312 242.683594 96.984375 C 242.128906 96.191406 241.167969 95.824219 240.226562 96.070312 C 239.085938 96.367188 238.445312 97.433594 238.414062 98.566406 C 238.398438 99.171875 239.339844 99.171875 239.355469 98.566406 C 239.371094 97.941406 239.644531 97.332031 240.246094 97.054688 C 240.769531 96.8125 241.382812 96.933594 241.777344 97.347656 C 241.957031 97.539062 242.078125 97.777344 242.109375 98.070312 C 242.140625 98.417969 242.042969 98.773438 241.882812 99.058594 C 241.585938 99.597656 241.035156 99.984375 240.386719 99.917969 C 240.097656 99.890625 239.78125 99.726562 239.628906 99.519531 C 239.417969 99.230469 239.355469 98.914062 239.355469 98.566406 C 239.359375 97.960938 238.417969 97.960938 238.414062 98.566406 " fill-opacity="1" fill-rule="nonzero"/><path fill="#c62328" d="M 225.546875 80.222656 C 228.207031 79.453125 230.960938 78.972656 233.738281 79.054688 C 236.179688 79.128906 238.625 79.667969 240.8125 80.777344 C 242.003906 81.382812 243.101562 82.144531 244.0625 83.074219 C 244.496094 83.496094 245.164062 82.832031 244.726562 82.410156 C 242.921875 80.65625 240.644531 79.453125 238.222656 78.777344 C 235.585938 78.042969 232.800781 77.957031 230.09375 78.304688 C 228.472656 78.515625 226.871094 78.863281 225.296875 79.316406 C 224.71875 79.484375 224.964844 80.394531 225.546875 80.222656 " fill-opacity="1" fill-rule="nonzero"/><path fill="#c62328" d="M 151.613281 94.902344 C 152.121094 92.582031 153.433594 90.359375 155.226562 88.792969 C 155.621094 88.449219 156.046875 88.144531 156.542969 87.890625 C 156.769531 87.777344 156.835938 87.457031 156.710938 87.246094 C 156.578125 87.015625 156.296875 86.960938 156.070312 87.078125 C 155.089844 87.574219 154.246094 88.34375 153.53125 89.164062 C 152.679688 90.148438 151.960938 91.261719 151.4375 92.453125 C 151.125 93.164062 150.871094 93.894531 150.707031 94.652344 C 150.652344 94.898438 150.78125 95.160156 151.035156 95.230469 C 151.269531 95.296875 151.558594 95.152344 151.613281 94.902344 " fill-opacity="1" fill-rule="nonzero"/><path fill="#c62328" d="M 167.023438 48.484375 C 168.164062 49.46875 169.46875 50.210938 170.886719 50.710938 C 172.316406 51.214844 173.8125 51.496094 175.269531 51.902344 C 178.011719 52.660156 180.648438 53.765625 183.117188 55.179688 C 184.5 55.96875 185.832031 56.855469 187.089844 57.835938 C 187.289062 57.992188 187.558594 58.03125 187.753906 57.835938 C 187.917969 57.671875 187.957031 57.328125 187.753906 57.171875 C 185.480469 55.398438 183.007812 53.902344 180.371094 52.738281 C 179.046875 52.152344 177.691406 51.640625 176.304688 51.21875 C 174.871094 50.785156 173.402344 50.496094 171.964844 50.074219 C 170.394531 49.605469 168.933594 48.894531 167.6875 47.820312 C 167.496094 47.65625 167.210938 47.628906 167.023438 47.820312 C 166.851562 47.988281 166.828125 48.320312 167.023438 48.484375 " fill-opacity="1" fill-rule="nonzero"/><path fill="#c62328" d="M 191.914062 53.078125 C 193.976562 50.375 196.347656 47.894531 198.945312 45.699219 C 199.671875 45.082031 200.417969 44.488281 201.1875 43.921875 C 201.386719 43.769531 201.492188 43.511719 201.355469 43.277344 C 201.234375 43.074219 200.914062 42.953125 200.710938 43.109375 C 197.894531 45.199219 195.304688 47.589844 193.007812 50.246094 C 192.347656 51.011719 191.714844 51.800781 191.101562 52.605469 C 190.949219 52.808594 191.070312 53.128906 191.269531 53.246094 C 191.511719 53.390625 191.761719 53.28125 191.914062 53.078125 " fill-opacity="1" fill-rule="nonzero"/><g clip-path="url(#00770a5d34)"><path fill="#c62328" d="M 163.285156 15.726562 C 163.433594 16.035156 163.671875 16.296875 163.957031 16.484375 C 164.253906 16.679688 164.621094 16.769531 164.953125 16.878906 C 165.660156 17.117188 166.371094 17.335938 167.085938 17.539062 C 168.527344 17.945312 169.988281 18.277344 171.464844 18.542969 C 174.425781 19.070312 177.433594 19.328125 180.441406 19.304688 C 183.457031 19.285156 186.464844 18.988281 189.425781 18.4375 C 190.898438 18.164062 192.367188 17.824219 193.8125 17.417969 C 195.28125 17.003906 196.742188 16.507812 198.105469 15.816406 C 199.066406 15.328125 199.839844 14.539062 200.226562 13.527344 C 200.570312 12.613281 200.5 11.589844 200.121094 10.699219 C 199.109375 8.332031 196.324219 7.691406 194.019531 7.410156 C 192.617188 7.242188 191.199219 7.148438 189.789062 7.066406 C 188.164062 6.972656 186.535156 6.957031 184.902344 7.015625 C 182.269531 7.109375 179.636719 7.433594 177.042969 7.882812 C 174.417969 8.339844 171.824219 8.945312 169.324219 9.863281 C 167.894531 10.390625 166.480469 10.988281 165.128906 11.699219 C 164.234375 12.167969 163.28125 12.863281 163.035156 13.90625 C 162.886719 14.535156 163.023438 15.148438 163.285156 15.726562 C 163.390625 15.957031 163.722656 16.015625 163.925781 15.894531 C 164.164062 15.757812 164.203125 15.484375 164.09375 15.25 C 163.878906 14.777344 163.84375 14.355469 164.015625 13.914062 C 163.988281 13.980469 164.054688 13.835938 164.066406 13.816406 C 164.089844 13.769531 164.113281 13.722656 164.144531 13.679688 C 164.222656 13.550781 164.21875 13.5625 164.304688 13.460938 C 164.382812 13.371094 164.464844 13.285156 164.550781 13.207031 C 164.59375 13.171875 164.636719 13.132812 164.675781 13.101562 C 164.699219 13.078125 164.726562 13.058594 164.75 13.039062 C 164.714844 13.070312 164.753906 13.039062 164.769531 13.027344 C 165.1875 12.710938 165.652344 12.476562 166.121094 12.25 C 166.78125 11.925781 167.449219 11.617188 168.128906 11.335938 C 170.550781 10.332031 173.058594 9.617188 175.625 9.101562 C 178.113281 8.601562 180.632812 8.238281 183.164062 8.050781 C 184.566406 7.945312 185.976562 7.910156 187.386719 7.925781 C 188.878906 7.941406 190.363281 8.046875 191.847656 8.15625 C 193.148438 8.253906 194.453125 8.347656 195.722656 8.652344 C 196.8125 8.914062 197.890625 9.328125 198.632812 10.121094 C 198.816406 10.316406 198.875 10.390625 199.011719 10.605469 C 199.066406 10.695312 199.117188 10.785156 199.167969 10.875 C 199.191406 10.921875 199.214844 10.96875 199.238281 11.015625 C 199.25 11.042969 199.261719 11.066406 199.277344 11.09375 C 199.308594 11.171875 199.265625 11.074219 199.285156 11.121094 C 199.363281 11.320312 199.425781 11.527344 199.464844 11.738281 C 199.476562 11.789062 199.484375 11.835938 199.492188 11.886719 C 199.476562 11.792969 199.496094 11.921875 199.5 11.949219 C 199.507812 12.0625 199.511719 12.171875 199.511719 12.285156 C 199.511719 12.390625 199.503906 12.496094 199.492188 12.601562 C 199.484375 12.683594 199.503906 12.546875 199.484375 12.664062 C 199.472656 12.71875 199.464844 12.773438 199.453125 12.828125 C 199.429688 12.929688 199.398438 13.035156 199.367188 13.136719 C 199.351562 13.183594 199.332031 13.230469 199.316406 13.277344 C 199.308594 13.296875 199.300781 13.316406 199.296875 13.335938 C 199.324219 13.257812 199.289062 13.347656 199.28125 13.363281 C 199.074219 13.808594 198.878906 14.074219 198.527344 14.394531 C 198.335938 14.574219 198.214844 14.664062 197.980469 14.804688 C 197.71875 14.96875 197.433594 15.101562 197.152344 15.230469 C 196.496094 15.535156 195.816406 15.796875 195.128906 16.027344 C 193.757812 16.492188 192.347656 16.855469 190.9375 17.167969 C 188.148438 17.792969 185.308594 18.175781 182.453125 18.308594 C 179.574219 18.445312 176.679688 18.332031 173.820312 17.960938 C 170.992188 17.59375 168.191406 16.953125 165.476562 16.0625 C 165.1875 15.96875 164.828125 15.875 164.582031 15.757812 C 164.347656 15.644531 164.210938 15.484375 164.09375 15.25 C 163.984375 15.023438 163.660156 14.960938 163.453125 15.082031 C 163.21875 15.21875 163.171875 15.496094 163.285156 15.726562 " fill-opacity="1" fill-rule="nonzero"/></g><path fill="#c62328" d="M 154.941406 125.335938 C 155.121094 129.46875 155.296875 133.597656 155.472656 137.730469 C 155.5625 139.796875 155.648438 141.863281 155.738281 143.925781 C 155.824219 145.980469 155.953125 148.039062 155.882812 150.09375 C 155.746094 154.027344 154.488281 157.679688 152.769531 161.1875 C 151.03125 164.746094 149.046875 168.1875 147.160156 171.664062 C 143.183594 178.980469 139.210938 186.296875 135.238281 193.609375 C 131.46875 200.546875 127.566406 207.429688 123.96875 214.460938 C 120.789062 220.679688 118.152344 227.195312 117.441406 234.203125 C 117.347656 235.121094 117.289062 236.039062 117.257812 236.960938 C 117.234375 237.566406 118.175781 237.566406 118.195312 236.960938 C 118.445312 229.78125 120.777344 223.039062 123.925781 216.640625 C 125.546875 213.347656 127.324219 210.140625 129.078125 206.921875 C 131.046875 203.292969 133.015625 199.671875 134.984375 196.046875 C 138.957031 188.730469 142.933594 181.414062 146.90625 174.097656 C 148.84375 170.53125 150.828125 166.980469 152.710938 163.382812 C 154.417969 160.117188 155.976562 156.691406 156.550781 153.023438 C 157.179688 149.015625 156.71875 144.859375 156.546875 140.828125 C 156.371094 136.699219 156.191406 132.566406 156.015625 128.4375 C 155.972656 127.402344 155.929688 126.371094 155.882812 125.335938 C 155.859375 124.734375 154.917969 124.730469 154.941406 125.335938 " fill-opacity="1" fill-rule="nonzero"/><path fill="#c62328" d="M 200.785156 123.300781 C 200.695312 126.117188 200.550781 128.933594 200.351562 131.742188 C 200.15625 134.554688 199.902344 137.363281 199.59375 140.160156 C 199.289062 142.949219 198.929688 145.730469 198.511719 148.503906 C 198.09375 151.300781 197.621094 154.09375 197.09375 156.875 C 196.570312 159.644531 195.988281 162.402344 195.355469 165.148438 C 195.277344 165.488281 195.199219 165.828125 195.121094 166.167969 C 194.980469 166.757812 195.886719 167.007812 196.027344 166.417969 C 196.675781 163.664062 197.269531 160.894531 197.8125 158.113281 C 198.351562 155.332031 198.839844 152.542969 199.269531 149.746094 C 199.703125 146.933594 200.085938 144.113281 200.410156 141.285156 C 200.730469 138.472656 201 135.652344 201.214844 132.828125 C 201.429688 130.003906 201.585938 127.175781 201.691406 124.347656 C 201.703125 124 201.714844 123.648438 201.722656 123.300781 C 201.742188 122.695312 200.800781 122.695312 200.785156 123.300781 " fill-opacity="1" fill-rule="nonzero"/><path fill="#c62328" d="M 163.195312 183.980469 C 162.042969 185.652344 161.457031 187.636719 161.160156 189.628906 C 160.855469 191.707031 160.78125 193.824219 160.839844 195.917969 C 160.953125 200.183594 161.699219 204.433594 163.042969 208.476562 C 163.796875 210.75 164.742188 212.964844 165.859375 215.082031 C 165.980469 215.308594 166.292969 215.375 166.503906 215.25 C 166.730469 215.121094 166.792969 214.832031 166.671875 214.609375 C 164.730469 210.925781 163.34375 206.964844 162.546875 202.882812 C 161.761719 198.855469 161.519531 194.660156 161.976562 190.578125 C 162.222656 188.425781 162.765625 186.257812 164.007812 184.453125 C 164.152344 184.246094 164.046875 183.933594 163.839844 183.8125 C 163.609375 183.675781 163.339844 183.769531 163.195312 183.980469 " fill-opacity="1" fill-rule="nonzero"/><path fill="#c62328" d="M 224.441406 186.550781 C 224.375 191.359375 224.058594 196.1875 223.050781 200.898438 C 222.144531 205.121094 220.679688 209.234375 218.441406 212.9375 C 217.222656 214.953125 215.78125 216.828125 214.105469 218.492188 C 213.675781 218.917969 214.339844 219.582031 214.773438 219.15625 C 217.839844 216.109375 220.128906 212.371094 221.757812 208.382812 C 223.523438 204.054688 224.460938 199.4375 224.941406 194.800781 C 225.222656 192.0625 225.34375 189.308594 225.382812 186.550781 C 225.390625 185.949219 224.449219 185.945312 224.441406 186.550781 " fill-opacity="1" fill-rule="nonzero"/><path fill="#c62328" d="M 115.640625 233.769531 C 113.558594 236.292969 112.171875 239.359375 111.132812 242.4375 C 110.070312 245.59375 109.335938 248.921875 109.195312 252.257812 C 109.070312 255.351562 109.632812 259.226562 112.671875 260.835938 C 114.367188 261.734375 116.355469 261.660156 118.195312 261.363281 C 120.277344 261.027344 122.320312 260.449219 124.316406 259.785156 C 128.390625 258.425781 132.292969 256.609375 136.25 254.945312 C 139.136719 253.730469 142.066406 252.617188 145.023438 251.566406 C 151.480469 249.273438 158.058594 247.261719 164.726562 245.664062 C 167.679688 244.957031 170.660156 244.328125 173.667969 243.886719 C 175.945312 243.554688 178.273438 243.300781 180.574219 243.417969 C 180.980469 243.4375 181.46875 243.480469 181.804688 243.527344 C 182.058594 243.566406 182.308594 243.464844 182.382812 243.199219 C 182.445312 242.980469 182.304688 242.65625 182.054688 242.621094 C 179.96875 242.320312 177.835938 242.453125 175.75 242.679688 C 172.949219 242.984375 170.171875 243.492188 167.417969 244.085938 C 160.871094 245.496094 154.421875 247.382812 148.078125 249.515625 C 145.03125 250.542969 142.003906 251.632812 139.011719 252.8125 C 135.523438 254.1875 132.117188 255.75 128.644531 257.164062 C 126.679688 257.964844 124.695312 258.710938 122.664062 259.324219 C 120.753906 259.898438 118.761719 260.453125 116.769531 260.597656 C 115.003906 260.726562 113.183594 260.433594 111.929688 259.085938 C 110.84375 257.921875 110.359375 256.269531 110.195312 254.714844 C 109.867188 251.609375 110.457031 248.363281 111.242188 245.367188 C 112.082031 242.152344 113.28125 238.960938 115.074219 236.148438 C 115.449219 235.554688 115.855469 234.980469 116.304688 234.433594 C 116.6875 233.972656 116.027344 233.300781 115.640625 233.769531 " fill-opacity="1" fill-rule="nonzero"/><g clip-path="url(#2a612b1469)"><path fill="#c62328" d="M 110.832031 258.949219 C 109.539062 261.234375 108.796875 263.804688 108.265625 266.359375 C 107.660156 269.273438 107.328125 272.246094 107.132812 275.210938 C 106.945312 278.066406 106.882812 280.929688 106.910156 283.789062 C 106.921875 285.0625 106.894531 286.355469 107.015625 287.625 C 107.082031 288.355469 107.242188 289.101562 107.71875 289.683594 C 108.253906 290.332031 109.0625 290.535156 109.867188 290.601562 C 111.707031 290.742188 113.589844 290.605469 115.417969 290.367188 C 117.304688 290.121094 119.167969 289.726562 121.003906 289.234375 C 124.671875 288.242188 128.21875 286.867188 131.75 285.492188 C 135.453125 284.046875 139.160156 282.617188 142.855469 281.15625 C 144.640625 280.449219 146.421875 279.71875 148.144531 278.867188 C 149.84375 278.027344 151.46875 277.054688 153.019531 275.972656 C 156.109375 273.820312 158.929688 271.316406 161.882812 268.984375 C 164.757812 266.707031 167.699219 264.511719 170.574219 262.226562 C 171.328125 261.625 172.078125 261.015625 172.820312 260.402344 C 173.289062 260.015625 172.621094 259.355469 172.15625 259.738281 C 169.332031 262.066406 166.414062 264.28125 163.515625 266.523438 C 162.058594 267.648438 160.613281 268.78125 159.183594 269.945312 C 157.742188 271.117188 156.320312 272.316406 154.855469 273.457031 C 153.4375 274.554688 151.980469 275.605469 150.445312 276.535156 C 148.84375 277.507812 147.160156 278.335938 145.441406 279.082031 C 141.929688 280.609375 138.316406 281.925781 134.75 283.316406 C 131.234375 284.6875 127.730469 286.113281 124.148438 287.300781 C 120.65625 288.453125 117.054688 289.382812 113.375 289.632812 C 112.449219 289.695312 111.519531 289.71875 110.589844 289.691406 C 109.867188 289.671875 108.953125 289.695312 108.441406 289.089844 C 108.015625 288.578125 107.957031 287.832031 107.925781 287.199219 C 107.898438 286.609375 107.890625 286.019531 107.875 285.433594 C 107.820312 282.730469 107.835938 280.027344 107.957031 277.328125 C 108.085938 274.398438 108.332031 271.472656 108.808594 268.582031 C 109.238281 265.976562 109.828125 263.339844 110.898438 260.921875 C 111.121094 260.410156 111.371094 259.910156 111.644531 259.425781 C 111.941406 258.898438 111.128906 258.421875 110.832031 258.949219 " fill-opacity="1" fill-rule="nonzero"/></g><path fill="#c62328" d="M 110.652344 290.390625 C 109.65625 294.183594 110.785156 298.414062 111.9375 302.042969 C 112.535156 303.921875 113.199219 305.800781 114.015625 307.59375 C 115.011719 309.78125 116.28125 311.824219 117.332031 313.984375 C 119.582031 318.628906 119.722656 323.589844 119.644531 328.652344 C 119.574219 333.363281 119.570312 338.042969 121.035156 342.574219 C 122.335938 346.601562 124.535156 350.339844 127.433594 353.429688 C 128.167969 354.210938 128.941406 354.972656 129.78125 355.648438 C 130.449219 356.183594 131.222656 356.507812 132.050781 356.132812 C 133.710938 355.371094 134.351562 353.070312 135 351.546875 C 139.046875 342.03125 145.261719 333.6875 150.097656 324.582031 C 151.339844 322.25 152.507812 319.882812 153.671875 317.511719 C 154.769531 315.273438 156.195312 313.222656 157.46875 311.085938 C 159.988281 306.851562 161.363281 302.171875 162.464844 297.402344 C 164.71875 287.640625 166.789062 277.8125 169.941406 268.289062 C 172.855469 259.484375 176.730469 250.960938 182.292969 243.5 C 187.390625 236.660156 193.910156 230.765625 201.679688 227.136719 C 206.230469 225.015625 211.121094 223.722656 216.039062 222.804688 C 221.167969 221.84375 226.359375 221.21875 231.546875 220.679688 C 236.871094 220.125 242.195312 219.78125 247.539062 219.566406 C 248.875 219.511719 250.214844 219.457031 251.550781 219.394531 C 252.570312 219.34375 253.617188 219.34375 254.621094 219.148438 C 256.03125 218.875 257.558594 217.839844 257.265625 216.191406 C 257.003906 214.71875 255.277344 214.082031 254.039062 213.65625 C 253.464844 213.457031 253.21875 214.367188 253.789062 214.5625 C 254.503906 214.808594 255.277344 215.078125 255.851562 215.589844 C 256.542969 216.203125 256.472656 217.15625 255.734375 217.714844 C 255.089844 218.203125 254.195312 218.300781 253.414062 218.355469 C 252.125 218.4375 250.835938 218.488281 249.542969 218.542969 C 244.386719 218.761719 239.242188 219 234.101562 219.484375 C 229.085938 219.960938 224.070312 220.546875 219.089844 221.328125 C 214.34375 222.078125 209.613281 223.074219 205.085938 224.722656 C 197.214844 227.585938 190.386719 232.59375 184.863281 238.851562 C 179.210938 245.246094 174.980469 252.730469 171.765625 260.609375 C 168.066406 269.667969 165.679688 279.1875 163.480469 288.699219 C 162.40625 293.34375 161.523438 298.0625 160.128906 302.625 C 159.421875 304.941406 158.542969 307.207031 157.386719 309.335938 C 156.21875 311.488281 154.800781 313.488281 153.605469 315.621094 C 152.394531 317.78125 151.390625 320.0625 150.253906 322.265625 C 149.105469 324.484375 147.914062 326.683594 146.667969 328.851562 C 144.167969 333.210938 141.386719 337.402344 138.871094 341.757812 C 137.628906 343.90625 136.449219 346.089844 135.394531 348.339844 C 134.890625 349.425781 134.417969 350.523438 133.953125 351.628906 C 133.578125 352.507812 133.246094 353.417969 132.714844 354.222656 C 132.472656 354.589844 132.179688 354.96875 131.800781 355.203125 C 131.183594 355.574219 130.652344 355.160156 130.179688 354.757812 C 129.390625 354.085938 128.644531 353.355469 127.941406 352.59375 C 126.480469 351.011719 125.214844 349.257812 124.160156 347.382812 C 122.007812 343.554688 120.855469 339.320312 120.621094 334.949219 C 120.367188 330.160156 120.933594 325.34375 120.289062 320.574219 C 119.976562 318.273438 119.34375 316.078125 118.363281 313.972656 C 117.386719 311.875 116.171875 309.898438 115.15625 307.816406 C 113.402344 304.210938 112.078125 300.128906 111.46875 296.164062 C 111.191406 294.34375 111.085938 292.433594 111.5625 290.640625 C 111.714844 290.054688 110.804688 289.804688 110.652344 290.390625 " fill-opacity="1" fill-rule="nonzero"/><path fill="#c62328" d="M 257.816406 225.285156 C 250.558594 225.371094 243.316406 225.957031 236.128906 226.957031 C 229.289062 227.90625 222.378906 229.109375 215.757812 231.097656 C 204.050781 234.609375 193.097656 241.148438 186.160156 251.421875 C 179.296875 261.589844 176.683594 273.839844 173.5 285.488281 C 171.835938 291.570312 169.988281 297.613281 167.355469 303.355469 C 164.46875 309.644531 161.070312 315.71875 157.742188 321.78125 C 151.273438 333.570312 144.480469 345.324219 136.308594 356.03125 C 135.414062 357.203125 134.496094 358.359375 133.558594 359.496094 C 133.175781 359.960938 133.839844 360.628906 134.222656 360.160156 C 142.554688 350.054688 149.339844 338.6875 155.75 327.304688 C 159.054688 321.433594 162.265625 315.507812 165.363281 309.53125 C 166.980469 306.410156 168.515625 303.246094 169.820312 299.980469 C 170.957031 297.140625 171.925781 294.238281 172.8125 291.3125 C 176.3125 279.734375 178.421875 267.53125 184.09375 256.730469 C 186.945312 251.304688 190.730469 246.480469 195.46875 242.574219 C 200.277344 238.605469 205.863281 235.613281 211.695312 233.449219 C 217.878906 231.152344 224.382812 229.820312 230.871094 228.714844 C 238.058594 227.488281 245.328125 226.691406 252.617188 226.367188 C 254.347656 226.292969 256.082031 226.246094 257.816406 226.226562 C 258.421875 226.21875 258.421875 225.277344 257.816406 225.285156 " fill-opacity="1" fill-rule="nonzero"/><path fill="#c62328" d="M 129.871094 355.726562 C 136.183594 368.046875 152.285156 362.453125 162.625 360.261719 C 177.191406 357.179688 192.042969 355.6875 206.894531 354.8125 C 210.578125 354.59375 214.28125 354.332031 217.976562 354.34375 C 221.730469 354.355469 225.304688 354.925781 228.898438 356.011719 C 232.398438 357.074219 235.859375 358.164062 239.453125 358.878906 C 242.894531 359.5625 246.386719 360 249.890625 360.183594 C 253.46875 360.367188 257.125 360.363281 260.679688 359.917969 C 262.160156 359.730469 263.628906 359.355469 264.824219 358.414062 C 265.863281 357.597656 266.59375 356.464844 267.046875 355.234375 C 268.132812 352.273438 267.445312 348.839844 266.972656 345.820312 C 266.414062 342.269531 265.660156 338.753906 265.148438 335.195312 C 264.0625 327.683594 263.523438 320.082031 262.949219 312.515625 C 262.417969 305.472656 261.738281 298.492188 260.550781 291.53125 C 259.515625 285.457031 258.199219 279.355469 255.636719 273.726562 C 254.386719 270.976562 252.828125 268.339844 250.863281 266.039062 C 248.902344 263.746094 246.503906 261.839844 243.917969 260.292969 C 232.699219 253.574219 218.128906 252.707031 205.992188 257.34375 C 200.585938 259.410156 195.574219 262.519531 191.355469 266.488281 C 189.246094 268.472656 187.339844 270.675781 185.683594 273.054688 C 183.925781 275.589844 182.523438 278.339844 181.257812 281.144531 C 175.546875 293.785156 173.078125 307.566406 170.40625 321.085938 C 169.214844 327.121094 168.054688 333.152344 166.261719 339.046875 C 164.605469 344.480469 162.613281 349.878906 159.929688 354.898438 C 158.808594 356.996094 157.558594 359.050781 156.019531 360.871094 C 155.628906 361.332031 156.292969 362 156.683594 361.535156 C 159.964844 357.660156 162.15625 352.890625 164.035156 348.214844 C 166.042969 343.238281 167.675781 338.089844 168.917969 332.871094 C 170.492188 326.261719 171.644531 319.554688 172.992188 312.902344 C 174.332031 306.300781 175.777344 299.707031 177.75 293.261719 C 179.648438 287.046875 181.960938 280.734375 185.40625 275.191406 C 188.4375 270.3125 192.5625 266.140625 197.308594 262.917969 C 207.875 255.75 221.300781 253.589844 233.609375 256.976562 C 239.605469 258.628906 245.527344 261.535156 249.757812 266.203125 C 253.84375 270.714844 256.148438 276.636719 257.6875 282.441406 C 261.1875 295.679688 261.695312 309.453125 262.875 323.023438 C 263.199219 326.6875 263.546875 330.347656 264.039062 333.992188 C 264.515625 337.523438 265.199219 341.011719 265.808594 344.523438 C 266.113281 346.285156 266.382812 348.058594 266.535156 349.839844 C 266.667969 351.351562 266.757812 352.851562 266.347656 354.332031 C 265.976562 355.675781 265.242188 356.960938 264.097656 357.792969 C 262.738281 358.78125 261.003906 358.972656 259.378906 359.105469 C 252.289062 359.679688 245.121094 359.1875 238.175781 357.652344 C 234.683594 356.878906 231.328125 355.707031 227.894531 354.738281 C 224.472656 353.773438 221.007812 353.382812 217.453125 353.402344 C 213.886719 353.421875 210.316406 353.667969 206.761719 353.878906 C 203.164062 354.089844 199.574219 354.339844 195.984375 354.640625 C 188.773438 355.238281 181.574219 356.042969 174.421875 357.15625 C 170.828125 357.714844 167.242188 358.351562 163.675781 359.085938 C 160.148438 359.808594 156.65625 360.699219 153.132812 361.457031 C 147.699219 362.625 141.277344 363.476562 136.101562 360.839844 C 133.695312 359.613281 131.90625 357.640625 130.683594 355.253906 C 130.40625 354.714844 129.59375 355.1875 129.871094 355.726562 " fill-opacity="1" fill-rule="nonzero"/><path fill="#c62328" d="M 231.703125 266.558594 C 234.371094 267.210938 236.933594 268.234375 239.246094 269.722656 C 241.371094 271.09375 243.230469 272.835938 244.808594 274.808594 C 248.507812 279.414062 250.730469 285.148438 252.484375 290.722656 C 254.683594 297.710938 255.96875 304.96875 256.617188 312.257812 C 257.273438 319.625 257.160156 327.019531 257.382812 334.40625 C 257.605469 341.816406 258.152344 349.269531 259.960938 356.480469 C 260.191406 357.398438 260.441406 358.304688 260.710938 359.207031 C 260.882812 359.789062 261.789062 359.542969 261.617188 358.960938 C 259.445312 351.671875 258.695312 344.085938 258.394531 336.515625 C 258.101562 329.066406 258.265625 321.59375 257.714844 314.152344 C 257.164062 306.769531 256.007812 299.40625 253.941406 292.289062 C 252.976562 288.960938 251.820312 285.675781 250.414062 282.507812 C 249.316406 280.035156 248.039062 277.632812 246.457031 275.433594 C 243.359375 271.121094 239.132812 267.90625 234.070312 266.25 C 233.371094 266.023438 232.667969 265.828125 231.957031 265.652344 C 231.367188 265.507812 231.117188 266.414062 231.703125 266.558594 " fill-opacity="1" fill-rule="nonzero"/><path fill="#c62328" d="M 200.785156 278.828125 C 196.171875 281.949219 192.203125 285.917969 188.949219 290.429688 C 185.6875 294.945312 183.164062 299.96875 181.28125 305.203125 C 179.359375 310.539062 178.117188 316.109375 177.472656 321.742188 C 176.804688 327.570312 176.851562 333.453125 176.328125 339.292969 C 175.808594 345.054688 174.769531 350.96875 171.820312 356.027344 C 171.460938 356.644531 171.070312 357.246094 170.660156 357.828125 C 170.3125 358.324219 171.128906 358.796875 171.472656 358.304688 C 174.832031 353.542969 176.257812 347.792969 176.972656 342.085938 C 177.703125 336.222656 177.683594 330.308594 178.152344 324.425781 C 178.59375 318.84375 179.648438 313.300781 181.339844 307.960938 C 183.023438 302.644531 185.355469 297.523438 188.417969 292.851562 C 191.4375 288.253906 195.191406 284.105469 199.609375 280.8125 C 200.152344 280.410156 200.699219 280.019531 201.261719 279.640625 C 201.757812 279.300781 201.289062 278.488281 200.785156 278.828125 " fill-opacity="1" fill-rule="nonzero"/><path fill="#c62328" d="M 196.453125 309.207031 C 197.894531 306.964844 199.945312 305.207031 202.335938 304.039062 C 204.710938 302.875 207.363281 302.304688 209.996094 302.171875 C 212.703125 302.035156 215.429688 302.339844 218.050781 303.027344 C 220.699219 303.71875 223.1875 304.832031 225.515625 306.265625 C 227.851562 307.703125 229.96875 309.460938 231.828125 311.472656 C 233.640625 313.433594 235.1875 315.625 236.503906 317.949219 C 237.839844 320.3125 238.933594 322.804688 239.839844 325.359375 C 240.769531 327.992188 241.507812 330.691406 242.109375 333.417969 C 242.714844 336.160156 243.179688 338.929688 243.554688 341.714844 C 243.917969 344.414062 244.195312 347.125 244.425781 349.839844 C 244.480469 350.488281 244.535156 351.136719 244.582031 351.785156 C 244.605469 352.035156 244.785156 352.253906 245.054688 352.253906 C 245.292969 352.253906 245.542969 352.039062 245.523438 351.785156 C 245.308594 349.03125 245.058594 346.285156 244.726562 343.546875 C 244.386719 340.703125 243.964844 337.867188 243.410156 335.054688 C 242.859375 332.265625 242.179688 329.5 241.3125 326.792969 C 240.457031 324.117188 239.417969 321.496094 238.136719 319 C 236.882812 316.546875 235.386719 314.222656 233.625 312.101562 C 231.847656 309.960938 229.796875 308.058594 227.515625 306.457031 C 225.203125 304.832031 222.652344 303.503906 219.964844 302.613281 C 217.332031 301.738281 214.550781 301.261719 211.777344 301.207031 C 209.019531 301.148438 206.210938 301.519531 203.613281 302.476562 C 201.042969 303.421875 198.683594 304.9375 196.898438 307.035156 C 196.441406 307.570312 196.019531 308.140625 195.640625 308.730469 C 195.3125 309.242188 196.125 309.714844 196.453125 309.207031 " fill-opacity="1" fill-rule="nonzero"/><path fill="#c62328" d="M 192.496094 256.542969 C 196.847656 252.714844 201.3125 248.925781 206.496094 246.261719 C 211.828125 243.523438 217.761719 242.285156 223.695312 241.78125 C 230.097656 241.238281 236.515625 241.644531 242.929688 241.519531 C 244.519531 241.492188 246.109375 241.425781 247.699219 241.300781 C 249.175781 241.1875 250.675781 241.058594 252.128906 240.753906 C 254.550781 240.25 256.925781 239.230469 258.765625 237.550781 C 260.417969 236.042969 261.492188 234.058594 261.695312 231.824219 C 261.875 229.808594 261.265625 227.664062 259.738281 226.277344 C 259.34375 225.917969 258.902344 225.613281 258.425781 225.371094 C 257.890625 225.09375 257.414062 225.90625 257.953125 226.183594 C 259.734375 227.101562 260.710938 228.894531 260.78125 230.871094 C 260.855469 232.960938 260.015625 234.925781 258.574219 236.421875 C 256.882812 238.183594 254.582031 239.226562 252.230469 239.769531 C 250.871094 240.082031 249.476562 240.214844 248.09375 240.332031 C 246.507812 240.464844 244.917969 240.535156 243.324219 240.570312 C 237.027344 240.714844 230.722656 240.308594 224.433594 240.78125 C 218.585938 241.222656 212.726562 242.304688 207.382812 244.785156 C 202.203125 247.1875 197.703125 250.773438 193.414062 254.492188 C 192.882812 254.953125 192.355469 255.414062 191.828125 255.878906 C 191.375 256.28125 192.042969 256.945312 192.496094 256.542969 " fill-opacity="1" fill-rule="nonzero"/><path fill="#c62328" d="M 260.554688 234.058594 C 260.769531 234.28125 260.84375 234.378906 261.003906 234.621094 C 261.15625 234.851562 261.289062 235.097656 261.414062 235.347656 C 261.679688 235.894531 261.890625 236.496094 262.0625 237.117188 C 262.449219 238.515625 262.644531 239.964844 262.691406 241.410156 C 262.734375 242.769531 262.671875 244.121094 262.332031 245.417969 C 262.261719 245.6875 262.183594 245.949219 262.082031 246.203125 C 262.070312 246.234375 262.058594 246.261719 262.050781 246.289062 C 261.996094 246.421875 262.070312 246.246094 262.035156 246.324219 C 262.011719 246.375 261.988281 246.425781 261.964844 246.480469 C 261.90625 246.597656 261.84375 246.714844 261.773438 246.828125 C 261.335938 247.542969 260.679688 248.109375 260.0625 248.667969 C 259.371094 249.292969 258.679688 249.929688 258.1875 250.726562 C 257.671875 251.558594 257.414062 252.515625 257.359375 253.484375 C 257.25 255.480469 257.949219 257.441406 258.582031 259.300781 C 259.207031 261.140625 259.710938 262.976562 259.941406 264.910156 C 260.179688 266.910156 260.210938 268.933594 260.121094 270.945312 C 259.945312 275 259.289062 279.015625 258.59375 283.011719 C 258.511719 283.46875 258.429688 283.921875 258.351562 284.378906 C 258.308594 284.632812 258.417969 284.886719 258.679688 284.960938 C 258.90625 285.023438 259.214844 284.882812 259.257812 284.632812 C 259.964844 280.605469 260.675781 276.570312 260.972656 272.488281 C 261.261719 268.5 261.183594 264.363281 259.976562 260.515625 C 259.378906 258.605469 258.546875 256.710938 258.335938 254.703125 C 258.238281 253.765625 258.289062 252.820312 258.628906 251.933594 C 258.957031 251.082031 259.574219 250.402344 260.230469 249.789062 C 260.902344 249.15625 261.625 248.570312 262.199219 247.84375 C 262.589844 247.347656 262.871094 246.8125 263.078125 246.214844 C 263.511719 244.945312 263.628906 243.5625 263.644531 242.234375 C 263.65625 240.710938 263.503906 239.175781 263.171875 237.691406 C 262.894531 236.433594 262.488281 235.121094 261.75 234.046875 C 261.589844 233.816406 261.414062 233.59375 261.222656 233.390625 C 260.800781 232.953125 260.136719 233.621094 260.554688 234.058594 " fill-opacity="1" fill-rule="nonzero"/><path fill="#c62328" d="M 213.628906 253.042969 C 216.300781 251.746094 219.125 250.765625 222.019531 250.109375 C 224.90625 249.457031 227.859375 249.132812 230.8125 249.136719 C 233.785156 249.140625 236.75 249.476562 239.640625 250.152344 C 242.773438 250.886719 245.761719 252.097656 248.867188 252.929688 C 250.324219 253.320312 251.820312 253.648438 253.320312 253.824219 C 254.546875 253.96875 255.769531 253.917969 256.980469 253.675781 C 257.316406 253.605469 257.652344 253.523438 257.984375 253.433594 C 258.570312 253.277344 258.324219 252.371094 257.738281 252.527344 C 256.535156 252.851562 255.328125 253.027344 254.082031 252.953125 C 252.671875 252.867188 251.265625 252.554688 249.894531 252.21875 C 246.746094 251.457031 243.742188 250.21875 240.605469 249.417969 C 237.699219 248.679688 234.703125 248.277344 231.707031 248.207031 C 228.691406 248.136719 225.671875 248.40625 222.71875 249 C 219.777344 249.59375 216.90625 250.519531 214.171875 251.753906 C 213.828125 251.90625 213.492188 252.066406 213.152344 252.230469 C 212.925781 252.339844 212.863281 252.664062 212.984375 252.875 C 213.121094 253.105469 213.398438 253.152344 213.628906 253.042969 " fill-opacity="1" fill-rule="nonzero"/><path fill="#c62328" d="M 262.8125 242.738281 C 261.945312 243.847656 260.644531 244.539062 259.359375 245.117188 C 258.019531 245.71875 256.578125 246.128906 255.148438 246.523438 C 251.546875 247.511719 247.914062 248.503906 244.1875 248.890625 C 242.109375 249.109375 239.992188 249.144531 237.921875 248.84375 C 237.671875 248.804688 237.414062 248.90625 237.34375 249.171875 C 237.28125 249.394531 237.421875 249.710938 237.671875 249.75 C 241.539062 250.3125 245.457031 249.820312 249.25 248.996094 C 251.125 248.589844 252.980469 248.09375 254.828125 247.585938 C 256.339844 247.171875 257.84375 246.769531 259.292969 246.160156 C 260.113281 245.820312 260.921875 245.429688 261.675781 244.953125 C 262.339844 244.527344 262.988281 244.027344 263.476562 243.402344 C 263.636719 243.203125 263.671875 242.929688 263.476562 242.738281 C 263.316406 242.574219 262.96875 242.535156 262.8125 242.738281 " fill-opacity="1" fill-rule="nonzero"/><path fill="#c62328" d="M 107.796875 283.203125 C 112.539062 283.3125 117.261719 282.601562 121.839844 281.394531 C 126.421875 280.1875 130.863281 278.519531 135.277344 276.808594 C 139.640625 275.117188 144 273.417969 148.300781 271.566406 C 152.597656 269.714844 156.839844 267.722656 160.964844 265.511719 C 165.042969 263.324219 169.007812 260.914062 172.761719 258.210938 C 173.222656 257.878906 173.679688 257.542969 174.132812 257.203125 C 174.335938 257.050781 174.4375 256.800781 174.300781 256.558594 C 174.1875 256.359375 173.859375 256.238281 173.65625 256.390625 C 169.976562 259.152344 166.078125 261.609375 162.054688 263.84375 C 157.996094 266.097656 153.816406 268.117188 149.570312 269.992188 C 145.324219 271.867188 141.011719 273.570312 136.6875 275.253906 C 132.300781 276.964844 127.902344 278.675781 123.375 279.992188 C 118.886719 281.296875 114.265625 282.183594 109.578125 282.269531 C 108.984375 282.28125 108.390625 282.277344 107.796875 282.261719 C 107.191406 282.25 107.191406 283.191406 107.796875 283.203125 " fill-opacity="1" fill-rule="nonzero"/><path fill="#c62328" d="M 117.273438 237.214844 C 116.464844 238.902344 115.796875 240.671875 115.203125 242.445312 C 114.847656 243.507812 114.523438 244.582031 114.277344 245.675781 C 114.070312 246.59375 113.894531 247.546875 113.914062 248.488281 C 113.960938 250.675781 115.890625 252.082031 117.859375 252.582031 C 120.507812 253.25 123.304688 252.761719 125.949219 252.347656 C 132.394531 251.339844 138.707031 249.664062 144.960938 247.839844 C 151.199219 246.023438 157.394531 244.058594 163.695312 242.472656 C 169.980469 240.894531 176.382812 239.703125 182.871094 239.445312 C 183.667969 239.414062 184.464844 239.398438 185.265625 239.390625 C 185.871094 239.390625 185.871094 238.449219 185.265625 238.453125 C 178.882812 238.488281 172.550781 239.445312 166.339844 240.871094 C 160.152344 242.289062 154.082031 244.152344 148.003906 245.960938 C 141.871094 247.789062 135.707031 249.5625 129.417969 250.785156 C 127.851562 251.089844 126.28125 251.359375 124.703125 251.589844 C 123.378906 251.78125 122.046875 251.964844 120.707031 251.964844 C 119.511719 251.960938 118.277344 251.832031 117.167969 251.367188 C 116.6875 251.164062 116.226562 250.890625 115.84375 250.53125 C 115.664062 250.363281 115.492188 250.179688 115.347656 249.980469 C 115.269531 249.871094 115.199219 249.757812 115.136719 249.640625 C 115.105469 249.589844 114.980469 249.335938 115.007812 249.398438 C 114.757812 248.761719 114.835938 247.984375 114.933594 247.28125 C 115.070312 246.265625 115.328125 245.265625 115.613281 244.285156 C 116.175781 242.34375 116.875 240.429688 117.683594 238.574219 C 117.8125 238.277344 117.945312 237.984375 118.085938 237.691406 C 118.34375 237.148438 117.535156 236.671875 117.273438 237.214844 " fill-opacity="1" fill-rule="nonzero"/><path fill="#c62328" d="M 118.203125 229.769531 C 117.242188 230.339844 116.335938 230.933594 115.898438 232.011719 C 115.5 232.996094 115.578125 234.144531 115.941406 235.128906 C 116.835938 237.535156 119.179688 238.808594 121.625 239.09375 C 122.972656 239.253906 124.339844 239.144531 125.683594 238.992188 C 127.144531 238.820312 128.597656 238.617188 130.050781 238.394531 C 132.960938 237.949219 135.859375 237.410156 138.75 236.839844 C 144.523438 235.707031 150.269531 234.464844 156.089844 233.589844 C 159.050781 233.148438 162.035156 232.800781 165.027344 232.664062 C 168.027344 232.523438 171.027344 232.660156 174.019531 232.832031 C 179.703125 233.160156 185.464844 233.632812 191.117188 232.660156 C 191.824219 232.539062 192.527344 232.390625 193.222656 232.222656 C 193.8125 232.078125 193.5625 231.171875 192.972656 231.316406 C 187.605469 232.621094 182.027344 232.359375 176.558594 232.042969 C 173.675781 231.875 170.792969 231.679688 167.898438 231.667969 C 165.03125 231.652344 162.171875 231.867188 159.324219 232.210938 C 153.671875 232.886719 148.085938 234.011719 142.507812 235.132812 C 136.953125 236.25 131.386719 237.386719 125.753906 238.042969 C 123.285156 238.328125 120.378906 238.535156 118.324219 236.859375 C 116.769531 235.589844 115.757812 232.992188 117.449219 231.40625 C 117.8125 231.066406 118.253906 230.832031 118.679688 230.582031 C 119.199219 230.273438 118.726562 229.460938 118.203125 229.769531 " fill-opacity="1" fill-rule="nonzero"/><path fill="#c62328" d="M 169.234375 267.46875 C 166.046875 271.933594 162.738281 276.316406 159.550781 280.785156 C 156.925781 284.472656 154.179688 288.289062 150.496094 290.996094 C 146.675781 293.804688 141.851562 295.320312 137.121094 295.296875 C 135.898438 295.292969 134.683594 295.1875 133.484375 294.9375 C 132.257812 294.683594 131.058594 294.3125 129.867188 293.933594 C 127.824219 293.28125 125.796875 292.675781 123.660156 292.425781 C 121.691406 292.191406 119.6875 292.179688 117.71875 292.425781 C 115.730469 292.679688 113.75 293.171875 111.984375 294.144531 C 111.585938 294.363281 111.203125 294.609375 110.835938 294.882812 C 110.632812 295.035156 110.527344 295.289062 110.667969 295.527344 C 110.785156 295.726562 111.105469 295.847656 111.308594 295.695312 C 112.878906 294.53125 114.753906 293.890625 116.660156 293.535156 C 118.632812 293.167969 120.664062 293.113281 122.664062 293.269531 C 124.710938 293.425781 126.664062 293.910156 128.621094 294.523438 C 131.035156 295.28125 133.417969 296.054688 135.960938 296.203125 C 140.785156 296.484375 145.71875 295.167969 149.804688 292.605469 C 153.738281 290.136719 156.683594 286.355469 159.375 282.644531 C 162.523438 278.296875 165.699219 273.96875 168.84375 269.621094 C 169.242188 269.0625 169.644531 268.503906 170.046875 267.945312 C 170.191406 267.738281 170.082031 267.421875 169.878906 267.300781 C 169.640625 267.160156 169.382812 267.261719 169.234375 267.46875 " fill-opacity="1" fill-rule="nonzero"/><path fill="#c62328" d="M 122.246094 298.734375 C 121.90625 302.160156 122.296875 305.597656 122.863281 308.976562 C 123.4375 312.382812 124.207031 315.761719 124.601562 319.199219 C 124.808594 320.972656 124.90625 322.753906 124.964844 324.539062 C 125.023438 326.230469 125.089844 327.925781 125.027344 329.617188 C 124.914062 332.664062 124.414062 335.675781 124.089844 338.699219 C 123.746094 341.886719 123.648438 345.089844 124.164062 348.265625 C 124.234375 348.695312 124.316406 349.125 124.40625 349.550781 C 124.53125 350.144531 125.4375 349.894531 125.316406 349.300781 C 124.640625 346.132812 124.628906 342.898438 124.929688 339.683594 C 125.210938 336.667969 125.722656 333.675781 125.914062 330.648438 C 126.019531 329.015625 125.984375 327.382812 125.941406 325.742188 C 125.898438 323.972656 125.828125 322.199219 125.667969 320.4375 C 125.359375 316.972656 124.640625 313.570312 124.023438 310.152344 C 123.417969 306.816406 122.921875 303.429688 123.089844 300.027344 C 123.109375 299.59375 123.144531 299.164062 123.1875 298.734375 C 123.210938 298.480469 122.953125 298.261719 122.714844 298.261719 C 122.441406 298.261719 122.269531 298.480469 122.246094 298.734375 " fill-opacity="1" fill-rule="nonzero"/><path fill="#c62328" d="M 134.613281 299.429688 C 133.894531 303.316406 134.210938 307.261719 134.757812 311.148438 C 135.035156 313.113281 135.367188 315.066406 135.652344 317.027344 C 135.902344 318.730469 136.035156 320.445312 136.0625 322.164062 C 136.125 325.703125 135.78125 329.242188 135.234375 332.734375 C 134.671875 336.339844 133.898438 339.90625 133.0625 343.453125 C 132.246094 346.917969 131.367188 350.371094 130.570312 353.839844 C 130.480469 354.25 130.386719 354.65625 130.296875 355.066406 C 130.164062 355.65625 131.070312 355.90625 131.203125 355.316406 C 131.964844 351.882812 132.832031 348.476562 133.648438 345.058594 C 134.5 341.496094 135.308594 337.921875 135.925781 334.308594 C 136.527344 330.785156 136.957031 327.214844 137.007812 323.640625 C 137.03125 321.914062 136.964844 320.183594 136.78125 318.46875 C 136.574219 316.582031 136.242188 314.703125 135.953125 312.828125 C 135.355469 308.953125 134.839844 305.003906 135.304688 301.089844 C 135.359375 300.617188 135.433594 300.144531 135.519531 299.675781 C 135.566406 299.429688 135.453125 299.171875 135.191406 299.097656 C 134.960938 299.035156 134.660156 299.175781 134.613281 299.429688 " fill-opacity="1" fill-rule="nonzero"/><path fill="#c62328" d="M 162.96875 14.417969 C 162.851562 16.433594 162.953125 18.460938 163.386719 20.4375 C 163.871094 22.652344 164.53125 24.820312 164.972656 27.046875 C 165.394531 29.1875 165.863281 31.410156 165.835938 33.601562 C 165.828125 34.664062 165.660156 35.738281 165.203125 36.707031 C 164.75 37.671875 164.054688 38.511719 163.308594 39.269531 C 161.804688 40.808594 160.101562 42.191406 158.421875 43.539062 C 156.640625 44.96875 154.804688 46.320312 152.898438 47.574219 C 151.042969 48.796875 149.128906 49.933594 147.109375 50.875 C 145.128906 51.800781 143.082031 52.574219 141.039062 53.351562 C 137.175781 54.820312 133.230469 56.308594 129.875 58.777344 C 126.917969 60.953125 124.464844 63.75 122.679688 66.957031 C 118.410156 74.621094 117.851562 83.921875 118.40625 92.488281 C 118.996094 101.550781 120.75 110.492188 121.300781 119.554688 C 121.363281 120.621094 121.40625 121.6875 121.433594 122.75 C 121.445312 123.355469 122.386719 123.359375 122.371094 122.75 C 122.183594 113.730469 120.441406 104.820312 119.617188 95.851562 C 118.800781 87 118.757812 77.515625 122.554688 69.273438 C 124.101562 65.921875 126.328125 62.914062 129.15625 60.527344 C 132.363281 57.832031 136.238281 56.195312 140.113281 54.707031 C 144.191406 53.140625 148.226562 51.613281 151.949219 49.296875 C 155.726562 46.953125 159.25 44.214844 162.566406 41.261719 C 164.078125 39.914062 165.609375 38.425781 166.308594 36.476562 C 167.007812 34.550781 166.796875 32.445312 166.511719 30.464844 C 166.175781 28.15625 165.722656 25.863281 165.171875 23.601562 C 164.691406 21.628906 164.082031 19.710938 163.921875 17.675781 C 163.839844 16.589844 163.84375 15.503906 163.90625 14.417969 C 163.941406 13.8125 163 13.8125 162.96875 14.417969 " fill-opacity="1" fill-rule="nonzero"/><path fill="#c62328" d="M 175.238281 37.054688 C 176.945312 37.570312 178.667969 38.027344 180.40625 38.414062 C 182.117188 38.800781 183.875 39.097656 185.632812 38.894531 C 187.320312 38.699219 188.929688 38.15625 190.492188 37.503906 C 191.933594 36.902344 193.347656 36.21875 194.683594 35.402344 C 196.183594 34.484375 197.589844 33.402344 198.804688 32.132812 C 199.222656 31.695312 198.558594 31.03125 198.140625 31.46875 C 196.054688 33.644531 193.429688 35.210938 190.679688 36.40625 C 189.214844 37.046875 187.695312 37.617188 186.117188 37.882812 C 184.460938 38.164062 182.804688 37.964844 181.171875 37.625 C 179.257812 37.21875 177.359375 36.714844 175.488281 36.144531 C 174.910156 35.96875 174.660156 36.875 175.238281 37.054688 " fill-opacity="1" fill-rule="nonzero"/><path fill="#c62328" d="M 255.519531 218.574219 C 256.25 219.554688 256.792969 220.648438 257.101562 221.828125 C 257.40625 223.015625 257.46875 224.238281 257.355469 225.457031 C 257.332031 225.710938 257.589844 225.925781 257.824219 225.925781 C 258.101562 225.925781 258.273438 225.710938 258.296875 225.457031 C 258.539062 222.84375 257.90625 220.214844 256.332031 218.097656 C 256.179688 217.894531 255.921875 217.792969 255.6875 217.929688 C 255.484375 218.046875 255.367188 218.371094 255.519531 218.574219 " fill-opacity="1" fill-rule="nonzero"/></svg>