<svg xmlns="http://www.w3.org/2000/svg" xmlns:xlink="http://www.w3.org/1999/xlink" width="500" zoomAndPan="magnify" viewBox="0 0 375 374.999991" height="500" preserveAspectRatio="xMidYMid meet" version="1.0"><defs><clipPath id="40555a072c"><path d="M 145 5.597656 L 183 5.597656 L 183 19 L 145 19 Z M 145 5.597656 " clip-rule="nonzero"/></clipPath><clipPath id="be2ce53f82"><path d="M 132 250 L 270.78125 250 L 270.78125 365 L 132 365 Z M 132 250 " clip-rule="nonzero"/></clipPath><clipPath id="6c16a29511"><path d="M 104.28125 14 L 151 14 L 151 126 L 104.28125 126 Z M 104.28125 14 " clip-rule="nonzero"/></clipPath></defs><path fill="#c62328" d="M 146.4375 116.226562 C 146.824219 116.828125 146.957031 117.457031 146.957031 118.167969 C 146.953125 118.914062 146.8125 119.597656 146.59375 120.335938 C 146.375 121.0625 146.117188 121.714844 145.804688 122.375 C 145.480469 123.058594 145.117188 123.726562 144.703125 124.363281 C 142.894531 127.136719 140.210938 129.1875 137.328125 130.769531 C 134.304688 132.425781 131 133.554688 127.617188 134.183594 C 124.285156 134.800781 120.808594 134.824219 117.632812 133.546875 C 116.199219 132.96875 114.910156 132.121094 113.847656 131.015625 C 112.832031 129.960938 112.027344 128.671875 111.59375 127.289062 C 111.363281 126.5625 111.242188 125.898438 111.21875 125.164062 C 111.207031 124.828125 111.21875 124.492188 111.25 124.160156 C 111.253906 124.132812 111.28125 123.925781 111.265625 124.042969 C 111.273438 123.972656 111.285156 123.90625 111.296875 123.839844 C 111.320312 123.699219 111.347656 123.558594 111.382812 123.421875 C 111.445312 123.152344 111.527344 122.886719 111.621094 122.628906 C 111.644531 122.566406 111.667969 122.503906 111.691406 122.441406 C 111.703125 122.414062 111.714844 122.390625 111.722656 122.367188 C 111.679688 122.472656 111.734375 122.347656 111.738281 122.332031 C 111.792969 122.210938 111.847656 122.085938 111.910156 121.96875 C 112.039062 121.714844 112.183594 121.464844 112.335938 121.226562 C 112.40625 121.117188 112.476562 121.007812 112.554688 120.902344 C 112.589844 120.851562 112.625 120.800781 112.664062 120.75 C 112.6875 120.71875 112.710938 120.683594 112.738281 120.652344 C 112.742188 120.640625 112.828125 120.535156 112.761719 120.617188 C 113.125 120.160156 113.519531 119.734375 113.941406 119.332031 C 114.152344 119.128906 114.375 118.9375 114.597656 118.75 C 114.714844 118.65625 114.828125 118.5625 114.945312 118.46875 C 114.980469 118.441406 115.015625 118.414062 115.050781 118.386719 C 115.035156 118.398438 114.984375 118.4375 115.058594 118.378906 C 115.128906 118.328125 115.203125 118.269531 115.273438 118.21875 C 116.277344 117.476562 117.351562 116.835938 118.457031 116.257812 C 120.546875 115.164062 122.5625 114.378906 124.800781 113.589844 C 128.019531 112.457031 131.410156 111.957031 134.820312 112.105469 C 136.542969 112.179688 138.25 112.417969 139.925781 112.84375 C 141.613281 113.273438 143.261719 113.882812 144.757812 114.78125 C 145.394531 115.164062 146.023438 115.613281 146.4375 116.226562 C 146.582031 116.445312 146.859375 116.539062 147.097656 116.402344 C 147.308594 116.277344 147.417969 115.957031 147.269531 115.742188 C 146.777344 115.011719 146.089844 114.464844 145.34375 114.007812 C 144.546875 113.515625 143.703125 113.113281 142.832031 112.765625 C 141.167969 112.097656 139.402344 111.664062 137.628906 111.40625 C 134.027344 110.882812 130.324219 111.066406 126.796875 111.96875 C 125.492188 112.304688 124.222656 112.761719 122.960938 113.234375 C 121.796875 113.675781 120.648438 114.144531 119.519531 114.664062 C 117.203125 115.734375 114.90625 117.03125 113.070312 118.828125 C 112.226562 119.660156 111.472656 120.621094 110.96875 121.699219 C 110.425781 122.871094 110.179688 124.144531 110.265625 125.4375 C 110.480469 128.648438 112.449219 131.550781 115.09375 133.300781 C 118.007812 135.230469 121.667969 135.78125 125.097656 135.5 C 128.722656 135.195312 132.328125 134.175781 135.640625 132.683594 C 138.808594 131.261719 141.875 129.324219 144.15625 126.675781 C 145.226562 125.441406 146.097656 124.066406 146.769531 122.578125 C 147.417969 121.140625 147.972656 119.554688 147.917969 117.957031 C 147.890625 117.175781 147.699219 116.402344 147.269531 115.742188 C 147.125 115.523438 146.839844 115.429688 146.609375 115.566406 C 146.390625 115.695312 146.292969 116.007812 146.4375 116.226562 " fill-opacity="1" fill-rule="nonzero"/><path fill="#c62328" d="M 147.113281 118.308594 C 148.046875 119.410156 149.128906 120.375 150.316406 121.199219 C 151.492188 122.019531 152.769531 122.675781 154.105469 123.199219 C 155.445312 123.726562 156.839844 124.097656 158.253906 124.332031 C 159.730469 124.574219 161.226562 124.679688 162.722656 124.644531 C 164.253906 124.609375 165.78125 124.429688 167.28125 124.125 C 168.777344 123.820312 170.242188 123.386719 171.65625 122.824219 C 173.101562 122.25 174.5 121.554688 175.816406 120.726562 C 177.144531 119.890625 178.398438 118.925781 179.535156 117.847656 C 180.6875 116.75 181.722656 115.53125 182.617188 114.214844 C 183.539062 112.863281 184.289062 111.402344 184.878906 109.878906 C 185.027344 109.496094 185.164062 109.113281 185.289062 108.726562 C 185.367188 108.476562 185.195312 108.199219 184.953125 108.132812 C 184.691406 108.058594 184.4375 108.21875 184.355469 108.46875 C 184.230469 108.855469 184.097656 109.238281 183.949219 109.621094 C 183.910156 109.71875 183.875 109.816406 183.832031 109.914062 C 183.816406 109.953125 183.800781 109.996094 183.78125 110.039062 C 183.773438 110.0625 183.710938 110.210938 183.746094 110.128906 C 183.667969 110.3125 183.585938 110.492188 183.503906 110.675781 C 183.171875 111.398438 182.800781 112.105469 182.390625 112.785156 C 181.988281 113.445312 181.550781 114.085938 181.082031 114.699219 C 181.070312 114.710938 181.027344 114.773438 181.078125 114.703125 C 181.066406 114.722656 181.054688 114.738281 181.042969 114.753906 C 181.015625 114.789062 180.988281 114.820312 180.964844 114.855469 C 180.898438 114.9375 180.832031 115.019531 180.761719 115.101562 C 180.640625 115.253906 180.519531 115.398438 180.394531 115.542969 C 180.144531 115.832031 179.890625 116.113281 179.628906 116.390625 C 179.101562 116.941406 178.542969 117.46875 177.960938 117.964844 C 177.816406 118.085938 177.671875 118.207031 177.523438 118.324219 C 177.453125 118.382812 177.382812 118.441406 177.3125 118.496094 C 177.28125 118.523438 177.246094 118.550781 177.214844 118.574219 C 177.191406 118.589844 177.171875 118.609375 177.148438 118.625 C 177.183594 118.597656 177.179688 118.601562 177.148438 118.628906 C 176.847656 118.855469 176.542969 119.078125 176.234375 119.292969 C 174.988281 120.15625 173.664062 120.898438 172.28125 121.519531 C 172.199219 121.554688 172.113281 121.59375 172.03125 121.628906 C 171.984375 121.648438 171.941406 121.667969 171.898438 121.6875 C 171.878906 121.695312 171.859375 121.703125 171.839844 121.710938 C 171.773438 121.742188 171.910156 121.683594 171.839844 121.710938 C 171.667969 121.785156 171.496094 121.855469 171.320312 121.921875 C 170.96875 122.0625 170.613281 122.195312 170.25 122.316406 C 169.546875 122.558594 168.832031 122.769531 168.109375 122.949219 C 167.386719 123.128906 166.652344 123.277344 165.914062 123.394531 C 165.828125 123.40625 165.738281 123.421875 165.652344 123.433594 C 165.605469 123.441406 165.558594 123.449219 165.511719 123.457031 C 165.488281 123.457031 165.359375 123.476562 165.414062 123.46875 C 165.472656 123.460938 165.335938 123.480469 165.3125 123.480469 C 165.273438 123.488281 165.234375 123.492188 165.191406 123.496094 C 165.089844 123.511719 164.988281 123.519531 164.890625 123.53125 C 164.523438 123.574219 164.160156 123.605469 163.792969 123.632812 C 162.34375 123.726562 160.886719 123.699219 159.441406 123.53125 C 159.355469 123.519531 159.273438 123.511719 159.183594 123.5 C 159.144531 123.496094 159.039062 123.480469 159.136719 123.496094 C 159.085938 123.488281 159.03125 123.480469 158.980469 123.472656 C 158.804688 123.449219 158.628906 123.421875 158.453125 123.390625 C 158.105469 123.332031 157.757812 123.265625 157.410156 123.1875 C 156.71875 123.039062 156.035156 122.851562 155.363281 122.632812 C 155.03125 122.519531 154.703125 122.402344 154.378906 122.277344 C 154.300781 122.246094 154.226562 122.214844 154.148438 122.183594 C 154.105469 122.164062 154.066406 122.148438 154.023438 122.132812 C 154.007812 122.125 153.988281 122.117188 153.96875 122.113281 C 153.902344 122.082031 154.042969 122.140625 153.976562 122.113281 C 153.816406 122.042969 153.648438 121.972656 153.488281 121.894531 C 152.859375 121.609375 152.253906 121.285156 151.664062 120.929688 C 151.367188 120.746094 151.074219 120.554688 150.785156 120.355469 C 150.644531 120.257812 150.507812 120.15625 150.371094 120.054688 C 150.304688 120.003906 150.238281 119.953125 150.171875 119.90625 C 150.238281 119.957031 150.179688 119.910156 150.148438 119.886719 C 150.109375 119.855469 150.066406 119.824219 150.027344 119.792969 C 149.484375 119.359375 148.964844 118.886719 148.484375 118.386719 C 148.246094 118.140625 148.019531 117.886719 147.796875 117.625 C 147.628906 117.425781 147.289062 117.453125 147.113281 117.625 C 146.914062 117.824219 146.945312 118.109375 147.113281 118.308594 " fill-opacity="1" fill-rule="nonzero"/><path fill="#c62328" d="M 130.316406 79.800781 C 129.195312 82.125 130.035156 84.773438 131.386719 86.8125 C 132.757812 88.878906 134.765625 90.46875 136.160156 92.472656 C 136.898438 93.527344 137.410156 94.679688 137.695312 95.933594 C 137.992188 97.222656 138.0625 98.539062 138.140625 99.863281 C 138.21875 101.226562 138.308594 102.601562 138.609375 103.9375 C 138.917969 105.296875 139.496094 106.585938 140.15625 107.8125 C 141.511719 110.332031 143.308594 112.59375 145.160156 114.765625 C 145.390625 115.035156 145.621094 115.300781 145.851562 115.570312 C 146.023438 115.765625 146.359375 115.746094 146.535156 115.570312 C 146.730469 115.375 146.707031 115.085938 146.535156 114.886719 C 144.703125 112.769531 142.90625 110.601562 141.476562 108.1875 C 140.808594 107.054688 140.1875 105.859375 139.789062 104.601562 C 139.390625 103.339844 139.25 102.046875 139.160156 100.734375 C 139.070312 99.394531 139.023438 98.050781 138.824219 96.722656 C 138.625 95.390625 138.238281 94.097656 137.585938 92.921875 C 136.382812 90.769531 134.46875 89.15625 132.921875 87.269531 C 132.210938 86.40625 131.546875 85.339844 131.164062 84.285156 C 131.0625 84.007812 130.976562 83.71875 130.90625 83.429688 C 130.875 83.296875 130.847656 83.164062 130.820312 83.027344 C 130.808594 82.953125 130.796875 82.882812 130.789062 82.8125 C 130.792969 82.832031 130.796875 82.878906 130.785156 82.777344 C 130.78125 82.730469 130.777344 82.6875 130.769531 82.640625 C 130.71875 82.066406 130.746094 81.558594 130.878906 81.042969 C 130.917969 80.902344 130.957031 80.765625 131.007812 80.628906 C 131.058594 80.484375 131.082031 80.433594 131.152344 80.285156 C 131.265625 80.054688 131.214844 79.765625 130.980469 79.625 C 130.765625 79.503906 130.429688 79.5625 130.316406 79.800781 " fill-opacity="1" fill-rule="nonzero"/><path fill="#c62328" d="M 178.605469 85.910156 C 179.355469 86.414062 180.015625 86.957031 180.675781 87.613281 C 181 87.9375 181.3125 88.277344 181.609375 88.628906 C 181.902344 88.980469 182.121094 89.265625 182.386719 89.644531 C 183.445312 91.167969 184.195312 92.785156 184.652344 94.566406 C 184.777344 95.058594 184.878906 95.5625 184.953125 96.070312 C 184.980469 96.21875 184.980469 96.230469 184.996094 96.363281 C 185.011719 96.492188 185.023438 96.625 185.035156 96.757812 C 185.0625 97.019531 185.078125 97.285156 185.089844 97.550781 C 185.097656 97.8125 185.300781 98.035156 185.574219 98.035156 C 185.824219 98.035156 186.066406 97.8125 186.054688 97.550781 C 185.980469 95.605469 185.523438 93.699219 184.753906 91.914062 C 184 90.164062 182.917969 88.550781 181.601562 87.175781 C 180.84375 86.390625 180 85.683594 179.09375 85.074219 C 178.878906 84.929688 178.558594 85.03125 178.433594 85.25 C 178.292969 85.484375 178.390625 85.761719 178.605469 85.910156 " fill-opacity="1" fill-rule="nonzero"/><path fill="#c62328" d="M 148.753906 106.300781 C 148.695312 106.726562 148.71875 107.125 148.90625 107.519531 C 149.050781 107.824219 149.300781 108.078125 149.589844 108.25 C 150.242188 108.648438 151.089844 108.613281 151.753906 108.261719 C 152.453125 107.890625 152.945312 107.167969 153.011719 106.375 C 153.074219 105.644531 152.660156 104.964844 152.035156 104.605469 C 151.335938 104.203125 150.453125 104.210938 149.835938 104.753906 C 149.640625 104.929688 149.660156 105.261719 149.835938 105.441406 C 150.027344 105.632812 150.320312 105.609375 150.515625 105.441406 C 150.609375 105.359375 150.460938 105.46875 150.523438 105.433594 C 150.542969 105.417969 150.566406 105.402344 150.585938 105.390625 C 150.617188 105.371094 150.765625 105.3125 150.652344 105.347656 C 150.699219 105.332031 150.746094 105.316406 150.792969 105.304688 C 150.824219 105.296875 150.855469 105.296875 150.882812 105.285156 C 150.914062 105.273438 150.792969 105.289062 150.902344 105.285156 C 150.957031 105.28125 151.011719 105.28125 151.070312 105.285156 C 151.09375 105.285156 151.117188 105.289062 151.144531 105.292969 C 151.039062 105.285156 151.101562 105.28125 151.128906 105.289062 C 151.183594 105.304688 151.238281 105.3125 151.292969 105.328125 C 151.324219 105.339844 151.355469 105.347656 151.386719 105.359375 C 151.398438 105.363281 151.496094 105.40625 151.433594 105.378906 C 151.386719 105.355469 151.523438 105.425781 151.550781 105.4375 C 151.59375 105.464844 151.636719 105.496094 151.675781 105.519531 C 151.777344 105.585938 151.640625 105.472656 151.6875 105.527344 C 151.707031 105.550781 151.734375 105.570312 151.757812 105.589844 C 151.804688 105.636719 151.847656 105.679688 151.890625 105.730469 C 151.824219 105.652344 151.902344 105.753906 151.921875 105.785156 C 151.9375 105.808594 152.011719 105.949219 151.988281 105.898438 C 151.964844 105.847656 152.019531 105.992188 152.027344 106.019531 C 152.03125 106.046875 152.039062 106.074219 152.042969 106.101562 C 152.074219 106.230469 152.046875 106.023438 152.050781 106.152344 C 152.050781 106.214844 152.054688 106.269531 152.050781 106.332031 C 152.050781 106.328125 152.035156 106.46875 152.042969 106.398438 C 152.054688 106.328125 152.027344 106.46875 152.03125 106.464844 C 152.015625 106.523438 152 106.582031 151.980469 106.640625 C 151.96875 106.667969 151.960938 106.695312 151.949219 106.722656 C 151.984375 106.636719 151.929688 106.753906 151.921875 106.769531 C 151.890625 106.832031 151.855469 106.890625 151.816406 106.945312 C 151.804688 106.964844 151.75 107.042969 151.796875 106.976562 C 151.78125 107.003906 151.757812 107.023438 151.738281 107.046875 C 151.699219 107.09375 151.65625 107.140625 151.613281 107.179688 C 151.585938 107.207031 151.558594 107.234375 151.527344 107.257812 C 151.511719 107.273438 151.492188 107.289062 151.472656 107.300781 C 151.503906 107.277344 151.507812 107.277344 151.480469 107.296875 C 151.375 107.367188 151.261719 107.4375 151.140625 107.488281 C 151.21875 107.457031 151.144531 107.484375 151.128906 107.488281 C 151.09375 107.5 151.058594 107.511719 151.023438 107.523438 C 150.984375 107.535156 150.945312 107.542969 150.910156 107.550781 C 150.898438 107.554688 150.777344 107.574219 150.839844 107.566406 C 150.910156 107.558594 150.769531 107.570312 150.773438 107.570312 C 150.742188 107.570312 150.714844 107.574219 150.683594 107.574219 C 150.628906 107.574219 150.574219 107.570312 150.515625 107.566406 C 150.386719 107.5625 150.570312 107.585938 150.5 107.566406 C 150.464844 107.558594 150.433594 107.554688 150.398438 107.546875 C 150.332031 107.53125 150.269531 107.507812 150.207031 107.488281 C 150.183594 107.480469 150.132812 107.445312 150.210938 107.492188 C 150.179688 107.472656 150.140625 107.457031 150.109375 107.4375 C 150.085938 107.425781 150.0625 107.414062 150.042969 107.398438 C 150.023438 107.386719 149.933594 107.308594 150.015625 107.382812 C 149.96875 107.34375 149.921875 107.300781 149.875 107.253906 C 149.859375 107.234375 149.84375 107.214844 149.828125 107.195312 C 149.898438 107.28125 149.828125 107.191406 149.8125 107.167969 C 149.800781 107.148438 149.789062 107.125 149.777344 107.101562 C 149.753906 107.0625 149.730469 106.996094 149.757812 107.074219 C 149.734375 107.011719 149.714844 106.949219 149.699219 106.882812 C 149.699219 106.882812 149.675781 106.75 149.6875 106.820312 C 149.695312 106.882812 149.683594 106.75 149.683594 106.730469 C 149.683594 106.703125 149.683594 106.671875 149.683594 106.640625 C 149.683594 106.625 149.699219 106.46875 149.683594 106.558594 C 149.722656 106.300781 149.621094 106.039062 149.347656 105.964844 C 149.125 105.902344 148.792969 106.042969 148.753906 106.300781 " fill-opacity="1" fill-rule="nonzero"/><path fill="#c62328" d="M 183.421875 179.789062 C 182.15625 180.363281 181.84375 182.1875 182.59375 183.28125 C 183.492188 184.59375 185.285156 184.890625 186.707031 184.351562 C 187.582031 184.015625 188.335938 183.457031 189.007812 182.804688 C 189.449219 182.371094 188.765625 181.6875 188.320312 182.121094 C 187.828125 182.605469 187.324219 183.007812 186.695312 183.3125 C 186.429688 183.4375 186.101562 183.546875 185.777344 183.609375 C 185.742188 183.613281 185.710938 183.621094 185.675781 183.628906 C 185.585938 183.640625 185.789062 183.617188 185.632812 183.632812 C 185.566406 183.636719 185.503906 183.644531 185.4375 183.644531 C 185.273438 183.652344 185.109375 183.644531 184.945312 183.628906 C 184.933594 183.628906 184.851562 183.613281 184.925781 183.625 C 184.894531 183.617188 184.863281 183.613281 184.828125 183.609375 C 184.757812 183.59375 184.683594 183.578125 184.613281 183.5625 C 184.542969 183.539062 184.472656 183.519531 184.402344 183.496094 C 184.371094 183.484375 184.34375 183.472656 184.308594 183.460938 C 184.210938 183.429688 184.335938 183.476562 184.246094 183.4375 C 184.117188 183.375 183.988281 183.308594 183.871094 183.222656 C 183.839844 183.207031 183.816406 183.1875 183.792969 183.171875 C 183.851562 183.214844 183.769531 183.152344 183.757812 183.140625 C 183.695312 183.089844 183.636719 183.035156 183.582031 182.976562 C 183.457031 182.847656 183.449219 182.84375 183.367188 182.703125 C 183.335938 182.648438 183.304688 182.589844 183.277344 182.53125 C 183.269531 182.515625 183.246094 182.449219 183.277344 182.53125 C 183.261719 182.492188 183.246094 182.453125 183.234375 182.410156 C 183.214844 182.355469 183.203125 182.300781 183.1875 182.246094 C 183.179688 182.210938 183.175781 182.179688 183.167969 182.140625 C 183.152344 182.0625 183.175781 182.257812 183.164062 182.121094 C 183.15625 181.996094 183.152344 181.867188 183.160156 181.738281 C 183.160156 181.738281 183.175781 181.601562 183.167969 181.675781 C 183.160156 181.738281 183.179688 181.609375 183.183594 181.59375 C 183.199219 181.523438 183.214844 181.457031 183.234375 181.390625 C 183.246094 181.355469 183.257812 181.324219 183.269531 181.289062 C 183.300781 181.195312 183.234375 181.351562 183.285156 181.253906 C 183.316406 181.191406 183.347656 181.128906 183.382812 181.070312 C 183.398438 181.046875 183.414062 181.023438 183.429688 181 C 183.492188 180.894531 183.371094 181.0625 183.453125 180.96875 C 183.496094 180.914062 183.542969 180.867188 183.59375 180.820312 C 183.589844 180.820312 183.695312 180.734375 183.636719 180.777344 C 183.589844 180.816406 183.679688 180.75 183.691406 180.742188 C 183.761719 180.695312 183.832031 180.660156 183.910156 180.625 C 184.148438 180.515625 184.207031 180.171875 184.082031 179.960938 C 183.941406 179.71875 183.664062 179.683594 183.421875 179.789062 " fill-opacity="1" fill-rule="nonzero"/><path fill="#c62328" d="M 199 106.207031 C 200.582031 109.90625 203.769531 112.835938 207.277344 114.695312 C 210.289062 116.292969 213.679688 117.035156 217.0625 117.265625 C 220.113281 117.472656 223.226562 117.203125 226.164062 116.34375 C 229.09375 115.484375 231.84375 114.015625 234.078125 111.921875 C 236.503906 109.65625 238.199219 106.71875 239.15625 103.550781 C 239.289062 103.117188 239.40625 102.679688 239.511719 102.238281 C 239.65625 101.636719 238.726562 101.378906 238.578125 101.980469 C 238.175781 103.671875 237.613281 105.246094 236.8125 106.753906 C 236.070312 108.15625 235.21875 109.355469 234.15625 110.480469 C 233.648438 111.023438 233.101562 111.53125 232.527344 112.003906 C 232.457031 112.0625 232.382812 112.117188 232.308594 112.175781 C 232.273438 112.203125 232.238281 112.234375 232.203125 112.261719 C 232.082031 112.355469 232.273438 112.207031 232.152344 112.300781 C 232.007812 112.410156 231.859375 112.519531 231.710938 112.625 C 231.414062 112.839844 231.109375 113.042969 230.796875 113.238281 C 230.179688 113.625 229.535156 113.976562 228.875 114.289062 C 228.710938 114.367188 228.542969 114.445312 228.375 114.519531 C 228.289062 114.554688 228.207031 114.59375 228.125 114.628906 C 228.214844 114.589844 228.074219 114.648438 228.070312 114.652344 C 228.027344 114.667969 227.984375 114.6875 227.941406 114.703125 C 227.601562 114.839844 227.261719 114.96875 226.914062 115.089844 C 225.515625 115.578125 224.066406 115.914062 222.605469 116.125 C 222.558594 116.128906 222.511719 116.136719 222.464844 116.140625 C 222.570312 116.128906 222.417969 116.148438 222.410156 116.148438 C 222.316406 116.160156 222.222656 116.175781 222.132812 116.183594 C 221.945312 116.207031 221.761719 116.226562 221.578125 116.246094 C 221.203125 116.28125 220.832031 116.308594 220.457031 116.328125 C 219.710938 116.367188 218.960938 116.378906 218.210938 116.355469 C 217.460938 116.335938 216.710938 116.285156 215.964844 116.207031 C 215.78125 116.1875 215.59375 116.164062 215.410156 116.140625 C 215.21875 116.117188 215.167969 116.109375 214.9375 116.074219 C 214.566406 116.019531 214.199219 115.960938 213.832031 115.890625 C 212.207031 115.589844 210.574219 115.160156 209.074219 114.496094 C 205.566406 112.949219 202.34375 110.371094 200.460938 106.996094 C 200.230469 106.582031 200.019531 106.15625 199.832031 105.71875 C 199.730469 105.480469 199.378906 105.429688 199.171875 105.546875 C 198.925781 105.691406 198.898438 105.96875 199 106.207031 " fill-opacity="1" fill-rule="nonzero"/><path fill="#c62328" d="M 181.460938 11.347656 C 181.855469 13.332031 182.1875 15.335938 182.546875 17.332031 C 182.90625 19.332031 183.207031 21.40625 183.953125 23.304688 C 184.355469 24.328125 184.898438 25.292969 185.664062 26.089844 C 186.441406 26.894531 187.40625 27.496094 188.394531 28.011719 C 190.628906 29.171875 192.964844 30.167969 195.296875 31.117188 C 197.65625 32.078125 200.054688 32.957031 202.484375 33.734375 C 204.914062 34.519531 207.382812 35.183594 209.917969 35.527344 C 212.464844 35.871094 215.011719 35.757812 217.566406 35.566406 C 220.136719 35.375 222.703125 35.105469 225.28125 35.023438 C 227.871094 34.941406 230.480469 35.050781 233.015625 35.621094 C 235.46875 36.175781 237.964844 36.667969 240.492188 36.546875 C 241.132812 36.519531 241.765625 36.445312 242.394531 36.339844 C 242.652344 36.292969 242.796875 35.976562 242.730469 35.746094 C 242.65625 35.472656 242.394531 35.363281 242.136719 35.40625 C 239.679688 35.824219 237.160156 35.515625 234.738281 35.015625 C 233.496094 34.757812 232.273438 34.460938 231.015625 34.292969 C 229.769531 34.128906 228.511719 34.050781 227.253906 34.035156 C 224.714844 34.007812 222.179688 34.222656 219.652344 34.433594 C 217.148438 34.644531 214.613281 34.902344 212.101562 34.769531 C 209.59375 34.636719 207.128906 34.105469 204.726562 33.410156 C 202.308594 32.71875 199.929688 31.886719 197.585938 30.988281 C 195.242188 30.09375 192.933594 29.109375 190.660156 28.042969 C 188.675781 27.109375 186.589844 26.167969 185.441406 24.191406 C 184.417969 22.441406 184.085938 20.34375 183.714844 18.382812 C 183.339844 16.375 183.007812 14.363281 182.632812 12.355469 C 182.554688 11.933594 182.476562 11.507812 182.390625 11.089844 C 182.269531 10.480469 181.339844 10.738281 181.460938 11.347656 " fill-opacity="1" fill-rule="nonzero"/><path fill="#c62328" d="M 240.296875 45.53125 C 240.421875 47.976562 240.703125 50.40625 241.03125 52.832031 C 241.332031 55.101562 241.703125 57.378906 242.425781 59.558594 C 243.046875 61.449219 243.914062 63.539062 245.757812 64.550781 C 246.675781 65.050781 247.726562 65.125 248.667969 64.636719 C 249.65625 64.128906 250.320312 63.109375 250.769531 62.128906 C 251.234375 61.117188 251.511719 60.039062 251.695312 58.941406 C 251.886719 57.796875 252.027344 56.636719 252.109375 55.480469 C 252.285156 53.054688 252.144531 50.601562 251.730469 48.207031 C 251.347656 45.988281 250.6875 43.816406 249.726562 41.777344 C 249.253906 40.769531 248.699219 39.796875 248.066406 38.878906 C 247.46875 38.015625 246.8125 37.152344 246.011719 36.464844 C 245.253906 35.816406 244.359375 35.265625 243.34375 35.1875 C 242.304688 35.105469 241.28125 35.683594 240.78125 36.589844 C 240.230469 37.585938 240.269531 38.761719 240.238281 39.859375 C 240.203125 41.125 240.195312 42.390625 240.226562 43.65625 C 240.242188 44.28125 240.265625 44.910156 240.296875 45.53125 C 240.3125 45.792969 240.511719 46.015625 240.78125 46.015625 C 241.03125 46.015625 241.277344 45.792969 241.261719 45.53125 C 241.199219 44.316406 241.171875 43.09375 241.171875 41.878906 C 241.175781 41.261719 241.183594 40.644531 241.199219 40.03125 C 241.214844 39.457031 241.214844 38.878906 241.265625 38.308594 C 241.300781 37.964844 241.421875 37.441406 241.589844 37.125 C 241.640625 37.027344 241.699219 36.933594 241.761719 36.847656 C 241.789062 36.800781 241.765625 36.832031 241.761719 36.84375 C 241.773438 36.824219 241.789062 36.804688 241.804688 36.785156 C 241.851562 36.734375 241.894531 36.6875 241.941406 36.640625 C 242.09375 36.496094 242.253906 36.394531 242.46875 36.289062 C 242.507812 36.269531 242.578125 36.242188 242.679688 36.214844 C 242.730469 36.199219 242.785156 36.1875 242.839844 36.171875 C 242.867188 36.167969 243.003906 36.148438 242.921875 36.15625 C 243.023438 36.148438 243.125 36.144531 243.226562 36.148438 C 243.28125 36.148438 243.335938 36.152344 243.390625 36.15625 C 243.394531 36.15625 243.472656 36.167969 243.421875 36.160156 C 243.371094 36.152344 243.460938 36.167969 243.472656 36.167969 C 243.6875 36.207031 243.894531 36.273438 244.09375 36.351562 C 244.035156 36.328125 244.144531 36.375 244.160156 36.382812 C 244.214844 36.40625 244.265625 36.433594 244.316406 36.460938 C 244.421875 36.515625 244.523438 36.570312 244.625 36.632812 C 245.359375 37.082031 245.984375 37.734375 246.550781 38.445312 C 247.214844 39.28125 247.800781 40.183594 248.3125 41.121094 C 249.332031 42.984375 250.042969 44.980469 250.515625 47.058594 C 251.015625 49.238281 251.234375 51.445312 251.214844 53.691406 C 251.207031 54.867188 251.109375 56.027344 250.96875 57.191406 C 250.851562 58.1875 250.707031 59.203125 250.441406 60.199219 C 250.175781 61.183594 249.800781 62.117188 249.179688 62.9375 C 248.90625 63.292969 248.558594 63.621094 248.132812 63.828125 C 248.058594 63.867188 248 63.890625 247.886719 63.925781 C 247.773438 63.960938 247.660156 63.988281 247.546875 64.003906 C 247.621094 63.992188 247.507812 64.007812 247.480469 64.011719 C 247.429688 64.015625 247.371094 64.015625 247.316406 64.015625 C 247.269531 64.015625 247.21875 64.015625 247.175781 64.011719 C 247.148438 64.007812 247.011719 63.992188 247.089844 64.003906 C 246.992188 63.988281 246.890625 63.96875 246.792969 63.941406 C 246.710938 63.917969 246.546875 63.863281 246.515625 63.847656 C 246.558594 63.863281 246.484375 63.835938 246.484375 63.835938 C 246.453125 63.824219 246.425781 63.808594 246.394531 63.792969 C 246.351562 63.773438 246.308594 63.75 246.265625 63.726562 C 246.164062 63.671875 246.066406 63.617188 245.972656 63.550781 C 245.785156 63.425781 245.6875 63.351562 245.5 63.179688 C 245.332031 63.023438 245.171875 62.859375 245.023438 62.683594 C 244.875 62.515625 244.808594 62.429688 244.671875 62.230469 C 244.550781 62.050781 244.4375 61.867188 244.335938 61.675781 C 244.097656 61.242188 243.90625 60.792969 243.730469 60.34375 C 242.9375 58.328125 242.5 56.191406 242.171875 54.058594 C 241.832031 51.835938 241.550781 49.570312 241.378906 47.308594 C 241.332031 46.71875 241.292969 46.125 241.261719 45.53125 C 241.25 45.273438 241.050781 45.050781 240.78125 45.050781 C 240.527344 45.050781 240.28125 45.269531 240.296875 45.53125 " fill-opacity="1" fill-rule="nonzero"/><path fill="#c62328" d="M 244.640625 63.589844 C 243.367188 74.238281 243.597656 84.964844 243.261719 95.664062 C 243.097656 100.949219 242.644531 106.199219 242.207031 111.46875 C 241.773438 116.699219 241.859375 121.910156 241.699219 127.144531 C 241.613281 129.820312 241.328125 132.433594 240.8125 135.0625 C 240.324219 137.550781 239.746094 140.023438 239.421875 142.539062 C 238.78125 147.460938 239.332031 152.417969 240.289062 157.265625 C 241.273438 162.277344 242.6875 167.199219 243.664062 172.21875 C 244.453125 176.257812 244.949219 180.359375 245.417969 184.449219 C 246.386719 192.957031 247.070312 201.492188 247.742188 210.027344 C 247.8125 210.929688 247.886719 211.832031 247.957031 212.734375 C 248.003906 213.351562 248.972656 213.355469 248.921875 212.734375 C 248.261719 204.363281 247.613281 195.992188 246.734375 187.640625 C 246.308594 183.613281 245.835938 179.585938 245.21875 175.585938 C 244.480469 170.789062 243.269531 166.101562 242.167969 161.378906 C 241.003906 156.382812 239.996094 151.296875 240.113281 146.144531 C 240.226562 141.046875 241.84375 136.1875 242.414062 131.148438 C 243.007812 125.914062 242.597656 120.609375 242.894531 115.355469 C 243.191406 110.113281 243.820312 104.894531 244.074219 99.648438 C 244.582031 88.960938 244.25 78.238281 245.191406 67.570312 C 245.308594 66.242188 245.449219 64.914062 245.605469 63.589844 C 245.679688 62.976562 244.710938 62.980469 244.640625 63.589844 " fill-opacity="1" fill-rule="nonzero"/><path fill="#c62328" d="M 225.550781 93.984375 C 225.605469 94.957031 226.136719 95.886719 227.132812 96.132812 C 228.15625 96.382812 229.175781 95.886719 229.734375 95.027344 C 230.269531 94.210938 230.378906 93.042969 229.78125 92.230469 C 229.199219 91.441406 228.183594 91.082031 227.242188 91.394531 C 226.121094 91.761719 225.507812 92.835938 225.550781 93.984375 C 225.558594 94.246094 225.765625 94.46875 226.03125 94.46875 C 226.285156 94.46875 226.527344 94.246094 226.515625 93.984375 C 226.492188 93.328125 226.714844 92.726562 227.292969 92.414062 C 227.546875 92.277344 227.84375 92.210938 228.15625 92.257812 C 228.089844 92.246094 228.191406 92.265625 228.207031 92.269531 C 228.246094 92.277344 228.285156 92.289062 228.324219 92.300781 C 228.355469 92.3125 228.386719 92.320312 228.417969 92.332031 C 228.554688 92.378906 228.359375 92.292969 228.484375 92.359375 C 228.542969 92.394531 228.601562 92.421875 228.65625 92.460938 C 228.652344 92.457031 228.785156 92.550781 228.71875 92.5 C 228.753906 92.527344 228.792969 92.5625 228.828125 92.59375 C 228.878906 92.644531 228.933594 92.699219 228.980469 92.757812 C 229.035156 92.828125 228.925781 92.667969 229.003906 92.796875 C 229.019531 92.824219 229.042969 92.851562 229.058594 92.878906 C 229.132812 93.007812 229.183594 93.121094 229.210938 93.3125 C 229.234375 93.460938 229.226562 93.65625 229.199219 93.796875 C 229.171875 93.960938 229.105469 94.167969 229.058594 94.261719 C 228.988281 94.402344 228.882812 94.578125 228.820312 94.652344 C 228.777344 94.707031 228.730469 94.757812 228.679688 94.808594 C 228.609375 94.878906 228.539062 94.9375 228.5 94.964844 C 228.210938 95.15625 227.949219 95.242188 227.621094 95.230469 C 227.484375 95.226562 227.285156 95.183594 227.167969 95.125 C 226.988281 95.035156 226.933594 94.992188 226.800781 94.832031 C 226.742188 94.761719 226.851562 94.917969 226.769531 94.789062 C 226.746094 94.75 226.71875 94.707031 226.695312 94.664062 C 226.679688 94.636719 226.664062 94.605469 226.648438 94.574219 C 226.625 94.523438 226.621094 94.515625 226.640625 94.554688 C 226.628906 94.53125 226.621094 94.507812 226.613281 94.484375 C 226.582031 94.394531 226.558594 94.304688 226.542969 94.214844 C 226.535156 94.179688 226.53125 94.148438 226.523438 94.113281 C 226.535156 94.183594 226.515625 94.003906 226.515625 93.984375 C 226.5 93.726562 226.304688 93.503906 226.03125 93.503906 C 225.78125 93.503906 225.535156 93.722656 225.550781 93.984375 " fill-opacity="1" fill-rule="nonzero"/><path fill="#c62328" d="M 211.574219 76.511719 C 214.15625 75.589844 216.859375 74.933594 219.613281 74.839844 C 222.070312 74.757812 224.550781 75.128906 226.800781 76.089844 C 228.039062 76.621094 229.21875 77.332031 230.226562 78.195312 C 230.421875 78.363281 230.710938 78.390625 230.90625 78.195312 C 231.082031 78.019531 231.105469 77.683594 230.90625 77.511719 C 228.976562 75.855469 226.609375 74.773438 224.125 74.253906 C 221.417969 73.6875 218.628906 73.785156 215.917969 74.300781 C 214.351562 74.601562 212.816406 75.046875 211.316406 75.582031 C 211.070312 75.667969 210.90625 75.910156 210.980469 76.175781 C 211.046875 76.414062 211.328125 76.601562 211.574219 76.511719 " fill-opacity="1" fill-rule="nonzero"/><path fill="#c62328" d="M 138.695312 95.695312 C 138.890625 94.445312 139.304688 93.261719 139.882812 92.160156 C 140.4375 91.109375 141.082031 90.191406 141.921875 89.363281 C 142.125 89.164062 142.335938 88.980469 142.554688 88.800781 C 142.628906 88.742188 142.582031 88.78125 142.5625 88.792969 C 142.601562 88.765625 142.632812 88.742188 142.671875 88.714844 C 142.722656 88.675781 142.777344 88.636719 142.828125 88.601562 C 142.9375 88.527344 143.050781 88.457031 143.164062 88.390625 C 143.390625 88.257812 143.46875 87.957031 143.339844 87.730469 C 143.207031 87.503906 142.902344 87.425781 142.675781 87.554688 C 141.695312 88.128906 140.894531 88.96875 140.210938 89.863281 C 139.417969 90.894531 138.789062 92.054688 138.335938 93.273438 C 138.074219 93.972656 137.878906 94.699219 137.761719 95.4375 C 137.722656 95.695312 137.828125 95.957031 138.101562 96.03125 C 138.328125 96.09375 138.65625 95.953125 138.695312 95.695312 " fill-opacity="1" fill-rule="nonzero"/><path fill="#c62328" d="M 151.300781 48.453125 C 152.492188 49.355469 153.855469 50.007812 155.296875 50.40625 C 156.746094 50.808594 158.246094 50.996094 159.710938 51.3125 C 162.5 51.910156 165.203125 52.851562 167.746094 54.113281 C 169.1875 54.832031 170.578125 55.648438 171.90625 56.554688 C 172.121094 56.707031 172.441406 56.597656 172.566406 56.382812 C 172.703125 56.144531 172.609375 55.871094 172.394531 55.722656 C 170.019531 54.097656 167.445312 52.777344 164.746094 51.773438 C 163.398438 51.273438 162.019531 50.855469 160.621094 50.527344 C 159.160156 50.183594 157.671875 49.988281 156.210938 49.644531 C 155.417969 49.457031 154.625 49.21875 153.890625 48.882812 C 153.144531 48.539062 152.441406 48.113281 151.789062 47.617188 C 151.582031 47.460938 151.25 47.582031 151.128906 47.792969 C 150.984375 48.039062 151.09375 48.292969 151.300781 48.453125 " fill-opacity="1" fill-rule="nonzero"/><path fill="#c62328" d="M 176.359375 51.484375 C 178.265625 48.632812 180.480469 46.003906 182.964844 43.640625 C 183.667969 42.964844 184.394531 42.320312 185.136719 41.691406 C 185.335938 41.523438 185.3125 41.179688 185.136719 41.007812 C 184.941406 40.8125 184.65625 40.839844 184.457031 41.007812 C 181.777344 43.265625 179.363281 45.816406 177.238281 48.597656 C 176.644531 49.378906 176.070312 50.179688 175.523438 50.996094 C 175.378906 51.210938 175.484375 51.527344 175.699219 51.65625 C 175.933594 51.792969 176.214844 51.699219 176.359375 51.484375 " fill-opacity="1" fill-rule="nonzero"/><g clip-path="url(#40555a072c)"><path fill="#c62328" d="M 145.472656 15.894531 C 145.644531 16.203125 145.902344 16.472656 146.214844 16.640625 C 146.535156 16.816406 146.910156 16.890625 147.257812 16.984375 C 147.980469 17.175781 148.703125 17.351562 149.429688 17.507812 C 150.914062 17.824219 152.414062 18.070312 153.917969 18.242188 C 156.882812 18.589844 159.882812 18.65625 162.859375 18.449219 C 165.867188 18.238281 168.851562 17.765625 171.773438 17.03125 C 173.214844 16.671875 174.644531 16.25 176.046875 15.757812 C 177.480469 15.257812 178.902344 14.675781 180.21875 13.917969 C 181.148438 13.378906 181.90625 12.550781 182.238281 11.515625 C 182.535156 10.582031 182.425781 9.566406 182.003906 8.691406 C 180.886719 6.367188 178.050781 5.863281 175.738281 5.722656 C 174.300781 5.632812 172.847656 5.628906 171.40625 5.636719 C 169.8125 5.644531 168.222656 5.722656 166.636719 5.875 C 164.007812 6.132812 161.398438 6.605469 158.824219 7.210938 C 156.238281 7.820312 153.691406 8.589844 151.246094 9.648438 C 149.867188 10.242188 148.523438 10.917969 147.230469 11.683594 C 146.332031 12.214844 145.34375 12.960938 145.136719 14.050781 C 145.015625 14.699219 145.167969 15.320312 145.472656 15.894531 C 145.59375 16.125 145.914062 16.195312 146.132812 16.070312 C 146.367188 15.933594 146.429688 15.640625 146.304688 15.40625 C 146.226562 15.261719 146.191406 15.183594 146.144531 15.035156 C 146.121094 14.96875 146.105469 14.902344 146.089844 14.835938 C 146.082031 14.804688 146.078125 14.773438 146.070312 14.742188 C 146.058594 14.6875 146.070312 14.792969 146.0625 14.707031 C 146.050781 14.578125 146.050781 14.453125 146.0625 14.324219 C 146.070312 14.25 146.050781 14.402344 146.066406 14.328125 C 146.070312 14.300781 146.078125 14.269531 146.082031 14.246094 C 146.097656 14.183594 146.113281 14.121094 146.132812 14.0625 C 146.140625 14.039062 146.203125 13.890625 146.160156 13.984375 C 146.1875 13.925781 146.214844 13.871094 146.246094 13.816406 C 146.277344 13.769531 146.304688 13.722656 146.332031 13.675781 C 146.347656 13.65625 146.453125 13.511719 146.394531 13.585938 C 146.546875 13.394531 146.722656 13.222656 146.910156 13.066406 C 146.933594 13.050781 146.953125 13.027344 146.976562 13.011719 C 146.972656 13.015625 147.085938 12.929688 147.03125 12.96875 C 147.003906 12.988281 147.113281 12.90625 147.136719 12.890625 C 147.234375 12.820312 147.335938 12.753906 147.4375 12.6875 C 147.691406 12.527344 147.957031 12.375 148.21875 12.226562 C 148.863281 11.863281 149.519531 11.515625 150.183594 11.195312 C 152.507812 10.058594 154.9375 9.21875 157.433594 8.554688 C 159.90625 7.898438 162.421875 7.386719 164.957031 7.035156 C 164.964844 7.035156 165.046875 7.023438 164.976562 7.03125 C 165.011719 7.027344 165.046875 7.023438 165.078125 7.019531 C 165.144531 7.011719 165.210938 7 165.28125 6.992188 C 165.425781 6.976562 165.574219 6.957031 165.71875 6.9375 C 166.070312 6.898438 166.421875 6.863281 166.773438 6.828125 C 167.542969 6.757812 168.316406 6.699219 169.085938 6.664062 C 170.574219 6.589844 172.0625 6.605469 173.550781 6.625 C 174.867188 6.640625 176.230469 6.65625 177.496094 6.886719 C 177.820312 6.949219 178.140625 7.019531 178.457031 7.113281 C 178.601562 7.152344 178.746094 7.199219 178.890625 7.253906 C 178.960938 7.277344 179.03125 7.304688 179.101562 7.328125 C 179.136719 7.34375 179.171875 7.355469 179.207031 7.371094 C 179.125 7.339844 179.261719 7.398438 179.265625 7.398438 C 179.496094 7.503906 179.726562 7.625 179.941406 7.769531 C 179.988281 7.800781 180.035156 7.835938 180.082031 7.871094 C 180.105469 7.886719 180.128906 7.902344 180.152344 7.921875 C 180.082031 7.871094 180.144531 7.914062 180.15625 7.925781 C 180.253906 8.003906 180.347656 8.085938 180.441406 8.175781 C 180.519531 8.25 180.597656 8.328125 180.667969 8.410156 C 180.703125 8.449219 180.738281 8.492188 180.773438 8.53125 C 180.832031 8.601562 180.785156 8.542969 180.773438 8.527344 C 180.796875 8.5625 180.820312 8.59375 180.84375 8.625 C 180.972656 8.804688 181.082031 8.996094 181.179688 9.195312 C 181.191406 9.226562 181.246094 9.355469 181.207031 9.253906 C 181.226562 9.300781 181.242188 9.347656 181.261719 9.394531 C 181.300781 9.5 181.332031 9.609375 181.359375 9.71875 C 181.382812 9.816406 181.402344 9.914062 181.421875 10.011719 C 181.4375 10.097656 181.421875 10.007812 181.417969 9.992188 C 181.421875 10.015625 181.425781 10.042969 181.425781 10.066406 C 181.433594 10.125 181.4375 10.1875 181.441406 10.25 C 181.445312 10.347656 181.445312 10.449219 181.441406 10.546875 C 181.4375 10.59375 181.433594 10.644531 181.429688 10.695312 C 181.429688 10.722656 181.421875 10.753906 181.421875 10.785156 C 181.414062 10.847656 181.4375 10.695312 181.421875 10.785156 C 181.378906 10.996094 181.332031 11.203125 181.257812 11.402344 C 181.246094 11.433594 181.191406 11.5625 181.234375 11.464844 C 181.210938 11.511719 181.191406 11.558594 181.167969 11.605469 C 181.117188 11.710938 181.058594 11.8125 180.996094 11.914062 C 180.96875 11.957031 180.9375 12.003906 180.90625 12.046875 C 180.894531 12.066406 180.800781 12.191406 180.863281 12.113281 C 180.785156 12.210938 180.703125 12.304688 180.617188 12.394531 C 180.535156 12.480469 180.453125 12.558594 180.367188 12.632812 C 180.316406 12.679688 180.265625 12.722656 180.210938 12.761719 C 180.152344 12.8125 180.265625 12.726562 180.203125 12.769531 C 180.171875 12.792969 180.140625 12.816406 180.113281 12.835938 C 179.859375 13.015625 179.589844 13.164062 179.320312 13.3125 C 178.699219 13.644531 178.058594 13.945312 177.40625 14.214844 C 176.066406 14.769531 174.6875 15.21875 173.296875 15.621094 C 170.539062 16.417969 167.707031 16.988281 164.855469 17.304688 C 161.992188 17.617188 159.101562 17.683594 156.226562 17.492188 C 153.359375 17.296875 150.519531 16.839844 147.734375 16.109375 C 147.414062 16.027344 147.082031 15.960938 146.773438 15.84375 C 146.832031 15.863281 146.753906 15.835938 146.746094 15.832031 C 146.714844 15.816406 146.6875 15.800781 146.65625 15.78125 C 146.628906 15.765625 146.597656 15.75 146.570312 15.726562 C 146.621094 15.761719 146.554688 15.714844 146.550781 15.710938 C 146.417969 15.59375 146.390625 15.5625 146.304688 15.40625 C 146.179688 15.179688 145.867188 15.105469 145.644531 15.234375 C 145.417969 15.371094 145.34375 15.667969 145.472656 15.894531 " fill-opacity="1" fill-rule="nonzero"/></g><path fill="#c62328" d="M 143.859375 125.8125 C 144.285156 129.90625 144.714844 134 145.140625 138.09375 C 145.355469 140.15625 145.570312 142.222656 145.785156 144.289062 C 145.992188 146.269531 146.238281 148.253906 146.304688 150.246094 C 146.441406 154.152344 145.484375 157.835938 144.023438 161.429688 C 142.519531 165.132812 140.714844 168.726562 139.027344 172.351562 C 135.53125 179.835938 132.042969 187.320312 128.546875 194.808594 C 125.179688 202.03125 121.679688 209.210938 118.476562 216.507812 C 115.648438 222.960938 113.363281 229.683594 113.078125 236.78125 C 113.042969 237.703125 113.042969 238.625 113.066406 239.546875 C 113.082031 240.164062 114.046875 240.167969 114.03125 239.546875 C 113.839844 232.316406 115.773438 225.414062 118.539062 218.792969 C 119.984375 215.34375 121.601562 211.972656 123.179688 208.585938 C 124.929688 204.839844 126.675781 201.097656 128.421875 197.355469 C 131.914062 189.867188 135.40625 182.382812 138.898438 174.894531 C 140.621094 171.207031 142.390625 167.539062 144.046875 163.816406 C 145.550781 160.429688 146.871094 156.910156 147.203125 153.191406 C 147.378906 151.222656 147.25 149.246094 147.058594 147.285156 C 146.863281 145.234375 146.636719 143.183594 146.421875 141.132812 C 145.996094 137.042969 145.570312 132.949219 145.140625 128.855469 C 145.039062 127.84375 144.929688 126.828125 144.828125 125.8125 C 144.761719 125.203125 143.796875 125.195312 143.859375 125.8125 " fill-opacity="1" fill-rule="nonzero"/><path fill="#c62328" d="M 189.496094 120.976562 C 189.664062 126.617188 189.613281 132.257812 189.339844 137.890625 C 189.070312 143.523438 188.578125 149.148438 187.867188 154.742188 C 187.472656 157.875 187.003906 161 186.472656 164.113281 C 186.425781 164.371094 186.539062 164.632812 186.808594 164.707031 C 187.039062 164.773438 187.359375 164.628906 187.402344 164.371094 C 188.363281 158.769531 189.109375 153.132812 189.632812 147.472656 C 190.152344 141.832031 190.457031 136.167969 190.535156 130.5 C 190.578125 127.328125 190.554688 124.152344 190.464844 120.976562 C 190.441406 120.359375 189.480469 120.355469 189.496094 120.976562 " fill-opacity="1" fill-rule="nonzero"/><path fill="#c62328" d="M 155.703125 183.84375 C 154.621094 185.636719 154.160156 187.707031 153.988281 189.773438 C 153.8125 191.847656 153.882812 193.953125 154.074219 196.027344 C 154.265625 198.148438 154.613281 200.257812 155.113281 202.332031 C 155.601562 204.371094 156.242188 206.378906 157.027344 208.324219 C 157.820312 210.300781 158.75 212.222656 159.824219 214.0625 C 159.960938 214.292969 160.09375 214.519531 160.234375 214.742188 C 160.367188 214.96875 160.667969 215.050781 160.894531 214.917969 C 161.117188 214.785156 161.203125 214.480469 161.066406 214.257812 C 159.984375 212.480469 159.03125 210.628906 158.222656 208.714844 C 157.429688 206.839844 156.769531 204.882812 156.25 202.90625 C 155.730469 200.914062 155.34375 198.871094 155.121094 196.847656 C 154.894531 194.800781 154.796875 192.726562 154.894531 190.664062 C 154.988281 188.722656 155.292969 186.71875 156.179688 184.976562 C 156.289062 184.757812 156.410156 184.542969 156.535156 184.332031 C 156.667969 184.109375 156.585938 183.800781 156.363281 183.671875 C 156.132812 183.539062 155.835938 183.621094 155.703125 183.84375 " fill-opacity="1" fill-rule="nonzero"/><path fill="#c62328" d="M 216.980469 182.671875 C 217.09375 185.085938 217.144531 187.503906 217.078125 189.917969 C 217.011719 192.316406 216.832031 194.71875 216.472656 197.089844 C 216.140625 199.292969 215.660156 201.472656 214.992188 203.601562 C 214.359375 205.621094 213.582031 207.539062 212.601562 209.410156 C 211.632812 211.253906 210.480469 213.011719 209.152344 214.589844 C 208.988281 214.789062 208.816406 214.988281 208.640625 215.183594 C 208.46875 215.378906 208.445312 215.675781 208.640625 215.867188 C 208.816406 216.042969 209.148438 216.0625 209.324219 215.867188 C 210.753906 214.261719 212 212.492188 213.046875 210.613281 C 214.101562 208.726562 214.960938 206.734375 215.652344 204.691406 C 216.359375 202.597656 216.882812 200.445312 217.257812 198.269531 C 217.671875 195.839844 217.90625 193.378906 218.007812 190.917969 C 218.113281 188.472656 218.085938 186.019531 217.984375 183.574219 C 217.972656 183.273438 217.960938 182.972656 217.945312 182.671875 C 217.933594 182.414062 217.730469 182.191406 217.460938 182.191406 C 217.210938 182.191406 216.96875 182.410156 216.980469 182.671875 " fill-opacity="1" fill-rule="nonzero"/><path fill="#c62328" d="M 111.207031 236.554688 C 109.277344 239.210938 108.085938 242.40625 107.25 245.554688 C 106.402344 248.75 105.875 252.105469 105.957031 255.417969 C 106.035156 258.535156 106.871094 262.355469 110.042969 263.730469 C 111.832031 264.507812 113.859375 264.285156 115.707031 263.84375 C 117.769531 263.355469 119.789062 262.644531 121.75 261.84375 C 125.679688 260.234375 129.425781 258.21875 133.230469 256.335938 C 136.03125 254.949219 138.886719 253.660156 141.765625 252.433594 C 148.058594 249.753906 154.484375 247.355469 161.027344 245.363281 C 163.929688 244.476562 166.859375 243.675781 169.828125 243.054688 C 172.082031 242.582031 174.386719 242.179688 176.699219 242.160156 C 177.136719 242.15625 177.574219 242.167969 178.011719 242.207031 C 178.628906 242.257812 178.625 241.289062 178.011719 241.238281 C 175.917969 241.066406 173.789062 241.359375 171.730469 241.707031 C 168.949219 242.183594 166.207031 242.871094 163.492188 243.632812 C 157.050781 245.449219 150.734375 247.726562 144.539062 250.246094 C 141.542969 251.460938 138.570312 252.742188 135.636719 254.113281 C 132.246094 255.695312 128.941406 257.464844 125.566406 259.085938 C 123.710938 259.972656 121.835938 260.8125 119.90625 261.53125 C 118.011719 262.234375 116.027344 262.914062 114.019531 263.191406 C 112.226562 263.4375 110.339844 263.214844 109.011719 261.871094 C 107.875 260.714844 107.339844 259.082031 107.09375 257.515625 C 106.863281 256.078125 106.882812 254.589844 106.96875 253.144531 C 107.066406 251.492188 107.292969 249.851562 107.617188 248.230469 C 108.269531 244.976562 109.28125 241.71875 110.90625 238.816406 C 111.25 238.203125 111.625 237.609375 112.039062 237.042969 C 112.40625 236.539062 111.566406 236.058594 111.207031 236.554688 " fill-opacity="1" fill-rule="nonzero"/><path fill="#c62328" d="M 108.011719 261.886719 C 106.859375 264.253906 106.269531 266.867188 105.894531 269.460938 C 105.460938 272.449219 105.308594 275.472656 105.296875 278.488281 C 105.285156 281.378906 105.410156 284.269531 105.617188 287.152344 C 105.710938 288.4375 105.75 289.765625 105.984375 291.035156 C 106.109375 291.746094 106.382812 292.484375 106.949219 292.96875 C 107.613281 293.527344 108.476562 293.597656 109.3125 293.582031 C 116.816406 293.445312 123.8125 290.242188 130.5 287.152344 C 134.125 285.476562 137.753906 283.816406 141.367188 282.125 C 143.082031 281.324219 144.785156 280.496094 146.429688 279.558594 C 148.066406 278.625 149.613281 277.5625 151.097656 276.398438 C 154.078125 274.054688 156.761719 271.355469 159.585938 268.828125 C 162.320312 266.382812 165.121094 264.011719 167.847656 261.550781 C 168.558594 260.910156 169.265625 260.261719 169.96875 259.605469 C 170.425781 259.179688 169.738281 258.5 169.285156 258.921875 C 166.609375 261.421875 163.832031 263.8125 161.078125 266.222656 C 159.683594 267.441406 158.300781 268.671875 156.941406 269.925781 C 155.578125 271.183594 154.230469 272.464844 152.835938 273.6875 C 151.460938 274.898438 150.042969 276.058594 148.535156 277.097656 C 147.015625 278.148438 145.402344 279.0625 143.753906 279.898438 C 140.371094 281.621094 136.878906 283.144531 133.433594 284.738281 C 126.796875 287.808594 120.070312 291.28125 112.746094 292.335938 C 111.878906 292.460938 111 292.542969 110.121094 292.589844 C 109.367188 292.625 108.339844 292.78125 107.679688 292.3125 C 107.136719 291.933594 106.976562 291.210938 106.882812 290.597656 C 106.792969 289.988281 106.757812 289.359375 106.707031 288.746094 C 106.480469 286.042969 106.328125 283.332031 106.277344 280.617188 C 106.226562 277.667969 106.289062 274.710938 106.578125 271.773438 C 106.839844 269.113281 107.28125 266.429688 108.199219 263.910156 C 108.386719 263.386719 108.601562 262.875 108.847656 262.375 C 109.117188 261.816406 108.285156 261.328125 108.011719 261.886719 " fill-opacity="1" fill-rule="nonzero"/><path fill="#c62328" d="M 109.75 293.285156 C 108.984375 297.121094 110.339844 301.234375 111.703125 304.78125 C 112.40625 306.601562 113.164062 308.425781 114.074219 310.148438 C 115.175781 312.238281 116.539062 314.167969 117.707031 316.214844 C 118.921875 318.332031 119.785156 320.558594 120.269531 322.953125 C 120.757812 325.355469 120.90625 327.804688 121.023438 330.25 C 121.246094 334.875 121.40625 339.515625 122.976562 343.921875 C 124.390625 347.886719 126.675781 351.535156 129.636719 354.527344 C 130.402344 355.300781 131.214844 356.03125 132.066406 356.707031 C 132.753906 357.257812 133.527344 357.960938 134.476562 357.855469 C 136.082031 357.675781 136.851562 355.613281 137.308594 354.3125 C 139.042969 349.351562 141.167969 344.628906 143.617188 339.980469 C 146.027344 335.410156 148.519531 330.894531 150.695312 326.203125 C 151.761719 323.902344 152.777344 321.578125 153.753906 319.238281 C 154.753906 316.835938 155.914062 314.570312 157.144531 312.285156 C 158.328125 310.089844 159.339844 307.839844 160.074219 305.453125 C 160.820312 303.035156 161.324219 300.550781 161.753906 298.0625 C 163.5 288 164.914062 277.886719 167.5 267.992188 C 169.875 258.917969 173.226562 250.0625 178.378906 242.183594 C 183.074219 235.003906 189.242188 228.683594 196.832031 224.578125 C 201.230469 222.203125 206.003906 220.625 210.84375 219.410156 C 215.839844 218.160156 220.921875 217.226562 226 216.375 C 231.335938 215.480469 236.6875 214.800781 242.070312 214.253906 C 243.429688 214.117188 244.789062 213.976562 246.144531 213.828125 C 247.136719 213.71875 248.164062 213.664062 249.132812 213.402344 C 250.53125 213.027344 252.015625 211.871094 251.578125 210.230469 C 251.199219 208.816406 249.46875 208.285156 248.226562 207.941406 C 247.628906 207.777344 247.371094 208.707031 247.96875 208.871094 C 249.164062 209.203125 251.847656 210.226562 250.195312 211.820312 C 249.601562 212.394531 248.671875 212.558594 247.890625 212.660156 C 246.582031 212.835938 245.269531 212.957031 243.960938 213.09375 C 238.878906 213.621094 233.808594 214.167969 228.753906 214.957031 C 223.730469 215.742188 218.71875 216.636719 213.753906 217.734375 C 209.136719 218.757812 204.558594 220.023438 200.203125 221.886719 C 192.433594 225.214844 185.851562 230.671875 180.675781 237.316406 C 175.390625 244.101562 171.597656 251.890625 168.863281 260.019531 C 165.710938 269.394531 163.914062 279.15625 162.289062 288.894531 C 161.484375 293.710938 160.890625 298.609375 159.667969 303.339844 C 159.027344 305.804688 158.171875 308.191406 157.015625 310.460938 C 155.917969 312.621094 154.648438 314.695312 153.679688 316.917969 C 151.6875 321.496094 149.777344 326.082031 147.527344 330.542969 C 145.265625 335.019531 142.75 339.359375 140.554688 343.867188 C 139.492188 346.054688 138.496094 348.28125 137.628906 350.558594 C 137.175781 351.761719 136.757812 352.976562 136.328125 354.191406 C 136.054688 354.96875 135.71875 355.804688 135.144531 356.414062 C 134.195312 357.414062 133.210938 356.414062 132.386719 355.734375 C 131.574219 355.066406 130.804688 354.351562 130.074219 353.59375 C 128.617188 352.082031 127.335938 350.40625 126.253906 348.609375 C 123.996094 344.847656 122.761719 340.679688 122.347656 336.328125 C 121.910156 331.703125 122.117188 327.007812 121.148438 322.441406 C 120.679688 320.234375 119.882812 318.148438 118.796875 316.175781 C 117.695312 314.1875 116.386719 312.320312 115.277344 310.339844 C 113.332031 306.863281 111.777344 302.921875 110.9375 299.023438 C 110.550781 297.238281 110.320312 295.347656 110.679688 293.539062 C 110.800781 292.929688 109.867188 292.671875 109.75 293.285156 " fill-opacity="1" fill-rule="nonzero"/><path fill="#c62328" d="M 252.707031 219.3125 C 245.554688 219.835938 238.441406 220.835938 231.414062 222.246094 C 224.636719 223.605469 217.804688 225.222656 211.304688 227.589844 C 199.9375 231.730469 189.410156 238.773438 183.046875 249.269531 C 176.59375 259.910156 174.703125 272.472656 172.203125 284.457031 C 170.886719 290.769531 169.371094 297.042969 167.027344 303.0625 C 164.496094 309.570312 161.445312 315.902344 158.460938 322.207031 C 152.757812 334.273438 146.726562 346.320312 139.261719 357.410156 C 138.457031 358.609375 137.628906 359.792969 136.78125 360.964844 C 136.414062 361.46875 137.25 361.949219 137.613281 361.453125 C 145.25 350.9375 151.28125 339.265625 156.945312 327.601562 C 159.894531 321.523438 162.746094 315.394531 165.484375 309.21875 C 166.90625 306.007812 168.261719 302.761719 169.367188 299.425781 C 170.355469 296.449219 171.167969 293.414062 171.890625 290.355469 C 174.710938 278.402344 176.066406 265.855469 181.300781 254.609375 C 183.882812 249.054688 187.453125 244.070312 192 239.953125 C 196.492188 235.878906 201.742188 232.691406 207.277344 230.242188 C 213.328125 227.570312 219.78125 225.855469 226.210938 224.359375 C 233.234375 222.726562 240.359375 221.496094 247.527344 220.738281 C 249.25 220.554688 250.976562 220.402344 252.707031 220.277344 C 253.320312 220.230469 253.328125 219.265625 252.707031 219.3125 " fill-opacity="1" fill-rule="nonzero"/><g clip-path="url(#be2ce53f82)"><path fill="#c62328" d="M 132.90625 357.34375 C 140.011719 369.335938 155.820312 362.675781 166.078125 359.851562 C 180.308594 355.929688 194.914062 353.542969 209.554688 351.773438 C 213.230469 351.328125 216.921875 350.835938 220.625 350.613281 C 224.421875 350.386719 228.070312 350.71875 231.769531 351.597656 C 235.328125 352.441406 238.851562 353.316406 242.484375 353.8125 C 246.046875 354.296875 249.648438 354.523438 253.246094 354.480469 C 256.761719 354.433594 260.351562 354.199219 263.8125 353.550781 C 265.257812 353.277344 266.679688 352.804688 267.804688 351.820312 C 268.792969 350.957031 269.464844 349.761719 269.84375 348.511719 C 270.734375 345.53125 269.878906 342.191406 269.234375 339.246094 C 268.445312 335.644531 267.453125 332.09375 266.707031 328.484375 C 265.199219 321.160156 264.195312 313.722656 263.175781 306.316406 C 262.207031 299.273438 261.113281 292.296875 259.496094 285.371094 C 258.113281 279.457031 256.453125 273.523438 253.640625 268.113281 C 252.265625 265.472656 250.597656 262.953125 248.566406 260.765625 C 246.460938 258.503906 243.90625 256.667969 241.175781 255.226562 C 229.546875 249.101562 214.925781 249.101562 203.023438 254.429688 C 197.75 256.792969 192.921875 260.199219 188.949219 264.394531 C 186.972656 266.488281 185.195312 268.78125 183.691406 271.238281 C 182.058594 273.890625 180.808594 276.742188 179.699219 279.648438 C 174.679688 292.753906 173.085938 306.855469 171.222656 320.671875 C 170.410156 326.683594 169.617188 332.6875 168.199219 338.589844 C 166.871094 344.113281 165.214844 349.625 162.832031 354.792969 C 161.839844 356.949219 160.707031 359.058594 159.285156 360.964844 C 158.910156 361.464844 159.75 361.945312 160.117188 361.453125 C 163.144531 357.390625 165.035156 352.46875 166.617188 347.699219 C 168.300781 342.636719 169.605469 337.429688 170.519531 332.175781 C 171.703125 325.402344 172.445312 318.550781 173.402344 311.742188 C 174.34375 305.027344 175.398438 298.320312 177.003906 291.726562 C 178.542969 285.386719 180.496094 278.886719 183.683594 273.160156 C 186.472656 268.148438 190.378906 263.765625 194.957031 260.316406 C 205.175781 252.617188 218.527344 249.765625 231.015625 252.578125 C 237.101562 253.949219 243.183594 256.582031 247.574219 261.128906 C 251.75 265.445312 254.316406 271.117188 256.152344 276.765625 C 260.355469 289.695312 261.710938 303.296875 263.710938 316.679688 C 264.253906 320.320312 264.824219 323.953125 265.539062 327.558594 C 266.230469 331.058594 267.136719 334.5 267.953125 337.96875 C 268.363281 339.707031 268.738281 341.457031 269 343.226562 C 269.226562 344.75 269.394531 346.265625 269.035156 347.78125 C 268.722656 349.117188 268.054688 350.398438 266.96875 351.265625 C 265.726562 352.261719 264.089844 352.554688 262.558594 352.78125 C 255.453125 353.832031 248.15625 353.765625 241.066406 352.632812 C 237.539062 352.070312 234.117188 351.097656 230.625 350.347656 C 227.136719 349.597656 223.644531 349.4375 220.089844 349.683594 C 216.480469 349.933594 212.882812 350.402344 209.292969 350.839844 C 205.769531 351.265625 202.25 351.730469 198.738281 352.242188 C 191.636719 353.269531 184.558594 354.5 177.542969 356.035156 C 174.039062 356.800781 170.550781 357.644531 167.085938 358.574219 C 163.660156 359.496094 160.28125 360.570312 156.867188 361.542969 C 151.4375 363.082031 145.058594 364.398438 139.621094 362.140625 C 137.09375 361.089844 135.121094 359.191406 133.738281 356.855469 C 133.421875 356.320312 132.585938 356.804688 132.90625 357.34375 " fill-opacity="1" fill-rule="nonzero"/></g><path fill="#c62328" d="M 229.105469 262.128906 C 231.847656 262.625 234.515625 263.503906 236.945312 264.882812 C 239.179688 266.15625 241.160156 267.820312 242.867188 269.742188 C 246.839844 274.195312 249.421875 279.859375 251.503906 285.390625 C 254.082031 292.230469 255.769531 299.378906 256.84375 306.601562 C 257.921875 313.847656 258.25 321.175781 258.921875 328.464844 C 259.597656 335.8125 260.601562 343.179688 262.847656 350.230469 C 263.125 351.097656 263.421875 351.957031 263.734375 352.8125 C 263.945312 353.390625 264.878906 353.140625 264.664062 352.554688 C 262.085938 345.519531 260.859375 338.09375 260.101562 330.660156 C 259.339844 323.242188 259.050781 315.773438 258.0625 308.375 C 257.089844 301.097656 255.535156 293.875 253.09375 286.9375 C 251.035156 281.097656 248.472656 275.167969 244.589844 270.289062 C 241.238281 266.082031 236.761719 263.042969 231.542969 261.675781 C 230.824219 261.484375 230.09375 261.328125 229.363281 261.195312 C 228.753906 261.085938 228.492188 262.015625 229.105469 262.128906 " fill-opacity="1" fill-rule="nonzero"/><path fill="#c62328" d="M 199.039062 276.234375 C 194.65625 279.609375 190.949219 283.761719 187.984375 288.425781 C 185.007812 293.101562 182.78125 298.246094 181.210938 303.554688 C 179.617188 308.953125 178.699219 314.550781 178.375 320.167969 C 178.035156 326.070312 178.449219 331.988281 178.292969 337.894531 C 178.140625 343.722656 177.496094 349.761719 174.839844 355.039062 C 174.515625 355.6875 174.160156 356.320312 173.78125 356.933594 C 173.457031 357.464844 174.289062 357.949219 174.617188 357.421875 C 177.699219 352.417969 178.785156 346.539062 179.136719 340.753906 C 179.5 334.796875 179.097656 328.832031 179.234375 322.871094 C 179.359375 317.292969 180.082031 311.722656 181.457031 306.3125 C 182.824219 300.949219 184.832031 295.738281 187.59375 290.933594 C 190.308594 286.210938 193.761719 281.914062 197.914062 278.375 C 198.441406 277.925781 198.976562 277.488281 199.523438 277.070312 C 199.734375 276.90625 199.839844 276.652344 199.699219 276.40625 C 199.582031 276.203125 199.246094 276.074219 199.039062 276.234375 " fill-opacity="1" fill-rule="nonzero"/><path fill="#c62328" d="M 196.546875 306.882812 C 197.847656 304.558594 199.769531 302.675781 202.082031 301.359375 C 204.378906 300.054688 206.976562 299.3125 209.59375 299.019531 C 212.28125 298.714844 215.019531 298.839844 217.671875 299.359375 C 220.351562 299.886719 222.917969 300.835938 225.328125 302.121094 C 227.742188 303.40625 229.96875 305.023438 231.949219 306.914062 C 233.882812 308.765625 235.574219 310.855469 237.035156 313.101562 C 238.527344 315.394531 239.785156 317.839844 240.855469 320.359375 C 241.941406 322.917969 242.835938 325.558594 243.59375 328.234375 C 244.367188 330.941406 245.003906 333.683594 245.546875 336.445312 C 246.082031 339.144531 246.527344 341.863281 246.929688 344.585938 C 247.023438 345.226562 247.117188 345.867188 247.207031 346.511719 C 247.242188 346.769531 247.574219 346.910156 247.800781 346.847656 C 248.078125 346.769531 248.175781 346.511719 248.136719 346.253906 C 247.753906 343.511719 247.332031 340.777344 246.835938 338.054688 C 246.324219 335.257812 245.730469 332.476562 245.007812 329.726562 C 244.28125 326.964844 243.429688 324.238281 242.386719 321.582031 C 241.367188 318.972656 240.171875 316.421875 238.738281 314.011719 C 237.332031 311.648438 235.695312 309.414062 233.808594 307.414062 C 231.890625 305.386719 229.710938 303.601562 227.328125 302.152344 C 224.914062 300.679688 222.277344 299.507812 219.539062 298.796875 C 216.867188 298.101562 214.074219 297.792969 211.316406 297.917969 C 208.539062 298.039062 205.78125 298.59375 203.230469 299.710938 C 200.714844 300.808594 198.488281 302.492188 196.828125 304.679688 C 196.417969 305.226562 196.046875 305.800781 195.714844 306.394531 C 195.410156 306.9375 196.246094 307.425781 196.546875 306.882812 " fill-opacity="1" fill-rule="nonzero"/><path fill="#c62328" d="M 189.371094 254.550781 C 193.488281 250.457031 197.71875 246.386719 202.742188 243.410156 C 207.910156 240.347656 213.761719 238.753906 219.671875 237.882812 C 225.964844 236.953125 232.339844 236.96875 238.671875 236.464844 C 240.246094 236.339844 241.816406 236.179688 243.378906 235.964844 C 244.859375 235.765625 246.351562 235.550781 247.796875 235.167969 C 250.226562 234.523438 252.59375 233.363281 254.359375 231.542969 C 255.917969 229.941406 256.898438 227.886719 256.960938 225.636719 C 257.019531 223.613281 256.292969 221.507812 254.6875 220.207031 C 254.265625 219.871094 253.816406 219.59375 253.324219 219.375 C 253.085938 219.269531 252.808594 219.308594 252.664062 219.550781 C 252.542969 219.753906 252.597656 220.105469 252.839844 220.210938 C 254.667969 221.015625 255.78125 222.738281 255.964844 224.710938 C 256.160156 226.769531 255.476562 228.769531 254.144531 230.34375 C 252.546875 232.238281 250.285156 233.445312 247.929688 234.128906 C 246.570312 234.523438 245.15625 234.746094 243.757812 234.945312 C 242.21875 235.171875 240.667969 235.332031 239.121094 235.460938 C 232.890625 235.984375 226.625 235.972656 220.425781 236.808594 C 214.605469 237.59375 208.792969 239.019531 203.589844 241.824219 C 198.546875 244.539062 194.253906 248.398438 190.191406 252.382812 C 189.6875 252.878906 189.1875 253.371094 188.6875 253.871094 C 188.246094 254.308594 188.929688 254.992188 189.371094 254.550781 " fill-opacity="1" fill-rule="nonzero"/><path fill="#c62328" d="M 255.917969 227.902344 C 256.339844 228.289062 256.578125 228.640625 256.871094 229.15625 C 257.191406 229.726562 257.417969 230.265625 257.625 230.878906 C 258.101562 232.257812 258.390625 233.710938 258.523438 235.160156 C 258.644531 236.492188 258.65625 237.914062 258.402344 239.167969 C 258.34375 239.449219 258.273438 239.730469 258.183594 240.003906 C 258.144531 240.113281 258.101562 240.222656 258.058594 240.332031 C 258.097656 240.238281 258.023438 240.410156 258.011719 240.429688 C 257.984375 240.488281 257.953125 240.546875 257.921875 240.609375 C 257.5 241.375 256.855469 241.992188 256.25 242.613281 C 255.589844 243.289062 254.925781 243.996094 254.507812 244.855469 C 254.078125 245.75 253.898438 246.734375 253.9375 247.726562 C 254.027344 249.785156 254.890625 251.71875 255.660156 253.597656 C 256.394531 255.390625 256.945312 257.214844 257.273438 259.125 C 257.609375 261.070312 257.738281 263.050781 257.761719 265.023438 C 257.808594 269.027344 257.402344 273.015625 256.957031 276.988281 C 256.90625 277.453125 256.855469 277.917969 256.800781 278.382812 C 256.773438 278.640625 257.042969 278.863281 257.285156 278.863281 C 257.570312 278.863281 257.738281 278.640625 257.765625 278.382812 C 258.214844 274.402344 258.671875 270.417969 258.726562 266.410156 C 258.78125 262.46875 258.476562 258.410156 257.117188 254.679688 C 256.410156 252.742188 255.441406 250.878906 255.042969 248.835938 C 254.863281 247.929688 254.828125 246.976562 255.074219 246.082031 C 255.324219 245.160156 255.878906 244.410156 256.523438 243.722656 C 257.160156 243.039062 257.851562 242.402344 258.402344 241.636719 C 258.777344 241.125 259.039062 240.558594 259.207031 239.949219 C 259.566406 238.660156 259.609375 237.273438 259.542969 235.945312 C 259.46875 234.425781 259.230469 232.902344 258.8125 231.4375 C 258.453125 230.164062 257.957031 228.875 257.140625 227.820312 C 256.976562 227.609375 256.800781 227.402344 256.601562 227.222656 C 256.144531 226.800781 255.457031 227.480469 255.917969 227.902344 " fill-opacity="1" fill-rule="nonzero"/><path fill="#c62328" d="M 210.246094 249.761719 C 212.832031 248.300781 215.582031 247.148438 218.429688 246.316406 C 221.265625 245.492188 224.191406 244.976562 227.140625 244.800781 C 230.085938 244.621094 233.054688 244.761719 235.964844 245.253906 C 239.195312 245.800781 242.304688 246.855469 245.515625 247.496094 C 246.976562 247.789062 248.472656 248.027344 249.964844 248.105469 C 251.1875 248.167969 252.398438 248.046875 253.582031 247.730469 C 253.90625 247.640625 254.226562 247.542969 254.546875 247.433594 C 255.128906 247.238281 254.878906 246.304688 254.289062 246.503906 C 253.117188 246.898438 251.960938 247.148438 250.738281 247.15625 C 249.355469 247.167969 247.964844 246.957031 246.609375 246.71875 C 243.355469 246.15625 240.21875 245.074219 236.976562 244.457031 C 234.015625 243.898438 230.988281 243.671875 227.980469 243.792969 C 224.984375 243.910156 221.992188 244.359375 219.09375 245.128906 C 216.199219 245.902344 213.382812 246.996094 210.730469 248.394531 C 210.40625 248.566406 210.082031 248.746094 209.757812 248.925781 C 209.21875 249.234375 209.703125 250.066406 210.246094 249.761719 " fill-opacity="1" fill-rule="nonzero"/><path fill="#c62328" d="M 258.667969 236.507812 C 258.644531 236.542969 258.621094 236.578125 258.597656 236.609375 C 258.589844 236.621094 258.507812 236.730469 258.570312 236.648438 C 258.527344 236.707031 258.480469 236.757812 258.433594 236.8125 C 258.316406 236.949219 258.195312 237.082031 258.066406 237.207031 C 257.953125 237.316406 257.839844 237.417969 257.722656 237.519531 C 257.648438 237.582031 257.574219 237.644531 257.5 237.707031 C 257.402344 237.785156 257.410156 237.777344 257.328125 237.839844 C 256.714844 238.292969 256.058594 238.683594 255.382812 239.035156 C 254.714844 239.382812 254.054688 239.679688 253.410156 239.929688 C 252.683594 240.21875 251.945312 240.457031 251.207031 240.710938 C 247.660156 241.925781 244.082031 243.125 240.371094 243.734375 C 238.328125 244.070312 236.234375 244.207031 234.160156 244.035156 C 233.898438 244.011719 233.679688 244.269531 233.679688 244.515625 C 233.679688 244.796875 233.898438 244.976562 234.160156 245 C 238.023438 245.324219 241.90625 244.574219 245.605469 243.523438 C 247.421875 243.007812 249.214844 242.410156 251 241.800781 C 252.519531 241.285156 254.035156 240.777344 255.476562 240.070312 C 256.972656 239.332031 258.539062 238.398438 259.5 236.996094 C 259.648438 236.78125 259.542969 236.460938 259.328125 236.335938 C 259.089844 236.195312 258.816406 236.292969 258.667969 236.507812 " fill-opacity="1" fill-rule="nonzero"/><path fill="#c62328" d="M 106.433594 286.328125 C 111.128906 286.148438 115.75 285.175781 120.203125 283.714844 C 124.695312 282.242188 129.023438 280.320312 133.316406 278.347656 C 137.585938 276.386719 141.859375 274.417969 146.054688 272.300781 C 150.269531 270.175781 154.417969 267.914062 158.433594 265.429688 C 162.402344 262.976562 166.242188 260.300781 169.859375 257.347656 C 170.300781 256.988281 170.738281 256.625 171.171875 256.253906 C 171.644531 255.851562 170.960938 255.171875 170.488281 255.570312 C 166.96875 258.5625 163.207031 261.261719 159.3125 263.738281 C 155.378906 266.238281 151.308594 268.519531 147.164062 270.652344 C 143.027344 272.785156 138.8125 274.753906 134.585938 276.703125 C 130.34375 278.664062 126.089844 280.625 121.679688 282.191406 C 117.328125 283.742188 112.8125 284.894531 108.195312 285.261719 C 107.609375 285.308594 107.019531 285.339844 106.433594 285.359375 C 105.8125 285.386719 105.8125 286.351562 106.433594 286.328125 " fill-opacity="1" fill-rule="nonzero"/><path fill="#c62328" d="M 113.066406 239.910156 C 112.359375 241.652344 111.800781 243.464844 111.320312 245.28125 C 111.03125 246.375 110.777344 247.480469 110.605469 248.601562 C 110.464844 249.523438 110.34375 250.480469 110.449219 251.417969 C 110.699219 253.667969 112.914062 254.890625 114.96875 255.195312 C 117.738281 255.601562 120.5625 254.898438 123.246094 254.292969 C 129.554688 252.871094 135.691406 250.808594 141.765625 248.621094 C 147.824219 246.4375 153.839844 244.125 159.980469 242.1875 C 166.066406 240.265625 172.292969 238.710938 178.652344 238.0625 C 179.460938 237.980469 180.273438 237.910156 181.089844 237.855469 C 181.703125 237.816406 181.707031 236.851562 181.089844 236.890625 C 174.769531 237.3125 168.550781 238.628906 162.484375 240.410156 C 156.425781 242.191406 150.511719 244.40625 144.582031 246.574219 C 138.617188 248.753906 132.632812 250.890625 126.484375 252.507812 C 124.949219 252.910156 123.410156 253.28125 121.855469 253.609375 C 120.503906 253.898438 119.140625 254.199219 117.757812 254.304688 C 115.605469 254.472656 112.746094 254.273438 111.601562 252.113281 C 111.527344 251.96875 111.425781 251.550781 111.40625 251.332031 C 111.367188 250.914062 111.371094 250.496094 111.402344 250.078125 C 111.46875 249.058594 111.660156 248.050781 111.882812 247.054688 C 112.335938 245.023438 112.941406 243.015625 113.65625 241.0625 C 113.765625 240.761719 113.875 240.464844 113.996094 240.167969 C 114.097656 239.921875 113.886719 239.640625 113.660156 239.574219 C 113.382812 239.496094 113.160156 239.671875 113.066406 239.910156 " fill-opacity="1" fill-rule="nonzero"/><path fill="#c62328" d="M 113.601562 232.3125 C 112.671875 232.941406 111.789062 233.589844 111.410156 234.703125 C 111.046875 235.761719 111.242188 236.945312 111.691406 237.941406 C 112.777344 240.332031 115.375 241.398438 117.863281 241.464844 C 119.246094 241.496094 120.628906 241.277344 121.984375 241.03125 C 123.429688 240.769531 124.871094 240.476562 126.304688 240.160156 C 129.175781 239.527344 132.027344 238.808594 134.875 238.0625 C 140.550781 236.578125 146.203125 234.996094 151.949219 233.785156 C 154.863281 233.171875 157.804688 232.644531 160.769531 232.34375 C 163.714844 232.046875 166.679688 232.003906 169.636719 231.996094 C 175.285156 231.976562 181.023438 232.089844 186.554688 230.777344 C 187.242188 230.613281 187.921875 230.425781 188.597656 230.21875 C 189.1875 230.035156 188.9375 229.101562 188.34375 229.289062 C 183.101562 230.90625 177.578125 231.007812 172.140625 231.023438 C 169.292969 231.035156 166.441406 231.011719 163.59375 231.164062 C 160.75 231.316406 157.925781 231.6875 155.125 232.183594 C 149.523438 233.179688 144.019531 234.636719 138.527344 236.097656 C 133.058594 237.550781 127.582031 239.019531 122.015625 240.046875 C 119.507812 240.511719 116.59375 240.992188 114.320312 239.515625 C 112.644531 238.429688 111.292969 235.816406 112.882812 234.085938 C 113.230469 233.707031 113.664062 233.433594 114.089844 233.144531 C 114.601562 232.796875 114.117188 231.960938 113.601562 232.3125 " fill-opacity="1" fill-rule="nonzero"/><path fill="#c62328" d="M 166.832031 266.820312 C 163.902344 271.503906 160.847656 276.109375 157.921875 280.800781 C 155.527344 284.640625 153.015625 288.574219 149.511719 291.511719 C 145.90625 294.527344 141.160156 296.324219 136.480469 296.582031 C 135.242188 296.652344 134 296.621094 132.773438 296.4375 C 131.53125 296.253906 130.308594 295.953125 129.089844 295.644531 C 127.003906 295.117188 124.929688 294.640625 122.773438 294.527344 C 120.773438 294.425781 118.75 294.550781 116.78125 294.929688 C 114.847656 295.296875 112.914062 295.929688 111.25 297.003906 C 110.859375 297.257812 110.488281 297.535156 110.128906 297.835938 C 109.929688 298.003906 109.957031 298.34375 110.128906 298.519531 C 110.328125 298.71875 110.613281 298.6875 110.8125 298.519531 C 112.265625 297.292969 114.085938 296.5625 115.914062 296.105469 C 117.847656 295.621094 119.855469 295.433594 121.847656 295.464844 C 123.90625 295.496094 125.886719 295.839844 127.882812 296.339844 C 130.367188 296.953125 132.832031 297.597656 135.414062 297.582031 C 140.222656 297.550781 145.042969 295.953125 148.949219 293.15625 C 152.722656 290.457031 155.4375 286.527344 157.894531 282.660156 C 159.304688 280.441406 160.691406 278.210938 162.113281 275.996094 C 163.609375 273.667969 165.113281 271.34375 166.597656 269.007812 C 166.953125 268.441406 167.3125 267.875 167.667969 267.308594 C 167.996094 266.777344 167.160156 266.292969 166.832031 266.820312 " fill-opacity="1" fill-rule="nonzero"/><path fill="#c62328" d="M 121.824219 300.90625 C 121.695312 304.265625 122.257812 307.605469 123.007812 310.871094 C 123.761719 314.160156 124.703125 317.40625 125.332031 320.722656 C 125.660156 322.453125 125.886719 324.195312 126.0625 325.945312 C 126.230469 327.648438 126.40625 329.363281 126.46875 331.074219 C 126.589844 334.199219 126.269531 337.316406 126.117188 340.433594 C 125.957031 343.707031 126.03125 346.996094 126.75 350.207031 C 126.851562 350.644531 126.960938 351.074219 127.078125 351.507812 C 127.246094 352.105469 128.175781 351.851562 128.011719 351.25 C 127.125 348.058594 126.921875 344.78125 127.039062 341.484375 C 127.148438 338.363281 127.492188 335.253906 127.460938 332.132812 C 127.445312 330.457031 127.289062 328.792969 127.136719 327.128906 C 126.980469 325.359375 126.789062 323.589844 126.507812 321.835938 C 125.972656 318.507812 125.058594 315.257812 124.265625 311.988281 C 123.480469 308.765625 122.804688 305.496094 122.769531 302.164062 C 122.765625 301.746094 122.773438 301.324219 122.789062 300.90625 C 122.8125 300.285156 121.847656 300.285156 121.824219 300.90625 " fill-opacity="1" fill-rule="nonzero"/><path fill="#c62328" d="M 134.199219 300.96875 C 133.722656 304.875 134.300781 308.8125 135.085938 312.640625 C 135.824219 316.242188 136.761719 319.789062 137.050781 323.460938 C 137.328125 327.007812 137.195312 330.578125 136.863281 334.117188 C 136.527344 337.734375 135.972656 341.324219 135.359375 344.902344 C 134.757812 348.40625 134.09375 351.894531 133.511719 355.402344 C 133.445312 355.8125 133.375 356.226562 133.308594 356.640625 C 133.269531 356.898438 133.375 357.160156 133.648438 357.234375 C 133.878906 357.296875 134.199219 357.15625 134.242188 356.898438 C 134.796875 353.417969 135.449219 349.953125 136.0625 346.484375 C 136.695312 342.855469 137.285156 339.21875 137.683594 335.558594 C 138.070312 332.003906 138.277344 328.414062 138.101562 324.839844 C 138.015625 323.101562 137.839844 321.367188 137.546875 319.648438 C 137.226562 317.78125 136.777344 315.933594 136.375 314.082031 C 135.546875 310.25 134.792969 306.347656 135.035156 302.40625 C 135.0625 301.925781 135.109375 301.445312 135.167969 300.96875 C 135.199219 300.707031 134.921875 300.484375 134.683594 300.484375 C 134.394531 300.484375 134.234375 300.707031 134.199219 300.96875 " fill-opacity="1" fill-rule="nonzero"/><g clip-path="url(#6c16a29511)"><path fill="#c62328" d="M 145.089844 14.597656 C 145.097656 16.609375 145.3125 18.621094 145.859375 20.558594 C 146.460938 22.683594 147.234375 24.75 147.800781 26.886719 C 148.367188 29.023438 148.992188 31.25 149.121094 33.464844 C 149.183594 34.53125 149.101562 35.605469 148.734375 36.613281 C 148.359375 37.644531 147.683594 38.570312 146.96875 39.390625 C 145.546875 41.035156 143.917969 42.527344 142.308594 43.988281 C 140.648438 45.496094 138.929688 46.941406 137.136719 48.285156 C 135.386719 49.601562 133.578125 50.835938 131.660156 51.886719 C 129.773438 52.921875 127.816406 53.816406 125.855469 54.699219 C 122.089844 56.402344 118.265625 58.105469 115.023438 60.71875 C 112.164062 63.023438 109.84375 65.964844 108.222656 69.253906 C 104.289062 77.238281 104.292969 86.691406 105.390625 95.324219 C 106.539062 104.347656 108.84375 113.183594 109.933594 122.210938 C 110.058594 123.234375 110.164062 124.257812 110.25 125.28125 C 110.300781 125.898438 111.265625 125.902344 111.214844 125.28125 C 110.476562 116.328125 108.222656 107.582031 106.84375 98.722656 C 105.449219 89.808594 104.835938 80.21875 108.210938 71.644531 C 109.578125 68.183594 111.695312 65.035156 114.429688 62.503906 C 117.460938 59.699219 121.191406 57.878906 124.917969 56.179688 C 128.871094 54.378906 132.769531 52.605469 136.324219 50.074219 C 139.910156 47.515625 143.234375 44.59375 146.339844 41.472656 C 147.773438 40.027344 149.246094 38.421875 149.8125 36.414062 C 150.378906 34.410156 150.027344 32.285156 149.605469 30.289062 C 149.128906 28.027344 148.542969 25.789062 147.855469 23.582031 C 147.253906 21.660156 146.546875 19.800781 146.261719 17.800781 C 146.109375 16.742188 146.058594 15.667969 146.054688 14.597656 C 146.050781 13.976562 145.085938 13.976562 145.089844 14.597656 " fill-opacity="1" fill-rule="nonzero"/></g><path fill="#c62328" d="M 158.707031 36.476562 C 160.441406 36.890625 162.191406 37.242188 163.953125 37.523438 C 165.726562 37.808594 167.511719 37.988281 169.292969 37.675781 C 170.960938 37.386719 172.542969 36.714844 174.058594 35.972656 C 175.441406 35.292969 176.785156 34.53125 178.050781 33.644531 C 179.484375 32.640625 180.816406 31.488281 181.949219 30.148438 C 182.117188 29.953125 182.144531 29.664062 181.949219 29.46875 C 181.777344 29.292969 181.4375 29.269531 181.265625 29.46875 C 179.308594 31.78125 176.808594 33.492188 174.121094 34.863281 C 172.703125 35.585938 171.238281 36.246094 169.6875 36.613281 C 168.058594 36.996094 166.390625 36.917969 164.742188 36.675781 C 162.796875 36.390625 160.871094 36 158.960938 35.546875 C 158.707031 35.484375 158.4375 35.625 158.367188 35.882812 C 158.300781 36.128906 158.449219 36.414062 158.707031 36.476562 " fill-opacity="1" fill-rule="nonzero"/><path fill="#c62328" d="M 250.023438 212.847656 C 251.207031 214.246094 251.953125 216.03125 252.152344 217.820312 C 252.214844 218.378906 252.230469 218.9375 252.214844 219.496094 C 252.207031 219.753906 252.445312 219.976562 252.699219 219.976562 C 252.96875 219.976562 253.171875 219.753906 253.179688 219.496094 C 253.246094 217.445312 252.800781 215.386719 251.75 213.617188 C 251.445312 213.105469 251.089844 212.617188 250.703125 212.160156 C 250.535156 211.960938 250.195312 211.988281 250.023438 212.160156 C 249.824219 212.359375 249.851562 212.644531 250.023438 212.847656 " fill-opacity="1" fill-rule="nonzero"/></svg>