<svg xmlns="http://www.w3.org/2000/svg" xmlns:xlink="http://www.w3.org/1999/xlink" width="500" zoomAndPan="magnify" viewBox="0 0 375 374.999991" height="500" preserveAspectRatio="xMidYMid meet" version="1.0"><defs><clipPath id="5279e5294d"><path d="M 67.109375 20.09375 L 307.859375 20.09375 L 307.859375 354.59375 L 67.109375 354.59375 Z M 67.109375 20.09375 " clip-rule="nonzero"/></clipPath></defs><path fill="#c62328" d="M 293.925781 54.582031 C 293.898438 54.632812 293.859375 54.683594 293.820312 54.722656 C 293.847656 54.6875 293.871094 54.648438 293.898438 54.609375 C 293.910156 54.609375 293.925781 54.59375 293.925781 54.582031 Z M 293.925781 54.582031 " fill-opacity="1" fill-rule="nonzero"/><path fill="#c62328" d="M 291.207031 55.007812 C 291.257812 54.917969 291.28125 54.800781 291.28125 54.671875 L 291.28125 54.464844 C 291.347656 54.621094 291.335938 54.816406 291.207031 55.007812 Z M 291.207031 55.007812 " fill-opacity="1" fill-rule="nonzero"/><g clip-path="url(#5279e5294d)"><path fill="#c62328" d="M 307.003906 76.222656 C 306.628906 70.082031 304.839844 63.996094 301.925781 58.582031 C 299.015625 53.183594 294.351562 48.703125 289.171875 45.492188 C 284.25 42.460938 278.554688 40.351562 272.84375 39.484375 C 272.195312 39.378906 271.558594 39.300781 270.914062 39.25 C 270.898438 38.007812 270.886719 36.761719 270.875 35.507812 C 270.859375 34.679688 270.859375 33.847656 270.847656 33.019531 C 270.835938 32.28125 270.613281 31.144531 270.859375 30.46875 C 271.09375 29.847656 271.832031 29.160156 272.234375 28.617188 C 272.726562 27.957031 273.21875 27.296875 273.710938 26.636719 C 274.746094 25.25 275.78125 23.867188 276.816406 22.480469 C 277.53125 21.535156 276.558594 20.214844 275.523438 20.214844 C 252.484375 20.199219 229.433594 20.1875 206.410156 20.175781 C 183.375 20.160156 160.324219 20.148438 137.285156 20.136719 C 124.257812 20.121094 111.242188 20.121094 98.214844 20.109375 C 97.179688 20.109375 96.207031 21.429688 96.921875 22.375 C 97.984375 23.773438 99.03125 25.171875 100.09375 26.585938 C 100.574219 27.21875 101.050781 27.855469 101.53125 28.5 C 101.972656 29.085938 102.761719 29.796875 103.007812 30.46875 C 103.226562 31.050781 103.046875 32.074219 103.046875 32.722656 L 103.046875 39.46875 C 102.28125 39.546875 101.503906 39.664062 100.742188 39.792969 C 89.292969 41.800781 77.898438 48.558594 72.367188 59.023438 C 69.429688 64.59375 67.65625 70.847656 67.410156 77.140625 C 67.109375 84.484375 69.15625 91.746094 73.132812 97.910156 C 77.003906 103.921875 82.507812 108.722656 89.175781 111.390625 C 95.394531 113.878906 102.515625 114.550781 109.042969 113.023438 C 116.476562 111.289062 122.988281 106.25 127.082031 99.75 L 127.082031 133.226562 C 126.953125 133.589844 126.976562 134.003906 127.289062 134.417969 C 129.941406 138.09375 132.597656 141.757812 135.238281 145.425781 C 136.546875 147.222656 137.84375 149.035156 139.148438 150.835938 C 139.28125 151.019531 139.394531 151.1875 139.527344 151.34375 C 138.761719 217.917969 137.996094 284.492188 137.234375 351.066406 C 137.21875 352.335938 137.207031 353.617188 137.195312 354.886719 C 138.203125 354.226562 139.214844 353.550781 140.226562 352.890625 L 158.859375 340.652344 C 159.871094 339.992188 160.878906 339.332031 161.890625 338.660156 C 163.972656 337.285156 166.058594 335.914062 168.15625 334.542969 C 169.917969 333.386719 171.667969 332.234375 173.414062 331.082031 C 174.296875 330.515625 175.175781 329.929688 176.042969 329.359375 C 176.925781 328.777344 178.207031 328.234375 178.800781 327.355469 C 179.046875 326.992188 179.242188 326.5625 179.410156 326.125 C 182.492188 321.023438 185.574219 315.917969 188.65625 310.832031 C 191.855469 305.535156 195.054688 300.25 198.253906 294.953125 C 199.84375 292.324219 201.4375 289.683594 203.03125 287.054688 C 203.820312 285.734375 204.625 284.425781 205.414062 283.105469 C 205.800781 282.457031 206.152344 281.695312 206.65625 281.136719 C 207.160156 280.578125 207.691406 280.035156 208.222656 279.492188 C 212.472656 275.011719 216.71875 270.53125 220.964844 266.039062 C 225.007812 261.777344 229.035156 257.53125 233.074219 253.269531 C 233.371094 253.035156 233.683594 252.804688 233.980469 252.570312 C 234.976562 251.820312 235.960938 251.054688 236.960938 250.304688 C 236.945312 248.996094 236.921875 247.6875 236.90625 246.378906 C 236.503906 214.859375 236.105469 183.355469 235.703125 151.835938 C 236.167969 151.25 236.558594 150.5 236.921875 150.007812 C 237.683594 148.945312 238.449219 147.871094 239.210938 146.808594 C 242.101562 142.757812 245 138.714844 247.902344 134.664062 C 247.953125 134.585938 248.019531 134.507812 248.070312 134.429688 C 248.082031 134.417969 248.09375 134.390625 248.109375 134.378906 C 248.210938 134.183594 248.265625 133.949219 248.265625 133.679688 L 248.265625 100.8125 C 249.546875 102.636719 251.023438 104.347656 252.628906 105.875 C 261.484375 114.359375 274.941406 115.601562 286 110.925781 C 299.441406 105.253906 307.882812 90.632812 307.003906 76.222656 Z M 102.96875 25.457031 C 102.386719 24.679688 101.804688 23.902344 101.21875 23.140625 C 123.261719 23.152344 145.300781 23.167969 167.328125 23.179688 C 190.367188 23.191406 213.402344 23.203125 236.453125 23.21875 C 248.484375 23.230469 260.5 23.230469 272.53125 23.242188 C 272.015625 23.941406 271.496094 24.640625 270.964844 25.339844 C 270.421875 26.066406 269.878906 26.792969 269.332031 27.515625 C 269.085938 27.839844 268.777344 28.191406 268.492188 28.554688 C 247.304688 28.554688 226.132812 28.554688 204.949219 28.554688 C 183.582031 28.554688 162.214844 28.554688 140.847656 28.554688 C 129.011719 28.554688 117.175781 28.554688 105.351562 28.554688 C 105.078125 28.203125 104.769531 27.878906 104.546875 27.582031 C 104.03125 26.855469 103.5 26.15625 102.96875 25.457031 Z M 153.992188 46.890625 C 162.082031 46.96875 170.175781 45.503906 177.84375 42.941406 C 180.875 41.929688 183.839844 40.738281 186.753906 39.417969 C 202.601562 46.253906 220.394531 47.679688 237.101562 43.109375 C 240.558594 42.164062 243.9375 40.945312 247.242188 39.535156 C 247.5 39.417969 247.695312 39.261719 247.824219 39.09375 C 253.574219 39.09375 259.324219 39.09375 265.074219 39.09375 C 258.222656 39.367188 251.460938 41.113281 244.792969 42.863281 C 240.546875 43.976562 236.390625 45.335938 232.335938 46.992188 C 229.1875 48.277344 226.105469 49.710938 222.960938 50.996094 C 214.789062 54.308594 206.101562 56.238281 197.332031 57.09375 C 181.625 58.636719 165.425781 56.964844 150.804688 50.8125 C 147.65625 49.492188 144.5625 48.066406 141.378906 46.824219 C 137.234375 45.207031 133 43.910156 128.699219 42.796875 C 121.253906 40.867188 113.71875 39.003906 106.050781 39.277344 L 106.050781 39.082031 C 112.628906 39.082031 119.195312 39.082031 125.773438 39.082031 C 125.835938 39.445312 126.058594 39.78125 126.5 40.011719 C 135.007812 44.417969 144.40625 46.800781 153.992188 46.890625 Z M 131.535156 39.082031 C 144.007812 39.082031 156.488281 39.082031 168.960938 39.082031 L 179.746094 39.082031 C 173.066406 41.566406 166.058594 43.265625 158.9375 43.742188 C 149.523438 44.378906 140.148438 42.824219 131.535156 39.082031 Z M 194.25 39.082031 C 207.1875 39.082031 220.113281 39.082031 233.046875 39.082031 L 240.003906 39.082031 C 226.832031 43.417969 212.523438 43.976562 199.066406 40.492188 C 197.449219 40.078125 195.84375 39.613281 194.25 39.082031 Z M 205.011719 36.078125 C 183.644531 36.078125 162.277344 36.078125 140.910156 36.078125 C 129.296875 36.078125 117.679688 36.078125 106.0625 36.078125 L 106.0625 32.488281 C 106.0625 32.191406 106.089844 31.882812 106.101562 31.558594 C 127.042969 31.558594 147.96875 31.558594 168.910156 31.558594 C 190.273438 31.558594 211.640625 31.558594 233.007812 31.558594 C 244.613281 31.558594 256.203125 31.558594 267.804688 31.558594 C 267.816406 31.726562 267.832031 31.894531 267.832031 32.035156 C 267.84375 33.035156 267.855469 34.019531 267.855469 35.015625 C 267.855469 35.363281 267.871094 35.726562 267.871094 36.078125 C 246.917969 36.078125 225.964844 36.078125 205.011719 36.078125 Z M 158.886719 336.859375 C 152.683594 340.9375 146.464844 345.015625 140.25 349.097656 C 140.5625 321.746094 140.871094 294.382812 141.195312 267.035156 C 141.636719 228.832031 142.078125 190.632812 142.503906 152.429688 C 143.347656 152.429688 144.1875 152.417969 145.027344 152.417969 C 150.246094 152.441406 155.464844 152.457031 160.683594 152.480469 C 160.078125 213.941406 159.480469 275.398438 158.886719 336.859375 Z M 187.15625 301.09375 C 186.195312 303.242188 185.226562 305.378906 184.265625 307.515625 C 182.53125 311.359375 180.808594 315.207031 179.074219 319.054688 C 178.207031 320.96875 177.339844 322.898438 176.484375 324.816406 C 176.070312 325.75 175.28125 326.085938 174.425781 326.640625 C 173.402344 327.316406 172.378906 327.988281 171.355469 328.660156 C 168.210938 330.734375 165.0625 332.804688 161.902344 334.863281 C 162.121094 312.359375 162.34375 289.863281 162.5625 267.371094 C 162.9375 229.078125 163.3125 190.785156 163.691406 152.496094 C 166.578125 152.507812 169.453125 152.519531 172.328125 152.535156 C 177.3125 152.558594 182.296875 152.570312 187.285156 152.585938 C 187.230469 202.089844 187.195312 251.585938 187.15625 301.09375 Z M 212.082031 265.339844 C 208.585938 267.992188 205.101562 270.660156 201.605469 273.316406 C 200.777344 273.949219 199.871094 274.546875 199.09375 275.230469 C 198.34375 275.890625 198.070312 276.824219 197.65625 277.71875 C 196.789062 279.632812 195.921875 281.5625 195.066406 283.480469 C 193.433594 287.121094 191.804688 290.746094 190.171875 294.371094 C 190.183594 285.28125 190.183594 276.191406 190.199219 267.097656 C 190.238281 228.921875 190.261719 190.761719 190.300781 152.585938 C 198.058594 152.609375 205.816406 152.648438 213.570312 152.675781 C 213.894531 189.609375 214.21875 226.527344 214.542969 263.449219 C 213.714844 264.082031 212.898438 264.703125 212.082031 265.339844 Z M 232.609375 249.683594 C 227.582031 253.515625 222.546875 257.347656 217.523438 261.179688 C 217.210938 225.027344 216.886719 188.855469 216.5625 152.6875 C 220.097656 152.703125 223.632812 152.714844 227.183594 152.726562 C 228.515625 152.726562 229.847656 152.742188 231.183594 152.742188 C 231.636719 152.742188 232.167969 152.792969 232.710938 152.832031 C 233.113281 184.777344 233.527344 216.726562 233.941406 248.660156 C 233.488281 249.007812 233.046875 249.34375 232.609375 249.683594 Z M 233.421875 149.761719 C 218.597656 149.710938 203.769531 149.644531 188.941406 149.59375 L 188.65625 149.59375 C 188.644531 149.59375 188.644531 149.59375 188.628906 149.59375 C 179.605469 149.554688 170.578125 149.515625 161.554688 149.488281 C 154.960938 149.464844 148.371094 149.4375 141.777344 149.414062 C 138.359375 144.671875 134.929688 139.933594 131.507812 135.195312 L 232.246094 135.195312 C 236.078125 135.195312 239.949219 135.308594 243.796875 135.257812 C 240.339844 140.089844 236.882812 144.917969 233.421875 149.761719 Z M 245.257812 132.175781 L 133.386719 132.175781 C 132.324219 132.175781 131.1875 132.085938 130.085938 132.097656 L 130.085938 101.175781 L 132.117188 101.175781 L 132.117188 121.335938 C 132.117188 121.855469 132.402344 122.375 132.871094 122.632812 C 135.550781 124.121094 138.644531 124.171875 141.402344 122.878906 C 141.871094 122.660156 142.15625 122.074219 142.15625 121.582031 L 142.15625 101.175781 L 145.910156 101.175781 L 145.910156 121.222656 C 145.910156 121.738281 146.195312 122.269531 146.660156 122.515625 C 149.339844 124.003906 152.4375 124.058594 155.195312 122.761719 C 155.660156 122.542969 155.933594 121.960938 155.933594 121.46875 L 155.933594 101.175781 L 159.636719 101.175781 L 159.636719 121.273438 C 159.636719 121.789062 159.921875 122.308594 160.375 122.566406 C 163.054688 124.058594 166.148438 124.109375 168.910156 122.8125 C 169.375 122.59375 169.648438 122.011719 169.648438 121.519531 L 169.648438 101.175781 L 173.402344 101.175781 L 173.402344 121.144531 C 173.402344 121.660156 173.6875 122.179688 174.140625 122.4375 C 176.820312 123.925781 179.914062 123.980469 182.675781 122.683594 C 183.140625 122.464844 183.410156 121.882812 183.410156 121.390625 L 183.410156 101.175781 L 191.207031 101.175781 L 191.207031 121.050781 C 191.207031 121.570312 191.492188 122.089844 191.945312 122.347656 C 194.625 123.835938 197.722656 123.875 200.480469 122.59375 C 200.945312 122.375 201.21875 121.789062 201.21875 121.296875 L 201.21875 101.175781 L 204.972656 101.175781 L 204.972656 120.9375 C 204.972656 121.453125 205.257812 121.984375 205.710938 122.230469 C 208.390625 123.71875 211.488281 123.773438 214.246094 122.476562 C 214.710938 122.257812 214.984375 121.675781 214.984375 121.183594 L 214.984375 101.175781 L 218.6875 101.175781 L 218.6875 120.988281 C 218.6875 121.507812 218.972656 122.023438 219.425781 122.28125 C 222.105469 123.773438 225.199219 123.824219 227.957031 122.527344 C 228.425781 122.308594 228.710938 121.726562 228.710938 121.234375 L 228.710938 101.175781 L 232.464844 101.175781 L 232.464844 120.859375 C 232.464844 121.375 232.75 121.894531 233.214844 122.152344 C 235.898438 123.644531 238.992188 123.695312 241.75 122.398438 C 242.214844 122.179688 242.5 121.597656 242.5 121.105469 L 242.5 101.1875 C 243.382812 101.214844 244.3125 101.277344 245.222656 101.265625 L 245.222656 132.175781 Z M 135.121094 120.390625 L 135.121094 101.175781 L 139.136719 101.175781 L 139.136719 120.574219 C 137.816406 120.976562 136.40625 120.898438 135.121094 120.390625 Z M 148.902344 120.277344 L 148.902344 101.175781 L 152.914062 101.175781 L 152.914062 120.457031 C 151.609375 120.859375 150.183594 120.78125 148.902344 120.277344 Z M 162.628906 120.328125 L 162.628906 101.175781 L 166.640625 101.175781 L 166.640625 120.507812 C 165.335938 120.910156 163.910156 120.832031 162.628906 120.328125 Z M 176.417969 120.199219 L 176.417969 101.175781 L 180.433594 101.175781 L 180.433594 120.378906 C 179.113281 120.78125 177.6875 120.703125 176.417969 120.199219 Z M 194.238281 120.105469 L 194.238281 101.175781 L 198.253906 101.175781 L 198.253906 120.289062 C 196.929688 120.691406 195.507812 120.613281 194.238281 120.105469 Z M 208.015625 119.992188 L 208.015625 101.175781 L 212.03125 101.175781 L 212.03125 120.171875 C 210.710938 120.574219 209.296875 120.496094 208.015625 119.992188 Z M 221.742188 120.042969 L 221.742188 101.175781 L 225.757812 101.175781 L 225.757812 120.222656 C 224.4375 120.625 223.011719 120.535156 221.742188 120.042969 Z M 235.523438 119.914062 L 235.523438 101.175781 L 239.535156 101.175781 L 239.535156 120.09375 C 238.226562 120.496094 236.804688 120.417969 235.523438 119.914062 Z M 143.101562 98.171875 C 138.335938 98.171875 133.542969 97.988281 128.789062 98.171875 C 128.726562 98.171875 128.660156 98.171875 128.582031 98.171875 C 128.351562 98.171875 128.128906 98.222656 127.9375 98.324219 C 128.480469 97.355469 128.972656 96.34375 129.398438 95.320312 C 159.636719 95.230469 189.886719 95.152344 220.125 95.074219 C 228.425781 95.050781 236.726562 95.035156 245.027344 95.011719 C 245.480469 96.097656 245.996094 97.148438 246.582031 98.171875 Z M 129.929688 70.847656 C 133.75 73.332031 138.203125 74.707031 142.761719 74.769531 C 143.824219 74.785156 144.355469 73.800781 144.214844 72.867188 C 143.046875 65.421875 137.246094 59.128906 129.789062 57.664062 C 128.597656 57.429688 127.378906 57.300781 126.160156 57.300781 C 125.773438 57.300781 125.371094 57.351562 124.96875 57.351562 C 124.96875 57.351562 124.96875 57.351562 124.957031 57.351562 C 124.878906 57.339844 124.75 57.3125 124.632812 57.261719 C 124.414062 57.144531 124.179688 57.03125 123.945312 56.925781 C 121.925781 55.96875 119.804688 55.203125 117.613281 54.722656 C 115.128906 54.179688 112.527344 53.910156 109.949219 54 C 111.347656 53.6875 112.773438 53.480469 114.234375 53.390625 C 117.707031 53.15625 121.1875 53.417969 124.621094 53.910156 C 127.675781 54.335938 130.71875 54.878906 133.671875 55.839844 C 136.015625 56.613281 138.21875 57.675781 140.445312 58.738281 C 143.398438 60.148438 146.375 61.457031 149.445312 62.585938 C 155.984375 64.980469 162.796875 66.84375 169.660156 68.0625 C 184.757812 70.757812 200.621094 70.277344 215.460938 66.261719 C 218.257812 65.511719 220.992188 64.578125 223.671875 63.464844 C 228.28125 61.5625 232.894531 59.695312 237.566406 57.976562 C 245.789062 54.929688 254.117188 51.578125 263.039062 52.25 C 268.023438 52.625 272.609375 54.089844 276.027344 57.328125 C 271.300781 54.671875 265.757812 53.558594 260.203125 54.128906 C 257.71875 54.386719 255.28125 54.917969 252.9375 55.800781 C 251.980469 56.160156 251.035156 56.5625 250.117188 57.015625 C 249.933594 57.105469 249.753906 57.183594 249.585938 57.289062 C 249.570312 57.300781 249.546875 57.3125 249.53125 57.3125 C 248.898438 57.328125 248.265625 57.238281 247.628906 57.261719 C 243.304688 57.390625 239.132812 59.113281 235.921875 62.015625 C 232.855469 64.800781 230.796875 68.722656 230.160156 72.816406 C 230.019531 73.746094 230.550781 74.730469 231.609375 74.71875 C 236.167969 74.652344 240.609375 73.28125 244.429688 70.796875 C 245.414062 70.160156 246.308594 69.421875 247.097656 68.605469 C 245.855469 70.5625 244.882812 72.699219 244.199219 74.914062 C 243.277344 77.890625 242.800781 81.039062 242.824219 84.183594 C 228.269531 78.71875 212.148438 77.878906 197.113281 81.878906 C 193.65625 82.800781 190.289062 83.992188 186.984375 85.375 C 173.570312 79.78125 158.753906 77.269531 144.394531 80.351562 C 139.980469 81.296875 135.691406 82.785156 131.613281 84.714844 C 131.71875 79.082031 130.253906 73.359375 127.261719 68.660156 C 128.050781 69.472656 128.945312 70.210938 129.929688 70.847656 Z M 126.199219 60.332031 C 126.316406 60.332031 126.433594 60.320312 126.550781 60.332031 C 130.28125 60.394531 133.945312 61.925781 136.652344 64.5 C 138.710938 66.46875 140.121094 68.957031 140.886719 71.664062 C 134.269531 70.964844 127.429688 67.128906 126.199219 60.332031 Z M 124.984375 65.628906 C 123.339844 63.761719 121.382812 62.144531 119.128906 60.902344 C 115.375 58.816406 111.140625 57.484375 106.878906 57.339844 C 109.742188 56.847656 112.707031 56.925781 115.554688 57.40625 C 117.601562 57.753906 119.648438 58.335938 121.5625 59.152344 C 122.09375 59.375 122.601562 59.644531 123.117188 59.890625 C 123.351562 61.949219 123.984375 63.878906 124.984375 65.628906 Z M 251.253906 59.878906 C 251.695312 59.660156 252.109375 59.398438 252.511719 59.21875 C 254.441406 58.351562 256.511719 57.742188 258.597656 57.378906 C 261.199219 56.914062 263.921875 56.835938 266.550781 57.199219 C 262.46875 57.523438 258.429688 58.921875 254.894531 60.964844 C 252.824219 62.171875 250.996094 63.710938 249.441406 65.472656 C 250.386719 63.777344 251.007812 61.886719 251.253906 59.878906 Z M 249.3125 57.429688 C 249.351562 57.40625 249.441406 57.367188 249.496094 57.339844 C 249.390625 57.40625 249.339844 57.429688 249.3125 57.429688 Z M 248.160156 60.320312 C 246.90625 67.089844 240.078125 70.898438 233.5 71.597656 C 235.261719 65.523438 240.457031 60.746094 247.007812 60.304688 C 247.394531 60.28125 247.785156 60.292969 248.160156 60.320312 Z M 219.503906 89.210938 C 227.429688 89.183594 235.351562 89.171875 243.265625 89.144531 C 243.316406 89.46875 243.394531 89.792969 243.460938 90.117188 C 243.601562 90.75 243.757812 91.386719 243.9375 92.007812 C 214.039062 92.085938 184.136719 92.160156 154.238281 92.253906 C 146.3125 92.277344 138.386719 92.292969 130.460938 92.316406 C 130.71875 91.421875 130.941406 90.53125 131.109375 89.609375 C 131.121094 89.558594 131.132812 89.507812 131.132812 89.457031 C 160.59375 89.363281 190.054688 89.285156 219.503906 89.210938 Z M 135.160156 86.4375 C 149.226562 80.570312 164.894531 81 179.347656 85.726562 C 179.929688 85.90625 180.5 86.113281 181.066406 86.308594 C 172.339844 86.335938 163.625 86.359375 154.898438 86.386719 C 148.320312 86.398438 141.738281 86.414062 135.160156 86.4375 Z M 193.035156 86.269531 C 194.042969 85.921875 195.066406 85.597656 196.101562 85.296875 C 204.261719 82.902344 212.78125 81.96875 221.25 82.539062 C 227.414062 82.953125 233.488281 84.199219 239.339844 86.152344 C 223.90625 86.191406 208.46875 86.230469 193.035156 86.269531 Z M 301.304688 91.488281 C 296.65625 101.785156 287.269531 109.269531 275.925781 110.472656 C 269.554688 111.144531 262.832031 109.929688 257.550781 106.132812 C 257.019531 105.757812 256.964844 105.707031 256.304688 105.164062 C 255.605469 104.566406 254.945312 103.960938 254.296875 103.3125 C 252.539062 101.550781 250.96875 99.609375 249.675781 97.484375 C 244.222656 88.550781 244.40625 75.804688 251.460938 67.6875 C 258.132812 60.019531 270.796875 57.367188 279.125 63.789062 C 283.578125 67.234375 286.542969 72.285156 286.542969 78.007812 C 286.542969 83.601562 284.289062 90.117188 278.8125 92.523438 C 273.035156 95.0625 264.8125 92.355469 262.183594 86.464844 C 261.277344 84.445312 260.992188 81.761719 261.796875 79.613281 C 263.039062 76.324219 266.910156 74.679688 270.238281 75.339844 C 273.542969 75.988281 276.078125 78.824219 276.429688 82.175781 C 276.714844 84.910156 275.472656 87.449219 273.414062 89.183594 C 271.9375 90.441406 274.058594 92.550781 275.535156 91.308594 C 281.183594 86.542969 280.535156 77.179688 273.957031 73.527344 C 270.578125 71.648438 266.238281 71.765625 262.960938 73.8125 C 259.570312 75.921875 257.976562 79.730469 258.402344 83.640625 C 259.128906 90.207031 264.621094 95.023438 270.992188 96.175781 C 274.65625 96.835938 278.539062 96.359375 281.738281 94.363281 C 284.625 92.550781 286.648438 89.742188 287.914062 86.621094 C 290.441406 80.417969 290.117188 73.035156 286.453125 67.351562 C 285.585938 66.003906 284.5625 64.722656 283.410156 63.554688 C 281.429688 57.9375 277.425781 53.3125 271.859375 51.097656 C 263.714844 47.859375 254.519531 49.027344 246.398438 51.65625 C 239.574219 53.882812 232.816406 56.445312 226.183594 59.191406 C 223.207031 60.421875 220.253906 61.691406 217.171875 62.636719 C 203.898438 66.730469 189.484375 67.648438 175.746094 65.964844 C 168.625 65.085938 161.644531 63.375 154.804688 61.226562 C 151.089844 60.058594 147.4375 58.6875 143.890625 57.054688 C 141.457031 55.929688 139.058594 54.699219 136.558594 53.703125 C 130.707031 51.359375 123.972656 50.425781 117.691406 50.308594 C 109.132812 50.152344 100.691406 52.792969 94.757812 59.191406 C 93.671875 60.371094 92.671875 61.652344 91.78125 62.984375 C 90.136719 64.515625 88.710938 66.277344 87.597656 68.167969 C 84.140625 74.03125 84.140625 81.441406 86.859375 87.578125 C 88.207031 90.621094 90.433594 93.351562 93.386719 94.933594 C 96.664062 96.695312 100.519531 97.03125 104.121094 96.214844 C 110.480469 94.777344 115.75 89.742188 116.101562 83.070312 C 116.308594 79.171875 114.378906 75.484375 110.882812 73.65625 C 107.398438 71.832031 102.96875 71.921875 99.691406 74.1875 C 93.839844 78.242188 93.476562 86.890625 98.902344 91.476562 C 100.378906 92.71875 102.515625 90.609375 101.027344 89.351562 C 98.941406 87.589844 97.671875 84.960938 98.035156 82.191406 C 98.488281 78.679688 101.3125 75.753906 104.859375 75.40625 C 108.226562 75.066406 111.839844 76.921875 112.808594 80.300781 C 113.457031 82.527344 113.042969 85.222656 111.96875 87.203125 C 108.925781 92.847656 100.726562 95.375 95.042969 92.421875 C 89.8125 89.6875 87.753906 83.214844 87.894531 77.644531 C 88.011719 72.894531 90.253906 68.605469 93.632812 65.394531 C 93.75 65.292969 93.863281 65.175781 93.980469 65.070312 C 94.214844 64.863281 94.433594 64.667969 94.679688 64.476562 C 94.980469 64.214844 95.289062 63.984375 95.613281 63.75 C 100.105469 60.433594 105.726562 59.59375 111.125 60.941406 C 115.890625 62.132812 120.296875 64.566406 123.417969 68.414062 C 126.613281 72.363281 128.246094 77.503906 128.542969 82.539062 C 128.867188 88.097656 127.429688 93.46875 124.453125 98.15625 C 123.144531 100.214844 121.578125 102.09375 119.828125 103.789062 C 119.207031 104.398438 118.546875 104.980469 117.886719 105.539062 C 117.289062 106.03125 117.367188 105.980469 116.761719 106.40625 C 106.296875 113.789062 90.886719 111.546875 81.601562 103.296875 C 77.753906 99.878906 74.660156 95.503906 72.730469 90.738281 C 69.816406 83.550781 69.753906 75.636719 71.890625 68.230469 C 73.003906 64.398438 74.597656 60.628906 76.941406 57.367188 C 80.734375 52.070312 86.148438 48.042969 92.128906 45.503906 C 97.683594 43.132812 103.707031 41.957031 109.742188 42.242188 C 114.078125 42.449219 118.351562 43.316406 122.5625 44.339844 C 126.976562 45.402344 131.394531 46.527344 135.707031 47.953125 C 141.816406 49.972656 147.566406 52.886719 153.589844 55.125 C 161.164062 57.949219 169.207031 59.515625 177.246094 60.214844 C 191.867188 61.511719 207.332031 59.980469 221.132812 54.894531 C 227.335938 52.601562 233.242188 49.582031 239.535156 47.523438 C 243.808594 46.125 248.1875 45.023438 252.550781 43.988281 C 256.746094 42.992188 261.007812 42.175781 265.332031 42.035156 C 277.75 41.632812 290.894531 47.460938 297.964844 57.859375 C 300.179688 61.109375 301.679688 64.875 302.71875 68.660156 C 304.777344 76.207031 304.542969 84.3125 301.304688 91.488281 Z M 301.304688 91.488281 " fill-opacity="1" fill-rule="nonzero"/></g><path fill="#c62328" d="M 184.035156 311.4375 C 181.585938 310.066406 180.484375 307.308594 179.800781 304.71875 C 179.023438 301.792969 178.671875 298.722656 177.195312 296.027344 C 176.417969 294.617188 175.34375 293.53125 174.113281 292.492188 C 172.976562 291.535156 171.914062 290.550781 171.34375 289.140625 C 170.214844 286.34375 170.761719 283.15625 171.1875 280.28125 C 171.71875 276.734375 172.132812 272.914062 170.230469 269.6875 C 169.59375 268.613281 167.910156 269.585938 168.546875 270.671875 C 170.242188 273.546875 169.722656 277.070312 169.246094 280.203125 C 168.792969 283.183594 168.339844 286.382812 169.324219 289.308594 C 169.839844 290.824219 170.722656 292.117188 171.914062 293.179688 C 173.050781 294.203125 174.308594 295.097656 175.136719 296.402344 C 176.820312 299.046875 177.117188 302.269531 177.910156 305.25 C 178.722656 308.332031 180.136719 311.503906 183.035156 313.121094 C 184.148438 313.730469 185.132812 312.058594 184.035156 311.4375 Z M 184.035156 311.4375 " fill-opacity="1" fill-rule="nonzero"/><path fill="#c62328" d="M 176.886719 294.734375 C 176.679688 293.359375 177.625 292.066406 178.554688 291.171875 C 179.59375 290.164062 180.847656 289.398438 181.949219 288.464844 C 183.996094 286.71875 185.652344 283.6875 184.035156 281.109375 C 183.375 280.0625 181.691406 281.03125 182.351562 282.09375 C 183.917969 284.59375 180.808594 286.964844 179.085938 288.246094 C 176.792969 289.957031 174.542969 292.144531 175.007812 295.25 C 175.085938 295.769531 175.746094 296.054688 176.199219 295.925781 C 176.769531 295.78125 176.964844 295.265625 176.886719 294.734375 Z M 176.886719 294.734375 " fill-opacity="1" fill-rule="nonzero"/><path fill="#c62328" d="M 234.316406 196.082031 C 228.359375 197.753906 223.363281 201.429688 219.722656 206.390625 C 218.828125 207.609375 217.949219 208.878906 216.757812 209.808594 C 215.460938 210.820312 213.855469 211.273438 212.339844 211.816406 C 209.480469 212.839844 206.761719 214.265625 204.300781 216.078125 C 201.554688 218.097656 199.171875 220.519531 197.191406 223.289062 C 196.464844 224.3125 198.148438 225.285156 198.875 224.273438 C 202.242188 219.574219 207.03125 215.855469 212.457031 213.835938 C 213.933594 213.28125 215.476562 212.851562 216.859375 212.074219 C 218.257812 211.273438 219.347656 210.09375 220.320312 208.839844 C 221.210938 207.671875 222.027344 206.457031 223.011719 205.355469 C 223.96875 204.28125 225.019531 203.28125 226.144531 202.375 C 228.710938 200.332031 231.6875 198.839844 234.835938 197.960938 C 236.039062 197.625 235.523438 195.746094 234.316406 196.082031 Z M 234.316406 196.082031 " fill-opacity="1" fill-rule="nonzero"/><path fill="#c62328" d="M 210.089844 213.875 C 209.390625 220.15625 208.664062 226.515625 206.539062 232.511719 C 205.515625 235.371094 203.847656 238.015625 203.058594 240.953125 C 202.65625 242.417969 202.566406 243.917969 202.863281 245.410156 C 203.148438 246.921875 203.808594 248.335938 204.3125 249.785156 C 204.738281 251.027344 205.0625 252.296875 204.84375 253.632812 C 204.664062 254.695312 204.171875 255.832031 203.082031 256.207031 C 201.917969 256.621094 202.421875 258.5 203.601562 258.085938 C 206.035156 257.21875 207.007812 254.617188 206.839844 252.195312 C 206.628906 249.164062 204.558594 246.546875 204.625 243.492188 C 204.6875 240.359375 206.644531 237.496094 207.796875 234.671875 C 209.050781 231.578125 209.894531 228.328125 210.515625 225.050781 C 211.214844 221.347656 211.628906 217.605469 212.042969 213.875 C 212.09375 213.359375 211.550781 212.90625 211.074219 212.90625 C 210.488281 212.90625 210.152344 213.359375 210.089844 213.875 Z M 210.089844 213.875 " fill-opacity="1" fill-rule="nonzero"/><path fill="#c62328" d="M 140.394531 159.667969 C 142.453125 162.21875 142.890625 165.664062 143.175781 168.8125 C 143.460938 171.894531 143.644531 175.039062 144.769531 177.964844 C 145.3125 179.363281 146.039062 180.671875 147.050781 181.785156 C 148.109375 182.953125 149.445312 183.703125 150.871094 184.351562 C 152.230469 184.972656 153.769531 185.582031 154.625 186.875 C 155.441406 188.105469 155.621094 189.621094 155.597656 191.058594 C 155.570312 192.753906 155.285156 194.453125 155.050781 196.136719 C 154.765625 198.15625 154.484375 200.1875 154.210938 202.207031 C 153.667969 206.15625 153.214844 210.132812 152.554688 214.058594 C 152.292969 215.558594 151.945312 217.191406 150.855469 218.34375 C 149.753906 219.507812 148.214844 220.117188 146.984375 221.113281 C 145.003906 222.71875 143.992188 225.128906 143.589844 227.589844 C 143.101562 230.554688 143.242188 233.558594 143.035156 236.539062 C 142.839844 239.207031 142.324219 241.988281 140.328125 243.933594 C 139.433594 244.8125 140.808594 246.183594 141.699219 245.304688 C 145.726562 241.382812 144.875 235.164062 145.238281 230.074219 C 145.40625 227.746094 145.804688 225.179688 147.425781 223.367188 C 148.433594 222.226562 149.820312 221.605469 151.039062 220.726562 C 152.488281 219.675781 153.433594 218.292969 153.964844 216.582031 C 154.496094 214.886719 154.636719 213.085938 154.882812 211.324219 C 155.183594 209.214844 155.464844 207.101562 155.765625 204.992188 C 156.320312 201.003906 156.980469 197.015625 157.410156 193.015625 C 157.746094 189.855469 157.5 186.359375 154.78125 184.273438 C 153.511719 183.289062 151.96875 182.796875 150.570312 182.046875 C 149.226562 181.332031 148.175781 180.308594 147.398438 179.003906 C 145.625 176 145.429688 172.398438 145.121094 169.003906 C 144.78125 165.199219 144.214844 161.339844 141.738281 158.28125 C 141.402344 157.867188 140.71875 157.945312 140.367188 158.28125 C 139.980469 158.699219 140.070312 159.265625 140.394531 159.667969 Z M 140.394531 159.667969 " fill-opacity="1" fill-rule="nonzero"/></svg>