<svg xmlns="http://www.w3.org/2000/svg" xmlns:xlink="http://www.w3.org/1999/xlink" width="500" zoomAndPan="magnify" viewBox="0 0 375 374.999991" height="500" preserveAspectRatio="xMidYMid meet" version="1.0"><defs><clipPath id="0245afaa8a"><path d="M 164 240 L 261 240 L 261 362.269531 L 164 362.269531 Z M 164 240 " clip-rule="nonzero"/></clipPath></defs><path fill="#c62328" d="M 209.972656 126.070312 C 209.644531 126.070312 209.480469 125.90625 209.316406 125.742188 C 203.878906 111.414062 197.621094 107.132812 184.285156 98.898438 L 183.128906 98.238281 C 168.804688 89.347656 163.535156 79.796875 163.203125 79.300781 C 157.605469 66.949219 156.945312 55.257812 161.226562 44.882812 C 168.804688 26.109375 189.882812 17.050781 192.1875 16.230469 C 200.75 12.769531 227.757812 22.320312 228.910156 22.652344 C 229.078125 22.816406 229.242188 22.980469 229.242188 23.308594 L 229.242188 31.707031 C 229.242188 31.875 229.078125 32.203125 228.910156 32.203125 C 228.746094 32.367188 224.628906 34.507812 216.066406 34.34375 C 214.75 34.835938 201.574219 38.789062 196.304688 35.332031 C 196.140625 35.167969 188.730469 30.886719 180.496094 42.25 C 180.332031 42.414062 174.074219 49.164062 173.578125 63.164062 C 172.921875 81.277344 177.53125 88.359375 185.105469 97.910156 C 198.28125 105.980469 205.035156 110.589844 210.632812 125.246094 C 210.796875 125.578125 210.632812 125.90625 210.304688 126.070312 C 210.136719 126.070312 210.136719 126.070312 209.972656 126.070312 Z M 197.292969 16.558594 C 195.648438 16.558594 194.164062 16.722656 192.683594 17.21875 C 190.375 18.207031 169.792969 26.933594 162.382812 45.210938 C 158.265625 55.257812 158.921875 66.621094 164.355469 78.644531 C 164.355469 78.644531 169.296875 87.535156 181.976562 95.933594 C 175.390625 87.371094 171.601562 79.796875 172.261719 63.164062 C 172.753906 48.671875 179.34375 41.753906 179.507812 41.589844 C 188.402344 29.402344 196.964844 34.34375 197.128906 34.507812 C 201.90625 37.800781 215.738281 33.519531 215.902344 33.355469 C 215.902344 33.355469 216.066406 33.355469 216.066406 33.355469 C 220.183594 33.519531 224.300781 32.863281 228.089844 31.542969 L 228.089844 23.640625 C 225.289062 22.652344 207.339844 16.558594 197.292969 16.558594 Z M 197.292969 16.558594 " fill-opacity="1" fill-rule="nonzero"/><path fill="#c62328" d="M 177.367188 53.777344 C 176.214844 53.777344 175.226562 53.613281 174.238281 52.953125 C 173.910156 52.789062 173.910156 52.457031 174.074219 52.128906 C 174.238281 51.800781 174.566406 51.800781 174.898438 51.964844 C 176.707031 52.789062 178.683594 52.789062 180.332031 51.964844 C 180.660156 51.800781 180.988281 51.964844 181.15625 52.292969 C 181.320312 52.625 181.15625 52.953125 180.824219 53.117188 C 179.835938 53.613281 178.519531 53.777344 177.367188 53.777344 Z M 177.367188 53.777344 " fill-opacity="1" fill-rule="nonzero"/><path fill="#c62328" d="M 176.050781 62.175781 C 175.226562 62.175781 174.566406 62.175781 173.742188 62.011719 C 173.578125 62.011719 173.414062 62.011719 173.25 62.011719 C 172.921875 62.175781 172.589844 62.011719 172.425781 61.679688 C 172.425781 61.515625 172.425781 61.1875 172.589844 61.023438 C 172.921875 60.691406 173.25 60.691406 173.910156 60.859375 C 176.542969 61.351562 179.179688 60.859375 181.484375 59.539062 C 181.8125 59.375 182.144531 59.375 182.308594 59.703125 C 182.472656 60.035156 182.472656 60.363281 182.144531 60.527344 C 180.332031 61.679688 178.191406 62.175781 176.050781 62.175781 Z M 176.050781 62.175781 " fill-opacity="1" fill-rule="nonzero"/><path fill="#c62328" d="M 173.085938 71.398438 C 172.753906 71.398438 172.425781 71.066406 172.425781 70.738281 C 172.425781 70.410156 172.753906 70.078125 172.921875 70.078125 C 177.039062 69.75 180.988281 68.597656 184.613281 66.621094 C 184.941406 66.457031 185.273438 66.621094 185.4375 66.785156 C 185.601562 67.117188 185.601562 67.445312 185.273438 67.609375 C 181.648438 69.914062 177.367188 71.066406 173.085938 71.398438 Z M 173.085938 71.398438 " fill-opacity="1" fill-rule="nonzero"/><path fill="#c62328" d="M 174.074219 79.796875 C 173.742188 79.796875 173.414062 79.464844 173.414062 79.136719 C 173.414062 78.808594 173.578125 78.644531 173.910156 78.476562 C 174.074219 78.476562 184.285156 76.503906 188.566406 71.726562 C 188.730469 71.398438 189.222656 71.398438 189.386719 71.726562 C 189.71875 71.890625 189.71875 72.386719 189.386719 72.550781 C 184.941406 77.65625 174.730469 79.632812 174.074219 79.796875 C 174.238281 79.796875 174.238281 79.796875 174.074219 79.796875 Z M 174.074219 79.796875 " fill-opacity="1" fill-rule="nonzero"/><path fill="#c62328" d="M 177.367188 88.359375 C 177.039062 88.359375 176.707031 88.03125 176.707031 87.699219 C 176.707031 87.371094 176.871094 87.207031 177.203125 87.042969 C 177.367188 87.042969 188.730469 84.40625 195.152344 77.65625 C 195.316406 77.324219 195.8125 77.324219 195.976562 77.65625 C 196.304688 77.820312 196.304688 78.3125 195.976562 78.476562 C 189.386719 85.722656 178.027344 88.359375 177.367188 88.359375 C 177.53125 88.359375 177.53125 88.359375 177.367188 88.359375 Z M 177.367188 88.359375 " fill-opacity="1" fill-rule="nonzero"/><path fill="#c62328" d="M 230.722656 258.476562 C 230.394531 258.476562 230.066406 258.144531 230.066406 257.816406 C 230.066406 257.652344 230.066406 257.488281 230.230469 257.320312 C 233.6875 254.6875 236.652344 251.394531 239.285156 247.933594 C 241.097656 245.628906 241.921875 242.664062 241.921875 239.699219 C 241.429688 236.40625 239.945312 233.277344 237.640625 230.808594 C 233.359375 226.527344 226.277344 226.691406 220.019531 227.183594 C 215.410156 227.515625 210.632812 228.171875 206.1875 229.160156 C 200.585938 230.3125 194.988281 231.136719 189.386719 231.632812 C 171.769531 233.113281 154.148438 229.984375 138.171875 222.410156 C 117.753906 206.765625 109.683594 191.285156 114.128906 176.300781 C 121.046875 152.75 157.277344 138.09375 174.566406 136.777344 C 200.421875 134.800781 209.480469 125.082031 209.480469 125.082031 C 221.667969 114.542969 215.242188 101.535156 209.480469 92.640625 C 207.339844 89.511719 204.867188 86.710938 202.070312 84.242188 C 195.976562 92.3125 183.296875 96.097656 182.800781 96.265625 C 182.472656 96.429688 182.144531 96.097656 181.976562 95.769531 C 181.8125 95.441406 182.144531 95.109375 182.472656 94.945312 C 182.636719 94.945312 195.316406 91.160156 201.082031 83.253906 C 199.929688 82.265625 198.777344 81.441406 197.621094 80.453125 C 193.175781 77.160156 189.222656 73.375 185.601562 69.089844 C 176.542969 57.730469 180.660156 40.4375 180.824219 39.613281 C 180.824219 39.285156 181.320312 39.121094 181.648438 39.121094 C 181.976562 39.121094 182.144531 39.613281 182.144531 39.941406 C 182.144531 40.109375 178.027344 57.5625 186.753906 68.433594 C 190.210938 72.714844 194.164062 76.335938 198.609375 79.632812 C 199.929688 80.621094 201.082031 81.605469 202.398438 82.761719 C 210.304688 85.890625 235.828125 97.582031 239.945312 119.648438 C 245.214844 147.316406 216.5625 160.324219 198.941406 165.429688 C 194.492188 166.746094 189.882812 167.898438 185.4375 168.886719 C 177.859375 170.535156 170.449219 172.675781 163.203125 175.476562 C 158.59375 177.285156 150.523438 182.0625 148.710938 187.992188 C 147.890625 190.460938 148.382812 193.261719 150.03125 195.238281 C 150.851562 196.554688 152.007812 197.707031 153.160156 198.53125 C 168.472656 211.210938 204.375 204.460938 204.867188 204.292969 C 217.878906 202.484375 228.417969 202.976562 237.804688 205.941406 C 242.085938 207.09375 246.039062 209.070312 249.496094 211.871094 C 258.390625 219.609375 265.304688 232.949219 259.542969 243.652344 C 251.800781 258.308594 230.886719 258.476562 230.722656 258.476562 Z M 225.125 225.703125 C 230.066406 225.703125 235.171875 226.527344 238.628906 229.984375 C 241.261719 232.621094 242.910156 236.078125 243.238281 239.699219 C 243.402344 242.996094 242.414062 246.125 240.441406 248.757812 C 238.132812 251.886719 235.5 254.6875 232.535156 257.15625 C 237.640625 256.664062 252.460938 254.523438 258.554688 243.160156 C 263.988281 233.113281 257.238281 220.433594 248.671875 212.859375 C 245.378906 210.222656 241.429688 208.246094 237.3125 207.09375 C 228.089844 204.128906 217.714844 203.636719 204.867188 205.449219 C 203.386719 205.777344 167.980469 212.363281 152.171875 199.355469 C 150.851562 198.367188 149.699219 197.046875 148.710938 195.730469 C 146.902344 193.261719 146.40625 190.296875 147.230469 187.332031 C 149.042969 181.402344 156.617188 176.464844 162.382812 173.992188 C 169.625 171.195312 177.203125 169.054688 184.777344 167.40625 C 189.222656 166.417969 193.671875 165.265625 198.117188 163.949219 C 219.03125 157.691406 242.910156 145.007812 238.300781 119.484375 C 234.675781 100.382812 214.585938 89.347656 204.703125 84.902344 C 206.84375 86.878906 208.65625 89.183594 210.136719 91.488281 C 213.597656 96.757812 224.464844 113.0625 209.972656 125.578125 C 209.644531 125.90625 200.75 135.621094 174.238281 137.597656 C 157.605469 139.246094 122.199219 153.574219 115.28125 176.628906 C 111 191.121094 118.90625 206.105469 138.667969 221.257812 C 154.476562 228.667969 171.769531 231.796875 189.222656 230.3125 C 194.824219 229.820312 200.421875 228.996094 205.855469 227.84375 C 210.46875 226.855469 215.242188 226.195312 219.855469 225.867188 C 221.667969 225.703125 223.3125 225.703125 225.125 225.703125 Z M 225.125 225.703125 " fill-opacity="1" fill-rule="nonzero"/><path fill="#c62328" d="M 191.53125 103.179688 C 191.199219 103.179688 190.871094 102.851562 190.871094 102.523438 C 190.871094 102.355469 191.035156 102.027344 191.199219 102.027344 C 191.363281 102.027344 202.726562 95.933594 207.667969 89.183594 C 207.832031 88.851562 208.328125 88.851562 208.492188 89.019531 C 208.820312 89.183594 208.820312 89.675781 208.65625 89.839844 C 203.550781 96.921875 192.351562 102.851562 191.859375 103.015625 C 191.695312 103.179688 191.53125 103.179688 191.53125 103.179688 Z M 191.53125 103.179688 " fill-opacity="1" fill-rule="nonzero"/><path fill="#c62328" d="M 198.777344 108.613281 C 198.445312 108.613281 198.117188 108.285156 198.117188 107.957031 C 198.117188 107.792969 198.28125 107.460938 198.445312 107.460938 C 198.609375 107.460938 208.65625 103.015625 212.609375 97.085938 C 212.773438 96.757812 213.101562 96.757812 213.433594 96.921875 C 213.761719 97.085938 213.761719 97.417969 213.597656 97.746094 C 209.480469 104.167969 199.269531 108.449219 198.941406 108.613281 C 198.941406 108.613281 198.777344 108.613281 198.777344 108.613281 Z M 198.777344 108.613281 " fill-opacity="1" fill-rule="nonzero"/><path fill="#c62328" d="M 203.878906 114.214844 C 203.550781 114.214844 203.222656 113.882812 203.222656 113.554688 C 203.222656 113.226562 203.386719 113.0625 203.550781 113.0625 C 203.550781 113.0625 211.621094 109.933594 215.738281 104.828125 C 215.902344 104.496094 216.394531 104.496094 216.5625 104.828125 C 216.726562 105.15625 216.890625 105.484375 216.5625 105.652344 C 212.113281 110.921875 204.210938 114.050781 203.878906 114.214844 C 204.046875 114.214844 204.046875 114.214844 203.878906 114.214844 Z M 203.878906 114.214844 " fill-opacity="1" fill-rule="nonzero"/><path fill="#c62328" d="M 207.175781 119.648438 C 206.84375 119.648438 206.515625 119.320312 206.515625 118.988281 C 206.515625 118.660156 206.679688 118.496094 207.007812 118.332031 C 210.46875 117.671875 213.761719 115.859375 216.394531 113.390625 C 216.5625 113.226562 217.054688 113.226562 217.21875 113.390625 C 217.382812 113.554688 217.382812 114.050781 217.21875 114.214844 C 214.585938 117.015625 211.125 118.824219 207.175781 119.648438 C 207.339844 119.648438 207.339844 119.648438 207.175781 119.648438 Z M 207.175781 119.648438 " fill-opacity="1" fill-rule="nonzero"/><path fill="#c62328" d="M 139.984375 223.234375 C 139.820312 223.234375 139.65625 223.066406 139.492188 223.066406 C 132.574219 214.339844 132.410156 201.988281 139.160156 191.945312 C 143.277344 185.851562 149.042969 180.910156 155.957031 178.109375 C 156.289062 177.945312 156.617188 178.109375 156.78125 178.441406 C 156.945312 178.769531 156.78125 179.097656 156.453125 179.261719 C 156.453125 179.261719 156.453125 179.261719 156.289062 179.261719 C 149.699219 182.0625 144.101562 186.671875 140.148438 192.601562 C 133.726562 202.320312 133.890625 214.011719 140.476562 222.246094 C 140.644531 222.574219 140.644531 222.902344 140.3125 223.066406 C 140.3125 223.234375 140.148438 223.234375 139.984375 223.234375 Z M 139.984375 223.234375 " fill-opacity="1" fill-rule="nonzero"/><path fill="#c62328" d="M 136.03125 200.175781 C 135.867188 200.175781 135.867188 200.175781 135.703125 200.175781 C 135.375 200.011719 135.375 199.683594 135.539062 199.355469 C 138.503906 194.085938 147.066406 190.625 147.558594 190.460938 C 147.890625 190.296875 148.21875 190.460938 148.382812 190.789062 C 148.546875 191.121094 148.382812 191.449219 148.054688 191.613281 C 147.890625 191.613281 139.324219 195.238281 136.691406 200.011719 C 136.527344 200.175781 136.363281 200.175781 136.03125 200.175781 Z M 136.03125 200.175781 " fill-opacity="1" fill-rule="nonzero"/><path fill="#c62328" d="M 135.867188 215.328125 C 135.375 215.328125 135.207031 215 135.207031 214.667969 C 137.515625 203.636719 150.03125 197.046875 150.523438 196.882812 C 150.851562 196.71875 151.183594 196.882812 151.347656 197.046875 C 151.511719 197.378906 151.347656 197.707031 151.183594 197.871094 C 151.019531 197.871094 138.667969 204.460938 136.527344 214.835938 C 136.363281 215 136.195312 215.328125 135.867188 215.328125 Z M 135.867188 215.328125 " fill-opacity="1" fill-rule="nonzero"/><path fill="#c62328" d="M 143.9375 224.878906 C 143.605469 224.878906 143.277344 224.550781 143.277344 224.222656 C 144.101562 215.164062 148.054688 206.601562 154.476562 200.011719 C 154.804688 199.847656 155.136719 199.847656 155.300781 200.011719 C 155.464844 200.175781 155.464844 200.671875 155.300781 200.835938 C 149.207031 207.257812 145.417969 215.492188 144.59375 224.222656 C 144.59375 224.714844 144.265625 224.878906 143.9375 224.878906 Z M 143.9375 224.878906 " fill-opacity="1" fill-rule="nonzero"/><path fill="#c62328" d="M 153.816406 228.007812 C 153.488281 228.007812 153.160156 227.84375 153.160156 227.515625 C 151.839844 215.492188 160.898438 203.964844 161.226562 203.472656 C 161.394531 203.140625 161.886719 203.140625 162.050781 203.304688 C 162.382812 203.472656 162.382812 203.964844 162.214844 204.128906 C 162.050781 204.292969 153.160156 215.65625 154.3125 227.351562 C 154.476562 227.679688 154.148438 228.007812 153.816406 228.007812 Z M 153.816406 228.007812 " fill-opacity="1" fill-rule="nonzero"/><path fill="#c62328" d="M 162.546875 230.3125 C 162.214844 230.3125 161.886719 229.984375 161.886719 229.65625 C 162.546875 209.5625 169.132812 205.449219 169.296875 205.28125 C 169.625 205.117188 169.957031 205.117188 170.121094 205.449219 C 170.285156 205.777344 170.285156 206.105469 169.957031 206.269531 C 169.792969 206.269531 163.699219 210.386719 163.039062 229.65625 C 163.203125 229.984375 162.875 230.3125 162.546875 230.3125 Z M 162.546875 230.3125 " fill-opacity="1" fill-rule="nonzero"/><path fill="#c62328" d="M 172.261719 231.632812 C 171.933594 231.632812 171.601562 231.46875 171.601562 231.136719 C 170.449219 222.574219 172.261719 213.847656 176.542969 206.433594 C 176.707031 206.105469 177.203125 206.105469 177.367188 206.269531 C 177.695312 206.433594 177.695312 206.765625 177.53125 207.09375 C 173.414062 214.339844 171.769531 222.738281 172.753906 230.972656 C 172.921875 231.300781 172.753906 231.46875 172.261719 231.632812 C 172.425781 231.632812 172.425781 231.632812 172.261719 231.632812 Z M 172.261719 231.632812 " fill-opacity="1" fill-rule="nonzero"/><path fill="#c62328" d="M 181.8125 231.960938 C 181.484375 231.960938 181.320312 231.796875 181.15625 231.46875 C 178.191406 213.351562 184.613281 206.765625 184.941406 206.433594 C 185.105469 206.269531 185.601562 206.269531 185.765625 206.433594 C 185.929688 206.601562 185.929688 207.09375 185.765625 207.257812 C 185.765625 207.257812 179.507812 213.847656 182.308594 231.300781 C 182.472656 231.632812 182.308594 231.796875 181.8125 231.960938 C 181.976562 231.960938 181.976562 231.960938 181.8125 231.960938 Z M 181.8125 231.960938 " fill-opacity="1" fill-rule="nonzero"/><path fill="#c62328" d="M 190.871094 231.136719 C 190.542969 231.136719 190.375 230.972656 190.210938 230.644531 C 188.070312 222.410156 188.894531 213.679688 192.683594 206.105469 C 192.847656 205.777344 193.175781 205.777344 193.503906 205.941406 C 193.835938 206.105469 193.835938 206.433594 193.671875 206.765625 C 190.046875 214.175781 189.222656 222.574219 191.363281 230.480469 C 191.53125 230.808594 191.363281 231.136719 190.871094 231.136719 C 191.035156 231.136719 191.035156 231.136719 190.871094 231.136719 Z M 190.871094 231.136719 " fill-opacity="1" fill-rule="nonzero"/><path fill="#c62328" d="M 199.269531 230.3125 C 198.941406 230.3125 198.777344 230.148438 198.609375 229.820312 C 195.316406 212.695312 200.421875 205.449219 200.75 205.117188 C 200.917969 204.789062 201.410156 204.789062 201.574219 204.953125 C 201.90625 205.117188 201.90625 205.449219 201.738281 205.777344 C 201.738281 205.777344 196.800781 213.023438 199.929688 229.492188 C 199.929688 229.984375 199.761719 230.3125 199.269531 230.3125 C 199.433594 230.3125 199.433594 230.3125 199.269531 230.3125 C 199.433594 230.3125 199.269531 230.3125 199.269531 230.3125 Z M 199.269531 230.3125 " fill-opacity="1" fill-rule="nonzero"/><path fill="#c62328" d="M 207.007812 228.996094 C 206.679688 228.996094 206.515625 228.832031 206.351562 228.503906 C 204.046875 220.433594 204.703125 211.871094 208.164062 204.128906 C 208.328125 203.800781 208.65625 203.636719 208.984375 203.800781 C 209.316406 203.964844 209.480469 204.292969 209.316406 204.625 C 206.019531 212.035156 205.363281 220.269531 207.503906 228.007812 C 207.832031 228.503906 207.503906 228.832031 207.007812 228.996094 C 207.175781 228.996094 207.175781 228.996094 207.007812 228.996094 C 207.175781 228.996094 207.175781 228.996094 207.007812 228.996094 Z M 207.007812 228.996094 " fill-opacity="1" fill-rule="nonzero"/><path fill="#c62328" d="M 214.914062 227.679688 C 214.585938 227.679688 214.421875 227.515625 214.253906 227.351562 C 210.304688 216.152344 216.066406 204.128906 216.394531 203.636719 C 216.5625 203.304688 216.890625 203.140625 217.21875 203.304688 C 217.550781 203.472656 217.714844 203.800781 217.550781 204.128906 C 217.550781 204.292969 211.785156 216.152344 215.574219 226.855469 C 215.738281 227.183594 215.574219 227.515625 215.242188 227.679688 C 215.078125 227.679688 215.078125 227.679688 214.914062 227.679688 Z M 214.914062 227.679688 " fill-opacity="1" fill-rule="nonzero"/><path fill="#c62328" d="M 222.820312 227.019531 C 222.488281 227.019531 222.324219 226.855469 222.160156 226.527344 C 217.878906 212.695312 224.136719 204.128906 224.464844 203.636719 C 224.628906 203.304688 225.125 203.304688 225.289062 203.472656 C 225.617188 203.636719 225.617188 204.128906 225.453125 204.292969 C 225.453125 204.460938 219.359375 212.695312 223.3125 226.03125 C 223.476562 226.363281 223.148438 226.691406 222.984375 226.855469 C 222.984375 227.019531 222.820312 227.019531 222.820312 227.019531 Z M 222.820312 227.019531 " fill-opacity="1" fill-rule="nonzero"/><path fill="#c62328" d="M 227.925781 227.019531 C 227.59375 227.019531 227.265625 226.691406 227.265625 226.363281 C 227.101562 210.386719 233.851562 205.117188 234.183594 204.953125 C 234.511719 204.789062 234.839844 204.789062 235.003906 205.117188 C 235.171875 205.449219 235.171875 205.777344 234.839844 205.941406 C 234.839844 205.941406 228.253906 211.046875 228.417969 226.363281 C 228.582031 226.691406 228.253906 227.019531 227.925781 227.019531 Z M 227.925781 227.019531 " fill-opacity="1" fill-rule="nonzero"/><path fill="#c62328" d="M 232.371094 227.84375 C 232.371094 227.84375 232.207031 227.84375 232.371094 227.84375 C 231.875 227.84375 231.710938 227.515625 231.710938 227.183594 C 234.183594 211.539062 242.582031 208.246094 242.910156 208.082031 C 243.238281 207.917969 243.570312 208.246094 243.734375 208.578125 C 243.734375 208.90625 243.734375 209.234375 243.402344 209.234375 C 243.402344 209.234375 235.335938 212.363281 232.863281 227.351562 C 232.863281 227.515625 232.699219 227.84375 232.371094 227.84375 Z M 232.371094 227.84375 " fill-opacity="1" fill-rule="nonzero"/><path fill="#c62328" d="M 237.640625 230.480469 C 237.640625 230.480469 237.476562 230.480469 237.476562 230.480469 C 237.144531 230.3125 236.980469 229.984375 237.144531 229.65625 C 239.617188 222.574219 245.214844 217.140625 252.296875 214.835938 C 252.625 214.667969 252.957031 215 253.121094 215.328125 C 253.285156 215.65625 252.957031 215.988281 252.625 216.152344 C 246.039062 218.457031 240.769531 223.5625 238.300781 230.148438 C 237.96875 230.3125 237.804688 230.480469 237.640625 230.480469 Z M 237.640625 230.480469 " fill-opacity="1" fill-rule="nonzero"/><path fill="#c62328" d="M 240.605469 234.429688 C 240.441406 234.429688 240.441406 234.429688 240.273438 234.265625 C 239.945312 234.101562 239.945312 233.773438 240.109375 233.441406 C 246.203125 224.222656 258.226562 224.222656 258.71875 224.222656 C 259.046875 224.222656 259.378906 224.550781 259.378906 224.878906 C 259.378906 225.210938 259.046875 225.539062 258.71875 225.539062 C 258.390625 225.539062 246.863281 225.703125 241.261719 234.101562 C 241.097656 234.429688 240.933594 234.429688 240.605469 234.429688 Z M 240.605469 234.429688 " fill-opacity="1" fill-rule="nonzero"/><path fill="#c62328" d="M 242.414062 238.878906 C 242.085938 238.878906 241.757812 238.546875 241.757812 238.21875 C 241.757812 238.054688 241.921875 237.890625 242.085938 237.726562 C 250.484375 231.960938 260.859375 236.738281 261.355469 236.902344 C 261.683594 237.066406 261.847656 237.394531 261.683594 237.726562 C 261.519531 238.054688 261.191406 238.21875 260.859375 238.054688 C 260.695312 238.054688 250.648438 233.441406 242.746094 238.714844 C 242.582031 238.878906 242.414062 238.878906 242.414062 238.878906 Z M 242.414062 238.878906 " fill-opacity="1" fill-rule="nonzero"/><path fill="#c62328" d="M 258.0625 245.792969 C 257.894531 245.792969 257.894531 245.792969 257.730469 245.792969 C 257.566406 245.792969 248.34375 241.019531 242.746094 242.664062 C 242.414062 242.828125 242.085938 242.664062 241.921875 242.335938 C 241.757812 242.007812 241.921875 241.675781 242.25 241.511719 C 248.34375 239.699219 257.894531 244.476562 258.226562 244.804688 C 258.554688 244.972656 258.71875 245.300781 258.554688 245.628906 C 258.390625 245.792969 258.226562 245.792969 258.0625 245.792969 Z M 258.0625 245.792969 " fill-opacity="1" fill-rule="nonzero"/><path fill="#c62328" d="M 251.636719 252.21875 C 251.472656 252.21875 251.308594 252.050781 251.144531 251.886719 C 248.839844 248.757812 245.214844 246.78125 241.261719 246.453125 C 240.933594 246.453125 240.605469 246.125 240.605469 245.792969 C 240.605469 245.464844 240.933594 245.136719 241.261719 245.136719 C 245.542969 245.300781 249.660156 247.441406 252.132812 251.0625 C 252.296875 251.394531 252.296875 251.722656 251.96875 251.886719 C 251.96875 252.050781 251.800781 252.21875 251.636719 252.21875 Z M 251.636719 252.21875 " fill-opacity="1" fill-rule="nonzero"/><path fill="#c62328" d="M 245.378906 255.511719 C 245.214844 255.511719 244.886719 255.347656 244.886719 255.179688 C 244.0625 253.863281 241.59375 250.074219 239.285156 249.910156 C 238.957031 249.910156 238.792969 249.582031 238.792969 249.253906 C 238.792969 248.921875 239.121094 248.757812 239.453125 248.757812 C 242.910156 249.253906 245.875 254.523438 246.039062 254.6875 C 246.203125 255.015625 246.039062 255.347656 245.875 255.511719 C 245.542969 255.511719 245.378906 255.511719 245.378906 255.511719 Z M 245.378906 255.511719 " fill-opacity="1" fill-rule="nonzero"/><path fill="#c62328" d="M 239.945312 257.15625 C 239.617188 257.15625 239.453125 256.992188 239.453125 256.828125 C 238.792969 255.347656 237.476562 254.027344 235.992188 253.203125 C 235.664062 253.039062 235.5 252.710938 235.664062 252.382812 C 235.828125 252.050781 236.15625 251.886719 236.488281 252.050781 C 238.300781 253.039062 239.617188 254.523438 240.441406 256.332031 C 240.605469 256.664062 240.441406 256.992188 240.109375 257.15625 C 240.109375 257.15625 240.109375 257.15625 239.945312 257.15625 Z M 239.945312 257.15625 " fill-opacity="1" fill-rule="nonzero"/><g clip-path="url(#0245afaa8a)"><path fill="#c62328" d="M 189.71875 362.222656 C 189.058594 362.222656 188.566406 362.058594 187.90625 361.730469 C 185.4375 360.742188 172.589844 348.226562 167.15625 330.933594 C 162.875 317.59375 164.191406 305.242188 170.945312 294.210938 C 190.046875 263.085938 230.230469 257.15625 230.558594 257.15625 C 230.886719 257.15625 231.21875 257.320312 231.21875 257.652344 C 231.21875 257.980469 231.054688 258.308594 230.722656 258.308594 C 230.394531 258.308594 190.707031 264.238281 171.933594 294.871094 C 165.34375 305.574219 164.191406 317.59375 168.308594 330.441406 C 173.578125 346.910156 186.09375 359.425781 188.402344 360.414062 C 189.554688 360.90625 189.882812 360.742188 189.882812 360.742188 C 190.046875 360.578125 190.046875 359.917969 188.566406 357.285156 L 188.402344 356.789062 C 188.402344 356.625 188.234375 356.460938 188.070312 356.128906 C 181.15625 343.613281 178.191406 331.59375 179.671875 321.21875 C 182.144531 304.257812 189.058594 297.832031 200.257812 288.941406 C 205.199219 284.988281 213.101562 281.859375 221.5 278.566406 C 231.054688 274.777344 241.097656 270.824219 247.027344 265.554688 C 254.109375 259.460938 258.554688 251.0625 259.542969 241.84375 L 259.707031 240.523438 C 259.707031 240.195312 260.035156 240.03125 260.367188 240.03125 C 260.695312 240.03125 260.859375 240.359375 260.859375 240.6875 L 260.695312 242.007812 C 259.707031 251.394531 255.097656 260.121094 247.851562 266.378906 C 241.757812 271.8125 231.710938 275.765625 221.996094 279.71875 C 213.761719 283.011719 205.855469 286.140625 201.082031 289.929688 C 190.210938 298.492188 183.296875 304.914062 180.988281 321.382812 C 179.507812 331.429688 182.308594 343.285156 189.222656 355.636719 C 189.386719 355.964844 189.554688 356.128906 189.554688 356.296875 L 189.71875 356.789062 C 190.707031 358.765625 191.695312 360.742188 190.871094 361.730469 C 190.375 362.058594 190.046875 362.222656 189.71875 362.222656 Z M 189.71875 362.222656 " fill-opacity="1" fill-rule="nonzero"/></g><path fill="#c62328" d="M 212.773438 31.378906 C 212.445312 31.378906 212.113281 31.050781 212.113281 30.722656 C 212.113281 30.390625 212.445312 30.0625 212.773438 30.0625 L 228.746094 29.238281 C 229.078125 29.238281 229.40625 29.566406 229.40625 29.898438 C 229.40625 30.226562 229.242188 30.554688 228.746094 30.554688 Z M 212.773438 31.378906 " fill-opacity="1" fill-rule="nonzero"/><path fill="#c62328" d="M 206.679688 24.628906 C 205.199219 24.628906 203.878906 23.476562 203.878906 21.828125 C 203.878906 20.347656 205.035156 19.027344 206.679688 19.027344 C 208.164062 19.027344 209.480469 20.179688 209.480469 21.828125 C 209.480469 23.308594 208.164062 24.628906 206.679688 24.628906 Z M 206.679688 20.347656 C 205.855469 20.347656 205.199219 21.003906 205.199219 21.828125 C 205.199219 22.652344 205.855469 23.308594 206.679688 23.308594 C 207.503906 23.308594 208.164062 22.652344 208.164062 21.828125 C 208.164062 21.003906 207.503906 20.347656 206.679688 20.347656 Z M 206.679688 20.347656 " fill-opacity="1" fill-rule="nonzero"/><path fill="#c62328" d="M 176.214844 39.777344 C 174.898438 39.777344 173.742188 38.625 173.742188 37.308594 C 173.742188 35.992188 174.898438 34.835938 176.214844 34.835938 C 177.53125 34.835938 178.683594 35.992188 178.683594 37.308594 C 178.519531 38.625 177.53125 39.777344 176.214844 39.777344 Z M 176.214844 36.15625 C 175.554688 36.15625 175.0625 36.648438 175.0625 37.308594 C 175.0625 37.96875 175.554688 38.460938 176.214844 38.460938 C 176.871094 38.460938 177.367188 37.96875 177.367188 37.308594 C 177.367188 36.648438 176.871094 36.15625 176.214844 36.15625 Z M 176.214844 36.15625 " fill-opacity="1" fill-rule="nonzero"/><path fill="#c62328" d="M 168.804688 49.164062 C 167.652344 49.164062 166.664062 48.175781 166.664062 47.023438 C 166.664062 45.871094 167.652344 44.882812 168.804688 44.882812 C 169.957031 44.882812 170.945312 45.871094 170.945312 47.023438 C 170.945312 48.175781 169.957031 49.164062 168.804688 49.164062 Z M 168.804688 46.199219 C 168.308594 46.199219 167.980469 46.53125 167.980469 47.023438 C 167.980469 47.519531 168.308594 47.847656 168.804688 47.847656 C 169.296875 47.847656 169.625 47.519531 169.625 47.023438 C 169.625 46.53125 169.296875 46.199219 168.804688 46.199219 Z M 168.804688 46.199219 " fill-opacity="1" fill-rule="nonzero"/><path fill="#c62328" d="M 166.332031 62.011719 C 164.851562 62.011719 163.699219 60.859375 163.699219 59.375 C 163.699219 57.894531 164.851562 56.742188 166.332031 56.742188 C 167.816406 56.742188 168.96875 57.894531 168.96875 59.375 C 168.96875 60.859375 167.816406 62.011719 166.332031 62.011719 Z M 166.332031 57.894531 C 165.511719 57.894531 164.851562 58.550781 164.851562 59.375 C 164.851562 60.199219 165.511719 60.859375 166.332031 60.859375 C 167.15625 60.859375 167.816406 60.199219 167.816406 59.375 C 167.816406 58.550781 167.15625 57.894531 166.332031 57.894531 Z M 166.332031 57.894531 " fill-opacity="1" fill-rule="nonzero"/><path fill="#c62328" d="M 167.320312 74.03125 C 166.167969 74.03125 165.34375 73.042969 165.34375 72.054688 C 165.34375 71.066406 166.332031 70.078125 167.320312 70.078125 C 168.472656 70.078125 169.296875 71.066406 169.296875 72.054688 C 169.460938 73.042969 168.472656 74.03125 167.320312 74.03125 Z M 167.320312 71.230469 C 166.828125 71.230469 166.496094 71.5625 166.496094 72.054688 C 166.496094 72.550781 166.828125 72.878906 167.320312 72.878906 C 167.816406 72.878906 168.144531 72.550781 168.144531 72.054688 C 168.144531 71.5625 167.816406 71.230469 167.320312 71.230469 Z M 167.320312 71.230469 " fill-opacity="1" fill-rule="nonzero"/><path fill="#c62328" d="M 225.949219 115.039062 C 224.796875 115.039062 223.972656 114.050781 223.972656 112.898438 C 223.972656 111.742188 224.960938 110.921875 226.113281 110.921875 C 227.101562 110.921875 227.925781 111.742188 228.089844 112.730469 C 228.253906 113.882812 227.429688 114.871094 226.277344 115.039062 C 226.113281 115.039062 226.113281 115.039062 225.949219 115.039062 Z M 225.949219 112.238281 C 225.453125 112.238281 225.125 112.730469 225.125 113.226562 C 225.125 113.390625 225.289062 113.554688 225.453125 113.71875 C 225.617188 113.882812 225.78125 113.882812 226.113281 113.882812 C 226.605469 113.882812 226.9375 113.390625 226.769531 112.898438 C 226.769531 112.402344 226.441406 112.238281 225.949219 112.238281 Z M 225.949219 112.238281 " fill-opacity="1" fill-rule="nonzero"/><path fill="#c62328" d="M 226.605469 125.414062 C 225.289062 125.414062 224.136719 124.257812 224.136719 122.941406 C 224.136719 121.625 225.289062 120.472656 226.605469 120.472656 C 227.925781 120.472656 228.910156 121.460938 229.078125 122.613281 C 229.242188 123.929688 228.253906 125.246094 226.9375 125.414062 C 226.769531 125.414062 226.605469 125.414062 226.605469 125.414062 Z M 226.605469 121.625 C 226.441406 121.625 226.441406 121.625 226.605469 121.625 C 225.78125 121.789062 225.289062 122.449219 225.289062 123.105469 C 225.453125 123.765625 225.949219 124.257812 226.769531 124.257812 C 227.429688 124.09375 227.925781 123.601562 227.925781 122.777344 C 227.757812 122.117188 227.101562 121.625 226.605469 121.625 Z M 226.605469 121.625 " fill-opacity="1" fill-rule="nonzero"/><path fill="#c62328" d="M 222.488281 133.976562 C 221.5 133.976562 220.679688 133.152344 220.679688 132.164062 C 220.679688 131.175781 221.5 130.351562 222.488281 130.351562 C 223.476562 130.351562 224.300781 131.175781 224.300781 132.164062 C 224.300781 132.988281 223.640625 133.8125 222.820312 133.8125 C 222.652344 133.976562 222.488281 133.976562 222.488281 133.976562 Z M 222.488281 131.671875 C 222.160156 131.671875 221.996094 132 221.996094 132.328125 C 221.996094 132.660156 222.324219 132.824219 222.652344 132.824219 C 222.984375 132.824219 223.148438 132.492188 223.148438 132.164062 C 222.984375 131.835938 222.652344 131.671875 222.488281 131.671875 Z M 222.488281 131.671875 " fill-opacity="1" fill-rule="nonzero"/><path fill="#c62328" d="M 201.410156 148.304688 C 200.421875 148.304688 199.597656 147.480469 199.597656 146.492188 C 199.597656 145.503906 200.421875 144.679688 201.410156 144.679688 C 202.398438 144.679688 203.222656 145.503906 203.222656 146.492188 C 203.222656 147.316406 202.5625 148.136719 201.738281 148.304688 C 201.574219 148.304688 201.410156 148.304688 201.410156 148.304688 Z M 201.410156 145.996094 C 201.246094 145.996094 201.246094 145.996094 201.410156 145.996094 C 201.082031 145.996094 200.917969 146.328125 200.917969 146.65625 C 200.917969 146.984375 201.246094 147.148438 201.574219 147.148438 C 201.90625 147.148438 202.070312 146.820312 202.070312 146.492188 C 201.90625 146.328125 201.574219 145.996094 201.410156 145.996094 Z M 201.410156 145.996094 " fill-opacity="1" fill-rule="nonzero"/><path fill="#c62328" d="M 191.035156 152.914062 C 189.554688 152.914062 188.566406 151.761719 188.566406 150.445312 C 188.566406 148.960938 189.71875 147.972656 191.035156 147.972656 C 192.515625 147.972656 193.503906 149.125 193.503906 150.445312 C 193.503906 151.761719 192.515625 152.75 191.363281 152.914062 C 191.199219 152.914062 191.035156 152.914062 191.035156 152.914062 Z M 191.035156 148.960938 C 190.375 148.960938 189.71875 149.457031 189.71875 150.277344 C 189.71875 151.101562 190.210938 151.597656 191.035156 151.597656 C 191.199219 151.597656 191.199219 151.597656 191.363281 151.597656 C 192.023438 151.433594 192.515625 150.773438 192.515625 150.113281 C 192.1875 149.457031 191.695312 148.960938 191.035156 148.960938 Z M 191.035156 148.960938 " fill-opacity="1" fill-rule="nonzero"/><path fill="#c62328" d="M 159.085938 161.808594 C 157.605469 161.808594 156.617188 160.652344 156.617188 159.335938 C 156.617188 158.019531 157.769531 156.867188 159.085938 156.867188 C 160.40625 156.867188 161.558594 158.019531 161.558594 159.335938 C 161.558594 160.652344 160.570312 161.640625 159.417969 161.808594 C 159.253906 161.808594 159.085938 161.808594 159.085938 161.808594 Z M 159.085938 157.855469 C 159.085938 157.855469 158.921875 157.855469 158.921875 157.855469 C 158.265625 157.855469 157.605469 158.511719 157.605469 159.171875 C 157.605469 159.832031 158.265625 160.488281 158.921875 160.488281 C 159.085938 160.488281 159.085938 160.488281 159.253906 160.488281 C 159.910156 160.324219 160.40625 159.667969 160.40625 159.007812 C 160.238281 158.347656 159.746094 157.855469 159.085938 157.855469 Z M 159.085938 157.855469 " fill-opacity="1" fill-rule="nonzero"/><path fill="#c62328" d="M 147.890625 166.253906 C 147.066406 166.253906 146.40625 165.59375 146.40625 164.769531 C 146.40625 163.949219 147.066406 163.289062 147.890625 163.289062 C 148.546875 163.289062 149.207031 163.78125 149.371094 164.441406 C 149.535156 165.265625 148.878906 165.925781 148.21875 166.089844 C 147.890625 166.253906 147.890625 166.253906 147.890625 166.253906 Z M 147.890625 164.605469 C 147.722656 164.605469 147.722656 164.769531 147.722656 164.769531 C 147.722656 164.9375 147.890625 164.9375 147.890625 164.9375 C 148.054688 164.9375 148.054688 164.769531 148.054688 164.769531 C 148.054688 164.605469 147.890625 164.605469 147.890625 164.605469 Z M 147.890625 164.605469 " fill-opacity="1" fill-rule="nonzero"/><path fill="#c62328" d="M 128.785156 183.542969 C 127.960938 183.542969 127.304688 182.886719 127.304688 182.0625 C 127.304688 181.402344 127.796875 180.746094 128.621094 180.582031 C 128.949219 180.582031 129.445312 180.582031 129.609375 180.910156 C 129.9375 181.074219 130.101562 181.402344 130.101562 181.898438 C 130.269531 182.722656 129.609375 183.378906 128.949219 183.542969 C 128.949219 183.542969 128.785156 183.542969 128.785156 183.542969 Z M 128.785156 182.0625 C 128.621094 182.0625 128.457031 182.226562 128.621094 182.226562 C 128.621094 182.390625 128.785156 182.390625 128.785156 182.390625 C 128.949219 182.390625 128.949219 182.226562 128.785156 182.0625 C 128.949219 182.226562 128.949219 182.226562 128.785156 182.0625 C 128.949219 182.0625 128.949219 182.0625 128.785156 182.0625 Z M 128.785156 182.0625 " fill-opacity="1" fill-rule="nonzero"/><path fill="#c62328" d="M 127.304688 196.0625 C 125.820312 196.0625 124.667969 194.90625 124.667969 193.425781 C 124.667969 191.945312 125.820312 190.789062 127.304688 190.789062 C 128.621094 190.789062 129.773438 191.777344 129.9375 193.097656 C 130.101562 194.578125 129.117188 195.894531 127.796875 196.0625 C 127.632812 196.0625 127.46875 196.0625 127.304688 196.0625 Z M 127.304688 192.109375 C 127.304688 192.109375 127.140625 192.109375 127.140625 192.109375 C 126.316406 192.273438 125.820312 192.933594 125.988281 193.589844 C 126.152344 194.414062 126.808594 194.90625 127.46875 194.742188 C 128.292969 194.578125 128.785156 193.917969 128.621094 193.261719 C 128.621094 192.601562 128.128906 192.109375 127.304688 192.109375 Z M 127.304688 192.109375 " fill-opacity="1" fill-rule="nonzero"/><path fill="#c62328" d="M 235.335938 267.039062 C 234.511719 267.039062 233.6875 266.378906 233.6875 265.390625 C 233.6875 265.0625 233.851562 264.734375 234.015625 264.402344 C 234.347656 264.074219 234.675781 263.910156 235.003906 263.746094 C 235.828125 263.578125 236.652344 264.238281 236.816406 265.0625 C 236.980469 265.886719 236.324219 266.707031 235.5 266.875 C 235.5 267.039062 235.335938 267.039062 235.335938 267.039062 Z M 235.335938 265.0625 C 235.003906 265.0625 235.003906 265.226562 235.003906 265.554688 C 235.003906 265.71875 235.171875 265.886719 235.5 265.886719 C 235.664062 265.886719 235.828125 265.71875 235.828125 265.390625 C 235.664062 265.226562 235.5 265.0625 235.335938 265.0625 Z M 235.335938 265.0625 " fill-opacity="1" fill-rule="nonzero"/><path fill="#c62328" d="M 223.808594 272.472656 C 222.160156 272.472656 221.007812 271.15625 221.007812 269.671875 C 221.007812 268.027344 222.324219 266.875 223.808594 266.875 C 225.289062 266.875 226.441406 267.863281 226.605469 269.34375 C 226.769531 270.824219 225.78125 272.308594 224.136719 272.636719 C 224.136719 272.472656 223.972656 272.472656 223.808594 272.472656 Z M 223.808594 268.027344 C 223.808594 268.027344 223.640625 268.027344 223.640625 268.027344 C 222.820312 268.191406 222.160156 269.015625 222.324219 269.835938 C 222.488281 270.660156 223.3125 271.320312 224.136719 271.15625 C 224.960938 270.992188 225.617188 270.167969 225.453125 269.34375 C 225.453125 268.519531 224.628906 268.027344 223.808594 268.027344 Z M 223.808594 268.027344 " fill-opacity="1" fill-rule="nonzero"/><path fill="#c62328" d="M 213.101562 275.4375 C 212.113281 275.4375 211.457031 274.613281 211.457031 273.789062 C 211.457031 272.800781 212.277344 272.144531 213.101562 272.144531 C 213.925781 272.144531 214.75 272.964844 214.75 273.789062 C 214.75 274.613281 214.089844 275.4375 213.265625 275.4375 C 213.265625 275.4375 213.265625 275.4375 213.101562 275.4375 Z M 213.101562 273.296875 C 212.773438 273.296875 212.609375 273.460938 212.609375 273.789062 C 212.609375 274.121094 212.773438 274.285156 213.101562 274.285156 C 213.433594 274.285156 213.597656 274.121094 213.597656 273.789062 C 213.597656 273.460938 213.433594 273.296875 213.101562 273.296875 Z M 213.101562 273.296875 " fill-opacity="1" fill-rule="nonzero"/><path fill="#c62328" d="M 189.554688 288.445312 C 188.730469 288.445312 187.90625 287.789062 187.90625 286.964844 C 187.742188 285.976562 188.402344 285.152344 189.386719 284.988281 C 190.375 284.824219 191.199219 285.480469 191.363281 286.46875 C 191.53125 287.457031 190.871094 288.28125 189.882812 288.445312 C 189.71875 288.445312 189.71875 288.445312 189.554688 288.445312 Z M 189.554688 286.140625 C 189.222656 286.140625 189.058594 286.46875 189.058594 286.636719 C 189.058594 286.964844 189.386719 287.128906 189.554688 287.128906 C 189.882812 287.128906 190.046875 286.800781 190.046875 286.636719 C 190.046875 286.46875 189.882812 286.140625 189.554688 286.140625 Z M 189.554688 286.140625 " fill-opacity="1" fill-rule="nonzero"/><path fill="#c62328" d="M 181.15625 298.328125 C 179.671875 298.328125 178.519531 297.175781 178.519531 295.691406 C 178.519531 294.210938 179.671875 293.058594 181.15625 293.058594 C 182.636719 293.058594 183.789062 294.210938 183.789062 295.691406 C 183.789062 297.011719 182.800781 298.164062 181.484375 298.328125 C 181.320312 298.328125 181.320312 298.328125 181.15625 298.328125 Z M 181.15625 294.210938 C 181.15625 294.210938 180.988281 294.210938 180.988281 294.210938 C 180.167969 294.375 179.671875 295.035156 179.835938 295.855469 C 179.835938 296.1875 180.167969 296.515625 180.332031 296.84375 C 180.660156 297.011719 180.988281 297.175781 181.320312 297.175781 C 182.144531 297.011719 182.636719 296.351562 182.472656 295.527344 C 182.472656 294.703125 181.8125 294.210938 181.15625 294.210938 Z M 181.15625 294.210938 " fill-opacity="1" fill-rule="nonzero"/><path fill="#c62328" d="M 174.898438 308.703125 C 173.742188 308.703125 172.921875 307.878906 172.753906 306.890625 C 172.589844 305.738281 173.414062 304.585938 174.566406 304.421875 C 175.71875 304.257812 176.871094 305.078125 177.039062 306.230469 C 177.203125 307.386719 176.378906 308.539062 175.226562 308.703125 C 175.0625 308.703125 174.898438 308.703125 174.898438 308.703125 Z M 174.898438 305.738281 C 174.898438 305.738281 174.730469 305.738281 174.898438 305.738281 C 174.238281 305.738281 173.910156 306.230469 173.910156 306.726562 C 173.910156 307.21875 174.402344 307.550781 174.898438 307.550781 C 175.390625 307.550781 175.71875 307.054688 175.71875 306.5625 C 175.71875 306.066406 175.390625 305.738281 174.898438 305.738281 Z M 174.898438 305.738281 " fill-opacity="1" fill-rule="nonzero"/><path fill="#c62328" d="M 173.414062 322.699219 C 171.601562 322.699219 170.285156 321.21875 170.285156 319.570312 C 170.285156 317.925781 171.4375 316.605469 173.085938 316.441406 C 174.730469 316.277344 176.378906 317.429688 176.707031 319.078125 C 176.871094 320.890625 175.71875 322.371094 174.074219 322.699219 C 173.742188 322.699219 173.578125 322.699219 173.414062 322.699219 Z M 173.414062 317.59375 C 173.25 317.59375 173.25 317.59375 173.085938 317.59375 C 172.097656 317.761719 171.273438 318.746094 171.4375 319.734375 C 171.601562 320.722656 172.589844 321.546875 173.578125 321.382812 C 174.566406 321.21875 175.390625 320.230469 175.226562 319.242188 C 175.226562 318.253906 174.402344 317.59375 173.414062 317.59375 Z M 173.414062 317.59375 " fill-opacity="1" fill-rule="nonzero"/><path fill="#c62328" d="M 175.390625 335.214844 C 174.074219 335.214844 173.085938 334.226562 173.085938 332.910156 C 173.085938 331.59375 174.074219 330.605469 175.390625 330.605469 C 176.707031 330.605469 177.695312 331.59375 177.695312 332.910156 C 177.695312 334.0625 176.871094 335.050781 175.71875 335.214844 C 175.71875 335.214844 175.554688 335.214844 175.390625 335.214844 Z M 175.390625 331.757812 C 174.566406 331.921875 174.238281 332.417969 174.238281 333.074219 C 174.402344 333.734375 174.898438 334.0625 175.554688 334.0625 C 176.214844 333.898438 176.542969 333.40625 176.542969 332.746094 C 176.542969 332.085938 176.050781 331.757812 175.390625 331.757812 Z M 175.390625 331.757812 " fill-opacity="1" fill-rule="nonzero"/><path fill="#c62328" d="M 188.070312 31.875 C 187.742188 31.875 187.414062 31.542969 187.414062 31.214844 C 187.246094 28.746094 183.625 27.261719 183.625 27.261719 C 183.296875 27.097656 183.128906 26.769531 183.296875 26.4375 C 183.296875 26.273438 183.460938 26.109375 183.625 26.109375 C 185.4375 25.449219 186.917969 23.96875 187.082031 21.992188 C 187.082031 21.664062 187.414062 21.5 187.742188 21.335938 C 188.070312 21.335938 188.402344 21.5 188.402344 21.828125 C 188.730469 24.296875 192.683594 25.945312 192.683594 26.109375 C 193.011719 26.273438 193.175781 26.605469 193.011719 26.933594 C 192.847656 27.097656 192.683594 27.261719 192.515625 27.261719 C 190.210938 27.59375 188.730469 31.378906 188.730469 31.378906 C 188.566406 31.707031 188.402344 31.875 188.070312 31.875 Z M 185.273438 26.605469 C 186.425781 27.261719 187.578125 28.25 188.234375 29.402344 C 188.894531 28.25 189.71875 27.261719 190.871094 26.4375 C 189.71875 25.78125 188.730469 24.792969 187.90625 23.804688 C 187.414062 24.957031 186.425781 25.945312 185.273438 26.605469 Z M 185.273438 26.605469 " fill-opacity="1" fill-rule="nonzero"/><path fill="#c62328" d="M 212.773438 146.984375 C 212.609375 146.984375 212.609375 146.984375 212.773438 146.984375 C 212.445312 146.984375 212.113281 146.65625 212.113281 146.328125 C 211.949219 143.855469 208.328125 142.375 208.328125 142.375 C 207.996094 142.210938 207.832031 141.878906 207.996094 141.550781 C 207.996094 141.386719 208.164062 141.222656 208.328125 141.222656 C 210.136719 140.5625 211.621094 139.082031 211.785156 137.105469 C 211.785156 136.777344 212.113281 136.609375 212.445312 136.445312 C 212.773438 136.445312 213.101562 136.609375 213.101562 136.941406 C 213.433594 139.410156 217.382812 141.058594 217.382812 141.222656 C 217.714844 141.386719 217.878906 141.714844 217.714844 142.046875 C 217.550781 142.210938 217.382812 142.375 217.21875 142.375 C 214.914062 142.703125 213.433594 146.492188 213.433594 146.492188 C 213.265625 146.820312 212.9375 146.984375 212.773438 146.984375 Z M 209.972656 141.878906 C 211.125 142.539062 212.277344 143.527344 212.9375 144.679688 C 213.597656 143.527344 214.421875 142.539062 215.574219 141.714844 C 214.421875 141.058594 213.433594 140.070312 212.609375 139.082031 C 211.949219 140.234375 211.125 141.222656 209.972656 141.878906 Z M 209.972656 141.878906 " fill-opacity="1" fill-rule="nonzero"/><path fill="#c62328" d="M 175.0625 163.617188 C 174.898438 163.617188 174.898438 163.617188 175.0625 163.617188 C 174.730469 163.617188 174.402344 163.289062 174.402344 162.960938 C 174.238281 157.691406 166.664062 154.726562 166.496094 154.5625 C 166.167969 154.394531 166.003906 154.066406 166.167969 153.738281 C 166.167969 153.574219 166.332031 153.410156 166.496094 153.410156 C 170.285156 152.089844 173.25 148.796875 173.742188 144.679688 C 173.742188 144.351562 174.074219 144.1875 174.402344 144.019531 C 174.730469 144.019531 175.0625 144.1875 175.0625 144.515625 C 175.886719 149.785156 183.625 153.242188 183.789062 153.242188 C 184.117188 153.410156 184.285156 153.738281 184.117188 154.066406 C 183.953125 154.230469 183.789062 154.394531 183.625 154.394531 C 178.683594 155.054688 175.71875 162.796875 175.71875 162.960938 C 175.390625 163.453125 175.226562 163.617188 175.0625 163.617188 Z M 168.308594 154.066406 C 170.285156 155.054688 174.074219 157.359375 175.226562 160.984375 C 176.378906 158.84375 178.519531 155.21875 181.8125 153.902344 C 178.847656 152.421875 176.214844 150.113281 174.566406 147.148438 C 173.414062 150.277344 171.109375 152.75 168.308594 154.066406 Z M 168.308594 154.066406 " fill-opacity="1" fill-rule="nonzero"/><path fill="#c62328" d="M 136.363281 176.792969 C 136.03125 176.792969 135.703125 176.464844 135.703125 176.132812 C 135.539062 173.664062 131.914062 172.183594 131.914062 172.183594 C 131.585938 172.015625 131.421875 171.6875 131.585938 171.359375 C 131.585938 171.195312 131.75 171.027344 131.914062 171.027344 C 133.726562 170.371094 135.207031 168.886719 135.375 166.910156 C 135.375 166.582031 135.703125 166.253906 136.03125 166.253906 C 136.363281 166.253906 136.527344 166.417969 136.527344 166.746094 C 136.855469 169.21875 140.808594 171.027344 140.808594 171.027344 C 141.136719 171.195312 141.300781 171.523438 141.136719 171.851562 C 140.972656 172.015625 140.808594 172.183594 140.644531 172.183594 C 138.335938 172.511719 136.855469 176.300781 136.855469 176.300781 C 136.855469 176.628906 136.691406 176.792969 136.363281 176.792969 Z M 133.5625 171.6875 C 134.714844 172.347656 135.867188 173.335938 136.527344 174.488281 C 137.183594 173.335938 138.007812 172.347656 139.160156 171.523438 C 138.007812 170.863281 137.019531 169.875 136.195312 168.886719 C 135.539062 170.039062 134.714844 171.027344 133.5625 171.6875 Z M 133.5625 171.6875 " fill-opacity="1" fill-rule="nonzero"/><path fill="#c62328" d="M 201.574219 284.164062 C 201.246094 284.164062 200.917969 283.835938 200.917969 283.507812 C 200.75 281.035156 197.128906 279.554688 197.128906 279.554688 C 196.800781 279.390625 196.632812 279.058594 196.800781 278.730469 C 196.800781 278.566406 196.964844 278.402344 197.128906 278.402344 C 198.941406 277.742188 200.421875 276.261719 200.585938 274.285156 C 200.585938 273.953125 200.917969 273.789062 201.246094 273.625 C 201.574219 273.625 201.90625 273.789062 201.90625 274.121094 C 202.234375 276.261719 205.035156 277.90625 206.1875 278.402344 C 206.515625 278.566406 206.679688 278.894531 206.515625 279.222656 C 206.351562 279.390625 206.1875 279.554688 206.019531 279.554688 C 203.714844 279.882812 202.234375 283.671875 202.234375 283.671875 C 202.070312 284 201.90625 284.164062 201.574219 284.164062 Z M 198.777344 279.058594 C 199.929688 279.71875 201.082031 280.707031 201.738281 281.859375 C 202.398438 280.707031 203.222656 279.71875 204.375 278.894531 C 203.222656 278.238281 202.234375 277.25 201.410156 276.261719 C 200.917969 277.414062 199.929688 278.402344 198.777344 279.058594 Z M 198.777344 279.058594 " fill-opacity="1" fill-rule="nonzero"/></svg>