<svg xmlns="http://www.w3.org/2000/svg" xmlns:xlink="http://www.w3.org/1999/xlink" width="500" zoomAndPan="magnify" viewBox="0 0 375 374.999991" height="500" preserveAspectRatio="xMidYMid meet" version="1.0"><defs><clipPath id="3f43f71000"><path d="M 33 25 L 329.472656 25 L 329.472656 351 L 33 351 Z M 33 25 " clip-rule="nonzero"/></clipPath></defs><g clip-path="url(#3f43f71000)"><path fill="#c62328" d="M 328.667969 240.828125 C 326.996094 244.152344 325.101562 247.289062 323.015625 250.269531 C 298.652344 281.652344 259.535156 305.210938 218.714844 302.585938 C 208.921875 302.460938 199.273438 301.085938 190.015625 298.5625 C 119.78125 279.425781 92.351562 195.261719 109.511719 130.328125 C 126.253906 66.964844 183.984375 36.285156 246.199219 36.285156 C 219.855469 20.566406 181.230469 24.167969 153.089844 33.121094 C 103.828125 48.796875 58.761719 86.734375 41.460938 136.300781 C 15.304688 211.234375 51.894531 303.753906 124.773438 337.257812 C 159.855469 353.386719 199.015625 354.433594 235.792969 343.738281 C 271.105469 333.46875 299.578125 310.605469 316.964844 277.867188 C 320.074219 272.347656 322.925781 266.691406 325.101562 260.816406 C 327.277344 254.941406 328.777344 248.851562 329.171875 242.449219 C 329.167969 241.8125 329.410156 240.804688 328.667969 240.828125 Z M 159.316406 293.558594 C 162.632812 295.429688 166.1875 297.207031 169.746094 296.761719 C 165.300781 302.984375 159.074219 308.320312 151.074219 307.875 C 155.964844 305.210938 164.410156 305.210938 164.855469 298.984375 C 164.855469 291.875 155.078125 294.097656 149.796875 293.867188 C 152.382812 292.003906 155.480469 291.773438 159.316406 293.558594 Z M 109.480469 73.519531 C 105.734375 61.175781 119.515625 57.175781 124.851562 48.730469 C 126.628906 54.066406 124.851562 59.398438 123.515625 64.734375 C 133.296875 58.066406 140.851562 44.285156 155.074219 46.953125 C 147.519531 49.175781 139.074219 51.84375 134.628906 58.507812 C 138.183594 57.621094 141.296875 57.175781 144.851562 56.289062 C 142.1875 58.953125 138.628906 59.84375 135.074219 61.175781 C 143.074219 63.84375 147.964844 54.953125 153.296875 50.953125 C 155.078125 49.621094 155.519531 46.953125 159.078125 49.175781 C 154.1875 50.507812 151.964844 55.398438 148.410156 58.953125 C 143.519531 63.398438 136.40625 63.84375 130.183594 64.289062 C 123.960938 64.730469 119.515625 70.066406 115.515625 74.511719 C 120.40625 75.84375 126.183594 73.179688 130.628906 76.734375 C 130.628906 77.179688 129.738281 78.066406 129.292969 78.511719 C 125.738281 72.289062 116.847656 74.957031 112.402344 79.402344 C 111.515625 79.84375 110.625 79.402344 109.878906 78.933594 C 110.1875 77.039062 109.851562 75.265625 109.480469 73.519531 Z M 67.859375 107.753906 C 70.621094 106.960938 71.953125 110.074219 70.621094 112.292969 C 69.285156 114.515625 65.730469 114.074219 65.238281 111.332031 C 65.09375 109.5 65.871094 108.246094 67.859375 107.753906 Z M 60.390625 153.214844 C 62.757812 152.171875 63.957031 155.058594 63.613281 156.480469 C 63.316406 158.375 60.128906 159.28125 59.109375 156.613281 C 58.429688 155.015625 58.703125 153.835938 60.390625 153.214844 Z M 62.3125 163.808594 C 63.730469 163.46875 65.078125 164.058594 65.851562 165.835938 C 66.636719 167.632812 65.757812 169.492188 63.925781 169.976562 C 62.097656 170.464844 60.863281 169.707031 60.1875 167.929688 C 59.492188 166.105469 60.253906 164.414062 62.3125 163.808594 Z M 64.433594 176.769531 C 66.570312 175.632812 68.078125 177.894531 68.160156 179.691406 C 67.785156 181.925781 64.132812 182.355469 63.261719 179.859375 C 62.675781 178.414062 62.980469 177.269531 64.433594 176.769531 Z M 62.898438 184.683594 C 63.953125 187.859375 60.84375 189.640625 58.621094 188.75 C 56.398438 187.417969 55.507812 182.972656 58.976562 182.433594 C 60.730469 181.949219 62.1875 182.78125 62.898438 184.683594 Z M 51.878906 171.089844 C 53.414062 169.875 55.316406 172.632812 54.925781 174 C 54.542969 175.816406 51.460938 176.722656 50.695312 174.21875 C 49.972656 172.703125 50.734375 171.789062 51.878906 171.089844 Z M 87.777344 294.765625 C 85.585938 295.34375 83.023438 293.914062 81.863281 291.457031 C 80.761719 289.109375 81.316406 287.441406 83.394531 286.839844 C 85.703125 286.175781 88.917969 287.773438 89.914062 290.070312 C 90.765625 292.042969 89.765625 294.246094 87.777344 294.769531 Z M 113.753906 307.390625 C 112.511719 306.507812 112.019531 305.191406 111.546875 303.867188 C 112.445312 304.308594 112.957031 306.507812 113.816406 305.628906 C 116.441406 303.867188 114.183594 300.765625 114.628906 298.097656 C 117.738281 300.765625 118.261719 305.628906 114.964844 307.691406 C 114.402344 308.101562 114.113281 307.765625 113.753906 307.390625 Z M 121.96875 320.273438 C 120.539062 320.492188 119.082031 319.34375 118.269531 317.363281 C 117.648438 315.84375 118.175781 314.746094 119.65625 314.453125 C 121.136719 314.164062 122.757812 315.15625 123.457031 316.785156 C 124.160156 318.429688 123.476562 320.042969 121.96875 320.273438 Z M 130.746094 330.300781 C 128.511719 330.78125 125.101562 328.214844 126.75 326.042969 C 128.03125 324.734375 130.320312 326.042969 131.53125 327.585938 C 132.175781 328.859375 132.0625 329.914062 130.746094 330.300781 Z M 132.804688 319.164062 C 133.542969 321.207031 130.75 322.40625 129.289062 321.128906 C 126.265625 317.71875 129.53125 316.058594 132.542969 315.683594 C 132.355469 317.070312 132.59375 318.113281 132.804688 319.164062 Z M 147.308594 337.703125 C 145.398438 338.039062 143.472656 336.019531 144.140625 334.492188 C 145.101562 333.75 146.605469 333.421875 147.8125 335.210938 C 148.648438 336.40625 148.386719 337.359375 147.308594 337.703125 Z M 145.167969 329.117188 C 143.21875 330.101562 141.785156 327.628906 141.523438 326.394531 C 141.636719 324.746094 145.1875 323.152344 146.195312 326.105469 C 147.066406 327.8125 146.511719 328.6875 145.164062 329.117188 Z M 155.355469 337.023438 C 153.332031 337.269531 151.652344 335.625 151.183594 334.019531 C 151.367188 331.613281 154.664062 331.734375 156.25 333.90625 C 157.050781 335.308594 156.675781 336.667969 155.355469 337.023438 Z M 152.746094 325.636719 C 151.121094 322.839844 153.132812 321.136719 155.304688 321.15625 C 158.855469 322.050781 158.875 326.808594 156.167969 327.527344 C 154.332031 328.058594 153.417969 326.78125 152.75 325.636719 Z M 164.140625 338.527344 C 162.601562 339.515625 160.796875 337.152344 160.507812 335.960938 C 160.46875 333.953125 164.136719 333.597656 165.300781 336.0625 C 165.929688 337.382812 165.457031 338.171875 164.140625 338.527344 Z M 291.855469 299.574219 C 285.761719 309.214844 273.316406 310.101562 263.535156 314.101562 C 267.09375 317.214844 271.984375 316.324219 276.425781 317.214844 C 270.203125 318.992188 263.980469 314.992188 257.757812 315.4375 C 253.757812 315.882812 254.648438 320.328125 256.425781 322.550781 C 258.203125 324.328125 259.980469 326.105469 262.648438 326.992188 C 255.535156 331.882812 248.867188 323.882812 241.644531 323.492188 C 236.644531 322.550781 231.53125 322.550781 226.640625 323.882812 C 232.421875 325.660156 232.863281 332.773438 238.199219 334.996094 C 233.753906 338.550781 228.863281 335.882812 223.53125 337.660156 C 213.75 340.328125 201.75 336.773438 193.40625 330.3125 C 190.472656 328.214844 187.746094 325.660156 185.304688 322.546875 C 183.523438 320.769531 181.304688 321.660156 179.082031 322.105469 C 183.523438 323.882812 185.527344 327.660156 187.136719 331.828125 C 188.75 335.996094 189.972656 340.550781 192.859375 343.851562 C 193.746094 344.714844 194.632812 345.136719 195.519531 344.679688 C 192.300781 345.839844 189.21875 345.875 186.386719 345.074219 C 183.550781 344.261719 180.96875 342.632812 178.746094 340.496094 C 174.296875 336.214844 171.292969 329.878906 170.617188 323.875 C 169.175781 320.765625 167.125 318.546875 164.683594 316.898438 C 157.355469 311.964844 146.515625 312.214844 138.164062 309.21875 C 138.632812 313.660156 142.195312 320.324219 136 322.976562 C 135.976562 321.652344 135.96875 320.324219 136.410156 318.992188 C 136.855469 319.882812 137.75 320.769531 137.746094 320.324219 C 139.742188 315.882812 138.074219 312.546875 135.164062 309.792969 C 129.296875 305.214844 122.628906 302.101562 118.183594 295.433594 C 117.296875 294.101562 115.519531 294.101562 114.183594 294.101562 C 109.738281 295.433594 104.40625 297.214844 100.40625 293.65625 C 95.960938 290.101562 95.070312 283.878906 88.847656 282.988281 C 91.292969 280.765625 92.625 277.988281 93.253906 274.96875 C 93.878906 271.945312 93.800781 268.683594 93.410156 265.484375 C 91.65625 257.277344 85.214844 250.722656 79.667969 244.023438 C 77.820312 241.789062 76.066406 239.539062 74.613281 237.199219 C 75.734375 241.207031 77.402344 245.09375 78.542969 249.054688 C 79.679688 253.011719 80.292969 257.035156 79.292969 261.3125 C 78.957031 263.699219 78.492188 266.046875 76.707031 268.3125 C 75.511719 263.210938 72.039062 260.335938 68.203125 257.671875 C 64.675781 255.222656 63.761719 251.398438 63.347656 247.386719 C 63.007812 244.109375 63.472656 241.058594 64.398438 238.136719 C 65.292969 234.539062 68.402344 231.425781 68.847656 227.871094 C 69.511719 223.871094 69.070312 219.980469 68.707031 216.085938 C 67.957031 211.867188 68.847656 208.3125 68.847656 204.3125 C 58.179688 207.425781 62.625 216.757812 64.402344 224.316406 C 63.957031 227.871094 62.179688 230.761719 60.679688 233.703125 C 59.179688 236.648438 57.957031 239.648438 58.625 243.429688 C 58.625 244.761719 56.847656 246.539062 56.847656 246.09375 C 53.847656 243.316406 51.761719 240.152344 50.546875 236.824219 C 49.332031 233.496094 48.984375 230.007812 49.457031 226.59375 C 50.621094 215.867188 59.957031 210.980469 67.070312 203.867188 C 69.511719 201.203125 71.070312 198.199219 72.125 195.035156 C 73.179688 191.867188 73.738281 188.53125 74.179688 185.199219 C 76.847656 171.417969 74.179688 157.195312 75.070312 143.414062 C 75.292969 139.859375 75.847656 136.304688 76.570312 132.804688 C 77.292969 129.304688 78.179688 125.859375 79.066406 122.523438 C 75.960938 122.523438 74.625 124.746094 72.402344 126.523438 C 72.847656 125.636719 73.292969 124.300781 72.847656 123.414062 C 70.625 120.746094 67.070312 120.746094 63.957031 121.191406 C 60.84375 122.078125 57.734375 122.96875 55.066406 125.191406 C 56.402344 125.636719 56.402344 126.523438 56.402344 127.414062 C 55.066406 125.636719 54.179688 123.414062 53.289062 121.636719 C 55.621094 120.855469 58.84375 120.691406 62.296875 120.664062 C 65.75 120.636719 69.429688 120.746094 72.679688 120.523438 C 79.175781 120.078125 83.894531 118.257812 81.707031 111.390625 C 80.828125 108.730469 78.511719 106.1875 76.289062 103.410156 C 74.070312 100.632812 71.957031 97.632812 71.515625 94.078125 C 77.292969 94.078125 80.394531 99.851562 83.027344 103.828125 C 79.515625 103.410156 79.957031 98.519531 76.847656 97.632812 C 76.402344 97.632812 75.511719 98.078125 75.070312 98.519531 C 73.289062 101.1875 75.070312 103.855469 77.292969 105.1875 C 82.179688 107.855469 90.183594 105.632812 89.292969 101.632812 C 86.179688 90.519531 81.738281 76.296875 95.070312 70.519531 C 94.183594 75.40625 95.070312 79.851562 95.960938 84.742188 C 96.40625 86.964844 95.515625 88.742188 95.070312 90.964844 C 101.292969 81.628906 112.851562 79.851562 123.074219 83.851562 C 123.519531 83.851562 125.296875 82.519531 126.1875 81.628906 C 123.519531 89.1875 113.742188 85.1875 108.40625 83.410156 C 107.074219 82.964844 104.40625 84.742188 105.292969 85.1875 C 108.40625 87.851562 113.742188 89.1875 115.960938 93.1875 C 116.851562 94.964844 118.183594 97.632812 116.40625 99.410156 C 110.183594 105.632812 98.625 107.855469 92.847656 100.296875 C 90.183594 106.078125 94.183594 111.410156 97.738281 115.855469 C 100.851562 119.410156 106.628906 122.96875 105.292969 127.414062 C 103.515625 133.636719 95.070312 138.523438 87.960938 135.414062 C 84.402344 133.636719 82.625 130.078125 81.738281 126.523438 C 74.625 138.523438 90.625 146.96875 94.183594 157.195312 C 95.960938 161.640625 95.515625 166.527344 94.183594 170.972656 C 93.738281 172.308594 94.183594 173.640625 95.070312 174.972656 C 92.40625 170.75 92.847656 164.417969 92.515625 158.972656 C 92.179688 153.527344 91.0625 148.964844 85.292969 148.304688 C 80.179688 147.859375 77.957031 151.304688 77.347656 155.804688 C 76.734375 160.304688 77.734375 165.859375 79.070312 169.640625 C 83.960938 183.863281 91.960938 196.753906 101.738281 207.867188 C 89.738281 197.199219 83.070312 182.53125 77.734375 167.859375 C 75.957031 174.082031 75.070312 180.308594 75.515625 186.660156 C 75.742188 189.835938 76.296875 192.984375 77.191406 196.046875 C 78.085938 199.109375 79.3125 202.078125 80.875 204.890625 C 82.441406 207.59375 84.359375 210.101562 86.6875 212.351562 C 88.988281 214.59375 91.699219 216.578125 94.847656 218.230469 C 98.039062 221.644531 100.183594 225.644531 99.515625 230.980469 C 99.292969 226.757812 97.710938 222.421875 94.976562 219.347656 C 92.40625 216.3125 87.960938 214.089844 83.515625 215.421875 C 85.738281 221.203125 88.847656 226.089844 93.070312 230.644531 C 95.128906 232.757812 97.40625 234.675781 99.835938 236.425781 C 102.265625 238.175781 104.84375 239.761719 107.484375 241.214844 C 103.664062 240.683594 100.320312 239.488281 97.40625 237.761719 C 94.488281 236.046875 92.003906 233.800781 89.859375 231.175781 C 87.71875 228.234375 85.890625 225.144531 84.324219 221.9375 C 82.746094 218.726562 81.433594 215.402344 80.320312 211.996094 C 78.179688 205.199219 76.402344 198.089844 75.515625 190.976562 C 71.515625 197.644531 69.738281 205.199219 70.160156 212.78125 C 70.242188 216.585938 70.765625 220.398438 71.703125 224.113281 C 72.617188 227.828125 73.949219 231.441406 75.648438 234.855469 C 77.46875 238.074219 79.726562 240.984375 82.445312 243.484375 C 85.15625 245.996094 88.332031 248.09375 91.960938 249.648438 C 96.40625 251.429688 101.40625 251.984375 106.375 252.382812 C 122.1875 251.429688 133.742188 264.761719 140.855469 277.652344 C 137.746094 270.984375 131.964844 262.097656 123.519531 263.875 C 125.742188 260.761719 123.964844 255.871094 120.855469 254.09375 C 118.1875 252.761719 113.742188 254.539062 112.855469 257.652344 C 110.632812 255.429688 108.410156 252.761719 105.296875 251.429688 C 104.410156 250.984375 103.964844 251.429688 103.070312 251.871094 C 99.296875 253.875 97.851562 257.652344 97.714844 261.832031 C 97.574219 266.011719 98.742188 270.597656 100.183594 274.207031 C 101.628906 277.707031 103.742188 281.015625 106.296875 283.890625 C 111.519531 290.097656 119.964844 296.324219 128.410156 291.433594 C 131.523438 289.210938 133.300781 286.097656 132.855469 282.097656 C 131.96875 278.988281 129.746094 276.320312 126.1875 277.207031 C 126.632812 275.875 127.523438 275.429688 128.410156 275.875 C 133.746094 278.097656 135.078125 284.320312 133.300781 289.210938 C 131.078125 293.65625 126.1875 295.433594 121.742188 296.320312 C 124.855469 303.433594 132.410156 306.546875 139.523438 307.878906 C 135.078125 303.878906 133.746094 298.101562 131.523438 292.765625 C 134.191406 294.101562 136.859375 294.542969 139.523438 294.101562 C 141.746094 293.65625 142.636719 291.433594 142.191406 289.210938 C 142.191406 290.988281 143.523438 292.765625 142.191406 294.542969 C 139.96875 296.765625 136.855469 296.320312 134.191406 295.433594 C 138.191406 311.878906 156.859375 318.546875 171.972656 315.878906 C 178.863281 314.546875 186.199219 313.769531 193.140625 312.15625 C 200.085938 310.546875 206.640625 308.101562 211.96875 303.449219 C 212.199219 307.214844 211.199219 311.101562 209.199219 314.324219 C 207.199219 317.546875 204.199219 320.101562 200.421875 321.214844 C 203.976562 322.546875 207.976562 322.101562 211.699219 322.867188 C 221.3125 325.214844 225.757812 314.992188 232.863281 310.476562 C 236.980469 307.65625 241.761719 306.101562 247.984375 307.433594 C 249.761719 307.433594 251.539062 306.101562 253.316406 305.210938 C 252.429688 310.546875 248.871094 315.4375 244.425781 318.546875 C 255.539062 317.214844 262.207031 307.878906 268.875 298.988281 C 271.097656 295.433594 275.097656 294.988281 278.652344 294.097656 C 276.429688 298.988281 274.207031 303.878906 274.207031 309.210938 C 282.210938 303.433594 284.875 285.652344 297.730469 293.347656 C 294.628906 294.449219 293.183594 296.964844 291.859375 299.570312 Z M 63.46875 144.40625 C 61.550781 141.527344 64.800781 139.125 66.707031 138.175781 C 69.113281 136.753906 70.738281 142.25 73.6875 142.855469 C 70.898438 145.671875 68.5 146.074219 69.792969 150.921875 C 70.5 153.796875 66.28125 154.632812 63.742188 152.667969 C 62.675781 151.214844 63.027344 149.785156 63.59375 148.582031 C 64.777344 147.109375 64.675781 145.890625 63.464844 144.40625 Z M 89.0625 170.601562 C 91.511719 174.96875 97.289062 176.304688 99.957031 180.75 C 87.511719 177.636719 82.625 163.859375 81.289062 152.300781 C 83.066406 153.632812 82.625 156.300781 83.789062 158.28125 C 85.332031 162.558594 86.753906 166.796875 89.0625 170.601562 Z M 120.398438 271.292969 C 121.425781 274.121094 120.421875 277.0625 118.082031 277.847656 C 115.445312 278.714844 112.539062 277.074219 111.546875 274.101562 C 110.59375 271.234375 111.796875 268.386719 114.222656 267.585938 C 116.671875 266.777344 119.371094 268.457031 120.398438 271.292969 Z M 93.5 276.074219 C 93.734375 272.316406 95.066406 268.757812 95.210938 264.925781 C 93.734375 257.203125 86.621094 251.867188 83.066406 245.203125 C 93.734375 248.3125 99.070312 257.648438 98.679688 268.21875 C 99.34375 272.933594 100.28125 277.554688 103.273438 281.457031 C 106.179688 285.761719 109.734375 289.652344 112.847656 293.652344 C 109.070312 295.652344 105.070312 295.316406 101.792969 293.484375 C 98.511719 291.652344 95.957031 288.316406 95.070312 284.316406 C 94.625 283.429688 93.289062 283.429688 92.402344 282.984375 C 91.511719 282.539062 91.066406 282.09375 91.710938 281.050781 C 92.78125 279.632812 93.46875 277.980469 93.503906 276.074219 Z M 274.507812 305.496094 C 272.871094 309.914062 267.980469 311.296875 263.980469 311.351562 C 265.757812 306.492188 267.535156 300.304688 272.871094 298.074219 C 275.089844 297.179688 275.535156 300.257812 274.839844 301.398438 C 274.839844 302.765625 274.628906 304.132812 274.507812 305.496094 Z M 89.597656 132.921875 C 81.734375 126.964844 83.511719 114.960938 87.957031 107.851562 C 91.066406 115.40625 99.511719 118.960938 102.179688 126.519531 C 103.515625 130.964844 99.070312 134.964844 94.691406 134.359375 C 92.816406 134.796875 91.152344 134.386719 89.597656 132.921875 Z M 219.316406 335.105469 C 219.421875 335.332031 219.417969 335.757812 219.414062 336.179688 C 214.785156 335.898438 209.046875 335.636719 204.175781 333.976562 C 199.300781 332.3125 195.292969 329.210938 194.171875 323.433594 C 198.625 323.210938 203.859375 323.320312 208.355469 324.683594 C 212.851562 326.003906 216.632812 328.488281 218.183594 333.046875 C 218.503906 333.757812 218.933594 334.421875 219.316406 335.105469 Z M 187.882812 336.9375 C 186.675781 340.34375 190.234375 341.207031 191.136719 343.304688 C 186.039062 343.902344 180.808594 341.796875 177.621094 338.417969 C 174.429688 335.042969 173.300781 330.285156 176.402344 325.652344 C 179.023438 322.097656 183.964844 326.539062 186.320312 329.742188 C 187.996094 332.019531 188.609375 334.570312 187.882812 336.9375 Z M 95.476562 95.277344 C 96.847656 90.515625 101.734375 86.515625 106.625 87.402344 C 112.402344 88.738281 119.070312 96.292969 115.070312 98.515625 C 110.625 101.628906 101.734375 103.40625 96.09375 98.304688 C 95.03125 97.402344 94.570312 96.675781 95.476562 95.277344 Z M 191.664062 321.414062 C 187.96875 320.320312 184.414062 322.101562 181.300781 319.878906 C 179.523438 318.101562 180.414062 316.765625 181.746094 315.878906 C 186.414062 312.765625 191.96875 312.65625 197.191406 312.15625 C 202.414062 311.65625 207.304688 310.765625 210.636719 306.101562 C 210.191406 310.542969 208.414062 314.988281 204.230469 317.753906 C 200.660156 320.515625 196.09375 322.011719 191.664062 321.414062 Z M 75.480469 247.011719 C 77.421875 251.527344 76.984375 256.257812 76.382812 261.34375 C 73.648438 259.4375 71.242188 257.859375 68.945312 256.132812 C 66.632812 254.398438 66.089844 251.78125 65.652344 249.097656 C 65.132812 245.902344 65.539062 242.964844 66.429688 240.148438 C 67.316406 237.335938 68.683594 234.636719 70.09375 231.929688 C 70.898438 237.410156 73.386719 242.136719 75.480469 247.011719 Z M 248.945312 314.496094 C 242.644531 320.320312 233.753906 320.765625 225.75 321.65625 C 229.308594 312.320312 240.863281 306.097656 250.199219 310.097656 C 250.644531 310.542969 250.199219 311.433594 249.953125 311.695312 C 249.585938 312.617188 248.851562 313.417969 248.945312 314.496094 Z M 231.792969 330.085938 C 232.734375 331.242188 234.039062 332.472656 233.570312 334.148438 C 232.195312 336.664062 228.644531 337.582031 226.019531 336.398438 C 221.640625 334.425781 217.277344 329.433594 217.414062 324.242188 C 222.472656 323.324219 229.183594 326.101562 231.792969 330.085938 Z M 57.949219 215.929688 C 55.851562 219.453125 54.128906 223.550781 53.597656 227.652344 C 53.0625 231.753906 53.730469 235.867188 56.394531 239.421875 C 57.507812 235.644531 60.175781 231.753906 61.664062 227.808594 C 63.15625 223.859375 63.46875 219.851562 59.835938 215.835938 C 58.894531 214.582031 58.496094 215.015625 57.949219 215.929688 Z M 56.363281 228.027344 C 55.953125 228.308594 54.617188 229.644531 54.617188 228.308594 C 54.175781 225.199219 56.839844 222.976562 57.890625 220.082031 C 58.679688 223.078125 58.320312 225.765625 56.363281 228.03125 Z M 89.9375 92.777344 C 83.957031 87.402344 87.511719 77.625 93.289062 74.070312 C 92.84375 81.179688 95.957031 88.292969 93 95.011719 C 91.554688 95.582031 90.789062 93.742188 89.9375 92.777344 Z M 286.019531 295.894531 C 287.980469 292.761719 291.980469 291.875 295.09375 293.207031 C 290.648438 295.875 291.539062 302.097656 287.09375 304.320312 L 287.09375 301.210938 C 285.757812 302.988281 283.535156 306.988281 280.820312 304.5 C 282.53125 301.621094 284.128906 298.664062 286.019531 295.894531 Z M 258.652344 326.1875 C 254.546875 329.527344 248.660156 325.484375 245.9375 323.015625 C 245.476562 322.183594 245.464844 321.34375 245.453125 320.503906 C 248.59375 321.335938 249.546875 325.066406 253.5625 324.621094 C 252.191406 322.976562 250.824219 321.320312 249.214844 319.871094 C 252.851562 319.386719 258.152344 323.03125 258.652344 326.1875 Z M 111.546875 75.898438 C 109.292969 66.066406 117.292969 58.066406 123.960938 52.289062 C 123.960938 57.175781 123.074219 61.621094 120.554688 65.589844 C 118.4375 69.539062 115.445312 72.972656 111.546875 75.898438 Z M 111.546875 75.898438 " fill-opacity="1" fill-rule="nonzero"/></g></svg>