<svg xmlns="http://www.w3.org/2000/svg" xmlns:xlink="http://www.w3.org/1999/xlink" width="500" zoomAndPan="magnify" viewBox="0 0 375 374.999991" height="500" preserveAspectRatio="xMidYMid meet" version="1.0"><defs><clipPath id="8d1ebb6379"><path d="M 146.167969 188 L 172 188 L 172 190 L 146.167969 190 Z M 146.167969 188 " clip-rule="nonzero"/></clipPath><clipPath id="7994e3e129"><path d="M 204 188 L 228.667969 188 L 228.667969 189 L 204 189 Z M 204 188 " clip-rule="nonzero"/></clipPath><clipPath id="106188d048"><path d="M 176 350 L 199 350 L 199 364.359375 L 176 364.359375 Z M 176 350 " clip-rule="nonzero"/></clipPath><clipPath id="01eaf83bf7"><path d="M 176 10.359375 L 199 10.359375 L 199 25 L 176 25 Z M 176 10.359375 " clip-rule="nonzero"/></clipPath></defs><g clip-path="url(#8d1ebb6379)"><path fill="#c62328" d="M 171.105469 188.660156 L 146.179688 188.730469 L 146.179688 189.15625 C 146.179688 189.15625 171.179688 189.082031 171.179688 189.082031 C 171.140625 188.945312 171.121094 188.804688 171.105469 188.660156 Z M 171.105469 188.660156 " fill-opacity="1" fill-rule="nonzero"/></g><g clip-path="url(#7994e3e129)"><path fill="#c62328" d="M 204.089844 188.5625 C 204.089844 188.703125 204.082031 188.847656 204.066406 188.988281 L 228.816406 188.914062 L 228.816406 188.492188 C 228.816406 188.492188 204.089844 188.5625 204.089844 188.5625 Z M 204.089844 188.5625 " fill-opacity="1" fill-rule="nonzero"/></g><path fill="#c62328" d="M 175.5625 176.65625 L 158.351562 159.539062 L 158.050781 159.839844 L 175.242188 176.933594 C 175.34375 176.832031 175.445312 176.738281 175.5625 176.65625 Z M 175.5625 176.65625 " fill-opacity="1" fill-rule="nonzero"/><path fill="#c62328" d="M 199.164062 200.128906 C 199.085938 200.246094 198.996094 200.363281 198.917969 200.480469 L 216.652344 218.113281 L 216.953125 217.8125 L 199.171875 200.136719 Z M 199.164062 200.128906 " fill-opacity="1" fill-rule="nonzero"/><path fill="#c62328" d="M 199.480469 177.074219 L 216.777344 159.679688 L 216.480469 159.378906 L 199.214844 176.738281 C 199.304688 176.847656 199.390625 176.957031 199.480469 177.074219 Z M 199.480469 177.074219 " fill-opacity="1" fill-rule="nonzero"/><path fill="#c62328" d="M 176.117188 199.96875 L 158.210938 217.972656 L 158.511719 218.273438 L 176.394531 200.28125 C 176.292969 200.179688 176.199219 200.078125 176.109375 199.96875 Z M 176.117188 199.96875 " fill-opacity="1" fill-rule="nonzero"/><path fill="#c62328" d="M 183.925781 172.023438 L 180.507812 156.898438 L 180.09375 156.996094 L 183.507812 172.132812 C 183.648438 172.097656 183.777344 172.0625 183.917969 172.03125 Z M 183.925781 172.023438 " fill-opacity="1" fill-rule="nonzero"/><path fill="#c62328" d="M 190.796875 204.398438 L 194.488281 220.761719 L 194.90625 220.667969 L 191.21875 204.332031 C 191.082031 204.351562 190.941406 204.375 190.804688 204.398438 Z M 190.796875 204.398438 " fill-opacity="1" fill-rule="nonzero"/><path fill="#c62328" d="M 203.945312 185.332031 L 219.433594 181.835938 L 219.339844 181.421875 L 203.886719 184.910156 C 203.90625 185.046875 203.921875 185.1875 203.9375 185.332031 Z M 203.945312 185.332031 " fill-opacity="1" fill-rule="nonzero"/><path fill="#c62328" d="M 171.5 192.21875 L 155.5625 195.816406 L 155.660156 196.230469 L 171.566406 192.644531 C 171.535156 192.503906 171.511719 192.367188 171.5 192.226562 Z M 171.5 192.21875 " fill-opacity="1" fill-rule="nonzero"/><path fill="#c62328" d="M 173.460938 179.707031 L 159.972656 171.183594 L 159.746094 171.542969 L 173.300781 180.109375 C 173.351562 179.96875 173.402344 179.839844 173.453125 179.707031 Z M 173.460938 179.707031 " fill-opacity="1" fill-rule="nonzero"/><path fill="#c62328" d="M 201.347656 197.328125 C 201.324219 197.371094 201.304688 197.421875 201.28125 197.472656 C 201.238281 197.554688 201.195312 197.632812 201.148438 197.699219 L 215.019531 206.460938 L 215.246094 206.105469 Z M 201.347656 197.328125 " fill-opacity="1" fill-rule="nonzero"/><path fill="#c62328" d="M 196.800781 174.496094 L 205.140625 161.300781 L 204.785156 161.074219 L 196.445312 174.265625 C 196.5625 174.335938 196.683594 174.410156 196.800781 174.488281 Z M 196.800781 174.496094 " fill-opacity="1" fill-rule="nonzero"/><path fill="#c62328" d="M 178.933594 201.988281 L 169.863281 216.347656 L 170.222656 216.574219 L 179.289062 202.222656 C 179.160156 202.15625 179.042969 202.082031 178.933594 201.996094 Z M 178.933594 201.988281 " fill-opacity="1" fill-rule="nonzero"/><path fill="#c62328" d="M 179.320312 173.988281 L 171.550781 160.292969 L 171.183594 160.503906 L 178.957031 174.199219 C 179.078125 174.132812 179.203125 174.058594 179.328125 173.992188 Z M 179.320312 173.988281 " fill-opacity="1" fill-rule="nonzero"/><path fill="#c62328" d="M 195.808594 203.046875 C 195.679688 203.105469 195.546875 203.15625 195.414062 203.199219 L 203.449219 217.355469 L 203.8125 217.144531 L 195.808594 203.039062 Z M 195.808594 203.046875 " fill-opacity="1" fill-rule="nonzero"/><path fill="#c62328" d="M 202.382812 180.625 L 216.035156 172.878906 L 215.820312 172.511719 L 202.207031 180.238281 C 202.265625 180.371094 202.324219 180.496094 202.375 180.625 Z M 202.382812 180.625 " fill-opacity="1" fill-rule="nonzero"/><path fill="#c62328" d="M 173.445312 196.554688 L 158.964844 204.777344 L 159.175781 205.140625 L 173.644531 196.925781 C 173.578125 196.800781 173.511719 196.675781 173.445312 196.554688 Z M 173.445312 196.554688 " fill-opacity="1" fill-rule="nonzero"/><path fill="#c62328" d="M 203.171875 192.933594 C 203.164062 192.976562 203.15625 193.015625 203.140625 193.058594 C 203.113281 193.152344 203.089844 193.25 203.0625 193.34375 L 218.953125 197.726562 L 219.0625 197.320312 L 203.164062 192.933594 Z M 203.171875 192.933594 " fill-opacity="1" fill-rule="nonzero"/><path fill="#c62328" d="M 171.710938 184.253906 L 156.046875 179.933594 L 155.9375 180.339844 L 171.609375 184.667969 C 171.636719 184.53125 171.679688 184.398438 171.71875 184.257812 Z M 171.710938 184.253906 " fill-opacity="1" fill-rule="nonzero"/><path fill="#c62328" d="M 192.285156 172.28125 L 196.398438 157.375 L 195.992188 157.265625 L 191.890625 172.117188 C 192.023438 172.171875 192.152344 172.226562 192.285156 172.285156 Z M 192.285156 172.28125 " fill-opacity="1" fill-rule="nonzero"/><path fill="#c62328" d="M 183.121094 203.90625 L 178.605469 220.28125 L 179.015625 220.390625 L 183.53125 204.023438 C 183.390625 203.988281 183.261719 203.953125 183.121094 203.902344 Z M 183.121094 203.90625 " fill-opacity="1" fill-rule="nonzero"/><path fill="#c62328" d="M 187.558594 66.859375 C 187.636719 66.859375 187.726562 66.859375 187.804688 66.859375 L 187.804688 22.753906 C 187.59375 22.738281 187.382812 22.703125 187.171875 22.652344 L 187.171875 66.867188 C 187.300781 66.867188 187.425781 66.867188 187.558594 66.867188 Z M 187.558594 66.859375 " fill-opacity="1" fill-rule="nonzero"/><path fill="#c62328" d="M 187.578125 76.585938 C 187.441406 76.585938 187.308594 76.578125 187.179688 76.5625 L 187.179688 171.878906 C 187.390625 171.863281 187.601562 171.871094 187.8125 171.886719 L 187.8125 76.585938 Z M 187.578125 76.585938 " fill-opacity="1" fill-rule="nonzero"/><path fill="#c62328" d="M 187.171875 204.886719 L 187.171875 299.785156 C 187.316406 299.792969 187.460938 299.808594 187.609375 299.84375 C 187.675781 299.84375 187.738281 299.863281 187.804688 299.871094 L 187.804688 204.804688 C 187.59375 204.839844 187.382812 204.871094 187.171875 204.886719 Z M 187.171875 204.886719 " fill-opacity="1" fill-rule="nonzero"/><path fill="#c62328" d="M 187.769531 309.246094 C 187.703125 309.246094 187.636719 309.246094 187.570312 309.246094 C 187.433594 309.246094 187.300781 309.242188 187.171875 309.226562 L 187.171875 351.507812 C 187.390625 351.558594 187.601562 351.625 187.804688 351.703125 L 187.804688 309.246094 C 187.804688 309.246094 187.785156 309.246094 187.769531 309.246094 Z M 187.769531 309.246094 " fill-opacity="1" fill-rule="nonzero"/><path fill="#c62328" d="M 180.503906 155.191406 C 180.503906 155.363281 180.441406 155.507812 180.320312 155.628906 C 180.199219 155.75 180.054688 155.8125 179.882812 155.8125 C 179.710938 155.8125 179.566406 155.75 179.445312 155.628906 C 179.324219 155.507812 179.261719 155.363281 179.261719 155.191406 C 179.261719 155.019531 179.324219 154.875 179.445312 154.753906 C 179.566406 154.632812 179.710938 154.570312 179.882812 154.570312 C 180.054688 154.570312 180.199219 154.632812 180.320312 154.753906 C 180.441406 154.875 180.503906 155.019531 180.503906 155.191406 Z M 180.503906 155.191406 " fill-opacity="1" fill-rule="nonzero"/><path fill="#c62328" d="M 197.21875 155.5625 C 197.21875 155.734375 197.15625 155.882812 197.035156 156.003906 C 196.914062 156.125 196.769531 156.183594 196.597656 156.183594 C 196.425781 156.183594 196.28125 156.125 196.160156 156.003906 C 196.039062 155.882812 195.976562 155.734375 195.976562 155.5625 C 195.976562 155.394531 196.039062 155.246094 196.160156 155.125 C 196.28125 155.003906 196.425781 154.945312 196.597656 154.945312 C 196.769531 154.945312 196.914062 155.003906 197.035156 155.125 C 197.15625 155.246094 197.21875 155.394531 197.21875 155.5625 Z M 197.21875 155.5625 " fill-opacity="1" fill-rule="nonzero"/><path fill="#c62328" d="M 171.097656 159.191406 C 171.097656 159.363281 171.035156 159.507812 170.914062 159.628906 C 170.792969 159.75 170.648438 159.808594 170.476562 159.808594 C 170.304688 159.808594 170.160156 159.75 170.039062 159.628906 C 169.917969 159.507812 169.855469 159.363281 169.855469 159.191406 C 169.855469 159.019531 169.917969 158.871094 170.039062 158.75 C 170.160156 158.628906 170.304688 158.570312 170.476562 158.570312 C 170.648438 158.570312 170.792969 158.628906 170.914062 158.75 C 171.035156 158.871094 171.097656 159.019531 171.097656 159.191406 Z M 171.097656 159.191406 " fill-opacity="1" fill-rule="nonzero"/><path fill="#c62328" d="M 206.410156 159.765625 C 206.410156 159.9375 206.351562 160.085938 206.230469 160.207031 C 206.109375 160.328125 205.960938 160.386719 205.789062 160.386719 C 205.617188 160.386719 205.472656 160.328125 205.351562 160.207031 C 205.230469 160.085938 205.171875 159.9375 205.171875 159.765625 C 205.171875 159.59375 205.230469 159.449219 205.351562 159.328125 C 205.472656 159.207031 205.617188 159.148438 205.789062 159.148438 C 205.960938 159.148438 206.109375 159.207031 206.230469 159.328125 C 206.351562 159.449219 206.410156 159.59375 206.410156 159.765625 Z M 206.410156 159.765625 " fill-opacity="1" fill-rule="nonzero"/><path fill="#c62328" d="M 218.046875 171.996094 C 218.046875 172.167969 217.988281 172.3125 217.867188 172.433594 C 217.746094 172.554688 217.597656 172.613281 217.425781 172.613281 C 217.257812 172.613281 217.109375 172.554688 216.988281 172.433594 C 216.867188 172.3125 216.808594 172.167969 216.808594 171.996094 C 216.808594 171.824219 216.867188 171.675781 216.988281 171.554688 C 217.109375 171.433594 217.257812 171.375 217.425781 171.375 C 217.597656 171.375 217.746094 171.433594 217.867188 171.554688 C 217.988281 171.675781 218.046875 171.824219 218.046875 171.996094 Z M 218.046875 171.996094 " fill-opacity="1" fill-rule="nonzero"/><path fill="#c62328" d="M 221.5625 181.332031 C 221.5625 181.503906 221.503906 181.652344 221.382812 181.773438 C 221.261719 181.894531 221.117188 181.953125 220.945312 181.953125 C 220.773438 181.953125 220.625 181.894531 220.503906 181.773438 C 220.382812 181.652344 220.324219 181.503906 220.324219 181.332031 C 220.324219 181.164062 220.382812 181.015625 220.503906 180.894531 C 220.625 180.773438 220.773438 180.714844 220.945312 180.714844 C 221.117188 180.714844 221.261719 180.773438 221.382812 180.894531 C 221.503906 181.015625 221.5625 181.164062 221.5625 181.332031 Z M 221.5625 181.332031 " fill-opacity="1" fill-rule="nonzero"/><path fill="#c62328" d="M 221.558594 198.144531 C 221.558594 198.316406 221.496094 198.460938 221.375 198.582031 C 221.253906 198.703125 221.109375 198.765625 220.9375 198.765625 C 220.765625 198.765625 220.621094 198.703125 220.5 198.582031 C 220.378906 198.460938 220.316406 198.316406 220.316406 198.144531 C 220.316406 197.972656 220.378906 197.828125 220.5 197.707031 C 220.621094 197.585938 220.765625 197.523438 220.9375 197.523438 C 221.109375 197.523438 221.253906 197.585938 221.375 197.707031 C 221.496094 197.828125 221.558594 197.972656 221.558594 198.144531 Z M 221.558594 198.144531 " fill-opacity="1" fill-rule="nonzero"/><path fill="#c62328" d="M 217.289062 207.117188 C 217.289062 207.289062 217.226562 207.433594 217.105469 207.554688 C 216.984375 207.675781 216.839844 207.738281 216.667969 207.738281 C 216.496094 207.738281 216.351562 207.675781 216.230469 207.554688 C 216.109375 207.433594 216.046875 207.289062 216.046875 207.117188 C 216.046875 206.945312 216.109375 206.800781 216.230469 206.679688 C 216.351562 206.558594 216.496094 206.496094 216.667969 206.496094 C 216.839844 206.496094 216.984375 206.558594 217.105469 206.679688 C 217.226562 206.800781 217.289062 206.945312 217.289062 207.117188 Z M 217.289062 207.117188 " fill-opacity="1" fill-rule="nonzero"/><path fill="#c62328" d="M 205.023438 218.652344 C 205.023438 218.824219 204.964844 218.96875 204.84375 219.089844 C 204.722656 219.210938 204.574219 219.273438 204.402344 219.273438 C 204.234375 219.273438 204.085938 219.210938 203.964844 219.089844 C 203.84375 218.96875 203.785156 218.824219 203.785156 218.652344 C 203.785156 218.480469 203.84375 218.335938 203.964844 218.214844 C 204.085938 218.09375 204.234375 218.03125 204.402344 218.03125 C 204.574219 218.03125 204.722656 218.09375 204.84375 218.214844 C 204.964844 218.335938 205.023438 218.480469 205.023438 218.652344 Z M 205.023438 218.652344 " fill-opacity="1" fill-rule="nonzero"/><path fill="#c62328" d="M 195.621094 222.402344 C 195.621094 222.574219 195.558594 222.71875 195.4375 222.839844 C 195.316406 222.960938 195.171875 223.023438 195 223.023438 C 194.828125 223.023438 194.683594 222.960938 194.5625 222.839844 C 194.441406 222.71875 194.378906 222.574219 194.378906 222.402344 C 194.378906 222.230469 194.441406 222.085938 194.5625 221.964844 C 194.683594 221.84375 194.828125 221.78125 195 221.78125 C 195.171875 221.78125 195.316406 221.84375 195.4375 221.964844 C 195.558594 222.085938 195.621094 222.230469 195.621094 222.402344 Z M 195.621094 222.402344 " fill-opacity="1" fill-rule="nonzero"/><path fill="#c62328" d="M 178.859375 222.046875 C 178.859375 222.21875 178.800781 222.363281 178.679688 222.484375 C 178.558594 222.605469 178.410156 222.664062 178.242188 222.664062 C 178.070312 222.664062 177.921875 222.605469 177.800781 222.484375 C 177.679688 222.363281 177.621094 222.21875 177.621094 222.046875 C 177.621094 221.875 177.679688 221.726562 177.800781 221.605469 C 177.921875 221.484375 178.070312 221.425781 178.242188 221.425781 C 178.410156 221.425781 178.558594 221.484375 178.679688 221.605469 C 178.800781 221.726562 178.859375 221.875 178.859375 222.046875 Z M 178.859375 222.046875 " fill-opacity="1" fill-rule="nonzero"/><path fill="#c62328" d="M 169.828125 217.886719 C 169.828125 218.058594 169.765625 218.203125 169.644531 218.324219 C 169.523438 218.445312 169.378906 218.507812 169.207031 218.507812 C 169.035156 218.507812 168.890625 218.445312 168.769531 218.324219 C 168.648438 218.203125 168.585938 218.058594 168.585938 217.886719 C 168.585938 217.714844 168.648438 217.570312 168.769531 217.449219 C 168.890625 217.328125 169.035156 217.265625 169.207031 217.265625 C 169.378906 217.265625 169.523438 217.328125 169.644531 217.449219 C 169.765625 217.570312 169.828125 217.714844 169.828125 217.886719 Z M 169.828125 217.886719 " fill-opacity="1" fill-rule="nonzero"/><path fill="#c62328" d="M 158.394531 205.839844 C 158.394531 206.011719 158.335938 206.160156 158.214844 206.28125 C 158.09375 206.402344 157.945312 206.460938 157.773438 206.460938 C 157.605469 206.460938 157.457031 206.402344 157.335938 206.28125 C 157.214844 206.160156 157.15625 206.011719 157.15625 205.839844 C 157.15625 205.671875 157.214844 205.523438 157.335938 205.402344 C 157.457031 205.28125 157.605469 205.222656 157.773438 205.222656 C 157.945312 205.222656 158.09375 205.28125 158.214844 205.402344 C 158.335938 205.523438 158.394531 205.671875 158.394531 205.839844 Z M 158.394531 205.839844 " fill-opacity="1" fill-rule="nonzero"/><path fill="#c62328" d="M 154.675781 196.320312 C 154.675781 196.492188 154.613281 196.636719 154.492188 196.757812 C 154.371094 196.878906 154.226562 196.941406 154.054688 196.941406 C 153.882812 196.941406 153.738281 196.878906 153.617188 196.757812 C 153.496094 196.636719 153.433594 196.492188 153.433594 196.320312 C 153.433594 196.148438 153.496094 196.003906 153.617188 195.882812 C 153.738281 195.761719 153.882812 195.699219 154.054688 195.699219 C 154.226562 195.699219 154.371094 195.761719 154.492188 195.882812 C 154.613281 196.003906 154.675781 196.148438 154.675781 196.320312 Z M 154.675781 196.320312 " fill-opacity="1" fill-rule="nonzero"/><path fill="#c62328" d="M 154.746094 179.699219 C 154.746094 179.871094 154.6875 180.015625 154.566406 180.136719 C 154.445312 180.257812 154.296875 180.320312 154.125 180.320312 C 153.957031 180.320312 153.808594 180.257812 153.6875 180.136719 C 153.566406 180.015625 153.507812 179.871094 153.507812 179.699219 C 153.507812 179.527344 153.566406 179.382812 153.6875 179.261719 C 153.808594 179.140625 153.957031 179.078125 154.125 179.078125 C 154.296875 179.078125 154.445312 179.140625 154.566406 179.261719 C 154.6875 179.382812 154.746094 179.527344 154.746094 179.699219 Z M 154.746094 179.699219 " fill-opacity="1" fill-rule="nonzero"/><path fill="#c62328" d="M 158.707031 170.289062 C 158.707031 170.457031 158.648438 170.605469 158.527344 170.726562 C 158.40625 170.847656 158.261719 170.90625 158.089844 170.90625 C 157.917969 170.90625 157.769531 170.847656 157.648438 170.726562 C 157.527344 170.605469 157.46875 170.457031 157.46875 170.289062 C 157.46875 170.117188 157.527344 169.96875 157.648438 169.847656 C 157.769531 169.726562 157.917969 169.667969 158.089844 169.667969 C 158.261719 169.667969 158.40625 169.726562 158.527344 169.847656 C 158.648438 169.96875 158.707031 170.117188 158.707031 170.289062 Z M 158.707031 170.289062 " fill-opacity="1" fill-rule="nonzero"/><path fill="#c62328" d="M 175.65625 291.082031 C 169.332031 287.113281 165.019531 280.179688 164.742188 272.15625 C 164.289062 259.304688 174.34375 248.53125 187.191406 248.078125 C 200.039062 247.625 210.824219 257.679688 211.269531 270.527344 C 211.582031 279.398438 206.882812 287.285156 199.710938 291.460938 C 199.042969 291.855469 198.347656 292.21875 197.632812 292.539062 C 209.890625 288.441406 218.523438 276.664062 218.046875 263.09375 C 217.472656 246.566406 203.601562 233.632812 187.070312 234.207031 C 170.542969 234.785156 157.613281 248.65625 158.191406 265.1875 C 158.628906 277.699219 166.675781 288.140625 177.730469 292.234375 C 177.023438 291.882812 176.335938 291.496094 175.671875 291.089844 C 175.671875 291.089844 175.664062 291.082031 175.65625 291.082031 Z M 175.65625 291.082031 " fill-opacity="1" fill-rule="nonzero"/><path fill="#c62328" d="M 175.671875 291.089844 C 175.671875 291.089844 175.664062 291.082031 175.65625 291.082031 C 165.835938 286.519531 158.855469 276.730469 158.453125 265.1875 C 157.878906 248.828125 170.71875 235.054688 187.074219 234.476562 C 203.433594 233.902344 217.207031 246.742188 217.785156 263.109375 C 218.230469 275.722656 210.691406 286.796875 199.710938 291.46875 C 199.042969 291.863281 198.347656 292.226562 197.632812 292.546875 C 196.75 292.949219 195.832031 293.296875 194.890625 293.582031 C 208.707031 290.417969 218.820312 277.773438 218.308594 263.09375 C 217.726562 246.445312 203.710938 233.375 187.0625 233.960938 C 170.417969 234.542969 157.351562 248.558594 157.929688 265.210938 C 158.402344 278.808594 167.851562 290.023438 180.371094 293.351562 C 179.464844 293.035156 178.582031 292.664062 177.730469 292.242188 C 177.023438 291.890625 176.335938 291.503906 175.671875 291.09375 Z M 175.671875 291.089844 " fill-opacity="1" fill-rule="nonzero"/><path fill="#c62328" d="M 175.042969 84.632812 C 175.707031 84.214844 176.394531 83.835938 177.101562 83.488281 C 166.046875 87.574219 158 98.019531 157.5625 110.53125 C 156.988281 127.058594 169.910156 140.9375 186.441406 141.511719 C 202.972656 142.089844 216.84375 129.160156 217.421875 112.628906 C 217.894531 99.054688 209.261719 87.28125 197.003906 83.179688 C 197.722656 83.5 198.414062 83.867188 199.085938 84.261719 C 206.257812 88.433594 210.949219 96.320312 210.640625 105.191406 C 210.191406 118.039062 199.414062 128.085938 186.566406 127.640625 C 173.714844 127.199219 163.671875 116.414062 164.113281 103.566406 C 164.390625 95.539062 168.703125 88.609375 175.03125 84.640625 C 175.03125 84.640625 175.039062 84.640625 175.042969 84.632812 Z M 175.042969 84.632812 " fill-opacity="1" fill-rule="nonzero"/><path fill="#c62328" d="M 177.101562 83.488281 C 177.957031 83.0625 178.839844 82.699219 179.742188 82.378906 C 167.222656 85.703125 157.773438 96.917969 157.300781 110.519531 C 156.71875 127.167969 169.785156 141.183594 186.433594 141.765625 C 203.082031 142.351562 217.097656 129.285156 217.683594 112.632812 C 218.195312 97.953125 208.089844 85.3125 194.261719 82.144531 C 195.203125 82.429688 196.121094 82.777344 197.003906 83.179688 C 197.722656 83.5 198.414062 83.867188 199.085938 84.261719 C 210.066406 88.929688 217.601562 100.003906 217.15625 112.621094 C 216.582031 128.976562 202.8125 141.820312 186.449219 141.25 C 170.089844 140.679688 157.25 126.90625 157.824219 110.539062 C 158.226562 99 165.210938 89.207031 175.03125 84.648438 C 175.03125 84.648438 175.039062 84.648438 175.042969 84.640625 C 175.707031 84.222656 176.394531 83.84375 177.101562 83.492188 Z M 177.101562 83.488281 " fill-opacity="1" fill-rule="nonzero"/><path fill="#c62328" d="M 194.136719 341.386719 L 193.914062 340.796875 C 199.929688 338.125 203.710938 332.148438 203.535156 325.570312 C 203.300781 316.652344 195.859375 309.597656 186.945312 309.808594 C 182.625 309.917969 178.605469 311.707031 175.628906 314.84375 C 172.652344 317.980469 171.074219 322.082031 171.183594 326.40625 C 171.339844 332.375 174.746094 337.753906 180.078125 340.445312 L 179.824219 341.023438 C 171.621094 337.898438 166.179688 330.214844 165.953125 321.441406 C 165.648438 309.570312 175.058594 299.660156 186.929688 299.347656 C 192.6875 299.195312 198.152344 301.296875 202.316406 305.257812 C 206.492188 309.21875 208.867188 314.566406 209.015625 320.324219 C 209.261719 329.800781 203.140625 338.460938 194.132812 341.378906 Z M 187.367188 309.175781 C 196.4375 309.175781 203.9375 316.433594 204.171875 325.554688 C 204.300781 330.742188 202.078125 335.570312 198.261719 338.8125 C 204.578125 334.988281 208.59375 327.941406 208.394531 320.34375 C 208.25 314.765625 205.945312 309.570312 201.894531 305.722656 C 197.84375 301.878906 192.546875 299.835938 186.960938 299.980469 C 175.429688 300.28125 166.296875 309.898438 166.597656 321.425781 C 166.777344 328.355469 170.308594 334.585938 175.914062 338.300781 C 172.652344 335.265625 170.675781 331.011719 170.558594 326.421875 C 170.441406 321.9375 172.082031 317.667969 175.175781 314.414062 C 178.269531 311.160156 182.441406 309.300781 186.9375 309.183594 C 187.082031 309.183594 187.230469 309.183594 187.375 309.183594 Z M 187.367188 309.175781 " fill-opacity="1" fill-rule="nonzero"/><path fill="#c62328" d="M 194.851562 173.542969 L 198.320312 165.9375 L 198.035156 165.808594 L 194.574219 173.402344 C 194.671875 173.445312 194.765625 173.496094 194.859375 173.542969 Z M 194.851562 173.542969 " fill-opacity="1" fill-rule="nonzero"/><path fill="#c62328" d="M 180.960938 203.242188 L 176.65625 212.683594 L 176.941406 212.816406 L 181.261719 203.339844 C 181.160156 203.308594 181.054688 203.273438 180.953125 203.242188 Z M 180.960938 203.242188 " fill-opacity="1" fill-rule="nonzero"/><path fill="#c62328" d="M 203.636719 183.441406 L 211.671875 180.445312 L 211.5625 180.144531 L 203.570312 183.128906 C 203.601562 183.230469 203.625 183.332031 203.636719 183.441406 Z M 203.636719 183.441406 " fill-opacity="1" fill-rule="nonzero"/><path fill="#c62328" d="M 172.570312 194.714844 L 163.304688 198.171875 L 163.414062 198.472656 L 172.695312 195.007812 C 172.652344 194.910156 172.609375 194.816406 172.5625 194.714844 Z M 172.570312 194.714844 " fill-opacity="1" fill-rule="nonzero"/><path fill="#c62328" d="M 172.175781 182.273438 C 172.175781 182.273438 172.199219 182.210938 172.214844 182.171875 L 164.113281 178.480469 L 163.984375 178.765625 L 172.125 182.480469 C 172.148438 182.414062 172.164062 182.339844 172.175781 182.273438 Z M 172.175781 182.273438 " fill-opacity="1" fill-rule="nonzero"/><path fill="#c62328" d="M 202.40625 195.941406 C 202.339844 196.027344 202.28125 196.117188 202.207031 196.203125 L 210.855469 200.144531 L 210.984375 199.859375 L 202.40625 195.949219 Z M 202.40625 195.941406 " fill-opacity="1" fill-rule="nonzero"/><path fill="#c62328" d="M 181.472656 172.753906 L 178.628906 165.128906 L 178.328125 165.238281 L 181.179688 172.871094 C 181.277344 172.828125 181.371094 172.78125 181.472656 172.746094 Z M 181.472656 172.753906 " fill-opacity="1" fill-rule="nonzero"/><path fill="#c62328" d="M 192.789062 203.953125 L 196.355469 213.496094 L 196.65625 213.386719 L 193.085938 203.847656 C 192.984375 203.886719 192.890625 203.921875 192.789062 203.957031 Z M 192.789062 203.953125 " fill-opacity="1" fill-rule="nonzero"/><path fill="#c62328" d="M 189.980469 171.8125 C 190.039062 171.828125 190.097656 171.839844 190.160156 171.855469 L 191.316406 163.84375 L 191 163.800781 L 189.855469 171.796875 C 189.898438 171.804688 189.941406 171.8125 189.988281 171.820312 Z M 189.980469 171.8125 " fill-opacity="1" fill-rule="nonzero"/><path fill="#c62328" d="M 185.179688 204.242188 L 183.667969 214.777344 L 183.980469 214.824219 L 185.484375 204.351562 C 185.382812 204.324219 185.28125 204.28125 185.179688 204.242188 Z M 185.179688 204.242188 " fill-opacity="1" fill-rule="nonzero"/><path fill="#c62328" d="M 201.140625 179.289062 L 208.207031 174 L 208.015625 173.746094 L 200.976562 179.015625 C 201.03125 179.101562 201.085938 179.195312 201.140625 179.285156 Z M 201.140625 179.289062 " fill-opacity="1" fill-rule="nonzero"/><path fill="#c62328" d="M 174.730469 198.660156 L 166.777344 204.617188 L 166.96875 204.871094 L 174.921875 198.917969 C 174.855469 198.835938 174.796875 198.75 174.730469 198.660156 Z M 174.730469 198.660156 " fill-opacity="1" fill-rule="nonzero"/><path fill="#c62328" d="M 171.125 186.796875 L 162.015625 185.492188 L 161.96875 185.804688 L 171.121094 187.121094 C 171.121094 187.011719 171.121094 186.90625 171.125 186.796875 Z M 171.125 186.796875 " fill-opacity="1" fill-rule="nonzero"/><path fill="#c62328" d="M 203.726562 191.484375 C 203.71875 191.585938 203.71875 191.695312 203.703125 191.796875 L 212.953125 193.125 L 213 192.808594 L 203.71875 191.476562 Z M 203.726562 191.484375 " fill-opacity="1" fill-rule="nonzero"/><path fill="#c62328" d="M 177.300781 175.4375 L 172.175781 168.59375 L 171.921875 168.785156 L 177.082031 175.679688 C 177.152344 175.597656 177.21875 175.519531 177.292969 175.4375 Z M 177.300781 175.4375 " fill-opacity="1" fill-rule="nonzero"/><path fill="#c62328" d="M 196.734375 201.929688 L 202.796875 210.027344 L 203.054688 209.839844 L 197 201.75 C 196.910156 201.804688 196.832031 201.871094 196.742188 201.929688 Z M 196.734375 201.929688 " fill-opacity="1" fill-rule="nonzero"/><path fill="#c62328" d="M 189.332031 204.726562 L 190.644531 214.875 L 190.957031 214.828125 L 189.644531 204.695312 C 189.542969 204.710938 189.433594 204.710938 189.332031 204.71875 Z M 189.332031 204.726562 " fill-opacity="1" fill-rule="nonzero"/><path fill="#c62328" d="M 185.367188 171.738281 L 184.332031 163.75 L 184.019531 163.792969 L 185.054688 171.789062 C 185.15625 171.777344 185.265625 171.753906 185.367188 171.738281 Z M 185.367188 171.738281 " fill-opacity="1" fill-rule="nonzero"/><path fill="#c62328" d="M 198.128906 175.757812 L 203.332031 169.003906 L 203.082031 168.8125 L 197.894531 175.554688 C 197.976562 175.621094 198.054688 175.695312 198.136719 175.765625 Z M 198.128906 175.757812 " fill-opacity="1" fill-rule="nonzero"/><path fill="#c62328" d="M 177.773438 201.667969 L 171.652344 209.621094 L 171.898438 209.808594 L 178.035156 201.84375 C 177.949219 201.785156 177.859375 201.726562 177.773438 201.667969 Z M 177.773438 201.667969 " fill-opacity="1" fill-rule="nonzero"/><path fill="#c62328" d="M 204.148438 186.84375 L 212.457031 185.878906 L 212.421875 185.566406 L 204.148438 186.519531 C 204.148438 186.628906 204.148438 186.734375 204.148438 186.84375 Z M 204.148438 186.84375 " fill-opacity="1" fill-rule="nonzero"/><path fill="#c62328" d="M 170.761719 190.59375 C 170.761719 190.519531 170.761719 190.453125 170.746094 190.382812 L 161.246094 191.484375 L 161.285156 191.796875 L 170.769531 190.703125 C 170.769531 190.703125 170.769531 190.628906 170.761719 190.601562 Z M 170.761719 190.59375 " fill-opacity="1" fill-rule="nonzero"/><path fill="#c62328" d="M 173.890625 178.640625 L 167.179688 173.46875 L 166.988281 173.714844 L 173.722656 178.902344 C 173.773438 178.808594 173.832031 178.722656 173.890625 178.632812 Z M 173.890625 178.640625 " fill-opacity="1" fill-rule="nonzero"/><path fill="#c62328" d="M 200.144531 198.859375 C 200.078125 198.9375 200.003906 199.019531 199.9375 199.101562 L 207.796875 205.15625 L 207.984375 204.90625 L 200.136719 198.867188 Z M 200.144531 198.859375 " fill-opacity="1" fill-rule="nonzero"/><path fill="#c62328" d="M 187.476562 76.773438 C 175.855469 76.773438 166.253906 67.480469 165.953125 55.789062 C 165.707031 46.3125 171.828125 37.652344 180.835938 34.734375 L 181.0625 35.324219 C 175.042969 37.996094 171.265625 43.972656 171.441406 50.550781 C 171.550781 54.871094 173.335938 58.890625 176.476562 61.867188 C 179.613281 64.84375 183.703125 66.429688 188.03125 66.3125 C 192.351562 66.203125 196.371094 64.414062 199.347656 61.277344 C 202.324219 58.140625 203.902344 54.039062 203.789062 49.71875 C 203.636719 43.753906 200.230469 38.375 194.898438 35.683594 L 195.152344 35.105469 C 203.351562 38.230469 208.796875 45.914062 209.023438 54.6875 C 209.167969 60.4375 207.066406 65.902344 203.105469 70.078125 C 199.144531 74.25 193.796875 76.628906 188.039062 76.773438 C 187.847656 76.773438 187.660156 76.773438 187.476562 76.773438 Z M 176.714844 37.308594 C 170.398438 41.132812 166.390625 48.179688 166.582031 55.777344 C 166.878906 67.296875 176.480469 76.445312 188.023438 76.132812 C 193.605469 75.988281 198.800781 73.679688 202.644531 69.632812 C 206.492188 65.582031 208.535156 60.277344 208.386719 54.695312 C 208.207031 47.765625 204.675781 41.535156 199.070312 37.820312 C 202.332031 40.855469 204.308594 45.109375 204.425781 49.699219 C 204.542969 54.1875 202.902344 58.453125 199.808594 61.707031 C 196.714844 64.960938 192.539062 66.824219 188.046875 66.9375 C 183.566406 67.054688 179.289062 65.414062 176.035156 62.320312 C 172.78125 59.226562 170.921875 55.054688 170.804688 50.566406 C 170.675781 45.378906 172.898438 40.550781 176.714844 37.316406 Z M 176.714844 37.308594 " fill-opacity="1" fill-rule="nonzero"/><path fill="#c62328" d="M 191.949219 350.222656 C 191.949219 350.515625 191.921875 350.804688 191.863281 351.09375 C 191.804688 351.382812 191.722656 351.660156 191.609375 351.929688 C 191.496094 352.203125 191.359375 352.460938 191.195312 352.703125 C 191.035156 352.945312 190.847656 353.171875 190.640625 353.378906 C 190.433594 353.585938 190.207031 353.773438 189.964844 353.933594 C 189.722656 354.097656 189.464844 354.234375 189.191406 354.347656 C 188.921875 354.460938 188.644531 354.542969 188.355469 354.601562 C 188.066406 354.660156 187.777344 354.6875 187.484375 354.6875 C 187.191406 354.6875 186.902344 354.660156 186.613281 354.601562 C 186.324219 354.542969 186.046875 354.460938 185.777344 354.347656 C 185.503906 354.234375 185.246094 354.097656 185.003906 353.933594 C 184.761719 353.773438 184.535156 353.585938 184.328125 353.378906 C 184.121094 353.171875 183.933594 352.945312 183.773438 352.703125 C 183.609375 352.460938 183.472656 352.203125 183.359375 351.929688 C 183.246094 351.660156 183.164062 351.382812 183.105469 351.09375 C 183.046875 350.804688 183.019531 350.515625 183.019531 350.222656 C 183.019531 349.929688 183.046875 349.640625 183.105469 349.351562 C 183.164062 349.0625 183.246094 348.785156 183.359375 348.511719 C 183.472656 348.242188 183.609375 347.984375 183.773438 347.742188 C 183.933594 347.496094 184.121094 347.273438 184.328125 347.066406 C 184.535156 346.859375 184.761719 346.671875 185.003906 346.507812 C 185.246094 346.347656 185.503906 346.210938 185.777344 346.097656 C 186.046875 345.984375 186.324219 345.898438 186.613281 345.84375 C 186.902344 345.785156 187.191406 345.757812 187.484375 345.757812 C 187.777344 345.757812 188.066406 345.785156 188.355469 345.84375 C 188.644531 345.898438 188.921875 345.984375 189.191406 346.097656 C 189.464844 346.210938 189.722656 346.347656 189.964844 346.507812 C 190.207031 346.671875 190.433594 346.859375 190.640625 347.066406 C 190.847656 347.273438 191.035156 347.496094 191.195312 347.742188 C 191.359375 347.984375 191.496094 348.242188 191.609375 348.511719 C 191.722656 348.785156 191.804688 349.0625 191.863281 349.351562 C 191.921875 349.640625 191.949219 349.929688 191.949219 350.222656 Z M 191.949219 350.222656 " fill-opacity="1" fill-rule="nonzero"/><path fill="#c62328" d="M 187.484375 355.007812 C 184.84375 355.007812 182.699219 352.863281 182.699219 350.222656 C 182.699219 347.582031 184.84375 345.4375 187.484375 345.4375 C 190.125 345.4375 192.269531 347.582031 192.269531 350.222656 C 192.269531 352.863281 190.125 355.007812 187.484375 355.007812 Z M 187.484375 346.070312 C 185.195312 346.070312 183.332031 347.929688 183.332031 350.222656 C 183.332031 352.511719 185.195312 354.375 187.484375 354.375 C 189.773438 354.375 191.636719 352.511719 191.636719 350.222656 C 191.636719 347.929688 189.773438 346.070312 187.484375 346.070312 Z M 187.484375 346.070312 " fill-opacity="1" fill-rule="nonzero"/><path fill="#c62328" d="M 191.984375 24.878906 C 191.984375 25.171875 191.957031 25.460938 191.898438 25.75 C 191.84375 26.035156 191.757812 26.316406 191.644531 26.585938 C 191.535156 26.855469 191.394531 27.113281 191.234375 27.359375 C 191.070312 27.601562 190.886719 27.828125 190.679688 28.035156 C 190.472656 28.242188 190.246094 28.425781 190 28.589844 C 189.757812 28.753906 189.5 28.890625 189.230469 29.003906 C 188.957031 29.113281 188.679688 29.199219 188.390625 29.257812 C 188.105469 29.3125 187.8125 29.34375 187.519531 29.34375 C 187.226562 29.34375 186.9375 29.3125 186.648438 29.257812 C 186.363281 29.199219 186.082031 29.113281 185.8125 29.003906 C 185.542969 28.890625 185.285156 28.753906 185.039062 28.589844 C 184.796875 28.425781 184.570312 28.242188 184.363281 28.035156 C 184.15625 27.828125 183.972656 27.601562 183.808594 27.359375 C 183.644531 27.113281 183.507812 26.855469 183.394531 26.585938 C 183.285156 26.316406 183.199219 26.035156 183.140625 25.75 C 183.085938 25.460938 183.054688 25.171875 183.054688 24.878906 C 183.054688 24.585938 183.085938 24.292969 183.140625 24.007812 C 183.199219 23.71875 183.285156 23.441406 183.394531 23.167969 C 183.507812 22.898438 183.644531 22.640625 183.808594 22.398438 C 183.972656 22.152344 184.15625 21.925781 184.363281 21.71875 C 184.570312 21.511719 184.796875 21.328125 185.039062 21.164062 C 185.285156 21.003906 185.542969 20.863281 185.8125 20.753906 C 186.082031 20.640625 186.363281 20.554688 186.648438 20.5 C 186.9375 20.441406 187.226562 20.414062 187.519531 20.414062 C 187.8125 20.414062 188.105469 20.441406 188.390625 20.5 C 188.679688 20.554688 188.957031 20.640625 189.230469 20.753906 C 189.5 20.863281 189.757812 21.003906 190 21.164062 C 190.246094 21.328125 190.472656 21.511719 190.679688 21.71875 C 190.886719 21.925781 191.070312 22.152344 191.234375 22.398438 C 191.394531 22.640625 191.535156 22.898438 191.644531 23.167969 C 191.757812 23.441406 191.84375 23.71875 191.898438 24.007812 C 191.957031 24.292969 191.984375 24.585938 191.984375 24.878906 Z M 191.984375 24.878906 " fill-opacity="1" fill-rule="nonzero"/><path fill="#c62328" d="M 187.519531 29.664062 C 184.878906 29.664062 182.734375 27.519531 182.734375 24.878906 C 182.734375 22.238281 184.878906 20.089844 187.519531 20.089844 C 190.160156 20.089844 192.308594 22.238281 192.308594 24.878906 C 192.308594 27.519531 190.160156 29.664062 187.519531 29.664062 Z M 187.519531 20.726562 C 185.230469 20.726562 183.371094 22.585938 183.371094 24.878906 C 183.371094 27.167969 185.230469 29.027344 187.519531 29.027344 C 189.8125 29.027344 191.671875 27.167969 191.671875 24.878906 C 191.671875 22.585938 189.8125 20.726562 187.519531 20.726562 Z M 187.519531 20.726562 " fill-opacity="1" fill-rule="nonzero"/><g clip-path="url(#106188d048)"><path stroke-linecap="butt" transform="matrix(0.729603, 0, 0, 0.729603, 6.083119, 4.696884)" fill="none" stroke-linejoin="miter" d="M 252.709678 488.01989 C 252.709678 488.560638 252.607953 489.079969 252.39915 489.58324 C 252.190346 490.081156 251.89588 490.520178 251.51575 490.905662 C 251.130267 491.285791 250.691244 491.580258 250.193328 491.789061 C 249.690058 491.997865 249.170726 492.09959 248.629978 492.09959 C 248.089231 492.09959 247.569899 491.997865 247.066629 491.789061 C 246.568713 491.580258 246.12969 491.285791 245.744207 490.905662 C 245.364077 490.520178 245.069611 490.081156 244.860807 489.58324 C 244.652003 489.079969 244.550279 488.560638 244.550279 488.01989 C 244.550279 487.479142 244.652003 486.95981 244.860807 486.45654 C 245.069611 485.958624 245.364077 485.519601 245.744207 485.134118 C 246.12969 484.753989 246.568713 484.459522 247.066629 484.250718 C 247.569899 484.041915 248.089231 483.94019 248.629978 483.94019 C 249.170726 483.94019 249.690058 484.041915 250.193328 484.250718 C 250.691244 484.459522 251.130267 484.753989 251.51575 485.134118 C 251.89588 485.519601 252.190346 485.958624 252.39915 486.45654 C 252.607953 486.95981 252.709678 487.479142 252.709678 488.01989 Z M 252.709678 488.01989 " stroke="#000000" stroke-width="0.75" stroke-opacity="1" stroke-miterlimit="10"/></g><g clip-path="url(#01eaf83bf7)"><path stroke-linecap="butt" transform="matrix(0.729603, 0, 0, 0.729603, 6.083119, 4.696884)" fill="none" stroke-linejoin="miter" d="M 252.720386 13.072159 C 252.720386 13.612907 252.618661 14.132239 252.409858 14.630155 C 252.201054 15.133425 251.906588 15.572448 251.526458 15.952577 C 251.140975 16.338061 250.701952 16.632527 250.198682 16.841331 C 249.700766 17.04478 249.181434 17.151859 248.640686 17.151859 C 248.099939 17.151859 247.580607 17.04478 247.077337 16.841331 C 246.579421 16.632527 246.135044 16.338061 245.754914 15.952577 C 245.374785 15.572448 245.074964 15.133425 244.871515 14.630155 C 244.662711 14.132239 244.560987 13.612907 244.560987 13.072159 C 244.560987 12.531412 244.662711 12.006726 244.871515 11.50881 C 245.074964 11.010893 245.374785 10.566517 245.754914 10.186387 C 246.135044 9.800904 246.579421 9.506437 247.077337 9.302988 C 247.580607 9.094184 248.099939 8.992459 248.640686 8.992459 C 249.181434 8.992459 249.700766 9.094184 250.198682 9.302988 C 250.701952 9.506437 251.140975 9.800904 251.526458 10.186387 C 251.906588 10.566517 252.201054 11.010893 252.409858 11.50881 C 252.618661 12.006726 252.720386 12.531412 252.720386 13.072159 Z M 252.720386 13.072159 " stroke="#000000" stroke-width="0.75" stroke-opacity="1" stroke-miterlimit="10"/></g><path fill="#c62328" d="M 187.476562 204.886719 C 178.246094 204.886719 170.746094 197.378906 170.746094 188.15625 C 170.746094 178.933594 178.253906 171.425781 187.476562 171.425781 C 196.699219 171.425781 204.207031 178.933594 204.207031 188.15625 C 204.207031 197.378906 196.699219 204.886719 187.476562 204.886719 Z M 187.476562 172.148438 C 178.65625 172.148438 171.476562 179.328125 171.476562 188.148438 C 171.476562 196.96875 178.65625 204.148438 187.476562 204.148438 C 196.296875 204.148438 203.476562 196.96875 203.476562 188.148438 C 203.476562 179.328125 196.296875 172.148438 187.476562 172.148438 Z M 187.476562 172.148438 " fill-opacity="1" fill-rule="nonzero"/><path fill="#c62328" d="M 195.203125 202.761719 C 195.203125 202.761719 195.226562 202.792969 195.234375 202.796875 C 195.234375 202.796875 195.238281 202.8125 195.246094 202.820312 C 195.238281 202.8125 195.234375 202.804688 195.246094 202.820312 C 195.269531 202.851562 195.292969 202.871094 195.304688 202.902344 C 195.34375 202.960938 195.386719 203.019531 195.421875 203.074219 C 195.496094 203.191406 195.554688 203.316406 195.613281 203.441406 C 195.648438 203.519531 195.765625 203.542969 195.839844 203.5 C 195.917969 203.449219 195.933594 203.359375 195.898438 203.273438 C 195.78125 203.003906 195.621094 202.753906 195.4375 202.527344 C 195.386719 202.464844 195.261719 202.46875 195.203125 202.527344 C 195.136719 202.601562 195.144531 202.6875 195.203125 202.761719 Z M 195.203125 202.761719 " fill-opacity="1" fill-rule="nonzero"/><path fill="#c62328" d="M 198.699219 200.195312 L 199.339844 200.761719 C 199.40625 200.820312 199.507812 200.828125 199.574219 200.761719 C 199.632812 200.699219 199.640625 200.59375 199.574219 200.53125 L 198.933594 199.960938 C 198.867188 199.902344 198.765625 199.894531 198.699219 199.960938 C 198.640625 200.027344 198.632812 200.128906 198.699219 200.195312 Z M 198.699219 200.195312 " fill-opacity="1" fill-rule="nonzero"/><path fill="#c62328" d="M 170.636719 190.789062 C 170.636719 190.789062 170.652344 190.789062 170.660156 190.78125 L 170.625 190.796875 C 170.695312 190.769531 170.769531 190.746094 170.847656 190.738281 L 170.804688 190.738281 C 170.886719 190.738281 170.957031 190.738281 171.039062 190.738281 L 170.996094 190.738281 C 170.996094 190.738281 171.011719 190.738281 171.011719 190.738281 C 171.054688 190.738281 171.097656 190.746094 171.132812 190.722656 C 171.171875 190.703125 171.199219 190.664062 171.207031 190.628906 C 171.214844 190.585938 171.214844 190.542969 171.191406 190.503906 C 171.171875 190.46875 171.132812 190.433594 171.097656 190.433594 C 171.039062 190.425781 170.988281 190.417969 170.929688 190.417969 C 170.871094 190.417969 170.820312 190.417969 170.761719 190.433594 C 170.660156 190.445312 170.566406 190.476562 170.476562 190.519531 C 170.441406 190.535156 170.410156 190.585938 170.40625 190.613281 C 170.398438 190.652344 170.40625 190.710938 170.417969 190.738281 C 170.433594 190.769531 170.476562 190.804688 170.515625 190.8125 C 170.558594 190.820312 170.601562 190.8125 170.636719 190.796875 Z M 170.636719 190.789062 " fill-opacity="1" fill-rule="nonzero"/><path fill="#c62328" d="M 202.019531 196.078125 L 202.449219 196.296875 C 202.484375 196.320312 202.527344 196.328125 202.574219 196.3125 C 202.609375 196.304688 202.652344 196.277344 202.667969 196.238281 C 202.6875 196.203125 202.695312 196.152344 202.683594 196.117188 C 202.667969 196.078125 202.644531 196.035156 202.609375 196.019531 L 202.179688 195.800781 C 202.140625 195.78125 202.097656 195.773438 202.054688 195.789062 C 202.019531 195.792969 201.972656 195.824219 201.960938 195.859375 C 201.9375 195.898438 201.929688 195.949219 201.945312 195.984375 C 201.960938 196.019531 201.980469 196.066406 202.019531 196.078125 Z M 202.019531 196.078125 " fill-opacity="1" fill-rule="nonzero"/></svg>