<svg xmlns="http://www.w3.org/2000/svg" xmlns:xlink="http://www.w3.org/1999/xlink" width="500" zoomAndPan="magnify" viewBox="0 0 375 374.999991" height="500" preserveAspectRatio="xMidYMid meet" version="1.0"><defs><clipPath id="ba05258cd2"><path d="M 18.898438 63.28125 L 356.128906 63.28125 L 356.128906 337.460938 L 18.898438 337.460938 Z M 18.898438 63.28125 " clip-rule="nonzero"/></clipPath></defs><g clip-path="url(#ba05258cd2)"><path fill="#c62328" d="M 165.542969 197.921875 C 166.609375 197.871094 166.472656 198.160156 165.355469 196.503906 C 165.1875 196.257812 165.4375 196.152344 165.605469 196.269531 C 165.640625 196.289062 165.480469 196.160156 166.730469 197.304688 C 167.035156 197.578125 166.738281 195.558594 167.011719 195.324219 C 167.101562 195.324219 167.269531 195.320312 167.277344 195.625 C 167.277344 195.746094 167.335938 197.449219 167.449219 197.492188 C 167.554688 197.535156 167.484375 197.449219 168.613281 196.496094 C 168.886719 196.265625 169.078125 196.464844 168.8125 196.789062 C 167.753906 198.0625 167.828125 197.949219 167.851562 197.988281 C 167.871094 198.027344 167.734375 197.953125 169.734375 198.128906 C 169.839844 198.128906 169.925781 198.214844 169.925781 198.316406 C 169.925781 198.417969 169.84375 198.503906 169.738281 198.503906 C 167.539062 198.65625 167.582031 198.300781 168.734375 199.707031 C 169.023438 200.0625 168.925781 200.421875 168.535156 200.050781 C 167.617188 199.171875 167.496094 198.953125 167.46875 199.25 C 167.285156 201.097656 167.425781 201.566406 167.140625 201.574219 C 166.816406 201.582031 166.894531 199.207031 166.75 199.144531 C 166.585938 199.078125 165.648438 200.128906 165.429688 199.898438 C 165.175781 199.628906 166.332031 198.765625 166.289062 198.640625 C 166.25 198.523438 164.042969 198.589844 164.074219 198.164062 C 164.085938 197.9375 164.234375 197.988281 165.542969 197.921875 Z M 172.640625 210.542969 C 174.652344 210.449219 174.390625 210.992188 172.285156 207.871094 C 171.96875 207.40625 172.4375 207.207031 172.761719 207.429688 C 172.828125 207.472656 172.523438 207.21875 174.882812 209.375 C 175.449219 209.898438 174.890625 206.097656 175.40625 205.644531 C 175.578125 205.644531 175.894531 205.636719 175.90625 206.21875 C 175.910156 206.445312 176.015625 209.65625 176.234375 209.738281 C 176.429688 209.808594 176.292969 209.648438 178.425781 207.855469 C 178.9375 207.421875 179.296875 207.800781 178.796875 208.410156 C 176.804688 210.804688 176.953125 210.59375 176.988281 210.667969 C 177.023438 210.746094 176.765625 210.605469 180.535156 210.929688 C 180.734375 210.929688 180.894531 211.09375 180.894531 211.285156 C 180.894531 211.484375 180.738281 211.640625 180.542969 211.644531 C 176.398438 211.921875 176.484375 211.253906 178.644531 213.902344 C 179.195312 214.578125 179.011719 215.253906 178.28125 214.550781 C 176.546875 212.894531 176.320312 212.484375 176.265625 213.042969 C 175.921875 216.523438 176.1875 217.40625 175.652344 217.425781 C 175.039062 217.441406 175.191406 212.960938 174.910156 212.847656 C 174.609375 212.722656 172.839844 214.703125 172.425781 214.265625 C 171.953125 213.761719 174.125 212.128906 174.046875 211.898438 C 173.972656 211.671875 169.808594 211.800781 169.867188 211 C 169.898438 210.574219 170.175781 210.667969 172.640625 210.542969 Z M 180.511719 193.644531 C 183.636719 193.488281 183.226562 194.332031 179.960938 189.496094 C 179.46875 188.765625 180.203125 188.460938 180.699219 188.800781 C 180.859375 188.914062 184.101562 192.011719 184.226562 191.984375 C 184.53125 191.921875 184.214844 186.554688 184.804688 186.039062 C 184.894531 186.039062 185.558594 185.914062 185.578125 186.925781 C 185.585938 187.273438 185.75 192.261719 186.089844 192.386719 C 186.472656 192.535156 189.570312 188.742188 190.269531 189.222656 C 191.242188 189.890625 187.042969 193.398438 187.257812 193.832031 C 187.316406 193.949219 186.910156 193.734375 192.765625 194.242188 C 193.070312 194.242188 193.316406 194.484375 193.320312 194.789062 C 193.320312 195.09375 193.078125 195.339844 192.777344 195.34375 C 191.652344 195.421875 193.859375 195.265625 187.714844 195.667969 C 186.554688 195.742188 191.140625 199.425781 190.226562 200.242188 C 189.71875 200.691406 189.125 199.53125 186.652344 197.339844 C 186.042969 196.800781 186.101562 196.976562 185.777344 202.941406 C 185.738281 203.515625 185.707031 204.296875 185.179688 204.3125 C 184.667969 204.332031 184.628906 203.078125 184.453125 201.246094 C 183.972656 196.179688 185.078125 196.304688 181.089844 199.257812 C 180.800781 199.472656 180.460938 199.710938 180.179688 199.414062 C 179.734375 198.941406 180.316406 198.457031 180.6875 198.050781 C 183.691406 194.738281 183.667969 196.007812 178.421875 195.25 C 177.300781 195.082031 176.15625 195.078125 176.210938 194.351562 C 176.261719 193.6875 176.667969 193.832031 180.511719 193.644531 Z M 193.277344 212.703125 C 192.222656 213.976562 192.300781 213.863281 192.320312 213.898438 C 192.339844 213.941406 192.199219 213.867188 194.207031 214.042969 C 194.308594 214.042969 194.390625 214.125 194.390625 214.230469 C 194.390625 214.332031 194.308594 214.417969 194.207031 214.417969 C 192.007812 214.570312 192.050781 214.214844 193.199219 215.617188 C 193.492188 215.976562 193.394531 216.335938 193.007812 215.960938 C 192.085938 215.082031 191.964844 214.867188 191.9375 215.164062 C 191.757812 217.011719 191.894531 217.480469 191.609375 217.488281 C 191.285156 217.5 191.363281 215.121094 191.214844 215.058594 C 191.054688 214.992188 190.121094 216.046875 189.898438 215.808594 C 189.648438 215.542969 190.800781 214.679688 190.761719 214.554688 C 190.71875 214.433594 188.511719 214.503906 188.539062 214.078125 C 188.558594 213.851562 188.707031 213.898438 190.011719 213.839844 C 191.078125 213.785156 190.941406 214.074219 189.824219 212.421875 C 189.65625 212.171875 189.90625 212.0625 190.078125 212.179688 C 190.113281 212.207031 189.949219 212.070312 191.203125 213.214844 C 191.507812 213.496094 191.207031 211.476562 191.480469 211.234375 C 191.574219 211.234375 191.738281 211.234375 191.746094 211.539062 C 191.75 211.660156 191.808594 213.367188 191.921875 213.410156 C 192.023438 213.445312 191.949219 213.359375 193.082031 212.40625 C 193.355469 212.175781 193.546875 212.382812 193.277344 212.703125 Z M 200.46875 188.457031 C 202.480469 188.359375 202.21875 188.90625 200.113281 185.785156 C 199.796875 185.320312 200.265625 185.117188 200.589844 185.339844 C 200.65625 185.386719 200.347656 185.128906 202.707031 187.289062 C 203.277344 187.808594 202.714844 184.011719 203.234375 183.558594 C 203.410156 183.558594 203.722656 183.550781 203.734375 184.132812 C 203.734375 184.359375 203.847656 187.570312 204.0625 187.648438 C 204.257812 187.71875 204.121094 187.558594 206.253906 185.765625 C 206.765625 185.335938 207.128906 185.710938 206.621094 186.320312 C 204.632812 188.71875 204.777344 188.507812 204.8125 188.582031 C 204.851562 188.660156 204.59375 188.515625 208.363281 188.84375 C 208.558594 188.839844 208.722656 189.003906 208.722656 189.199219 C 208.722656 189.394531 208.566406 189.554688 208.371094 189.554688 C 204.226562 189.832031 204.308594 189.167969 206.472656 191.8125 C 207.023438 192.492188 206.835938 193.164062 206.105469 192.460938 C 204.378906 190.804688 204.148438 190.398438 204.09375 190.957031 C 203.75 194.4375 204.011719 195.320312 203.476562 195.335938 C 202.867188 195.351562 203.011719 190.875 202.738281 190.761719 C 202.433594 190.632812 200.667969 192.617188 200.253906 192.179688 C 199.777344 191.675781 201.953125 190.046875 201.875 189.8125 C 201.796875 189.585938 197.636719 189.714844 197.695312 188.914062 C 197.726562 188.488281 198.003906 188.582031 200.46875 188.457031 Z M 205.949219 204.375 C 203.75 204.519531 203.792969 204.167969 204.941406 205.570312 C 205.234375 205.929688 205.136719 206.285156 204.746094 205.917969 C 203.828125 205.035156 203.707031 204.820312 203.679688 205.113281 C 203.496094 206.964844 203.636719 207.433594 203.347656 207.4375 C 203.027344 207.449219 203.105469 205.070312 202.960938 205.011719 C 202.796875 204.945312 201.859375 205.996094 201.640625 205.761719 C 201.386719 205.496094 202.542969 204.632812 202.5 204.507812 C 202.460938 204.386719 200.25 204.457031 200.285156 204.035156 C 200.296875 203.804688 200.445312 203.855469 201.753906 203.789062 C 202.820312 203.734375 202.683594 204.027344 201.566406 202.371094 C 201.398438 202.125 201.644531 202.015625 201.816406 202.136719 C 201.855469 202.160156 201.691406 202.019531 202.941406 203.171875 C 203.246094 203.445312 202.949219 201.429688 203.21875 201.191406 C 203.3125 201.191406 203.480469 201.1875 203.488281 201.496094 C 203.488281 201.613281 203.546875 203.316406 203.660156 203.359375 C 203.765625 203.398438 203.691406 203.3125 204.824219 202.359375 C 205.097656 202.132812 205.285156 202.332031 205.023438 202.65625 C 203.964844 203.929688 204.039062 203.816406 204.0625 203.855469 C 204.078125 203.894531 203.945312 203.820312 205.945312 203.992188 C 206.050781 203.992188 206.136719 204.078125 206.132812 204.1875 C 206.132812 204.289062 206.050781 204.371094 205.949219 204.375 Z M 163.480469 203.296875 C 163.289062 203.8125 163.652344 204.195312 163.832031 204.917969 C 164.019531 205.773438 164.308594 206.597656 164.695312 207.386719 C 164.859375 208.710938 165.199219 209.472656 167.207031 212.085938 C 168.148438 214.324219 168.808594 217.160156 176.527344 220.605469 C 177.300781 220.902344 180.246094 223.070312 183.632812 223.308594 C 197.488281 224.28125 196.078125 221.765625 201.335938 220.789062 C 201.800781 220.683594 202.949219 219.765625 203.417969 219.296875 C 203.539062 219.1875 203.652344 219.078125 203.769531 218.976562 C 203.496094 218.773438 199.550781 218.878906 199.605469 218.09375 C 199.636719 217.671875 199.914062 217.761719 202.378906 217.640625 C 204.386719 217.542969 204.128906 218.085938 202.019531 214.96875 C 201.707031 214.5 202.175781 214.300781 202.496094 214.523438 C 202.566406 214.570312 202.261719 214.3125 204.617188 216.472656 C 205.1875 216.996094 204.625 213.191406 205.144531 212.742188 C 205.320312 212.742188 205.628906 212.734375 205.640625 213.3125 C 205.648438 213.542969 205.757812 216.75 205.972656 216.832031 C 206.167969 216.910156 206.027344 216.742188 208.164062 214.949219 C 208.167969 214.945312 208.175781 214.941406 208.183594 214.933594 C 208.820312 213.875 209.523438 212.9375 209.714844 211.746094 C 209.796875 211.105469 210.261719 211.367188 210.886719 209.960938 C 211.058594 209.542969 211.589844 209.105469 211.382812 208.683594 C 211.476562 208.460938 213.390625 202.175781 213.449219 201.984375 C 214.363281 198.960938 212.183594 189.691406 209.957031 185.484375 C 209.925781 185.394531 209.824219 185.351562 209.734375 185.382812 C 209.726562 185.386719 209.71875 185.394531 209.710938 185.394531 C 209.65625 184.476562 208.03125 182.324219 207.285156 182.003906 C 207.210938 182.109375 207.265625 182.082031 207.203125 182.023438 C 205.796875 180.667969 205.984375 181.007812 205.820312 180.75 C 204.941406 179.414062 203.898438 178.246094 202.378906 177.574219 C 199.6875 176.300781 196.890625 175.242188 194.03125 174.421875 C 192.011719 174.542969 192.082031 174.246094 193.199219 175.613281 C 193.492188 175.96875 193.394531 176.328125 193.007812 175.957031 C 192.085938 175.074219 191.964844 174.859375 191.9375 175.152344 C 191.757812 177.003906 191.894531 177.472656 191.609375 177.480469 C 191.285156 177.488281 191.363281 175.113281 191.214844 175.050781 C 191.054688 174.984375 190.121094 176.035156 189.898438 175.800781 C 189.648438 175.535156 190.800781 174.671875 190.761719 174.546875 C 190.71875 174.425781 188.511719 174.496094 188.539062 174.074219 C 188.558594 173.84375 188.707031 173.894531 190.011719 173.828125 C 190.597656 173.800781 190.820312 173.875 190.714844 173.671875 C 189.160156 173.382812 187.574219 173.300781 185.996094 173.441406 C 183.339844 173.769531 182.078125 174.578125 181.835938 174.480469 C 180.917969 174.113281 178.074219 175.8125 177.222656 176.320312 C 176.582031 176.722656 175.753906 176.667969 175.144531 177.175781 C 174.777344 177.472656 174.433594 177.71875 174.109375 177.9375 C 174.113281 177.941406 174.117188 177.945312 174.117188 177.949219 C 174.15625 178.023438 173.898438 177.882812 177.667969 178.210938 C 177.863281 178.210938 178.023438 178.371094 178.023438 178.566406 C 178.023438 178.761719 177.867188 178.921875 177.675781 178.921875 C 173.53125 179.199219 173.609375 178.535156 175.777344 181.183594 C 176.328125 181.859375 176.140625 182.53125 175.40625 181.832031 C 173.679688 180.171875 173.453125 179.765625 173.394531 180.324219 C 173.054688 183.804688 173.316406 184.6875 172.78125 184.703125 C 172.167969 184.722656 172.316406 180.242188 172.042969 180.128906 C 171.75 180.007812 170.113281 181.828125 169.613281 181.585938 C 169.265625 182.152344 168.957031 182.746094 168.691406 183.359375 C 168.425781 183.460938 168.273438 183.664062 167.976562 183.996094 C 167.484375 184.410156 167.160156 184.503906 166.824219 185.210938 C 166.5 185.617188 165.585938 185.695312 165.574219 187.351562 C 161.917969 192.960938 162.921875 197.027344 162.84375 199.363281 C 162.476562 200.40625 163.332031 201.671875 163.480469 203.296875 Z M 94.257812 151.039062 C 94.328125 150.085938 94.921875 150.292969 100.476562 150.019531 C 104.992188 149.796875 104.398438 151.019531 99.679688 144.023438 C 98.96875 142.976562 100.03125 142.535156 100.75 143.027344 C 100.976562 143.183594 105.664062 147.660156 105.84375 147.625 C 106.285156 147.53125 105.832031 139.773438 106.679688 139.03125 C 106.808594 139.03125 107.773438 138.847656 107.800781 140.316406 C 107.8125 140.816406 108.050781 148.027344 108.539062 148.207031 C 109.09375 148.414062 113.570312 142.9375 114.574219 143.632812 C 115.984375 144.597656 109.921875 149.664062 110.226562 150.292969 C 110.3125 150.46875 109.726562 150.152344 118.191406 150.886719 C 118.625 150.886719 118.980469 151.238281 118.988281 151.675781 C 118.996094 152.117188 118.644531 152.472656 118.199219 152.484375 C 116.578125 152.589844 119.769531 152.371094 110.882812 152.949219 C 109.207031 153.058594 115.835938 158.378906 114.519531 159.554688 C 113.785156 160.210938 112.925781 158.535156 109.355469 155.367188 C 108.472656 154.585938 108.554688 154.835938 108.082031 163.460938 C 108.03125 164.289062 107.988281 165.421875 107.226562 165.445312 C 106.480469 165.46875 106.429688 163.65625 106.179688 161.015625 C 105.476562 153.6875 107.078125 153.871094 101.316406 158.136719 C 100.890625 158.445312 100.402344 158.792969 99.996094 158.359375 C 99.351562 157.675781 100.191406 156.980469 100.730469 156.386719 C 105.074219 151.601562 105.035156 153.441406 97.453125 152.339844 C 95.839844 152.105469 94.183594 152.09375 94.257812 151.039062 Z M 67.433594 250.507812 C 67.4375 250.949219 67.089844 251.308594 66.648438 251.316406 C 65.023438 251.425781 68.210938 251.207031 59.332031 251.78125 C 57.65625 251.894531 64.285156 257.210938 62.964844 258.390625 C 62.230469 259.042969 61.367188 257.371094 57.796875 254.199219 C 56.921875 253.417969 57 253.675781 56.527344 262.292969 C 56.480469 263.121094 56.433594 264.257812 55.671875 264.28125 C 54.925781 264.304688 54.871094 262.496094 54.621094 259.847656 C 53.921875 252.519531 55.519531 252.703125 49.761719 256.96875 C 49.339844 257.285156 48.847656 257.628906 48.441406 257.199219 C 47.796875 256.515625 48.636719 255.816406 49.179688 255.222656 C 53.519531 250.433594 53.484375 252.273438 45.898438 251.175781 C 44.285156 250.941406 42.632812 250.925781 42.707031 249.875 C 42.773438 248.917969 43.367188 249.125 48.921875 248.851562 C 53.4375 248.636719 52.84375 249.851562 48.125 242.863281 C 47.414062 241.808594 48.476562 241.367188 49.191406 241.859375 C 49.421875 242.015625 54.105469 246.496094 54.289062 246.457031 C 54.730469 246.367188 54.273438 238.605469 55.125 237.867188 C 55.253906 237.867188 56.21875 237.683594 56.246094 239.148438 C 56.253906 239.648438 56.5 246.859375 56.984375 247.046875 C 57.539062 247.25 62.015625 241.773438 63.023438 242.464844 C 64.425781 243.429688 58.363281 248.5 58.671875 249.125 C 58.753906 249.300781 58.171875 248.984375 66.636719 249.71875 C 67.070312 249.71875 67.429688 250.070312 67.433594 250.507812 Z M 34.835938 231.675781 C 34.839844 231.957031 34.613281 232.191406 34.328125 232.195312 C 28.339844 232.601562 28.457031 231.632812 31.585938 235.464844 C 32.382812 236.4375 32.109375 237.410156 31.054688 236.402344 C 28.554688 234.003906 28.222656 233.414062 28.144531 234.21875 C 27.652344 239.253906 28.03125 240.527344 27.253906 240.550781 C 26.367188 240.578125 26.585938 234.101562 26.1875 233.9375 C 25.75 233.753906 23.191406 236.621094 22.59375 235.984375 C 21.910156 235.253906 25.050781 232.902344 24.941406 232.566406 C 24.832031 232.238281 18.816406 232.425781 18.898438 231.265625 C 18.941406 230.652344 19.347656 230.78125 22.90625 230.609375 C 25.808594 230.46875 25.4375 231.253906 22.394531 226.75 C 21.933594 226.078125 22.613281 225.78125 23.082031 226.101562 C 23.179688 226.167969 22.738281 225.796875 26.144531 228.921875 C 26.964844 229.671875 26.15625 224.179688 26.902344 223.527344 C 27.15625 223.527344 27.609375 223.519531 27.625 224.355469 C 27.628906 224.683594 27.785156 229.324219 28.097656 229.441406 C 28.382812 229.546875 28.183594 229.3125 31.265625 226.722656 C 32.007812 226.097656 32.527344 226.640625 31.800781 227.523438 C 28.921875 230.988281 29.136719 230.683594 29.1875 230.785156 C 29.242188 230.898438 28.863281 230.691406 34.320312 231.167969 C 34.601562 231.167969 34.828125 231.394531 34.835938 231.675781 Z M 311.1875 150.554688 C 311.253906 149.597656 311.847656 149.804688 317.402344 149.535156 C 321.917969 149.3125 321.324219 150.53125 316.605469 143.539062 C 315.890625 142.484375 316.960938 142.046875 317.671875 142.539062 C 317.90625 142.695312 322.585938 147.175781 322.769531 147.136719 C 323.207031 147.042969 322.753906 139.289062 323.605469 138.546875 C 323.734375 138.546875 324.699219 138.359375 324.726562 139.828125 C 324.738281 140.328125 324.976562 147.539062 325.464844 147.726562 C 326.019531 147.929688 330.496094 142.449219 331.507812 143.144531 C 332.910156 144.109375 326.847656 149.175781 327.152344 149.804688 C 327.234375 149.980469 326.648438 149.664062 335.117188 150.398438 C 335.554688 150.398438 335.90625 150.75 335.914062 151.1875 C 335.921875 151.628906 335.566406 151.988281 335.128906 151.996094 C 333.5 152.105469 336.695312 151.882812 327.808594 152.460938 C 326.132812 152.570312 332.761719 157.890625 331.441406 159.066406 C 330.710938 159.722656 329.847656 158.050781 326.277344 154.878906 C 325.398438 154.097656 325.480469 154.355469 325.007812 162.972656 C 324.960938 163.804688 324.914062 164.9375 324.148438 164.957031 C 323.410156 164.984375 323.351562 163.171875 323.101562 160.527344 C 322.402344 153.199219 324 153.382812 318.242188 157.648438 C 317.820312 157.964844 317.328125 158.308594 316.917969 157.878906 C 316.273438 157.195312 317.117188 156.496094 317.65625 155.902344 C 322 151.113281 321.960938 152.953125 314.375 151.855469 C 312.765625 151.621094 311.109375 151.605469 311.1875 150.554688 Z M 306.539062 266.773438 C 306.546875 267.21875 306.195312 267.578125 305.757812 267.582031 C 304.128906 267.691406 307.320312 267.472656 298.4375 268.050781 C 296.761719 268.160156 303.390625 273.480469 302.070312 274.65625 C 301.335938 275.3125 300.476562 273.636719 296.90625 270.464844 C 296.027344 269.6875 296.109375 269.941406 295.632812 278.558594 C 295.589844 279.390625 295.539062 280.523438 294.777344 280.546875 C 294.035156 280.570312 293.980469 278.761719 293.730469 276.113281 C 293.027344 268.785156 294.628906 268.96875 288.867188 273.234375 C 288.445312 273.550781 287.953125 273.894531 287.550781 273.464844 C 286.902344 272.78125 287.742188 272.082031 288.285156 271.492188 C 292.625 266.699219 292.589844 268.539062 285.007812 267.445312 C 283.390625 267.207031 281.738281 267.191406 281.8125 266.140625 C 281.878906 265.183594 282.476562 265.390625 288.03125 265.121094 C 292.546875 264.902344 291.949219 266.121094 287.230469 259.128906 C 286.519531 258.074219 287.585938 257.636719 288.296875 258.125 C 288.53125 258.28125 293.210938 262.761719 293.398438 262.722656 C 293.835938 262.632812 293.382812 254.875 294.230469 254.132812 C 294.359375 254.132812 295.324219 253.949219 295.351562 255.414062 C 295.363281 255.914062 295.605469 263.128906 296.089844 263.3125 C 296.644531 263.515625 301.125 258.039062 302.132812 258.734375 C 303.53125 259.699219 297.472656 264.765625 297.777344 265.394531 C 297.859375 265.566406 297.28125 265.253906 305.742188 265.988281 C 306.179688 265.988281 306.539062 266.335938 306.539062 266.773438 Z M 42.886719 149.207031 C 42.929688 148.589844 43.328125 148.722656 46.894531 148.550781 C 49.796875 148.410156 49.421875 149.195312 46.378906 144.6875 C 45.921875 144.015625 46.597656 143.722656 47.066406 144.042969 C 47.164062 144.109375 46.722656 143.738281 50.128906 146.863281 C 50.953125 147.613281 50.140625 142.121094 50.890625 141.46875 C 51.140625 141.46875 51.59375 141.460938 51.609375 142.296875 C 51.617188 142.621094 51.773438 147.265625 52.085938 147.382812 C 52.367188 147.488281 52.167969 147.253906 55.25 144.660156 C 55.996094 144.035156 56.515625 144.582031 55.785156 145.460938 C 52.910156 148.929688 53.125 148.625 53.175781 148.722656 C 53.226562 148.839844 52.851562 148.632812 58.308594 149.105469 C 58.585938 149.105469 58.816406 149.335938 58.820312 149.617188 C 58.824219 149.898438 58.597656 150.132812 58.3125 150.136719 C 52.324219 150.539062 52.445312 149.578125 55.570312 153.40625 C 56.371094 154.378906 56.097656 155.351562 55.039062 154.339844 C 52.539062 151.945312 52.210938 151.355469 52.132812 152.160156 C 51.636719 157.195312 52.019531 158.46875 51.242188 158.488281 C 50.355469 158.519531 50.570312 152.042969 50.171875 151.878906 C 49.734375 151.695312 47.179688 154.5625 46.582031 153.925781 C 45.898438 153.195312 49.039062 150.84375 48.925781 150.507812 C 48.820312 150.179688 42.804688 150.367188 42.886719 149.207031 Z M 95.328125 98.988281 C 95.375 98.375 95.773438 98.507812 99.335938 98.332031 C 102.242188 98.1875 101.867188 98.976562 98.820312 94.472656 C 98.363281 93.796875 99.042969 93.503906 99.507812 93.824219 C 99.605469 93.894531 99.164062 93.523438 102.570312 96.644531 C 103.394531 97.398438 102.585938 91.902344 103.332031 91.25 C 103.585938 91.25 104.035156 91.242188 104.054688 92.078125 C 104.0625 92.40625 104.214844 97.046875 104.53125 97.164062 C 104.8125 97.269531 104.613281 97.035156 107.695312 94.441406 C 108.4375 93.820312 108.957031 94.363281 108.230469 95.246094 C 105.355469 98.710938 105.566406 98.402344 105.617188 98.507812 C 105.667969 98.621094 105.292969 98.417969 110.75 98.890625 C 111.03125 98.890625 111.261719 99.117188 111.261719 99.394531 C 111.265625 99.679688 111.042969 99.914062 110.757812 99.917969 C 104.769531 100.324219 104.886719 99.359375 108.015625 103.183594 C 108.808594 104.160156 108.542969 105.136719 107.484375 104.121094 C 104.984375 101.726562 104.65625 101.140625 104.578125 101.945312 C 104.078125 106.976562 104.457031 108.25 103.683594 108.273438 C 102.800781 108.296875 103.015625 101.828125 102.613281 101.660156 C 102.175781 101.476562 99.625 104.34375 99.027344 103.707031 C 98.339844 102.980469 101.484375 100.628906 101.367188 100.285156 C 101.261719 99.960938 95.246094 100.152344 95.328125 98.988281 Z M 293.425781 307.84375 C 293.425781 308.128906 293.199219 308.359375 292.917969 308.363281 C 286.929688 308.769531 287.042969 307.800781 290.175781 311.628906 C 290.96875 312.605469 290.699219 313.578125 289.644531 312.566406 C 287.144531 310.167969 286.816406 309.582031 286.734375 310.386719 C 286.238281 315.421875 286.617188 316.695312 285.839844 316.71875 C 284.957031 316.746094 285.175781 310.269531 284.773438 310.105469 C 284.335938 309.921875 281.78125 312.785156 281.183594 312.152344 C 280.496094 311.421875 283.636719 309.070312 283.527344 308.734375 C 283.421875 308.402344 277.402344 308.59375 277.484375 307.433594 C 277.53125 306.816406 277.929688 306.953125 281.492188 306.777344 C 284.398438 306.632812 284.023438 307.421875 280.976562 302.914062 C 280.523438 302.242188 281.203125 301.949219 281.664062 302.269531 C 281.765625 302.335938 281.320312 301.964844 284.730469 305.085938 C 285.554688 305.839844 284.746094 300.34375 285.488281 299.695312 C 285.746094 299.695312 286.195312 299.6875 286.214844 300.523438 C 286.21875 300.851562 286.375 305.492188 286.691406 305.609375 C 286.96875 305.714844 286.773438 305.480469 289.851562 302.886719 C 290.597656 302.261719 291.117188 302.808594 290.390625 303.691406 C 287.511719 307.152344 287.726562 306.847656 287.773438 306.953125 C 287.828125 307.0625 287.453125 306.859375 292.90625 307.335938 C 293.191406 307.332031 293.421875 307.5625 293.425781 307.84375 Z M 356.132812 167.796875 C 356.136719 168.082031 355.914062 168.3125 355.625 168.320312 C 349.636719 168.726562 349.757812 167.757812 352.882812 171.585938 C 353.683594 172.5625 353.410156 173.535156 352.355469 172.523438 C 349.851562 170.125 349.523438 169.539062 349.445312 170.34375 C 348.949219 175.378906 349.332031 176.652344 348.554688 176.675781 C 347.667969 176.699219 347.886719 170.226562 347.484375 170.0625 C 347.050781 169.878906 344.492188 172.742188 343.894531 172.109375 C 343.207031 171.378906 346.351562 169.027344 346.238281 168.691406 C 346.132812 168.359375 340.113281 168.550781 340.199219 167.390625 C 340.242188 166.773438 340.640625 166.910156 344.207031 166.734375 C 347.109375 166.589844 346.738281 167.378906 343.691406 162.875 C 343.234375 162.199219 343.910156 161.90625 344.378906 162.226562 C 344.476562 162.292969 344.035156 161.925781 347.441406 165.042969 C 348.265625 165.796875 347.453125 160.300781 348.203125 159.652344 C 348.457031 159.652344 348.90625 159.644531 348.925781 160.480469 C 348.929688 160.808594 349.085938 165.449219 349.398438 165.566406 C 349.679688 165.675781 349.480469 165.4375 352.5625 162.84375 C 353.308594 162.21875 353.828125 162.765625 353.097656 163.648438 C 350.226562 167.109375 350.4375 166.804688 350.488281 166.910156 C 350.539062 167.019531 350.164062 166.816406 355.617188 167.292969 C 355.898438 167.292969 356.128906 167.519531 356.132812 167.796875 Z M 164.414062 231.25 C 166.015625 231.171875 165.804688 231.605469 164.128906 229.117188 C 163.875 228.746094 164.25 228.582031 164.507812 228.761719 C 164.558594 228.796875 164.316406 228.59375 166.195312 230.316406 C 166.652344 230.730469 166.207031 227.699219 166.617188 227.339844 C 166.753906 227.339844 167.011719 227.335938 167.015625 227.796875 C 167.019531 227.976562 167.105469 230.542969 167.277344 230.605469 C 167.4375 230.664062 167.324219 230.535156 169.03125 229.101562 C 169.4375 228.753906 169.722656 229.058594 169.324219 229.546875 C 167.734375 231.460938 167.851562 231.289062 167.878906 231.347656 C 167.910156 231.410156 167.699219 231.296875 170.714844 231.558594 C 170.871094 231.558594 170.996094 231.683594 171 231.839844 C 171 231.996094 170.875 232.125 170.71875 232.125 C 167.410156 232.347656 167.476562 231.816406 169.203125 233.929688 C 169.644531 234.46875 169.496094 235.007812 168.910156 234.445312 C 167.527344 233.125 167.351562 232.796875 167.304688 233.246094 C 167.03125 236.023438 167.242188 236.726562 166.8125 236.738281 C 166.324219 236.753906 166.445312 233.179688 166.222656 233.089844 C 165.980469 232.988281 164.570312 234.566406 164.238281 234.214844 C 163.863281 233.816406 165.59375 232.515625 165.535156 232.328125 C 165.472656 232.148438 162.152344 232.253906 162.199219 231.613281 C 162.222656 231.273438 162.445312 231.347656 164.414062 231.25 Z M 216.734375 175.554688 C 216.480469 175.183594 216.859375 175.019531 217.113281 175.195312 C 217.167969 175.234375 216.921875 175.03125 218.804688 176.753906 C 219.261719 177.171875 218.8125 174.136719 219.226562 173.777344 C 219.363281 173.777344 219.617188 173.773438 219.621094 174.234375 C 219.625 174.417969 219.710938 176.980469 219.886719 177.042969 C 220.042969 177.101562 219.929688 176.972656 221.636719 175.539062 C 222.042969 175.191406 222.332031 175.496094 221.929688 175.984375 C 220.34375 177.898438 220.460938 177.726562 220.484375 177.785156 C 220.515625 177.847656 220.308594 177.734375 223.324219 177.992188 C 223.476562 177.992188 223.601562 178.121094 223.605469 178.277344 C 223.605469 178.433594 223.480469 178.558594 223.324219 178.5625 C 220.015625 178.785156 220.082031 178.25 221.8125 180.367188 C 222.25 180.90625 222.101562 181.441406 221.515625 180.882812 C 220.136719 179.558594 219.957031 179.238281 219.914062 179.679688 C 219.636719 182.460938 219.847656 183.164062 219.417969 183.175781 C 218.929688 183.191406 219.050781 179.617188 218.828125 179.523438 C 218.585938 179.421875 217.175781 181.003906 216.847656 180.65625 C 216.46875 180.253906 218.203125 178.953125 218.140625 178.765625 C 218.082031 178.589844 214.757812 178.691406 214.804688 178.050781 C 214.832031 177.710938 215.054688 177.785156 217.019531 177.6875 C 218.625 177.605469 218.414062 178.042969 216.734375 175.554688 Z M 228.230469 215.015625 C 228.484375 215.015625 228.933594 215.007812 228.953125 215.84375 C 228.960938 216.171875 229.113281 220.8125 229.429688 220.929688 C 229.707031 221.039062 229.511719 220.804688 232.59375 218.207031 C 233.335938 217.585938 233.855469 218.132812 233.128906 219.011719 C 230.253906 222.476562 230.464844 222.167969 230.511719 222.277344 C 230.566406 222.386719 230.195312 222.183594 235.644531 222.65625 C 235.929688 222.65625 236.15625 222.882812 236.160156 223.164062 C 236.164062 223.449219 235.9375 223.679688 235.65625 223.683594 C 229.667969 224.089844 229.78125 223.125 232.914062 226.953125 C 233.707031 227.929688 233.441406 228.902344 232.382812 227.886719 C 229.882812 225.492188 229.554688 224.90625 229.472656 225.710938 C 228.976562 230.742188 229.355469 232.019531 228.582031 232.039062 C 227.695312 232.0625 227.914062 225.59375 227.511719 225.425781 C 227.074219 225.242188 224.519531 228.109375 223.925781 227.476562 C 223.238281 226.746094 226.378906 224.394531 226.265625 224.054688 C 226.160156 223.726562 220.140625 223.917969 220.222656 222.757812 C 220.269531 222.140625 220.671875 222.273438 224.230469 222.097656 C 227.140625 221.953125 226.765625 222.746094 223.714844 218.238281 C 223.261719 217.5625 223.9375 217.269531 224.402344 217.59375 C 224.503906 217.660156 224.058594 217.289062 227.46875 220.410156 C 228.292969 221.164062 227.484375 215.667969 228.230469 215.015625 Z M 141.835938 173.1875 C 141.382812 172.511719 142.054688 172.21875 142.519531 172.539062 C 142.621094 172.609375 142.179688 172.234375 145.585938 175.359375 C 146.410156 176.109375 145.597656 170.617188 146.347656 169.964844 C 146.597656 169.964844 147.050781 169.957031 147.070312 170.792969 C 147.078125 171.121094 147.230469 175.761719 147.542969 175.882812 C 147.828125 175.984375 147.628906 175.753906 150.710938 173.160156 C 151.453125 172.53125 151.972656 173.082031 151.246094 173.960938 C 148.371094 177.425781 148.582031 177.117188 148.628906 177.222656 C 148.683594 177.335938 148.308594 177.128906 153.761719 177.605469 C 154.046875 177.605469 154.273438 177.828125 154.277344 178.113281 C 154.28125 178.394531 154.054688 178.632812 153.769531 178.636719 C 147.78125 179.039062 147.898438 178.074219 151.027344 181.902344 C 151.824219 182.875 151.554688 183.847656 150.496094 182.835938 C 147.996094 180.441406 147.667969 179.851562 147.589844 180.660156 C 147.09375 185.695312 147.472656 186.964844 146.695312 186.988281 C 145.8125 187.015625 146.03125 180.539062 145.628906 180.375 C 145.191406 180.191406 142.640625 183.058594 142.039062 182.425781 C 141.351562 181.691406 144.496094 179.339844 144.382812 179.003906 C 144.277344 178.675781 138.257812 178.863281 138.339844 177.703125 C 138.382812 177.085938 138.789062 177.222656 142.347656 177.046875 C 145.253906 176.90625 144.878906 177.691406 141.835938 173.1875 Z M 345.867188 257.625 C 345.871094 257.90625 345.644531 258.140625 345.359375 258.148438 C 339.371094 258.546875 339.488281 257.585938 342.617188 261.414062 C 343.414062 262.386719 343.140625 263.363281 342.085938 262.347656 C 339.585938 259.953125 339.257812 259.363281 339.175781 260.171875 C 338.683594 265.207031 339.0625 266.476562 338.285156 266.5 C 337.402344 266.527344 337.621094 260.050781 337.21875 259.882812 C 336.777344 259.703125 334.222656 262.570312 333.625 261.9375 C 332.9375 261.207031 336.082031 258.851562 335.972656 258.515625 C 335.863281 258.1875 329.84375 258.375 329.929688 257.214844 C 329.972656 256.601562 330.375 256.734375 333.9375 256.558594 C 336.84375 256.417969 336.464844 257.203125 333.421875 252.695312 C 332.96875 252.023438 333.644531 251.734375 334.109375 252.050781 C 334.210938 252.121094 333.765625 251.746094 337.175781 254.871094 C 338 255.621094 337.1875 250.128906 337.933594 249.476562 C 338.1875 249.476562 338.640625 249.46875 338.65625 250.304688 C 338.660156 250.632812 338.820312 255.273438 339.128906 255.394531 C 339.414062 255.496094 339.214844 255.261719 342.296875 252.667969 C 343.039062 252.042969 343.558594 252.59375 342.832031 253.46875 C 339.953125 256.9375 340.167969 256.632812 340.21875 256.734375 C 340.273438 256.847656 339.898438 256.644531 345.351562 257.117188 C 345.632812 257.117188 345.863281 257.34375 345.867188 257.625 Z M 201.65625 134.207031 C 201.460938 134.328125 201.34375 134.578125 201.132812 134.433594 C 200.914062 134.28125 201.078125 134.089844 201.167969 133.921875 C 203.203125 130.183594 203.300781 129.730469 203.8125 130.039062 C 204.433594 130.417969 202.414062 133.074219 201.65625 134.207031 Z M 160.472656 84.535156 C 163.394531 91.414062 160.621094 93.640625 160.886719 92.058594 C 161.414062 88.925781 160.152344 86.167969 159.804688 84.585938 C 159.714844 84.171875 160.207031 83.902344 160.472656 84.535156 Z M 195.148438 77.9375 C 195.316406 78.535156 195.390625 79.152344 195.371094 79.773438 C 194.648438 85.324219 195.078125 88.015625 194.117188 90.144531 C 193.964844 90.46875 193.578125 90.425781 193.667969 90.03125 C 194.277344 87.371094 193.914062 84.613281 194.515625 81.949219 C 195.148438 79.140625 194.207031 77.492188 195.148438 77.9375 Z M 207.261719 138.6875 C 206.792969 139.578125 204.1875 142.945312 203.539062 142.257812 C 203.183594 141.882812 203.90625 141.660156 204.128906 141.359375 C 208.132812 136.023438 206.515625 136.171875 209.941406 131.445312 C 211.5625 129.207031 211.292969 128.222656 211.980469 128.492188 C 212.921875 128.867188 211.277344 130.980469 207.261719 138.6875 Z M 264.851562 128.222656 C 261.367188 125.960938 258.496094 125.5 255.027344 125.5 C 254.027344 125.5 252.984375 125.539062 251.875 125.578125 C 250.578125 125.628906 249.238281 125.675781 247.738281 125.675781 C 247.15625 125.675781 246.59375 125.667969 246.035156 125.652344 C 247.335938 122.171875 248.917969 118.761719 250.734375 115.523438 C 252.488281 115.617188 254.5 115.914062 256.234375 117.328125 C 261.570312 121.65625 264.484375 126.992188 264.851562 128.222656 Z M 268.183594 142.460938 C 267.964844 142.265625 267.738281 142.070312 267.503906 141.871094 C 265.234375 139.878906 262.40625 137.402344 255.375 137.402344 C 254.238281 137.402344 253.011719 137.46875 251.71875 137.597656 C 253 136.015625 254.414062 135.078125 255.785156 134.171875 C 257.464844 133.058594 259.058594 132.003906 259.976562 129.890625 C 260.5 129.832031 260.984375 129.800781 261.449219 129.800781 C 262.824219 129.800781 264.03125 130.066406 265.132812 130.605469 C 267.132812 131.585938 268.363281 140.242188 268.183594 142.460938 Z M 259.007812 142.992188 L 260.046875 142.878906 C 260.367188 142.84375 260.707031 142.824219 261.066406 142.824219 C 264.570312 142.824219 268.433594 144.453125 268.441406 145.945312 C 268.457031 147.921875 268.371094 149.921875 268.183594 151.894531 C 265.84375 149.621094 259.980469 145.152344 257.199219 143.195312 C 257.800781 143.125 258.402344 143.058594 259.007812 142.992188 Z M 249.3125 115.4375 C 249.308594 115.566406 249.074219 115.996094 248.808594 116.496094 C 248.097656 117.804688 246.628906 120.507812 244.804688 125.597656 C 243.722656 125.535156 242.628906 125.394531 241.558594 125.183594 C 241.167969 121.898438 240.960938 118.5625 240.933594 115.261719 C 242.601562 115.601562 244.179688 115.773438 245.625 115.773438 C 247.007812 115.773438 247.96875 115.617188 248.605469 115.519531 C 248.882812 115.476562 249.105469 115.4375 249.234375 115.4375 C 249.269531 115.4375 249.289062 115.4375 249.304688 115.4375 C 249.308594 115.4375 249.308594 115.4375 249.3125 115.4375 Z M 269.46875 154.375 C 269.328125 154.824219 269.246094 155.15625 269.1875 155.402344 C 269.191406 155.386719 269.191406 155.367188 269.191406 155.351562 C 269.21875 155.082031 269.261719 154.714844 269.308594 154.21875 C 269.363281 154.269531 269.421875 154.328125 269.46875 154.375 Z M 140.386719 127.367188 C 138.339844 128.503906 135.085938 129.71875 132.101562 129.71875 C 131.09375 129.71875 130.191406 129.574219 129.417969 129.300781 C 123.214844 127.0625 122.070312 123.054688 120.972656 119.171875 L 120.90625 118.949219 C 120.921875 118.695312 122.429688 118.0625 123.886719 117.457031 C 125.082031 116.957031 126.566406 116.335938 128.132812 115.585938 C 132.359375 113.546875 133.621094 112.054688 134.453125 111.066406 C 134.785156 110.671875 135.050781 110.359375 135.414062 110.105469 C 141.253906 105.996094 144.4375 104.789062 147.511719 103.621094 C 150.015625 102.671875 152.378906 101.773438 156.027344 99.4375 L 156.378906 99.210938 C 158.921875 97.578125 164.878906 93.75 168.792969 93.65625 C 176.269531 93.480469 181.28125 93.191406 184.945312 92.984375 C 187.449219 92.839844 189.253906 92.742188 190.691406 92.742188 C 192.855469 92.742188 194.175781 92.976562 195.738281 93.644531 C 208.851562 99.242188 215.882812 101.523438 220.019531 101.523438 C 222.617188 101.523438 223.976562 100.625 225.558594 99.582031 C 226.679688 98.84375 227.933594 98.011719 229.867188 97.332031 C 229.859375 97.34375 229.851562 97.351562 229.84375 97.359375 C 228.019531 99.421875 226.332031 100.492188 224.84375 101.4375 C 222.761719 102.761719 221.257812 103.71875 220.800781 106.554688 C 220.609375 107.734375 220.175781 108.414062 219.710938 109.128906 C 219.148438 110.003906 218.566406 110.910156 218.433594 112.765625 C 218.21875 115.746094 217.820312 118.753906 216.375 120.542969 C 215.683594 121.402344 215.804688 121.65625 215.84375 121.738281 C 215.890625 121.839844 215.996094 121.898438 216.125 121.898438 C 216.855469 121.898438 219.28125 119.769531 219.519531 116.070312 C 219.578125 115.152344 219.582031 114.40625 219.585938 113.757812 C 219.605469 112.097656 219.613281 111.183594 220.476562 109.96875 C 221.386719 108.679688 221.675781 107.535156 221.929688 106.523438 C 222.289062 105.097656 222.570312 103.964844 224.359375 102.886719 C 226.992188 101.304688 228.453125 99.933594 230.152344 98.34375 C 231.191406 97.367188 232.367188 96.265625 233.976562 94.964844 C 233.988281 94.957031 234.03125 94.925781 234.105469 94.871094 C 236.800781 92.929688 241.230469 89.382812 240.605469 87.4375 C 240.589844 87.390625 240.554688 87.355469 240.511719 87.335938 C 240.496094 87.328125 240.476562 87.328125 240.457031 87.328125 C 240.429688 87.328125 240.402344 87.335938 240.375 87.351562 L 240.261719 87.417969 C 240.0625 87.539062 240.027344 87.566406 239.960938 87.734375 C 239.910156 87.867188 239.804688 88.144531 239.3125 88.917969 C 237.394531 91.902344 233.355469 94.066406 230.109375 95.804688 C 228.6875 96.570312 227.339844 97.289062 226.355469 97.980469 C 224.28125 99.429688 222.121094 100.132812 219.761719 100.132812 C 218.734375 100.132812 217.640625 99.996094 216.519531 99.722656 C 212.042969 98.640625 207.390625 97.015625 201.863281 94.613281 L 201.449219 94.433594 C 195.894531 92.019531 194.21875 91.289062 190.425781 91.289062 C 188.941406 91.289062 187.121094 91.394531 184.601562 91.542969 C 180.570312 91.78125 175.046875 92.105469 166.28125 92.289062 C 165.191406 92.316406 163.414062 92.578125 161.160156 92.914062 C 156.714844 93.570312 150.628906 94.472656 143.992188 94.472656 C 139.613281 94.472656 135.574219 94.0625 131.988281 93.257812 C 128.582031 92.492188 125.621094 90.632812 122.9375 87.582031 C 122.390625 86.953125 120.5625 82.550781 122.824219 78.929688 C 122.878906 79.007812 122.953125 79.09375 123.082031 79.175781 C 123.308594 79.320312 123.550781 79.386719 123.875 79.386719 C 124.25 79.386719 124.710938 79.300781 125.410156 79.171875 C 126.542969 78.960938 128.253906 78.644531 131.042969 78.4375 C 133.207031 78.28125 136.128906 77.828125 137.769531 76.605469 C 140.847656 74.300781 150.953125 73.019531 154.449219 72.898438 C 162.03125 72.636719 170.675781 70.277344 181.195312 67.21875 L 182.355469 66.878906 C 186.941406 65.542969 189.710938 64.734375 193.039062 64.734375 C 195.160156 64.734375 197.511719 65.046875 200.910156 65.78125 C 205.09375 66.6875 239.378906 77.5625 246.003906 79.917969 C 253.371094 82.535156 258.640625 85.316406 263.785156 91.804688 C 266.890625 95.722656 270.203125 103.121094 274.394531 112.480469 C 281.320312 127.941406 289.941406 147.183594 302.691406 162.144531 C 304.699219 164.503906 314.066406 174.847656 316.648438 176.527344 C 319.683594 178.367188 322.878906 180 326.148438 181.390625 C 322.0625 181.425781 318.9375 181.46875 316.398438 181.503906 C 314.050781 181.535156 312.359375 181.558594 311.078125 181.558594 C 307.546875 181.558594 307.359375 181.378906 306.671875 180.710938 L 306.539062 180.582031 C 303.652344 177.832031 303.050781 174.796875 302.414062 171.582031 C 302.3125 171.0625 302.207031 170.535156 302.09375 170.003906 C 300.746094 163.769531 295.316406 158.800781 293.605469 158.800781 C 293.351562 158.800781 293.222656 158.917969 293.15625 159.003906 C 293.015625 159.214844 293.023438 159.527344 293.195312 159.984375 C 293.246094 160.128906 293.351562 160.316406 293.496094 160.574219 C 294.121094 161.71875 295.429688 164.089844 296.316406 169.539062 C 296.855469 172.820312 297.960938 177.5 301.382812 180.273438 C 301.648438 180.488281 301.898438 180.667969 302.121094 180.832031 C 302.3125 180.964844 302.519531 181.117188 302.621094 181.21875 C 302.582031 181.21875 302.53125 181.222656 302.453125 181.222656 C 302.335938 181.222656 302.1875 181.21875 302.003906 181.203125 C 297.191406 180.8125 292.449219 179.777344 287.898438 178.121094 C 286.914062 177.832031 286.105469 177.089844 285.734375 176.132812 C 283.734375 171.378906 284.6875 169.078125 286.003906 165.886719 C 286.464844 164.777344 286.984375 163.523438 287.425781 162.035156 C 288.546875 158.238281 286.933594 153.410156 285.710938 151.777344 C 285.375 151.332031 285.070312 151.105469 284.800781 151.105469 C 284.675781 151.105469 284.5625 151.15625 284.472656 151.246094 C 284.253906 151.464844 284.152344 151.925781 284.15625 152.660156 C 284.1875 155.875 282.804688 158.042969 281.464844 160.140625 C 279.101562 163.847656 276.863281 167.351562 282.949219 175.90625 C 280.742188 175.019531 274.109375 170.957031 270.558594 164.113281 C 268.019531 159.214844 271.9375 155.863281 276.085938 152.316406 C 279.527344 149.371094 283.082031 146.332031 283.226562 142.179688 C 283.28125 140.558594 282.9375 138.972656 282.605469 137.441406 C 282.558594 137.222656 282.511719 137 282.464844 136.777344 C 282.425781 136.601562 282.3125 136.0625 281.695312 136.0625 C 281.117188 136.074219 280.96875 136.515625 280.726562 137.246094 C 280.648438 137.480469 280.550781 137.761719 280.429688 138.082031 C 279.289062 141.039062 277.519531 142.847656 275.636719 144.761719 C 273.476562 146.972656 271.238281 149.257812 269.746094 153.503906 C 269.730469 153.488281 269.707031 153.46875 269.691406 153.453125 C 269.367188 153.136719 269.367188 153.136719 269.46875 152.367188 C 269.589844 151.40625 269.84375 149.410156 269.859375 144.664062 C 269.867188 141.582031 271.582031 139.390625 273.574219 136.847656 C 273.75 136.628906 273.921875 136.40625 274.101562 136.179688 C 277.851562 131.351562 277.164062 128.464844 275.910156 123.226562 C 275.792969 122.730469 275.667969 122.214844 275.542969 121.675781 C 275.464844 121.34375 275.1875 121.117188 274.859375 121.117188 C 274.605469 121.117188 274.285156 121.269531 274.136719 121.695312 C 274.070312 121.910156 274.035156 122.203125 273.984375 122.617188 C 273.820312 123.960938 273.519531 126.472656 271.339844 130.089844 C 269.550781 133.066406 269.371094 135.488281 269.265625 136.933594 C 269.246094 137.210938 269.226562 137.449219 269.203125 137.640625 C 269.148438 137.417969 269.085938 137.117188 269.015625 136.792969 C 268.648438 135.058594 267.960938 131.824219 266.429688 127.945312 C 264.578125 123.242188 264.738281 120.898438 264.941406 117.929688 C 265.085938 115.796875 265.253906 113.382812 264.75 109.585938 C 263.722656 101.777344 259.953125 97.914062 257.699219 95.613281 C 257.320312 95.226562 256.988281 94.890625 256.710938 94.574219 C 256.644531 94.5 256.578125 94.410156 256.515625 94.320312 C 256.296875 94.023438 256.046875 93.691406 255.664062 93.691406 C 255.523438 93.691406 255.378906 93.738281 255.230469 93.828125 C 254.578125 94.242188 254.921875 94.859375 255.15625 95.265625 C 255.199219 95.34375 255.242188 95.417969 255.277344 95.492188 C 257.894531 100.757812 258.011719 104.546875 258.121094 108.203125 C 258.226562 111.554688 258.320312 114.714844 260.195312 118.851562 C 260.207031 118.882812 260.21875 118.910156 260.230469 118.933594 C 259.902344 118.699219 259.222656 118.074219 258.398438 117.324219 C 257.113281 116.140625 255.175781 114.367188 252.691406 112.320312 C 253.210938 111.5 253.691406 110.640625 254.15625 109.808594 C 254.300781 109.550781 254.449219 109.292969 254.589844 109.035156 C 254.835938 108.601562 254.617188 108.378906 254.511719 108.300781 C 254.460938 108.261719 254.378906 108.214844 254.277344 108.214844 C 254.003906 108.214844 253.75 108.503906 252.6875 110.019531 C 252.382812 110.453125 252.171875 110.789062 252.019531 111.03125 C 251.859375 111.28125 251.71875 111.5 251.675781 111.519531 C 251.644531 111.515625 251.546875 111.433594 251.457031 111.359375 C 251.355469 111.273438 251.230469 111.167969 251.0625 111.046875 C 248.199219 108.917969 244.820312 107.519531 241.292969 106.992188 C 241.375 106.160156 241.394531 105.675781 241.230469 105.5 C 241.1875 105.449219 241.121094 105.417969 241.054688 105.417969 C 240.996094 105.417969 240.9375 105.441406 240.882812 105.480469 C 240.855469 105.496094 240.835938 105.511719 240.816406 105.527344 C 240.570312 105.683594 240.53125 105.78125 240.386719 106.875 C 239.691406 106.808594 239.023438 106.773438 238.335938 106.773438 C 236.601562 106.773438 235.035156 106.996094 233.378906 107.226562 C 231.863281 107.4375 230.292969 107.660156 228.339844 107.769531 C 227.300781 107.824219 226.519531 107.859375 225.925781 107.886719 C 224.0625 107.972656 223.953125 107.976562 223.851562 108.398438 C 223.71875 108.9375 224.207031 109.117188 224.566406 109.253906 L 224.703125 109.304688 C 226.429688 110.003906 227.925781 110.609375 229.230469 111.140625 C 234.957031 113.464844 237.15625 114.359375 239.839844 115.015625 C 239.820312 118.332031 240.058594 121.671875 240.542969 124.953125 C 239.765625 124.757812 238.992188 124.503906 238.242188 124.207031 C 238.085938 124.140625 237.933594 124.109375 237.800781 124.109375 C 237.546875 124.109375 237.347656 124.226562 237.246094 124.433594 C 237.125 124.6875 237.183594 125.03125 237.386719 125.292969 C 238.949219 127.265625 241.222656 128.582031 241.671875 128.742188 C 242.308594 129.078125 242.761719 129.273438 243.058594 129.402344 C 243.289062 129.503906 243.484375 129.585938 243.511719 129.636719 C 243.527344 129.664062 243.453125 129.835938 243.394531 129.976562 C 243.125 130.589844 242.574219 131.875 242.390625 135.125 L 242.386719 135.195312 C 242.371094 135.347656 242.351562 135.558594 242.480469 135.703125 C 242.558594 135.785156 242.664062 135.832031 242.8125 135.835938 C 243.144531 135.835938 243.191406 135.515625 243.296875 134.820312 C 243.425781 134 243.65625 132.484375 244.5 129.964844 C 246.582031 130.679688 248.714844 131.023438 251.003906 131.023438 C 253.460938 131.023438 255.667969 130.625 257.613281 130.273438 C 258.0625 130.195312 258.496094 130.117188 258.902344 130.042969 C 258.460938 130.652344 257.066406 132.242188 254.503906 133.738281 C 252.769531 134.703125 251.277344 136.101562 250.199219 137.773438 C 249.621094 137.84375 249.195312 137.910156 248.847656 137.960938 C 248.40625 138.03125 248.117188 138.074219 247.871094 138.074219 C 247.445312 138.074219 247.125 137.945312 246.152344 137.558594 C 245.261719 137.207031 243.917969 136.667969 241.535156 135.847656 C 231.394531 132.367188 227.320312 130.011719 223 127.515625 C 220.019531 125.792969 216.9375 124.011719 211.679688 121.824219 C 211.453125 121.726562 211.269531 121.648438 211.125 121.585938 C 211.332031 121.621094 211.5625 121.65625 211.75 121.671875 L 211.789062 121.675781 C 212.035156 121.699219 212.683594 121.757812 213.335938 121.757812 C 214.566406 121.757812 214.875 121.546875 215 121.386719 C 215.078125 121.285156 215.105469 121.160156 215.074219 121.03125 C 215.015625 120.8125 214.726562 120.8125 214.574219 120.8125 C 214.441406 120.8125 214.28125 120.820312 214.109375 120.828125 C 213.894531 120.839844 213.65625 120.859375 213.414062 120.859375 C 213.164062 120.859375 212.949219 120.839844 212.761719 120.8125 C 203.390625 119.269531 198.945312 117.222656 194.648438 115.238281 C 190.867188 113.5 187.304688 111.859375 180.707031 110.589844 C 180.65625 110.578125 180.617188 110.570312 180.59375 110.558594 C 181.199219 110.007812 187.402344 108.429688 193.351562 108.429688 C 194.457031 108.429688 195.484375 108.488281 196.402344 108.601562 C 197.578125 108.753906 198.769531 108.925781 199.921875 109.09375 C 203.007812 109.542969 206.199219 110.011719 209.417969 110.011719 C 212.570312 110.011719 215.433594 109.558594 218.164062 108.628906 C 219.089844 108.308594 219.167969 108.230469 219.296875 108.003906 C 219.320312 107.964844 219.34375 107.921875 219.386719 107.863281 C 219.410156 107.828125 219.421875 107.785156 219.414062 107.746094 C 219.40625 107.703125 219.382812 107.664062 219.351562 107.644531 C 219.253906 107.578125 219.152344 107.550781 219.035156 107.550781 C 218.855469 107.550781 218.628906 107.617188 218.214844 107.742188 C 217.789062 107.871094 217.148438 108.070312 216.160156 108.304688 C 213.765625 108.878906 211.523438 109.152344 209.3125 109.152344 C 206.710938 109.152344 204.464844 108.78125 202.089844 108.382812 C 199.539062 107.960938 196.902344 107.519531 193.644531 107.519531 C 189.417969 107.519531 184.773438 108.292969 179.433594 109.878906 C 179.289062 109.921875 179.066406 109.941406 178.746094 109.941406 C 178.367188 109.941406 177.886719 109.914062 177.332031 109.882812 C 176.558594 109.835938 175.679688 109.785156 174.703125 109.785156 C 168.074219 109.785156 163.988281 112.542969 162.210938 118.21875 C 161.832031 119.425781 158.167969 120.613281 153.929688 121.996094 C 149.773438 123.347656 144.601562 125.03125 140.386719 127.367188 Z M 333.199219 233.359375 C 332.820312 233.710938 332.558594 233.839844 332.242188 233.839844 C 331.722656 233.839844 330.960938 233.464844 329.578125 232.789062 C 326.589844 231.316406 320.359375 228.253906 306.152344 223.882812 C 295.8125 220.695312 291.160156 218.445312 286.230469 216.0625 C 282.554688 214.28125 278.753906 212.441406 272.359375 210.148438 C 254.039062 203.578125 245.738281 191.28125 237.703125 179.386719 C 231.375 170.007812 225.390625 161.144531 214.910156 155.035156 C 207.753906 150.863281 200.933594 148.488281 194.335938 146.191406 C 184.75 142.855469 175.691406 139.703125 166.578125 131.472656 C 163.78125 128.949219 161.550781 126.328125 162.628906 119.855469 C 163.054688 124.792969 163.265625 125.320312 170.113281 129.867188 C 172.589844 131.511719 175.195312 133.03125 177.496094 133.03125 C 178.824219 133.03125 179.960938 132.511719 180.871094 131.492188 C 183.972656 127.980469 186.238281 123.730469 187.417969 119.191406 C 188.097656 116.40625 186.125 115.261719 183.875 114.242188 C 183.058594 113.875 182.25 113.453125 181.464844 113.042969 C 179.660156 112.105469 177.792969 111.132812 175.707031 110.726562 L 175.679688 110.71875 C 175.625 110.710938 175.519531 110.691406 175.472656 110.664062 C 175.476562 110.664062 175.484375 110.664062 175.492188 110.664062 C 175.613281 110.664062 175.878906 110.71875 176.316406 110.808594 C 176.71875 110.890625 177.273438 111.003906 178.050781 111.144531 C 185.824219 112.5625 190.253906 114.535156 195.378906 116.820312 C 198.679688 118.292969 202.089844 119.816406 206.792969 121.378906 C 213.808594 123.703125 218.199219 126.238281 222.4375 128.6875 C 226.355469 130.945312 230.40625 133.289062 236.5 135.445312 C 239.1875 136.398438 241.910156 137.375 244.597656 138.359375 C 244.277344 138.371094 243.949219 138.375 243.613281 138.375 C 242.882812 138.375 242.25 138.347656 241.691406 138.324219 C 241.28125 138.304688 240.929688 138.289062 240.628906 138.289062 C 240.058594 138.289062 239.640625 138.34375 239.46875 138.609375 C 239.316406 138.855469 239.429688 139.171875 239.53125 139.390625 C 239.855469 140.085938 245.199219 143.675781 252.128906 143.675781 C 253.054688 143.675781 253.980469 143.609375 254.882812 143.484375 C 254.980469 143.472656 255.058594 143.460938 255.128906 143.449219 C 255.238281 143.429688 255.316406 143.417969 255.378906 143.417969 C 255.480469 143.417969 255.542969 143.460938 255.828125 143.664062 C 255.898438 143.71875 255.980469 143.777344 256.082031 143.847656 C 258.914062 145.835938 265.539062 150.667969 268.074219 153 C 267.753906 156.320312 267.820312 158.191406 267.847656 159.097656 C 267.855469 159.324219 267.863281 159.527344 267.859375 159.652344 C 267.808594 159.613281 267.75 159.566406 267.695312 159.515625 C 266.980469 158.886719 265.082031 157.226562 260.304688 156.828125 C 259.140625 156.730469 257.921875 156.714844 256.628906 156.691406 C 253.710938 156.644531 250.402344 156.59375 246.96875 155.597656 C 246.714844 155.519531 246.476562 155.480469 246.273438 155.480469 C 245.796875 155.480469 245.675781 155.695312 245.652344 155.824219 C 245.417969 156.894531 250.011719 159.164062 252.769531 160.417969 C 255.496094 161.664062 257.71875 162.214844 259.972656 162.214844 C 260.828125 162.214844 261.605469 162.140625 262.363281 162.066406 C 263.105469 161.996094 263.8125 161.925781 264.574219 161.925781 C 265.605469 161.925781 266.558594 162.054688 267.574219 162.332031 C 268.570312 162.605469 268.777344 163.09375 269.238281 164.167969 C 269.851562 165.589844 270.875 167.972656 274.789062 171.855469 C 274.914062 171.980469 274.988281 172.0625 275.035156 172.117188 C 275.023438 172.117188 275.007812 172.117188 274.988281 172.117188 C 274.875 172.117188 274.71875 172.105469 274.519531 172.09375 C 274.179688 172.070312 273.714844 172.042969 273.136719 172.042969 C 270.800781 172.042969 268.257812 172.554688 265.585938 173.558594 C 263.007812 174.539062 260.535156 175.011719 258.03125 175.011719 C 257.378906 175.011719 256.847656 174.976562 256.414062 174.957031 C 256.136719 174.9375 255.90625 174.925781 255.726562 174.925781 L 255.664062 174.925781 C 255.34375 174.933594 254.753906 175.167969 254.726562 175.617188 C 254.640625 176.851562 258.953125 177.792969 262.585938 178.367188 C 263.878906 178.570312 265.136719 178.675781 266.324219 178.675781 C 270.261719 178.675781 272.796875 177.550781 274.644531 176.730469 C 275.296875 176.441406 275.859375 176.191406 276.367188 176.042969 C 277.367188 175.75 278.0625 175.617188 278.621094 175.617188 C 279.550781 175.617188 280.148438 175.96875 281.230469 176.613281 C 282.84375 177.570312 285.546875 179.175781 291.984375 181 C 292.066406 181.023438 292.167969 181.042969 292.277344 181.058594 C 292.417969 181.085938 292.707031 181.136719 292.738281 181.203125 C 292.730469 181.300781 292.488281 181.347656 292.289062 181.386719 C 292.167969 181.410156 292.046875 181.433594 291.945312 181.46875 C 287.019531 183.222656 284.996094 185.265625 282.652344 187.636719 C 280.796875 189.511719 278.691406 191.636719 274.742188 194.050781 C 274.339844 194.292969 274.132812 194.707031 274.234375 195.058594 C 274.277344 195.21875 274.457031 195.59375 275.148438 195.59375 C 275.199219 195.59375 275.257812 195.589844 275.320312 195.585938 C 278.03125 195.355469 282.277344 193.925781 285.285156 192.613281 C 289.761719 190.65625 291.566406 188.394531 293.160156 186.394531 C 294.316406 184.945312 295.316406 183.695312 297.128906 182.792969 C 297.621094 182.554688 298.078125 182.449219 298.65625 182.449219 C 299.183594 182.449219 299.785156 182.53125 300.621094 182.644531 C 302.242188 182.867188 304.695312 183.203125 308.871094 183.203125 C 309.734375 183.203125 310.652344 183.1875 311.585938 183.15625 C 311.960938 183.148438 312.253906 183.140625 312.46875 183.140625 C 312.5625 183.140625 312.636719 183.140625 312.691406 183.144531 C 312.59375 183.214844 312.453125 183.300781 312.320312 183.390625 C 311.476562 183.933594 309.71875 185.070312 308.023438 187.238281 C 307.261719 188.214844 306.539062 189.371094 305.769531 190.59375 C 304.144531 193.1875 302.304688 196.132812 299.496094 198.230469 C 298.710938 198.816406 298.089844 199.253906 297.636719 199.570312 C 296.332031 200.496094 296.058594 200.683594 296.40625 201.34375 C 296.542969 201.597656 296.703125 201.765625 297.050781 201.765625 C 297.527344 201.765625 298.371094 201.453125 300.410156 200.6875 L 300.640625 200.601562 C 306.640625 198.359375 310.691406 194.582031 313.035156 189.054688 C 314.117188 186.492188 316.953125 182.949219 319.460938 182.949219 L 319.515625 182.949219 C 320.765625 182.976562 321.929688 182.984375 322.984375 182.984375 C 325.816406 182.984375 327.316406 182.898438 328.214844 182.839844 C 328.621094 182.8125 328.917969 182.796875 329.167969 182.796875 C 329.8125 182.796875 330.179688 182.917969 331.546875 183.371094 C 332.484375 183.683594 333.898438 184.15625 336.183594 184.847656 C 340.191406 186.054688 343.265625 186.964844 345.734375 187.695312 C 354.09375 190.171875 354.09375 190.183594 354.003906 191.035156 L 353.992188 191.117188 C 352.304688 207.617188 344.921875 222.621094 333.199219 233.359375 Z M 175.511719 140.320312 C 172.296875 143.421875 168.515625 146.726562 164.332031 146.726562 C 163.960938 146.726562 163.589844 146.695312 163.222656 146.644531 C 160.921875 146.304688 159.382812 145.230469 159.339844 141.046875 C 159.320312 139.734375 159.601562 138.792969 161.027344 138.136719 C 163.582031 136.964844 165.121094 135.703125 166.144531 134.871094 C 166.796875 134.332031 167.273438 133.945312 167.601562 133.945312 C 167.714844 133.945312 167.820312 133.992188 167.925781 134.097656 C 170.480469 136.597656 172.703125 137.851562 174.171875 138.679688 C 175.074219 139.191406 175.726562 139.554688 175.765625 139.867188 C 175.78125 139.992188 175.699219 140.144531 175.511719 140.320312 Z M 354.070312 189.203125 C 351.085938 188.234375 348.28125 187.34375 345.570312 186.484375 C 328.96875 181.21875 318 177.738281 311.6875 170.199219 C 292.785156 147.632812 291.796875 145.53125 279.695312 119.8125 C 277.558594 115.265625 275.128906 110.109375 272.1875 103.945312 C 262.328125 83.304688 257.382812 81.773438 233.621094 74.410156 C 227.042969 72.371094 218.855469 69.835938 208.730469 66.324219 C 202.574219 64.195312 198.230469 63.285156 194.199219 63.285156 C 189.542969 63.285156 185.582031 64.484375 179.582031 66.304688 C 175.679688 67.488281 170.8125 68.964844 164.429688 70.472656 C 159.925781 71.535156 157.5 71.644531 154.933594 71.753906 C 151.730469 71.894531 148.414062 72.039062 140.773438 73.960938 C 138.789062 74.460938 135.980469 74.804688 133.261719 75.136719 C 128.007812 75.78125 123.03125 76.390625 122.652344 78.121094 C 121.804688 78.261719 120.84375 80.84375 120.761719 81.664062 C 120.441406 84.871094 121.445312 87.8125 123.667969 90.1875 C 125.625 92.277344 128.472656 93.84375 131.679688 94.601562 C 135.050781 95.398438 139.070312 95.804688 143.636719 95.804688 C 151.183594 95.804688 158.515625 94.695312 162.039062 94.164062 C 162.695312 94.0625 163.25 93.980469 163.660156 93.925781 C 161.476562 94.8125 159.398438 96.035156 157.015625 97.4375 C 153.644531 99.417969 149.824219 101.660156 144.546875 103.625 C 140.585938 105.097656 138.109375 106.949219 136.300781 108.296875 C 135.046875 109.230469 134.144531 109.90625 133.414062 109.90625 C 133.328125 109.90625 133.253906 109.898438 133.171875 109.882812 C 133.105469 109.867188 133.046875 109.855469 132.988281 109.855469 C 132.816406 109.855469 132.675781 109.929688 132.253906 110.144531 C 131.570312 110.492188 129.972656 111.308594 125.992188 112.960938 C 123.628906 113.941406 120.171875 116.242188 119.910156 117.765625 C 119.859375 118.050781 119.917969 118.304688 120.082031 118.511719 C 120.074219 118.53125 120.0625 118.550781 120.050781 118.574219 C 119.710938 119.375 120.980469 123.226562 121.324219 123.894531 C 123.78125 128.6875 127.125 131.015625 131.539062 131.015625 C 135.839844 131.015625 140.433594 128.75 144.128906 126.933594 C 146.503906 125.761719 148.582031 124.738281 150.097656 124.515625 C 149.953125 124.621094 149.765625 124.738281 149.597656 124.847656 C 149.09375 125.171875 148.457031 125.578125 148.023438 126.050781 C 147.609375 126.5 147.183594 126.53125 146.597656 126.574219 C 145.914062 126.628906 145.066406 126.6875 143.925781 127.4375 C 142.96875 128.058594 141.972656 128.652344 140.921875 129.273438 C 137.953125 131.023438 134.894531 132.832031 132.367188 135.667969 C 132.335938 135.703125 132.296875 135.734375 132.261719 135.769531 C 132.109375 135.90625 131.882812 136.105469 132.027344 136.402344 C 132.140625 136.644531 132.324219 136.695312 132.453125 136.695312 C 132.625 136.695312 132.792969 136.609375 132.917969 136.542969 L 132.957031 136.523438 C 133.710938 136.144531 134.429688 135.957031 135.15625 135.957031 C 135.652344 135.957031 136.082031 136.039062 136.492188 136.113281 C 136.839844 136.183594 137.167969 136.242188 137.484375 136.242188 C 138.066406 136.242188 138.523438 136.03125 138.972656 135.558594 C 139.503906 134.988281 149.597656 126.070312 149.671875 126.003906 C 152.738281 123.816406 154.480469 123.144531 156.492188 122.367188 C 157.792969 121.863281 159.265625 121.292969 161.296875 120.234375 C 161.375 120.1875 161.445312 120.121094 161.503906 120.058594 C 161.558594 120.003906 161.628906 119.9375 161.667969 119.9375 C 161.675781 119.9375 161.695312 119.945312 161.714844 119.957031 C 161.765625 119.992188 161.773438 120.027344 161.714844 120.21875 C 161.6875 120.300781 161.664062 120.386719 161.660156 120.472656 C 161.300781 128.34375 164.300781 130.953125 165.738281 132.210938 C 166.199219 132.613281 166.535156 132.902344 166.523438 133.140625 C 166.515625 133.296875 166.359375 133.480469 166.039062 133.710938 C 164.339844 134.941406 162.40625 136.332031 160.335938 137.386719 C 155.546875 139.824219 153.1875 141.449219 151.292969 142.753906 C 149.5 143.988281 148.203125 144.882812 145.71875 145.804688 C 144.316406 146.324219 142.902344 146.589844 141.519531 146.589844 C 138.792969 146.589844 136.246094 145.546875 134.523438 143.726562 C 133.285156 142.414062 132.617188 140.8125 132.699219 139.332031 C 132.703125 139.28125 132.710938 139.226562 132.71875 139.167969 C 132.75 138.890625 132.804688 138.425781 132.351562 138.347656 C 132.3125 138.339844 132.269531 138.335938 132.234375 138.335938 C 131.773438 138.335938 131.691406 138.800781 131.640625 139.109375 C 131.632812 139.152344 131.625 139.191406 131.617188 139.226562 C 131.214844 141.199219 131.804688 142.414062 132.683594 143.914062 C 132.691406 143.925781 132.699219 143.9375 132.707031 143.945312 C 135.410156 146.648438 138.152344 147.960938 141.09375 147.960938 C 145.078125 147.960938 149.179688 145.53125 153.019531 142.914062 C 156.4375 140.578125 157.980469 139.550781 158.410156 139.550781 C 158.457031 139.621094 158.378906 139.980469 158.320312 140.242188 C 158.210938 140.746094 158.0625 141.4375 158.144531 142.164062 C 158.511719 145.636719 159.875 147.230469 162.839844 147.675781 C 163.316406 147.765625 163.804688 147.8125 164.292969 147.8125 C 164.769531 147.8125 165.246094 147.769531 165.722656 147.675781 C 171.558594 146.289062 173.925781 143.503906 175.339844 141.835938 C 176.039062 141.011719 176.5 140.46875 177.015625 140.46875 C 177.164062 140.46875 177.316406 140.515625 177.488281 140.605469 C 182.523438 143.296875 184.234375 143.898438 187.988281 145.21875 C 191.746094 146.539062 197.425781 148.535156 210.40625 154.007812 C 222.417969 159.070312 229.394531 169.277344 236.777344 180.082031 C 245.144531 192.320312 253.792969 204.980469 270.5625 211.058594 C 277.417969 213.550781 281.808594 215.613281 286.054688 217.601562 C 291.003906 219.925781 295.679688 222.121094 303.484375 224.496094 C 318.0625 228.925781 330.875 234.464844 331.496094 234.910156 C 331.617188 235.175781 331.851562 235.316406 332.167969 235.316406 C 334.09375 235.316406 339.496094 229.957031 344.472656 221.984375 C 348.082031 216.203125 354.253906 204.472656 355.089844 190.84375 L 355.101562 190.648438 C 355.167969 189.621094 355.109375 189.542969 354.070312 189.203125 Z M 179.371094 266.542969 C 179.566406 266.417969 179.679688 266.171875 179.894531 266.316406 C 180.113281 266.464844 179.949219 266.65625 179.859375 266.824219 C 177.820312 270.566406 177.730469 271.015625 177.214844 270.707031 C 176.589844 270.328125 178.621094 267.664062 179.371094 266.542969 Z M 221.222656 316.164062 C 221.3125 316.578125 220.824219 316.839844 220.554688 316.210938 C 217.632812 309.328125 220.40625 307.113281 220.140625 308.691406 C 219.617188 311.824219 220.875 314.578125 221.222656 316.164062 Z M 187.359375 310.71875 C 186.746094 313.375 187.117188 316.136719 186.515625 318.796875 C 185.882812 321.59375 186.816406 323.253906 185.878906 322.8125 C 185.710938 322.214844 185.636719 321.59375 185.652344 320.972656 C 186.382812 315.425781 185.953125 312.738281 186.910156 310.605469 C 187.058594 310.28125 187.449219 310.324219 187.359375 310.71875 Z M 173.769531 262.0625 C 174.230469 261.171875 176.839844 257.804688 177.488281 258.492188 C 177.84375 258.867188 177.125 259.085938 176.898438 259.386719 C 172.894531 264.726562 174.507812 264.578125 171.085938 269.304688 C 169.464844 271.542969 169.734375 272.527344 169.046875 272.253906 C 168.148438 271.898438 169.53125 270.183594 173.769531 262.0625 Z M 111.824219 245.429688 C 111.792969 245.742188 111.777344 245.992188 111.757812 246.1875 C 111.746094 246.324219 111.734375 246.445312 111.726562 246.546875 C 111.703125 246.519531 111.683594 246.492188 111.65625 246.46875 C 111.621094 246.433594 111.59375 246.402344 111.558594 246.375 C 111.566406 246.34375 111.582031 246.292969 111.597656 246.242188 C 111.644531 246.097656 111.71875 245.851562 111.824219 245.429688 Z M 116.191406 272.535156 C 119.667969 274.789062 122.539062 275.246094 126 275.246094 C 127 275.246094 128.046875 275.207031 129.148438 275.167969 C 130.445312 275.121094 131.789062 275.070312 133.289062 275.070312 C 133.871094 275.070312 134.429688 275.078125 134.988281 275.09375 C 133.691406 278.574219 132.109375 281.984375 130.292969 285.226562 C 128.539062 285.132812 126.527344 284.832031 124.792969 283.421875 C 119.492188 279.121094 116.578125 273.824219 116.191406 272.535156 Z M 122.035156 257.753906 L 120.984375 257.867188 C 120.660156 257.902344 120.316406 257.925781 119.957031 257.925781 C 116.453125 257.925781 112.59375 256.292969 112.589844 254.800781 C 112.570312 252.824219 112.65625 250.828125 112.847656 248.851562 C 115.183594 251.125 121.042969 255.597656 123.832031 257.550781 C 123.230469 257.621094 122.632812 257.6875 122.035156 257.753906 Z M 129.308594 263.148438 C 128.03125 264.726562 126.617188 265.664062 125.25 266.574219 C 123.5625 267.695312 121.964844 268.753906 121.050781 270.855469 C 120.527344 270.917969 120.042969 270.945312 119.578125 270.945312 C 118.203125 270.945312 116.996094 270.679688 115.894531 270.140625 C 113.828125 269.128906 112.726562 260.347656 112.847656 258.289062 C 113.074219 258.484375 113.304688 258.679688 113.539062 258.882812 C 115.980469 260.976562 118.75 263.351562 125.597656 263.351562 C 126.742188 263.351562 127.988281 263.28125 129.308594 263.148438 Z M 131.714844 285.308594 C 131.71875 285.183594 131.953125 284.75 132.222656 284.253906 C 132.929688 282.949219 134.398438 280.238281 136.222656 275.148438 C 137.308594 275.210938 138.398438 275.355469 139.46875 275.5625 C 139.859375 278.84375 140.066406 282.179688 140.09375 285.488281 C 138.425781 285.144531 136.847656 284.972656 135.40625 284.972656 C 134.019531 284.972656 133.054688 285.128906 132.421875 285.230469 C 132.140625 285.273438 131.925781 285.3125 131.792969 285.3125 C 131.757812 285.3125 131.738281 285.308594 131.722656 285.308594 C 131.71875 285.308594 131.714844 285.308594 131.714844 285.308594 Z M 47.828125 167.386719 C 48.214844 167.03125 48.484375 166.890625 48.789062 166.890625 C 48.988281 166.890625 49.210938 166.953125 49.484375 167.085938 C 60.078125 172.109375 67.753906 174.578125 74.527344 176.753906 C 80.605469 178.710938 86.347656 180.554688 93.195312 183.917969 C 100.960938 187.726562 105.40625 189.390625 108.65625 190.601562 C 111.605469 191.699219 113.734375 192.496094 116.667969 194.246094 C 131.488281 203.101562 135.269531 209.074219 140.503906 217.335938 C 143.746094 222.449219 147.421875 228.25 154.511719 236.113281 C 163.078125 245.617188 171.003906 248.507812 181.976562 252.511719 C 187.296875 254.457031 193.328125 256.660156 200.5625 260.003906 C 208.96875 263.886719 216.085938 270.410156 217.027344 271.960938 C 218.972656 275.175781 218.777344 279.183594 218.449219 280.769531 C 218.484375 279.175781 218.511719 276.542969 215.5 274.167969 C 211.566406 271.0625 207.074219 267.75 203.554688 267.75 C 202.191406 267.75 201.050781 268.253906 200.160156 269.257812 C 197.054688 272.765625 194.785156 277.015625 193.609375 281.554688 C 193.1875 283.292969 193.585938 284.316406 195.085938 285.335938 C 195.867188 285.867188 201.539062 288.988281 204.683594 289.871094 C 202.328125 289.640625 196.136719 288.578125 188.726562 285.277344 C 181.621094 282.117188 177.128906 280.449219 173.519531 279.109375 C 168.589844 277.273438 165.332031 276.066406 159.34375 272.496094 C 151.25 267.675781 147.1875 266.230469 140.449219 263.835938 C 139.242188 263.40625 137.886719 262.925781 136.417969 262.386719 C 136.910156 262.367188 137.378906 262.351562 137.820312 262.351562 C 138.863281 262.351562 139.546875 262.414062 140.050781 262.460938 C 140.308594 262.488281 140.511719 262.503906 140.675781 262.503906 C 140.738281 262.503906 140.796875 262.503906 140.847656 262.5 C 141.546875 262.414062 141.632812 262.058594 141.617188 261.851562 C 141.539062 260.445312 135.992188 257.140625 128.660156 257.140625 C 127.632812 257.140625 126.597656 257.203125 125.585938 257.335938 C 124.507812 256.621094 120.804688 254.007812 118.40625 252.121094 C 117.238281 251.203125 116.3125 250.496094 115.570312 249.929688 C 112.828125 247.835938 112.828125 247.835938 113.042969 246.550781 C 113.1875 245.683594 113.429688 244.234375 113.101562 241.347656 C 113.101562 241.347656 113.085938 241.199219 113.082031 241.164062 C 113.085938 241.167969 113.09375 241.175781 113.105469 241.179688 C 115.394531 243.023438 119.355469 243.988281 124.867188 244.0625 C 130.390625 244.128906 132.742188 244.789062 133.867188 245.105469 C 134.269531 245.214844 134.535156 245.289062 134.789062 245.289062 C 135.308594 245.273438 135.359375 244.992188 135.355469 244.875 C 135.335938 243.578125 127.410156 238.570312 120.195312 238.570312 C 119.5 238.570312 118.824219 238.621094 118.1875 238.714844 C 117.652344 238.796875 117.015625 238.839844 116.394531 238.839844 C 115.265625 238.839844 112.589844 238.679688 112.042969 237.1875 C 110.644531 233.347656 108.167969 230.863281 106.835938 229.53125 C 106.472656 229.164062 106.09375 228.789062 106.011719 228.625 C 106.027344 228.625 106.050781 228.621094 106.085938 228.621094 C 106.132812 228.621094 106.183594 228.625 106.25 228.632812 C 106.851562 228.695312 107.453125 228.726562 108.035156 228.726562 C 110.847656 228.726562 112.960938 228.015625 115.199219 227.269531 C 117.460938 226.507812 119.792969 225.730469 122.945312 225.730469 C 123.496094 225.730469 124.066406 225.75 124.667969 225.800781 C 124.851562 225.816406 125.039062 225.832031 125.21875 225.832031 C 125.589844 225.832031 126.101562 225.769531 126.230469 225.21875 C 126.429688 224.390625 125.636719 224.140625 124.996094 223.941406 C 121.019531 222.695312 117.632812 222.09375 114.65625 222.09375 C 110.757812 222.09375 108.359375 223.152344 106.429688 224 C 105.140625 224.570312 104.027344 225.058594 102.816406 225.058594 C 101.875 225.058594 100.929688 224.773438 99.847656 224.152344 C 95.449219 221.628906 91.65625 220.527344 89.617188 219.929688 C 89.019531 219.757812 88.453125 219.589844 88.300781 219.5 C 88.324219 219.460938 88.410156 219.433594 88.714844 219.363281 C 89.273438 219.238281 90.316406 219.007812 92.152344 218.023438 C 94.964844 216.515625 96.714844 214.765625 98.570312 212.917969 C 100.285156 211.210938 102.054688 209.445312 104.828125 207.695312 C 106.636719 206.550781 106.972656 206.273438 106.765625 205.640625 C 106.617188 205.199219 106.226562 205.148438 105.945312 205.148438 C 105.628906 205.148438 105.226562 205.21875 104.71875 205.3125 L 104.640625 205.324219 C 93.882812 207.253906 89.867188 211.964844 87.210938 215.085938 C 85.605469 216.972656 84.445312 218.328125 82.578125 218.328125 C 82.375 218.328125 82.167969 218.316406 81.957031 218.285156 C 78.484375 217.789062 75.25 217.546875 72.070312 217.546875 C 71.050781 217.546875 70.203125 217.570312 69.585938 217.59375 C 69.199219 217.601562 68.882812 217.613281 68.640625 217.613281 C 68.496094 217.613281 68.394531 217.605469 68.324219 217.601562 C 68.363281 217.578125 68.414062 217.546875 68.476562 217.507812 C 72.027344 215.359375 73.558594 212.882812 75.1875 210.257812 C 75.449219 209.832031 75.714844 209.40625 75.996094 208.976562 C 79.359375 203.730469 82.09375 201.976562 83.5625 201.035156 C 84.488281 200.441406 85 200.117188 84.617188 199.402344 C 84.46875 199.117188 84.238281 198.972656 83.941406 198.972656 C 83.726562 198.972656 83.5 199.050781 83.300781 199.121094 L 83.167969 199.164062 C 78.109375 200.832031 74.5625 202.511719 71.414062 206.160156 C 70.449219 207.28125 69.546875 208.886719 68.597656 210.585938 C 66.609375 214.132812 64.554688 217.796875 61.582031 217.796875 L 61.511719 217.796875 C 61.085938 217.789062 60.664062 217.785156 60.242188 217.785156 C 58.960938 217.785156 57.660156 217.820312 56.402344 217.855469 C 55.144531 217.886719 53.84375 217.921875 52.570312 217.921875 C 52.066406 217.921875 51.570312 217.914062 51.070312 217.902344 C 40.460938 214.179688 34.328125 212.554688 31.023438 211.675781 C 27.339844 210.703125 26.9375 210.5625 27.035156 209.632812 C 28.722656 193.132812 36.105469 178.128906 47.828125 167.386719 Z M 255.410156 321.613281 C 254.15625 321.832031 252.441406 322.128906 249.984375 322.308594 C 247.820312 322.46875 244.898438 322.914062 243.257812 324.144531 C 240.179688 326.445312 230.078125 327.726562 226.574219 327.851562 C 219.011719 328.109375 209.988281 330.578125 199.832031 333.53125 L 198.675781 333.867188 C 194.089844 335.207031 191.316406 336.015625 187.988281 336.015625 C 185.867188 336.015625 183.511719 335.699219 180.117188 334.964844 C 175.933594 334.0625 141.652344 323.183594 135.023438 320.832031 C 127.660156 318.214844 122.386719 315.429688 117.246094 308.941406 C 114.066406 304.929688 110.570312 297.121094 106.527344 288.078125 C 99.65625 272.710938 91.101562 253.585938 78.335938 238.605469 C 76.328125 236.246094 66.960938 225.898438 64.378906 224.222656 C 61.34375 222.378906 58.152344 220.746094 54.878906 219.359375 C 58.960938 219.320312 62.089844 219.277344 64.632812 219.242188 C 66.972656 219.214844 68.664062 219.191406 69.945312 219.191406 C 73.480469 219.191406 73.667969 219.367188 74.355469 220.039062 L 74.492188 220.164062 C 77.375 222.914062 77.976562 225.949219 78.613281 229.167969 C 78.714844 229.6875 78.820312 230.210938 78.933594 230.742188 C 80.253906 236.859375 85.761719 241.949219 87.421875 241.949219 C 87.675781 241.949219 87.804688 241.835938 87.875 241.742188 C 88.011719 241.539062 88.003906 241.21875 87.835938 240.765625 C 87.785156 240.628906 87.683594 240.449219 87.542969 240.199219 C 86.964844 239.140625 85.601562 236.667969 84.707031 231.207031 C 84.175781 227.929688 83.066406 223.246094 79.644531 220.476562 C 79.375 220.261719 79.125 220.074219 78.902344 219.914062 C 78.714844 219.777344 78.507812 219.628906 78.402344 219.535156 C 78.441406 219.527344 78.496094 219.527344 78.566406 219.527344 C 78.6875 219.527344 78.839844 219.535156 79.023438 219.542969 C 83.835938 219.933594 88.578125 220.96875 93.128906 222.632812 C 94.113281 222.914062 94.921875 223.660156 95.296875 224.617188 C 97.292969 229.367188 96.339844 231.675781 95.023438 234.863281 C 94.5625 235.96875 94.042969 237.226562 93.601562 238.714844 C 92.480469 242.507812 94.09375 247.332031 95.316406 248.96875 C 95.648438 249.414062 95.953125 249.640625 96.226562 249.640625 C 96.347656 249.640625 96.460938 249.59375 96.558594 249.5 C 96.773438 249.28125 96.875 248.820312 96.871094 248.089844 C 96.839844 244.882812 98.21875 242.71875 99.554688 240.625 C 101.921875 236.902344 104.164062 233.386719 98.0625 224.820312 C 101.269531 225.925781 107.484375 230.886719 110.46875 236.636719 C 113.007812 241.535156 109.089844 244.886719 104.9375 248.433594 C 101.5 251.375 97.945312 254.417969 97.800781 258.570312 C 97.746094 260.1875 98.089844 261.769531 98.421875 263.304688 C 98.46875 263.527344 98.519531 263.75 98.5625 263.96875 C 98.601562 264.144531 98.714844 264.6875 99.335938 264.6875 C 99.90625 264.671875 100.058594 264.234375 100.296875 263.507812 C 100.378906 263.269531 100.472656 262.988281 100.597656 262.667969 C 101.742188 259.703125 103.511719 257.894531 105.390625 255.984375 C 107.554688 253.773438 109.792969 251.488281 111.277344 247.242188 C 111.296875 247.257812 111.308594 247.269531 111.324219 247.285156 C 111.65625 247.613281 111.65625 247.613281 111.558594 248.402344 C 111.4375 249.367188 111.183594 251.367188 111.171875 256.085938 C 111.160156 259.167969 109.445312 261.359375 107.453125 263.894531 C 107.28125 264.117188 107.105469 264.34375 106.925781 264.566406 C 105.148438 266.855469 104.289062 268.800781 104.140625 270.867188 C 103.996094 272.835938 104.492188 274.902344 105.117188 277.523438 C 105.234375 278.015625 105.359375 278.53125 105.484375 279.074219 C 105.5625 279.402344 105.839844 279.632812 106.167969 279.632812 C 106.421875 279.632812 106.746094 279.480469 106.886719 279.050781 C 106.957031 278.839844 106.996094 278.542969 107.042969 278.132812 C 107.210938 276.785156 107.515625 274.277344 109.6875 270.65625 C 111.476562 267.679688 111.65625 265.257812 111.761719 263.816406 C 111.78125 263.539062 111.800781 263.304688 111.824219 263.113281 C 111.875 263.332031 111.941406 263.621094 112.003906 263.933594 C 112.375 265.671875 113.058594 268.902344 114.59375 272.800781 C 116.445312 277.503906 116.289062 279.851562 116.082031 282.820312 C 115.941406 284.949219 115.777344 287.363281 116.277344 291.164062 C 117.304688 298.96875 121.078125 302.832031 123.328125 305.132812 C 123.707031 305.523438 124.039062 305.859375 124.316406 306.171875 C 124.386719 306.25 124.449219 306.335938 124.515625 306.425781 C 124.734375 306.722656 124.980469 307.058594 125.363281 307.058594 C 125.503906 307.058594 125.644531 307.015625 125.796875 306.917969 C 126.449219 306.503906 126.101562 305.890625 125.871094 305.484375 C 125.828125 305.40625 125.785156 305.332031 125.75 305.253906 C 123.132812 299.992188 123.015625 296.210938 122.90625 292.550781 C 122.804688 289.199219 122.710938 286.039062 120.832031 281.894531 C 120.816406 281.867188 120.808594 281.835938 120.796875 281.8125 C 121.125 282.046875 121.808594 282.679688 122.632812 283.429688 C 123.921875 284.609375 125.859375 286.386719 128.335938 288.429688 C 127.8125 289.25 127.328125 290.113281 126.863281 290.949219 C 126.71875 291.203125 126.582031 291.457031 126.4375 291.710938 C 126.191406 292.148438 126.414062 292.371094 126.515625 292.449219 C 126.566406 292.484375 126.648438 292.535156 126.753906 292.535156 C 127.023438 292.535156 127.277344 292.25 128.339844 290.726562 C 128.644531 290.292969 128.855469 289.960938 129.007812 289.714844 C 129.171875 289.464844 129.308594 289.25 129.351562 289.230469 C 129.386719 289.234375 129.480469 289.320312 129.570312 289.390625 C 129.667969 289.476562 129.796875 289.578125 129.964844 289.703125 C 132.828125 291.828125 136.207031 293.230469 139.734375 293.757812 C 139.652344 294.585938 139.632812 295.070312 139.796875 295.25 C 139.84375 295.300781 139.90625 295.328125 139.976562 295.328125 C 140.027344 295.328125 140.089844 295.304688 140.148438 295.265625 C 140.171875 295.25 140.191406 295.234375 140.210938 295.21875 C 140.457031 295.0625 140.496094 294.964844 140.640625 293.875 C 141.335938 293.941406 142.003906 293.972656 142.691406 293.972656 C 144.425781 293.972656 145.992188 293.753906 147.648438 293.523438 C 149.164062 293.308594 150.734375 293.085938 152.6875 292.980469 C 153.71875 292.921875 154.5 292.890625 155.09375 292.859375 C 156.964844 292.773438 157.074219 292.769531 157.175781 292.351562 C 157.308594 291.816406 156.820312 291.628906 156.464844 291.496094 L 156.324219 291.441406 C 154.582031 290.742188 153.078125 290.128906 151.765625 289.59375 C 146.058594 287.277344 143.871094 286.390625 141.1875 285.734375 C 141.207031 282.417969 140.96875 279.074219 140.480469 275.792969 C 141.265625 275.992188 142.039062 276.242188 142.785156 276.539062 C 142.941406 276.605469 143.082031 276.636719 143.214844 276.636719 C 143.472656 276.636719 143.679688 276.515625 143.78125 276.308594 C 143.902344 276.054688 143.847656 275.71875 143.636719 275.457031 C 142.078125 273.480469 139.804688 272.167969 139.355469 272.011719 C 138.71875 271.671875 138.265625 271.472656 137.96875 271.34375 C 137.738281 271.246094 137.542969 271.160156 137.519531 271.113281 C 137.5 271.078125 137.570312 270.917969 137.632812 270.769531 C 137.902344 270.15625 138.453125 268.871094 138.640625 265.621094 L 138.640625 265.550781 C 138.65625 265.394531 138.675781 265.1875 138.546875 265.042969 C 138.46875 264.960938 138.363281 264.917969 138.214844 264.914062 C 137.882812 264.914062 137.832031 265.230469 137.726562 265.925781 C 137.605469 266.746094 137.371094 268.265625 136.53125 270.78125 C 134.441406 270.074219 132.3125 269.726562 130.027344 269.726562 C 127.574219 269.726562 125.367188 270.121094 123.421875 270.472656 C 122.96875 270.554688 122.535156 270.636719 122.121094 270.703125 C 122.5625 270.097656 123.957031 268.507812 126.519531 267.011719 C 128.261719 266.042969 129.746094 264.652344 130.828125 262.976562 C 131.410156 262.902344 131.835938 262.839844 132.183594 262.785156 C 132.617188 262.714844 132.910156 262.671875 133.15625 262.671875 C 133.578125 262.671875 133.90625 262.800781 134.875 263.1875 C 135.765625 263.542969 137.109375 264.082031 139.492188 264.898438 C 149.632812 268.382812 153.710938 270.738281 158.023438 273.230469 C 161.007812 274.953125 164.085938 276.734375 169.347656 278.925781 C 169.574219 279.019531 169.757812 279.097656 169.90625 279.160156 C 169.695312 279.128906 169.464844 279.09375 169.273438 279.074219 L 169.238281 279.074219 C 168.992188 279.050781 168.347656 278.988281 167.695312 278.988281 C 166.460938 278.988281 166.152344 279.203125 166.027344 279.363281 C 165.949219 279.460938 165.921875 279.589844 165.953125 279.722656 C 166.011719 279.9375 166.300781 279.9375 166.453125 279.9375 C 166.585938 279.9375 166.746094 279.929688 166.921875 279.917969 C 167.132812 279.90625 167.367188 279.894531 167.613281 279.894531 C 167.863281 279.894531 168.078125 279.90625 168.261719 279.9375 C 177.640625 281.480469 182.089844 283.527344 186.394531 285.511719 C 190.171875 287.253906 193.738281 288.890625 200.320312 290.160156 C 200.371094 290.171875 200.410156 290.183594 200.433594 290.1875 C 199.824219 290.742188 193.628906 292.316406 187.683594 292.316406 C 186.574219 292.316406 185.546875 292.257812 184.625 292.144531 C 183.449219 291.996094 182.257812 291.820312 181.105469 291.652344 C 178.019531 291.203125 174.828125 290.738281 171.613281 290.738281 C 168.457031 290.738281 165.59375 291.1875 162.863281 292.121094 C 161.933594 292.4375 161.855469 292.515625 161.726562 292.746094 C 161.707031 292.785156 161.679688 292.828125 161.640625 292.886719 C 161.617188 292.917969 161.605469 292.960938 161.613281 293.003906 C 161.621094 293.042969 161.640625 293.082031 161.675781 293.105469 C 161.773438 293.167969 161.871094 293.199219 161.992188 293.199219 C 162.171875 293.199219 162.398438 293.128906 162.804688 293.007812 C 163.230469 292.878906 163.875 292.679688 164.863281 292.445312 C 167.269531 291.867188 169.519531 291.589844 171.734375 291.589844 C 174.335938 291.589844 176.582031 291.964844 178.960938 292.359375 C 181.507812 292.785156 184.136719 293.226562 187.394531 293.226562 C 191.613281 293.226562 196.257812 292.457031 201.589844 290.871094 C 201.738281 290.828125 201.964844 290.804688 202.28125 290.804688 C 202.660156 290.804688 203.140625 290.832031 203.691406 290.867188 C 204.46875 290.914062 205.347656 290.964844 206.320312 290.964844 C 212.949219 290.964844 217.039062 288.203125 218.816406 282.527344 C 219.195312 281.324219 222.859375 280.132812 227.109375 278.75 C 231.261719 277.394531 236.433594 275.714844 240.640625 273.378906 C 242.691406 272.242188 245.941406 271.03125 248.921875 271.03125 C 249.929688 271.03125 250.835938 271.171875 251.609375 271.453125 C 257.8125 273.683594 258.953125 277.699219 260.054688 281.578125 L 260.121094 281.800781 C 260.152344 281.925781 260.1875 282.015625 260.210938 282.085938 C 259.988281 282.121094 259.519531 282.21875 258.636719 282.742188 C 258.050781 282.800781 252.945312 285.140625 252.898438 285.164062 C 248.667969 287.199219 247.40625 288.691406 246.574219 289.679688 C 246.238281 290.074219 245.976562 290.390625 245.617188 290.640625 C 239.773438 294.75 236.589844 295.957031 233.515625 297.128906 C 231.011719 298.078125 228.648438 298.972656 225 301.308594 L 224.648438 301.535156 C 222.105469 303.171875 216.148438 306.996094 212.234375 307.09375 C 204.761719 307.269531 199.746094 307.554688 196.082031 307.761719 C 193.578125 307.90625 191.769531 308.007812 190.332031 308.007812 C 188.171875 308.007812 186.855469 307.773438 185.289062 307.101562 C 184.351562 306.707031 183.433594 306.308594 182.539062 305.925781 C 175.535156 302.90625 169.488281 300.300781 163.042969 299.363281 C 162.449219 299.277344 161.855469 299.234375 161.289062 299.234375 C 158.042969 299.234375 155.8125 300.652344 153.84375 301.902344 C 152.933594 302.484375 152.070312 303.039062 151.175781 303.398438 C 151.179688 303.394531 151.183594 303.390625 151.183594 303.386719 C 153.007812 301.332031 154.695312 300.257812 156.183594 299.308594 C 158.269531 297.988281 159.773438 297.03125 160.226562 294.191406 C 160.414062 293.011719 160.855469 292.335938 161.316406 291.621094 C 161.878906 290.746094 162.460938 289.84375 162.59375 287.988281 C 162.808594 285.003906 163.207031 281.996094 164.648438 280.203125 C 165.34375 279.347656 165.222656 279.09375 165.183594 279.011719 C 165.132812 278.90625 165.03125 278.847656 164.902344 278.847656 C 164.171875 278.847656 161.746094 280.980469 161.507812 284.675781 C 161.453125 285.601562 161.445312 286.347656 161.4375 287 C 161.421875 288.65625 161.414062 289.566406 160.554688 290.785156 C 159.640625 292.066406 159.351562 293.210938 159.097656 294.226562 C 158.742188 295.652344 158.457031 296.78125 156.667969 297.859375 C 154.03125 299.445312 152.570312 300.816406 150.871094 302.40625 C 149.835938 303.378906 148.660156 304.480469 147.050781 305.78125 C 147.039062 305.792969 146.996094 305.820312 146.925781 305.871094 C 144.230469 307.816406 139.796875 311.363281 140.421875 313.3125 C 140.4375 313.355469 140.46875 313.394531 140.515625 313.410156 C 140.535156 313.417969 140.550781 313.421875 140.570312 313.421875 C 140.597656 313.421875 140.625 313.414062 140.652344 313.398438 L 140.761719 313.332031 C 140.96875 313.207031 141 313.183594 141.066406 313.015625 C 141.117188 312.878906 141.222656 312.597656 141.714844 311.835938 C 143.632812 308.847656 147.671875 306.679688 150.914062 304.945312 C 152.335938 304.179688 153.683594 303.460938 154.671875 302.769531 C 156.636719 301.394531 158.882812 300.726562 161.523438 300.726562 C 166.46875 300.726562 171.914062 303.085938 177.175781 305.371094 C 182 307.464844 186.558594 309.441406 190.367188 309.441406 C 190.46875 309.441406 190.566406 309.4375 190.667969 309.4375 C 194.40625 309.332031 198.203125 309.148438 201.878906 308.96875 C 206.09375 308.761719 210.453125 308.550781 214.746094 308.457031 C 216.964844 308.40625 219.128906 308.300781 221.175781 307.488281 C 221.410156 307.414062 228.460938 306.328125 236.542969 306.328125 C 241.410156 306.328125 245.617188 306.71875 249.039062 307.488281 C 252.445312 308.261719 255.40625 310.113281 258.089844 313.171875 C 258.738281 313.90625 260.292969 318.226562 258.3125 321.628906 C 258.085938 321.441406 257.785156 321.355469 257.371094 321.355469 C 256.898438 321.355469 256.273438 321.464844 255.410156 321.613281 Z M 205.253906 260.882812 C 205.238281 260.761719 205.328125 260.609375 205.515625 260.425781 C 208.730469 257.328125 212.511719 254.023438 216.695312 254.023438 C 217.066406 254.023438 217.4375 254.050781 217.800781 254.105469 C 220.101562 254.441406 221.644531 255.523438 221.6875 259.703125 C 221.703125 261.011719 221.429688 261.953125 220 262.609375 C 217.382812 263.8125 215.851562 265.082031 214.839844 265.917969 C 214.191406 266.460938 213.757812 266.8125 213.441406 266.8125 C 213.324219 266.8125 213.214844 266.761719 213.101562 266.648438 C 210.492188 264.097656 208.269531 262.851562 206.796875 262.027344 C 205.925781 261.539062 205.292969 261.183594 205.253906 260.882812 Z M 221.054688 305.0625 C 229.558594 299.875 233.570312 298.269531 236.496094 297.09375 C 239.394531 295.933594 241.304688 295.167969 245.449219 291.945312 C 246.722656 290.953125 247.171875 290.820312 247.449219 290.820312 C 247.527344 290.820312 247.597656 290.828125 247.671875 290.84375 C 247.757812 290.859375 247.84375 290.871094 247.949219 290.871094 C 248.203125 290.871094 248.476562 290.78125 248.847656 290.570312 C 250.601562 289.570312 252.023438 289.007812 253.398438 288.460938 C 255.417969 287.660156 257.328125 286.902344 259.894531 284.878906 C 260.492188 284.410156 261.339844 283.222656 261.257812 282.511719 C 261.238281 282.332031 261.160156 282.183594 261.027344 282.085938 C 261.160156 281.195312 260.179688 277.78125 259.703125 276.851562 C 257.246094 272.0625 253.902344 269.734375 249.484375 269.734375 C 245.191406 269.734375 240.59375 272 236.898438 273.820312 C 234.523438 274.984375 232.445312 276.011719 230.929688 276.234375 C 231.074219 276.125 231.261719 276.007812 231.429688 275.898438 C 231.933594 275.578125 232.566406 275.171875 233.007812 274.695312 C 233.417969 274.25 233.84375 274.214844 234.429688 274.171875 C 235.113281 274.125 235.960938 274.058594 237.101562 273.3125 C 238.058594 272.6875 239.054688 272.101562 240.109375 271.476562 C 243.074219 269.726562 246.136719 267.917969 248.660156 265.082031 C 248.691406 265.042969 248.726562 265.011719 248.765625 264.976562 C 248.917969 264.84375 249.144531 264.644531 249 264.347656 C 248.886719 264.105469 248.703125 264.050781 248.574219 264.050781 C 248.402344 264.050781 248.234375 264.140625 248.109375 264.203125 L 248.074219 264.222656 C 247.316406 264.609375 246.597656 264.789062 245.871094 264.789062 C 245.371094 264.789062 244.945312 264.707031 244.535156 264.632812 C 244.1875 264.566406 243.859375 264.503906 243.542969 264.503906 C 242.960938 264.503906 242.503906 264.714844 242.054688 265.1875 C 241.542969 265.730469 231.429688 274.679688 231.355469 274.742188 C 228.289062 276.929688 226.550781 277.605469 224.535156 278.382812 C 223.238281 278.882812 221.761719 279.453125 219.730469 280.511719 C 219.648438 280.558594 219.578125 280.625 219.519531 280.6875 C 219.46875 280.742188 219.402344 280.8125 219.363281 280.8125 C 219.351562 280.8125 219.332031 280.804688 219.316406 280.792969 C 219.261719 280.753906 219.253906 280.71875 219.316406 280.53125 C 219.335938 280.449219 219.363281 280.363281 219.363281 280.277344 C 219.726562 272.40625 216.730469 269.792969 215.285156 268.535156 C 214.828125 268.136719 214.496094 267.84375 214.503906 267.609375 C 214.511719 267.449219 214.667969 267.265625 214.988281 267.035156 C 216.6875 265.808594 218.613281 264.417969 220.691406 263.363281 C 225.484375 260.921875 227.84375 259.300781 229.738281 257.992188 C 231.527344 256.761719 232.820312 255.871094 235.308594 254.945312 C 236.710938 254.421875 238.125 254.15625 239.511719 254.15625 C 242.234375 254.15625 244.78125 255.199219 246.503906 257.019531 C 247.742188 258.332031 248.410156 259.9375 248.324219 261.421875 C 248.324219 261.46875 248.316406 261.523438 248.308594 261.578125 C 248.277344 261.855469 248.222656 262.328125 248.679688 262.402344 C 248.71875 262.410156 248.757812 262.414062 248.792969 262.414062 C 249.25 262.414062 249.332031 261.945312 249.386719 261.640625 C 249.394531 261.597656 249.402344 261.558594 249.410156 261.519531 C 249.808594 259.546875 249.21875 258.332031 248.34375 256.832031 C 248.335938 256.820312 248.328125 256.8125 248.320312 256.800781 C 245.617188 254.105469 242.875 252.789062 239.933594 252.789062 C 235.949219 252.789062 231.847656 255.214844 228.011719 257.835938 C 224.769531 260.046875 223.058594 261.207031 222.625 261.207031 C 222.578125 261.136719 222.652344 260.78125 222.710938 260.523438 C 222.816406 260.019531 222.96875 259.324219 222.886719 258.582031 C 222.515625 255.113281 221.152344 253.515625 218.183594 253.074219 C 217.710938 252.984375 217.222656 252.9375 216.734375 252.9375 C 216.261719 252.9375 215.777344 252.984375 215.300781 253.070312 C 209.46875 254.457031 207.101562 257.25 205.6875 258.914062 C 204.988281 259.734375 204.527344 260.277344 204.011719 260.277344 C 203.863281 260.277344 203.707031 260.230469 203.539062 260.140625 C 198.503906 257.449219 196.792969 256.847656 193.039062 255.527344 C 189.277344 254.207031 183.601562 252.210938 170.625 246.742188 C 158.613281 241.675781 151.636719 231.46875 144.25 220.664062 C 135.886719 208.429688 127.234375 195.769531 110.464844 189.6875 C 103.609375 187.199219 99.214844 185.136719 94.972656 183.144531 C 90.023438 180.820312 85.34375 178.625 77.546875 176.253906 C 62.964844 171.824219 50.152344 166.285156 49.53125 165.835938 C 49.410156 165.570312 49.179688 165.433594 48.859375 165.433594 C 46.9375 165.433594 41.53125 170.792969 36.554688 178.765625 C 32.949219 184.542969 26.773438 196.273438 25.9375 209.90625 C 25.832031 211.601562 30.449219 212.960938 37.433594 215.015625 C 48.023438 218.136719 62.527344 222.410156 69.339844 230.550781 C 70.078125 231.429688 70.945312 232.425781 71.863281 233.484375 C 77.707031 240.214844 86.535156 250.386719 94.324219 266.234375 C 98.289062 274.296875 101.359375 281.011719 104.074219 286.941406 C 109.109375 297.945312 112.4375 305.21875 116.695312 310.597656 C 120.984375 316.011719 126.175781 319.371094 134.617188 322.210938 C 169.847656 334.050781 180.339844 337.464844 187.925781 337.464844 C 191.734375 337.464844 194.585938 336.554688 198.898438 335.183594 L 199.898438 334.871094 C 202.929688 333.90625 218.394531 329.109375 224.839844 329.054688 C 230.652344 329 234.730469 328.058594 238.679688 327.148438 C 241.699219 326.449219 244.550781 325.789062 248.015625 325.5625 C 248.121094 325.554688 258.011719 324.796875 258.378906 322.625 C 258.585938 322.589844 258.785156 322.421875 258.898438 322.253906 C 260.738281 319.585938 260.910156 316.226562 259.359375 313.28125 C 256.5625 307.953125 249.058594 304.898438 238.773438 304.898438 C 238.042969 304.898438 237.285156 304.910156 236.527344 304.945312 C 225.085938 305.394531 220.082031 306.425781 217.945312 306.867188 C 217.398438 306.980469 217.039062 307.054688 216.859375 307.054688 C 216.855469 307.054688 216.851562 307.054688 216.847656 307.054688 C 216.972656 306.96875 217.320312 306.832031 217.652344 306.703125 C 218.4375 306.398438 219.621094 305.9375 221.054688 305.0625 " fill-opacity="1" fill-rule="nonzero"/></g></svg>