<svg xmlns="http://www.w3.org/2000/svg" xmlns:xlink="http://www.w3.org/1999/xlink" width="500" zoomAndPan="magnify" viewBox="0 0 375 374.999991" height="500" preserveAspectRatio="xMidYMid meet" version="1.0"><defs><clipPath id="17b17b4aeb"><path d="M 5.617188 190 L 17 190 L 17 206 L 5.617188 206 Z M 5.617188 190 " clip-rule="nonzero"/></clipPath><clipPath id="22b1b64c26"><path d="M 193 115.429688 L 197 115.429688 L 197 118 L 193 118 Z M 193 115.429688 " clip-rule="nonzero"/></clipPath><clipPath id="84815e8397"><path d="M 364 195 L 369.367188 195 L 369.367188 203 L 364 203 Z M 364 195 " clip-rule="nonzero"/></clipPath><clipPath id="0c89effc7e"><path d="M 268 255 L 273 255 L 273 259.429688 L 268 259.429688 Z M 268 255 " clip-rule="nonzero"/></clipPath><clipPath id="5886c7391c"><path d="M 185 248 L 197 248 L 197 259.429688 L 185 259.429688 Z M 185 248 " clip-rule="nonzero"/></clipPath></defs><path fill="#c62328" d="M 49.09375 130.421875 C 49.191406 127.625 49.976562 126.976562 51.609375 126.839844 C 49.980469 126.699219 49.363281 126.433594 49.164062 123.421875 C 48.859375 126.378906 48.164062 126.699219 46.679688 126.808594 C 48.132812 126.882812 48.871094 127.621094 49.09375 130.421875 " fill-opacity="1" fill-rule="nonzero"/><path fill="#c62328" d="M 78.152344 220.742188 C 77.84375 223.703125 77.148438 224.023438 75.664062 224.128906 C 77.117188 224.203125 77.855469 224.945312 78.078125 227.742188 C 78.175781 224.949219 78.964844 224.296875 80.597656 224.160156 C 78.964844 224.019531 78.347656 223.753906 78.152344 220.742188 " fill-opacity="1" fill-rule="nonzero"/><path fill="#c62328" d="M 229.097656 145.746094 C 227.484375 145.605469 226.867188 145.34375 226.675781 142.355469 C 226.367188 145.289062 225.679688 145.605469 224.207031 145.71875 C 225.648438 145.789062 226.378906 146.523438 226.605469 149.300781 C 226.699219 146.527344 227.484375 145.882812 229.097656 145.746094 " fill-opacity="1" fill-rule="nonzero"/><path fill="#c62328" d="M 235.21875 242.179688 C 234.75 240.464844 234.011719 239.386719 232.902344 238.804688 C 234.039062 238.359375 234.824219 237.457031 235.351562 235.5 C 235.796875 237.492188 236.554688 238.394531 237.746094 238.84375 C 236.445312 239.414062 235.652344 240.457031 235.21875 242.179688 Z M 240.15625 238.316406 C 237.492188 238.085938 236.273438 237.980469 235.898438 232.203125 C 235.886719 231.953125 235.679688 231.753906 235.429688 231.75 C 235.171875 231.742188 234.96875 231.933594 234.941406 232.179688 C 234.363281 237.738281 233.125 238.074219 230.613281 238.261719 C 230.355469 238.277344 230.164062 238.492188 230.164062 238.742188 C 230.167969 239 230.367188 239.207031 230.621094 239.21875 C 233.003906 239.339844 234.375 240.410156 234.804688 245.71875 C 234.824219 245.96875 235.035156 246.15625 235.28125 246.160156 C 235.285156 246.160156 235.289062 246.160156 235.292969 246.160156 C 235.550781 246.15625 235.753906 245.949219 235.765625 245.695312 C 235.941406 240.535156 237.316406 239.511719 240.15625 239.273438 C 240.40625 239.253906 240.597656 239.046875 240.597656 238.796875 C 240.597656 238.546875 240.40625 238.339844 240.15625 238.316406 " fill-opacity="1" fill-rule="nonzero"/><g clip-path="url(#17b17b4aeb)"><path fill="#c62328" d="M 10.667969 201.046875 C 10.199219 199.335938 9.464844 198.257812 8.351562 197.671875 C 9.488281 197.230469 10.277344 196.324219 10.804688 194.371094 C 11.25 196.359375 12.007812 197.261719 13.199219 197.710938 C 11.898438 198.285156 11.105469 199.328125 10.667969 201.046875 Z M 15.609375 197.1875 C 12.941406 196.957031 11.726562 196.851562 11.355469 191.066406 C 11.335938 190.820312 11.132812 190.625 10.882812 190.617188 C 10.625 190.613281 10.417969 190.800781 10.394531 191.050781 C 9.8125 196.605469 8.578125 196.941406 6.0625 197.125 C 5.808594 197.148438 5.613281 197.359375 5.617188 197.613281 C 5.617188 197.867188 5.820312 198.074219 6.074219 198.085938 C 8.457031 198.210938 9.828125 199.28125 10.253906 204.585938 C 10.277344 204.835938 10.480469 205.027344 10.730469 205.027344 C 10.738281 205.027344 10.738281 205.027344 10.746094 205.027344 C 11 205.019531 11.207031 204.820312 11.214844 204.5625 C 11.390625 199.402344 12.769531 198.382812 15.609375 198.144531 C 15.859375 198.125 16.050781 197.914062 16.050781 197.667969 C 16.050781 197.417969 15.859375 197.207031 15.609375 197.1875 " fill-opacity="1" fill-rule="nonzero"/></g><path fill="#c62328" d="M 84.992188 144.660156 C 85.617188 144.664062 86.121094 145.175781 86.117188 145.800781 C 86.113281 146.425781 85.601562 146.933594 84.980469 146.925781 C 84.355469 146.925781 83.847656 146.414062 83.851562 145.789062 C 83.851562 145.164062 84.363281 144.65625 84.992188 144.660156 Z M 84.96875 147.890625 C 86.128906 147.898438 87.074219 146.964844 87.082031 145.808594 C 87.085938 144.652344 86.152344 143.703125 84.996094 143.699219 C 83.84375 143.691406 82.894531 144.625 82.890625 145.78125 C 82.882812 146.9375 83.816406 147.882812 84.96875 147.890625 " fill-opacity="1" fill-rule="nonzero"/><path fill="#c62328" d="M 111.601562 120.308594 C 112.242188 120.308594 112.765625 119.792969 112.765625 119.152344 C 112.773438 118.511719 112.253906 117.992188 111.617188 117.984375 C 110.972656 117.984375 110.449219 118.5 110.449219 119.140625 C 110.445312 119.777344 110.960938 120.300781 111.601562 120.308594 " fill-opacity="1" fill-rule="nonzero"/><path fill="#c62328" d="M 149.800781 157.617188 C 149.457031 157.617188 149.175781 157.890625 149.175781 158.234375 C 149.175781 158.574219 149.449219 158.851562 149.789062 158.851562 C 150.132812 158.855469 150.410156 158.578125 150.414062 158.238281 C 150.414062 157.898438 150.140625 157.617188 149.800781 157.617188 " fill-opacity="1" fill-rule="nonzero"/><path fill="#c62328" d="M 349.300781 236.054688 C 348.644531 236.050781 348.113281 236.578125 348.105469 237.230469 C 348.105469 237.886719 348.628906 238.421875 349.285156 238.425781 C 349.941406 238.429688 350.472656 237.902344 350.476562 237.25 C 350.480469 236.59375 349.953125 236.058594 349.300781 236.054688 " fill-opacity="1" fill-rule="nonzero"/><path fill="#c62328" d="M 366.707031 158.828125 C 367.363281 158.832031 367.898438 158.304688 367.898438 157.648438 C 367.90625 156.992188 367.378906 156.460938 366.722656 156.457031 C 366.066406 156.453125 365.53125 156.980469 365.53125 157.636719 C 365.523438 158.289062 366.054688 158.824219 366.707031 158.828125 " fill-opacity="1" fill-rule="nonzero"/><path fill="#c62328" d="M 289.777344 148.167969 C 289.121094 148.160156 288.585938 148.691406 288.582031 149.34375 C 288.578125 150 289.105469 150.535156 289.757812 150.535156 C 290.417969 150.539062 290.949219 150.015625 290.953125 149.355469 C 290.957031 148.703125 290.429688 148.167969 289.777344 148.167969 " fill-opacity="1" fill-rule="nonzero"/><g clip-path="url(#22b1b64c26)"><path fill="#c62328" d="M 194.871094 117.988281 C 195.527344 117.996094 196.058594 117.464844 196.066406 116.8125 C 196.066406 116.15625 195.542969 115.621094 194.886719 115.617188 C 194.230469 115.613281 193.699219 116.140625 193.695312 116.796875 C 193.691406 117.453125 194.21875 117.984375 194.871094 117.988281 " fill-opacity="1" fill-rule="nonzero"/></g><path fill="#c62328" d="M 266.074219 117.597656 C 266.285156 117.597656 266.457031 117.769531 266.457031 117.984375 C 266.453125 118.191406 266.28125 118.363281 266.070312 118.363281 C 265.859375 118.359375 265.6875 118.1875 265.691406 117.976562 C 265.691406 117.765625 265.863281 117.597656 266.074219 117.597656 Z M 266.0625 119.324219 C 266.804688 119.328125 267.414062 118.730469 267.417969 117.988281 C 267.421875 117.246094 266.824219 116.640625 266.082031 116.636719 C 265.339844 116.628906 264.730469 117.230469 264.726562 117.972656 C 264.722656 118.714844 265.320312 119.320312 266.0625 119.324219 " fill-opacity="1" fill-rule="nonzero"/><path fill="#c62328" d="M 31.605469 232.835938 C 31.433594 232.835938 31.292969 232.695312 31.292969 232.523438 C 31.292969 232.347656 31.433594 232.207031 31.609375 232.210938 C 31.78125 232.210938 31.921875 232.351562 31.921875 232.523438 C 31.921875 232.699219 31.777344 232.835938 31.605469 232.835938 Z M 31.613281 231.246094 C 30.910156 231.242188 30.335938 231.8125 30.332031 232.515625 C 30.328125 233.21875 30.894531 233.796875 31.601562 233.796875 C 32.300781 233.804688 32.878906 233.234375 32.882812 232.53125 C 32.886719 231.824219 32.320312 231.253906 31.613281 231.246094 " fill-opacity="1" fill-rule="nonzero"/><g clip-path="url(#84815e8397)"><path fill="#c62328" d="M 366.707031 200.15625 C 366.566406 199.867188 366.386719 199.621094 366.160156 199.425781 C 366.390625 199.261719 366.578125 199.035156 366.738281 198.730469 C 366.878906 199.042969 367.066406 199.265625 367.292969 199.433594 C 367.054688 199.617188 366.859375 199.859375 366.707031 200.15625 Z M 368.9375 198.917969 C 367.804688 198.820312 367.425781 198.785156 367.273438 196.425781 C 367.253906 196.175781 367.054688 195.980469 366.804688 195.972656 C 366.550781 195.972656 366.339844 196.15625 366.3125 196.40625 C 366.0625 198.785156 365.582031 198.820312 364.613281 198.890625 C 364.363281 198.910156 364.167969 199.121094 364.171875 199.378906 C 364.175781 199.628906 364.375 199.835938 364.628906 199.851562 C 365.457031 199.894531 366.054688 200.109375 366.25 202.519531 C 366.273438 202.769531 366.480469 202.960938 366.726562 202.964844 C 366.730469 202.964844 366.738281 202.964844 366.742188 202.964844 C 366.996094 202.957031 367.203125 202.753906 367.210938 202.496094 C 367.289062 200.183594 367.914062 199.964844 368.9375 199.878906 C 369.183594 199.855469 369.378906 199.648438 369.378906 199.398438 C 369.378906 199.148438 369.1875 198.941406 368.9375 198.917969 " fill-opacity="1" fill-rule="nonzero"/></g><g clip-path="url(#0c89effc7e)"><path fill="#c62328" d="M 270.878906 258.425781 C 270.332031 258.421875 269.894531 257.976562 269.898438 257.429688 C 269.902344 256.890625 270.347656 256.449219 270.890625 256.449219 C 271.433594 256.453125 271.875 256.898438 271.871094 257.441406 C 271.867188 257.988281 271.421875 258.429688 270.878906 258.425781 Z M 270.894531 255.492188 C 269.820312 255.480469 268.941406 256.351562 268.933594 257.425781 C 268.929688 258.5 269.796875 259.382812 270.871094 259.386719 C 271.945312 259.390625 272.824219 258.527344 272.832031 257.453125 C 272.839844 256.375 271.96875 255.496094 270.894531 255.492188 " fill-opacity="1" fill-rule="nonzero"/></g><path fill="#c62328" d="M 161.597656 225.457031 C 161.050781 225.453125 160.613281 225.007812 160.617188 224.464844 C 160.617188 223.921875 161.066406 223.480469 161.609375 223.484375 C 162.152344 223.488281 162.59375 223.933594 162.589844 224.476562 C 162.585938 225.023438 162.140625 225.464844 161.597656 225.457031 Z M 161.613281 222.523438 C 160.539062 222.515625 159.65625 223.386719 159.652344 224.460938 C 159.648438 225.535156 160.515625 226.414062 161.589844 226.421875 C 162.664062 226.425781 163.542969 225.558594 163.550781 224.484375 C 163.558594 223.410156 162.6875 222.53125 161.613281 222.523438 " fill-opacity="1" fill-rule="nonzero"/><path fill="#c62328" d="M 12.757812 155.421875 C 13.300781 155.425781 13.742188 155.871094 13.738281 156.417969 C 13.734375 156.960938 13.289062 157.398438 12.746094 157.398438 C 12.199219 157.394531 11.761719 156.949219 11.761719 156.40625 C 11.769531 155.859375 12.210938 155.417969 12.757812 155.421875 Z M 12.742188 158.359375 C 13.816406 158.367188 14.691406 157.496094 14.699219 156.421875 C 14.707031 155.347656 13.835938 154.46875 12.761719 154.460938 C 11.6875 154.457031 10.808594 155.324219 10.800781 156.398438 C 10.792969 157.472656 11.664062 158.351562 12.742188 158.359375 " fill-opacity="1" fill-rule="nonzero"/><path fill="#c62328" d="M 153.15625 123.632812 C 152.726562 124.0625 151.554688 125.085938 150.742188 125.648438 C 150.722656 125.628906 150.703125 125.605469 150.6875 125.578125 C 150.191406 124.753906 149.875 120.496094 149.875 119.132812 C 149.875 120.496094 149.5625 124.753906 149.070312 125.578125 C 149.066406 125.578125 149.066406 125.578125 149.066406 125.578125 C 148.195312 124.941406 146.9375 123.828125 146.515625 123.40625 C 146.929688 123.820312 148.015625 125.042969 148.652344 125.914062 C 147.527344 126.371094 143.125 126.652344 141.824219 126.652344 C 143.191406 126.652344 147.976562 126.96875 148.800781 127.464844 C 148.816406 127.476562 148.832031 127.488281 148.84375 127.496094 C 148.253906 128.367188 146.976562 129.8125 146.515625 130.269531 C 146.953125 129.832031 148.308594 128.632812 149.1875 128.011719 C 149.613281 129.320312 149.875 133.457031 149.875 134.707031 C 149.875 133.429688 150.152344 129.144531 150.59375 127.933594 C 151.445312 128.503906 152.855469 129.75 153.316406 130.207031 C 152.847656 129.738281 151.5625 128.28125 151.007812 127.4375 C 151.953125 126.957031 156.441406 126.652344 157.78125 126.652344 C 156.519531 126.652344 152.449219 126.386719 151.199219 125.953125 C 151.773438 125.148438 152.742188 124.042969 153.15625 123.632812 " fill-opacity="1" fill-rule="nonzero"/><path fill="#c62328" d="M 307.863281 236.242188 C 307.515625 236.589844 306.566406 237.417969 305.914062 237.875 C 305.894531 237.855469 305.878906 237.839844 305.863281 237.816406 C 305.464844 237.152344 305.210938 233.707031 305.210938 232.601562 C 305.210938 233.707031 304.957031 237.152344 304.554688 237.816406 C 303.847656 237.300781 302.832031 236.402344 302.492188 236.0625 C 302.828125 236.394531 303.703125 237.382812 304.222656 238.089844 C 303.3125 238.457031 299.75 238.6875 298.699219 238.6875 C 299.800781 238.6875 303.671875 238.941406 304.339844 239.34375 C 304.351562 239.351562 304.359375 239.363281 304.371094 239.371094 C 303.894531 240.074219 302.859375 241.246094 302.492188 241.613281 C 302.847656 241.257812 303.945312 240.285156 304.652344 239.785156 C 304.996094 240.847656 305.210938 244.191406 305.210938 245.203125 C 305.210938 244.167969 305.433594 240.703125 305.789062 239.722656 C 306.476562 240.183594 307.621094 241.191406 307.992188 241.5625 C 307.613281 241.183594 306.574219 240.003906 306.125 239.320312 C 306.890625 238.933594 310.519531 238.6875 311.601562 238.6875 C 310.582031 238.6875 307.292969 238.46875 306.28125 238.121094 C 306.746094 237.46875 307.527344 236.578125 307.863281 236.242188 " fill-opacity="1" fill-rule="nonzero"/><path fill="#c62328" d="M 119.492188 249.121094 C 119.199219 249.414062 118.40625 250.109375 117.855469 250.496094 C 117.84375 250.476562 117.824219 250.464844 117.816406 250.445312 C 117.480469 249.886719 117.265625 246.992188 117.265625 246.0625 C 117.265625 246.992188 117.050781 249.886719 116.714844 250.445312 C 116.121094 250.011719 115.269531 249.253906 114.980469 248.96875 C 115.261719 249.25 116 250.078125 116.4375 250.671875 C 115.671875 250.984375 112.675781 251.175781 111.792969 251.175781 C 112.722656 251.175781 115.976562 251.390625 116.535156 251.726562 C 116.542969 251.734375 116.550781 251.742188 116.5625 251.75 C 116.160156 252.339844 115.289062 253.320312 114.980469 253.636719 C 115.277344 253.335938 116.199219 252.519531 116.792969 252.101562 C 117.085938 252.988281 117.265625 255.800781 117.265625 256.648438 C 117.265625 255.78125 117.453125 252.867188 117.753906 252.042969 C 118.332031 252.433594 119.289062 253.28125 119.605469 253.59375 C 119.285156 253.273438 118.410156 252.28125 118.03125 251.707031 C 118.679688 251.382812 121.726562 251.175781 122.636719 251.175781 C 121.777344 251.175781 119.011719 250.996094 118.164062 250.699219 C 118.554688 250.152344 119.210938 249.402344 119.492188 249.121094 " fill-opacity="1" fill-rule="nonzero"/><path fill="#c62328" d="M 317.878906 121.761719 C 317.480469 122.351562 316.609375 123.335938 316.296875 123.648438 C 316.59375 123.347656 317.515625 122.53125 318.113281 122.113281 C 318.402344 123 318.582031 125.8125 318.582031 126.660156 C 318.582031 125.792969 318.769531 122.878906 319.070312 122.058594 C 319.648438 122.445312 320.609375 123.292969 320.921875 123.605469 C 320.601562 123.285156 319.730469 122.292969 319.347656 121.71875 C 319.996094 121.394531 323.042969 121.1875 323.953125 121.1875 C 323.09375 121.1875 320.328125 121.007812 319.480469 120.710938 C 319.871094 120.164062 320.527344 119.414062 320.808594 119.132812 C 320.515625 119.425781 319.722656 120.121094 319.171875 120.507812 C 319.160156 120.488281 319.140625 120.476562 319.132812 120.457031 C 318.796875 119.898438 318.582031 117.003906 318.582031 116.074219 C 318.582031 117.003906 318.367188 119.898438 318.035156 120.457031 C 318.035156 120.457031 318.03125 120.457031 318.03125 120.457031 C 317.4375 120.027344 316.585938 119.265625 316.296875 118.980469 C 316.578125 119.261719 317.316406 120.089844 317.753906 120.6875 C 316.988281 120.996094 313.992188 121.1875 313.109375 121.1875 C 314.039062 121.1875 317.292969 121.402344 317.851562 121.738281 C 317.859375 121.746094 317.867188 121.753906 317.878906 121.761719 " fill-opacity="1" fill-rule="nonzero"/><g clip-path="url(#5886c7391c)"><path fill="#c62328" d="M 192.03125 252.6875 C 191.429688 251.683594 191.050781 250.199219 191.050781 248.535156 C 191.050781 250.199219 190.664062 251.683594 190.0625 252.6875 C 189.984375 252.820312 189.871094 252.929688 189.738281 253.007812 C 188.738281 253.613281 187.253906 253.996094 185.589844 253.996094 C 187.253906 253.996094 188.738281 254.375 189.738281 254.980469 C 189.871094 255.0625 189.984375 255.171875 190.0625 255.304688 C 190.664062 256.304688 191.050781 257.792969 191.050781 259.453125 C 191.050781 257.792969 191.429688 256.304688 192.03125 255.304688 C 192.113281 255.171875 192.226562 255.0625 192.359375 254.980469 C 193.359375 254.375 194.847656 253.996094 196.507812 253.996094 C 194.847656 253.996094 193.359375 253.613281 192.359375 253.007812 C 192.226562 252.929688 192.113281 252.820312 192.03125 252.6875 " fill-opacity="1" fill-rule="nonzero"/></g><path fill="#c62328" d="M 253.402344 189.339844 C 253.421875 190.398438 252.578125 191.28125 251.515625 191.300781 C 250.457031 191.324219 249.574219 190.480469 249.554688 189.417969 C 249.53125 188.355469 250.378906 187.476562 251.441406 187.457031 C 252.5 187.433594 253.378906 188.28125 253.402344 189.339844 Z M 253.234375 169.582031 C 253.023438 169.582031 252.855469 169.417969 252.847656 169.210938 C 252.847656 169.003906 253.011719 168.828125 253.21875 168.828125 C 253.425781 168.820312 253.597656 168.984375 253.601562 169.195312 C 253.609375 169.402344 253.441406 169.574219 253.234375 169.582031 Z M 258.03125 204.207031 C 258.042969 204.660156 257.683594 205.035156 257.230469 205.042969 C 256.78125 205.050781 256.40625 204.691406 256.394531 204.238281 C 256.382812 203.789062 256.746094 203.414062 257.199219 203.40625 C 257.648438 203.394531 258.023438 203.757812 258.03125 204.207031 Z M 257.34375 179.308594 C 256.949219 179.316406 256.625 179.007812 256.621094 178.617188 C 256.613281 178.226562 256.921875 177.902344 257.3125 177.894531 C 257.703125 177.886719 258.023438 178.195312 258.03125 178.589844 C 258.042969 178.976562 257.730469 179.300781 257.34375 179.308594 Z M 227.648438 184.636719 C 227.648438 171.023438 238.722656 159.945312 252.335938 159.945312 C 254.652344 159.945312 256.941406 160.265625 259.148438 160.898438 C 249.375 164.359375 242.375 173.679688 242.375 184.636719 C 242.375 195.59375 249.375 204.917969 259.148438 208.378906 C 256.941406 209.007812 254.652344 209.328125 252.335938 209.328125 C 238.722656 209.328125 227.648438 198.253906 227.648438 184.636719 Z M 268.09375 171.316406 C 268.085938 171.109375 268.253906 170.9375 268.460938 170.933594 C 268.671875 170.925781 268.84375 171.09375 268.847656 171.300781 C 268.847656 171.511719 268.6875 171.679688 268.476562 171.6875 C 268.269531 171.6875 268.097656 171.523438 268.09375 171.316406 Z M 268.871094 189.984375 C 268.878906 190.414062 268.539062 190.769531 268.109375 190.78125 C 267.679688 190.789062 267.324219 190.445312 267.316406 190.019531 C 267.304688 189.589844 267.648438 189.230469 268.078125 189.222656 C 268.503906 189.214844 268.863281 189.554688 268.871094 189.984375 Z M 267.273438 163.761719 C 265.074219 162.1875 262.660156 160.976562 260.09375 160.164062 C 257.59375 159.371094 254.984375 158.972656 252.335938 158.972656 C 248.875 158.972656 245.511719 159.652344 242.347656 160.988281 C 239.289062 162.28125 236.546875 164.132812 234.1875 166.488281 C 231.832031 168.847656 229.980469 171.589844 228.6875 174.648438 C 227.347656 177.808594 226.671875 181.171875 226.671875 184.636719 C 226.671875 188.105469 227.347656 191.460938 228.6875 194.628906 C 229.980469 197.683594 231.832031 200.429688 234.1875 202.789062 C 236.546875 205.144531 239.289062 206.992188 242.347656 208.285156 C 245.511719 209.625 248.875 210.304688 252.335938 210.304688 C 254.984375 210.304688 257.59375 209.902344 260.09375 209.109375 C 262.660156 208.296875 265.074219 207.085938 267.273438 205.511719 C 269.441406 203.957031 271.351562 202.085938 272.941406 199.941406 C 276.253906 195.492188 278.003906 190.199219 278.003906 184.636719 C 278.003906 179.074219 276.253906 173.78125 272.941406 169.332031 C 271.351562 167.191406 269.441406 165.316406 267.273438 163.761719 " fill-opacity="1" fill-rule="nonzero"/><path fill="#c62328" d="M 247.382812 162.960938 C 247.761719 162.953125 248.078125 163.257812 248.082031 163.636719 C 248.09375 164.019531 247.789062 164.335938 247.410156 164.34375 C 247.027344 164.351562 246.710938 164.046875 246.703125 163.667969 C 246.695312 163.285156 246.996094 162.96875 247.382812 162.960938 Z M 247.417969 164.929688 C 248.125 164.914062 248.6875 164.328125 248.671875 163.625 C 248.65625 162.921875 248.070312 162.359375 247.367188 162.375 C 246.664062 162.386719 246.101562 162.972656 246.117188 163.675781 C 246.132812 164.382812 246.714844 164.941406 247.417969 164.929688 " fill-opacity="1" fill-rule="nonzero"/><path fill="#c62328" d="M 238.328125 169.203125 C 238.535156 169.199219 238.699219 169.027344 238.695312 168.820312 C 238.691406 168.609375 238.519531 168.445312 238.3125 168.449219 C 238.105469 168.453125 237.9375 168.625 237.945312 168.832031 C 237.945312 169.039062 238.121094 169.207031 238.328125 169.203125 " fill-opacity="1" fill-rule="nonzero"/><path fill="#c62328" d="M 239.726562 190.28125 C 239.519531 190.285156 239.351562 190.457031 239.355469 190.664062 C 239.359375 190.871094 239.53125 191.035156 239.738281 191.035156 C 239.945312 191.027344 240.113281 190.859375 240.109375 190.648438 C 240.105469 190.441406 239.933594 190.273438 239.726562 190.28125 " fill-opacity="1" fill-rule="nonzero"/><path fill="#c62328" d="M 234.449219 194.152344 C 233.722656 194.167969 233.144531 194.773438 233.15625 195.503906 C 233.171875 196.234375 233.777344 196.8125 234.503906 196.796875 C 235.234375 196.78125 235.816406 196.179688 235.800781 195.449219 C 235.785156 194.71875 235.183594 194.140625 234.449219 194.152344 " fill-opacity="1" fill-rule="nonzero"/><path fill="#c62328" d="M 243.691406 203.636719 C 243.5625 203.640625 243.457031 203.539062 243.453125 203.410156 C 243.449219 203.28125 243.554688 203.175781 243.679688 203.171875 C 243.808594 203.167969 243.917969 203.269531 243.921875 203.398438 C 243.921875 203.53125 243.820312 203.632812 243.691406 203.636719 Z M 243.667969 202.585938 C 243.21875 202.59375 242.855469 202.96875 242.867188 203.421875 C 242.878906 203.875 243.253906 204.234375 243.703125 204.222656 C 244.15625 204.214844 244.515625 203.839844 244.503906 203.386719 C 244.496094 202.933594 244.121094 202.574219 243.667969 202.585938 " fill-opacity="1" fill-rule="nonzero"/><path fill="#c62328" d="M 230.355469 184.507812 C 230.25 184.511719 230.164062 184.425781 230.164062 184.320312 C 230.160156 184.214844 230.246094 184.128906 230.347656 184.128906 C 230.457031 184.125 230.539062 184.207031 230.542969 184.316406 C 230.546875 184.421875 230.464844 184.507812 230.355469 184.507812 Z M 230.339844 183.539062 C 229.910156 183.546875 229.566406 183.90625 229.578125 184.335938 C 229.585938 184.761719 229.941406 185.105469 230.371094 185.097656 C 230.800781 185.089844 231.140625 184.730469 231.132812 184.300781 C 231.121094 183.875 230.765625 183.53125 230.339844 183.539062 " fill-opacity="1" fill-rule="nonzero"/><path fill="#c62328" d="M 238.558594 179.910156 C 238.226562 179.917969 237.949219 179.652344 237.945312 179.320312 C 237.933594 178.988281 238.199219 178.714844 238.53125 178.707031 C 238.863281 178.699219 239.140625 178.964844 239.144531 179.296875 C 239.152344 179.628906 238.890625 179.90625 238.558594 179.910156 Z M 239.730469 179.285156 C 239.71875 178.632812 239.175781 178.109375 238.519531 178.121094 C 237.863281 178.132812 237.34375 178.679688 237.355469 179.332031 C 237.371094 179.988281 237.914062 180.511719 238.570312 180.496094 C 239.226562 180.484375 239.746094 179.9375 239.730469 179.285156 " fill-opacity="1" fill-rule="nonzero"/><path fill="#c62328" d="M 251.464844 188.6875 C 251.082031 188.695312 250.777344 189.011719 250.785156 189.394531 C 250.792969 189.773438 251.109375 190.078125 251.492188 190.070312 C 251.871094 190.0625 252.175781 189.746094 252.171875 189.367188 C 252.160156 188.984375 251.84375 188.679688 251.464844 188.6875 " fill-opacity="1" fill-rule="nonzero"/><path fill="#c62328" d="M 257.207031 203.988281 C 257.082031 203.992188 256.976562 204.101562 256.980469 204.230469 C 256.984375 204.355469 257.089844 204.457031 257.21875 204.457031 C 257.347656 204.457031 257.449219 204.347656 257.449219 204.21875 C 257.445312 204.09375 257.335938 203.988281 257.207031 203.988281 " fill-opacity="1" fill-rule="nonzero"/><path fill="#c62328" d="M 267.902344 190.003906 C 267.902344 190.109375 267.992188 190.195312 268.097656 190.191406 C 268.203125 190.191406 268.285156 190.105469 268.285156 190 C 268.28125 189.890625 268.195312 189.808594 268.089844 189.8125 C 267.984375 189.8125 267.898438 189.898438 267.902344 190.003906 " fill-opacity="1" fill-rule="nonzero"/><path fill="#c62328" d="M 183.53125 204.800781 C 183.402344 204.800781 183.296875 204.902344 183.292969 205.03125 C 183.292969 205.160156 183.394531 205.265625 183.519531 205.269531 C 183.652344 205.273438 183.757812 205.167969 183.761719 205.042969 C 183.761719 204.914062 183.660156 204.804688 183.53125 204.800781 " fill-opacity="1" fill-rule="nonzero"/><path fill="#c62328" d="M 191.027344 164.007812 C 190.644531 164 190.332031 164.304688 190.320312 164.683594 C 190.3125 165.066406 190.617188 165.378906 191 165.386719 C 191.382812 165.398438 191.699219 165.09375 191.703125 164.710938 C 191.710938 164.332031 191.40625 164.011719 191.027344 164.007812 " fill-opacity="1" fill-rule="nonzero"/><path fill="#c62328" d="M 181.902344 192.394531 C 181.425781 192.386719 181.027344 192.765625 181.019531 193.242188 C 181.007812 193.71875 181.390625 194.117188 181.867188 194.125 C 182.34375 194.136719 182.738281 193.757812 182.75 193.277344 C 182.757812 192.800781 182.378906 192.402344 181.902344 192.394531 " fill-opacity="1" fill-rule="nonzero"/><path fill="#c62328" d="M 180.796875 180.636719 C 180.800781 180.53125 180.714844 180.441406 180.609375 180.4375 C 180.507812 180.4375 180.417969 180.523438 180.414062 180.625 C 180.414062 180.730469 180.496094 180.820312 180.601562 180.824219 C 180.707031 180.824219 180.796875 180.742188 180.796875 180.636719 " fill-opacity="1" fill-rule="nonzero"/><path fill="#c62328" d="M 195.890625 182.738281 C 195.066406 182.722656 194.378906 183.382812 194.359375 184.210938 C 194.34375 185.039062 195.003906 185.726562 195.832031 185.742188 C 196.664062 185.757812 197.347656 185.101562 197.363281 184.273438 C 197.382812 183.441406 196.722656 182.753906 195.890625 182.738281 " fill-opacity="1" fill-rule="nonzero"/><path fill="#c62328" d="M 206.09375 194.613281 C 206.226562 194.613281 206.332031 194.507812 206.332031 194.382812 C 206.335938 194.253906 206.234375 194.144531 206.105469 194.144531 C 205.976562 194.144531 205.871094 194.246094 205.867188 194.371094 C 205.863281 194.5 205.964844 194.609375 206.09375 194.613281 " fill-opacity="1" fill-rule="nonzero"/><path fill="#c62328" d="M 206.921875 194.394531 C 206.914062 194.84375 206.539062 195.207031 206.085938 195.195312 C 205.632812 195.1875 205.273438 194.8125 205.28125 194.363281 C 205.289062 193.910156 205.664062 193.546875 206.117188 193.558594 C 206.570312 193.566406 206.929688 193.941406 206.921875 194.394531 Z M 209.039062 180.628906 C 209.46875 180.636719 209.8125 180.996094 209.800781 181.425781 C 209.792969 181.851562 209.4375 182.195312 209.007812 182.1875 C 208.578125 182.179688 208.238281 181.820312 208.246094 181.390625 C 208.253906 180.964844 208.609375 180.621094 209.039062 180.628906 Z M 200.082031 170.25 C 199.875 170.242188 199.707031 170.070312 199.710938 169.863281 C 199.71875 169.65625 199.886719 169.488281 200.09375 169.496094 C 200.300781 169.496094 200.46875 169.671875 200.464844 169.878906 C 200.457031 170.085938 200.289062 170.25 200.082031 170.25 Z M 195.8125 186.722656 C 194.441406 186.695312 193.355469 185.558594 193.378906 184.191406 C 193.410156 182.820312 194.546875 181.730469 195.914062 181.757812 C 197.28125 181.785156 198.371094 182.921875 198.34375 184.292969 C 198.316406 185.660156 197.183594 186.75 195.8125 186.722656 Z M 196.234375 202.617188 C 196.027344 202.613281 195.859375 202.441406 195.863281 202.234375 C 195.867188 202.023438 196.039062 201.859375 196.246094 201.863281 C 196.453125 201.867188 196.621094 202.039062 196.617188 202.246094 C 196.609375 202.457031 196.441406 202.621094 196.234375 202.617188 Z M 190.988281 165.972656 C 190.28125 165.960938 189.722656 165.375 189.738281 164.667969 C 189.75 163.96875 190.335938 163.40625 191.039062 163.417969 C 191.742188 163.433594 192.304688 164.019531 192.292969 164.722656 C 192.277344 165.429688 191.691406 165.988281 190.988281 165.972656 Z M 183.511719 205.855469 C 183.058594 205.84375 182.695312 205.46875 182.707031 205.019531 C 182.71875 204.566406 183.09375 204.207031 183.542969 204.21875 C 183.996094 204.226562 184.355469 204.601562 184.34375 205.050781 C 184.335938 205.503906 183.960938 205.867188 183.511719 205.855469 Z M 180.195312 193.226562 C 180.214844 192.296875 180.988281 191.554688 181.917969 191.574219 C 182.851562 191.589844 183.59375 192.363281 183.574219 193.296875 C 183.550781 194.226562 182.78125 194.96875 181.851562 194.949219 C 180.917969 194.929688 180.175781 194.15625 180.195312 193.226562 Z M 179.828125 180.617188 C 179.839844 180.1875 180.195312 179.84375 180.621094 179.855469 C 181.050781 179.863281 181.394531 180.21875 181.382812 180.648438 C 181.375 181.074219 181.019531 181.417969 180.589844 181.410156 C 180.164062 181.398438 179.820312 181.042969 179.828125 180.617188 Z M 169.929688 172.730469 C 169.722656 172.726562 169.554688 172.554688 169.5625 172.34375 C 169.566406 172.136719 169.738281 171.972656 169.945312 171.980469 C 170.152344 171.980469 170.316406 172.15625 170.316406 172.363281 C 170.308594 172.570312 170.140625 172.734375 169.929688 172.730469 Z M 169.214844 191.839844 C 168.824219 191.828125 168.515625 191.507812 168.523438 191.117188 C 168.53125 190.726562 168.855469 190.417969 169.242188 190.425781 C 169.636719 190.429688 169.945312 190.753906 169.9375 191.148438 C 169.929688 191.535156 169.609375 191.847656 169.214844 191.839844 Z M 188.03125 159.457031 C 174.125 159.457031 162.851562 170.730469 162.851562 184.636719 C 162.851562 198.542969 174.125 209.816406 188.03125 209.816406 C 201.9375 209.816406 213.210938 198.542969 213.210938 184.636719 C 213.210938 170.730469 201.9375 159.457031 188.03125 159.457031 " fill-opacity="1" fill-rule="nonzero"/><path fill="#c62328" d="M 209.023438 181.597656 C 209.125 181.601562 209.214844 181.519531 209.214844 181.410156 C 209.21875 181.304688 209.132812 181.21875 209.027344 181.21875 C 208.921875 181.214844 208.835938 181.296875 208.832031 181.40625 C 208.832031 181.511719 208.914062 181.597656 209.023438 181.597656 " fill-opacity="1" fill-rule="nonzero"/><path fill="#c62328" d="M 324.21875 185.046875 C 323.992188 185.414062 323.511719 185.527344 323.144531 185.296875 C 322.78125 185.074219 322.667969 184.59375 322.894531 184.230469 C 323.121094 183.863281 323.601562 183.75 323.964844 183.976562 C 324.328125 184.203125 324.441406 184.683594 324.21875 185.046875 Z M 291.707031 184.636719 C 291.707031 171.023438 302.785156 159.945312 316.398438 159.945312 C 319.566406 159.945312 322.65625 160.539062 325.570312 161.707031 C 321.167969 168.261719 318.597656 176.148438 318.597656 184.636719 C 318.597656 193.125 321.167969 201.015625 325.570312 207.566406 C 322.65625 208.734375 319.566406 209.328125 316.398438 209.328125 C 302.785156 209.328125 291.707031 198.253906 291.707031 184.636719 Z M 328.265625 200.535156 C 328.0625 200.867188 327.625 200.96875 327.292969 200.765625 C 326.960938 200.558594 326.859375 200.121094 327.066406 199.792969 C 327.269531 199.460938 327.703125 199.355469 328.035156 199.5625 C 328.371094 199.765625 328.472656 200.203125 328.265625 200.535156 Z M 327.328125 166.882812 C 328.164062 167.402344 328.425781 168.503906 327.90625 169.339844 C 327.390625 170.179688 326.285156 170.441406 325.449219 169.925781 C 324.613281 169.40625 324.351562 168.300781 324.867188 167.464844 C 325.386719 166.628906 326.492188 166.367188 327.328125 166.882812 Z M 334.953125 175.601562 C 335.058594 175.425781 335.292969 175.371094 335.46875 175.480469 C 335.644531 175.589844 335.703125 175.820312 335.589844 175.996094 C 335.480469 176.175781 335.25 176.230469 335.074219 176.121094 C 334.894531 176.011719 334.839844 175.777344 334.953125 175.601562 Z M 335.140625 189.070312 C 335.96875 189.578125 336.222656 190.667969 335.714844 191.492188 C 335.203125 192.320312 334.117188 192.578125 333.289062 192.066406 C 332.460938 191.554688 332.203125 190.46875 332.714844 189.640625 C 333.226562 188.8125 334.316406 188.558594 335.140625 189.070312 Z M 330.367188 163.101562 C 328.996094 162.214844 327.539062 161.453125 326.035156 160.839844 C 322.972656 159.597656 319.730469 158.972656 316.398438 158.972656 C 312.933594 158.972656 309.574219 159.652344 306.40625 160.988281 C 303.351562 162.28125 300.605469 164.132812 298.25 166.488281 C 295.890625 168.847656 294.042969 171.589844 292.75 174.648438 C 291.410156 177.808594 290.730469 181.171875 290.730469 184.636719 C 290.730469 188.105469 291.410156 191.460938 292.75 194.628906 C 294.042969 197.683594 295.890625 200.429688 298.25 202.789062 C 300.605469 205.144531 303.351562 206.992188 306.40625 208.285156 C 309.574219 209.625 312.933594 210.304688 316.398438 210.304688 C 319.730469 210.304688 322.972656 209.671875 326.035156 208.433594 C 327.539062 207.824219 328.996094 207.0625 330.367188 206.175781 C 337.691406 201.414062 342.066406 193.359375 342.066406 184.636719 C 342.066406 175.910156 337.691406 167.859375 330.367188 163.101562 " fill-opacity="1" fill-rule="nonzero"/><path fill="#c62328" d="M 308.230469 188.464844 C 308.03125 188.789062 307.605469 188.890625 307.28125 188.6875 C 306.957031 188.488281 306.855469 188.0625 307.054688 187.738281 C 307.257812 187.414062 307.683594 187.3125 308.007812 187.511719 C 308.332031 187.714844 308.433594 188.140625 308.230469 188.464844 Z M 308.3125 187.015625 C 307.714844 186.644531 306.925781 186.832031 306.558594 187.429688 C 306.1875 188.03125 306.375 188.816406 306.972656 189.1875 C 307.574219 189.558594 308.359375 189.371094 308.730469 188.773438 C 309.101562 188.175781 308.914062 187.382812 308.3125 187.015625 " fill-opacity="1" fill-rule="nonzero"/><path fill="#c62328" d="M 305.820312 166.148438 C 305.285156 165.816406 304.578125 165.984375 304.246094 166.523438 C 303.914062 167.0625 304.078125 167.769531 304.617188 168.101562 C 305.15625 168.433594 305.863281 168.265625 306.195312 167.730469 C 306.527344 167.191406 306.363281 166.484375 305.820312 166.148438 " fill-opacity="1" fill-rule="nonzero"/><path fill="#c62328" d="M 316.59375 203.082031 C 316.417969 202.976562 316.1875 203.027344 316.078125 203.207031 C 315.96875 203.382812 316.023438 203.613281 316.199219 203.726562 C 316.375 203.832031 316.609375 203.78125 316.71875 203.601562 C 316.828125 203.425781 316.773438 203.195312 316.59375 203.082031 " fill-opacity="1" fill-rule="nonzero"/><path fill="#c62328" d="M 317.347656 162.050781 C 317.171875 161.945312 316.941406 162 316.832031 162.175781 C 316.71875 162.351562 316.777344 162.585938 316.953125 162.695312 C 317.132812 162.800781 317.363281 162.75 317.472656 162.570312 C 317.582031 162.394531 317.527344 162.164062 317.347656 162.050781 " fill-opacity="1" fill-rule="nonzero"/><path fill="#c62328" d="M 301.476562 197.972656 C 301.410156 198.082031 301.265625 198.117188 301.15625 198.050781 C 301.046875 197.980469 301.011719 197.835938 301.082031 197.730469 C 301.148438 197.617188 301.292969 197.585938 301.398438 197.652344 C 301.511719 197.71875 301.546875 197.863281 301.476562 197.972656 Z M 301.710938 197.152344 C 301.324219 196.917969 300.820312 197.035156 300.582031 197.417969 C 300.34375 197.804688 300.460938 198.3125 300.847656 198.546875 C 301.230469 198.785156 301.738281 198.667969 301.976562 198.28125 C 302.214844 197.898438 302.09375 197.390625 301.710938 197.152344 " fill-opacity="1" fill-rule="nonzero"/><path fill="#c62328" d="M 295.734375 180.621094 C 295.667969 180.730469 295.523438 180.761719 295.414062 180.695312 C 295.304688 180.628906 295.269531 180.484375 295.339844 180.375 C 295.402344 180.265625 295.546875 180.230469 295.660156 180.300781 C 295.765625 180.363281 295.800781 180.511719 295.734375 180.621094 Z M 295.964844 179.800781 C 295.582031 179.5625 295.078125 179.683594 294.839844 180.066406 C 294.601562 180.449219 294.722656 180.957031 295.105469 181.195312 C 295.488281 181.429688 295.996094 181.3125 296.234375 180.929688 C 296.46875 180.542969 296.351562 180.039062 295.964844 179.800781 " fill-opacity="1" fill-rule="nonzero"/><path fill="#c62328" d="M 311.414062 175.710938 C 311.359375 175.796875 311.246094 175.828125 311.152344 175.773438 C 311.0625 175.714844 311.035156 175.597656 311.089844 175.507812 C 311.148438 175.417969 311.265625 175.390625 311.355469 175.445312 C 311.441406 175.503906 311.472656 175.621094 311.414062 175.710938 Z M 311.660156 174.949219 C 311.296875 174.722656 310.816406 174.835938 310.589844 175.203125 C 310.367188 175.566406 310.480469 176.046875 310.847656 176.269531 C 311.210938 176.496094 311.691406 176.382812 311.914062 176.015625 C 312.140625 175.652344 312.027344 175.171875 311.660156 174.949219 " fill-opacity="1" fill-rule="nonzero"/><path fill="#c62328" d="M 325.886719 169.214844 C 326.335938 169.496094 326.921875 169.355469 327.203125 168.90625 C 327.480469 168.457031 327.339844 167.867188 326.890625 167.589844 C 326.441406 167.3125 325.851562 167.453125 325.574219 167.902344 C 325.296875 168.351562 325.4375 168.941406 325.886719 169.214844 " fill-opacity="1" fill-rule="nonzero"/><path fill="#c62328" d="M 323.65625 184.472656 C 323.566406 184.421875 323.449219 184.445312 323.394531 184.539062 C 323.339844 184.628906 323.363281 184.746094 323.457031 184.800781 C 323.546875 184.855469 323.664062 184.828125 323.71875 184.738281 C 323.773438 184.648438 323.746094 184.53125 323.65625 184.472656 " fill-opacity="1" fill-rule="nonzero"/><path fill="#c62328" d="M 333.703125 190.253906 C 333.53125 190.535156 333.617188 190.90625 333.898438 191.078125 C 334.179688 191.253906 334.554688 191.167969 334.726562 190.886719 C 334.898438 190.601562 334.8125 190.230469 334.53125 190.054688 C 334.25 189.882812 333.878906 189.972656 333.703125 190.253906 " fill-opacity="1" fill-rule="nonzero"/><path fill="#c62328" d="M 122.433594 189.351562 C 122.449219 188.648438 123.035156 188.085938 123.738281 188.101562 C 124.445312 188.113281 125.003906 188.699219 124.988281 189.40625 C 124.976562 190.109375 124.390625 190.667969 123.683594 190.65625 C 122.984375 190.640625 122.421875 190.054688 122.433594 189.351562 Z M 121.589844 169.195312 C 121.589844 168.984375 121.765625 168.820312 121.972656 168.828125 C 122.179688 168.828125 122.34375 169.003906 122.339844 169.210938 C 122.339844 169.417969 122.164062 169.582031 121.957031 169.582031 C 121.75 169.574219 121.582031 169.402344 121.589844 169.195312 Z M 118.792969 204.238281 C 118.785156 204.691406 118.410156 205.050781 117.957031 205.042969 C 117.507812 205.035156 117.148438 204.660156 117.15625 204.207031 C 117.167969 203.757812 117.542969 203.394531 117.992188 203.40625 C 118.445312 203.414062 118.804688 203.789062 118.792969 204.238281 Z M 117.851562 179.308594 C 117.457031 179.300781 117.148438 178.976562 117.15625 178.589844 C 117.167969 178.195312 117.488281 177.886719 117.878906 177.894531 C 118.269531 177.902344 118.578125 178.226562 118.574219 178.617188 C 118.5625 179.007812 118.242188 179.316406 117.851562 179.308594 Z M 122.851562 209.328125 C 120.535156 209.328125 118.25 209.007812 116.042969 208.378906 C 125.816406 204.917969 132.816406 195.59375 132.816406 184.636719 C 132.816406 173.679688 125.816406 164.359375 116.042969 160.898438 C 118.25 160.265625 120.535156 159.945312 122.851562 159.945312 C 136.46875 159.945312 147.546875 171.023438 147.546875 184.636719 C 147.546875 198.253906 136.46875 209.328125 122.851562 209.328125 Z M 106.34375 171.300781 C 106.351562 171.09375 106.519531 170.925781 106.726562 170.933594 C 106.9375 170.9375 107.101562 171.109375 107.097656 171.316406 C 107.089844 171.523438 106.921875 171.6875 106.714844 171.6875 C 106.507812 171.679688 106.339844 171.511719 106.34375 171.300781 Z M 107.113281 189.222656 C 107.542969 189.230469 107.882812 189.589844 107.875 190.019531 C 107.867188 190.445312 107.507812 190.789062 107.082031 190.78125 C 106.652344 190.769531 106.308594 190.414062 106.320312 189.984375 C 106.328125 189.554688 106.683594 189.214844 107.113281 189.222656 Z M 141 166.488281 C 138.644531 164.132812 135.898438 162.28125 132.84375 160.988281 C 129.679688 159.652344 126.316406 158.972656 122.851562 158.972656 C 120.207031 158.972656 117.597656 159.371094 115.097656 160.164062 C 112.53125 160.976562 110.117188 162.1875 107.914062 163.761719 C 105.75 165.316406 103.839844 167.191406 102.246094 169.332031 C 98.933594 173.78125 97.1875 179.074219 97.1875 184.636719 C 97.1875 190.199219 98.933594 195.492188 102.246094 199.941406 C 103.839844 202.085938 105.75 203.957031 107.914062 205.511719 C 110.117188 207.085938 112.53125 208.296875 115.097656 209.109375 C 117.597656 209.902344 120.207031 210.304688 122.851562 210.304688 C 126.316406 210.304688 129.679688 209.625 132.84375 208.285156 C 135.898438 206.992188 138.644531 205.144531 141 202.789062 C 143.359375 200.429688 145.210938 197.683594 146.503906 194.628906 C 147.839844 191.460938 148.519531 188.105469 148.519531 184.636719 C 148.519531 181.171875 147.839844 177.808594 146.503906 174.648438 C 145.210938 171.589844 143.359375 168.847656 141 166.488281 " fill-opacity="1" fill-rule="nonzero"/><path fill="#c62328" d="M 127.785156 164.34375 C 127.402344 164.335938 127.097656 164.019531 127.105469 163.636719 C 127.113281 163.257812 127.429688 162.953125 127.8125 162.960938 C 128.191406 162.96875 128.492188 163.285156 128.488281 163.667969 C 128.480469 164.046875 128.164062 164.351562 127.785156 164.34375 Z M 127.824219 162.375 C 127.117188 162.359375 126.53125 162.921875 126.519531 163.625 C 126.503906 164.328125 127.066406 164.914062 127.769531 164.929688 C 128.472656 164.941406 129.058594 164.382812 129.074219 163.675781 C 129.085938 162.972656 128.523438 162.386719 127.824219 162.375 " fill-opacity="1" fill-rule="nonzero"/><path fill="#c62328" d="M 136.863281 169.203125 C 137.070312 169.207031 137.242188 169.039062 137.246094 168.832031 C 137.253906 168.625 137.085938 168.453125 136.878906 168.449219 C 136.671875 168.445312 136.5 168.609375 136.492188 168.820312 C 136.492188 169.027344 136.65625 169.199219 136.863281 169.203125 " fill-opacity="1" fill-rule="nonzero"/><path fill="#c62328" d="M 135.464844 190.28125 C 135.257812 190.273438 135.085938 190.441406 135.082031 190.648438 C 135.074219 190.859375 135.242188 191.027344 135.449219 191.035156 C 135.660156 191.035156 135.832031 190.871094 135.835938 190.664062 C 135.839844 190.457031 135.675781 190.285156 135.464844 190.28125 " fill-opacity="1" fill-rule="nonzero"/><path fill="#c62328" d="M 139.390625 195.449219 C 139.375 196.179688 139.957031 196.78125 140.683594 196.796875 C 141.414062 196.8125 142.019531 196.234375 142.03125 195.503906 C 142.046875 194.773438 141.46875 194.167969 140.738281 194.152344 C 140.007812 194.140625 139.402344 194.71875 139.390625 195.449219 " fill-opacity="1" fill-rule="nonzero"/><path fill="#c62328" d="M 131.496094 203.636719 C 131.371094 203.632812 131.265625 203.53125 131.269531 203.398438 C 131.273438 203.269531 131.382812 203.167969 131.507812 203.171875 C 131.636719 203.175781 131.738281 203.28125 131.738281 203.410156 C 131.734375 203.539062 131.628906 203.640625 131.496094 203.636719 Z M 131.519531 202.585938 C 131.070312 202.574219 130.695312 202.933594 130.683594 203.386719 C 130.675781 203.839844 131.035156 204.214844 131.488281 204.222656 C 131.9375 204.234375 132.3125 203.875 132.320312 203.421875 C 132.332031 202.96875 131.972656 202.59375 131.519531 202.585938 " fill-opacity="1" fill-rule="nonzero"/><path fill="#c62328" d="M 144.839844 184.128906 C 144.949219 184.128906 145.03125 184.214844 145.03125 184.320312 C 145.027344 184.425781 144.941406 184.511719 144.835938 184.507812 C 144.730469 184.507812 144.644531 184.421875 144.648438 184.316406 C 144.648438 184.207031 144.734375 184.125 144.839844 184.128906 Z M 144.824219 185.097656 C 145.25 185.105469 145.609375 184.761719 145.617188 184.335938 C 145.625 183.90625 145.285156 183.546875 144.855469 183.539062 C 144.425781 183.53125 144.070312 183.875 144.0625 184.300781 C 144.050781 184.730469 144.394531 185.089844 144.824219 185.097656 " fill-opacity="1" fill-rule="nonzero"/><path fill="#c62328" d="M 136.632812 179.910156 C 136.304688 179.90625 136.039062 179.628906 136.042969 179.296875 C 136.050781 178.964844 136.324219 178.699219 136.660156 178.707031 C 136.988281 178.714844 137.253906 178.988281 137.246094 179.320312 C 137.242188 179.652344 136.964844 179.917969 136.632812 179.910156 Z M 136.671875 178.121094 C 136.015625 178.109375 135.46875 178.632812 135.460938 179.285156 C 135.445312 179.9375 135.96875 180.484375 136.621094 180.496094 C 137.277344 180.511719 137.820312 179.988281 137.832031 179.332031 C 137.847656 178.679688 137.324219 178.132812 136.671875 178.121094 " fill-opacity="1" fill-rule="nonzero"/><path fill="#c62328" d="M 124.40625 189.394531 C 124.410156 189.011719 124.109375 188.695312 123.726562 188.6875 C 123.34375 188.679688 123.027344 188.984375 123.023438 189.367188 C 123.015625 189.746094 123.320312 190.0625 123.699219 190.070312 C 124.082031 190.078125 124.394531 189.773438 124.40625 189.394531 " fill-opacity="1" fill-rule="nonzero"/><path fill="#c62328" d="M 117.742188 204.21875 C 117.738281 204.347656 117.84375 204.457031 117.972656 204.457031 C 118.101562 204.457031 118.207031 204.355469 118.210938 204.230469 C 118.210938 204.101562 118.109375 203.992188 117.980469 203.988281 C 117.855469 203.988281 117.746094 204.09375 117.742188 204.21875 " fill-opacity="1" fill-rule="nonzero"/><path fill="#c62328" d="M 107.09375 190.191406 C 107.199219 190.195312 107.289062 190.109375 107.289062 190.003906 C 107.289062 189.898438 107.207031 189.8125 107.101562 189.8125 C 106.996094 189.808594 106.910156 189.890625 106.90625 190 C 106.902344 190.105469 106.988281 190.191406 107.09375 190.191406 " fill-opacity="1" fill-rule="nonzero"/><path fill="#c62328" d="M 62.851562 209.328125 C 59.683594 209.328125 56.597656 208.734375 53.679688 207.566406 C 58.082031 201.015625 60.652344 193.125 60.652344 184.636719 C 60.652344 176.148438 58.082031 168.261719 53.679688 161.707031 C 56.597656 160.539062 59.683594 159.945312 62.851562 159.945312 C 76.46875 159.945312 87.546875 171.023438 87.546875 184.636719 C 87.546875 198.253906 76.46875 209.328125 62.851562 209.328125 Z M 51.214844 199.5625 C 51.546875 199.355469 51.980469 199.460938 52.1875 199.792969 C 52.394531 200.121094 52.292969 200.558594 51.957031 200.765625 C 51.625 200.96875 51.191406 200.867188 50.984375 200.535156 C 50.78125 200.203125 50.882812 199.765625 51.214844 199.5625 Z M 43.78125 175.480469 C 43.960938 175.371094 44.191406 175.425781 44.304688 175.601562 C 44.410156 175.777344 44.355469 176.011719 44.179688 176.121094 C 44 176.230469 43.769531 176.175781 43.660156 175.996094 C 43.550781 175.820312 43.605469 175.589844 43.78125 175.480469 Z M 44.199219 189.214844 C 44.949219 188.753906 45.929688 188.984375 46.390625 189.730469 C 46.851562 190.480469 46.617188 191.460938 45.875 191.921875 C 45.128906 192.382812 44.144531 192.152344 43.683594 191.40625 C 43.222656 190.660156 43.453125 189.675781 44.199219 189.214844 Z M 55.285156 183.976562 C 55.652344 183.75 56.128906 183.863281 56.359375 184.230469 C 56.582031 184.59375 56.46875 185.074219 56.105469 185.296875 C 55.738281 185.527344 55.257812 185.414062 55.035156 185.046875 C 54.808594 184.683594 54.921875 184.203125 55.285156 183.976562 Z M 53.996094 170.238281 C 52.984375 170.863281 51.65625 170.550781 51.03125 169.539062 C 50.40625 168.527344 50.71875 167.191406 51.730469 166.566406 C 52.742188 165.941406 54.074219 166.257812 54.699219 167.269531 C 55.324219 168.28125 55.007812 169.613281 53.996094 170.238281 Z M 81.003906 166.488281 C 78.644531 164.132812 75.898438 162.28125 72.84375 160.988281 C 69.679688 159.652344 66.316406 158.972656 62.851562 158.972656 C 59.519531 158.972656 56.28125 159.597656 53.21875 160.839844 C 51.710938 161.453125 50.253906 162.214844 48.882812 163.101562 C 41.558594 167.859375 37.1875 175.910156 37.1875 184.636719 C 37.1875 193.359375 41.558594 201.414062 48.882812 206.175781 C 50.253906 207.0625 51.710938 207.824219 53.21875 208.433594 C 56.28125 209.671875 59.519531 210.304688 62.851562 210.304688 C 66.316406 210.304688 69.679688 209.625 72.84375 208.285156 C 75.898438 206.992188 78.644531 205.144531 81.003906 202.789062 C 83.359375 200.429688 85.210938 197.683594 86.503906 194.628906 C 87.839844 191.460938 88.519531 188.105469 88.519531 184.636719 C 88.519531 181.171875 87.839844 177.808594 86.503906 174.648438 C 85.210938 171.589844 83.359375 168.847656 81.003906 166.488281 " fill-opacity="1" fill-rule="nonzero"/><path fill="#c62328" d="M 71.972656 188.6875 C 71.648438 188.890625 71.21875 188.789062 71.019531 188.464844 C 70.820312 188.140625 70.921875 187.714844 71.242188 187.511719 C 71.566406 187.3125 71.996094 187.414062 72.195312 187.738281 C 72.394531 188.0625 72.296875 188.488281 71.972656 188.6875 Z M 70.9375 187.015625 C 70.335938 187.382812 70.148438 188.175781 70.523438 188.773438 C 70.890625 189.371094 71.679688 189.558594 72.277344 189.1875 C 72.878906 188.816406 73.066406 188.03125 72.695312 187.429688 C 72.324219 186.832031 71.535156 186.644531 70.9375 187.015625 " fill-opacity="1" fill-rule="nonzero"/><path fill="#c62328" d="M 73.429688 166.148438 C 72.890625 166.484375 72.722656 167.191406 73.058594 167.730469 C 73.390625 168.265625 74.09375 168.433594 74.632812 168.101562 C 75.171875 167.769531 75.339844 167.0625 75.007812 166.523438 C 74.675781 165.984375 73.964844 165.816406 73.429688 166.148438 " fill-opacity="1" fill-rule="nonzero"/><path fill="#c62328" d="M 62.65625 203.082031 C 62.476562 203.195312 62.421875 203.425781 62.535156 203.601562 C 62.640625 203.78125 62.875 203.832031 63.050781 203.726562 C 63.230469 203.613281 63.285156 203.382812 63.171875 203.207031 C 63.066406 203.027344 62.832031 202.976562 62.65625 203.082031 " fill-opacity="1" fill-rule="nonzero"/><path fill="#c62328" d="M 61.902344 162.050781 C 61.722656 162.164062 61.667969 162.394531 61.78125 162.570312 C 61.886719 162.75 62.121094 162.800781 62.296875 162.695312 C 62.472656 162.585938 62.527344 162.351562 62.421875 162.175781 C 62.308594 162 62.078125 161.945312 61.902344 162.050781 " fill-opacity="1" fill-rule="nonzero"/><path fill="#c62328" d="M 78.097656 198.050781 C 77.984375 198.117188 77.84375 198.082031 77.773438 197.972656 C 77.707031 197.863281 77.742188 197.71875 77.847656 197.652344 C 77.960938 197.585938 78.105469 197.617188 78.167969 197.730469 C 78.238281 197.835938 78.203125 197.980469 78.097656 198.050781 Z M 77.542969 197.152344 C 77.15625 197.390625 77.039062 197.898438 77.273438 198.28125 C 77.511719 198.667969 78.019531 198.785156 78.402344 198.546875 C 78.785156 198.3125 78.90625 197.804688 78.667969 197.417969 C 78.433594 197.035156 77.925781 196.917969 77.542969 197.152344 " fill-opacity="1" fill-rule="nonzero"/><path fill="#c62328" d="M 83.59375 180.300781 C 83.703125 180.230469 83.84375 180.265625 83.914062 180.375 C 83.980469 180.484375 83.945312 180.628906 83.839844 180.695312 C 83.726562 180.761719 83.585938 180.730469 83.519531 180.621094 C 83.449219 180.511719 83.484375 180.363281 83.59375 180.300781 Z M 84.144531 181.195312 C 84.53125 180.957031 84.652344 180.449219 84.414062 180.066406 C 84.175781 179.683594 83.667969 179.5625 83.285156 179.800781 C 82.902344 180.039062 82.78125 180.542969 83.019531 180.929688 C 83.257812 181.3125 83.761719 181.429688 84.144531 181.195312 " fill-opacity="1" fill-rule="nonzero"/><path fill="#c62328" d="M 68.097656 175.773438 C 68.011719 175.828125 67.890625 175.796875 67.835938 175.710938 C 67.78125 175.621094 67.808594 175.503906 67.894531 175.445312 C 67.988281 175.390625 68.105469 175.417969 68.160156 175.507812 C 68.21875 175.597656 68.1875 175.714844 68.097656 175.773438 Z M 67.589844 174.949219 C 67.226562 175.171875 67.113281 175.652344 67.335938 176.015625 C 67.5625 176.382812 68.042969 176.496094 68.40625 176.269531 C 68.773438 176.046875 68.886719 175.566406 68.660156 175.203125 C 68.433594 174.835938 67.953125 174.722656 67.589844 174.949219 " fill-opacity="1" fill-rule="nonzero"/><path fill="#c62328" d="M 52.273438 167.441406 C 51.742188 167.769531 51.578125 168.464844 51.90625 168.996094 C 52.230469 169.527344 52.929688 169.691406 53.457031 169.363281 C 53.984375 169.039062 54.148438 168.339844 53.824219 167.808594 C 53.496094 167.28125 52.800781 167.117188 52.273438 167.441406 " fill-opacity="1" fill-rule="nonzero"/><path fill="#c62328" d="M 55.796875 184.800781 C 55.886719 184.746094 55.914062 184.628906 55.859375 184.539062 C 55.800781 184.445312 55.683594 184.421875 55.597656 184.472656 C 55.503906 184.53125 55.476562 184.648438 55.53125 184.738281 C 55.589844 184.828125 55.707031 184.855469 55.796875 184.800781 " fill-opacity="1" fill-rule="nonzero"/><path fill="#c62328" d="M 45.351562 191.078125 C 45.636719 190.90625 45.722656 190.535156 45.546875 190.253906 C 45.375 189.972656 45.003906 189.882812 44.71875 190.054688 C 44.4375 190.230469 44.351562 190.601562 44.523438 190.886719 C 44.699219 191.167969 45.070312 191.253906 45.351562 191.078125 " fill-opacity="1" fill-rule="nonzero"/></svg>