<svg xmlns="http://www.w3.org/2000/svg" xmlns:xlink="http://www.w3.org/1999/xlink" width="500" zoomAndPan="magnify" viewBox="0 0 375 374.999991" height="500" preserveAspectRatio="xMidYMid meet" version="1.0"><defs><clipPath id="a4f847c558"><path d="M 63 2.308594 L 311.957031 2.308594 L 311.957031 372.808594 L 63 372.808594 Z M 63 2.308594 " clip-rule="nonzero"/></clipPath></defs><g clip-path="url(#a4f847c558)"><path fill="#c62328" d="M 311.554688 331.621094 C 311.699219 331.804688 311.761719 332.011719 311.746094 332.246094 C 311.730469 332.480469 311.640625 332.675781 311.476562 332.84375 C 311.289062 333.023438 311.066406 333.113281 310.804688 333.113281 C 310.550781 333.121094 310.34375 333.03125 310.175781 332.84375 C 309.464844 332.042969 308.808594 331.207031 308.140625 330.375 C 307.46875 329.542969 306.8125 328.683594 306.167969 327.820312 C 305.519531 326.957031 304.859375 326.007812 304.242188 325.066406 C 303.628906 324.125 303.085938 323.1875 302.535156 322.238281 C 301.464844 320.402344 300.441406 318.535156 299.429688 316.648438 C 298.414062 314.765625 297.433594 313.035156 296.464844 311.203125 C 295.667969 309.609375 294.871094 308.011719 294.070312 306.414062 C 293.191406 304.65625 292.332031 302.894531 291.453125 301.136719 C 290.574219 299.378906 289.695312 297.734375 288.816406 296.035156 C 287.9375 294.335938 286.964844 292.53125 286.078125 290.757812 C 285.664062 289.917969 285.28125 289.058594 284.882812 288.203125 C 284.480469 287.347656 284.082031 286.476562 283.722656 285.601562 C 283.019531 283.914062 282.484375 282.175781 281.839844 280.472656 C 281.449219 279.453125 281 278.445312 280.546875 277.449219 C 280.015625 276.324219 279.480469 275.210938 278.949219 274.109375 L 278.949219 274.054688 C 278.476562 273.113281 278 272.179688 277.472656 271.269531 C 276.945312 270.359375 276.332031 269.359375 275.714844 268.441406 L 275.714844 268.394531 C 275.699219 268.375 275.6875 268.351562 275.675781 268.332031 L 275.019531 267.402344 C 274.828125 267.4375 274.632812 267.453125 274.4375 267.453125 C 274.265625 267.453125 274.089844 267.4375 273.917969 267.402344 C 273.726562 268.289062 273.496094 269.160156 273.257812 270.03125 C 272.65625 272.148438 272.003906 274.253906 271.332031 276.355469 C 271.027344 277.320312 270.703125 278.277344 270.382812 279.246094 C 270.0625 280.210938 269.800781 281.007812 269.496094 281.886719 C 269.59375 282.007812 269.679688 282.132812 269.75 282.269531 C 270.203125 283.136719 270.261719 284.027344 269.925781 284.945312 C 269.761719 285.472656 269.511719 285.953125 269.175781 286.390625 C 268.765625 286.925781 268.234375 287.265625 267.578125 287.421875 L 267.492188 287.421875 C 266.960938 288.839844 266.371094 290.246094 265.726562 291.636719 C 265.867188 291.882812 265.9375 292.148438 265.941406 292.433594 C 265.9375 292.800781 265.847656 293.140625 265.664062 293.457031 C 265.609375 293.644531 265.53125 293.824219 265.441406 294 C 265.175781 294.546875 264.746094 294.898438 264.15625 295.054688 C 263.941406 295.523438 263.71875 295.992188 263.484375 296.464844 C 262.484375 298.46875 261.464844 300.457031 260.355469 302.40625 C 259.246094 304.355469 258.039062 306.230469 256.832031 308.105469 C 256.035156 309.335938 255.238281 310.566406 254.4375 311.773438 C 254.433594 311.789062 254.433594 311.808594 254.4375 311.828125 C 254.421875 311.847656 254.40625 311.867188 254.398438 311.890625 C 254.398438 311.941406 254.328125 311.996094 254.285156 312.050781 L 253.976562 312.515625 L 253.976562 312.570312 C 252.746094 314.390625 251.394531 316.140625 250.023438 317.855469 C 248.824219 319.347656 247.578125 320.808594 246.300781 322.246094 C 246.464844 322.402344 246.609375 322.578125 246.734375 322.765625 C 247.316406 323.691406 247.609375 324.703125 247.605469 325.800781 C 247.566406 326.96875 247.214844 328.03125 246.550781 328.992188 C 246.179688 329.546875 245.726562 330.019531 245.191406 330.414062 C 244.667969 330.789062 244.09375 331.054688 243.46875 331.214844 C 242.992188 331.347656 242.507812 331.414062 242.015625 331.421875 C 241.855469 331.433594 241.695312 331.433594 241.535156 331.421875 C 240.824219 331.316406 240.171875 331.066406 239.570312 330.671875 C 239.273438 330.492188 238.980469 330.300781 238.703125 330.09375 C 237.808594 330.894531 236.890625 331.738281 235.960938 332.53125 C 234.773438 333.535156 233.519531 334.445312 232.242188 335.339844 C 232.300781 335.890625 232.195312 336.402344 231.921875 336.882812 C 231.859375 336.996094 231.789062 337.105469 231.707031 337.210938 L 231.601562 337.417969 C 231.296875 337.945312 230.859375 338.316406 230.285156 338.527344 C 229.949219 338.648438 229.597656 338.703125 229.238281 338.695312 L 229.015625 338.695312 L 228.539062 338.636719 C 228.214844 338.574219 227.914062 338.460938 227.628906 338.304688 L 227.5625 338.304688 C 226.957031 338.628906 226.34375 338.949219 225.71875 339.253906 L 225.230469 339.492188 C 225.535156 340.105469 225.847656 340.722656 226.125 341.351562 C 226.886719 343.011719 227.601562 344.699219 228.242188 346.40625 C 228.878906 348.117188 229.511719 349.894531 230.167969 351.636719 C 230.476562 352.484375 230.78125 353.34375 231.117188 354.183594 C 231.453125 355.023438 231.835938 355.957031 232.21875 356.824219 C 233.722656 360.230469 234.925781 363.734375 235.835938 367.339844 C 236.003906 368.027344 236.164062 368.722656 236.328125 369.417969 C 236.496094 370.113281 236.699219 370.886719 236.839844 371.621094 C 236.871094 371.859375 236.820312 372.082031 236.6875 372.28125 C 236.554688 372.484375 236.371094 372.617188 236.136719 372.683594 C 236.054688 372.707031 235.96875 372.722656 235.882812 372.722656 C 235.667969 372.71875 235.472656 372.648438 235.300781 372.519531 C 235.128906 372.386719 235.011719 372.21875 234.949219 372.011719 C 234.78125 371.4375 234.675781 370.855469 234.558594 370.269531 L 234.558594 370.390625 C 234.558594 370.214844 234.484375 370.039062 234.445312 369.855469 C 234.449219 369.878906 234.449219 369.902344 234.445312 369.929688 C 234.445312 369.800781 234.398438 369.671875 234.367188 369.542969 C 234.335938 369.417969 234.367188 369.542969 234.367188 369.480469 L 234.367188 369.28125 C 234.367188 369.28125 234.367188 369.242188 234.367188 369.226562 C 234.167969 368.285156 233.964844 367.339844 233.703125 366.40625 C 233.441406 365.472656 233.136719 364.546875 232.816406 363.628906 C 232.203125 361.871094 231.527344 360.140625 230.78125 358.4375 C 230.414062 357.585938 229.984375 356.738281 229.664062 355.882812 C 229.34375 355.03125 228.984375 354.167969 228.664062 353.304688 C 228.035156 351.582031 227.378906 349.863281 226.742188 348.140625 C 226.421875 347.285156 226.109375 346.429688 225.734375 345.601562 C 225.359375 344.769531 224.984375 343.941406 224.617188 343.101562 C 224.3125 342.445312 224.011719 341.785156 223.683594 341.136719 L 223.683594 341.183594 C 223.671875 341.152344 223.65625 341.125 223.636719 341.097656 L 223.578125 340.992188 L 223.53125 340.890625 C 223.453125 340.738281 223.378906 340.585938 223.300781 340.441406 L 222.675781 340.722656 L 221.207031 341.351562 C 220.6875 341.585938 220.152344 341.789062 219.609375 341.96875 C 219.117188 342.113281 218.617188 342.191406 218.101562 342.191406 C 217.402344 342.199219 216.734375 342.046875 216.105469 341.734375 C 215.75 341.527344 215.449219 341.261719 215.195312 340.9375 C 214.992188 340.703125 214.808594 340.457031 214.636719 340.195312 C 214.5 339.996094 214.375 339.796875 214.253906 339.589844 C 214.070312 339.21875 213.925781 338.835938 213.816406 338.4375 C 213.523438 337.535156 213.335938 336.613281 213.246094 335.667969 C 213.1875 334.667969 213.253906 333.679688 213.449219 332.699219 C 213.582031 331.78125 213.808594 330.890625 214.125 330.023438 C 214.277344 329.613281 214.449219 329.210938 214.644531 328.816406 C 214.808594 328.449219 215.007812 328.101562 215.253906 327.78125 C 215.34375 327.621094 215.476562 327.5 215.644531 327.421875 C 215.101562 326.558594 214.566406 325.695312 214 324.851562 L 213.949219 324.785156 C 213.472656 324.074219 212.984375 323.378906 212.503906 322.671875 C 212.027344 321.960938 211.5625 321.191406 211.066406 320.457031 C 210.269531 319.246094 209.328125 318.0625 208.457031 316.875 C 207.492188 315.554688 206.523438 314.246094 205.574219 312.882812 C 204.625 311.515625 203.636719 310.183594 202.691406 308.808594 C 201.75 307.4375 200.785156 306.054688 199.867188 304.65625 C 199.332031 303.859375 198.789062 303.011719 198.269531 302.199219 C 197.550781 301.144531 196.777344 300.125 195.953125 299.148438 C 195.453125 298.585938 194.917969 298.054688 194.359375 297.550781 C 193.921875 297.171875 193.46875 296.8125 192.992188 296.480469 C 192.492188 296.160156 191.980469 295.867188 191.453125 295.597656 C 190.035156 294.90625 188.582031 294.3125 187.09375 293.808594 C 185.664062 293.320312 184.234375 292.832031 182.835938 292.273438 C 181.4375 291.714844 180.113281 291.140625 178.789062 290.511719 C 178.078125 290.175781 177.375 289.832031 176.6875 289.457031 C 176.003906 289.082031 175.164062 288.546875 174.429688 288.042969 C 173.695312 287.539062 173.175781 287.171875 172.578125 286.695312 C 171.976562 286.214844 171.371094 285.6875 170.789062 285.160156 L 168.9375 283.507812 C 167.738281 282.460938 166.46875 281.511719 165.230469 280.53125 C 163.992188 279.546875 162.675781 278.375 161.359375 277.335938 C 160.042969 276.296875 158.75 275.484375 157.464844 274.542969 C 156.175781 273.601562 154.851562 272.570312 153.535156 271.597656 C 152.878906 271.109375 152.226562 270.628906 151.585938 270.125 C 150.949219 269.625 150.253906 269.03125 149.613281 268.457031 C 148.496094 267.46875 147.457031 266.390625 146.421875 265.328125 C 145.382812 264.265625 144.175781 262.972656 143.109375 261.742188 C 142.539062 261.089844 141.996094 260.410156 141.445312 259.746094 L 139.792969 257.808594 C 139.226562 257.136719 138.683594 256.449219 138.199219 255.738281 C 137.710938 255.027344 137.269531 254.398438 136.816406 253.71875 C 135.894531 252.347656 134.992188 250.96875 134.101562 249.582031 C 133.199219 248.210938 132.34375 246.8125 131.5 245.40625 C 130.652344 244.003906 129.902344 242.660156 129.101562 241.289062 C 128.425781 240.121094 127.746094 238.957031 127.089844 237.773438 C 126.4375 236.59375 125.828125 235.378906 125.199219 234.199219 C 124.570312 233.015625 123.808594 231.761719 123.140625 230.535156 C 122.566406 229.480469 121.972656 228.417969 121.304688 227.417969 C 120.839844 226.742188 120.34375 226.085938 119.867188 225.414062 C 119.386719 224.746094 118.835938 224.027344 118.269531 223.363281 C 117.054688 221.855469 115.792969 220.386719 114.515625 218.933594 C 113.527344 217.816406 112.480469 216.746094 111.425781 215.691406 C 110.875 215.140625 110.332031 214.597656 109.828125 214.039062 C 109.328125 213.480469 108.855469 212.984375 108.367188 212.441406 C 107.347656 211.308594 106.332031 210.167969 105.359375 208.992188 C 104.382812 207.820312 103.457031 206.550781 102.453125 205.375 C 101.503906 204.335938 100.496094 203.359375 99.433594 202.4375 C 98.453125 201.566406 97.496094 200.65625 96.511719 199.777344 C 95.53125 198.902344 94.421875 198.03125 93.320312 197.191406 C 92.21875 196.355469 90.988281 195.324219 89.789062 194.421875 C 88.59375 193.519531 87.257812 192.546875 86.046875 191.53125 C 84.734375 190.429688 83.488281 189.257812 82.308594 188.019531 C 81.765625 187.441406 81.222656 186.867188 80.710938 186.269531 C 80.1875 185.632812 79.699219 184.96875 79.242188 184.28125 C 78.796875 183.625 78.355469 182.964844 77.933594 182.285156 C 77.511719 181.605469 77.136719 180.886719 76.757812 180.1875 C 76.382812 179.484375 76.015625 178.734375 75.648438 178.015625 C 75.28125 177.296875 74.921875 176.554688 74.589844 175.808594 C 74.253906 175.066406 73.925781 174.292969 73.628906 173.527344 C 73.335938 172.761719 73.09375 172.050781 72.832031 171.300781 C 72.566406 170.550781 72.304688 169.558594 72.03125 168.679688 C 71.9375 168.335938 71.832031 168.003906 71.746094 167.652344 C 71.675781 167.40625 71.65625 167.160156 71.683594 166.90625 C 71.523438 166.707031 71.363281 166.5 71.210938 166.292969 C 70.691406 165.566406 70.203125 164.816406 69.734375 164.058594 C 68.792969 162.550781 67.832031 161.046875 66.964844 159.492188 C 66.523438 158.726562 66.152344 157.925781 65.851562 157.09375 C 65.605469 156.398438 65.40625 155.6875 65.253906 154.964844 C 65.140625 154.417969 65.066406 153.867188 65.023438 153.3125 C 64.835938 153.167969 64.726562 152.984375 64.6875 152.753906 C 64.550781 152.082031 64.582031 151.417969 64.785156 150.765625 C 64.929688 150.273438 65.199219 149.859375 65.582031 149.519531 C 66.316406 148.988281 67.132812 148.664062 68.03125 148.550781 L 67.9375 148.578125 C 68.28125 148.503906 68.640625 148.433594 68.992188 148.394531 C 69.34375 148.351562 69.789062 148.328125 70.148438 148.320312 C 70.957031 148.316406 71.753906 148.394531 72.542969 148.5625 C 74.175781 148.914062 75.773438 149.390625 77.335938 149.988281 C 78.027344 150.230469 78.695312 150.523438 79.347656 150.859375 C 80 151.210938 80.648438 151.585938 81.269531 152 C 81.894531 152.417969 82.667969 152.953125 83.355469 153.453125 L 83.5 153.550781 C 83.664062 153.4375 83.847656 153.363281 84.050781 153.328125 C 84.410156 153.25 84.773438 153.203125 85.144531 153.183594 C 86.019531 153.121094 86.894531 153.121094 87.769531 153.183594 C 88.605469 153.269531 89.433594 153.410156 90.253906 153.597656 C 90.667969 153.679688 91.050781 153.789062 91.507812 153.886719 L 92.160156 154.054688 C 92.464844 153.609375 92.808594 153.199219 93.191406 152.824219 C 93.75 152.285156 94.347656 151.796875 94.988281 151.355469 C 95.605469 150.917969 96.25 150.523438 96.917969 150.171875 L 99.097656 149.054688 C 100.550781 148.257812 102.039062 147.578125 103.53125 146.882812 C 105.023438 146.1875 106.515625 145.453125 108.042969 144.808594 C 109 144.394531 109.964844 144.007812 110.941406 143.601562 C 110.804688 143.226562 110.804688 142.847656 110.941406 142.46875 C 111.03125 142.257812 111.167969 142.09375 111.359375 141.964844 C 111.550781 141.839844 111.757812 141.777344 111.984375 141.773438 C 112.277344 141.800781 112.539062 141.902344 112.777344 142.074219 C 113.011719 142.246094 113.1875 142.464844 113.304688 142.730469 C 114.796875 142.207031 116.3125 141.726562 117.828125 141.269531 C 118.628906 141.039062 119.425781 140.816406 120.226562 140.601562 C 120.640625 140.488281 121.023438 140.378906 121.480469 140.289062 L 122.589844 140.082031 C 123.324219 139.9375 124.066406 139.867188 124.808594 139.777344 C 125.550781 139.691406 126.507812 139.601562 127.371094 139.546875 C 129.03125 139.441406 130.699219 139.441406 132.359375 139.386719 C 134.023438 139.332031 135.835938 139.257812 137.574219 139.226562 L 141.566406 139.132812 C 142.207031 139.132812 142.84375 139.132812 143.484375 139.132812 L 143.539062 139.132812 L 142.53125 138.332031 C 141.070312 137.144531 139.683594 135.859375 138.132812 134.789062 L 137.902344 134.628906 L 136.519531 133.742188 C 136.050781 133.445312 135.59375 133.101562 135.097656 132.832031 L 134.714844 132.671875 C 134.558594 132.617188 134.398438 132.574219 134.238281 132.535156 C 133.644531 132.425781 133.046875 132.386719 132.449219 132.328125 L 130.53125 132.167969 C 128.625 132.050781 126.714844 132 124.808594 131.945312 C 122.898438 131.890625 120.816406 131.835938 118.882812 131.578125 C 116.953125 131.324219 114.890625 130.78125 112.953125 130.363281 C 111.992188 130.171875 111.042969 129.972656 110.070312 129.796875 C 109.09375 129.621094 108.167969 129.496094 107.21875 129.328125 C 106.269531 129.160156 105.335938 128.976562 104.402344 128.816406 C 103.464844 128.65625 102.589844 128.527344 101.671875 128.425781 C 101.109375 128.359375 100.550781 128.296875 99.992188 128.25 C 99.246094 128.207031 98.496094 128.207031 97.75 128.25 C 97.511719 128.25 97.261719 128.304688 97.015625 128.351562 C 95.339844 128.710938 93.703125 129.269531 92.042969 129.703125 C 91.140625 129.933594 90.253906 130.140625 89.34375 130.316406 C 88.382812 130.527344 87.414062 130.691406 86.4375 130.804688 C 84.394531 130.984375 82.386719 130.789062 80.417969 130.222656 C 79.414062 129.925781 78.453125 129.527344 77.535156 129.023438 C 76.6875 128.566406 75.886719 128.035156 75.140625 127.425781 C 74.316406 126.816406 73.539062 126.148438 72.816406 125.421875 C 72.414062 125.007812 72.042969 124.566406 71.707031 124.097656 C 71.433594 124.03125 71.167969 123.949219 70.90625 123.851562 C 70.507812 123.707031 70.109375 123.539062 69.734375 123.363281 C 68.910156 123.007812 68.132812 122.570312 67.402344 122.054688 C 66.707031 121.53125 66.0625 120.957031 65.460938 120.328125 C 65.144531 120 64.832031 119.65625 64.535156 119.308594 C 64.265625 118.96875 64.023438 118.613281 63.808594 118.238281 C 63.609375 117.902344 63.445312 117.550781 63.3125 117.183594 C 63.175781 116.839844 63.121094 116.484375 63.148438 116.113281 C 63.179688 115.890625 63.242188 115.679688 63.332031 115.472656 C 63.496094 115.0625 63.761719 114.734375 64.128906 114.484375 C 64.449219 114.292969 64.796875 114.167969 65.167969 114.109375 C 65.859375 113.964844 66.5625 113.855469 67.265625 113.789062 C 67.96875 113.710938 68.679688 113.628906 69.390625 113.582031 L 73.527344 113.335938 L 76.71875 113.109375 L 77.160156 113.109375 L 80.425781 112.894531 C 81.519531 112.832031 82.613281 112.785156 83.707031 112.710938 C 84.296875 112.664062 84.894531 112.601562 85.484375 112.578125 L 85.902344 112.578125 C 86.699219 112.21875 87.5 111.839844 88.296875 111.441406 C 90.039062 110.554688 91.722656 109.582031 93.511719 108.824219 C 95.332031 107.992188 97.230469 107.402344 99.203125 107.050781 C 100.625 106.835938 102.0625 106.746094 103.5 106.652344 L 103.441406 106.652344 C 104.496094 106.582031 105.535156 106.570312 106.636719 106.554688 C 107.738281 106.539062 108.640625 106.507812 109.644531 106.445312 C 111.609375 106.316406 113.554688 106.074219 115.492188 105.71875 C 117.382812 105.320312 119.296875 105.039062 121.222656 104.871094 C 122.09375 104.816406 122.964844 104.871094 123.832031 104.871094 C 124.703125 104.871094 125.75 104.925781 126.707031 104.976562 C 127.667969 105.023438 128.679688 105.085938 129.664062 105.152344 C 130.644531 105.214844 131.59375 105.269531 132.550781 105.359375 L 134.4375 105.519531 L 136.035156 105.613281 C 136.832031 105.671875 137.628906 105.773438 138.429688 105.835938 L 138.851562 105.835938 C 138.222656 105.238281 137.582031 104.648438 136.945312 104.058594 C 136.304688 103.464844 135.601562 102.828125 134.925781 102.230469 C 134.460938 101.8125 133.988281 101.429688 133.511719 101.023438 C 133.03125 100.617188 132.710938 100.359375 132.328125 100.066406 C 132.070312 99.90625 131.804688 99.761719 131.53125 99.632812 C 130.582031 99.179688 129.609375 98.78125 128.617188 98.4375 L 126.765625 97.773438 C 125.855469 97.460938 124.929688 97.191406 124.007812 96.894531 C 123.089844 96.601562 122.101562 96.296875 121.160156 95.976562 L 119.929688 95.554688 C 120.089844 95.765625 120.183594 96 120.210938 96.265625 C 120.253906 96.539062 120.222656 96.804688 120.113281 97.0625 C 119.984375 97.34375 119.789062 97.566406 119.53125 97.734375 C 119.273438 97.898438 118.992188 97.984375 118.683594 97.988281 C 118.417969 97.992188 118.175781 97.921875 117.949219 97.78125 C 117.480469 97.488281 117.214844 97.070312 117.152344 96.519531 C 116.972656 96.183594 116.816406 95.839844 116.6875 95.480469 C 116.539062 95.0625 116.417969 94.636719 116.320312 94.203125 C 116.074219 94.101562 115.832031 93.988281 115.601562 93.878906 C 114.167969 93.183594 112.78125 92.402344 111.441406 91.539062 C 110.078125 90.667969 108.769531 89.71875 107.449219 88.816406 C 106.632812 88.257812 105.789062 87.75 104.910156 87.289062 C 104.164062 86.9375 103.402344 86.625 102.621094 86.355469 C 101.75 86.078125 100.863281 85.878906 99.984375 85.667969 C 99.105469 85.460938 98.046875 85.214844 97.0625 85 C 96.082031 84.785156 95.21875 84.558594 94.300781 84.3125 C 93.382812 84.066406 92.351562 83.800781 91.386719 83.515625 C 90.421875 83.226562 89.496094 83.058594 88.558594 82.78125 C 87.597656 82.492188 86.652344 82.15625 85.726562 81.773438 C 84.800781 81.390625 83.90625 80.976562 83.011719 80.503906 C 82.0625 80.03125 81.144531 79.496094 80.265625 78.90625 C 79.394531 78.332031 78.5625 77.679688 77.742188 77.039062 C 77.328125 76.703125 76.941406 76.359375 76.519531 76 C 76.113281 75.613281 75.726562 75.203125 75.363281 74.773438 C 74.714844 74.027344 74.132812 73.238281 73.550781 72.449219 C 72.949219 71.648438 72.410156 70.808594 71.929688 69.933594 C 71.449219 69.039062 71.0625 68.109375 70.773438 67.140625 C 70.496094 66.222656 70.28125 65.296875 70.125 64.351562 C 69.972656 63.332031 69.925781 62.308594 69.980469 61.277344 C 69.980469 61.023438 70.027344 60.757812 70.070312 60.480469 L 69.980469 60.480469 C 69.902344 60.488281 69.820312 60.488281 69.742188 60.480469 C 69.519531 60.40625 69.339844 60.273438 69.207031 60.082031 C 68.992188 59.839844 68.800781 59.570312 68.609375 59.28125 C 68.082031 58.527344 67.632812 57.730469 67.257812 56.886719 C 66.898438 56.152344 66.59375 55.390625 66.339844 54.613281 C 66 53.746094 65.957031 52.863281 66.210938 51.96875 C 66.597656 50.9375 67.707031 50.554688 68.703125 50.371094 C 69.585938 50.265625 70.472656 50.265625 71.355469 50.371094 C 72.257812 50.484375 73.152344 50.648438 74.035156 50.867188 C 74.898438 51.050781 75.753906 51.273438 76.609375 51.496094 C 78.285156 51.964844 79.933594 52.523438 81.550781 53.175781 C 82.347656 53.492188 83.21875 53.78125 84.042969 54.125 C 84.863281 54.46875 85.636719 54.867188 86.4375 55.242188 C 87.234375 55.617188 88.082031 56.039062 88.878906 56.480469 C 89.679688 56.917969 90.476562 57.277344 91.273438 57.734375 L 92.503906 57.734375 L 95.050781 57.851562 C 95.792969 57.851562 96.550781 57.949219 97.292969 58.003906 L 97.421875 58.003906 C 98.347656 58.0625 99.273438 58.132812 100.183594 58.226562 C 101.09375 58.324219 102.214844 58.53125 103.21875 58.730469 C 104.015625 58.898438 104.816406 59.082031 105.613281 59.265625 C 106.414062 59.449219 107.371094 59.648438 108.25 59.855469 C 109.128906 60.066406 109.917969 60.296875 110.746094 60.527344 L 113.34375 61.207031 C 114.140625 61.421875 114.941406 61.675781 115.738281 61.941406 C 116.121094 62.0625 116.492188 62.21875 116.847656 62.414062 C 117.222656 62.613281 117.589844 62.84375 117.972656 63.035156 C 118.785156 63.429688 119.613281 63.773438 120.464844 64.074219 C 121.230469 64.332031 122.011719 64.566406 122.8125 64.765625 C 123.308594 64.890625 123.800781 65 124.296875 65.101562 C 124.488281 64.921875 124.6875 64.746094 124.894531 64.574219 C 125.101562 64.394531 125.335938 64.265625 125.597656 64.191406 C 125.890625 63.964844 126.222656 63.875 126.589844 63.929688 C 126.847656 63.96875 127.066406 64.078125 127.25 64.265625 C 127.4375 64.449219 127.546875 64.667969 127.585938 64.925781 C 127.628906 65.265625 127.554688 65.574219 127.355469 65.851562 C 128.433594 66.132812 129.511719 66.453125 130.546875 66.789062 C 132.234375 67.324219 133.863281 68.03125 135.539062 68.625 C 136.59375 68.984375 137.671875 69.308594 138.730469 69.695312 C 138.492188 69.292969 138.261719 68.894531 138.039062 68.480469 C 137.414062 67.324219 136.816406 66.15625 136.175781 65.015625 C 135.824219 64.390625 135.484375 63.753906 135.164062 63.113281 C 134.84375 62.476562 134.554688 61.859375 134.261719 61.230469 C 133.703125 60.074219 133.152344 58.90625 132.578125 57.757812 L 132.519531 57.636719 C 131.996094 56.578125 131.410156 55.554688 130.765625 54.5625 C 130.640625 54.378906 130.507812 54.199219 130.363281 54.027344 C 129.996094 53.621094 129.566406 53.230469 129.175781 52.886719 C 128.785156 52.542969 128.375 52.089844 127.914062 51.738281 C 126.964844 50.9375 125.964844 50.140625 124.976562 49.34375 C 124.433594 48.910156 123.875 48.496094 123.378906 48.039062 C 122.882812 47.585938 122.363281 47.179688 121.886719 46.730469 C 120.933594 45.765625 120.039062 44.75 119.203125 43.679688 C 118.765625 43.148438 118.332031 42.605469 117.933594 42.035156 C 117.535156 41.46875 117.136719 40.824219 116.777344 40.207031 C 116.082031 39.035156 115.363281 37.878906 114.722656 36.664062 C 114.390625 36.03125 114.078125 35.394531 113.742188 34.761719 C 113.40625 34.132812 113.078125 33.507812 112.761719 32.871094 C 112.164062 31.609375 111.695312 30.304688 111.355469 28.949219 C 111 27.613281 110.734375 26.257812 110.554688 24.886719 C 110.414062 23.539062 110.382812 22.183594 110.46875 20.832031 C 110.46875 20.152344 110.554688 19.464844 110.628906 18.785156 C 110.679688 18.175781 110.769531 17.566406 110.890625 16.964844 C 111.175781 15.789062 111.691406 14.722656 112.441406 13.773438 C 112.855469 13.246094 113.363281 12.828125 113.957031 12.519531 L 114.039062 12.519531 C 113.71875 11.972656 113.453125 11.398438 113.238281 10.804688 C 112.976562 10.148438 112.734375 9.484375 112.503906 8.824219 C 112.304688 8.191406 112.140625 7.554688 112.007812 6.90625 C 111.808594 6.121094 111.699219 5.324219 111.683594 4.511719 C 111.691406 4.246094 111.746094 3.996094 111.851562 3.753906 C 111.992188 3.378906 112.226562 3.074219 112.550781 2.84375 C 113.277344 2.417969 114.035156 2.332031 114.835938 2.585938 C 115.257812 2.699219 115.671875 2.84375 116.074219 3.019531 C 116.5 3.210938 116.917969 3.425781 117.320312 3.664062 C 118.085938 4.128906 118.804688 4.664062 119.476562 5.261719 C 120.167969 5.867188 120.847656 6.5 121.527344 7.128906 C 122.207031 7.761719 122.828125 8.320312 123.433594 8.957031 C 124.042969 9.597656 124.671875 10.308594 125.304688 10.96875 C 125.933594 11.632812 126.523438 12.222656 127.132812 12.855469 C 128.328125 14.097656 129.449219 15.40625 130.492188 16.78125 C 131.011719 17.476562 131.507812 18.179688 132.007812 18.890625 C 132.511719 19.601562 133.015625 20.320312 133.488281 21.054688 C 133.957031 21.789062 134.355469 22.53125 134.78125 23.273438 C 134.933594 23.5625 134.933594 23.847656 134.78125 24.136719 C 135.578125 24.550781 136.304688 24.933594 137.054688 25.414062 C 139.074219 26.621094 140.945312 28.039062 142.835938 29.40625 C 144.578125 30.667969 146.316406 31.90625 147.945312 33.300781 L 148.359375 33.660156 L 148.527344 33.804688 C 149.328125 34.484375 150.0625 35.171875 150.796875 35.90625 C 151.53125 36.640625 152.335938 37.5 153.054688 38.378906 C 154.453125 40.074219 155.867188 41.75 157.246094 43.464844 C 158.148438 44.582031 159.074219 45.695312 160.027344 46.777344 C 161.703125 48.746094 163.492188 50.609375 165.390625 52.367188 L 165.429688 52.367188 C 166.414062 53.230469 167.378906 54.101562 168.320312 54.996094 C 169.261719 55.890625 170.054688 56.757812 170.933594 57.558594 C 171.808594 58.355469 172.671875 59.011719 173.542969 59.738281 C 174.414062 60.464844 175.386719 61.261719 176.296875 62.042969 C 178 63.523438 179.722656 64.976562 181.429688 66.4375 C 183.121094 67.835938 184.59375 69.433594 185.855469 71.226562 C 186.476562 72.136719 187.050781 73.078125 187.644531 74.003906 C 188.234375 74.929688 188.792969 75.921875 189.296875 76.855469 C 190.398438 78.859375 191.394531 80.910156 192.304688 83.011719 C 193.214844 85.109375 194.109375 87.265625 194.917969 89.4375 C 195.722656 91.609375 196.511719 93.894531 197.3125 96.136719 C 197.941406 97.964844 198.550781 99.808594 199.179688 101.628906 L 199.300781 101.980469 C 199.546875 102.675781 199.792969 103.371094 200.035156 104.074219 C 200.328125 104.871094 200.609375 105.75 200.898438 106.589844 C 201.046875 107.019531 201.207031 107.457031 201.351562 107.890625 C 201.414062 108.035156 201.464844 108.183594 201.511719 108.335938 L 201.550781 108.472656 L 201.550781 108.511719 C 202.023438 109.855469 202.453125 111.203125 202.910156 112.503906 C 202.910156 112.609375 202.972656 112.695312 203.003906 112.792969 C 203.371094 113.847656 203.730469 114.882812 204.074219 115.9375 L 204.273438 116.558594 C 204.335938 116.613281 204.386719 116.671875 204.433594 116.734375 C 204.457031 116.773438 204.472656 116.8125 204.488281 116.855469 C 204.53125 116.9375 204.578125 117.007812 204.617188 117.078125 C 205.167969 117.835938 205.796875 118.523438 206.398438 119.234375 C 206.996094 119.945312 207.660156 120.792969 208.320312 121.550781 C 209.832031 123.191406 211.425781 124.746094 213.113281 126.207031 C 213.742188 126.757812 214.367188 127.300781 214.980469 127.867188 C 215.59375 128.433594 216.136719 128.953125 216.730469 129.460938 C 218.222656 130.757812 219.828125 131.898438 221.375 133.121094 C 222.925781 134.339844 224.480469 135.617188 225.949219 136.96875 C 227.390625 138.269531 228.738281 139.660156 230 141.136719 C 231.292969 142.761719 232.359375 144.53125 233.191406 146.4375 C 234.089844 148.246094 234.886719 150.09375 235.585938 151.984375 C 235.953125 153.03125 236.265625 154.085938 236.570312 155.179688 C 236.839844 156.105469 237.121094 157.023438 237.367188 157.949219 C 237.984375 160.082031 238.519531 162.230469 239.085938 164.335938 C 239.59375 166.246094 240.15625 168.128906 240.679688 170.015625 C 241.191406 171.738281 241.695312 173.464844 242.277344 175.179688 C 242.886719 177.054688 243.578125 178.910156 244.136719 180.769531 C 244.699219 182.628906 245.152344 184.5625 245.550781 186.484375 C 245.949219 188.410156 246.351562 190.421875 246.644531 192.417969 C 246.878906 194.015625 247.078125 195.546875 247.300781 197.113281 C 247.523438 198.675781 247.789062 200.304688 248.097656 201.902344 C 248.410156 203.5 248.722656 205.097656 249.015625 206.75 C 249.3125 208.402344 249.625 210.207031 249.976562 211.921875 C 250.382812 213.886719 250.859375 215.828125 251.363281 217.765625 C 251.929688 219.960938 252.457031 222.160156 253 224.355469 C 253.503906 226.40625 254.109375 228.433594 254.675781 230.460938 C 255.246094 232.488281 255.890625 234.589844 256.554688 236.632812 C 256.992188 237.992188 257.425781 239.339844 257.886719 240.6875 C 258.359375 242.050781 258.910156 243.382812 259.53125 244.679688 C 260.121094 245.78125 260.769531 246.84375 261.472656 247.875 C 262.667969 249.617188 264.011719 251.253906 265.351562 252.882812 C 266.695312 254.511719 268.042969 256.179688 269.425781 257.792969 C 270.175781 258.644531 270.949219 259.484375 271.707031 260.332031 C 272.046875 260.058594 272.425781 259.863281 272.839844 259.746094 C 273.359375 259.601562 273.871094 259.613281 274.382812 259.789062 L 274.453125 259.789062 C 274.765625 259.839844 275.0625 259.933594 275.347656 260.066406 C 275.71875 260.21875 276.066406 260.417969 276.386719 260.65625 C 277.074219 261.164062 277.492188 261.839844 277.640625 262.683594 C 277.820312 263.269531 277.847656 263.859375 277.710938 264.457031 C 277.574219 265.039062 277.332031 265.570312 276.984375 266.054688 C 276.882812 266.199219 276.769531 266.34375 276.648438 266.476562 C 276.90625 266.835938 277.160156 267.203125 277.410156 267.570312 C 278.480469 269.175781 279.445312 270.84375 280.304688 272.570312 C 281.269531 274.464844 282.171875 276.390625 283.011719 278.34375 C 283.859375 280.332031 284.515625 282.398438 285.304688 284.417969 C 286.09375 286.4375 287.019531 288.355469 287.980469 290.277344 C 288.722656 291.746094 289.488281 293.199219 290.246094 294.652344 C 291.003906 296.105469 291.84375 297.71875 292.601562 299.253906 C 293.359375 300.785156 294.152344 302.335938 294.917969 303.875 C 295.753906 305.566406 296.570312 307.269531 297.417969 308.953125 C 298.0625 310.253906 298.757812 311.523438 299.453125 312.792969 C 300.148438 314.0625 300.792969 315.324219 301.480469 316.585938 C 302.167969 317.847656 302.980469 319.261719 303.730469 320.578125 C 304.480469 321.894531 305.375 323.414062 306.277344 324.777344 C 307.078125 325.945312 307.941406 327.09375 308.816406 328.21875 C 309.695312 329.34375 310.695312 330.527344 311.554688 331.621094 Z M 271.957031 266.742188 L 272.074219 266.253906 C 271.582031 265.722656 271.234375 265.105469 271.027344 264.410156 C 270.886719 264.179688 270.777344 263.9375 270.703125 263.675781 C 270.550781 263.144531 270.550781 262.609375 270.703125 262.078125 C 269.433594 260.664062 268.121094 259.269531 266.894531 257.816406 C 265.472656 256.136719 264.097656 254.429688 262.710938 252.730469 C 262.046875 251.929688 261.390625 251.132812 260.777344 250.246094 C 260.164062 249.359375 259.683594 248.648438 259.179688 247.851562 C 258.628906 246.988281 258.121094 246.101562 257.664062 245.183594 C 257.203125 244.203125 256.796875 243.203125 256.441406 242.183594 C 256.332031 241.894531 256.234375 241.609375 256.128906 241.320312 C 255.410156 239.261719 254.734375 237.183594 254.0625 235.109375 C 253.390625 233.03125 252.890625 231.117188 252.332031 229.066406 C 252.050781 228.035156 251.761719 226.996094 251.484375 225.957031 C 251.203125 224.921875 250.949219 223.835938 250.683594 222.765625 C 250.191406 220.648438 249.625 218.550781 249.089844 216.441406 C 248.554688 214.332031 248.136719 212.304688 247.746094 210.222656 C 247.539062 209.144531 247.355469 208.074219 247.164062 207.027344 C 246.996094 206.070312 246.804688 205.121094 246.621094 204.160156 C 246.230469 202.085938 245.824219 200.019531 245.542969 197.933594 C 245.257812 195.984375 245.023438 194.023438 244.746094 192.082031 C 244.464844 190.140625 244.082031 188.3125 243.707031 186.445312 C 243.707031 186.445312 243.707031 186.398438 243.707031 186.375 C 243.316406 184.496094 242.859375 182.636719 242.292969 180.785156 C 241.726562 178.933594 241.039062 177.070312 240.441406 175.195312 C 239.84375 173.320312 239.355469 171.644531 238.84375 169.855469 C 238.335938 168.066406 237.734375 166.078125 237.25 164.167969 C 236.761719 162.261719 236.25 160.273438 235.691406 158.339844 C 235.4375 157.464844 235.171875 156.585938 234.894531 155.714844 C 234.613281 154.84375 234.351562 153.847656 234.039062 152.921875 C 233.640625 151.785156 233.191406 150.675781 232.707031 149.582031 C 232.21875 148.488281 231.699219 147.316406 231.109375 146.207031 C 230.664062 145.3125 230.164062 144.449219 229.617188 143.617188 C 229.238281 143.082031 228.816406 142.589844 228.417969 142.09375 C 227.042969 140.554688 225.585938 139.097656 224.042969 137.726562 L 223.675781 137.40625 C 221.824219 135.808594 219.882812 134.269531 217.941406 132.761719 C 217.015625 132.050781 216.097656 131.332031 215.226562 130.546875 C 214.359375 129.765625 213.375 128.824219 212.425781 127.984375 C 210.355469 126.203125 208.425781 124.277344 206.636719 122.214844 C 206.398438 121.925781 206.15625 121.644531 205.925781 121.359375 C 206.253906 122.316406 206.566406 123.28125 206.902344 124.242188 L 206.949219 124.375 C 207.066406 124.734375 207.195312 125.085938 207.339844 125.4375 C 207.402344 125.589844 207.46875 125.75 207.523438 125.902344 C 207.597656 126.085938 207.636719 126.277344 207.644531 126.476562 C 207.789062 126.507812 207.933594 126.546875 208.074219 126.597656 L 208.410156 126.714844 C 208.488281 126.574219 208.601562 126.464844 208.746094 126.390625 C 208.917969 126.289062 209.105469 126.253906 209.300781 126.277344 C 209.5 126.300781 209.671875 126.386719 209.816406 126.523438 C 210.128906 126.960938 210.171875 127.425781 209.949219 127.914062 C 210.230469 128.226562 210.507812 128.535156 210.75 128.863281 C 210.988281 129.191406 211.140625 129.351562 211.324219 129.597656 C 211.507812 129.847656 211.660156 130.101562 211.820312 130.398438 C 212.554688 131.605469 213.101562 132.894531 213.464844 134.261719 C 213.585938 134.742188 213.660156 135.234375 213.695312 135.730469 C 213.695312 135.792969 213.695312 135.851562 213.695312 135.914062 C 213.785156 136.058594 213.863281 136.210938 213.925781 136.367188 C 214.03125 136.601562 214.132812 136.824219 214.230469 137.054688 C 214.4375 137.542969 214.652344 138.023438 214.882812 138.492188 L 216.058594 140.777344 C 216.460938 141.554688 216.90625 142.3125 217.390625 143.042969 L 217.550781 143.28125 C 218.414062 144.535156 219.269531 145.8125 220.074219 147.109375 C 220.503906 147.792969 220.921875 148.488281 221.296875 149.214844 C 221.671875 149.941406 222.09375 150.757812 222.429688 151.546875 C 222.765625 152.335938 223.226562 153.328125 223.621094 154.238281 C 224.011719 155.148438 224.320312 156.027344 224.632812 156.9375 C 225.03125 158.078125 225.496094 159.203125 225.925781 160.335938 C 226.007812 160.535156 226.007812 160.738281 225.925781 160.9375 C 225.847656 161.136719 225.707031 161.28125 225.511719 161.367188 C 225.414062 161.410156 225.3125 161.433594 225.207031 161.429688 C 224.859375 161.433594 224.613281 161.273438 224.472656 160.953125 C 224.25 160.402344 224.058594 159.84375 223.859375 159.285156 C 223.660156 158.722656 223.417969 158.117188 223.21875 157.535156 L 223.21875 157.464844 C 222.851562 156.417969 222.421875 155.410156 222 154.382812 C 221.574219 153.351562 221.074219 152.289062 220.5625 151.257812 C 219.835938 149.847656 218.964844 148.511719 218.117188 147.179688 C 217.710938 146.539062 217.320312 145.902344 216.898438 145.269531 C 216.472656 144.640625 216.003906 143.945312 215.59375 143.257812 C 215.285156 142.730469 214.988281 142.199219 214.71875 141.664062 L 214.332031 140.863281 L 213.359375 140.863281 C 213.59375 141.113281 213.648438 141.394531 213.519531 141.710938 C 213.410156 142.003906 213.28125 142.289062 213.128906 142.566406 C 212.96875 142.84375 212.792969 143.109375 212.59375 143.363281 C 212.386719 143.640625 212.148438 143.890625 211.882812 144.113281 C 211.617188 144.320312 211.335938 144.5 211.035156 144.648438 C 210.394531 144.972656 209.710938 145.136719 208.992188 145.144531 C 208.820312 145.15625 208.652344 145.15625 208.480469 145.144531 C 207.984375 145.078125 207.511719 144.933594 207.058594 144.710938 C 206.988281 144.859375 206.90625 145 206.8125 145.136719 L 206.644531 145.382812 C 206.4375 145.695312 206.144531 145.859375 205.765625 145.878906 C 205.683594 145.890625 205.601562 145.890625 205.519531 145.878906 C 205.367188 145.835938 205.234375 145.757812 205.117188 145.644531 C 205.003906 145.535156 204.921875 145.402344 204.875 145.253906 C 204.828125 145.101562 204.816406 144.945312 204.847656 144.789062 C 204.875 144.632812 204.941406 144.492188 205.039062 144.367188 C 205.050781 144.34375 205.0625 144.324219 205.082031 144.304688 C 204.652344 143.847656 204.257812 143.367188 203.890625 142.859375 C 203.59375 142.484375 203.324219 142.0625 203.09375 141.695312 C 202.882812 141.371094 202.695312 141.035156 202.523438 140.6875 C 202.332031 140.902344 202.117188 141.097656 201.886719 141.269531 L 201.519531 141.550781 C 201.367188 141.65625 201.203125 141.746094 201.03125 141.820312 C 201.011719 141.816406 200.988281 141.816406 200.96875 141.820312 C 200.988281 141.816406 201.011719 141.816406 201.03125 141.820312 L 200.929688 141.878906 C 200.058594 142.507812 199.21875 143.195312 198.324219 143.792969 C 198.046875 143.976562 197.78125 144.191406 197.527344 144.375 C 197.269531 144.550781 197.003906 144.710938 196.730469 144.855469 C 196.335938 145.054688 195.929688 145.304688 195.570312 145.496094 C 195.210938 145.6875 194.707031 145.910156 194.269531 146.125 C 193.832031 146.339844 193.167969 146.699219 192.609375 146.980469 C 191.683594 147.449219 190.789062 148 189.855469 148.480469 C 188.921875 148.960938 187.929688 149.488281 186.941406 149.957031 C 185.949219 150.429688 184.914062 150.859375 183.882812 151.300781 C 182.851562 151.738281 182.03125 152.097656 181.078125 152.464844 C 180.125 152.835938 179.148438 153.132812 178.148438 153.359375 C 177.824219 153.429688 177.503906 153.488281 177.183594 153.527344 C 177.183594 153.582031 177.183594 153.636719 177.222656 153.695312 C 177.359375 154.214844 177.464844 154.742188 177.566406 155.292969 C 177.691406 155.886719 177.777344 156.488281 177.824219 157.09375 C 177.871094 157.773438 177.824219 158.453125 177.824219 159.132812 C 177.824219 159.808594 177.824219 160.472656 177.824219 161.152344 C 177.824219 161.832031 177.824219 162.46875 177.824219 163.132812 C 177.820312 163.101562 177.820312 163.066406 177.824219 163.035156 C 177.734375 164.304688 177.597656 165.558594 177.40625 166.820312 C 177.3125 167.460938 177.214844 168.105469 177.128906 168.753906 C 177.039062 169.398438 177 169.902344 176.960938 170.476562 L 176.960938 170.757812 L 176.960938 170.628906 C 176.960938 170.980469 176.914062 171.332031 176.886719 171.683594 C 176.863281 172.035156 176.886719 172.402344 176.847656 172.761719 C 176.808594 173.121094 176.777344 173.605469 176.730469 174.03125 C 176.632812 174.828125 176.527344 175.683594 176.386719 176.496094 C 176.242188 177.3125 176.074219 178.253906 175.929688 179.132812 C 175.785156 180.011719 175.722656 180.824219 175.660156 181.6875 C 175.496094 183.410156 175.230469 185.121094 174.859375 186.8125 C 174.675781 187.703125 174.4375 188.578125 174.140625 189.4375 C 173.824219 190.398438 173.496094 191.339844 173.085938 192.265625 C 172.679688 193.191406 172.289062 193.972656 171.890625 194.804688 C 171.492188 195.636719 171.019531 196.402344 170.53125 197.199219 C 170.046875 198 169.503906 198.796875 168.9375 199.59375 C 168.371094 200.394531 167.882812 201.121094 167.292969 201.832031 C 166.699219 202.542969 166.054688 203.210938 165.398438 203.867188 C 164.757812 204.527344 164.058594 205.117188 163.300781 205.640625 C 162.5 206.152344 161.660156 206.59375 160.785156 206.957031 C 159.910156 207.304688 159.007812 207.570312 158.085938 207.753906 C 157.734375 207.835938 157.378906 207.878906 157.015625 207.882812 C 156.867188 207.890625 156.71875 207.890625 156.570312 207.882812 C 156.121094 207.824219 155.683594 207.714844 155.257812 207.5625 C 154.453125 207.257812 153.6875 206.867188 152.96875 206.390625 C 152.167969 205.871094 151.316406 205.3125 150.515625 204.738281 C 149.71875 204.160156 149.070312 203.675781 148.367188 203.140625 C 146.875 201.898438 145.46875 200.570312 144.144531 199.148438 C 142.828125 197.765625 141.503906 196.410156 140.097656 195.15625 L 139.417969 194.542969 C 138.652344 193.875 137.855469 193.253906 137.023438 192.671875 C 135.53125 191.667969 133.957031 190.804688 132.433594 189.847656 C 131.632812 189.351562 130.890625 188.792969 130.148438 188.25 C 129.40625 187.707031 128.609375 187.035156 127.882812 186.382812 C 126.464844 185.070312 125.175781 183.644531 124.007812 182.101562 C 122.828125 180.601562 121.664062 179.082031 120.441406 177.613281 C 119.898438 176.960938 119.355469 176.3125 118.796875 175.667969 C 117.726562 174.460938 116.59375 173.269531 115.515625 172.113281 C 114.996094 171.539062 114.453125 170.980469 113.917969 170.414062 C 113.382812 169.847656 112.878906 169.351562 112.320312 168.855469 L 112.234375 168.785156 C 112.253906 168.800781 112.273438 168.816406 112.289062 168.839844 C 111.25 167.929688 110.109375 167.148438 109.007812 166.316406 C 108.464844 165.910156 107.929688 165.519531 107.410156 165.085938 C 106.890625 164.65625 106.15625 164.195312 105.519531 163.761719 C 104.527344 163.109375 103.523438 162.453125 102.507812 161.824219 C 101.496094 161.191406 100.34375 160.457031 99.316406 159.746094 C 98.914062 159.476562 98.515625 159.21875 98.09375 158.949219 C 97.671875 158.675781 97.152344 158.382812 96.664062 158.148438 C 96.058594 157.847656 95.425781 157.582031 94.804688 157.296875 C 94.179688 157.007812 93.597656 156.808594 92.984375 156.585938 C 92.367188 156.359375 91.554688 156.144531 90.835938 155.953125 C 90.117188 155.761719 89.496094 155.601562 88.824219 155.46875 C 88.167969 155.347656 87.507812 155.265625 86.84375 155.226562 C 86.378906 155.226562 85.910156 155.226562 85.445312 155.226562 C 86.730469 156.203125 87.945312 157.238281 89.167969 158.285156 C 89.8125 158.84375 90.476562 159.386719 91.097656 159.976562 C 91.722656 160.570312 92.296875 161.144531 92.894531 161.726562 C 93.496094 162.308594 94.085938 162.925781 94.644531 163.5625 C 94.921875 163.898438 95.171875 164.25 95.441406 164.601562 C 95.714844 164.953125 95.929688 165.296875 96.160156 165.65625 C 96.636719 166.390625 97.027344 167.171875 97.328125 167.992188 C 97.476562 168.375 97.59375 168.761719 97.6875 169.160156 C 97.78125 169.574219 97.839844 169.992188 97.863281 170.414062 C 97.917969 171.316406 97.828125 172.207031 97.589844 173.078125 C 97.308594 173.757812 96.921875 174.375 96.433594 174.925781 C 95.945312 175.554688 95.414062 176.148438 94.835938 176.695312 C 94.527344 176.984375 94.199219 177.25 93.855469 177.496094 C 93.496094 177.757812 93.136719 178.023438 92.761719 178.292969 C 92.421875 178.527344 92.058594 178.722656 91.675781 178.875 C 91.269531 179.015625 90.859375 179.128906 90.445312 179.21875 C 90.066406 179.296875 89.6875 179.335938 89.300781 179.332031 C 88.761719 179.328125 88.230469 179.261719 87.707031 179.132812 C 86.875 178.929688 86.074219 178.636719 85.3125 178.253906 C 84.574219 177.878906 83.847656 177.457031 83.148438 177.023438 C 81.703125 176.113281 80.273438 175.15625 78.921875 174.109375 C 77.519531 173.046875 76.203125 171.886719 74.980469 170.621094 C 74.738281 170.375 74.5 170.109375 74.269531 169.824219 C 74.339844 170.023438 74.40625 170.230469 74.476562 170.429688 C 74.789062 171.339844 75.105469 172.242188 75.464844 173.128906 C 75.824219 174.015625 76.265625 175.011719 76.71875 175.929688 C 76.777344 176.042969 76.839844 176.152344 76.894531 176.273438 L 76.839844 176.167969 C 77.414062 177.296875 77.972656 178.429688 78.570312 179.539062 C 78.875 180.089844 79.1875 180.632812 79.507812 181.175781 C 79.824219 181.71875 80.136719 182.15625 80.457031 182.636719 C 81.066406 183.554688 81.726562 184.433594 82.4375 185.28125 C 83.71875 186.707031 85.070312 188.066406 86.492188 189.359375 C 87.050781 189.847656 87.617188 190.316406 88.199219 190.773438 C 88.785156 191.226562 89.4375 191.691406 90.0625 192.152344 C 91.316406 193.089844 92.535156 194.046875 93.75 195.035156 C 94.964844 196.027344 95.953125 196.769531 97.007812 197.6875 C 98.0625 198.605469 99.019531 199.546875 100.042969 200.457031 L 100.144531 200.554688 C 100.894531 201.207031 101.636719 201.863281 102.355469 202.542969 C 103.074219 203.222656 103.742188 203.949219 104.359375 204.722656 C 105.710938 206.382812 106.996094 208.089844 108.410156 209.703125 C 109.429688 210.851562 110.453125 212.003906 111.515625 213.113281 C 112.578125 214.222656 113.820312 215.402344 114.921875 216.59375 C 116.027344 217.78125 117.0625 218.988281 118.117188 220.226562 C 119.171875 221.464844 120.035156 222.507812 120.9375 223.691406 C 121.839844 224.871094 122.644531 226 123.402344 227.21875 C 124.160156 228.441406 124.886719 229.847656 125.644531 231.164062 C 126.039062 231.851562 126.445312 232.546875 126.8125 233.238281 C 127.179688 233.933594 127.5625 234.652344 127.929688 235.363281 C 128.664062 236.746094 129.460938 238.085938 130.253906 239.4375 C 130.933594 240.601562 131.59375 241.773438 132.273438 242.941406 C 132.953125 244.105469 133.644531 245.242188 134.339844 246.390625 C 135.785156 248.738281 137.351562 251.035156 138.882812 253.335938 C 138.886719 253.324219 138.886719 253.308594 138.882812 253.296875 C 139.347656 253.976562 139.808594 254.652344 140.320312 255.300781 C 140.832031 255.945312 141.453125 256.699219 142.023438 257.390625 C 143.109375 258.695312 144.175781 260.019531 145.289062 261.296875 C 145.75 261.824219 146.222656 262.351562 146.699219 262.894531 C 147.179688 263.4375 147.691406 263.90625 148.195312 264.417969 C 149.183594 265.398438 150.164062 266.382812 151.203125 267.316406 C 151.816406 267.851562 152.449219 268.386719 153.105469 268.914062 C 153.757812 269.441406 154.414062 269.894531 155.066406 270.390625 C 156.394531 271.371094 157.703125 272.378906 159.058594 273.351562 C 160.417969 274.328125 161.6875 275.179688 162.957031 276.164062 C 164.226562 277.144531 165.503906 278.285156 166.804688 279.355469 C 167.828125 280.15625 168.871094 280.953125 169.871094 281.816406 C 170.867188 282.679688 171.828125 283.578125 172.816406 284.449219 C 173.796875 285.285156 174.816406 286.0625 175.882812 286.78125 C 176.3125 287.0625 176.746094 287.347656 177.191406 287.578125 C 177.640625 287.8125 177.941406 287.988281 178.316406 288.179688 L 178.421875 288.179688 C 179.730469 288.816406 181.054688 289.398438 182.414062 289.976562 C 183.769531 290.550781 185.222656 291.109375 186.652344 291.570312 C 188.082031 292.035156 189.582031 292.59375 190.996094 293.226562 C 192.378906 293.800781 193.667969 294.542969 194.859375 295.445312 C 196.34375 296.648438 197.640625 298.023438 198.757812 299.570312 C 199.988281 301.234375 201.054688 303.003906 202.214844 304.722656 C 203.148438 306.085938 204.066406 307.46875 205.015625 308.824219 C 205.964844 310.183594 206.941406 311.546875 207.914062 312.898438 C 208.886719 314.246094 209.765625 315.4375 210.710938 316.699219 C 211.652344 317.960938 212.53125 319.15625 213.390625 320.425781 C 214.253906 321.695312 215.109375 322.941406 215.953125 324.203125 C 216.457031 324.953125 216.9375 325.71875 217.414062 326.480469 L 217.503906 326.519531 C 217.734375 326.628906 217.855469 326.894531 217.992188 327.101562 C 218.222656 327.445312 218.46875 327.773438 218.683594 328.125 C 218.902344 328.476562 219.15625 328.882812 219.402344 329.257812 C 219.882812 330.007812 220.386719 330.734375 220.863281 331.476562 C 221.878906 333.023438 222.804688 334.621094 223.644531 336.265625 C 223.8125 336.609375 223.988281 336.960938 224.152344 337.3125 L 225.625 336.585938 C 225.816406 336.484375 226.015625 336.386719 226.207031 336.273438 C 226.140625 335.976562 226.113281 335.671875 226.125 335.363281 C 226.140625 335.078125 226.183594 334.796875 226.261719 334.519531 C 226.386719 333.976562 226.6875 333.5625 227.164062 333.273438 C 227.398438 333.140625 227.648438 333.046875 227.914062 332.992188 C 228.328125 332.929688 228.746094 332.929688 229.160156 332.992188 C 229.296875 333.003906 229.429688 333.03125 229.558594 333.082031 L 229.695312 333.121094 C 229.957031 333.210938 230.214844 333.304688 230.492188 333.417969 L 230.796875 333.550781 C 231.523438 333.050781 232.25 332.53125 232.960938 331.957031 C 233.671875 331.378906 234.558594 330.644531 235.355469 329.976562 L 237.113281 328.378906 C 236.953125 328.101562 236.824219 327.8125 236.730469 327.507812 C 236.546875 326.964844 236.4375 326.40625 236.402344 325.832031 C 236.335938 325.097656 236.378906 324.371094 236.539062 323.652344 C 236.703125 323.023438 236.984375 322.457031 237.382812 321.945312 C 237.730469 321.460938 238.160156 321.0625 238.667969 320.753906 C 239.296875 320.414062 239.96875 320.246094 240.679688 320.25 C 240.804688 320.242188 240.925781 320.242188 241.046875 320.25 C 241.550781 320.085938 242.0625 320.03125 242.589844 320.082031 C 243.253906 320.160156 243.878906 320.359375 244.464844 320.683594 L 244.539062 320.730469 C 245.800781 319.261719 247.0625 317.792969 248.265625 316.28125 C 249.566406 314.636719 250.820312 312.96875 252.027344 311.261719 L 251.980469 311.339844 L 252.042969 311.238281 L 252.105469 311.148438 C 252.25 310.933594 252.402344 310.71875 252.539062 310.503906 C 253.75 308.707031 254.933594 306.878906 256.050781 305.042969 C 257.167969 303.203125 258.359375 301.25 259.410156 299.285156 C 260.109375 297.996094 260.789062 296.699219 261.449219 295.386719 C 261.640625 295.003906 261.824219 294.589844 262.007812 294.246094 C 261.757812 293.894531 261.621094 293.503906 261.601562 293.074219 C 261.53125 292.722656 261.558594 292.378906 261.679688 292.042969 C 261.707031 291.882812 261.746094 291.726562 261.792969 291.570312 C 261.835938 291.34375 261.949219 291.15625 262.125 291.003906 C 262.304688 290.855469 262.507812 290.777344 262.742188 290.773438 L 262.75 290.773438 C 263.035156 290.589844 263.34375 290.480469 263.683594 290.445312 C 263.84375 290.078125 264.011719 289.703125 264.171875 289.328125 C 264.496094 288.53125 264.816406 287.78125 265.121094 286.996094 C 264.835938 286.878906 264.570312 286.722656 264.324219 286.535156 C 263.855469 286.140625 263.492188 285.667969 263.238281 285.113281 C 263.003906 284.632812 262.910156 284.128906 262.953125 283.59375 C 262.996094 283.0625 263.167969 282.578125 263.476562 282.144531 C 264.132812 281.257812 264.996094 280.691406 266.070312 280.441406 C 266.550781 280.316406 267.027344 280.316406 267.507812 280.441406 C 268.011719 278.941406 268.515625 277.433594 269 275.921875 C 269.671875 273.847656 270.351562 271.769531 270.988281 269.6875 C 271.363281 268.875 271.667969 267.8125 271.957031 266.742188 Z M 222.222656 338.328125 C 221.789062 337.527344 221.351562 336.691406 220.898438 335.882812 C 220.441406 335.078125 219.988281 334.359375 219.515625 333.601562 C 219.042969 332.84375 218.597656 332.074219 218.140625 331.308594 C 217.964844 331.011719 217.800781 330.71875 217.640625 330.414062 C 217.265625 329.894531 216.898438 329.367188 216.554688 328.816406 L 216.328125 329.242188 C 216.144531 329.632812 215.996094 330.039062 215.851562 330.445312 C 215.707031 330.855469 215.636719 331.09375 215.554688 331.429688 C 215.402344 332.261719 215.292969 333.105469 215.234375 333.953125 C 215.214844 334.339844 215.214844 334.730469 215.234375 335.117188 C 215.234375 335.445312 215.316406 335.765625 215.371094 336.082031 C 215.511719 336.738281 215.695312 337.382812 215.914062 338.015625 C 215.914062 338.101562 215.980469 338.191406 216.019531 338.277344 C 216.058594 338.367188 216.164062 338.519531 216.242188 338.636719 C 216.320312 338.757812 216.53125 339.023438 216.679688 339.207031 C 216.777344 339.316406 216.878906 339.417969 216.984375 339.515625 L 217.152344 339.660156 L 217.296875 339.660156 C 217.351562 339.683594 217.40625 339.699219 217.464844 339.707031 L 217.734375 339.75 L 218.039062 339.75 C 218.246094 339.75 218.460938 339.699219 218.675781 339.667969 L 219.308594 339.46875 C 220.273438 339.1875 221.230469 338.773438 222.222656 338.335938 Z M 205.765625 126.308594 C 205.6875 126.125 205.625 125.933594 205.558594 125.75 C 205.375 125.261719 205.199219 124.769531 205.015625 124.289062 L 203.945312 121.246094 C 203.578125 120.191406 203.195312 119.148438 202.84375 118.054688 C 202.492188 116.960938 202.15625 115.945312 201.789062 114.898438 C 201.789062 114.835938 201.75 114.773438 201.734375 114.714844 C 201.550781 114.1875 201.351562 113.664062 201.167969 113.121094 C 200.824219 112.136719 200.503906 111.148438 200.171875 110.15625 C 199.867188 109.285156 199.546875 108.425781 199.261719 107.554688 C 198.972656 106.683594 198.652344 105.742188 198.339844 104.839844 C 198.339844 104.75 198.277344 104.671875 198.253906 104.59375 C 197.773438 103.234375 197.289062 101.894531 196.832031 100.535156 C 196.378906 99.179688 195.976562 98.003906 195.546875 96.742188 L 195.410156 96.359375 C 195.347656 96.199219 195.300781 96.035156 195.25 95.882812 C 195.140625 95.585938 195.035156 95.28125 194.933594 94.988281 L 194.359375 93.390625 C 193.558594 91.25 192.824219 89.09375 191.960938 87.003906 C 191.46875 85.796875 190.957031 84.609375 190.445312 83.402344 C 189.933594 82.195312 189.421875 81.152344 188.847656 80.042969 C 188.179688 78.714844 187.46875 77.40625 186.691406 76.136719 C 185.917969 74.867188 185.097656 73.621094 184.296875 72.382812 C 183.847656 71.714844 183.359375 71.074219 182.835938 70.460938 C 182.414062 69.996094 181.988281 69.550781 181.535156 69.117188 C 181.078125 68.6875 180.664062 68.28125 180.21875 67.875 C 179.363281 67.140625 178.492188 66.429688 177.640625 65.695312 L 175.148438 63.53125 C 174.246094 62.730469 173.320312 61.933594 172.402344 61.207031 C 171.484375 60.480469 170.605469 59.722656 169.734375 58.9375 C 168.863281 58.15625 168.136719 57.421875 167.339844 56.65625 C 166.539062 55.890625 165.742188 55.148438 164.945312 54.421875 C 164.144531 53.695312 163.25 52.910156 162.445312 52.113281 C 161.640625 51.3125 160.921875 50.515625 160.175781 49.71875 C 159.433594 48.917969 158.757812 48.121094 158.054688 47.320312 L 157.902344 47.15625 L 157.863281 47.105469 C 156.71875 45.804688 155.632812 44.457031 154.515625 43.113281 C 153.398438 41.773438 152.359375 40.550781 151.257812 39.289062 C 150.539062 38.492188 149.8125 37.691406 149.023438 36.957031 C 148.234375 36.222656 147.539062 35.570312 146.78125 34.898438 C 146.179688 34.371094 145.550781 33.902344 144.910156 33.421875 C 144.273438 32.941406 143.625 32.464844 142.972656 31.992188 C 141.542969 30.972656 140.121094 29.941406 138.675781 28.941406 L 138.382812 28.75 L 138.332031 28.75 C 136.488281 27.523438 134.546875 26.445312 132.625 25.324219 C 131.683594 24.773438 130.75 24.222656 129.78125 23.730469 C 128.816406 23.234375 127.976562 22.707031 127.089844 22.132812 C 126.207031 21.558594 125.367188 21.046875 124.527344 20.472656 C 123.691406 19.898438 122.859375 19.234375 122.039062 18.585938 C 121.214844 17.941406 120.511719 17.421875 119.785156 16.78125 C 119.484375 16.554688 119.214844 16.289062 118.988281 15.984375 C 118.824219 15.742188 118.757812 15.476562 118.789062 15.1875 C 118.730469 15.070312 118.667969 14.957031 118.597656 14.851562 L 118.453125 14.667969 C 118.371094 14.585938 118.300781 14.507812 118.214844 14.425781 L 118.0625 14.308594 L 117.828125 14.171875 C 117.6875 14.101562 117.542969 14.042969 117.390625 13.996094 L 117.183594 13.933594 C 117.03125 13.902344 116.875 13.882812 116.71875 13.875 C 116.589844 13.867188 116.460938 13.867188 116.328125 13.875 L 116.121094 13.875 L 115.648438 14.011719 C 115.433594 14.09375 115.21875 14.1875 115.011719 14.292969 L 114.730469 14.453125 L 114.308594 14.777344 C 114.210938 14.863281 114.117188 14.953125 114.03125 15.050781 L 113.726562 15.457031 C 113.597656 15.65625 113.480469 15.863281 113.367188 16.074219 C 113.277344 16.257812 113.199219 16.445312 113.136719 16.640625 C 113.015625 17.007812 112.925781 17.382812 112.839844 17.757812 C 112.71875 18.449219 112.632812 19.148438 112.585938 19.847656 C 112.503906 21.109375 112.503906 22.371094 112.585938 23.632812 C 112.675781 24.671875 112.835938 25.703125 113.054688 26.722656 C 113.269531 27.820312 113.550781 28.902344 113.894531 29.964844 C 114.226562 30.898438 114.605469 31.808594 115.035156 32.703125 L 115.035156 32.742188 C 115.730469 34.117188 116.417969 35.488281 117.144531 36.847656 C 117.503906 37.535156 117.941406 38.195312 118.324219 38.867188 C 118.707031 39.539062 119.125 40.207031 119.554688 40.863281 C 119.984375 41.519531 120.464844 42.078125 120.9375 42.667969 C 121.40625 43.257812 121.886719 43.839844 122.382812 44.40625 C 123.132812 45.234375 123.929688 46.015625 124.777344 46.746094 C 125.804688 47.632812 126.890625 48.449219 127.96875 49.300781 C 129.046875 50.15625 129.839844 50.898438 130.722656 51.699219 C 131.179688 52.144531 131.667969 52.574219 132.082031 53.0625 C 132.5 53.578125 132.875 54.125 133.199219 54.707031 C 133.871094 55.824219 134.429688 57.007812 134.996094 58.179688 C 135.660156 59.53125 136.3125 60.894531 136.976562 62.238281 C 137.773438 63.832031 138.675781 65.335938 139.507812 66.898438 C 139.882812 67.617188 140.304688 68.320312 140.6875 69.015625 C 141.070312 69.710938 141.566406 70.429688 142.03125 71.121094 L 142.148438 71.171875 C 142.332031 71.253906 142.476562 71.382812 142.578125 71.554688 C 142.683594 71.726562 142.730469 71.914062 142.714844 72.113281 C 143.292969 72.941406 143.910156 73.742188 144.570312 74.507812 L 146.621094 76.816406 C 147.734375 78.089844 148.917969 79.296875 150.171875 80.433594 C 151.539062 81.628906 152.960938 82.78125 154.324219 83.984375 C 154.988281 84.566406 155.644531 85.175781 156.34375 85.703125 C 156.5625 85.84375 156.765625 86.007812 156.953125 86.1875 C 157.320312 86.660156 157.539062 87.191406 157.597656 87.785156 C 157.894531 89.117188 158.15625 90.46875 158.398438 91.777344 C 158.636719 93.085938 158.851562 94.378906 159.109375 95.683594 C 159.285156 96.617188 159.46875 97.550781 159.652344 98.484375 C 159.652344 98.660156 159.722656 98.828125 159.761719 99.003906 C 160.210938 101.167969 160.71875 103.316406 161.359375 105.429688 C 161.996094 107.546875 162.765625 109.804688 163.515625 111.976562 L 164.617188 115.171875 C 165.214844 116.886719 165.847656 118.589844 166.558594 120.273438 C 167.265625 121.957031 167.984375 123.570312 168.785156 125.175781 C 169.113281 125.8125 169.4375 126.445312 169.757812 127.097656 C 170.078125 127.753906 170.308594 128.21875 170.558594 128.777344 C 171.148438 129.941406 171.753906 131.097656 172.363281 132.25 C 172.894531 133.269531 173.457031 134.277344 173.957031 135.300781 C 174.390625 136.050781 174.714844 136.851562 174.925781 137.695312 C 175.179688 139.003906 175.265625 140.351562 175.453125 141.6875 C 175.5625 142.429688 175.683594 143.164062 175.828125 143.898438 C 176.035156 144.855469 176.300781 145.796875 176.625 146.722656 L 176.664062 146.820312 C 176.832031 147.273438 177 147.730469 177.175781 148.175781 L 177.34375 148.585938 L 178.875 148.226562 C 180.246094 147.882812 181.59375 147.472656 182.925781 146.996094 C 184.65625 146.390625 186.347656 145.695312 188.042969 144.96875 C 188.960938 144.578125 189.886719 144.210938 190.804688 143.800781 C 191.601562 143.46875 192.34375 143.15625 193.097656 142.789062 L 193.230469 142.714844 C 193.292969 142.691406 193.351562 142.664062 193.40625 142.628906 L 194.691406 141.980469 C 195.554688 141.535156 196.402344 141.0625 197.253906 140.59375 C 198.109375 140.121094 198.796875 139.792969 199.523438 139.308594 L 199.402344 139.394531 C 199.585938 139.269531 199.777344 139.15625 199.976562 139.058594 C 200.042969 139.03125 200.105469 138.996094 200.160156 138.957031 L 200.53125 138.683594 L 200.808594 138.507812 L 200.9375 138.40625 L 201.136719 138.230469 C 201.222656 138.15625 201.320312 138.09375 201.414062 138.03125 C 201.214844 137.496094 201.039062 136.953125 200.878906 136.433594 C 200.675781 135.734375 200.535156 135.023438 200.457031 134.300781 C 200.382812 133.742188 200.355469 133.179688 200.371094 132.617188 L 200.265625 132.570312 C 200.003906 132.421875 199.808594 132.210938 199.683594 131.9375 C 199.617188 131.792969 199.59375 131.640625 199.605469 131.484375 C 199.617188 131.324219 199.664062 131.179688 199.75 131.046875 C 199.835938 130.910156 199.945312 130.804688 200.085938 130.726562 C 200.222656 130.648438 200.371094 130.609375 200.53125 130.605469 C 200.609375 130.609375 200.683594 130.621094 200.761719 130.644531 C 200.976562 129.917969 201.320312 129.257812 201.789062 128.664062 C 202.152344 128.195312 202.554688 127.765625 203.003906 127.378906 C 203.199219 127.210938 203.40625 127.0625 203.628906 126.933594 C 203.882812 126.789062 204.148438 126.671875 204.425781 126.582031 C 204.601562 126.515625 204.792969 126.46875 204.976562 126.421875 C 205.238281 126.359375 205.5 126.324219 205.765625 126.308594 Z M 176.019531 158.582031 C 176.019531 158.023438 176.019531 157.464844 176.019531 156.894531 C 175.957031 156.246094 175.859375 155.601562 175.722656 154.964844 C 175.609375 154.421875 175.492188 153.886719 175.386719 153.367188 C 175.078125 153.308594 174.78125 153.207031 174.5 153.0625 C 174.183594 152.890625 173.917969 152.660156 173.703125 152.367188 C 173.34375 151.90625 173.246094 151.390625 173.414062 150.828125 C 173.589844 150.199219 173.960938 149.730469 174.53125 149.414062 C 174.753906 149.285156 174.984375 149.175781 175.226562 149.09375 L 175.441406 149.039062 C 175.257812 148.617188 175.082031 148.183594 174.933594 147.746094 C 174.582031 146.785156 174.292969 145.804688 174.070312 144.808594 C 173.839844 143.714844 173.671875 142.597656 173.511719 141.488281 C 173.351562 140.378906 173.246094 139.28125 173.03125 138.199219 C 173.011719 138.082031 172.988281 137.972656 172.953125 137.863281 C 172.71875 137.226562 172.453125 136.609375 172.152344 136 L 172.152344 136.066406 C 171.84375 135.457031 171.523438 134.859375 171.203125 134.261719 C 171.136719 134.269531 171.070312 134.269531 171.003906 134.261719 C 170.882812 134.261719 170.765625 134.238281 170.652344 134.1875 C 170.285156 134.011719 169.945312 133.800781 169.621094 133.550781 C 169.367188 133.390625 169.085938 133.246094 168.824219 133.085938 L 167.652344 132.34375 C 166.925781 131.890625 166.214844 131.410156 165.503906 130.921875 C 164.703125 130.347656 163.859375 129.726562 163.058594 129.09375 C 162.261719 128.464844 161.511719 127.875 160.753906 127.257812 C 159.226562 126.03125 157.558594 124.960938 156.121094 123.660156 C 155.324219 122.988281 154.621094 122.300781 153.863281 121.628906 C 153.105469 120.960938 152.472656 120.304688 151.792969 119.625 C 150.714844 118.53125 149.636719 117.429688 148.601562 116.28125 C 147.5625 115.132812 146.476562 113.886719 145.40625 112.710938 L 145.152344 112.425781 L 145.238281 112.527344 C 143.9375 111.050781 142.589844 109.621094 141.246094 108.210938 C 140.910156 107.851562 140.570312 107.5 140.21875 107.15625 C 140.125 107.257812 140.015625 107.339844 139.890625 107.402344 C 139.722656 107.46875 139.550781 107.496094 139.371094 107.492188 L 138.675781 107.433594 C 137.757812 107.371094 136.832031 107.28125 135.914062 107.210938 L 135.640625 107.210938 L 133.390625 107.066406 C 132.65625 107.011719 131.921875 106.941406 131.1875 106.890625 L 131.234375 106.890625 L 130.980469 106.890625 C 130.179688 106.84375 129.382812 106.820312 128.535156 106.78125 C 127.691406 106.738281 126.859375 106.675781 126.011719 106.652344 C 125.167969 106.628906 124.351562 106.605469 123.515625 106.589844 C 122.675781 106.574219 122.03125 106.589844 121.285156 106.589844 L 121.144531 106.589844 C 119.242188 106.777344 117.355469 107.0625 115.484375 107.449219 C 113.539062 107.8125 111.578125 108.0625 109.605469 108.191406 C 107.492188 108.335938 105.359375 108.304688 103.21875 108.449219 C 101.71875 108.527344 100.230469 108.683594 98.746094 108.917969 C 98 109.09375 97.265625 109.3125 96.542969 109.566406 C 95.179688 110.046875 93.847656 110.605469 92.550781 111.242188 C 91.699219 111.675781 90.851562 112.128906 90.011719 112.578125 C 89.175781 113.023438 88.257812 113.480469 87.347656 113.886719 L 87.308594 113.886719 C 87.21875 114 87.105469 114.085938 86.972656 114.140625 C 86.804688 114.199219 86.636719 114.242188 86.460938 114.261719 L 84.71875 115.003906 C 83.875 115.355469 83.019531 115.699219 82.140625 115.984375 C 80.71875 116.457031 79.289062 116.917969 77.851562 117.335938 L 75.800781 117.964844 C 75.15625 118.171875 74.507812 118.363281 73.863281 118.582031 C 73.355469 118.753906 72.863281 118.957031 72.382812 119.195312 L 72.226562 119.28125 L 72.167969 119.324219 C 72.128906 119.363281 72.089844 119.40625 72.058594 119.449219 L 71.992188 119.53125 L 71.992188 119.609375 C 71.992188 119.648438 71.992188 119.691406 71.992188 119.730469 C 71.988281 119.800781 71.988281 119.867188 71.992188 119.9375 C 71.992188 120.066406 71.992188 120.191406 72.042969 120.3125 C 72.089844 120.433594 72.152344 120.742188 72.214844 120.953125 C 72.351562 121.304688 72.496094 121.644531 72.664062 121.988281 C 72.832031 122.332031 72.910156 122.445312 73.054688 122.667969 L 73.054688 122.707031 C 73.285156 123.09375 73.535156 123.46875 73.804688 123.824219 C 74.273438 124.34375 74.765625 124.835938 75.28125 125.304688 C 75.832031 125.769531 76.402344 126.207031 77 126.613281 C 77.535156 126.96875 78.089844 127.292969 78.660156 127.585938 C 79.171875 127.824219 79.691406 128.066406 80.257812 128.257812 C 80.796875 128.4375 81.347656 128.585938 81.910156 128.695312 C 82.589844 128.832031 83.273438 128.929688 83.960938 128.992188 C 84.65625 129.03125 85.351562 129.03125 86.046875 128.992188 C 87.121094 128.878906 88.183594 128.703125 89.238281 128.464844 C 90.09375 128.289062 90.9375 128.097656 91.777344 127.851562 L 94.277344 127.132812 C 95.148438 126.890625 96.007812 126.675781 96.894531 126.5 C 97.824219 126.355469 98.761719 126.324219 99.699219 126.40625 C 100.664062 126.445312 101.636719 126.546875 102.597656 126.683594 C 103.554688 126.820312 104.394531 126.949219 105.285156 127.105469 C 106.179688 127.265625 107.195312 127.464844 108.160156 127.609375 C 109.128906 127.753906 110.132812 127.9375 111.125 128.144531 L 111.402344 128.144531 C 112.28125 128.3125 113.167969 128.472656 114.054688 128.671875 C 114.941406 128.871094 115.898438 129.113281 116.824219 129.304688 C 118.144531 129.566406 119.472656 129.753906 120.816406 129.863281 C 122.730469 129.980469 124.640625 130.011719 126.546875 130.078125 L 129.414062 130.214844 C 130.429688 130.261719 131.441406 130.332031 132.457031 130.414062 C 133.367188 130.453125 134.257812 130.601562 135.132812 130.851562 C 135.566406 131.003906 135.976562 131.210938 136.359375 131.464844 C 136.769531 131.730469 137.160156 131.992188 137.589844 132.265625 C 138.417969 132.78125 139.214844 133.335938 139.984375 133.933594 C 140.703125 134.492188 141.40625 135.074219 142.109375 135.648438 C 142.8125 136.226562 143.625 136.910156 144.410156 137.519531 C 145.191406 138.125 146.003906 138.675781 146.742188 139.25 L 148.011719 140.144531 L 148.058594 140.144531 L 148.136719 140.191406 L 149.40625 140.992188 C 150.261719 141.535156 151.148438 142.039062 152.019531 142.589844 C 152.886719 143.140625 153.613281 143.554688 154.414062 144.042969 C 155.210938 144.527344 156.089844 145.023438 156.929688 145.527344 C 157.765625 146.03125 158.445312 146.492188 159.203125 146.988281 C 159.59375 147.234375 160.003906 147.492188 160.34375 147.785156 C 160.6875 148.082031 161.039062 148.265625 161.359375 148.527344 C 161.6875 148.808594 161.996094 149.109375 162.292969 149.421875 C 162.453125 149.582031 162.613281 149.75 162.757812 149.925781 C 162.953125 149.859375 163.15625 149.824219 163.363281 149.820312 C 163.574219 149.828125 163.785156 149.84375 163.992188 149.871094 C 164.292969 149.917969 164.578125 150.015625 164.839844 150.164062 C 165.183594 150.355469 165.449219 150.621094 165.640625 150.964844 C 165.820312 151.351562 165.890625 151.761719 165.851562 152.191406 C 165.816406 152.617188 165.671875 153.007812 165.421875 153.359375 L 165.910156 154.078125 C 166.367188 154.757812 166.820312 155.433594 167.25 156.121094 C 167.683594 156.808594 168.1875 157.621094 168.585938 158.421875 C 168.703125 158.652344 168.839844 158.882812 168.960938 159.125 C 169.078125 159.363281 169.175781 159.644531 169.273438 159.921875 C 169.480469 160.519531 169.78125 161.085938 170.023438 161.671875 C 170.125 161.902344 170.214844 162.132812 170.324219 162.355469 C 170.386719 162.46875 170.4375 162.582031 170.484375 162.699219 C 170.585938 162.976562 170.601562 163.261719 170.53125 163.546875 C 170.472656 163.765625 170.351562 163.945312 170.167969 164.082031 C 169.984375 164.21875 169.777344 164.28125 169.550781 164.273438 C 169.421875 164.273438 169.300781 164.25 169.183594 164.203125 C 168.839844 164.050781 168.597656 163.804688 168.457031 163.460938 C 168.371094 163.292969 168.304688 163.117188 168.234375 162.941406 C 168.082031 162.546875 167.921875 162.140625 167.769531 161.773438 C 167.617188 161.40625 167.460938 160.976562 167.285156 160.617188 C 167.203125 160.457031 167.140625 160.296875 167.066406 160.128906 L 167.019531 160.066406 C 166.558594 159.378906 166.070312 158.714844 165.621094 158.023438 C 165.175781 157.328125 164.746094 156.585938 164.320312 155.851562 C 164.097656 155.476562 163.882812 155.050781 163.660156 154.707031 C 163.542969 154.71875 163.425781 154.71875 163.308594 154.707031 L 163.050781 154.707031 C 163.078125 154.949219 163.035156 155.175781 162.917969 155.386719 L 162.917969 155.425781 C 162.820312 155.628906 162.679688 155.785156 162.484375 155.898438 C 162.550781 156.007812 162.605469 156.121094 162.644531 156.242188 C 162.816406 156.695312 162.816406 157.152344 162.644531 157.605469 C 162.472656 158.210938 162.105469 158.644531 161.535156 158.90625 C 161.332031 158.992188 161.125 159.035156 160.902344 159.035156 C 160.746094 159.035156 160.59375 159.011719 160.441406 158.972656 L 160.226562 158.972656 C 160.183594 159.085938 160.125 159.191406 160.042969 159.285156 C 159.957031 159.5 159.824219 159.671875 159.632812 159.808594 C 159.445312 159.941406 159.234375 160.011719 159.003906 160.019531 C 159.144531 160.578125 159.070312 161.113281 158.78125 161.613281 C 158.566406 161.964844 158.28125 162.246094 157.921875 162.449219 C 157.566406 162.652344 157.179688 162.757812 156.769531 162.765625 L 156.5625 162.765625 C 156.332031 162.761719 156.105469 162.722656 155.890625 162.644531 C 155.917969 162.789062 155.917969 162.933594 155.890625 163.074219 C 155.804688 163.554688 155.535156 163.886719 155.089844 164.082031 L 155.019531 164.082031 C 155.09375 164.542969 155.019531 164.976562 154.796875 165.382812 C 154.59375 165.785156 154.304688 166.105469 153.921875 166.34375 C 153.539062 166.582031 153.121094 166.703125 152.671875 166.707031 L 152.488281 166.707031 L 152.488281 166.804688 C 152.433594 167.210938 152.234375 167.523438 151.882812 167.738281 C 151.917969 167.867188 151.933594 167.996094 151.9375 168.128906 C 152.027344 168.257812 152.113281 168.386719 152.195312 168.511719 C 152.617188 169.144531 152.992188 169.789062 153.382812 170.445312 C 154.132812 171.761719 154.8125 173.121094 155.492188 174.4375 L 155.609375 174.683594 C 156.351562 176.136719 157.023438 177.640625 157.6875 179.140625 C 158.347656 180.640625 158.957031 182.183594 159.5 183.738281 L 159.5 183.792969 L 159.617188 184.160156 C 160.160156 185.757812 160.617188 187.355469 161.121094 188.894531 C 161.375 189.695312 161.640625 190.492188 161.871094 191.292969 C 162.101562 192.089844 162.324219 192.945312 162.539062 193.773438 C 162.964844 195.410156 163.292969 197.0625 163.59375 198.71875 C 163.800781 199.882812 163.960938 201.054688 164.066406 202.238281 C 164.601562 201.710938 165.113281 201.152344 165.605469 200.59375 C 166.339844 199.714844 167.015625 198.800781 167.644531 197.847656 C 167.617188 197.875 167.597656 197.910156 167.578125 197.941406 C 168.121094 197.144531 168.664062 196.34375 169.175781 195.46875 C 169.421875 195.027344 169.65625 194.582031 169.886719 194.140625 C 170.117188 193.703125 170.324219 193.34375 170.53125 192.9375 C 171.113281 191.8125 171.621094 190.660156 172.050781 189.472656 C 172.25 188.886719 172.449219 188.304688 172.640625 187.714844 C 172.832031 187.125 172.976562 186.5 173.113281 185.878906 C 173.410156 184.476562 173.625 183.058594 173.757812 181.628906 C 173.757812 181.191406 173.757812 180.753906 173.824219 180.3125 C 173.886719 179.875 173.902344 179.515625 173.972656 179.050781 C 174.109375 178.171875 174.238281 177.289062 174.367188 176.410156 C 174.492188 175.53125 174.660156 174.8125 174.78125 174.015625 C 174.898438 173.214844 174.988281 172.417969 175.042969 171.5625 C 175.046875 171.507812 175.046875 171.449219 175.042969 171.394531 C 175.082031 170.699219 175.082031 169.996094 175.148438 169.304688 C 175.210938 168.609375 175.300781 167.984375 175.402344 167.332031 C 175.507812 166.675781 175.625 165.949219 175.738281 165.253906 C 175.851562 164.5625 175.898438 163.96875 175.945312 163.316406 C 175.945312 162.789062 175.945312 162.269531 175.945312 161.71875 C 175.945312 161.167969 175.945312 160.640625 175.945312 160.121094 C 175.945312 159.601562 176.011719 159.125 176.019531 158.582031 Z M 169.574219 131.300781 L 169.65625 131.347656 L 168.929688 129.957031 L 167.953125 128.007812 L 167.90625 127.90625 C 167.875 127.855469 167.851562 127.800781 167.828125 127.746094 C 167.523438 127.148438 167.195312 126.554688 166.898438 125.957031 C 166.605469 125.359375 166.332031 124.785156 166.101562 124.183594 C 165.542969 122.949219 164.976562 121.703125 164.457031 120.433594 C 163.9375 119.164062 163.433594 117.828125 162.964844 116.511719 C 162.492188 115.195312 162.054688 113.828125 161.605469 112.480469 C 161.238281 111.402344 160.871094 110.316406 160.511719 109.230469 C 160.152344 108.144531 159.769531 107.027344 159.449219 105.910156 C 158.8125 103.632812 158.257812 101.335938 157.789062 99.019531 C 157.238281 96.296875 156.777344 93.558594 156.195312 90.835938 C 156.074219 90.285156 155.960938 89.726562 155.835938 89.175781 C 155.707031 88.625 155.617188 88.136719 155.460938 87.632812 C 155.460938 87.605469 155.460938 87.574219 155.460938 87.546875 L 155.363281 87.433594 C 155.234375 87.296875 155.09375 87.164062 154.949219 87.042969 C 154.207031 86.40625 153.472656 85.75 152.738281 85.09375 C 151.484375 84.007812 150.191406 82.980469 148.96875 81.902344 C 148.289062 81.292969 147.609375 80.695312 146.964844 80.058594 C 146.316406 79.417969 145.65625 78.730469 145.039062 78.027344 L 144.535156 77.46875 C 143.800781 76.625 143.027344 75.816406 142.316406 74.957031 C 141.605469 74.09375 141.128906 73.359375 140.578125 72.558594 C 139.578125 72.183594 138.605469 71.761719 137.613281 71.425781 C 136.488281 71.042969 135.347656 70.699219 134.222656 70.285156 C 133.09375 69.871094 131.9375 69.382812 130.78125 68.976562 C 129.101562 68.417969 127.386719 67.96875 125.671875 67.539062 L 125.589844 67.539062 L 125.246094 67.9375 C 125.023438 68.210938 124.816406 68.5 124.625 68.800781 C 124.578125 68.902344 124.535156 69.007812 124.496094 69.117188 C 124.335938 69.621094 124.183594 70.132812 124.074219 70.652344 C 124.027344 70.929688 123.992188 71.21875 123.96875 71.5 C 123.945312 71.777344 123.96875 72.128906 123.96875 72.441406 C 124.050781 73.460938 124.191406 74.476562 124.394531 75.480469 C 124.492188 75.953125 124.570312 76.425781 124.625 76.902344 C 124.660156 77.207031 124.675781 77.507812 124.679688 77.8125 C 124.679688 77.964844 124.679688 78.125 124.679688 78.277344 L 124.679688 78.40625 C 124.726562 78.886719 124.738281 79.367188 124.71875 79.847656 C 124.722656 80.273438 124.691406 80.691406 124.625 81.109375 C 124.574219 81.488281 124.496094 81.855469 124.394531 82.222656 C 124.261719 82.621094 124.09375 83.003906 123.890625 83.371094 L 123.890625 83.441406 C 123.71875 84.035156 123.4375 84.566406 123.042969 85.039062 C 122.671875 85.4375 122.28125 85.816406 121.871094 86.171875 C 121.488281 86.523438 121.136719 86.898438 120.785156 87.28125 L 120.664062 87.417969 C 120.410156 87.722656 120.160156 88.03125 119.9375 88.351562 C 119.773438 88.609375 119.625 88.875 119.492188 89.152344 C 119.492188 89.230469 119.417969 89.300781 119.386719 89.382812 L 119.289062 89.75 C 119.289062 89.988281 119.210938 90.230469 119.1875 90.46875 C 119.1875 90.90625 119.1875 91.339844 119.1875 91.777344 C 119.1875 92.21875 119.289062 92.671875 119.355469 93.109375 L 121.886719 94.027344 L 124.679688 94.957031 C 125.605469 95.25 126.539062 95.578125 127.476562 95.890625 C 128.410156 96.199219 129.253906 96.535156 130.148438 96.871094 C 130.964844 97.148438 131.761719 97.464844 132.542969 97.820312 C 133.277344 98.175781 133.953125 98.613281 134.574219 99.140625 C 135.371094 99.785156 136.167969 100.433594 136.894531 101.101562 C 138.347656 102.386719 139.777344 103.699219 141.183594 105.046875 C 141.773438 105.621094 142.375 106.195312 142.949219 106.796875 C 143.523438 107.394531 144.128906 108.042969 144.710938 108.671875 L 146.308594 110.414062 C 146.851562 111.003906 147.378906 111.609375 147.90625 112.21875 L 149.972656 114.53125 C 150.644531 115.28125 151.316406 116.015625 152.011719 116.726562 C 152.703125 117.4375 153.421875 118.140625 154.125 118.835938 C 154.828125 119.53125 155.539062 120.175781 156.257812 120.832031 L 157.855469 122.316406 C 158.566406 122.933594 159.292969 123.5 160.027344 124.082031 C 160.761719 124.664062 161.480469 125.214844 162.179688 125.8125 C 162.882812 126.414062 163.777344 127.171875 164.578125 127.816406 C 165.375 128.464844 166.070312 128.953125 166.84375 129.480469 L 166.988281 129.574219 L 166.941406 129.574219 C 167.785156 130.164062 168.671875 130.75 169.574219 131.300781 Z M 162.324219 203.875 L 162.5 203.746094 C 162.457031 203.660156 162.425781 203.570312 162.414062 203.476562 C 162.316406 202.941406 162.300781 202.398438 162.253906 201.878906 C 162.207031 201.359375 162.171875 200.921875 162.109375 200.449219 C 161.957031 199.371094 161.742188 198.308594 161.527344 197.253906 C 160.847656 193.933594 159.828125 190.691406 158.820312 187.460938 C 158.539062 186.574219 158.253906 185.6875 157.949219 184.800781 C 157.949219 184.71875 157.886719 184.632812 157.863281 184.554688 C 157.839844 184.472656 157.863281 184.554688 157.863281 184.554688 C 157.859375 184.535156 157.859375 184.515625 157.863281 184.496094 C 157.867188 184.480469 157.867188 184.464844 157.863281 184.449219 C 157.382812 183.074219 156.855469 181.726562 156.265625 180.386719 C 155.675781 179.042969 155.148438 177.796875 154.523438 176.527344 C 154.207031 175.914062 153.878906 175.300781 153.558594 174.675781 L 152.570312 172.777344 C 152.234375 172.144531 151.890625 171.523438 151.53125 170.898438 C 151.316406 170.523438 151.082031 170.148438 150.84375 169.789062 C 150.589844 169.90625 150.324219 169.96875 150.046875 169.972656 C 149.765625 169.96875 149.5 169.90625 149.246094 169.789062 C 148.949219 169.660156 148.683594 169.484375 148.449219 169.253906 C 148.191406 168.984375 148.015625 168.664062 147.914062 168.304688 C 147.914062 168.242188 147.898438 168.167969 147.867188 168.089844 C 147.171875 168.003906 146.476562 167.882812 145.78125 167.769531 C 145.085938 167.660156 144.183594 167.476562 143.433594 167.308594 C 142.683594 167.140625 141.839844 166.941406 141.039062 166.699219 C 140.242188 166.460938 139.347656 166.171875 138.515625 165.902344 C 137.6875 165.628906 136.917969 165.289062 136.167969 164.976562 C 134.574219 164.34375 133.03125 163.667969 131.449219 163.027344 C 129.871094 162.390625 128.457031 161.742188 126.933594 161.183594 L 126.574219 161.078125 L 126.453125 161.078125 C 126.066406 161.304688 125.660156 161.496094 125.238281 161.648438 C 124.550781 161.917969 123.859375 162.199219 123.164062 162.445312 C 122.363281 162.734375 121.496094 162.957031 120.65625 163.179688 L 120.558594 163.179688 C 120.601562 163.308594 120.625 163.441406 120.632812 163.578125 C 120.628906 163.75 120.59375 163.910156 120.527344 164.066406 C 120.457031 164.222656 120.363281 164.363281 120.242188 164.480469 C 120.121094 164.597656 119.980469 164.691406 119.824219 164.753906 C 119.664062 164.816406 119.5 164.847656 119.332031 164.847656 C 119.113281 164.847656 118.910156 164.789062 118.722656 164.671875 C 118.417969 164.484375 118.210938 164.214844 118.101562 163.875 C 116.847656 164.175781 115.59375 164.480469 114.324219 164.746094 L 114.179688 164.746094 L 111.785156 165.214844 L 111.433594 165.269531 C 111.800781 165.542969 112.160156 165.824219 112.527344 166.070312 C 112.894531 166.316406 113.207031 166.605469 113.535156 166.867188 C 113.863281 167.132812 114.207031 167.492188 114.53125 167.808594 C 115.824219 169.121094 117.03125 170.492188 118.285156 171.800781 C 119.539062 173.113281 120.855469 174.644531 122.0625 176.121094 C 122.660156 176.855469 123.257812 177.582031 123.851562 178.316406 C 124.441406 179.050781 125.039062 179.84375 125.636719 180.59375 C 126.109375 181.183594 126.589844 181.773438 127.074219 182.339844 C 127.789062 183.144531 128.546875 183.90625 129.34375 184.625 C 130.5 185.628906 131.710938 186.566406 132.976562 187.433594 C 134.445312 188.417969 135.992188 189.273438 137.480469 190.214844 C 139.078125 191.253906 140.5625 192.4375 141.933594 193.765625 C 143.058594 194.828125 144.144531 195.929688 145.207031 197.046875 C 146.269531 198.164062 147.324219 199.277344 148.464844 200.3125 C 149.867188 201.515625 151.332031 202.632812 152.863281 203.667969 C 153.632812 204.207031 154.429688 204.695312 155.257812 205.136719 C 155.519531 205.273438 155.785156 205.394531 156.058594 205.503906 C 156.257812 205.566406 156.460938 205.621094 156.664062 205.664062 L 157.03125 205.726562 L 157.28125 205.726562 L 157.765625 205.664062 C 158.339844 205.535156 158.917969 205.390625 159.476562 205.222656 C 160.097656 204.996094 160.699219 204.730469 161.289062 204.425781 C 161.667969 204.238281 162.035156 204.027344 162.390625 203.792969 Z M 161.304688 151.179688 L 161.136719 150.980469 C 160.847656 150.667969 160.554688 150.382812 160.242188 150.101562 C 159.929688 149.820312 159.683594 149.671875 159.394531 149.460938 L 158.4375 148.785156 C 156.921875 147.769531 155.347656 146.84375 153.773438 145.917969 L 151.332031 144.457031 C 150.46875 143.9375 149.582031 143.457031 148.71875 142.941406 C 148.226562 142.636719 147.738281 142.308594 147.25 141.980469 L 147.058594 141.855469 L 146.957031 141.78125 C 146.347656 141.367188 145.75 140.984375 145.160156 140.503906 C 145.058594 140.699219 144.902344 140.824219 144.6875 140.878906 C 144.46875 140.917969 144.246094 140.917969 144.027344 140.878906 C 142.429688 140.792969 140.777344 140.878906 139.15625 140.878906 C 137.535156 140.878906 135.761719 140.945312 134.070312 141.007812 L 130.675781 141.121094 C 129.628906 141.121094 128.585938 141.183594 127.539062 141.246094 C 126.636719 141.3125 125.742188 141.414062 124.839844 141.535156 C 123.9375 141.65625 123.195312 141.757812 122.371094 141.925781 C 120.777344 142.269531 119.179688 142.722656 117.582031 143.203125 L 115.1875 144 L 113.957031 144.417969 C 114.324219 145.359375 114.667969 146.316406 115.011719 147.273438 C 115.226562 147.851562 115.441406 148.433594 115.601562 149.03125 C 115.761719 149.628906 115.882812 150.078125 116.050781 150.628906 C 116.21875 151.179688 116.519531 151.90625 116.726562 152.554688 C 116.9375 153.199219 117.09375 153.832031 117.277344 154.46875 C 117.460938 155.109375 117.679688 155.761719 117.878906 156.410156 C 118.078125 157.054688 118.261719 157.597656 118.460938 158.191406 C 118.765625 158.988281 119.148438 159.851562 119.441406 160.695312 C 119.53125 160.9375 119.625 161.175781 119.714844 161.421875 C 119.714844 161.519531 119.777344 161.605469 119.800781 161.703125 C 120.65625 161.472656 121.519531 161.222656 122.355469 160.902344 C 123.324219 160.566406 124.273438 160.179688 125.199219 159.738281 C 125.386719 159.636719 125.578125 159.546875 125.773438 159.46875 C 126.191406 159.332031 126.609375 159.332031 127.027344 159.46875 C 127.449219 159.578125 127.863281 159.71875 128.265625 159.890625 L 129.40625 160.335938 C 130.207031 160.65625 131.003906 160.992188 131.800781 161.304688 C 132.601562 161.613281 133.398438 161.941406 134.199219 162.269531 C 134.996094 162.597656 135.992188 163.003906 136.894531 163.355469 C 137.796875 163.707031 138.722656 164.105469 139.660156 164.433594 C 140.457031 164.695312 141.214844 164.945312 142.003906 165.175781 C 142.796875 165.40625 143.601562 165.566406 144.402344 165.726562 L 144.488281 165.726562 C 145.472656 165.917969 146.453125 166.078125 147.449219 166.230469 L 148.578125 166.382812 C 148.765625 166.230469 148.976562 166.121094 149.207031 166.054688 C 149.429688 166.003906 149.652344 165.984375 149.878906 165.988281 L 150.0625 165.988281 L 150.238281 165.710938 C 150.363281 165.523438 150.519531 165.367188 150.707031 165.246094 C 150.703125 165.195312 150.703125 165.144531 150.707031 165.097656 C 150.648438 164.625 150.730469 164.179688 150.957031 163.761719 L 151.003906 163.683594 C 151.316406 163.179688 151.742188 162.816406 152.289062 162.589844 C 152.550781 162.511719 152.816406 162.46875 153.085938 162.460938 C 153.242188 162.441406 153.398438 162.441406 153.550781 162.460938 C 153.636719 162.300781 153.746094 162.15625 153.871094 162.023438 C 154.105469 161.746094 154.402344 161.605469 154.765625 161.605469 C 154.699219 161.453125 154.636719 161.3125 154.589844 161.167969 C 154.429688 160.609375 154.488281 160.078125 154.773438 159.570312 C 154.898438 159.351562 155.046875 159.152344 155.226562 158.972656 C 155.582031 158.605469 156.007812 158.363281 156.503906 158.253906 C 157 158.140625 157.488281 158.171875 157.964844 158.347656 C 158.058594 158.101562 158.207031 157.898438 158.414062 157.734375 L 158.46875 157.6875 L 158.582031 157.605469 L 158.492188 157.664062 L 158.613281 157.582031 C 158.582031 157.476562 158.5625 157.371094 158.550781 157.261719 C 158.507812 156.667969 158.640625 156.113281 158.957031 155.601562 C 159.144531 155.289062 159.402344 155.050781 159.726562 154.886719 C 160.050781 154.722656 160.398438 154.65625 160.761719 154.691406 L 160.894531 154.691406 C 160.945312 154.535156 161.023438 154.390625 161.128906 154.261719 C 161.238281 154.097656 161.386719 153.980469 161.566406 153.902344 C 161.398438 153.679688 161.285156 153.429688 161.222656 153.160156 C 161.140625 152.820312 161.121094 152.476562 161.160156 152.128906 C 161.179688 151.960938 161.222656 151.800781 161.289062 151.640625 C 161.28125 151.480469 161.285156 151.316406 161.304688 151.15625 Z M 122.851562 66.867188 C 122.054688 66.699219 121.320312 66.523438 120.570312 66.285156 C 119.691406 65.996094 118.828125 65.660156 117.972656 65.300781 C 117.550781 65.144531 117.140625 64.957031 116.742188 64.742188 C 116.417969 64.550781 116.105469 64.351562 115.769531 64.175781 C 115.476562 64.027344 115.175781 63.894531 114.867188 63.777344 C 113.269531 63.25 111.675781 62.914062 110.078125 62.5 C 109.277344 62.285156 108.417969 62.027344 107.578125 61.828125 C 106.738281 61.628906 105.820312 61.453125 104.953125 61.246094 C 104.082031 61.039062 103.355469 60.855469 102.554688 60.6875 L 102.507812 60.6875 C 100.421875 60.289062 98.316406 60.023438 96.191406 59.890625 L 96.050781 59.890625 C 95.1875 59.832031 94.332031 59.808594 93.46875 59.769531 C 92.609375 59.730469 91.769531 59.679688 90.914062 59.664062 C 90.363281 59.664062 89.820312 59.664062 89.269531 59.664062 L 85.597656 59.664062 C 83.898438 59.664062 82.1875 59.59375 80.488281 59.59375 C 79.691406 59.59375 78.820312 59.648438 77.980469 59.671875 C 77.144531 59.773438 76.316406 59.730469 75.5 59.539062 C 75.398438 59.507812 75.300781 59.464844 75.210938 59.410156 C 74.691406 59.28125 74.171875 59.136719 73.613281 59.027344 L 73.046875 59.027344 L 72.742188 59.105469 L 72.609375 59.164062 L 72.488281 59.234375 C 72.429688 59.300781 72.378906 59.371094 72.328125 59.441406 L 72.167969 59.714844 C 72.167969 59.777344 72.113281 59.839844 72.082031 59.914062 C 72.015625 60.121094 71.960938 60.328125 71.914062 60.535156 C 71.914062 60.75 71.847656 60.96875 71.824219 61.183594 C 71.800781 61.628906 71.800781 62.078125 71.824219 62.523438 C 71.875 63.113281 71.957031 63.695312 72.074219 64.273438 L 72.074219 64.328125 C 72.074219 64.328125 72.074219 64.375 72.074219 64.398438 C 72.257812 65.25 72.488281 66.089844 72.769531 66.914062 C 72.769531 66.929688 72.769531 66.945312 72.769531 66.964844 C 72.992188 67.578125 73.238281 68.183594 73.519531 68.777344 C 73.796875 69.367188 74.171875 69.957031 74.539062 70.523438 C 75.339844 71.609375 76.136719 72.664062 77.015625 73.675781 C 77.351562 74.046875 77.6875 74.402344 78.054688 74.746094 C 78.597656 75.21875 79.164062 75.65625 79.730469 76.105469 C 80.296875 76.550781 80.902344 77.023438 81.527344 77.445312 C 82.472656 78.03125 83.449219 78.5625 84.457031 79.042969 L 84.59375 79.042969 C 85.664062 79.578125 86.761719 80.050781 87.890625 80.457031 L 87.929688 80.457031 C 88.832031 80.757812 89.742188 81.023438 90.652344 81.253906 C 91.105469 81.382812 91.5625 81.511719 92.023438 81.621094 C 92.488281 81.734375 93.007812 81.851562 93.503906 81.980469 C 94.46875 82.230469 95.425781 82.507812 96.394531 82.78125 C 97.359375 83.050781 98.300781 83.203125 99.242188 83.425781 C 100.183594 83.648438 101.101562 83.859375 102.019531 84.097656 C 103 84.347656 103.957031 84.667969 104.886719 85.0625 C 106.800781 85.941406 108.605469 87.007812 110.300781 88.257812 L 110.988281 88.726562 C 110.96875 88.703125 110.949219 88.6875 110.921875 88.671875 C 112.554688 89.785156 114.25 90.800781 116 91.714844 C 116.007812 91.234375 116.042969 90.753906 116.105469 90.277344 C 116.1875 89.601562 116.339844 88.941406 116.558594 88.296875 C 116.667969 88.019531 116.792969 87.753906 116.9375 87.5 C 117.023438 87.324219 117.128906 87.148438 117.230469 86.972656 C 117.40625 86.636719 117.601562 86.3125 117.8125 85.996094 C 118.058594 85.65625 118.324219 85.335938 118.613281 85.03125 C 119.082031 84.457031 119.640625 83.96875 120.152344 83.433594 C 120.464844 83.058594 120.777344 82.636719 121.054688 82.277344 C 121.144531 82.144531 121.222656 82.003906 121.296875 81.863281 C 121.390625 81.660156 121.46875 81.453125 121.550781 81.238281 C 121.628906 81.023438 121.644531 80.910156 121.6875 80.742188 L 121.734375 80.390625 L 121.78125 79.707031 C 121.792969 79.515625 121.792969 79.328125 121.78125 79.140625 C 121.78125 78.882812 121.78125 78.628906 121.726562 78.339844 C 121.679688 77.875 121.613281 77.410156 121.519531 76.949219 L 121.519531 77.125 C 121.351562 76.328125 121.207031 75.53125 121.113281 74.730469 C 121.046875 74.183594 121.015625 73.632812 121.023438 73.078125 C 121.023438 72.96875 121.023438 72.855469 121.023438 72.734375 C 121 72.371094 121 72.007812 121.023438 71.640625 C 121.207031 69.886719 121.816406 68.296875 122.851562 66.867188 Z M 117.261719 162.246094 C 117.207031 162.132812 117.167969 162.023438 117.121094 161.910156 C 116.945312 161.429688 116.769531 160.953125 116.578125 160.480469 C 116.386719 160.011719 116.183594 159.363281 115.992188 158.804688 C 115.808594 158.253906 115.632812 157.6875 115.449219 157.136719 C 115.265625 156.585938 115.019531 155.921875 114.8125 155.308594 C 114.53125 154.507812 114.238281 153.710938 113.949219 152.910156 C 113.664062 152.113281 113.320312 151.117188 112.953125 150.230469 C 112.585938 149.34375 112.296875 148.402344 112.007812 147.476562 C 111.875 147.019531 111.722656 146.566406 111.601562 146.101562 C 111.523438 145.8125 111.457031 145.527344 111.402344 145.238281 C 110.539062 145.574219 109.695312 145.925781 108.847656 146.292969 C 107.300781 146.949219 105.78125 147.667969 104.265625 148.378906 C 103.464844 148.726562 102.738281 149.085938 101.988281 149.464844 C 100.976562 149.972656 99.976562 150.507812 98.972656 151.058594 C 98.46875 151.324219 97.957031 151.59375 97.445312 151.859375 C 96.957031 152.097656 96.480469 152.367188 96.015625 152.65625 C 95.632812 152.929688 95.273438 153.238281 94.914062 153.550781 C 94.554688 153.863281 94.398438 154.03125 94.15625 154.285156 L 93.941406 154.558594 L 94.972656 154.925781 C 95.316406 155.058594 95.65625 155.171875 95.992188 155.324219 C 96.328125 155.476562 96.792969 155.667969 97.128906 155.851562 C 98.582031 156.601562 99.984375 157.449219 101.328125 158.390625 L 101.628906 158.597656 C 103.097656 159.585938 104.640625 160.464844 106.109375 161.453125 C 106.90625 161.980469 107.648438 162.507812 108.410156 163.050781 C 108.71875 163.273438 109.03125 163.507812 109.335938 163.746094 L 109.382812 163.746094 C 109.585938 163.6875 109.792969 163.660156 110.003906 163.667969 C 110.742188 163.589844 111.46875 163.472656 112.191406 163.316406 L 114.40625 162.882812 C 115.339844 162.691406 116.28125 162.484375 117.230469 162.246094 Z M 117.261719 162.246094 " fill-opacity="1" fill-rule="nonzero"/></g></svg>