<svg xmlns="http://www.w3.org/2000/svg" xmlns:xlink="http://www.w3.org/1999/xlink" width="500" zoomAndPan="magnify" viewBox="0 0 375 374.999991" height="500" preserveAspectRatio="xMidYMid meet" version="1.0"><defs><clipPath id="577a124a7a"><path d="M 106.226562 10.332031 L 268.976562 10.332031 L 268.976562 364.332031 L 106.226562 364.332031 Z M 106.226562 10.332031 " clip-rule="nonzero"/></clipPath></defs><g clip-path="url(#577a124a7a)"><path fill="#c62328" d="M 268.765625 256.828125 C 268.789062 257.707031 268.738281 258.585938 268.605469 259.457031 C 268.476562 260.378906 268.320312 261.304688 268.105469 262.210938 C 267.648438 264.042969 267.097656 265.847656 266.453125 267.621094 C 265.816406 269.363281 265.042969 271.042969 264.144531 272.667969 C 263.214844 274.382812 262.199219 276.039062 261.128906 277.664062 C 260.054688 279.289062 258.96875 280.734375 257.828125 282.226562 C 255.644531 285.136719 253.328125 287.933594 251 290.726562 C 249.195312 292.90625 247.421875 295.113281 245.609375 297.324219 C 244.726562 298.390625 243.800781 299.417969 242.945312 300.507812 C 242.085938 301.597656 241.230469 302.777344 240.429688 303.964844 C 239.589844 305.234375 238.824219 306.546875 238.136719 307.90625 L 238.136719 307.953125 C 237.3125 309.6875 236.488281 311.441406 235.738281 313.207031 C 234.984375 314.972656 234.242188 316.835938 233.511719 318.640625 C 232.777344 320.449219 232.042969 322.03125 231.308594 323.722656 C 230.574219 325.414062 229.78125 327.292969 229.089844 329.097656 C 228.398438 330.90625 227.828125 332.546875 227.210938 334.269531 C 226.589844 335.992188 225.949219 337.625 225.347656 339.308594 C 224.679688 341.238281 224.085938 343.183594 223.546875 345.15625 C 223.011719 347.125 222.535156 349.277344 222.089844 351.363281 C 221.890625 352.378906 221.699219 353.382812 221.542969 354.398438 C 221.386719 355.414062 221.265625 356.5 221.132812 357.550781 C 221 358.597656 220.894531 359.480469 220.785156 360.445312 C 220.707031 361.550781 220.5625 362.652344 220.355469 363.742188 C 220.296875 363.960938 220.179688 364.140625 219.996094 364.277344 C 219.816406 364.414062 219.609375 364.480469 219.382812 364.476562 L 219.261719 364.476562 C 219.023438 364.429688 218.824219 364.316406 218.671875 364.128906 C 218.515625 363.941406 218.4375 363.730469 218.433594 363.488281 C 218.433594 363.082031 218.433594 362.660156 218.476562 362.28125 C 218.601562 360.410156 218.855469 358.554688 219.121094 356.707031 C 219.382812 354.859375 219.695312 352.773438 220.101562 350.828125 C 220.503906 348.882812 220.925781 346.992188 221.414062 345.097656 C 221.898438 343.199219 222.460938 341.433594 223.0625 339.636719 C 223.664062 337.839844 224.390625 335.992188 225.058594 334.171875 C 225.726562 332.347656 226.335938 330.574219 227.019531 328.785156 C 227.703125 326.996094 228.472656 325.148438 229.246094 323.359375 C 230.023438 321.570312 230.789062 319.886719 231.523438 318.128906 C 232.257812 316.375 232.917969 314.609375 233.660156 312.878906 L 234.820312 310.253906 C 235.242188 309.316406 235.644531 308.367188 236.082031 307.441406 C 236.519531 306.519531 236.957031 305.636719 237.460938 304.78125 C 237.964844 303.921875 238.507812 303.082031 239.109375 302.257812 C 240.167969 300.691406 241.308594 299.195312 242.539062 297.761719 C 243.734375 296.382812 244.882812 294.972656 246.019531 293.546875 C 247.15625 292.121094 248.445312 290.578125 249.664062 289.101562 C 251.972656 286.300781 254.332031 283.527344 256.535156 280.632812 C 257.417969 279.480469 258.25 278.285156 259.066406 277.085938 C 260.511719 274.921875 261.832031 272.683594 263.03125 270.375 C 263.386719 269.675781 263.726562 268.964844 264.023438 268.238281 C 264.320312 267.511719 264.640625 266.664062 264.921875 265.871094 C 265.5 264.265625 265.976562 262.632812 266.347656 260.964844 C 266.542969 260.007812 266.679688 259.039062 266.761719 258.0625 C 266.804688 257.304688 266.804688 256.546875 266.761719 255.785156 C 266.652344 254.320312 266.503906 252.84375 266.304688 251.382812 C 266.109375 249.921875 265.8125 248.40625 265.480469 246.921875 C 265.203125 245.566406 264.84375 244.234375 264.410156 242.921875 L 264.359375 242.78125 C 264.359375 242.78125 264.359375 242.78125 264.359375 242.714844 C 263.746094 240.96875 263.082031 239.242188 262.371094 237.539062 C 261.628906 235.765625 260.832031 234.023438 260.015625 232.292969 C 259.199219 230.5625 258.308594 228.8125 257.457031 227.074219 C 256.609375 225.332031 255.75 223.527344 254.902344 221.753906 C 254.53125 220.929688 254.144531 220.179688 253.753906 219.394531 C 253.367188 218.613281 252.855469 217.671875 252.386719 216.8125 C 251.917969 215.957031 251.332031 214.984375 250.804688 214.074219 C 249.804688 212.359375 248.839844 210.621094 247.734375 208.972656 C 246.628906 207.320312 245.550781 205.835938 244.4375 204.320312 C 243.324219 202.804688 242.128906 201.375 241.082031 199.816406 C 240.644531 199.175781 240.253906 198.515625 239.800781 197.855469 C 239.347656 197.195312 238.871094 196.394531 238.464844 195.628906 C 237.765625 194.316406 237.210938 192.933594 236.5625 191.605469 C 235.910156 190.277344 235.25 189.222656 234.574219 188.042969 C 233.898438 186.863281 233.230469 185.742188 232.503906 184.621094 L 232.453125 184.546875 C 231.703125 183.441406 230.929688 182.367188 230.144531 181.296875 C 229.363281 180.222656 228.4375 179.035156 227.523438 177.996094 C 226.609375 176.957031 225.800781 176.035156 224.976562 175.027344 L 224.5625 174.507812 C 224.445312 174.804688 224.339844 175.101562 224.234375 175.40625 L 224.234375 175.457031 C 224.058594 175.976562 223.902344 176.488281 223.746094 177.007812 C 223.65625 177.328125 223.539062 177.644531 223.464844 177.972656 L 223.464844 177.933594 C 223.464844 178.21875 223.464844 178.507812 223.464844 178.757812 C 223.53125 179.664062 223.65625 180.554688 223.789062 181.453125 C 223.917969 182.351562 224.050781 183.316406 224.242188 184.230469 C 224.371094 184.851562 224.511719 185.46875 224.695312 186.070312 C 224.875 186.671875 225.058594 187.234375 225.253906 187.804688 C 225.542969 188.628906 225.847656 189.453125 226.121094 190.277344 C 226.109375 190.234375 226.097656 190.191406 226.078125 190.152344 C 226.335938 190.839844 226.628906 191.507812 226.953125 192.164062 C 227.152344 192.542969 227.359375 192.925781 227.574219 193.296875 C 227.785156 193.667969 227.953125 193.980469 228.15625 194.316406 C 228.332031 194.242188 228.515625 194.191406 228.703125 194.160156 L 228.761719 194.160156 C 229.921875 193.945312 231.003906 194.84375 231.605469 195.769531 C 232.023438 196.480469 232.335938 197.238281 232.546875 198.035156 C 232.804688 198.914062 232.992188 199.808594 233.105469 200.71875 C 233.1875 201.292969 233.246094 201.871094 233.296875 202.449219 C 233.375 203.074219 233.40625 203.699219 233.386719 204.328125 C 233.363281 204.859375 233.269531 205.375 233.105469 205.878906 C 233.003906 206.257812 232.863281 206.621094 232.683594 206.96875 C 232.570312 207.164062 232.40625 207.296875 232.191406 207.363281 C 232.097656 207.488281 232 207.609375 231.894531 207.726562 C 231.605469 208.011719 231.285156 208.25 230.929688 208.445312 C 230.589844 208.675781 230.285156 208.9375 229.949219 209.160156 C 229.777344 209.273438 229.59375 209.363281 229.402344 209.433594 C 229.226562 209.507812 229.050781 209.589844 228.882812 209.679688 L 228.273438 210.011719 C 227.992188 210.152344 227.710938 210.265625 227.449219 210.382812 C 226.863281 210.628906 226.269531 210.867188 225.683594 211.125 C 224.386719 211.640625 223.046875 212.019531 221.667969 212.253906 L 221.808594 212.253906 L 221.535156 212.304688 C 220.804688 212.472656 220.066406 212.59375 219.316406 212.667969 C 218.878906 212.667969 218.433594 212.730469 217.988281 212.757812 L 217.023438 212.757812 C 216.101562 212.839844 215.1875 213.027344 214.246094 213.019531 C 213.304688 213.011719 212.457031 213.019531 211.566406 213.085938 L 210.921875 213.085938 C 209.820312 213.082031 208.71875 213.007812 207.625 212.863281 C 207.648438 212.894531 207.664062 212.929688 207.683594 212.964844 C 207.929688 213.375 208.160156 213.789062 208.425781 214.207031 C 208.710938 214.621094 209.019531 215.015625 209.347656 215.394531 C 209.925781 216.03125 210.566406 216.589844 211.121094 217.25 C 211.273438 217.449219 211.34375 217.675781 211.328125 217.925781 C 211.3125 218.175781 211.214844 218.390625 211.039062 218.570312 C 210.84375 218.765625 210.605469 218.863281 210.328125 218.859375 C 210.101562 218.859375 209.898438 218.792969 209.71875 218.652344 C 209.359375 218.382812 209.023438 218.082031 208.710938 217.753906 C 208.398438 217.449219 208.085938 217.136719 207.796875 216.804688 C 207.230469 216.175781 206.746094 215.488281 206.355469 214.734375 C 205.996094 214.066406 205.691406 213.378906 205.429688 212.667969 C 205.429688 212.601562 205.429688 212.542969 205.371094 212.484375 C 204.761719 212.351562 204.160156 212.1875 203.566406 211.988281 C 203.148438 211.863281 202.738281 211.714844 202.339844 211.542969 C 201.957031 211.394531 201.585938 211.21875 201.226562 211.023438 C 200.652344 210.683594 200.167969 210.246094 199.765625 209.714844 C 199.40625 209.25 199.074219 208.765625 198.765625 208.261719 C 198.554688 207.964844 198.339844 207.652344 198.140625 207.339844 C 197.941406 207.027344 197.664062 206.636719 197.449219 206.273438 C 197.234375 205.914062 197.003906 205.542969 196.804688 205.152344 C 196.601562 204.75 196.429688 204.332031 196.292969 203.898438 C 196.027344 203.039062 195.824219 202.164062 195.675781 201.277344 C 195.59375 200.84375 195.558594 200.40625 195.574219 199.964844 C 195.574219 199.605469 195.632812 199.25 195.691406 198.894531 C 195.800781 198.300781 195.945312 197.714844 196.121094 197.136719 C 196.195312 196.882812 196.277344 196.636719 196.367188 196.378906 C 196.144531 195.882812 195.921875 195.390625 195.714844 194.886719 C 195.386719 194.0625 195.074219 193.285156 194.757812 192.46875 C 194.59375 192.058594 194.453125 191.644531 194.324219 191.226562 C 194.191406 190.804688 194.117188 190.441406 194.035156 190.054688 C 193.835938 189.128906 193.621094 188.199219 193.433594 187.273438 C 193.429688 187.261719 193.429688 187.246094 193.433594 187.234375 C 193.429688 187.21875 193.429688 187.199219 193.433594 187.183594 C 193.109375 185.351562 192.945312 183.503906 192.9375 181.644531 C 192.933594 179.878906 193.144531 178.136719 193.5625 176.421875 L 193.636719 176.042969 C 193.636719 176.042969 193.636719 176.109375 193.636719 176.140625 C 193.640625 176.0625 193.640625 175.984375 193.636719 175.902344 C 193.640625 175.925781 193.640625 175.945312 193.636719 175.96875 C 193.785156 175.226562 193.917969 174.484375 194.074219 173.742188 C 194.398438 172.046875 194.832031 170.378906 195.371094 168.738281 C 195.558594 168.183594 195.757812 167.640625 195.988281 167.085938 C 196.21875 166.535156 196.457031 166.015625 196.679688 165.4375 C 196.789062 165.175781 196.894531 164.910156 197.011719 164.613281 C 196.800781 164.613281 196.609375 164.550781 196.441406 164.425781 C 196.195312 164.179688 195.996094 163.90625 195.839844 163.597656 C 195.683594 163.367188 195.519531 163.144531 195.371094 162.921875 C 195.222656 162.699219 195.039062 162.429688 194.882812 162.179688 C 194.726562 161.933594 194.585938 161.6875 194.429688 161.457031 C 194.050781 160.902344 193.65625 160.367188 193.300781 159.804688 C 192.839844 159.0625 192.445312 158.285156 192.121094 157.472656 C 191.738281 156.566406 191.40625 155.644531 191.121094 154.703125 C 190.867188 153.828125 190.59375 152.953125 190.390625 152.054688 C 190.066406 150.652344 189.753906 149.25 189.5625 147.824219 C 189.375 146.398438 189.277344 144.988281 189.019531 143.578125 C 188.886719 142.964844 188.707031 142.363281 188.566406 141.761719 L 188.367188 140.9375 C 188.300781 140.640625 188.253906 140.34375 188.164062 140.054688 C 188.046875 139.742188 187.960938 139.421875 187.90625 139.089844 C 187.90625 138.867188 187.90625 138.644531 187.90625 138.414062 C 187.90625 138.226562 187.90625 138.035156 187.90625 137.855469 C 187.875 137.511719 187.914062 137.179688 188.03125 136.855469 C 188.199219 136.445312 188.417969 136.066406 188.691406 135.71875 C 188.878906 135.371094 189.09375 135.035156 189.300781 134.695312 C 189.507812 134.355469 189.597656 134.058594 189.753906 133.738281 C 189.910156 133.417969 190.132812 133.03125 190.316406 132.667969 C 191.089844 131.015625 191.773438 129.308594 192.433594 127.601562 C 192.789062 126.695312 193.191406 125.820312 193.582031 124.929688 C 193.96875 124.039062 194.339844 123.183594 194.71875 122.308594 C 195.097656 121.433594 195.46875 120.617188 195.839844 119.769531 C 196.210938 118.917969 196.566406 117.972656 196.929688 117.0625 C 197.664062 115.257812 198.378906 113.4375 199.164062 111.636719 C 199.945312 109.839844 200.8125 107.933594 201.464844 106.03125 L 201.917969 104.742188 C 202.035156 104.367188 202.183594 104.003906 202.363281 103.65625 C 202.625 103.21875 202.964844 102.832031 203.261719 102.433594 C 203.558594 102.039062 203.773438 101.710938 204.035156 101.347656 C 204.300781 100.984375 204.554688 100.660156 204.8125 100.308594 C 205.066406 99.953125 205.316406 99.605469 205.585938 99.277344 C 205.859375 98.945312 206.179688 98.601562 206.476562 98.261719 C 206.773438 97.925781 206.875 97.777344 207.0625 97.527344 L 207.730469 96.703125 C 208.152344 96.167969 208.554688 95.613281 208.984375 95.054688 C 209.414062 94.492188 209.761719 94.015625 210.164062 93.503906 C 210.566406 92.992188 211.039062 92.367188 211.441406 91.773438 C 211.953125 90.996094 212.441406 90.207031 212.894531 89.398438 C 213.347656 88.589844 213.875 87.542969 214.34375 86.601562 C 214.664062 85.75 214.9375 84.882812 215.160156 84.003906 C 215.316406 83.542969 215.457031 83.0625 215.589844 82.59375 C 215.722656 82.125 215.886719 81.578125 216.027344 81.078125 C 216.316406 80.070312 216.636719 79.0625 216.851562 78.035156 C 216.933594 77.570312 217.007812 77.109375 217.050781 76.648438 L 217.050781 76.597656 C 217.085938 76.011719 217.085938 75.421875 217.050781 74.832031 C 217.050781 74.832031 217.050781 74.757812 217.050781 74.726562 C 217.007812 74.257812 216.960938 73.785156 216.875 73.316406 C 216.722656 72.625 216.53125 71.949219 216.300781 71.28125 C 216.125 70.796875 215.921875 70.328125 215.699219 69.871094 C 215.550781 69.582031 215.390625 69.285156 215.21875 69.042969 L 214.996094 69.5 C 214.542969 70.40625 214.046875 71.28125 213.546875 72.160156 C 213.042969 73.042969 212.570312 73.8125 212.027344 74.554688 C 211.5 75.335938 210.917969 76.078125 210.289062 76.78125 C 209.652344 77.488281 209.007812 78.214844 208.316406 78.875 C 207.980469 79.203125 207.617188 79.527344 207.253906 79.824219 C 206.890625 80.121094 206.527344 80.359375 206.1875 80.648438 C 205.851562 80.9375 205.53125 81.226562 205.183594 81.472656 C 204.835938 81.71875 204.507812 81.976562 204.167969 82.230469 C 203.457031 82.753906 202.710938 83.21875 201.925781 83.625 C 201.308594 83.957031 200.664062 84.214844 199.988281 84.398438 C 199.621094 84.507812 199.25 84.589844 198.875 84.65625 C 198.601562 84.691406 198.328125 84.710938 198.050781 84.714844 L 197.753906 84.714844 C 197.511719 84.695312 197.277344 84.648438 197.042969 84.582031 C 196.710938 84.457031 196.398438 84.289062 196.113281 84.078125 C 195.972656 83.980469 195.84375 83.871094 195.722656 83.75 C 195.625 83.652344 195.542969 83.539062 195.476562 83.417969 L 195.410156 83.417969 L 195.304688 83.351562 C 195.191406 83.257812 195.101562 83.148438 195.03125 83.023438 C 194.976562 82.910156 194.929688 82.792969 194.890625 82.675781 C 194.753906 82.28125 194.660156 81.878906 194.609375 81.464844 C 194.527344 81.023438 194.496094 80.578125 194.511719 80.128906 C 194.535156 79.777344 194.582031 79.433594 194.652344 79.089844 L 194.289062 79.640625 L 194.289062 79.699219 L 193.96875 80.167969 C 193.382812 81.042969 192.804688 81.910156 192.203125 82.765625 C 191.601562 83.625 190.792969 84.6875 190.117188 85.679688 C 189.441406 86.667969 188.953125 87.492188 188.328125 88.367188 C 187.699219 89.242188 187.125 90.015625 186.539062 90.914062 C 186.132812 91.515625 185.714844 92.136719 185.359375 92.746094 C 185.335938 92.839844 185.300781 92.929688 185.257812 93.015625 C 184.984375 93.503906 184.675781 93.964844 184.328125 94.402344 C 184.070312 94.75 183.824219 95.09375 183.578125 95.449219 C 183.652344 95.71875 183.695312 95.996094 183.699219 96.273438 C 183.714844 96.582031 183.695312 96.886719 183.652344 97.191406 C 183.546875 97.902344 183.253906 98.53125 182.777344 99.070312 C 182.316406 99.550781 181.765625 99.886719 181.128906 100.078125 C 180.960938 100.136719 180.785156 100.175781 180.609375 100.191406 L 180.453125 100.265625 C 180.351562 100.296875 180.246094 100.316406 180.136719 100.316406 L 180.089844 100.316406 L 179.734375 100.777344 C 179.15625 101.527344 178.621094 102.3125 178.085938 103.085938 L 176.4375 105.617188 C 175.90625 106.441406 175.4375 107.308594 174.960938 108.175781 C 173.988281 109.921875 172.898438 111.613281 171.800781 113.285156 C 171.214844 114.195312 170.582031 115.058594 169.90625 115.910156 C 169.226562 116.757812 168.601562 117.46875 167.964844 118.277344 C 167.332031 119.085938 166.796875 119.828125 166.183594 120.59375 C 165.574219 121.359375 165.105469 122.078125 164.535156 122.820312 L 164.15625 123.339844 C 163.851562 123.824219 163.578125 124.335938 163.332031 124.847656 L 163.257812 124.980469 C 162.871094 125.765625 162.539062 126.5625 162.203125 127.371094 C 161.863281 128.179688 161.425781 129.1875 161.03125 130.085938 C 160.636719 130.984375 160.304688 131.734375 159.960938 132.617188 C 159.613281 133.5 159.308594 134.167969 159.027344 134.957031 C 158.914062 135.304688 158.820312 135.65625 158.746094 136.015625 C 158.664062 136.453125 158.605469 136.878906 158.566406 137.308594 C 158.523438 138.085938 158.566406 138.851562 158.566406 139.617188 C 158.566406 140.386719 158.566406 141.308594 158.566406 142.148438 C 158.566406 143.800781 158.566406 145.449219 158.648438 147.097656 C 158.648438 147.179688 158.648438 147.269531 158.648438 147.355469 C 158.703125 148.039062 158.800781 148.71875 158.9375 149.390625 C 159.148438 150.445312 159.425781 151.484375 159.761719 152.507812 C 160.109375 153.457031 160.488281 154.40625 160.839844 155.351562 C 161.195312 156.300781 161.558594 157.289062 161.988281 158.230469 C 162.8125 159.953125 163.539062 161.675781 164.304688 163.410156 C 165.054688 165.148438 165.695312 166.929688 166.234375 168.746094 L 166.628906 170.03125 C 166.769531 170.484375 166.9375 170.929688 167.066406 171.382812 C 167.316406 172.207031 167.480469 173.035156 167.695312 173.859375 C 167.792969 174.261719 167.902344 174.683594 168.023438 175.054688 L 168.246094 175.546875 C 168.25 175.5625 168.25 175.574219 168.246094 175.589844 L 168.246094 175.640625 L 169.515625 178.113281 C 169.996094 179.046875 170.472656 179.976562 171.027344 180.867188 C 171.578125 181.757812 172.171875 182.617188 172.75 183.488281 C 173.328125 184.363281 173.820312 185.140625 174.347656 185.964844 L 175.289062 187.414062 C 175.59375 187.902344 175.875 188.386719 176.1875 188.875 C 176.847656 189.816406 177.550781 190.746094 178.191406 191.710938 C 178.3125 191.898438 178.351562 192.101562 178.308594 192.316406 C 178.265625 192.535156 178.152344 192.707031 177.96875 192.832031 C 177.816406 192.953125 177.644531 193.007812 177.449219 193.007812 C 177.167969 193.003906 176.9375 192.894531 176.757812 192.675781 C 176.214844 192.015625 175.695312 191.332031 175.175781 190.65625 C 174.878906 190.289062 174.605469 189.90625 174.347656 189.511719 C 174.109375 189.148438 173.886719 188.769531 173.664062 188.398438 C 172.839844 187.003906 171.890625 185.640625 170.984375 184.273438 C 170.359375 183.359375 169.691406 182.46875 169.121094 181.519531 C 168.550781 180.570312 168.015625 179.515625 167.472656 178.492188 C 167.199219 177.972656 166.953125 177.4375 166.648438 176.910156 C 166.648438 176.835938 166.574219 176.769531 166.539062 176.703125 C 166.535156 176.6875 166.535156 176.671875 166.539062 176.652344 C 166.398438 176.375 166.269531 176.09375 166.152344 175.828125 C 166.035156 175.566406 165.929688 175.175781 165.832031 174.847656 C 165.589844 174.023438 165.402344 173.199219 165.179688 172.375 C 164.957031 171.550781 164.652344 170.632812 164.355469 169.757812 C 164.058594 168.886719 163.777344 167.9375 163.472656 167.039062 C 163.375 166.757812 163.28125 166.46875 163.183594 166.214844 C 163.1875 166.195312 163.1875 166.179688 163.183594 166.164062 L 163.183594 166.089844 L 163.183594 166.132812 C 162.589844 164.441406 161.773438 162.832031 161.046875 161.183594 C 160.660156 160.308594 160.222656 159.441406 159.875 158.5625 C 159.53125 157.679688 159.125 156.640625 158.773438 155.667969 C 158.417969 154.691406 158.003906 153.671875 157.683594 152.648438 C 157.363281 151.625 157.113281 150.71875 156.898438 149.730469 C 156.691406 148.695312 156.5625 147.65625 156.519531 146.601562 C 156.472656 145.582031 156.4375 144.566406 156.429688 143.535156 C 156.421875 142.503906 156.429688 141.472656 156.429688 140.441406 C 156.429688 139.414062 156.378906 138.347656 156.429688 137.300781 C 156.5 136.332031 156.699219 135.386719 157.03125 134.472656 C 157.328125 133.589844 157.683594 132.722656 158.054688 131.859375 C 158.425781 130.992188 158.878906 130.042969 159.25 129.144531 C 159.621094 128.246094 160.074219 127.289062 160.480469 126.367188 C 160.683594 125.921875 160.875 125.476562 161.0625 125.039062 C 161.253906 124.601562 161.492188 124.214844 161.714844 123.753906 C 161.9375 123.289062 162.160156 122.925781 162.390625 122.53125 C 162.621094 122.136719 162.886719 121.78125 163.152344 121.417969 C 164.214844 119.992188 165.292969 118.589844 166.382812 117.179688 C 166.96875 116.421875 167.605469 115.6875 168.207031 114.9375 C 168.808594 114.1875 169.367188 113.4375 169.90625 112.652344 C 169.902344 112.675781 169.902344 112.703125 169.90625 112.726562 C 170.457031 111.902344 170.984375 111.078125 171.554688 110.253906 C 172.121094 109.429688 172.660156 108.5625 173.152344 107.671875 C 173.648438 106.78125 174.09375 105.929688 174.613281 105.089844 C 174.886719 104.644531 175.175781 104.207031 175.4375 103.761719 C 175.703125 103.316406 175.972656 102.9375 176.261719 102.46875 C 176.363281 102.304688 176.46875 102.144531 176.574219 101.988281 C 177.09375 101.222656 177.632812 100.480469 178.226562 99.738281 L 177.730469 99.484375 C 177.441406 99.320312 177.164062 99.132812 176.90625 98.921875 C 175.535156 97.800781 174.242188 96.605469 172.957031 95.390625 C 172.59375 95.046875 172.214844 94.714844 171.867188 94.351562 C 171.519531 93.992188 171.125 93.578125 170.746094 93.199219 C 169.921875 92.375 169.097656 91.449219 168.335938 90.542969 L 168.15625 90.296875 L 168.15625 90.222656 L 168.074219 90.113281 C 167.5625 89.539062 167.035156 88.96875 166.53125 88.390625 C 166.027344 87.8125 165.351562 87.070312 164.859375 86.394531 L 164.757812 86.289062 C 164.054688 85.5 163.398438 84.675781 162.789062 83.8125 C 162.449219 83.351562 162.144531 82.867188 161.847656 82.386719 C 161.648438 82.082031 161.46875 81.769531 161.296875 81.449219 L 160.851562 80.894531 C 160.601562 80.597656 160.347656 80.308594 160.117188 80.003906 L 159.875 80.34375 L 158.902344 81.71875 C 158.144531 82.859375 157.417969 84.019531 156.695312 85.167969 C 155.96875 86.3125 155.421875 87.300781 154.796875 88.367188 C 153.476562 90.617188 152.25 92.910156 150.988281 95.179688 C 150.3125 96.382812 149.601562 97.5625 148.976562 98.789062 C 148.347656 100.019531 147.703125 101.238281 147.046875 102.425781 C 146.386719 103.613281 145.757812 104.652344 145.125 105.726562 C 144.488281 106.796875 143.730469 108.132812 143.09375 109.371094 L 143.011719 109.535156 C 142.707031 110.152344 142.417969 110.773438 142.121094 111.390625 C 141.824219 112.007812 141.46875 112.742188 141.140625 113.417969 C 140.4375 114.785156 139.816406 116.1875 139.277344 117.625 L 139.277344 117.691406 C 138.945312 118.574219 138.671875 119.476562 138.453125 120.394531 C 138.332031 121.015625 138.246094 121.636719 138.195312 122.269531 C 138.144531 123.289062 138.144531 124.308594 138.195312 125.328125 C 138.253906 126.5 138.253906 127.675781 138.328125 128.847656 C 138.402344 130.019531 138.550781 131.222656 138.734375 132.402344 C 138.832031 133.054688 138.921875 133.707031 139.03125 134.355469 C 139.136719 135.007812 139.261719 135.660156 139.367188 136.3125 C 139.582031 137.640625 139.761719 138.96875 139.976562 140.292969 C 140.078125 140.953125 140.21875 141.605469 140.332031 142.257812 C 140.382812 142.570312 140.421875 142.882812 140.464844 143.199219 C 140.503906 143.511719 140.5625 143.808594 140.628906 144.105469 C 140.71875 144.542969 140.828125 144.980469 140.886719 145.425781 C 140.886719 145.703125 140.941406 145.984375 141 146.25 C 141.058594 146.511719 141.140625 146.933594 141.191406 147.28125 C 141.238281 147.625 141.3125 148.195312 141.394531 148.65625 C 141.527344 149.433594 141.667969 150.214844 141.800781 150.992188 C 141.972656 152.03125 142.15625 153.070312 142.34375 154.097656 C 142.535156 155.128906 142.75 156.34375 142.972656 157.457031 C 142.972656 157.523438 142.972656 157.578125 142.972656 157.644531 C 143.144531 158.46875 143.324219 159.292969 143.507812 160.121094 C 143.703125 160.984375 143.949219 161.835938 144.242188 162.675781 C 144.242188 162.632812 144.242188 162.601562 144.242188 162.570312 C 144.835938 164.277344 145.503906 165.941406 146.195312 167.605469 C 146.550781 168.433594 146.929688 169.257812 147.316406 170.082031 C 147.703125 170.90625 148.035156 171.648438 148.421875 172.414062 C 148.464844 172.511719 148.511719 172.609375 148.5625 172.703125 C 148.652344 172.894531 148.734375 173.089844 148.800781 173.289062 C 148.828125 173.40625 148.828125 173.523438 148.800781 173.644531 C 148.765625 173.84375 148.671875 174.007812 148.515625 174.136719 C 148.359375 174.265625 148.179688 174.332031 147.976562 174.328125 L 147.902344 174.328125 C 147.507812 174.328125 147.300781 173.957031 147.136719 173.644531 C 146.878906 173.140625 146.625 172.628906 146.386719 172.117188 C 145.800781 170.847656 145.191406 169.59375 144.636719 168.308594 C 144.085938 167.023438 143.582031 165.734375 143.085938 164.433594 C 142.582031 163.117188 142.148438 161.777344 141.785156 160.417969 C 141.46875 159.246094 141.230469 158.066406 140.960938 156.878906 C 140.964844 156.851562 140.964844 156.824219 140.960938 156.796875 C 140.960938 156.574219 140.867188 156.367188 140.828125 156.144531 C 140.578125 154.941406 140.390625 153.726562 140.152344 152.523438 C 139.984375 151.742188 139.835938 150.949219 139.679688 150.15625 C 139.679688 149.976562 139.605469 149.804688 139.574219 149.621094 L 139.433594 149.6875 L 139.128906 149.828125 C 139.019531 149.886719 138.914062 149.953125 138.816406 150.027344 C 138.632812 150.148438 138.453125 150.28125 138.261719 150.398438 C 137.867188 150.667969 137.480469 150.933594 137.074219 151.222656 C 135.980469 151.96875 134.921875 152.773438 133.910156 153.628906 C 133.257812 154.195312 132.644531 154.796875 132.070312 155.433594 C 132.058594 155.453125 132.046875 155.46875 132.027344 155.476562 L 131.664062 155.898438 C 131.738281 156.078125 131.820312 156.261719 131.90625 156.433594 C 132.265625 157.257812 132.636719 158.082031 132.925781 158.90625 C 133.214844 159.730469 133.40625 160.554688 133.621094 161.382812 C 133.847656 162.238281 134.011719 163.105469 134.113281 163.988281 C 134.113281 164.332031 134.179688 164.679688 134.179688 165.035156 C 134.175781 165.476562 134.128906 165.914062 134.039062 166.34375 C 133.816406 167.46875 133.5625 168.761719 132.621094 169.511719 C 132.660156 169.582031 132.699219 169.644531 132.746094 169.710938 L 133.140625 170.304688 C 133.695312 171.128906 134.3125 171.886719 134.882812 172.6875 C 135.289062 173.238281 135.601562 173.835938 135.820312 174.484375 C 135.910156 174.753906 135.980469 175.03125 136.035156 175.308594 C 136.160156 175.886719 136.273438 176.480469 136.390625 177.058594 C 136.386719 177.078125 136.386719 177.097656 136.390625 177.117188 C 136.746094 178.847656 137.148438 180.5625 137.503906 182.285156 C 137.683594 183.183594 137.867188 184.074219 138.089844 184.957031 C 138.3125 185.839844 138.566406 186.707031 138.863281 187.5625 C 138.863281 187.628906 138.863281 187.6875 138.929688 187.746094 C 139.585938 189.585938 140.339844 191.382812 141.199219 193.136719 C 141.828125 194.4375 142.535156 195.6875 143.316406 196.898438 C 144.085938 198.027344 144.917969 199.125 145.683594 200.253906 C 146.304688 201.152344 146.90625 202.054688 147.554688 202.910156 C 148.042969 203.554688 148.554688 204.179688 149.015625 204.839844 C 149.359375 205.3125 149.664062 205.8125 149.929688 206.332031 C 150.253906 206.960938 150.542969 207.601562 150.8125 208.246094 C 151.722656 210.398438 152.414062 212.625 153.148438 214.84375 C 153.484375 215.875 153.855469 216.898438 154.195312 217.9375 C 154.53125 218.976562 154.894531 220.0625 155.257812 221.128906 C 155.738281 222.488281 156.230469 223.847656 156.726562 225.210938 C 157.222656 226.570312 157.765625 227.921875 158.316406 229.265625 C 158.871094 230.609375 159.457031 232.101562 160.035156 233.523438 C 160.609375 234.941406 161.277344 236.324219 161.914062 237.71875 C 162.546875 239.113281 163.132812 240.546875 163.710938 241.972656 C 164.289062 243.402344 164.898438 244.878906 165.46875 246.328125 C 166.597656 249.207031 167.777344 252.101562 168.765625 254.980469 C 169.269531 256.40625 169.746094 257.847656 170.167969 259.292969 C 170.585938 260.773438 170.90625 262.273438 171.132812 263.792969 C 171.363281 265.253906 171.546875 266.730469 171.675781 268.207031 C 171.742188 268.90625 171.769531 269.601562 171.792969 270.300781 C 171.816406 271.003906 171.792969 271.644531 171.792969 272.3125 C 171.792969 273.640625 171.792969 274.984375 171.628906 276.3125 C 171.539062 277.347656 171.394531 278.375 171.199219 279.398438 C 171.199219 279.398438 171.199219 279.398438 171.199219 279.445312 C 170.636719 282.242188 169.945312 285.019531 169.277344 287.792969 C 168.9375 289.238281 168.523438 290.667969 168.03125 292.070312 C 167.53125 293.480469 167.035156 294.910156 166.507812 296.320312 C 165.46875 299.066406 164.296875 301.761719 163.207031 304.507812 C 162.121094 307.253906 161.082031 310.28125 159.910156 313.125 C 159.300781 314.625 158.664062 316.117188 158.003906 317.585938 C 157.667969 318.34375 157.328125 319.097656 157 319.855469 C 156.6875 320.640625 156.335938 321.40625 155.941406 322.15625 C 155.742188 322.492188 155.445312 322.660156 155.050781 322.660156 C 154.914062 322.660156 154.785156 322.632812 154.65625 322.585938 C 154.53125 322.53125 154.421875 322.457031 154.328125 322.359375 C 154.230469 322.261719 154.160156 322.148438 154.109375 322.023438 C 154.058594 321.898438 154.03125 321.765625 154.03125 321.632812 C 154.035156 321.496094 154.058594 321.363281 154.113281 321.238281 C 154.394531 320.546875 154.738281 319.886719 155.0625 319.21875 C 155.382812 318.550781 155.6875 317.882812 155.984375 317.207031 C 156.585938 315.855469 157.148438 314.484375 157.714844 313.085938 C 158.285156 311.683594 158.828125 310.3125 159.367188 308.902344 C 159.902344 307.492188 160.421875 305.835938 161.015625 304.308594 C 161.730469 302.363281 162.5 300.433594 163.273438 298.539062 C 164.050781 296.640625 164.773438 294.710938 165.453125 292.765625 L 165.453125 292.863281 C 165.804688 291.832031 166.167969 290.800781 166.5 289.753906 C 166.828125 288.707031 167.066406 287.75 167.324219 286.726562 C 167.851562 284.558594 168.410156 282.398438 168.867188 280.214844 L 168.988281 279.628906 L 168.988281 279.488281 C 169.222656 278.308594 169.382812 277.121094 169.476562 275.925781 C 169.550781 274.703125 169.566406 273.449219 169.582031 272.261719 C 169.597656 271.074219 169.582031 269.945312 169.5 268.792969 C 169.417969 267.636719 169.261719 266.316406 169.105469 265.074219 C 168.949219 263.828125 168.71875 262.53125 168.46875 261.277344 C 167.996094 259.257812 167.410156 257.269531 166.703125 255.316406 C 165.699219 252.421875 164.527344 249.601562 163.40625 246.757812 C 162.285156 243.910156 161.105469 240.984375 159.820312 238.105469 C 159.191406 236.710938 158.558594 235.320312 157.980469 233.902344 C 157.402344 232.480469 156.832031 231.089844 156.265625 229.695312 C 155.695312 228.300781 155.183594 226.988281 154.679688 225.621094 C 154.179688 224.253906 153.675781 222.867188 153.214844 221.496094 C 152.785156 220.234375 152.390625 218.957031 151.96875 217.695312 C 151.324219 215.855469 150.730469 214.011719 150.113281 212.171875 C 149.519531 210.457031 148.824219 208.78125 148.027344 207.148438 C 147.835938 206.8125 147.640625 206.488281 147.425781 206.167969 C 146.996094 205.558594 146.535156 204.972656 146.089844 204.371094 C 145.457031 203.519531 144.839844 202.660156 144.234375 201.796875 C 143.410156 200.640625 142.582031 199.527344 141.816406 198.375 C 141.003906 197.183594 140.273438 195.941406 139.632812 194.648438 C 138.621094 192.644531 137.753906 190.578125 137.035156 188.453125 C 136.710938 187.472656 136.441406 186.476562 136.210938 185.476562 C 135.976562 184.480469 135.746094 183.316406 135.53125 182.226562 C 135.136719 180.304688 134.707031 178.386719 134.3125 176.457031 C 134.308594 176.40625 134.308594 176.355469 134.3125 176.308594 C 134.269531 176.125 134.238281 175.9375 134.1875 175.746094 C 134.140625 175.558594 134.089844 175.359375 134.023438 175.160156 L 133.898438 174.863281 C 133.722656 174.527344 133.527344 174.199219 133.316406 173.882812 L 132.917969 173.320312 L 132.695312 172.984375 C 132.699219 172.96875 132.699219 172.949219 132.695312 172.933594 C 132.398438 172.496094 132.078125 172.070312 131.78125 171.625 C 131.625 171.375 131.476562 171.128906 131.328125 170.882812 C 131.222656 170.714844 131.128906 170.539062 131.046875 170.363281 C 130.84375 170.394531 130.636719 170.410156 130.429688 170.410156 C 129.972656 170.402344 129.527344 170.335938 129.09375 170.214844 C 128.351562 169.988281 127.679688 169.636719 127.070312 169.15625 C 126.425781 168.722656 125.828125 168.230469 125.273438 167.679688 C 124.828125 167.203125 124.375 166.734375 123.980469 166.214844 C 123.714844 166.136719 123.460938 166.035156 123.222656 165.898438 C 122.699219 165.59375 122.210938 165.242188 121.761719 164.835938 L 121.703125 164.785156 C 121.410156 164.554688 121.132812 164.304688 120.878906 164.027344 C 120.492188 163.597656 120.121094 163.144531 119.773438 162.683594 C 118.964844 161.605469 118.414062 160.410156 118.125 159.097656 C 117.984375 158.421875 117.894531 157.738281 117.851562 157.050781 C 117.816406 156.269531 117.894531 155.5 118.089844 154.742188 C 118.140625 154.542969 118.191406 154.347656 118.25 154.148438 C 118.25 154.097656 118.25 154.050781 118.25 154.007812 C 118.082031 153.429688 117.96875 152.847656 117.851562 152.261719 C 117.777344 151.898438 117.6875 151.535156 117.628906 151.164062 C 117.570312 150.792969 117.539062 150.339844 117.523438 149.925781 C 117.507812 149.515625 117.523438 149.144531 117.523438 148.746094 C 117.449219 148.707031 117.382812 148.65625 117.324219 148.589844 C 117.089844 148.304688 116.898438 147.996094 116.746094 147.660156 C 116.566406 147.328125 116.402344 147 116.234375 146.660156 C 115.34375 144.980469 114.539062 143.261719 113.828125 141.5 C 113.109375 139.585938 112.550781 137.613281 112.023438 135.644531 C 111.496094 133.671875 110.933594 131.585938 110.429688 129.566406 C 109.925781 127.546875 109.53125 125.683594 109.078125 123.742188 C 108.683594 122.09375 108.3125 120.445312 107.890625 118.746094 C 107.691406 117.972656 107.488281 117.203125 107.253906 116.4375 C 107.023438 115.671875 106.800781 114.976562 106.644531 114.226562 C 106.464844 113.296875 106.355469 112.355469 106.308594 111.40625 C 106.257812 110.472656 106.257812 109.539062 106.308594 108.601562 C 106.355469 107.613281 106.414062 106.625 106.523438 105.632812 C 106.628906 104.644531 106.777344 103.605469 106.917969 102.589844 C 107.058594 101.578125 107.214844 100.613281 107.386719 99.621094 C 107.5625 98.632812 107.785156 97.644531 107.996094 96.652344 L 108.070312 96.28125 C 108.269531 95.300781 108.453125 94.320312 108.691406 93.355469 C 108.929688 92.410156 109.242188 91.488281 109.628906 90.59375 C 110.457031 88.792969 111.429688 87.074219 112.550781 85.4375 C 113.117188 84.613281 113.65625 83.714844 114.199219 82.859375 C 114.742188 82 115.378906 81.152344 115.957031 80.285156 C 116.53125 79.417969 117.0625 78.542969 117.605469 77.664062 L 119.15625 75.023438 C 120.136719 73.292969 121.152344 71.550781 122.246094 69.902344 C 123.34375 68.253906 124.390625 66.488281 125.480469 64.804688 C 126.050781 63.980469 126.617188 63.082031 127.230469 62.242188 L 127.335938 62.09375 C 127.289062 61.996094 127.257812 61.894531 127.246094 61.789062 C 127.214844 61.597656 127.195312 61.402344 127.1875 61.210938 C 127.128906 60.269531 127.046875 59.339844 126.972656 58.398438 C 126.898438 57.457031 126.867188 56.335938 126.847656 55.296875 C 126.832031 54.257812 126.808594 53.417969 126.792969 52.46875 C 126.773438 51.519531 126.75 50.554688 126.792969 49.597656 C 126.785156 48.785156 126.828125 47.972656 126.921875 47.167969 C 127.027344 46.324219 127.207031 45.5 127.46875 44.691406 C 127.488281 44.65625 127.5 44.617188 127.507812 44.578125 L 127.378906 44.46875 C 127.164062 44.203125 127.082031 43.902344 127.128906 43.5625 C 127.128906 43.125 127.128906 42.6875 127.128906 42.261719 C 127.128906 41.253906 127.238281 40.257812 127.304688 39.25 C 127.304688 39.25 127.304688 39.25 127.304688 39.191406 L 127.304688 39.085938 C 127.402344 37.683594 127.515625 36.28125 127.722656 34.886719 C 127.929688 33.492188 128.160156 32.109375 128.449219 30.765625 C 128.621094 29.941406 128.851562 29.113281 129.058594 28.289062 C 129.265625 27.464844 129.488281 26.640625 129.761719 25.867188 C 130.003906 25.058594 130.347656 24.292969 130.792969 23.574219 C 131.320312 22.765625 132.054688 22.246094 132.992188 22.015625 C 133.320312 21.980469 133.644531 21.996094 133.964844 22.0625 C 134.1875 22.09375 134.410156 22.132812 134.625 22.1875 C 135.070312 22.28125 135.472656 22.464844 135.828125 22.75 C 136.175781 23.046875 136.449219 23.402344 136.65625 23.8125 C 136.859375 24.199219 137.042969 24.585938 137.230469 24.976562 C 137.230469 24.976562 137.230469 24.976562 137.230469 25.023438 C 137.386719 25.328125 137.535156 25.644531 137.695312 25.949219 C 137.695312 25.90625 137.695312 25.875 137.636719 25.839844 C 138.015625 26.589844 138.460938 27.332031 138.808594 28.085938 C 139.011719 28.488281 139.21875 28.910156 139.402344 29.3125 C 139.5625 29.640625 139.707031 29.976562 139.828125 30.320312 C 140 30.769531 140.09375 31.238281 140.117188 31.722656 C 140.117188 31.8125 140.117188 31.902344 140.117188 32 C 140.464844 31.976562 140.8125 31.976562 141.15625 32 C 142.109375 32.078125 142.976562 32.390625 143.761719 32.933594 C 143.953125 33.074219 144.125 33.230469 144.324219 33.378906 C 144.523438 33.527344 144.597656 33.609375 144.734375 33.734375 L 145.058594 34.003906 C 145.226562 34.148438 145.347656 34.328125 145.429688 34.53125 L 146.648438 33.097656 C 147.292969 32.355469 147.976562 31.65625 148.667969 30.953125 C 149.363281 30.253906 150.03125 29.558594 150.714844 28.875 C 151.398438 28.191406 152.101562 27.582031 152.734375 26.871094 C 153.355469 26.199219 154.03125 25.585938 154.765625 25.03125 C 155.121094 24.730469 155.507812 24.476562 155.925781 24.265625 C 156.25 24.113281 156.585938 23.996094 156.933594 23.910156 C 157.667969 23.722656 158.390625 23.757812 159.101562 24.019531 C 159.5625 24.191406 159.925781 24.484375 160.191406 24.902344 C 160.457031 25.355469 160.601562 25.847656 160.628906 26.378906 C 160.6875 27.25 160.609375 28.109375 160.394531 28.957031 C 160.183594 29.839844 159.90625 30.703125 159.570312 31.546875 C 159.28125 32.371094 158.953125 33.105469 158.589844 33.875 C 158.226562 34.640625 157.980469 35.175781 157.660156 35.820312 C 157.910156 35.945312 158.140625 36.105469 158.351562 36.296875 C 158.632812 36.546875 158.886719 36.800781 159.132812 37.066406 C 160.316406 38.476562 161.125 40.074219 161.558594 41.863281 C 161.78125 42.738281 161.953125 43.636719 162.101562 44.519531 C 162.253906 45.417969 162.347656 46.320312 162.382812 47.234375 C 162.414062 47.707031 162.414062 48.183594 162.382812 48.660156 C 162.300781 49.648438 162.144531 50.628906 161.914062 51.59375 C 161.707031 52.503906 161.453125 53.394531 161.148438 54.273438 C 160.839844 55.15625 160.480469 56.023438 160.132812 56.882812 C 159.785156 57.738281 159.421875 58.53125 159.003906 59.355469 C 158.582031 60.179688 158.179688 60.871094 157.78125 61.621094 C 157.917969 61.878906 158 62.15625 158.019531 62.449219 C 158.078125 62.800781 158.136719 63.140625 158.210938 63.488281 C 158.210938 63.488281 158.210938 63.5625 158.210938 63.59375 C 158.417969 64.527344 158.699219 65.425781 158.960938 66.332031 C 159.226562 67.238281 159.488281 68.078125 159.785156 68.945312 L 159.785156 69.035156 C 159.785156 69.035156 159.785156 69.035156 159.785156 68.988281 C 159.78125 69.023438 159.78125 69.0625 159.785156 69.101562 L 159.785156 69.160156 C 159.785156 69.199219 159.785156 69.238281 159.785156 69.277344 L 159.785156 69.234375 C 159.785156 69.261719 159.785156 69.289062 159.785156 69.316406 L 160.570312 71.660156 L 160.636719 71.808594 C 160.84375 71.625 161.078125 71.488281 161.335938 71.394531 L 161.445312 71.394531 C 161.792969 71.273438 162.101562 71.339844 162.367188 71.601562 L 162.417969 71.660156 C 162.582031 71.695312 162.738281 71.75 162.886719 71.824219 C 163.347656 71.253906 163.785156 70.667969 164.214844 70.058594 L 164.214844 70.007812 C 164.847656 69.0625 165.453125 68.089844 166.09375 67.140625 L 168.15625 64.707031 C 168.558594 64.097656 168.980469 63.46875 169.359375 62.867188 C 169.738281 62.265625 170.21875 61.65625 170.628906 61.003906 L 170.785156 60.765625 C 171.539062 59.628906 172.261719 58.472656 172.957031 57.300781 C 173.558594 56.277344 174.210938 55.28125 174.792969 54.242188 C 175.472656 53.039062 176.121094 51.824219 176.789062 50.605469 C 177.09375 50.035156 177.433594 49.484375 177.738281 48.914062 C 178.042969 48.347656 178.375 47.734375 178.679688 47.140625 C 178.984375 46.546875 179.230469 46.054688 179.503906 45.492188 L 180.15625 44.339844 C 180.703125 43.238281 181.234375 42.117188 181.746094 40.972656 C 182.042969 40.3125 182.355469 39.664062 182.6875 39.019531 C 183.007812 38.402344 183.355469 37.789062 183.699219 37.171875 C 184.347656 35.960938 185.082031 34.808594 185.910156 33.714844 C 186.324219 33.226562 186.765625 32.757812 187.230469 32.316406 C 187.59375 31.960938 187.949219 31.597656 188.300781 31.234375 C 188.492188 31.023438 188.699219 30.828125 188.921875 30.648438 C 189.039062 30.566406 189.167969 30.507812 189.308594 30.484375 C 189.449219 30.246094 189.597656 30.015625 189.746094 29.773438 C 190.339844 28.816406 190.984375 27.894531 191.625 26.972656 C 192.269531 26.046875 192.855469 25.230469 193.480469 24.375 C 194.675781 22.722656 195.957031 21.074219 197.21875 19.523438 C 198.480469 17.972656 199.765625 16.226562 201.160156 14.734375 C 201.835938 13.992188 202.542969 13.273438 203.292969 12.597656 C 204.046875 11.859375 204.90625 11.28125 205.875 10.867188 C 206.308594 10.683594 206.761719 10.570312 207.226562 10.527344 C 207.65625 10.535156 208.050781 10.652344 208.410156 10.878906 C 208.773438 11.109375 209.050781 11.414062 209.242188 11.796875 C 209.769531 12.75 210.09375 13.773438 210.214844 14.855469 C 210.398438 16.304688 210.417969 17.757812 210.28125 19.210938 C 210.28125 19.738281 210.214844 20.273438 210.132812 20.800781 C 210.046875 21.332031 209.949219 21.875 209.84375 22.410156 C 209.628906 23.414062 209.351562 24.402344 209.019531 25.371094 C 208.296875 27.40625 207.398438 29.363281 206.320312 31.234375 L 206.074219 31.679688 C 206.265625 31.8125 206.398438 31.992188 206.46875 32.214844 L 206.46875 32.289062 C 206.792969 33.171875 207.070312 34.066406 207.292969 34.976562 C 207.507812 35.878906 207.738281 36.769531 207.960938 37.667969 C 208.183594 38.566406 208.367188 39.464844 208.515625 40.371094 C 208.582031 40.757812 208.648438 41.148438 208.695312 41.535156 C 208.746094 41.921875 208.777344 42.457031 208.804688 42.917969 C 208.894531 44.753906 208.769531 46.574219 208.425781 48.378906 C 208.269531 49.269531 208.066406 50.152344 207.820312 51.027344 C 207.582031 51.851562 207.359375 52.675781 207.0625 53.5 C 206.90625 53.921875 206.726562 54.324219 206.542969 54.746094 C 206.363281 55.164062 206.199219 55.570312 206 55.964844 C 205.628906 56.742188 205.257812 57.523438 204.910156 58.316406 C 204.566406 59.109375 204.085938 60.046875 203.757812 60.929688 C 203.425781 61.8125 203.054688 62.6875 202.699219 63.5625 C 202.347656 64.433594 201.992188 65.269531 201.605469 66.109375 C 201.605469 66.160156 201.605469 66.199219 201.546875 66.25 C 202.371094 65.203125 203.195312 64.164062 204.019531 63.089844 C 205.191406 61.515625 206.3125 59.890625 207.558594 58.375 C 208.167969 57.628906 208.816406 56.921875 209.503906 56.253906 C 210.195312 55.570312 210.898438 54.886719 211.640625 54.257812 C 211.984375 53.964844 212.34375 53.6875 212.71875 53.433594 C 213.113281 53.148438 213.539062 52.925781 214 52.765625 C 214.425781 52.609375 214.863281 52.574219 215.308594 52.664062 C 215.753906 52.757812 216.140625 52.957031 216.472656 53.269531 C 217.152344 54.121094 217.546875 55.085938 217.652344 56.171875 C 217.789062 57.125 217.835938 58.085938 217.785156 59.050781 C 217.726562 60.28125 217.570312 61.496094 217.3125 62.703125 C 217.0625 63.828125 216.730469 64.925781 216.316406 66 C 216.199219 66.308594 216.085938 66.613281 215.960938 66.917969 L 216.027344 66.964844 C 216.261719 67.183594 216.476562 67.421875 216.664062 67.683594 C 216.953125 68.082031 217.207031 68.5 217.421875 68.945312 C 217.625 69.339844 217.808594 69.742188 217.964844 70.15625 C 218.320312 71.050781 218.59375 71.964844 218.789062 72.902344 C 218.992188 73.820312 219.089844 74.75 219.078125 75.691406 C 219.058594 76.691406 218.933594 77.679688 218.707031 78.652344 C 218.5 79.589844 218.203125 80.507812 217.949219 81.429688 L 217.554688 82.773438 C 217.421875 83.21875 217.296875 83.664062 217.148438 84.101562 C 216.828125 85.109375 216.441406 86.085938 215.984375 87.039062 C 215.566406 87.921875 215.09375 88.777344 214.617188 89.628906 C 214.140625 90.476562 213.734375 91.277344 213.230469 92.003906 C 212.730469 92.730469 212.191406 93.535156 211.632812 94.277344 C 211.070312 95.019531 210.578125 95.65625 210.046875 96.339844 C 209.519531 97.023438 209.125 97.570312 208.636719 98.179688 C 208.152344 98.789062 207.609375 99.417969 207.070312 100.019531 C 206.527344 100.664062 206.019531 101.332031 205.546875 102.03125 C 205.160156 102.617188 204.769531 103.203125 204.34375 103.753906 C 204.136719 104.027344 203.886719 104.28125 203.683594 104.578125 L 203.632812 104.660156 C 203.566406 104.816406 203.515625 104.984375 203.460938 105.148438 L 203.285156 105.632812 L 203.246094 105.734375 L 203.246094 105.808594 C 202.933594 106.714844 202.617188 107.613281 202.273438 108.511719 C 201.925781 109.410156 201.496094 110.402344 201.085938 111.332031 C 200.292969 113.136719 199.527344 114.957031 198.792969 116.792969 C 198.429688 117.707031 198.058594 118.613281 197.703125 119.53125 C 197.347656 120.445312 196.96875 121.292969 196.589844 122.175781 C 196.210938 123.058594 195.871094 123.902344 195.5 124.757812 C 195.128906 125.617188 194.726562 126.523438 194.339844 127.40625 C 193.894531 128.410156 193.464844 129.417969 193.042969 130.421875 C 192.625 131.429688 192.21875 132.394531 191.742188 133.34375 C 191.726562 133.378906 191.707031 133.414062 191.683594 133.449219 C 191.417969 133.996094 191.113281 134.503906 190.859375 135.042969 C 190.742188 135.273438 190.660156 135.535156 190.519531 135.757812 C 190.378906 135.980469 190.199219 136.261719 190.050781 136.535156 C 189.902344 136.804688 189.679688 137.144531 189.507812 137.457031 L 189.433594 137.640625 C 189.429688 137.660156 189.429688 137.675781 189.433594 137.695312 C 189.464844 137.9375 189.484375 138.179688 189.488281 138.421875 C 189.488281 138.570312 189.488281 138.71875 189.488281 138.875 L 189.488281 138.933594 C 189.53125 139.089844 189.574219 139.246094 189.621094 139.394531 C 189.738281 139.785156 189.828125 140.21875 189.925781 140.574219 C 190.125 141.398438 190.355469 142.222656 190.519531 143.050781 C 190.75 144.152344 190.824219 145.292969 190.964844 146.414062 C 191.089844 147.386719 191.253906 148.359375 191.445312 149.324219 C 191.449219 149.339844 191.449219 149.359375 191.445312 149.375 C 191.519531 149.761719 191.601562 150.148438 191.675781 150.535156 C 191.675781 150.710938 191.75 150.875 191.789062 151.039062 C 192.003906 151.117188 192.207031 151.210938 192.402344 151.328125 C 192.605469 151.425781 192.8125 151.511719 193.027344 151.585938 C 193.792969 151.820312 194.542969 152.09375 195.277344 152.410156 C 196.105469 152.769531 196.90625 153.183594 197.679688 153.652344 C 198.355469 154.042969 199 154.472656 199.617188 154.949219 C 200.285156 155.472656 200.792969 156.125 201.140625 156.902344 L 201.339844 156.546875 C 201.554688 156.1875 201.777344 155.832031 201.992188 155.476562 C 202.421875 154.75 202.816406 154.007812 203.261719 153.273438 C 203.707031 152.539062 204.046875 151.90625 204.433594 151.214844 C 204.820312 150.519531 205.257812 149.835938 205.613281 149.144531 C 205.964844 148.449219 206.371094 147.742188 206.734375 147.03125 C 207.097656 146.324219 207.484375 145.621094 207.847656 144.90625 C 208.210938 144.1875 208.5625 143.378906 208.917969 142.628906 C 209.273438 141.878906 209.652344 141.019531 210.007812 140.203125 C 210.765625 138.488281 211.46875 136.75 212.085938 134.976562 L 212.257812 134.472656 C 212.5625 133.589844 212.894531 132.714844 213.265625 131.867188 C 213.636719 131.015625 214.03125 130.21875 214.453125 129.449219 C 214.871094 128.683594 215.277344 127.875 215.730469 127.117188 C 216.183594 126.359375 216.6875 125.609375 217.222656 124.882812 C 218.046875 123.695312 218.996094 122.53125 219.953125 121.425781 C 220.910156 120.320312 222.007812 119.183594 223.011719 118.054688 C 223.144531 117.898438 223.277344 117.742188 223.390625 117.574219 C 223.445312 117.378906 223.566406 117.234375 223.746094 117.136719 C 223.816406 117.097656 223.890625 117.066406 223.96875 117.046875 C 224.136719 116.992188 224.304688 116.992188 224.472656 117.046875 C 225.082031 116.035156 225.71875 115.042969 226.375 114.0625 C 226.90625 113.238281 227.449219 112.503906 228.027344 111.738281 C 228.601562 110.96875 229.207031 110.226562 229.789062 109.484375 C 230.375 108.742188 230.976562 108.007812 231.589844 107.292969 C 232.160156 106.574219 232.800781 105.921875 233.5 105.328125 C 233.882812 105 234.320312 104.789062 234.816406 104.695312 C 235.308594 104.597656 235.796875 104.632812 236.273438 104.792969 C 236.820312 105.054688 237.265625 105.441406 237.601562 105.949219 C 237.925781 106.410156 238.183594 106.910156 238.367188 107.449219 C 238.648438 108.25 238.828125 109.078125 238.910156 109.921875 C 238.980469 110.902344 238.949219 111.882812 238.820312 112.859375 C 238.707031 113.710938 238.53125 114.550781 238.300781 115.382812 C 238.226562 115.644531 238.152344 115.902344 238.070312 116.15625 C 238.167969 116.304688 238.261719 116.46875 238.335938 116.609375 C 238.546875 117 238.746094 117.386719 238.9375 117.78125 C 239.269531 118.480469 239.542969 119.199219 239.761719 119.941406 C 239.992188 120.710938 240.136719 121.492188 240.199219 122.292969 C 240.261719 123.171875 240.261719 124.050781 240.199219 124.929688 L 240.199219 125.070312 C 240.132812 125.945312 239.941406 126.804688 239.792969 127.675781 C 239.640625 128.652344 239.433594 129.613281 239.175781 130.5625 C 238.628906 132.351562 237.976562 134.101562 237.210938 135.808594 C 236.832031 136.722656 236.453125 137.621094 236.007812 138.503906 C 235.5625 139.386719 235.183594 140.070312 234.738281 140.839844 C 234.019531 142.09375 233.222656 143.3125 232.445312 144.523438 L 232.164062 144.996094 C 232.015625 145.285156 231.886719 145.582031 231.761719 145.878906 C 231.636719 146.175781 231.496094 146.4375 231.390625 146.703125 C 231.125 147.511719 230.90625 148.339844 230.738281 149.175781 C 230.566406 150.050781 230.449219 150.933594 230.320312 151.816406 C 230.1875 152.699219 229.996094 153.753906 229.765625 154.710938 C 229.652344 155.179688 229.511719 155.640625 229.371094 156.101562 C 229.230469 156.566406 229.097656 157.050781 228.964844 157.53125 C 228.695312 158.519531 228.414062 159.507812 228.140625 160.5 C 227.648438 162.402344 227.242188 164.332031 226.78125 166.269531 C 226.550781 167.1875 226.335938 168.101562 226.113281 169.015625 C 225.890625 169.933594 225.625 170.75 225.363281 171.605469 L 225.1875 172.160156 C 225.429688 172.421875 225.652344 172.703125 225.882812 172.984375 C 226.34375 173.511719 226.832031 174.03125 227.300781 174.566406 L 227.242188 174.492188 C 227.464844 174.757812 227.6875 175.003906 227.910156 175.261719 C 228.539062 175.96875 229.179688 176.671875 229.78125 177.402344 C 230.382812 178.136719 230.929688 178.855469 231.433594 179.605469 C 232.511719 181.074219 233.574219 182.558594 234.582031 184.082031 C 235.589844 185.609375 236.578125 187.292969 237.492188 188.941406 C 238.316406 190.367188 238.953125 191.851562 239.636719 193.328125 C 239.792969 193.675781 239.957031 194.019531 240.132812 194.367188 C 240.875 195.722656 241.699219 197.023438 242.605469 198.277344 C 242.695312 198.398438 242.777344 198.523438 242.863281 198.65625 C 243.84375 200.074219 244.90625 201.410156 245.9375 202.777344 C 247.066406 204.28125 248.148438 205.820312 249.234375 207.355469 C 250.324219 208.890625 251.289062 210.441406 252.222656 212.039062 C 252.691406 212.863281 253.144531 213.6875 253.613281 214.457031 C 254.085938 215.222656 254.546875 216.105469 254.960938 216.929688 C 256.9375 220.8125 258.660156 224.820312 260.609375 228.722656 C 260.605469 228.742188 260.605469 228.761719 260.609375 228.78125 C 260.609375 228.78125 260.707031 228.960938 260.75 229.050781 L 260.796875 229.152344 C 261.019531 229.585938 261.242188 230.023438 261.457031 230.460938 C 261.492188 230.519531 261.523438 230.582031 261.546875 230.644531 L 261.589844 230.71875 C 262.414062 232.367188 263.148438 234.015625 263.867188 235.664062 C 264.582031 237.316406 265.316406 239.195312 265.945312 240.992188 C 266.230469 241.816406 266.527344 242.691406 266.769531 243.550781 C 267.007812 244.40625 267.246094 245.363281 267.4375 246.285156 C 267.78125 247.976562 268.054688 249.675781 268.261719 251.375 C 268.46875 253.074219 268.699219 255.035156 268.765625 256.828125 Z M 238.09375 124.328125 C 238.136719 123.703125 238.152344 123.085938 238.136719 122.464844 C 238.082031 121.910156 237.996094 121.363281 237.878906 120.816406 C 237.800781 120.429688 237.699219 120.046875 237.574219 119.671875 C 237.425781 119.273438 237.269531 118.84375 237.097656 118.5 C 236.890625 118.992188 236.675781 119.480469 236.429688 119.96875 C 236.082031 120.652344 235.691406 121.316406 235.257812 121.953125 C 234.761719 122.6875 234.253906 123.40625 233.714844 124.105469 C 233.179688 124.808594 232.546875 125.625 231.910156 126.332031 C 231.273438 127.042969 230.691406 127.628906 230.070312 128.261719 L 229.246094 129.085938 C 228.941406 129.402344 228.660156 129.722656 228.347656 130.019531 C 227.898438 130.429688 227.421875 130.800781 226.914062 131.132812 C 226.539062 131.363281 226.152344 131.570312 225.75 131.75 C 225.484375 131.882812 225.230469 132.03125 224.925781 132.15625 C 224.621094 132.277344 224.398438 132.34375 224.101562 132.425781 C 223.679688 132.570312 223.25 132.648438 222.804688 132.667969 L 222.714844 132.667969 C 222.25 132.65625 221.8125 132.539062 221.402344 132.320312 C 221.128906 132.164062 220.890625 131.96875 220.6875 131.726562 C 220.589844 131.609375 220.496094 131.488281 220.414062 131.363281 L 220.339844 131.28125 C 220.15625 131 220.042969 130.691406 220.011719 130.359375 C 219.9375 129.671875 219.9375 128.984375 220.011719 128.296875 C 220.03125 127.777344 220.097656 127.261719 220.199219 126.753906 C 220.308594 126.25 220.4375 125.757812 220.570312 125.261719 C 220.832031 124.292969 221.152344 123.347656 221.535156 122.425781 L 221.609375 122.257812 C 221.148438 122.804688 220.703125 123.347656 220.257812 123.910156 C 219.8125 124.46875 219.472656 124.890625 219.113281 125.402344 C 218.75 125.914062 218.402344 126.40625 218.054688 126.910156 C 217.207031 128.210938 216.445312 129.558594 215.761719 130.953125 C 215.375 131.71875 214.996094 132.492188 214.660156 133.285156 C 214.320312 134.078125 213.992188 135.035156 213.660156 135.90625 C 213.007812 137.632812 212.265625 139.328125 211.523438 141.011719 C 210.699219 142.976562 209.75 144.90625 208.796875 146.785156 C 208.792969 146.804688 208.792969 146.828125 208.796875 146.851562 C 208.382812 147.675781 207.96875 148.5 207.535156 149.265625 C 207.097656 150.035156 206.652344 150.84375 206.222656 151.632812 C 205.398438 153.160156 204.523438 154.667969 203.664062 156.1875 C 203.082031 157.234375 202.445312 158.246094 201.800781 159.261719 L 200.8125 160.835938 C 200.5 161.347656 200.21875 161.867188 199.988281 162.402344 C 199.417969 163.566406 198.898438 164.753906 198.414062 165.957031 C 197.925781 167.160156 197.449219 168.292969 197.027344 169.488281 C 196.558594 171.011719 196.183594 172.554688 195.898438 174.121094 C 195.894531 174.140625 195.894531 174.160156 195.898438 174.179688 C 195.742188 174.960938 195.601562 175.753906 195.4375 176.539062 C 195.441406 176.601562 195.441406 176.664062 195.4375 176.726562 L 195.261719 177.550781 C 194.824219 179.457031 194.710938 181.382812 194.925781 183.324219 C 194.992188 184.148438 195.054688 184.90625 195.15625 185.699219 C 195.253906 186.492188 195.394531 187.273438 195.558594 188.066406 C 195.804688 189.300781 196.121094 190.515625 196.507812 191.710938 C 196.789062 192.535156 197.101562 193.285156 197.421875 194.054688 C 197.746094 194.820312 198.15625 195.644531 198.496094 196.453125 C 198.535156 196.5625 198.5625 196.675781 198.570312 196.792969 C 198.878906 196.855469 199.183594 196.9375 199.484375 197.039062 L 200.582031 197.378906 C 201.40625 197.640625 202.230469 197.863281 203.054688 198.128906 C 203.878906 198.390625 204.703125 198.65625 205.53125 198.863281 C 205.925781 198.960938 206.355469 199.035156 206.726562 199.117188 L 207.839844 199.363281 C 208.453125 199.488281 209.074219 199.570312 209.703125 199.621094 C 210.894531 199.691406 212.089844 199.691406 213.28125 199.621094 C 214.171875 199.554688 215.0625 199.445312 215.953125 199.339844 C 216.84375 199.234375 217.792969 199.074219 218.691406 198.894531 C 219.722656 198.699219 220.738281 198.441406 221.742188 198.128906 L 222.128906 197.988281 C 222.46875 197.859375 222.796875 197.71875 223.121094 197.558594 L 223.539062 197.34375 C 223.914062 197.160156 224.273438 196.953125 224.621094 196.726562 L 225.074219 196.421875 C 225.441406 196.167969 225.792969 195.890625 226.128906 195.597656 C 226.203125 195.527344 226.28125 195.464844 226.359375 195.40625 C 225.839844 194.636719 225.367188 193.839844 224.941406 193.015625 C 224.71875 192.601562 224.53125 192.191406 224.339844 191.738281 C 224.148438 191.28125 223.960938 190.910156 223.804688 190.464844 C 223.507812 189.640625 223.234375 188.867188 222.980469 188.066406 C 222.824219 187.636719 222.675781 187.242188 222.542969 186.773438 C 222.410156 186.300781 222.335938 185.949219 222.238281 185.558594 C 222.105469 185 221.972656 184.445312 221.859375 183.910156 C 221.742188 183.375 221.675781 182.871094 221.609375 182.351562 C 221.460938 181.273438 221.328125 180.191406 221.253906 179.109375 C 221.183594 178.5625 221.183594 178.011719 221.253906 177.460938 C 221.339844 177.070312 221.4375 176.683594 221.550781 176.300781 C 221.699219 175.789062 221.875 175.277344 222.03125 174.773438 C 222.1875 174.269531 222.378906 173.652344 222.566406 173.125 C 222.570312 173.09375 222.570312 173.0625 222.566406 173.035156 C 222.855469 172.207031 223.167969 171.382812 223.449219 170.558594 C 223.730469 169.734375 223.953125 168.910156 224.160156 168.085938 C 224.363281 167.261719 224.605469 166.28125 224.816406 165.363281 C 225.273438 163.425781 225.71875 161.488281 226.253906 159.589844 C 226.542969 158.550781 226.839844 157.511719 227.144531 156.484375 C 227.300781 155.945312 227.464844 155.410156 227.613281 154.832031 C 227.761719 154.257812 227.84375 153.859375 227.945312 153.375 C 228.25 151.855469 228.40625 150.3125 228.710938 148.796875 C 229.007812 147.332031 229.484375 145.929688 230.144531 144.589844 C 230.277344 144.320312 230.410156 144.039062 230.566406 143.765625 C 230.722656 143.496094 230.863281 143.296875 231.019531 143.066406 L 231.6875 142.035156 C 232 141.546875 232.324219 141.0625 232.621094 140.558594 C 233.214844 139.527344 233.765625 138.472656 234.316406 137.417969 C 234.871094 136.359375 235.207031 135.394531 235.613281 134.367188 C 236.015625 133.335938 236.355469 132.402344 236.703125 131.414062 C 236.710938 131.375 236.726562 131.335938 236.742188 131.296875 C 237.023438 130.363281 237.25 129.414062 237.425781 128.453125 C 237.566406 127.769531 237.691406 127.082031 237.824219 126.398438 C 237.941406 125.75 238.027344 125.09375 238.070312 124.4375 Z M 206.757812 45.269531 C 206.800781 44.605469 206.800781 43.9375 206.757812 43.273438 C 206.671875 42.078125 206.511719 40.894531 206.28125 39.71875 C 206.28125 39.652344 206.28125 39.597656 206.238281 39.539062 C 206.066406 38.714844 205.875 37.890625 205.679688 37.066406 C 205.480469 36.238281 205.265625 35.332031 205.101562 34.441406 C 205.042969 34.152344 204.984375 33.875 204.917969 33.617188 C 204.28125 34.65625 203.585938 35.652344 202.832031 36.609375 C 202.164062 37.414062 201.445312 38.167969 200.671875 38.871094 C 199.9375 39.589844 199.171875 40.28125 198.386719 40.949219 C 198 41.277344 197.613281 41.617188 197.21875 41.9375 C 196.820312 42.261719 196.390625 42.605469 195.921875 42.929688 C 195.097656 43.570312 194.273438 44.230469 193.367188 44.824219 C 192.820312 45.195312 192.269531 45.542969 191.714844 45.878906 C 191.023438 46.300781 190.332031 46.703125 189.605469 47.09375 L 189.730469 47.027344 C 189.316406 47.242188 188.90625 47.496094 188.492188 47.6875 C 188.078125 47.875 187.78125 47.976562 187.421875 48.097656 C 187.105469 48.222656 186.78125 48.308594 186.445312 48.355469 C 186.265625 48.355469 186.074219 48.355469 185.886719 48.355469 L 185.613281 48.355469 C 185.25 48.347656 184.910156 48.265625 184.582031 48.105469 C 184.207031 47.910156 183.933594 47.617188 183.757812 47.234375 C 183.707031 47.117188 183.679688 46.996094 183.683594 46.871094 C 183.609375 46.695312 183.542969 46.53125 183.488281 46.351562 C 183.40625 46.082031 183.363281 45.804688 183.355469 45.527344 C 183.335938 45.25 183.335938 44.976562 183.355469 44.699219 C 183.449219 43.648438 183.664062 42.617188 184.007812 41.617188 C 184.378906 40.542969 184.832031 39.496094 185.242188 38.457031 L 185.777344 37.171875 C 185.714844 37.296875 185.640625 37.417969 185.574219 37.550781 C 185.175781 38.285156 184.75 39.003906 184.394531 39.753906 C 183.792969 40.949219 183.246094 42.167969 182.695312 43.382812 C 182.25 44.347656 181.789062 45.285156 181.300781 46.21875 C 180.816406 47.148438 180.230469 48.320312 179.652344 49.367188 C 179.035156 50.546875 178.375 51.71875 177.722656 52.882812 C 177.179688 53.863281 176.632812 54.84375 176.074219 55.808594 C 175.511719 56.773438 175.082031 57.53125 174.554688 58.414062 C 173.953125 59.394531 173.359375 60.386719 172.726562 61.34375 C 172.089844 62.300781 171.371094 63.304688 170.703125 64.261719 C 170.167969 65.085938 169.648438 65.910156 169.105469 66.679688 C 168.558594 67.445312 167.964844 68.328125 167.390625 69.152344 C 166.664062 70.230469 166.019531 71.378906 165.21875 72.402344 L 164.445312 73.390625 C 164.550781 73.589844 164.660156 73.785156 164.773438 73.976562 C 165.105469 74.527344 165.410156 75.097656 165.699219 75.683594 C 166.316406 76.871094 167.027344 78.007812 167.6875 79.171875 C 168.347656 80.335938 169.136719 81.644531 169.9375 82.890625 L 170.011719 82.988281 L 170.242188 83.328125 C 170.523438 83.75 170.828125 84.152344 171.15625 84.539062 C 171.851562 85.289062 172.59375 86 173.308594 86.726562 C 174.027344 87.449219 174.753906 88.308594 175.578125 89.019531 C 176.402344 89.726562 177.375 90.519531 178.257812 91.34375 C 178.710938 91.738281 179.171875 92.117188 179.644531 92.488281 L 179.867188 92.671875 C 180.386719 92.886719 180.890625 93.117188 181.398438 93.339844 C 181.75 93.457031 182.089844 93.597656 182.421875 93.757812 C 182.628906 93.496094 182.84375 93.230469 183.042969 92.933594 C 183.132812 92.546875 183.289062 92.183594 183.503906 91.847656 C 183.765625 91.402344 184.0625 90.972656 184.328125 90.542969 C 184.328125 90.484375 184.402344 90.429688 184.441406 90.378906 C 185.351562 89.027344 186.355469 87.757812 187.289062 86.421875 L 187.347656 86.328125 C 187.949219 85.429688 188.523438 84.523438 189.128906 83.632812 C 189.730469 82.742188 190.480469 81.734375 191.132812 80.769531 L 191.179688 80.695312 C 191.320312 80.472656 191.46875 80.25 191.617188 80.027344 L 191.90625 79.609375 C 192.246094 79.105469 192.566406 78.585938 192.902344 78.082031 C 193.242188 77.578125 193.589844 77.058594 193.933594 76.550781 C 194.140625 76.253906 194.324219 75.945312 194.488281 75.625 C 194.800781 74.980469 195.089844 74.3125 195.4375 73.671875 C 195.78125 73.027344 196.152344 72.375 196.523438 71.742188 C 196.894531 71.105469 197.28125 70.429688 197.644531 69.769531 C 197.820312 69.464844 197.976562 69.152344 198.140625 68.839844 C 198.304688 68.523438 198.460938 68.269531 198.609375 68.015625 C 198.988281 67.1875 199.34375 66.421875 199.707031 65.613281 C 200.070312 64.804688 200.433594 63.964844 200.746094 63.140625 C 201.421875 61.398438 202.140625 59.667969 202.90625 57.960938 C 203.292969 57.136719 203.664062 56.222656 204.027344 55.347656 C 204.390625 54.472656 204.804688 53.640625 205.117188 52.757812 C 205.347656 52.066406 205.539062 51.347656 205.726562 50.636719 C 205.917969 49.929688 206.140625 49.136719 206.3125 48.371094 C 206.402344 47.902344 206.460938 47.429688 206.511719 46.953125 C 206.558594 46.472656 206.691406 45.832031 206.734375 45.277344 Z M 200.324219 158.246094 C 200.078125 158.253906 199.867188 158.164062 199.699219 157.984375 C 199.535156 157.800781 199.398438 157.601562 199.285156 157.382812 C 199.222656 157.265625 199.164062 157.152344 199.097656 157.042969 C 199.054688 156.976562 199.007812 156.914062 198.957031 156.855469 C 198.851562 156.738281 198.734375 156.632812 198.617188 156.523438 C 198.398438 156.332031 198.167969 156.15625 197.925781 155.988281 C 197.398438 155.617188 196.847656 155.28125 196.277344 154.980469 L 195.371094 154.511719 C 194.929688 154.292969 194.472656 154.105469 194.007812 153.941406 C 193.472656 153.753906 192.921875 153.589844 192.359375 153.390625 C 192.558594 154.066406 192.773438 154.742188 192.996094 155.410156 C 193.285156 156.257812 193.628906 157.082031 194.027344 157.882812 C 194.273438 158.390625 194.546875 158.882812 194.851562 159.359375 C 195.203125 159.871094 195.585938 160.351562 195.898438 160.878906 C 196.113281 161.242188 196.34375 161.585938 196.574219 161.933594 C 196.882812 162.320312 197.15625 162.730469 197.398438 163.164062 L 197.746094 162.453125 C 198.164062 161.628906 198.570312 160.804688 199.089844 159.980469 C 199.542969 159.378906 199.929688 158.800781 200.316406 158.222656 Z M 160.511719 48.699219 C 160.542969 48.152344 160.542969 47.601562 160.511719 47.050781 C 160.515625 47.066406 160.515625 47.078125 160.511719 47.09375 C 160.515625 47.011719 160.515625 46.933594 160.511719 46.851562 C 160.394531 45.546875 160.191406 44.257812 159.910156 42.976562 C 159.796875 42.417969 159.652344 41.867188 159.472656 41.328125 L 159.472656 41.1875 C 159.472656 41.1875 159.472656 41.1875 159.472656 41.136719 C 159.347656 40.816406 159.226562 40.511719 159.078125 40.207031 C 158.90625 39.863281 158.722656 39.53125 158.515625 39.207031 C 158.21875 38.777344 157.894531 38.367188 157.550781 37.972656 C 157.363281 37.765625 157.171875 37.550781 156.964844 37.351562 C 156.179688 38.660156 155.378906 39.933594 154.558594 41.171875 C 153.488281 42.753906 152.320312 44.261719 151.054688 45.691406 C 150.832031 45.9375 150.617188 46.195312 150.394531 46.449219 L 150.128906 46.746094 L 149.03125 48.007812 L 148.933594 48.113281 C 147.828125 49.394531 146.621094 50.574219 145.3125 51.652344 L 143.1875 53.359375 C 142.691406 53.753906 142.179688 54.136719 141.667969 54.507812 C 141.351562 54.753906 141.011719 54.960938 140.644531 55.132812 C 140.453125 55.210938 140.257812 55.277344 140.058594 55.332031 C 139.894531 55.378906 139.738281 55.445312 139.574219 55.488281 C 139.253906 55.570312 138.929688 55.636719 138.601562 55.683594 C 138.429688 55.710938 138.253906 55.726562 138.082031 55.726562 C 137.941406 55.726562 137.804688 55.710938 137.667969 55.683594 C 137.460938 55.660156 137.265625 55.605469 137.074219 55.519531 C 136.757812 55.394531 136.484375 55.207031 136.25 54.960938 C 135.902344 54.574219 135.667969 54.128906 135.550781 53.625 C 135.121094 54.273438 134.667969 54.902344 134.195312 55.519531 C 133.59375 56.3125 133.007812 57.113281 132.441406 57.921875 C 131.855469 58.746094 131.261719 59.570312 130.683594 60.394531 C 129.703125 61.78125 128.65625 63.132812 127.699219 64.515625 C 126.601562 66.167969 125.585938 67.898438 124.515625 69.589844 C 123.445312 71.28125 122.355469 73.0625 121.292969 74.851562 C 120.761719 75.734375 120.242188 76.632812 119.714844 77.523438 C 119.1875 78.414062 118.742188 79.171875 118.230469 79.996094 C 117.71875 80.820312 117.027344 81.800781 116.46875 82.699219 C 115.90625 83.601562 115.378906 84.40625 114.816406 85.273438 C 114.257812 86.140625 113.703125 86.988281 113.167969 87.855469 C 112.632812 88.722656 112.203125 89.503906 111.773438 90.328125 C 111.464844 90.921875 111.1875 91.53125 110.949219 92.160156 C 110.648438 93.058594 110.402344 93.976562 110.214844 94.90625 C 110.027344 95.863281 109.84375 96.8125 109.65625 97.765625 C 109.464844 98.722656 109.277344 99.753906 109.121094 100.753906 C 108.796875 102.75 108.5 104.742188 108.34375 106.757812 L 108.292969 107.382812 C 108.191406 108.652344 108.160156 109.921875 108.203125 111.191406 L 108.203125 111.324219 C 108.246094 112.15625 108.339844 112.980469 108.484375 113.796875 C 108.675781 114.625 108.953125 115.449219 109.210938 116.332031 C 109.464844 117.210938 109.746094 118.269531 110.035156 119.242188 C 110.511719 121.15625 110.957031 123.085938 111.394531 125.015625 C 111.832031 126.945312 112.3125 128.988281 112.8125 130.960938 C 113.070312 131.964844 113.351562 132.964844 113.636719 133.960938 C 113.925781 134.960938 114.175781 135.964844 114.464844 136.972656 C 114.75 137.976562 115.097656 139.105469 115.445312 140.164062 L 115.445312 140.335938 C 115.71875 141.125 116.03125 141.898438 116.382812 142.652344 C 116.765625 143.476562 117.152344 144.226562 117.546875 145.011719 C 117.523438 144.976562 117.503906 144.941406 117.488281 144.90625 L 117.539062 145.003906 C 117.554688 145.042969 117.574219 145.082031 117.597656 145.117188 L 117.679688 145.285156 L 117.679688 145.332031 C 117.6875 145.371094 117.707031 145.402344 117.730469 145.433594 C 117.792969 145.574219 117.867188 145.710938 117.941406 145.859375 C 118.074219 145.507812 118.257812 145.1875 118.496094 144.894531 C 118.667969 144.703125 118.867188 144.535156 119.089844 144.402344 C 119.363281 144.242188 119.65625 144.125 119.964844 144.046875 C 120.722656 143.863281 121.464844 143.90625 122.199219 144.171875 C 122.710938 144.363281 123.183594 144.621094 123.625 144.945312 C 123.976562 145.171875 124.308594 145.421875 124.632812 145.6875 C 125.292969 146.234375 125.894531 146.84375 126.4375 147.511719 C 126.980469 148.1875 127.5 148.863281 128.019531 149.554688 C 128.542969 150.257812 129.03125 150.988281 129.480469 151.742188 C 129.496094 151.761719 129.511719 151.78125 129.519531 151.804688 L 129.660156 151.804688 L 129.964844 151.75 C 130.488281 151.632812 131 151.492188 131.5 151.328125 C 132.191406 151.09375 132.863281 150.816406 133.519531 150.503906 C 134.558594 149.976562 135.558594 149.375 136.589844 148.855469 C 137.035156 148.617188 137.480469 148.351562 137.917969 148.097656 C 138.285156 147.839844 138.671875 147.625 139.085938 147.453125 L 139.179688 147.453125 C 139.175781 147.398438 139.175781 147.347656 139.179688 147.296875 C 139.121094 146.972656 139.070312 146.644531 139.003906 146.332031 C 138.9375 146.015625 138.816406 145.582031 138.75 145.203125 C 138.625 144.550781 138.492188 143.90625 138.394531 143.253906 C 138.296875 142.605469 138.171875 141.925781 138.074219 141.25 C 137.972656 140.574219 137.898438 139.949219 137.792969 139.296875 C 137.683594 138.644531 137.5625 137.976562 137.472656 137.308594 C 137.378906 136.640625 137.273438 135.980469 137.15625 135.3125 C 136.933594 134.085938 136.738281 132.839844 136.582031 131.59375 C 136.421875 130.347656 136.324219 128.949219 136.265625 127.621094 C 136.21875 126.441406 136.199219 125.253906 136.175781 124.066406 C 136.175781 123.421875 136.175781 122.761719 136.257812 122.109375 C 136.257812 121.609375 136.359375 121.113281 136.441406 120.609375 C 136.65625 119.347656 136.984375 118.113281 137.421875 116.90625 C 137.515625 116.648438 137.613281 116.402344 137.71875 116.164062 C 137.515625 116.0625 137.375 115.90625 137.289062 115.695312 C 137.015625 115.019531 136.753906 114.351562 136.464844 113.667969 C 136.332031 113.296875 136.199219 112.917969 136.050781 112.535156 C 135.902344 112.15625 135.753906 111.835938 135.632812 111.472656 C 135.347656 110.667969 135.132812 109.84375 134.988281 109 C 134.839844 108.175781 134.683594 107.285156 134.609375 106.417969 C 134.472656 104.589844 134.472656 102.761719 134.609375 100.933594 C 134.609375 100.488281 134.667969 100.035156 134.742188 99.589844 C 134.828125 99.132812 134.957031 98.6875 135.128906 98.253906 C 135.449219 97.429688 135.886719 96.605469 136.257812 95.78125 C 137.015625 94.128906 137.84375 92.421875 138.574219 90.714844 C 139.308594 89.007812 140.078125 87.34375 140.761719 85.628906 C 141.117188 84.753906 141.4375 83.863281 141.816406 82.996094 C 142.21875 82.121094 142.664062 81.269531 143.152344 80.441406 C 144.078125 78.867188 144.992188 77.292969 146.007812 75.773438 C 146.5 75.03125 146.980469 74.273438 147.515625 73.554688 C 148.050781 72.839844 148.546875 72.152344 149.082031 71.46875 C 150.164062 70.066406 151.191406 68.617188 152.207031 67.164062 C 152.613281 66.59375 153.03125 66.027344 153.402344 65.449219 C 154.179688 64.289062 154.914062 63.097656 155.605469 61.878906 C 156.296875 60.65625 156.964844 59.421875 157.601562 58.175781 C 157.945312 57.476562 158.269531 56.773438 158.550781 56.039062 C 158.828125 55.304688 159.160156 54.457031 159.441406 53.65625 C 159.785156 52.636719 160.058594 51.597656 160.265625 50.539062 C 160.355469 49.921875 160.453125 49.285156 160.511719 48.699219 Z M 159.265625 73.738281 L 159.085938 73.332031 C 158.886719 72.886719 158.714844 72.441406 158.558594 71.972656 C 158.292969 71.148438 158.039062 70.324219 157.78125 69.5 C 157.527344 68.671875 157.203125 67.707031 156.957031 66.800781 C 156.703125 65.925781 156.503906 65.039062 156.355469 64.136719 C 155.433594 65.777344 154.328125 67.261719 153.3125 68.773438 C 152.445312 70.007812 151.574219 71.246094 150.664062 72.433594 L 149.378906 74.15625 C 148.976562 74.710938 148.554688 75.261719 148.175781 75.808594 C 147.433594 76.921875 146.714844 78.042969 146.039062 79.195312 C 145.363281 80.351562 144.652344 81.5625 144.035156 82.792969 C 143.210938 84.441406 142.648438 86.207031 141.933594 87.90625 C 141.214844 89.601562 140.480469 91.34375 139.707031 93.042969 C 139.234375 94.074219 138.765625 95.09375 138.289062 96.125 C 137.808594 97.15625 137.339844 98.105469 136.960938 99.136719 C 136.894531 99.351562 136.820312 99.566406 136.769531 99.78125 C 136.734375 100.015625 136.707031 100.257812 136.695312 100.496094 C 136.695312 101.320312 136.695312 102.144531 136.636719 103.011719 C 136.582031 103.878906 136.636719 104.761719 136.6875 105.644531 C 136.796875 107 136.992188 108.34375 137.273438 109.675781 C 137.347656 109.988281 137.429688 110.285156 137.527344 110.582031 C 137.703125 111.070312 137.882812 111.546875 138.082031 112.027344 C 138.277344 112.503906 138.492188 113.105469 138.683594 113.675781 C 138.679688 113.707031 138.679688 113.742188 138.683594 113.773438 L 138.734375 113.929688 C 138.871094 113.648438 139.003906 113.363281 139.136719 113.105469 C 139.722656 111.851562 140.324219 110.632812 140.941406 109.378906 C 141.824219 107.628906 142.75 105.90625 143.714844 104.191406 C 144.679688 102.476562 145.726562 100.695312 146.632812 98.890625 L 146.683594 98.78125 C 146.683594 98.78125 146.722656 98.714844 146.738281 98.675781 C 147.351562 97.445312 148 96.199219 148.667969 95.03125 C 149.335938 93.859375 149.882812 92.785156 150.5 91.671875 C 151.117188 90.558594 151.785156 89.378906 152.429688 88.226562 C 152.761719 87.648438 153.097656 87.070312 153.4375 86.496094 C 153.773438 85.917969 154.039062 85.464844 154.359375 84.953125 C 155.035156 83.878906 155.703125 82.792969 156.4375 81.753906 C 157.066406 80.84375 157.714844 79.945312 158.335938 79.039062 L 158.855469 78.214844 C 158.910156 78.117188 158.96875 78.015625 159.019531 77.917969 C 158.914062 77.691406 158.820312 77.460938 158.738281 77.226562 C 158.621094 76.859375 158.558594 76.488281 158.550781 76.105469 C 158.558594 75.824219 158.59375 75.550781 158.664062 75.277344 C 158.78125 74.761719 158.96875 74.269531 159.226562 73.804688 C 159.238281 73.78125 159.25 73.757812 159.265625 73.738281 Z M 144.300781 35.84375 C 144.09375 35.8125 143.910156 35.730469 143.746094 35.597656 L 143.34375 35.265625 L 142.921875 34.878906 L 142.640625 34.664062 L 142.460938 34.542969 L 142.023438 34.277344 C 141.890625 34.210938 141.75 34.160156 141.609375 34.105469 L 141.257812 33.996094 L 140.746094 33.929688 C 140.449219 33.914062 140.152344 33.914062 139.855469 33.929688 C 139.726562 33.9375 139.601562 33.957031 139.476562 33.980469 C 139.21875 34.039062 138.957031 34.097656 138.699219 34.179688 C 138.445312 34.261719 137.941406 34.484375 137.578125 34.65625 L 137.273438 34.839844 C 136.960938 35.050781 136.664062 35.292969 136.367188 35.53125 C 136.070312 35.769531 135.753906 36.015625 135.449219 36.273438 C 135.144531 36.527344 135.023438 36.703125 134.816406 36.933594 C 134.230469 37.617188 133.660156 38.308594 133.074219 38.996094 C 132.492188 39.648438 131.941406 40.328125 131.425781 41.039062 C 131.039062 41.613281 130.683594 42.207031 130.363281 42.820312 L 130.363281 42.886719 C 130.03125 43.515625 129.734375 44.164062 129.472656 44.824219 C 129.375 45.09375 129.296875 45.371094 129.234375 45.648438 C 129.027344 46.578125 128.878906 47.515625 128.789062 48.460938 C 128.679688 50.285156 128.789062 52.105469 128.789062 53.929688 C 128.789062 55.875 128.894531 57.8125 128.960938 59.757812 C 128.957031 59.785156 128.957031 59.808594 128.960938 59.832031 L 129.058594 59.703125 L 130.855469 57.226562 C 131.433594 56.402344 131.988281 55.644531 132.582031 54.867188 C 133.027344 54.273438 133.488281 53.691406 133.917969 53.078125 C 134.34375 52.46875 134.558594 52.074219 134.863281 51.570312 C 135.023438 51.304688 135.152344 51.042969 135.300781 50.746094 C 135.433594 50.414062 135.636719 50.140625 135.914062 49.921875 C 136.019531 49.515625 136.152344 49.097656 136.285156 48.707031 C 136.621094 47.769531 137.011719 46.851562 137.453125 45.953125 L 137.890625 45.128906 C 138.328125 44.304688 138.796875 43.480469 139.300781 42.65625 C 139.804688 41.832031 140.472656 40.90625 141.097656 40.058594 C 141.726562 39.207031 142.304688 38.410156 142.914062 37.585938 C 143.359375 37.023438 143.828125 36.429688 144.300781 35.84375 Z M 132.277344 165.363281 C 132.277344 165.191406 132.277344 165.019531 132.277344 164.84375 C 132.226562 164.25 132.140625 163.65625 132.019531 163.070312 C 131.804688 162.070312 131.53125 161.085938 131.195312 160.117188 C 130.914062 159.292969 130.609375 158.527344 130.28125 157.753906 C 130.089844 157.289062 129.875 156.835938 129.652344 156.398438 C 129.429688 155.964844 129.265625 155.574219 129.066406 155.15625 C 128.871094 154.734375 128.5 154.148438 128.203125 153.652344 C 127.90625 153.160156 127.574219 152.597656 127.230469 152.085938 C 126.882812 151.574219 126.402344 150.992188 126.03125 150.4375 C 125.660156 149.886719 125.207031 149.332031 124.753906 148.789062 C 124.300781 148.246094 124.019531 147.964844 123.625 147.617188 L 123.097656 147.164062 L 123.203125 147.253906 C 122.941406 147.023438 122.667969 146.804688 122.378906 146.601562 C 122.207031 146.496094 122.035156 146.390625 121.851562 146.296875 L 121.441406 146.117188 L 121.09375 146.027344 L 120.804688 145.984375 L 120.53125 145.984375 C 120.433594 146 120.339844 146.023438 120.242188 146.058594 L 120.136719 146.101562 L 120.0625 146.101562 L 120.011719 146.140625 L 119.957031 146.207031 C 119.957031 146.273438 119.871094 146.339844 119.839844 146.40625 C 119.800781 146.488281 119.761719 146.574219 119.734375 146.660156 C 119.625 146.992188 119.527344 147.328125 119.453125 147.667969 C 119.453125 147.667969 119.453125 147.667969 119.453125 147.707031 C 119.453125 147.875 119.394531 148.039062 119.371094 148.203125 C 119.332031 148.871094 119.332031 149.539062 119.371094 150.207031 C 119.390625 150.449219 119.421875 150.6875 119.46875 150.925781 C 119.535156 151.222656 119.59375 151.511719 119.660156 151.796875 C 119.789062 151.6875 119.9375 151.605469 120.09375 151.542969 L 120.1875 151.46875 C 120.515625 151.199219 120.890625 151.058594 121.316406 151.039062 C 121.59375 151.015625 121.871094 151.039062 122.140625 151.113281 C 122.355469 151.191406 122.570312 151.277344 122.777344 151.378906 C 123.15625 151.582031 123.5 151.832031 123.816406 152.128906 C 123.972656 152.261719 124.128906 152.390625 124.277344 152.539062 C 124.464844 152.730469 124.636719 152.933594 124.789062 153.152344 C 125.117188 153.574219 125.417969 154.015625 125.6875 154.480469 C 126.027344 155.0625 126.316406 155.671875 126.5625 156.300781 C 126.71875 156.679688 126.890625 157.050781 127.03125 157.4375 C 127.175781 157.839844 127.289062 158.246094 127.378906 158.660156 L 127.378906 158.800781 C 127.582031 159.667969 127.667969 160.546875 127.640625 161.4375 C 127.628906 161.917969 127.59375 162.390625 127.535156 162.867188 C 127.457031 163.367188 127.328125 163.851562 127.144531 164.324219 C 126.980469 164.707031 126.75 165.046875 126.460938 165.347656 C 126.324219 165.503906 126.175781 165.652344 126.015625 165.785156 C 126.277344 166.074219 126.550781 166.347656 126.839844 166.609375 C 127.261719 166.964844 127.664062 167.300781 128.144531 167.617188 C 128.375 167.765625 128.609375 167.902344 128.851562 168.027344 L 129.140625 168.160156 L 129.578125 168.265625 C 129.722656 168.292969 129.871094 168.3125 130.015625 168.324219 L 130.238281 168.324219 L 130.570312 168.273438 L 130.921875 168.167969 L 131.097656 168.09375 L 131.152344 168.09375 L 131.246094 168.011719 L 131.386719 167.878906 L 131.515625 167.714844 C 131.515625 167.648438 131.589844 167.582031 131.632812 167.515625 C 131.671875 167.449219 131.730469 167.292969 131.773438 167.179688 C 131.878906 166.847656 131.953125 166.519531 132.027344 166.179688 C 132.125 165.914062 132.207031 165.640625 132.277344 165.363281 Z M 132.277344 165.363281 " fill-opacity="1" fill-rule="nonzero"/></g></svg>