<svg xmlns="http://www.w3.org/2000/svg" xmlns:xlink="http://www.w3.org/1999/xlink" width="500" zoomAndPan="magnify" viewBox="0 0 375 374.999991" height="500" preserveAspectRatio="xMidYMid meet" version="1.0"><defs><clipPath id="0110ae2bd4"><path d="M 159 4.234375 L 215 4.234375 L 215 60 L 159 60 Z M 159 4.234375 " clip-rule="nonzero"/></clipPath><clipPath id="a17d539219"><path d="M 159 316 L 214 316 L 214 370.984375 L 159 370.984375 Z M 159 316 " clip-rule="nonzero"/></clipPath><clipPath id="4e6b082063"><path d="M 2.851562 160 L 58 160 L 58 216 L 2.851562 216 Z M 2.851562 160 " clip-rule="nonzero"/></clipPath><clipPath id="7f85636d1c"><path d="M 317 160 L 371.851562 160 L 371.851562 216 L 317 216 Z M 317 160 " clip-rule="nonzero"/></clipPath><clipPath id="5a9e41793a"><path d="M 338 161 L 371.851562 161 L 371.851562 216 L 338 216 Z M 338 161 " clip-rule="nonzero"/></clipPath></defs><g clip-path="url(#0110ae2bd4)"><path fill="#5b0108" d="M 186.773438 5.5625 C 172.199219 5.5625 160.34375 17.417969 160.34375 31.996094 C 160.34375 46.570312 172.199219 58.425781 186.773438 58.425781 C 201.351562 58.425781 213.207031 46.570312 213.207031 31.996094 C 213.207031 17.417969 201.351562 5.5625 186.773438 5.5625 Z M 186.773438 59.46875 C 171.625 59.46875 159.300781 47.144531 159.300781 31.996094 C 159.300781 16.84375 171.625 4.519531 186.773438 4.519531 C 201.925781 4.519531 214.25 16.84375 214.25 31.996094 C 214.25 47.144531 201.925781 59.46875 186.773438 59.46875 " fill-opacity="1" fill-rule="nonzero"/></g><path fill="#5b0108" d="M 193.339844 23.503906 C 192.933594 23.496094 192.605469 23.15625 192.617188 22.746094 C 192.625 22.34375 192.960938 22.015625 193.371094 22.027344 C 193.777344 22.03125 194.101562 22.371094 194.09375 22.777344 C 194.085938 23.1875 193.746094 23.511719 193.339844 23.503906 Z M 193.378906 21.398438 C 192.628906 21.382812 192.003906 21.980469 191.988281 22.734375 C 191.972656 23.488281 192.574219 24.113281 193.324219 24.132812 C 194.078125 24.144531 194.707031 23.542969 194.722656 22.789062 C 194.734375 22.035156 194.136719 21.414062 193.378906 21.398438 " fill-opacity="1" fill-rule="nonzero"/><path fill="#5b0108" d="M 183.566406 54.082031 C 183.160156 54.074219 182.832031 53.734375 182.84375 53.324219 C 182.851562 52.917969 183.191406 52.59375 183.597656 52.601562 C 184.003906 52.609375 184.328125 52.949219 184.320312 53.355469 C 184.3125 53.765625 183.976562 54.089844 183.566406 54.082031 Z M 183.609375 51.972656 C 182.855469 51.957031 182.230469 52.558594 182.214844 53.3125 C 182.199219 54.066406 182.800781 54.695312 183.554688 54.707031 C 184.304688 54.722656 184.933594 54.121094 184.949219 53.367188 C 184.964844 52.613281 184.363281 51.988281 183.609375 51.972656 " fill-opacity="1" fill-rule="nonzero"/><path fill="#5b0108" d="M 206.886719 25.800781 C 207.304688 25.808594 207.648438 25.476562 207.65625 25.058594 C 207.664062 24.640625 207.335938 24.296875 206.917969 24.285156 C 206.496094 24.277344 206.152344 24.609375 206.144531 25.027344 C 206.132812 25.445312 206.46875 25.792969 206.886719 25.800781 " fill-opacity="1" fill-rule="nonzero"/><path fill="#5b0108" d="M 173.878906 47.398438 C 173.652344 47.394531 173.46875 47.570312 173.464844 47.796875 C 173.460938 48.015625 173.636719 48.199219 173.859375 48.203125 C 174.082031 48.210938 174.265625 48.035156 174.269531 47.808594 C 174.273438 47.589844 174.097656 47.402344 173.878906 47.398438 " fill-opacity="1" fill-rule="nonzero"/><path fill="#5b0108" d="M 206.152344 44.738281 C 205.929688 44.738281 205.746094 44.914062 205.742188 45.136719 C 205.734375 45.359375 205.914062 45.542969 206.132812 45.546875 C 206.359375 45.550781 206.542969 45.375 206.546875 45.152344 C 206.550781 44.929688 206.375 44.746094 206.152344 44.738281 " fill-opacity="1" fill-rule="nonzero"/><path fill="#5b0108" d="M 177.996094 12.75 C 177.773438 12.742188 177.589844 12.921875 177.582031 13.144531 C 177.578125 13.367188 177.753906 13.550781 177.980469 13.554688 C 178.203125 13.558594 178.386719 13.382812 178.390625 13.160156 C 178.394531 12.9375 178.21875 12.753906 177.996094 12.75 " fill-opacity="1" fill-rule="nonzero"/><path fill="#5b0108" d="M 191.589844 10.40625 C 191.453125 10.40625 191.34375 10.289062 191.347656 10.152344 C 191.347656 10.015625 191.464844 9.90625 191.601562 9.90625 C 191.742188 9.910156 191.851562 10.023438 191.847656 10.164062 C 191.84375 10.300781 191.730469 10.410156 191.589844 10.40625 Z M 191.613281 9.28125 C 191.132812 9.273438 190.726562 9.65625 190.71875 10.140625 C 190.710938 10.625 191.097656 11.027344 191.578125 11.035156 C 192.0625 11.042969 192.464844 10.660156 192.472656 10.175781 C 192.484375 9.691406 192.097656 9.292969 191.613281 9.28125 " fill-opacity="1" fill-rule="nonzero"/><path fill="#5b0108" d="M 167.425781 21.816406 C 167.289062 21.816406 167.179688 21.699219 167.183594 21.5625 C 167.183594 21.425781 167.296875 21.316406 167.4375 21.316406 C 167.574219 21.320312 167.683594 21.4375 167.679688 21.574219 C 167.675781 21.710938 167.5625 21.820312 167.425781 21.816406 Z M 167.449219 20.691406 C 166.964844 20.683594 166.5625 21.066406 166.550781 21.550781 C 166.542969 22.035156 166.929688 22.4375 167.414062 22.445312 C 167.894531 22.453125 168.296875 22.070312 168.308594 21.585938 C 168.320312 21.101562 167.933594 20.703125 167.449219 20.691406 " fill-opacity="1" fill-rule="nonzero"/><path fill="#5b0108" d="M 164.507812 35.457031 C 164.503906 35.570312 164.410156 35.660156 164.296875 35.65625 C 164.183594 35.652344 164.09375 35.5625 164.097656 35.445312 C 164.097656 35.335938 164.191406 35.246094 164.304688 35.246094 C 164.421875 35.25 164.507812 35.34375 164.507812 35.457031 Z M 163.46875 35.433594 C 163.460938 35.894531 163.824219 36.277344 164.285156 36.285156 C 164.742188 36.292969 165.125 35.925781 165.132812 35.46875 C 165.140625 35.007812 164.777344 34.628906 164.320312 34.621094 C 163.859375 34.609375 163.480469 34.976562 163.46875 35.433594 " fill-opacity="1" fill-rule="nonzero"/><path fill="#5b0108" d="M 194.925781 36.289062 C 194.921875 36.402344 194.832031 36.492188 194.71875 36.492188 C 194.601562 36.484375 194.515625 36.394531 194.515625 36.28125 C 194.519531 36.167969 194.613281 36.078125 194.726562 36.078125 C 194.839844 36.082031 194.929688 36.175781 194.925781 36.289062 Z M 193.890625 36.265625 C 193.882812 36.726562 194.246094 37.105469 194.703125 37.117188 C 195.164062 37.128906 195.542969 36.757812 195.554688 36.300781 C 195.5625 35.839844 195.199219 35.460938 194.738281 35.453125 C 194.277344 35.441406 193.898438 35.808594 193.890625 36.265625 " fill-opacity="1" fill-rule="nonzero"/><path fill="#5b0108" d="M 178.414062 31.308594 C 179.027344 31.316406 179.515625 31.828125 179.5 32.441406 C 179.492188 33.054688 178.980469 33.546875 178.367188 33.53125 C 177.753906 33.519531 177.261719 33.011719 177.277344 32.398438 C 177.289062 31.78125 177.796875 31.296875 178.414062 31.308594 Z M 178.347656 34.417969 C 179.453125 34.441406 180.367188 33.5625 180.390625 32.460938 C 180.414062 31.355469 179.535156 30.441406 178.433594 30.417969 C 177.328125 30.394531 176.410156 31.273438 176.390625 32.378906 C 176.367188 33.480469 177.246094 34.398438 178.347656 34.417969 " fill-opacity="1" fill-rule="nonzero"/><path fill="#5b0108" d="M 206.199219 333.269531 C 206.0625 333.273438 205.949219 333.164062 205.945312 333.027344 C 205.941406 332.886719 206.050781 332.773438 206.1875 332.769531 C 206.328125 332.765625 206.441406 332.875 206.445312 333.015625 C 206.449219 333.152344 206.335938 333.265625 206.199219 333.269531 " fill-opacity="1" fill-rule="nonzero"/><path fill="#5b0108" d="M 195.261719 345.265625 C 194.496094 345.28125 193.855469 344.667969 193.839844 343.898438 C 193.824219 343.128906 194.4375 342.492188 195.207031 342.476562 C 195.976562 342.460938 196.613281 343.070312 196.628906 343.84375 C 196.644531 344.609375 196.035156 345.25 195.261719 345.265625 " fill-opacity="1" fill-rule="nonzero"/><path fill="#5b0108" d="M 182.035156 321.859375 C 181.894531 321.863281 181.78125 321.753906 181.777344 321.613281 C 181.773438 321.476562 181.886719 321.363281 182.023438 321.359375 C 182.160156 321.355469 182.273438 321.464844 182.277344 321.605469 C 182.28125 321.742188 182.171875 321.855469 182.035156 321.859375 " fill-opacity="1" fill-rule="nonzero"/><path fill="#5b0108" d="M 190.058594 365.53125 C 189.648438 365.542969 189.3125 365.214844 189.304688 364.808594 C 189.296875 364.398438 189.621094 364.058594 190.027344 364.050781 C 190.433594 364.046875 190.773438 364.371094 190.78125 364.777344 C 190.792969 365.183594 190.464844 365.523438 190.058594 365.53125 " fill-opacity="1" fill-rule="nonzero"/><path fill="#5b0108" d="M 176.738281 350.09375 C 176.34375 350.101562 176.011719 349.78125 176.003906 349.382812 C 175.996094 348.984375 176.3125 348.65625 176.710938 348.648438 C 177.109375 348.640625 177.4375 348.957031 177.449219 349.355469 C 177.457031 349.753906 177.140625 350.082031 176.738281 350.09375 " fill-opacity="1" fill-rule="nonzero"/><g clip-path="url(#a17d539219)"><path fill="#5b0108" d="M 210.15625 346.886719 C 210.164062 347.34375 209.800781 347.726562 209.339844 347.734375 C 208.882812 347.746094 208.5 347.378906 208.492188 346.917969 C 208.480469 346.460938 208.847656 346.082031 209.304688 346.070312 C 209.765625 346.0625 210.144531 346.425781 210.15625 346.886719 Z M 207.074219 333.003906 C 207.082031 333.484375 206.695312 333.886719 206.210938 333.898438 C 205.730469 333.90625 205.328125 333.519531 205.316406 333.035156 C 205.304688 332.554688 205.691406 332.152344 206.179688 332.140625 C 206.660156 332.132812 207.0625 332.519531 207.074219 333.003906 Z M 200.160156 359.242188 C 200.164062 359.46875 199.988281 359.652344 199.765625 359.65625 C 199.542969 359.660156 199.359375 359.484375 199.355469 359.261719 C 199.351562 359.039062 199.527344 358.855469 199.75 358.851562 C 199.972656 358.847656 200.15625 359.023438 200.160156 359.242188 Z M 197.71875 343.820312 C 197.746094 345.191406 196.65625 346.324219 195.285156 346.355469 C 193.914062 346.378906 192.78125 345.289062 192.75 343.921875 C 192.726562 342.550781 193.816406 341.414062 195.183594 341.386719 C 196.554688 341.359375 197.691406 342.449219 197.71875 343.820312 Z M 196.042969 324.59375 C 196.042969 324.816406 195.871094 325 195.644531 325.007812 C 195.421875 325.011719 195.238281 324.835938 195.238281 324.609375 C 195.230469 324.386719 195.40625 324.203125 195.628906 324.199219 C 195.851562 324.195312 196.035156 324.371094 196.042969 324.59375 Z M 191.410156 364.765625 C 191.425781 365.519531 190.824219 366.144531 190.070312 366.160156 C 189.320312 366.175781 188.691406 365.574219 188.675781 364.820312 C 188.660156 364.066406 189.261719 363.441406 190.015625 363.425781 C 190.769531 363.410156 191.394531 364.011719 191.410156 364.765625 Z M 182.90625 321.59375 C 182.917969 322.074219 182.53125 322.476562 182.046875 322.488281 C 181.5625 322.496094 181.160156 322.109375 181.152344 321.625 C 181.140625 321.144531 181.527344 320.742188 182.011719 320.730469 C 182.492188 320.722656 182.898438 321.109375 182.90625 321.59375 Z M 180.234375 332.28125 C 181.296875 332.257812 182.183594 333.109375 182.207031 334.175781 C 182.226562 335.242188 181.378906 336.125 180.308594 336.148438 C 179.242188 336.171875 178.355469 335.320312 178.335938 334.253906 C 178.3125 333.1875 179.164062 332.300781 180.234375 332.28125 Z M 176.691406 347.738281 C 177.589844 347.722656 178.335938 348.4375 178.355469 349.335938 C 178.375 350.234375 177.65625 350.980469 176.761719 351 C 175.859375 351.019531 175.113281 350.300781 175.097656 349.402344 C 175.078125 348.503906 175.792969 347.757812 176.691406 347.738281 Z M 167.882812 356.589844 C 167.890625 356.808594 167.710938 356.992188 167.492188 357 C 167.269531 357.003906 167.085938 356.828125 167.078125 356.601562 C 167.074219 356.382812 167.25 356.195312 167.472656 356.191406 C 167.699219 356.1875 167.882812 356.363281 167.882812 356.589844 Z M 167.480469 336.476562 C 167.492188 336.894531 167.160156 337.242188 166.738281 337.25 C 166.320312 337.261719 165.976562 336.925781 165.96875 336.507812 C 165.960938 336.09375 166.289062 335.746094 166.710938 335.738281 C 167.128906 335.730469 167.472656 336.0625 167.480469 336.476562 Z M 213.804688 343.445312 C 213.804688 328.558594 201.734375 316.492188 186.851562 316.492188 C 171.964844 316.492188 159.894531 328.558594 159.894531 343.445312 C 159.894531 358.332031 171.964844 370.398438 186.851562 370.398438 C 201.734375 370.398438 213.804688 358.332031 213.804688 343.445312 " fill-opacity="1" fill-rule="nonzero"/></g><path fill="#5b0108" d="M 209.328125 347.109375 C 209.214844 347.113281 209.121094 347.019531 209.117188 346.90625 C 209.117188 346.796875 209.207031 346.699219 209.320312 346.695312 C 209.433594 346.695312 209.527344 346.785156 209.53125 346.898438 C 209.53125 347.011719 209.441406 347.105469 209.328125 347.109375 " fill-opacity="1" fill-rule="nonzero"/><path fill="#5b0108" d="M 180.296875 335.390625 C 179.644531 335.40625 179.109375 334.886719 179.09375 334.238281 C 179.082031 333.589844 179.597656 333.050781 180.246094 333.035156 C 180.898438 333.027344 181.433594 333.539062 181.445312 334.191406 C 181.460938 334.839844 180.941406 335.378906 180.296875 335.390625 " fill-opacity="1" fill-rule="nonzero"/><path fill="#5b0108" d="M 52.96875 241.9375 C 50.246094 241.9375 47.558594 242.351562 44.984375 243.167969 C 33.949219 246.660156 26.539062 256.789062 26.539062 268.371094 C 26.539062 279.957031 33.949219 290.082031 44.984375 293.574219 C 47.558594 294.390625 50.246094 294.804688 52.96875 294.804688 C 67.542969 294.804688 79.402344 282.949219 79.402344 268.371094 C 79.402344 253.796875 67.542969 241.9375 52.96875 241.9375 Z M 52.96875 295.847656 C 50.136719 295.847656 47.34375 295.417969 44.667969 294.570312 C 33.203125 290.941406 25.492188 280.414062 25.492188 268.371094 C 25.492188 256.332031 33.203125 245.804688 44.667969 242.175781 C 47.34375 241.324219 50.136719 240.898438 52.96875 240.898438 C 68.121094 240.898438 80.445312 253.222656 80.445312 268.371094 C 80.445312 283.523438 68.121094 295.847656 52.96875 295.847656 " fill-opacity="1" fill-rule="nonzero"/><path fill="#5b0108" d="M 58.277344 245.167969 C 58.6875 245.175781 59.011719 245.515625 59.003906 245.921875 C 58.992188 246.328125 58.65625 246.652344 58.246094 246.644531 C 57.839844 246.636719 57.515625 246.300781 57.523438 245.890625 C 57.53125 245.484375 57.867188 245.15625 58.277344 245.167969 Z M 58.234375 247.273438 C 58.988281 247.289062 59.617188 246.6875 59.628906 245.933594 C 59.644531 245.179688 59.042969 244.554688 58.289062 244.539062 C 57.535156 244.523438 56.910156 245.125 56.898438 245.878906 C 56.878906 246.628906 57.480469 247.257812 58.234375 247.273438 " fill-opacity="1" fill-rule="nonzero"/><path fill="#5b0108" d="M 67.96875 251.847656 C 68.191406 251.851562 68.375 251.675781 68.378906 251.453125 C 68.382812 251.230469 68.207031 251.046875 67.984375 251.042969 C 67.761719 251.039062 67.578125 251.214844 67.574219 251.4375 C 67.566406 251.660156 67.746094 251.84375 67.96875 251.847656 " fill-opacity="1" fill-rule="nonzero"/><path fill="#5b0108" d="M 66.457031 275.21875 C 66.679688 275.222656 66.863281 275.042969 66.867188 274.824219 C 66.871094 274.601562 66.695312 274.417969 66.472656 274.410156 C 66.25 274.40625 66.066406 274.585938 66.058594 274.804688 C 66.058594 275.027344 66.234375 275.210938 66.457031 275.21875 " fill-opacity="1" fill-rule="nonzero"/><path fill="#5b0108" d="M 72.058594 281.386719 C 72.839844 281.40625 73.484375 280.785156 73.503906 280.003906 C 73.515625 279.222656 72.898438 278.574219 72.117188 278.558594 C 71.332031 278.542969 70.6875 279.164062 70.671875 279.945312 C 70.65625 280.726562 71.277344 281.375 72.058594 281.386719 " fill-opacity="1" fill-rule="nonzero"/><path fill="#5b0108" d="M 62.238281 288.210938 C 62.375 288.214844 62.484375 288.332031 62.480469 288.464844 C 62.476562 288.605469 62.363281 288.714844 62.226562 288.710938 C 62.089844 288.707031 61.976562 288.59375 61.980469 288.457031 C 61.984375 288.320312 62.097656 288.210938 62.238281 288.210938 Z M 62.214844 289.339844 C 62.695312 289.347656 63.097656 288.964844 63.109375 288.480469 C 63.117188 287.996094 62.734375 287.59375 62.246094 287.585938 C 61.765625 287.574219 61.363281 287.960938 61.351562 288.441406 C 61.34375 288.925781 61.730469 289.328125 62.214844 289.339844 " fill-opacity="1" fill-rule="nonzero"/><path fill="#5b0108" d="M 76.300781 268.023438 C 76.300781 267.914062 76.398438 267.824219 76.507812 267.824219 C 76.621094 267.828125 76.710938 267.921875 76.710938 268.03125 C 76.707031 268.148438 76.613281 268.238281 76.5 268.234375 C 76.386719 268.230469 76.296875 268.140625 76.300781 268.023438 Z M 77.339844 268.046875 C 77.347656 267.585938 76.980469 267.207031 76.519531 267.199219 C 76.0625 267.1875 75.679688 267.550781 75.671875 268.011719 C 75.664062 268.472656 76.027344 268.851562 76.488281 268.863281 C 76.945312 268.875 77.328125 268.503906 77.339844 268.046875 " fill-opacity="1" fill-rule="nonzero"/><path fill="#5b0108" d="M 67.722656 263.3125 C 67.367188 263.304688 67.085938 263.007812 67.09375 262.65625 C 67.097656 262.300781 67.394531 262.015625 67.75 262.027344 C 68.101562 262.03125 68.386719 262.324219 68.378906 262.683594 C 68.375 263.035156 68.078125 263.316406 67.722656 263.3125 Z M 67.761719 261.394531 C 67.0625 261.382812 66.480469 261.9375 66.464844 262.640625 C 66.453125 263.34375 67.007812 263.925781 67.707031 263.9375 C 68.410156 263.953125 68.992188 263.394531 69.007812 262.691406 C 69.019531 261.992188 68.460938 261.410156 67.761719 261.394531 " fill-opacity="1" fill-rule="nonzero"/><path fill="#5b0108" d="M 53.90625 272.707031 C 54.3125 272.714844 54.636719 273.054688 54.628906 273.460938 C 54.621094 273.871094 54.285156 274.195312 53.875 274.1875 C 53.46875 274.179688 53.140625 273.839844 53.152344 273.429688 C 53.160156 273.023438 53.5 272.699219 53.90625 272.707031 " fill-opacity="1" fill-rule="nonzero"/><path fill="#5b0108" d="M 47.757812 289.089844 C 47.894531 289.09375 48.003906 289.207031 48 289.34375 C 47.996094 289.480469 47.882812 289.589844 47.746094 289.585938 C 47.605469 289.585938 47.496094 289.472656 47.5 289.335938 C 47.503906 289.195312 47.617188 289.085938 47.757812 289.089844 " fill-opacity="1" fill-rule="nonzero"/><path fill="#5b0108" d="M 35.273438 274.097656 C 35.28125 273.636719 35.660156 273.273438 36.121094 273.28125 C 36.578125 273.292969 36.945312 273.671875 36.9375 274.132812 C 36.925781 274.589844 36.546875 274.957031 36.085938 274.945312 C 35.625 274.9375 35.261719 274.554688 35.273438 274.097656 Z M 36.535156 254.121094 C 36.523438 254.578125 36.144531 254.945312 35.683594 254.9375 C 35.222656 254.929688 34.859375 254.546875 34.867188 254.085938 C 34.875 253.625 35.257812 253.257812 35.71875 253.269531 C 36.179688 253.28125 36.542969 253.660156 36.535156 254.121094 Z M 46.253906 261.882812 C 46.273438 261.121094 46.898438 260.519531 47.660156 260.535156 C 48.417969 260.550781 49.019531 261.179688 49.003906 261.9375 C 48.992188 262.699219 48.359375 263.300781 47.601562 263.285156 C 46.839844 263.269531 46.238281 262.640625 46.253906 261.882812 Z M 46.871094 289.320312 C 46.882812 288.835938 47.285156 288.453125 47.769531 288.460938 C 48.25 288.472656 48.636719 288.875 48.628906 289.359375 C 48.617188 289.839844 48.214844 290.226562 47.734375 290.214844 C 47.25 290.207031 46.863281 289.804688 46.871094 289.320312 Z M 51.613281 251.839844 C 51.621094 251.617188 51.804688 251.441406 52.027344 251.445312 C 52.25 251.449219 52.425781 251.632812 52.421875 251.855469 C 52.417969 252.078125 52.234375 252.253906 52.011719 252.253906 C 51.785156 252.246094 51.613281 252.0625 51.613281 251.839844 Z M 52.523438 273.417969 C 52.539062 272.664062 53.164062 272.0625 53.917969 272.082031 C 54.671875 272.09375 55.273438 272.71875 55.257812 273.476562 C 55.242188 274.226562 54.617188 274.828125 53.863281 274.8125 C 53.109375 274.800781 52.507812 274.171875 52.523438 273.417969 Z M 26.015625 268.371094 C 26.015625 280.417969 33.921875 290.621094 44.824219 294.074219 C 55.730469 290.621094 63.632812 280.417969 63.632812 268.371094 C 63.632812 256.324219 55.730469 246.125 44.824219 242.671875 C 33.921875 246.125 26.015625 256.324219 26.015625 268.371094 " fill-opacity="1" fill-rule="nonzero"/><path fill="#5b0108" d="M 36.105469 273.90625 C 36.222656 273.910156 36.3125 274.003906 36.308594 274.117188 C 36.304688 274.230469 36.214844 274.320312 36.097656 274.320312 C 35.984375 274.316406 35.898438 274.222656 35.898438 274.109375 C 35.902344 273.996094 35.996094 273.90625 36.105469 273.90625 " fill-opacity="1" fill-rule="nonzero"/><path fill="#5b0108" d="M 53.171875 78.230469 C 49.742188 78.230469 46.402344 78.875 43.25 80.152344 C 41.695312 80.785156 40.199219 81.566406 38.789062 82.480469 C 31.246094 87.382812 26.738281 95.675781 26.738281 104.660156 C 26.738281 113.644531 31.246094 121.9375 38.789062 126.839844 C 40.199219 127.757812 41.695312 128.535156 43.25 129.167969 C 46.402344 130.445312 49.742188 131.09375 53.171875 131.09375 C 67.75 131.09375 79.605469 119.234375 79.605469 104.660156 C 79.605469 90.085938 67.75 78.230469 53.171875 78.230469 Z M 53.171875 132.136719 C 49.605469 132.136719 46.136719 131.460938 42.859375 130.132812 C 41.246094 129.480469 39.683594 128.664062 38.222656 127.714844 C 30.378906 122.617188 25.699219 114 25.699219 104.660156 C 25.699219 95.320312 30.378906 86.703125 38.222656 81.605469 C 39.683594 80.652344 41.246094 79.839844 42.859375 79.1875 C 46.136719 77.859375 49.605469 77.183594 53.171875 77.183594 C 68.324219 77.183594 80.648438 89.507812 80.648438 104.660156 C 80.648438 119.808594 68.324219 132.136719 53.171875 132.136719 " fill-opacity="1" fill-rule="nonzero"/><path fill="#5b0108" d="M 63.175781 107.980469 C 63.386719 108.324219 63.28125 108.78125 62.933594 109 C 62.585938 109.210938 62.128906 109.105469 61.914062 108.757812 C 61.703125 108.410156 61.808594 107.953125 62.15625 107.738281 C 62.503906 107.527344 62.957031 107.632812 63.175781 107.980469 Z M 63.707031 107.648438 C 63.3125 107.007812 62.464844 106.808594 61.824219 107.207031 C 61.183594 107.601562 60.984375 108.445312 61.382812 109.085938 C 61.777344 109.730469 62.621094 109.929688 63.261719 109.53125 C 63.90625 109.136719 64.105469 108.289062 63.707031 107.648438 " fill-opacity="1" fill-rule="nonzero"/><path fill="#5b0108" d="M 65.785156 86.957031 C 65.207031 87.3125 64.453125 87.136719 64.09375 86.558594 C 63.738281 85.980469 63.917969 85.226562 64.496094 84.871094 C 65.070312 84.515625 65.828125 84.691406 66.183594 85.269531 C 66.539062 85.847656 66.359375 86.605469 65.785156 86.957031 " fill-opacity="1" fill-rule="nonzero"/><path fill="#5b0108" d="M 53.382812 125.09375 C 53.195312 125.210938 52.945312 125.152344 52.828125 124.960938 C 52.714844 124.773438 52.769531 124.523438 52.960938 124.40625 C 53.152344 124.289062 53.398438 124.351562 53.515625 124.539062 C 53.632812 124.726562 53.574219 124.976562 53.382812 125.09375 " fill-opacity="1" fill-rule="nonzero"/><path fill="#5b0108" d="M 52.578125 81.171875 C 52.386719 81.285156 52.140625 81.230469 52.023438 81.039062 C 51.90625 80.847656 51.964844 80.601562 52.15625 80.484375 C 52.34375 80.367188 52.59375 80.425781 52.710938 80.613281 C 52.824219 80.804688 52.769531 81.054688 52.578125 81.171875 " fill-opacity="1" fill-rule="nonzero"/><path fill="#5b0108" d="M 69.570312 118.675781 C 69.640625 118.792969 69.605469 118.945312 69.488281 119.015625 C 69.371094 119.089844 69.21875 119.054688 69.144531 118.9375 C 69.074219 118.816406 69.109375 118.664062 69.226562 118.59375 C 69.34375 118.523438 69.5 118.554688 69.570312 118.675781 Z M 70.105469 118.34375 C 69.847656 117.933594 69.308594 117.804688 68.898438 118.058594 C 68.484375 118.3125 68.355469 118.855469 68.613281 119.265625 C 68.863281 119.679688 69.410156 119.804688 69.820312 119.550781 C 70.230469 119.296875 70.359375 118.753906 70.105469 118.34375 " fill-opacity="1" fill-rule="nonzero"/><path fill="#5b0108" d="M 75.71875 100.097656 C 75.789062 100.214844 75.753906 100.367188 75.636719 100.4375 C 75.519531 100.515625 75.367188 100.476562 75.292969 100.359375 C 75.21875 100.242188 75.257812 100.089844 75.375 100.015625 C 75.492188 99.941406 75.644531 99.980469 75.71875 100.097656 Z M 76.253906 99.765625 C 75.996094 99.355469 75.457031 99.226562 75.046875 99.480469 C 74.632812 99.734375 74.503906 100.277344 74.761719 100.691406 C 75.011719 101.101562 75.554688 101.226562 75.96875 100.972656 C 76.378906 100.722656 76.507812 100.175781 76.253906 99.765625 " fill-opacity="1" fill-rule="nonzero"/><path fill="#5b0108" d="M 58.785156 95.167969 C 58.691406 95.230469 58.566406 95.199219 58.503906 95.101562 C 58.449219 95.007812 58.476562 94.882812 58.574219 94.820312 C 58.667969 94.761719 58.796875 94.792969 58.855469 94.886719 C 58.914062 94.984375 58.882812 95.109375 58.785156 95.167969 Z M 59.117188 95.703125 C 59.507812 95.460938 59.628906 94.945312 59.386719 94.558594 C 59.144531 94.167969 58.632812 94.046875 58.242188 94.289062 C 57.851562 94.53125 57.730469 95.042969 57.972656 95.433594 C 58.214844 95.824219 58.726562 95.945312 59.117188 95.703125 " fill-opacity="1" fill-rule="nonzero"/><path fill="#5b0108" d="M 41.84375 86.253906 C 42.410156 85.90625 43.15625 86.078125 43.507812 86.648438 C 43.855469 87.214844 43.679688 87.957031 43.113281 88.308594 C 42.546875 88.65625 41.800781 88.480469 41.453125 87.914062 C 41.101562 87.351562 41.277344 86.605469 41.84375 86.253906 " fill-opacity="1" fill-rule="nonzero"/><path fill="#5b0108" d="M 45.402344 104.488281 C 45.496094 104.425781 45.625 104.457031 45.683594 104.554688 C 45.746094 104.648438 45.714844 104.773438 45.617188 104.835938 C 45.519531 104.894531 45.394531 104.863281 45.335938 104.769531 C 45.277344 104.671875 45.308594 104.542969 45.402344 104.488281 " fill-opacity="1" fill-rule="nonzero"/><path fill="#5b0108" d="M 33.761719 110.464844 C 34.0625 110.277344 34.460938 110.367188 34.648438 110.671875 C 34.835938 110.972656 34.742188 111.371094 34.4375 111.554688 C 34.136719 111.742188 33.738281 111.652344 33.550781 111.347656 C 33.367188 111.046875 33.460938 110.648438 33.761719 110.464844 " fill-opacity="1" fill-rule="nonzero"/><path fill="#5b0108" d="M 32.628906 95.414062 C 32.511719 95.222656 32.566406 94.972656 32.757812 94.859375 C 32.949219 94.738281 33.195312 94.800781 33.3125 94.988281 C 33.429688 95.175781 33.371094 95.425781 33.179688 95.542969 C 32.992188 95.660156 32.742188 95.601562 32.628906 95.414062 Z M 33.203125 109.558594 C 34.003906 109.066406 35.058594 109.316406 35.550781 110.113281 C 36.042969 110.914062 35.792969 111.964844 34.996094 112.460938 C 34.195312 112.953125 33.144531 112.703125 32.652344 111.90625 C 32.15625 111.105469 32.40625 110.054688 33.203125 109.558594 Z M 40.714844 120.636719 C 41.070312 120.414062 41.535156 120.527344 41.753906 120.882812 C 41.976562 121.238281 41.863281 121.703125 41.511719 121.921875 C 41.152344 122.144531 40.6875 122.035156 40.46875 121.675781 C 40.246094 121.320312 40.359375 120.855469 40.714844 120.636719 Z M 40.515625 88.492188 C 39.84375 87.410156 40.179688 85.988281 41.265625 85.316406 C 42.347656 84.648438 43.773438 84.988281 44.441406 86.070312 C 45.113281 87.148438 44.777344 88.578125 43.691406 89.246094 C 42.609375 89.914062 41.183594 89.578125 40.515625 88.492188 Z M 45.070312 103.953125 C 45.464844 103.710938 45.976562 103.832031 46.21875 104.222656 C 46.457031 104.613281 46.335938 105.125 45.945312 105.367188 C 45.558594 105.609375 45.042969 105.488281 44.800781 105.097656 C 44.558594 104.707031 44.683594 104.195312 45.070312 103.953125 Z M 26.21875 104.660156 C 26.21875 114.136719 31.109375 122.472656 38.503906 127.277344 C 39.933594 128.207031 41.457031 129.003906 43.054688 129.648438 C 47.953125 122.550781 50.816406 113.9375 50.816406 104.660156 C 50.816406 95.382812 47.953125 86.773438 43.054688 79.671875 C 41.457031 80.316406 39.933594 81.113281 38.503906 82.042969 C 31.109375 86.851562 26.21875 95.183594 26.21875 104.660156 " fill-opacity="1" fill-rule="nonzero"/><g clip-path="url(#4e6b082063)"><path fill="#5b0108" d="M 30.320312 162.007812 C 29.105469 162.007812 27.890625 162.089844 26.71875 162.253906 C 25.371094 162.4375 24.023438 162.726562 22.71875 163.117188 C 11.632812 166.445312 3.886719 176.855469 3.886719 188.441406 C 3.886719 198.53125 9.496094 207.59375 18.527344 212.101562 C 20.894531 213.285156 23.417969 214.101562 26.027344 214.527344 C 27.4375 214.757812 28.882812 214.875 30.320312 214.875 C 44.894531 214.875 56.753906 203.015625 56.753906 188.441406 C 56.753906 173.867188 44.894531 162.007812 30.320312 162.007812 Z M 30.320312 215.917969 C 28.828125 215.917969 27.328125 215.796875 25.859375 215.554688 C 23.144531 215.117188 20.523438 214.265625 18.0625 213.035156 C 8.675781 208.351562 2.84375 198.925781 2.84375 188.441406 C 2.84375 176.398438 10.894531 165.574219 22.417969 162.121094 C 23.777344 161.710938 25.175781 161.410156 26.578125 161.21875 C 27.796875 161.050781 29.054688 160.964844 30.320312 160.964844 C 45.46875 160.964844 57.792969 173.292969 57.792969 188.441406 C 57.792969 203.59375 45.46875 215.917969 30.320312 215.917969 " fill-opacity="1" fill-rule="nonzero"/></g><path fill="#5b0108" d="M 17.601562 169.625 C 17.347656 169.625 17.140625 169.832031 17.140625 170.085938 C 17.140625 170.339844 17.347656 170.546875 17.601562 170.546875 C 17.859375 170.546875 18.066406 170.339844 18.066406 170.085938 C 18.066406 169.832031 17.859375 169.625 17.601562 169.625 " fill-opacity="1" fill-rule="nonzero"/><path fill="#5b0108" d="M 22.324219 206.816406 C 21.957031 206.816406 21.664062 207.113281 21.664062 207.472656 C 21.664062 207.839844 21.957031 208.132812 22.324219 208.132812 C 22.6875 208.132812 22.980469 207.839844 22.980469 207.472656 C 22.980469 207.113281 22.6875 206.816406 22.324219 206.816406 " fill-opacity="1" fill-rule="nonzero"/><path fill="#5b0108" d="M 12.792969 185.03125 C 12.175781 185.03125 11.671875 185.53125 11.671875 186.148438 C 11.671875 186.769531 12.175781 187.269531 12.792969 187.269531 C 13.410156 187.269531 13.914062 186.769531 13.914062 186.148438 C 13.914062 185.53125 13.410156 185.03125 12.792969 185.03125 " fill-opacity="1" fill-rule="nonzero"/><path fill="#5b0108" d="M 27.222656 192.863281 C 26.671875 192.863281 26.222656 192.417969 26.222656 191.867188 C 26.222656 191.316406 26.671875 190.867188 27.222656 190.867188 C 27.773438 190.867188 28.222656 191.316406 28.222656 191.867188 C 28.222656 192.417969 27.773438 192.863281 27.222656 192.863281 Z M 24.773438 177.164062 C 24.773438 176.515625 25.300781 175.984375 25.949219 175.984375 C 26.605469 175.984375 27.128906 176.515625 27.128906 177.164062 C 27.128906 177.816406 26.605469 178.34375 25.949219 178.34375 C 25.300781 178.34375 24.773438 177.816406 24.773438 177.164062 Z M 22.324219 209.175781 C 21.386719 209.175781 20.621094 208.414062 20.621094 207.472656 C 20.621094 206.539062 21.386719 205.773438 22.324219 205.773438 C 23.261719 205.773438 24.023438 206.539062 24.023438 207.472656 C 24.023438 208.414062 23.261719 209.175781 22.324219 209.175781 Z M 17.601562 171.265625 C 16.953125 171.265625 16.421875 170.738281 16.421875 170.085938 C 16.421875 169.4375 16.953125 168.90625 17.601562 168.90625 C 18.253906 168.90625 18.78125 169.4375 18.78125 170.085938 C 18.78125 170.738281 18.253906 171.265625 17.601562 171.265625 Z M 12.792969 188.113281 C 11.710938 188.113281 10.828125 187.234375 10.828125 186.148438 C 10.828125 185.066406 11.710938 184.183594 12.792969 184.183594 C 13.875 184.183594 14.757812 185.066406 14.757812 186.148438 C 14.757812 187.234375 13.875 188.113281 12.792969 188.113281 Z M 12.882812 201.574219 C 12.53125 201.574219 12.246094 201.292969 12.246094 200.941406 C 12.246094 200.59375 12.53125 200.308594 12.882812 200.308594 C 13.234375 200.308594 13.519531 200.59375 13.519531 200.941406 C 13.519531 201.292969 13.234375 201.574219 12.882812 201.574219 Z M 26.648438 161.738281 C 25.25 161.925781 23.886719 162.222656 22.566406 162.621094 C 11.460938 165.949219 3.367188 176.25 3.367188 188.441406 C 3.367188 199.007812 9.445312 208.148438 18.296875 212.570312 C 20.664062 213.753906 23.238281 214.601562 25.941406 215.042969 C 32.550781 209.082031 36.871094 199.21875 36.871094 188.058594 C 36.871094 177.300781 32.855469 167.75 26.648438 161.738281 " fill-opacity="1" fill-rule="nonzero"/><path fill="#5b0108" d="M 48.640625 194.292969 C 48.277344 194.292969 47.980469 194.585938 47.980469 194.953125 C 47.980469 195.316406 48.277344 195.613281 48.640625 195.613281 C 49.003906 195.613281 49.296875 195.316406 49.296875 194.953125 C 49.296875 194.585938 49.003906 194.292969 48.640625 194.292969 Z M 48.640625 196.652344 C 47.703125 196.652344 46.9375 195.890625 46.9375 194.953125 C 46.9375 194.015625 47.703125 193.25 48.640625 193.25 C 49.578125 193.25 50.339844 194.015625 50.339844 194.953125 C 50.339844 195.890625 49.578125 196.652344 48.640625 196.652344 " fill-opacity="1" fill-rule="nonzero"/><path fill="#5b0108" d="M 40.289062 182.519531 C 40.039062 182.519531 39.835938 182.722656 39.835938 182.972656 C 39.835938 183.222656 40.039062 183.425781 40.289062 183.425781 C 40.539062 183.425781 40.746094 183.222656 40.746094 182.972656 C 40.746094 182.722656 40.539062 182.519531 40.289062 182.519531 Z M 40.289062 184.152344 C 39.640625 184.152344 39.109375 183.625 39.109375 182.972656 C 39.109375 182.324219 39.640625 181.792969 40.289062 181.792969 C 40.941406 181.792969 41.46875 182.324219 41.46875 182.972656 C 41.46875 183.625 40.941406 184.152344 40.289062 184.152344 " fill-opacity="1" fill-rule="nonzero"/><path fill="#5b0108" d="M 50.179688 178.253906 C 50.179688 178.804688 49.734375 179.253906 49.183594 179.253906 C 48.632812 179.253906 48.183594 178.804688 48.183594 178.253906 C 48.183594 177.703125 48.632812 177.257812 49.183594 177.257812 C 49.734375 177.257812 50.179688 177.703125 50.179688 178.253906 " fill-opacity="1" fill-rule="nonzero"/><path fill="#5b0108" d="M 37.296875 167.546875 C 37.296875 167.898438 37.011719 168.183594 36.660156 168.183594 C 36.308594 168.183594 36.027344 167.898438 36.027344 167.546875 C 36.027344 167.195312 36.308594 166.910156 36.660156 166.910156 C 37.011719 166.910156 37.296875 167.195312 37.296875 167.546875 " fill-opacity="1" fill-rule="nonzero"/><path fill="#5b0108" d="M 42.921875 206.023438 C 42.921875 206.578125 42.472656 207.023438 41.925781 207.023438 C 41.371094 207.023438 40.925781 206.578125 40.925781 206.023438 C 40.925781 205.472656 41.371094 205.027344 41.925781 205.027344 C 42.472656 205.027344 42.921875 205.472656 42.921875 206.023438 " fill-opacity="1" fill-rule="nonzero"/><path fill="#5b0108" d="M 111.449219 24.796875 C 110.230469 24.796875 109.019531 24.878906 107.847656 25.042969 C 106.5 25.226562 105.152344 25.515625 103.847656 25.90625 C 99.480469 27.214844 95.5 29.660156 92.335938 32.972656 C 87.617188 37.914062 85.015625 44.394531 85.015625 51.230469 C 85.015625 57.917969 87.523438 64.304688 92.074219 69.207031 C 94.25 71.550781 96.800781 73.464844 99.65625 74.890625 C 102.023438 76.074219 104.546875 76.886719 107.15625 77.3125 C 108.566406 77.542969 110.011719 77.660156 111.449219 77.660156 C 126.023438 77.660156 137.882812 65.804688 137.882812 51.230469 C 137.882812 36.65625 126.023438 24.796875 111.449219 24.796875 Z M 111.449219 78.707031 C 109.957031 78.707031 108.457031 78.582031 106.988281 78.34375 C 104.277344 77.902344 101.652344 77.054688 99.191406 75.824219 C 96.222656 74.339844 93.570312 72.355469 91.308594 69.917969 C 86.578125 64.820312 83.976562 58.183594 83.976562 51.230469 C 83.976562 44.125 86.675781 37.386719 91.582031 32.25 C 94.871094 28.808594 99.007812 26.269531 103.546875 24.910156 C 104.90625 24.5 106.308594 24.199219 107.707031 24.007812 C 108.925781 23.839844 110.183594 23.753906 111.449219 23.753906 C 126.597656 23.753906 138.925781 36.078125 138.925781 51.230469 C 138.925781 66.378906 126.597656 78.707031 111.449219 78.707031 " fill-opacity="1" fill-rule="nonzero"/><path fill="#5b0108" d="M 105.265625 31.753906 C 104.648438 31.753906 104.144531 32.257812 104.144531 32.875 C 104.144531 33.492188 104.648438 33.992188 105.265625 33.992188 C 105.882812 33.992188 106.386719 33.492188 106.386719 32.875 C 106.386719 32.257812 105.882812 31.753906 105.265625 31.753906 Z M 105.265625 34.839844 C 104.183594 34.839844 103.300781 33.957031 103.300781 32.875 C 103.300781 31.789062 104.183594 30.910156 105.265625 30.910156 C 106.351562 30.910156 107.230469 31.789062 107.230469 32.875 C 107.230469 33.957031 106.351562 34.839844 105.265625 34.839844 " fill-opacity="1" fill-rule="nonzero"/><path fill="#5b0108" d="M 129.589844 54.542969 C 129.226562 54.542969 128.929688 54.835938 128.929688 55.199219 C 128.929688 55.558594 129.226562 55.855469 129.589844 55.855469 C 129.949219 55.855469 130.246094 55.558594 130.246094 55.199219 C 130.246094 54.835938 129.949219 54.542969 129.589844 54.542969 Z M 129.589844 56.902344 C 128.648438 56.902344 127.886719 56.136719 127.886719 55.199219 C 127.886719 54.261719 128.648438 53.496094 129.589844 53.496094 C 130.527344 53.496094 131.289062 54.261719 131.289062 55.199219 C 131.289062 56.136719 130.527344 56.902344 129.589844 56.902344 " fill-opacity="1" fill-rule="nonzero"/><path fill="#5b0108" d="M 121.238281 42.765625 C 120.988281 42.765625 120.785156 42.96875 120.785156 43.21875 C 120.785156 43.472656 120.988281 43.671875 121.238281 43.671875 C 121.488281 43.671875 121.695312 43.472656 121.695312 43.21875 C 121.695312 42.96875 121.488281 42.765625 121.238281 42.765625 Z M 121.238281 44.398438 C 120.589844 44.398438 120.058594 43.871094 120.058594 43.21875 C 120.058594 42.570312 120.589844 42.039062 121.238281 42.039062 C 121.890625 42.039062 122.417969 42.570312 122.417969 43.21875 C 122.417969 43.871094 121.890625 44.398438 121.238281 44.398438 " fill-opacity="1" fill-rule="nonzero"/><path fill="#5b0108" d="M 129.675781 38.863281 C 129.675781 39.214844 129.390625 39.496094 129.042969 39.496094 C 128.691406 39.496094 128.410156 39.214844 128.410156 38.863281 C 128.410156 38.515625 128.691406 38.230469 129.042969 38.230469 C 129.390625 38.230469 129.675781 38.515625 129.675781 38.863281 " fill-opacity="1" fill-rule="nonzero"/><path fill="#5b0108" d="M 105.8125 68.335938 C 105.449219 68.335938 105.152344 68.628906 105.152344 68.992188 C 105.152344 69.355469 105.449219 69.648438 105.8125 69.648438 C 106.175781 69.648438 106.46875 69.355469 106.46875 68.992188 C 106.46875 68.628906 106.175781 68.335938 105.8125 68.335938 Z M 105.8125 70.695312 C 104.875 70.695312 104.109375 69.929688 104.109375 68.992188 C 104.109375 68.054688 104.875 67.289062 105.8125 67.289062 C 106.75 67.289062 107.511719 68.054688 107.511719 68.992188 C 107.511719 69.929688 106.75 70.695312 105.8125 70.695312 " fill-opacity="1" fill-rule="nonzero"/><path fill="#5b0108" d="M 110.621094 51.203125 C 110.621094 52.15625 109.847656 52.929688 108.894531 52.929688 C 107.945312 52.929688 107.171875 52.15625 107.171875 51.203125 C 107.171875 50.253906 107.945312 49.480469 108.894531 49.480469 C 109.847656 49.480469 110.621094 50.253906 110.621094 51.203125 " fill-opacity="1" fill-rule="nonzero"/><path fill="#5b0108" d="M 118.242188 27.792969 C 118.242188 28.140625 117.960938 28.425781 117.609375 28.425781 C 117.257812 28.425781 116.972656 28.140625 116.972656 27.792969 C 116.972656 27.441406 117.257812 27.15625 117.609375 27.15625 C 117.960938 27.15625 118.242188 27.441406 118.242188 27.792969 " fill-opacity="1" fill-rule="nonzero"/><path fill="#5b0108" d="M 123.871094 66.269531 C 123.871094 66.820312 123.421875 67.269531 122.871094 67.269531 C 122.320312 67.269531 121.875 66.820312 121.875 66.269531 C 121.875 65.71875 122.320312 65.269531 122.871094 65.269531 C 123.421875 65.269531 123.871094 65.71875 123.871094 66.269531 " fill-opacity="1" fill-rule="nonzero"/><path fill="#5b0108" d="M 91.835938 42.90625 C 91.363281 42.90625 90.976562 43.292969 90.976562 43.765625 C 90.976562 44.234375 91.363281 44.621094 91.835938 44.621094 C 92.308594 44.621094 92.691406 44.234375 92.691406 43.765625 C 92.691406 43.292969 92.308594 42.90625 91.835938 42.90625 " fill-opacity="1" fill-rule="nonzero"/><path fill="#5b0108" d="M 91.835938 45.265625 C 91.007812 45.265625 90.332031 44.59375 90.332031 43.765625 C 90.332031 42.9375 91.007812 42.261719 91.835938 42.261719 C 92.664062 42.261719 93.335938 42.9375 93.335938 43.765625 C 93.335938 44.59375 92.664062 45.265625 91.835938 45.265625 Z M 89.476562 56.921875 C 88.824219 56.921875 88.296875 56.394531 88.296875 55.746094 C 88.296875 55.089844 88.824219 54.566406 89.476562 54.566406 C 90.125 54.566406 90.65625 55.089844 90.65625 55.746094 C 90.65625 56.394531 90.125 56.921875 89.476562 56.921875 Z M 91.960938 32.609375 C 87.335938 37.449219 84.496094 44.007812 84.496094 51.230469 C 84.496094 58.3125 87.226562 64.75 91.691406 69.558594 C 94.988281 64.375 96.949219 57.894531 96.949219 50.871094 C 96.949219 44.035156 95.09375 37.71875 91.960938 32.609375 " fill-opacity="1" fill-rule="nonzero"/><path fill="#5b0108" d="M 108.726562 297.046875 C 106.136719 297.046875 103.578125 297.417969 101.121094 298.152344 C 90.039062 301.480469 82.296875 311.890625 82.296875 323.476562 C 82.296875 333.5625 87.90625 342.628906 96.933594 347.136719 C 100.613281 348.976562 104.582031 349.910156 108.726562 349.910156 C 123.300781 349.910156 135.15625 338.050781 135.15625 323.476562 C 135.15625 308.902344 123.300781 297.046875 108.726562 297.046875 Z M 108.726562 350.953125 C 104.417969 350.953125 100.292969 349.984375 96.46875 348.074219 C 87.082031 343.386719 81.25 333.960938 81.25 323.476562 C 81.25 311.433594 89.300781 300.609375 100.824219 297.15625 C 103.378906 296.390625 106.035156 296 108.726562 296 C 123.878906 296 136.203125 308.324219 136.203125 323.476562 C 136.203125 338.628906 123.878906 350.953125 108.726562 350.953125 " fill-opacity="1" fill-rule="nonzero"/><path fill="#5b0108" d="M 88.863281 327.746094 C 88.421875 327.746094 88.070312 328.101562 88.070312 328.539062 C 88.070312 328.980469 88.421875 329.335938 88.863281 329.335938 C 89.300781 329.335938 89.65625 328.980469 89.65625 328.539062 C 89.65625 328.101562 89.300781 327.746094 88.863281 327.746094 " fill-opacity="1" fill-rule="nonzero"/><path fill="#5b0108" d="M 122.871094 327.535156 C 122.222656 327.535156 121.695312 327.007812 121.695312 326.355469 C 121.695312 325.707031 122.222656 325.175781 122.871094 325.175781 C 123.523438 325.175781 124.050781 325.707031 124.050781 326.355469 C 124.050781 327.007812 123.523438 327.535156 122.871094 327.535156 Z M 113.183594 308.183594 C 112.101562 308.183594 111.21875 307.300781 111.21875 306.21875 C 111.21875 305.132812 112.101562 304.253906 113.183594 304.253906 C 114.269531 304.253906 115.148438 305.132812 115.148438 306.21875 C 115.148438 307.300781 114.269531 308.183594 113.183594 308.183594 Z M 113.253906 324.453125 C 112.300781 324.453125 111.527344 323.679688 111.527344 322.726562 C 111.527344 321.777344 112.300781 321.003906 113.253906 321.003906 C 114.203125 321.003906 114.976562 321.777344 114.976562 322.726562 C 114.976562 323.679688 114.203125 324.453125 113.253906 324.453125 Z M 112.640625 344.035156 C 111.703125 344.035156 110.9375 343.273438 110.9375 342.335938 C 110.9375 341.398438 111.703125 340.632812 112.640625 340.632812 C 113.578125 340.632812 114.339844 341.398438 114.339844 342.335938 C 114.339844 343.273438 113.578125 344.035156 112.640625 344.035156 Z M 100.839844 301.769531 C 100.492188 301.769531 100.207031 301.488281 100.207031 301.136719 C 100.207031 300.785156 100.492188 300.5 100.839844 300.5 C 101.191406 300.5 101.476562 300.785156 101.476562 301.136719 C 101.476562 301.488281 101.191406 301.769531 100.839844 301.769531 Z M 100.183594 320.277344 C 99.535156 320.277344 99.003906 319.746094 99.003906 319.097656 C 99.003906 318.449219 99.535156 317.917969 100.183594 317.917969 C 100.835938 317.917969 101.363281 318.449219 101.363281 319.097656 C 101.363281 319.746094 100.835938 320.277344 100.183594 320.277344 Z M 95.578125 340.613281 C 95.027344 340.613281 94.582031 340.164062 94.582031 339.613281 C 94.582031 339.0625 95.027344 338.613281 95.578125 338.613281 C 96.132812 338.613281 96.578125 339.0625 96.578125 339.613281 C 96.578125 340.164062 96.132812 340.613281 95.578125 340.613281 Z M 88.863281 330.0625 C 88.023438 330.0625 87.339844 329.378906 87.339844 328.539062 C 87.339844 327.703125 88.023438 327.019531 88.863281 327.019531 C 89.699219 327.019531 90.382812 327.703125 90.382812 328.539062 C 90.382812 329.378906 89.699219 330.0625 88.863281 330.0625 Z M 89.40625 311.570312 C 89.757812 311.570312 90.042969 311.855469 90.042969 312.207031 C 90.042969 312.558594 89.757812 312.84375 89.40625 312.84375 C 89.054688 312.84375 88.769531 312.558594 88.769531 312.207031 C 88.769531 311.855469 89.054688 311.570312 89.40625 311.570312 Z M 104.320312 297.4375 C 103.183594 297.4375 102.070312 297.511719 100.972656 297.65625 C 89.867188 300.984375 81.773438 311.285156 81.773438 323.476562 C 81.773438 334.039062 87.851562 343.183594 96.699219 347.605469 C 99.109375 348.355469 101.667969 348.753906 104.320312 348.753906 C 118.492188 348.753906 129.980469 337.265625 129.980469 323.097656 C 129.980469 308.925781 118.492188 297.4375 104.320312 297.4375 " fill-opacity="1" fill-rule="nonzero"/><path fill="#5b0108" d="M 113.183594 305.09375 C 112.566406 305.09375 112.0625 305.597656 112.0625 306.21875 C 112.0625 306.835938 112.566406 307.335938 113.183594 307.335938 C 113.800781 307.335938 114.304688 306.835938 114.304688 306.21875 C 114.304688 305.597656 113.800781 305.09375 113.183594 305.09375 " fill-opacity="1" fill-rule="nonzero"/><path fill="#5b0108" d="M 100.183594 318.644531 C 99.933594 318.644531 99.730469 318.847656 99.730469 319.097656 C 99.730469 319.347656 99.933594 319.550781 100.183594 319.550781 C 100.433594 319.550781 100.640625 319.347656 100.640625 319.097656 C 100.640625 318.847656 100.433594 318.644531 100.183594 318.644531 " fill-opacity="1" fill-rule="nonzero"/><path fill="#5b0108" d="M 122.871094 325.902344 C 122.621094 325.902344 122.417969 326.105469 122.417969 326.355469 C 122.417969 326.605469 122.621094 326.8125 122.871094 326.8125 C 123.125 326.8125 123.324219 326.605469 123.324219 326.355469 C 123.324219 326.105469 123.125 325.902344 122.871094 325.902344 " fill-opacity="1" fill-rule="nonzero"/><path fill="#5b0108" d="M 112.640625 341.675781 C 112.277344 341.675781 111.980469 341.972656 111.980469 342.335938 C 111.980469 342.699219 112.277344 342.996094 112.640625 342.996094 C 113 342.996094 113.296875 342.699219 113.296875 342.335938 C 113.296875 341.972656 113 341.675781 112.640625 341.675781 " fill-opacity="1" fill-rule="nonzero"/><path fill="#5b0108" d="M 322.023438 241.9375 C 307.449219 241.9375 295.589844 253.796875 295.589844 268.371094 C 295.589844 282.949219 307.449219 294.804688 322.023438 294.804688 C 324.75 294.804688 327.4375 294.390625 330.011719 293.574219 C 341.046875 290.082031 348.457031 279.957031 348.457031 268.371094 C 348.457031 256.789062 341.046875 246.660156 330.011719 243.167969 C 327.4375 242.351562 324.75 241.9375 322.023438 241.9375 Z M 322.023438 295.847656 C 306.875 295.847656 294.550781 283.523438 294.550781 268.371094 C 294.550781 253.222656 306.875 240.898438 322.023438 240.898438 C 324.855469 240.898438 327.648438 241.324219 330.324219 242.175781 C 341.792969 245.804688 349.5 256.332031 349.5 268.371094 C 349.5 280.414062 341.792969 290.941406 330.324219 294.570312 C 327.648438 295.417969 324.855469 295.847656 322.023438 295.847656 " fill-opacity="1" fill-rule="nonzero"/><path fill="#5b0108" d="M 317.46875 245.890625 C 317.480469 246.300781 317.152344 246.636719 316.75 246.644531 C 316.339844 246.652344 316 246.328125 315.992188 245.921875 C 315.984375 245.515625 316.308594 245.175781 316.71875 245.167969 C 317.125 245.15625 317.460938 245.484375 317.46875 245.890625 Z M 318.097656 245.878906 C 318.082031 245.125 317.460938 244.523438 316.707031 244.539062 C 315.953125 244.554688 315.351562 245.179688 315.363281 245.933594 C 315.378906 246.6875 316.007812 247.289062 316.761719 247.273438 C 317.515625 247.257812 318.113281 246.628906 318.097656 245.878906 " fill-opacity="1" fill-rule="nonzero"/><path fill="#5b0108" d="M 307.027344 251.847656 C 306.800781 251.851562 306.617188 251.675781 306.617188 251.453125 C 306.609375 251.230469 306.789062 251.046875 307.007812 251.042969 C 307.230469 251.039062 307.414062 251.214844 307.421875 251.4375 C 307.425781 251.660156 307.25 251.84375 307.027344 251.847656 " fill-opacity="1" fill-rule="nonzero"/><path fill="#5b0108" d="M 308.539062 275.21875 C 308.316406 275.222656 308.132812 275.042969 308.125 274.824219 C 308.125 274.601562 308.296875 274.417969 308.523438 274.410156 C 308.746094 274.40625 308.929688 274.585938 308.933594 274.804688 C 308.9375 275.027344 308.761719 275.210938 308.539062 275.21875 " fill-opacity="1" fill-rule="nonzero"/><path fill="#5b0108" d="M 302.9375 281.386719 C 302.152344 281.40625 301.507812 280.785156 301.492188 280.003906 C 301.476562 279.222656 302.09375 278.574219 302.878906 278.558594 C 303.660156 278.542969 304.304688 279.164062 304.324219 279.945312 C 304.335938 280.726562 303.71875 281.375 302.9375 281.386719 " fill-opacity="1" fill-rule="nonzero"/><path fill="#5b0108" d="M 313.015625 288.457031 C 313.015625 288.59375 312.90625 288.707031 312.769531 288.710938 C 312.632812 288.714844 312.515625 288.605469 312.511719 288.464844 C 312.511719 288.332031 312.621094 288.214844 312.757812 288.210938 C 312.894531 288.210938 313.011719 288.320312 313.015625 288.457031 Z M 313.640625 288.441406 C 313.628906 287.960938 313.230469 287.574219 312.746094 287.585938 C 312.261719 287.59375 311.878906 287.996094 311.886719 288.480469 C 311.894531 288.964844 312.296875 289.347656 312.78125 289.339844 C 313.265625 289.328125 313.648438 288.925781 313.640625 288.441406 " fill-opacity="1" fill-rule="nonzero"/><path fill="#5b0108" d="M 298.492188 268.234375 C 298.382812 268.238281 298.285156 268.148438 298.285156 268.03125 C 298.285156 267.921875 298.371094 267.828125 298.484375 267.824219 C 298.597656 267.824219 298.691406 267.914062 298.695312 268.023438 C 298.699219 268.140625 298.605469 268.230469 298.492188 268.234375 Z M 298.503906 268.863281 C 298.964844 268.851562 299.332031 268.472656 299.320312 268.011719 C 299.3125 267.550781 298.929688 267.1875 298.472656 267.199219 C 298.011719 267.207031 297.648438 267.585938 297.65625 268.046875 C 297.667969 268.503906 298.046875 268.875 298.503906 268.863281 " fill-opacity="1" fill-rule="nonzero"/><path fill="#5b0108" d="M 306.617188 262.683594 C 306.605469 262.324219 306.890625 262.03125 307.246094 262.027344 C 307.597656 262.015625 307.894531 262.300781 307.902344 262.65625 C 307.910156 263.007812 307.628906 263.304688 307.273438 263.3125 C 306.917969 263.316406 306.621094 263.035156 306.617188 262.683594 Z M 305.988281 262.691406 C 306.003906 263.394531 306.582031 263.953125 307.285156 263.9375 C 307.984375 263.925781 308.542969 263.34375 308.527344 262.640625 C 308.515625 261.9375 307.933594 261.382812 307.234375 261.394531 C 306.53125 261.410156 305.972656 261.992188 305.988281 262.691406 " fill-opacity="1" fill-rule="nonzero"/><path fill="#5b0108" d="M 321.089844 272.707031 C 320.679688 272.714844 320.355469 273.054688 320.363281 273.460938 C 320.375 273.871094 320.710938 274.195312 321.117188 274.1875 C 321.527344 274.179688 321.851562 273.839844 321.84375 273.429688 C 321.835938 273.023438 321.496094 272.699219 321.089844 272.707031 " fill-opacity="1" fill-rule="nonzero"/><path fill="#5b0108" d="M 327.238281 289.089844 C 327.101562 289.09375 326.992188 289.207031 326.992188 289.34375 C 326.996094 289.480469 327.113281 289.589844 327.25 289.585938 C 327.386719 289.585938 327.496094 289.472656 327.496094 289.335938 C 327.492188 289.195312 327.375 289.085938 327.238281 289.089844 " fill-opacity="1" fill-rule="nonzero"/><path fill="#5b0108" d="M 338.90625 274.945312 C 338.445312 274.957031 338.066406 274.589844 338.058594 274.132812 C 338.050781 273.671875 338.414062 273.292969 338.871094 273.28125 C 339.332031 273.273438 339.714844 273.636719 339.722656 274.097656 C 339.734375 274.554688 339.367188 274.9375 338.90625 274.945312 Z M 339.277344 253.269531 C 339.734375 253.257812 340.117188 253.625 340.128906 254.085938 C 340.136719 254.546875 339.769531 254.929688 339.308594 254.9375 C 338.851562 254.945312 338.46875 254.578125 338.457031 254.121094 C 338.449219 253.660156 338.816406 253.28125 339.277344 253.269531 Z M 327.394531 263.285156 C 326.632812 263.300781 326.003906 262.699219 325.988281 261.9375 C 325.976562 261.179688 326.578125 260.550781 327.335938 260.535156 C 328.09375 260.519531 328.722656 261.121094 328.738281 261.882812 C 328.753906 262.640625 328.152344 263.269531 327.394531 263.285156 Z M 327.261719 290.214844 C 326.777344 290.226562 326.378906 289.839844 326.367188 289.359375 C 326.359375 288.875 326.742188 288.472656 327.226562 288.460938 C 327.710938 288.453125 328.113281 288.835938 328.121094 289.320312 C 328.128906 289.804688 327.746094 290.207031 327.261719 290.214844 Z M 322.984375 252.253906 C 322.761719 252.253906 322.578125 252.078125 322.570312 251.855469 C 322.570312 251.632812 322.746094 251.449219 322.96875 251.445312 C 323.191406 251.441406 323.375 251.617188 323.378906 251.839844 C 323.382812 252.0625 323.207031 252.246094 322.984375 252.253906 Z M 321.128906 274.8125 C 320.375 274.828125 319.753906 274.226562 319.738281 273.476562 C 319.71875 272.71875 320.320312 272.09375 321.074219 272.082031 C 321.828125 272.0625 322.457031 272.664062 322.472656 273.417969 C 322.484375 274.171875 321.882812 274.800781 321.128906 274.8125 Z M 330.167969 242.671875 C 319.261719 246.125 311.359375 256.324219 311.359375 268.371094 C 311.359375 280.417969 319.261719 290.621094 330.167969 294.074219 C 341.074219 290.621094 348.976562 280.417969 348.976562 268.371094 C 348.976562 256.324219 341.074219 246.125 330.167969 242.671875 " fill-opacity="1" fill-rule="nonzero"/><path fill="#5b0108" d="M 338.886719 273.90625 C 338.773438 273.910156 338.683594 274.003906 338.6875 274.117188 C 338.6875 274.230469 338.78125 274.320312 338.894531 274.320312 C 339.007812 274.316406 339.097656 274.222656 339.09375 274.109375 C 339.089844 273.996094 339 273.90625 338.886719 273.90625 " fill-opacity="1" fill-rule="nonzero"/><path fill="#5b0108" d="M 321.820312 78.230469 C 307.246094 78.230469 295.390625 90.085938 295.390625 104.660156 C 295.390625 119.234375 307.246094 131.09375 321.820312 131.09375 C 325.253906 131.09375 328.589844 130.445312 331.742188 129.167969 C 333.296875 128.535156 334.796875 127.757812 336.207031 126.839844 C 343.75 121.9375 348.253906 113.644531 348.253906 104.660156 C 348.253906 95.675781 343.75 87.382812 336.207031 82.480469 C 334.796875 81.566406 333.296875 80.785156 331.742188 80.152344 C 328.589844 78.875 325.253906 78.230469 321.820312 78.230469 Z M 321.820312 132.136719 C 306.671875 132.136719 294.34375 119.808594 294.34375 104.660156 C 294.34375 89.507812 306.671875 77.183594 321.820312 77.183594 C 325.386719 77.183594 328.859375 77.859375 332.136719 79.1875 C 333.75 79.839844 335.3125 80.652344 336.773438 81.605469 C 344.617188 86.703125 349.296875 95.320312 349.296875 104.660156 C 349.296875 114 344.617188 122.617188 336.773438 127.714844 C 335.3125 128.664062 333.75 129.480469 332.136719 130.132812 C 328.859375 131.460938 325.386719 132.136719 321.820312 132.136719 " fill-opacity="1" fill-rule="nonzero"/><path fill="#5b0108" d="M 312.839844 107.738281 C 313.1875 107.953125 313.292969 108.410156 313.082031 108.757812 C 312.863281 109.105469 312.40625 109.210938 312.0625 109 C 311.714844 108.78125 311.605469 108.324219 311.820312 107.980469 C 312.035156 107.632812 312.492188 107.527344 312.839844 107.738281 Z M 311.730469 109.53125 C 312.371094 109.929688 313.21875 109.730469 313.613281 109.085938 C 314.007812 108.445312 313.8125 107.601562 313.167969 107.207031 C 312.527344 106.808594 311.683594 107.007812 311.289062 107.648438 C 310.890625 108.289062 311.089844 109.136719 311.730469 109.53125 " fill-opacity="1" fill-rule="nonzero"/><path fill="#5b0108" d="M 309.210938 86.957031 C 309.785156 87.3125 310.542969 87.136719 310.898438 86.558594 C 311.257812 85.980469 311.078125 85.226562 310.5 84.871094 C 309.925781 84.515625 309.167969 84.691406 308.8125 85.269531 C 308.453125 85.847656 308.636719 86.605469 309.210938 86.957031 " fill-opacity="1" fill-rule="nonzero"/><path fill="#5b0108" d="M 321.609375 125.09375 C 321.800781 125.210938 322.046875 125.152344 322.164062 124.960938 C 322.28125 124.773438 322.222656 124.523438 322.035156 124.40625 C 321.84375 124.289062 321.597656 124.351562 321.476562 124.539062 C 321.359375 124.726562 321.421875 124.976562 321.609375 125.09375 " fill-opacity="1" fill-rule="nonzero"/><path fill="#5b0108" d="M 322.417969 81.171875 C 322.605469 81.285156 322.855469 81.230469 322.972656 81.039062 C 323.089844 80.847656 323.027344 80.601562 322.839844 80.484375 C 322.652344 80.367188 322.402344 80.425781 322.285156 80.613281 C 322.167969 80.804688 322.226562 81.054688 322.417969 81.171875 " fill-opacity="1" fill-rule="nonzero"/><path fill="#5b0108" d="M 305.765625 118.59375 C 305.882812 118.664062 305.921875 118.816406 305.851562 118.9375 C 305.777344 119.054688 305.621094 119.089844 305.503906 119.015625 C 305.386719 118.945312 305.351562 118.792969 305.425781 118.675781 C 305.496094 118.554688 305.652344 118.523438 305.765625 118.59375 Z M 305.175781 119.550781 C 305.589844 119.804688 306.128906 119.679688 306.382812 119.265625 C 306.636719 118.855469 306.507812 118.3125 306.097656 118.058594 C 305.6875 117.804688 305.144531 117.933594 304.890625 118.34375 C 304.636719 118.753906 304.761719 119.296875 305.175781 119.550781 " fill-opacity="1" fill-rule="nonzero"/><path fill="#5b0108" d="M 299.617188 100.015625 C 299.738281 100.089844 299.773438 100.242188 299.703125 100.359375 C 299.628906 100.476562 299.476562 100.515625 299.355469 100.4375 C 299.238281 100.367188 299.203125 100.214844 299.277344 100.097656 C 299.347656 99.980469 299.503906 99.941406 299.617188 100.015625 Z M 299.027344 100.972656 C 299.441406 101.226562 299.980469 101.101562 300.234375 100.691406 C 300.492188 100.277344 300.359375 99.734375 299.949219 99.480469 C 299.539062 99.226562 298.996094 99.355469 298.742188 99.765625 C 298.488281 100.175781 298.613281 100.722656 299.027344 100.972656 " fill-opacity="1" fill-rule="nonzero"/><path fill="#5b0108" d="M 316.136719 94.886719 C 316.199219 94.792969 316.324219 94.761719 316.421875 94.820312 C 316.519531 94.882812 316.546875 95.007812 316.488281 95.101562 C 316.429688 95.199219 316.300781 95.230469 316.207031 95.167969 C 316.109375 95.109375 316.082031 94.984375 316.136719 94.886719 Z M 317.023438 95.433594 C 317.261719 95.042969 317.144531 94.53125 316.75 94.289062 C 316.359375 94.046875 315.847656 94.167969 315.605469 94.558594 C 315.363281 94.945312 315.484375 95.460938 315.875 95.703125 C 316.269531 95.945312 316.78125 95.824219 317.023438 95.433594 " fill-opacity="1" fill-rule="nonzero"/><path fill="#5b0108" d="M 333.152344 86.253906 C 332.582031 85.90625 331.839844 86.078125 331.488281 86.648438 C 331.140625 87.214844 331.316406 87.957031 331.882812 88.308594 C 332.449219 88.65625 333.195312 88.480469 333.542969 87.914062 C 333.894531 87.351562 333.71875 86.605469 333.152344 86.253906 " fill-opacity="1" fill-rule="nonzero"/><path fill="#5b0108" d="M 329.589844 104.488281 C 329.496094 104.425781 329.371094 104.457031 329.308594 104.554688 C 329.25 104.648438 329.28125 104.773438 329.375 104.835938 C 329.472656 104.894531 329.601562 104.863281 329.65625 104.769531 C 329.71875 104.671875 329.6875 104.542969 329.589844 104.488281 " fill-opacity="1" fill-rule="nonzero"/><path fill="#5b0108" d="M 341.230469 110.464844 C 340.929688 110.277344 340.53125 110.367188 340.347656 110.671875 C 340.160156 110.972656 340.253906 111.371094 340.554688 111.554688 C 340.859375 111.742188 341.253906 111.652344 341.441406 111.347656 C 341.628906 111.046875 341.535156 110.648438 341.230469 110.464844 " fill-opacity="1" fill-rule="nonzero"/><path fill="#5b0108" d="M 341.8125 95.542969 C 341.625 95.425781 341.5625 95.175781 341.679688 94.988281 C 341.800781 94.800781 342.046875 94.738281 342.234375 94.859375 C 342.425781 94.972656 342.484375 95.222656 342.367188 95.414062 C 342.25 95.601562 342 95.660156 341.8125 95.542969 Z M 342.34375 111.90625 C 341.851562 112.703125 340.796875 112.953125 339.996094 112.460938 C 339.199219 111.964844 338.949219 110.914062 339.445312 110.113281 C 339.9375 109.316406 340.992188 109.066406 341.789062 109.558594 C 342.585938 110.054688 342.835938 111.105469 342.34375 111.90625 Z M 334.527344 121.675781 C 334.308594 122.035156 333.839844 122.144531 333.484375 121.921875 C 333.128906 121.703125 333.019531 121.238281 333.238281 120.882812 C 333.457031 120.527344 333.925781 120.414062 334.28125 120.636719 C 334.636719 120.855469 334.746094 121.320312 334.527344 121.675781 Z M 331.304688 89.246094 C 330.21875 88.578125 329.882812 87.148438 330.550781 86.070312 C 331.21875 84.988281 332.648438 84.648438 333.730469 85.316406 C 334.8125 85.988281 335.148438 87.410156 334.480469 88.492188 C 333.808594 89.578125 332.386719 89.914062 331.304688 89.246094 Z M 330.191406 105.097656 C 329.953125 105.488281 329.4375 105.609375 329.046875 105.367188 C 328.65625 105.125 328.535156 104.613281 328.773438 104.222656 C 329.015625 103.832031 329.53125 103.710938 329.921875 103.953125 C 330.3125 104.195312 330.433594 104.707031 330.191406 105.097656 Z M 336.492188 82.042969 C 335.0625 81.113281 333.539062 80.316406 331.9375 79.671875 C 327.042969 86.773438 324.175781 95.382812 324.175781 104.660156 C 324.175781 113.9375 327.042969 122.550781 331.9375 129.648438 C 333.539062 129.003906 335.0625 128.207031 336.492188 127.277344 C 343.886719 122.472656 348.777344 114.136719 348.777344 104.660156 C 348.777344 95.183594 343.886719 86.851562 336.492188 82.042969 " fill-opacity="1" fill-rule="nonzero"/><g clip-path="url(#7f85636d1c)"><path fill="#5b0108" d="M 344.671875 162.007812 C 330.101562 162.007812 318.242188 173.867188 318.242188 188.441406 C 318.242188 203.015625 330.101562 214.875 344.671875 214.875 C 346.113281 214.875 347.554688 214.757812 348.96875 214.527344 C 351.578125 214.101562 354.101562 213.285156 356.464844 212.101562 C 365.496094 207.59375 371.105469 198.527344 371.105469 188.441406 C 371.105469 176.855469 363.367188 166.445312 352.277344 163.117188 C 350.972656 162.726562 349.625 162.4375 348.277344 162.253906 C 347.105469 162.089844 345.890625 162.007812 344.671875 162.007812 Z M 344.671875 215.917969 C 329.527344 215.917969 317.199219 203.59375 317.199219 188.441406 C 317.199219 173.292969 329.527344 160.964844 344.671875 160.964844 C 345.9375 160.964844 347.199219 161.050781 348.417969 161.21875 C 349.816406 161.410156 351.21875 161.710938 352.578125 162.121094 C 364.101562 165.574219 372.148438 176.398438 372.148438 188.441406 C 372.148438 198.925781 366.320312 208.347656 356.933594 213.035156 C 354.472656 214.265625 351.847656 215.117188 349.136719 215.558594 C 347.667969 215.796875 346.167969 215.917969 344.671875 215.917969 " fill-opacity="1" fill-rule="nonzero"/></g><path fill="#5b0108" d="M 357.390625 169.625 C 357.644531 169.625 357.851562 169.832031 357.851562 170.085938 C 357.851562 170.339844 357.644531 170.546875 357.390625 170.546875 C 357.136719 170.546875 356.929688 170.339844 356.929688 170.085938 C 356.929688 169.832031 357.136719 169.625 357.390625 169.625 " fill-opacity="1" fill-rule="nonzero"/><path fill="#5b0108" d="M 352.671875 206.816406 C 353.035156 206.816406 353.332031 207.113281 353.332031 207.472656 C 353.332031 207.839844 353.035156 208.132812 352.671875 208.132812 C 352.308594 208.132812 352.015625 207.839844 352.015625 207.472656 C 352.015625 207.113281 352.308594 206.816406 352.671875 206.816406 " fill-opacity="1" fill-rule="nonzero"/><path fill="#5b0108" d="M 362.199219 185.03125 C 362.820312 185.03125 363.320312 185.53125 363.320312 186.148438 C 363.320312 186.769531 362.820312 187.269531 362.199219 187.269531 C 361.585938 187.269531 361.082031 186.769531 361.082031 186.148438 C 361.082031 185.53125 361.585938 185.03125 362.199219 185.03125 " fill-opacity="1" fill-rule="nonzero"/><g clip-path="url(#5a9e41793a)"><path fill="#5b0108" d="M 346.773438 191.867188 C 346.773438 191.316406 347.21875 190.867188 347.773438 190.867188 C 348.324219 190.867188 348.769531 191.316406 348.769531 191.867188 C 348.769531 192.417969 348.324219 192.863281 347.773438 192.863281 C 347.21875 192.863281 346.773438 192.417969 346.773438 191.867188 Z M 349.042969 178.34375 C 348.390625 178.34375 347.863281 177.816406 347.863281 177.164062 C 347.863281 176.515625 348.390625 175.984375 349.042969 175.984375 C 349.695312 175.984375 350.222656 176.515625 350.222656 177.164062 C 350.222656 177.816406 349.695312 178.34375 349.042969 178.34375 Z M 350.972656 207.472656 C 350.972656 206.539062 351.734375 205.773438 352.671875 205.773438 C 353.609375 205.773438 354.375 206.539062 354.375 207.472656 C 354.375 208.414062 353.609375 209.175781 352.671875 209.175781 C 351.734375 209.175781 350.972656 208.414062 350.972656 207.472656 Z M 356.214844 170.085938 C 356.214844 169.4375 356.742188 168.90625 357.390625 168.90625 C 358.042969 168.90625 358.570312 169.4375 358.570312 170.085938 C 358.570312 170.738281 358.042969 171.265625 357.390625 171.265625 C 356.742188 171.265625 356.214844 170.738281 356.214844 170.085938 Z M 360.234375 186.148438 C 360.234375 185.066406 361.117188 184.183594 362.199219 184.183594 C 363.285156 184.183594 364.164062 185.066406 364.164062 186.148438 C 364.164062 187.234375 363.285156 188.113281 362.199219 188.113281 C 361.117188 188.113281 360.234375 187.234375 360.234375 186.148438 Z M 361.476562 200.941406 C 361.476562 200.59375 361.761719 200.308594 362.109375 200.308594 C 362.460938 200.308594 362.746094 200.59375 362.746094 200.941406 C 362.746094 201.292969 362.460938 201.574219 362.109375 201.574219 C 361.761719 201.574219 361.476562 201.292969 361.476562 200.941406 Z M 338.125 188.058594 C 338.125 199.21875 342.445312 209.082031 349.050781 215.042969 C 351.757812 214.601562 354.328125 213.753906 356.699219 212.570312 C 365.550781 208.148438 371.628906 199.007812 371.628906 188.441406 C 371.628906 176.25 363.535156 165.949219 352.425781 162.621094 C 351.109375 162.222656 349.746094 161.925781 348.347656 161.738281 C 342.136719 167.75 338.125 177.300781 338.125 188.058594 " fill-opacity="1" fill-rule="nonzero"/></g><path fill="#5b0108" d="M 326.355469 194.292969 C 325.992188 194.292969 325.695312 194.585938 325.695312 194.953125 C 325.695312 195.316406 325.992188 195.613281 326.355469 195.613281 C 326.71875 195.613281 327.015625 195.316406 327.015625 194.953125 C 327.015625 194.585938 326.71875 194.292969 326.355469 194.292969 Z M 326.355469 196.652344 C 325.417969 196.652344 324.65625 195.890625 324.65625 194.953125 C 324.65625 194.015625 325.417969 193.25 326.355469 193.25 C 327.292969 193.25 328.054688 194.015625 328.054688 194.953125 C 328.054688 195.890625 327.292969 196.652344 326.355469 196.652344 " fill-opacity="1" fill-rule="nonzero"/><path fill="#5b0108" d="M 334.703125 182.519531 C 334.453125 182.519531 334.25 182.722656 334.25 182.972656 C 334.25 183.222656 334.453125 183.425781 334.703125 183.425781 C 334.953125 183.425781 335.160156 183.222656 335.160156 182.972656 C 335.160156 182.722656 334.953125 182.519531 334.703125 182.519531 Z M 334.703125 184.152344 C 334.054688 184.152344 333.523438 183.625 333.523438 182.972656 C 333.523438 182.324219 334.054688 181.792969 334.703125 181.792969 C 335.355469 181.792969 335.882812 182.324219 335.882812 182.972656 C 335.882812 183.625 335.355469 184.152344 334.703125 184.152344 " fill-opacity="1" fill-rule="nonzero"/><path fill="#5b0108" d="M 324.8125 178.253906 C 324.8125 178.804688 325.257812 179.253906 325.8125 179.253906 C 326.359375 179.253906 326.808594 178.804688 326.808594 178.253906 C 326.808594 177.703125 326.359375 177.257812 325.8125 177.257812 C 325.257812 177.257812 324.8125 177.703125 324.8125 178.253906 " fill-opacity="1" fill-rule="nonzero"/><path fill="#5b0108" d="M 337.699219 167.546875 C 337.699219 167.898438 337.984375 168.183594 338.335938 168.183594 C 338.6875 168.183594 338.96875 167.898438 338.96875 167.546875 C 338.96875 167.195312 338.6875 166.910156 338.335938 166.910156 C 337.984375 166.910156 337.699219 167.195312 337.699219 167.546875 " fill-opacity="1" fill-rule="nonzero"/><path fill="#5b0108" d="M 332.070312 206.023438 C 332.070312 206.578125 332.519531 207.023438 333.070312 207.023438 C 333.621094 207.023438 334.066406 206.578125 334.066406 206.023438 C 334.066406 205.472656 333.621094 205.027344 333.070312 205.027344 C 332.519531 205.027344 332.070312 205.472656 332.070312 206.023438 " fill-opacity="1" fill-rule="nonzero"/><path fill="#5b0108" d="M 263.542969 24.796875 C 248.972656 24.796875 237.113281 36.65625 237.113281 51.230469 C 237.113281 65.804688 248.972656 77.660156 263.542969 77.660156 C 264.980469 77.660156 266.425781 77.542969 267.839844 77.3125 C 270.449219 76.886719 272.972656 76.074219 275.335938 74.890625 C 278.191406 73.464844 280.746094 71.550781 282.921875 69.207031 C 287.472656 64.304688 289.976562 57.917969 289.976562 51.230469 C 289.976562 44.394531 287.375 37.914062 282.660156 32.972656 C 279.492188 29.660156 275.515625 27.214844 271.148438 25.90625 C 269.839844 25.515625 268.496094 25.226562 267.148438 25.042969 C 265.972656 24.878906 264.761719 24.796875 263.542969 24.796875 Z M 263.542969 78.707031 C 248.394531 78.707031 236.070312 66.378906 236.070312 51.230469 C 236.070312 36.078125 248.394531 23.753906 263.542969 23.753906 C 264.808594 23.753906 266.070312 23.839844 267.289062 24.007812 C 268.6875 24.199219 270.089844 24.5 271.445312 24.910156 C 275.988281 26.269531 280.125 28.808594 283.414062 32.25 C 288.316406 37.386719 291.019531 44.125 291.019531 51.230469 C 291.019531 58.183594 288.414062 64.820312 283.683594 69.917969 C 281.425781 72.355469 278.769531 74.339844 275.800781 75.824219 C 273.34375 77.054688 270.71875 77.902344 268.003906 78.34375 C 266.539062 78.582031 265.039062 78.707031 263.542969 78.707031 " fill-opacity="1" fill-rule="nonzero"/><path fill="#5b0108" d="M 269.730469 31.753906 C 269.109375 31.753906 268.605469 32.257812 268.605469 32.875 C 268.605469 33.492188 269.109375 33.992188 269.730469 33.992188 C 270.34375 33.992188 270.847656 33.492188 270.847656 32.875 C 270.847656 32.257812 270.34375 31.753906 269.730469 31.753906 Z M 269.730469 34.839844 C 268.644531 34.839844 267.765625 33.957031 267.765625 32.875 C 267.765625 31.789062 268.644531 30.910156 269.730469 30.910156 C 270.8125 30.910156 271.695312 31.789062 271.695312 32.875 C 271.695312 33.957031 270.8125 34.839844 269.730469 34.839844 " fill-opacity="1" fill-rule="nonzero"/><path fill="#5b0108" d="M 245.40625 54.542969 C 245.042969 54.542969 244.746094 54.835938 244.746094 55.199219 C 244.746094 55.558594 245.042969 55.855469 245.40625 55.855469 C 245.769531 55.855469 246.066406 55.558594 246.066406 55.199219 C 246.066406 54.835938 245.769531 54.542969 245.40625 54.542969 Z M 245.40625 56.902344 C 244.46875 56.902344 243.707031 56.136719 243.707031 55.199219 C 243.707031 54.261719 244.46875 53.496094 245.40625 53.496094 C 246.34375 53.496094 247.109375 54.261719 247.109375 55.199219 C 247.109375 56.136719 246.34375 56.902344 245.40625 56.902344 " fill-opacity="1" fill-rule="nonzero"/><path fill="#5b0108" d="M 253.753906 42.765625 C 253.503906 42.765625 253.300781 42.96875 253.300781 43.21875 C 253.300781 43.472656 253.503906 43.671875 253.753906 43.671875 C 254.007812 43.671875 254.210938 43.472656 254.210938 43.21875 C 254.210938 42.96875 254.007812 42.765625 253.753906 42.765625 Z M 253.753906 44.398438 C 253.105469 44.398438 252.574219 43.871094 252.574219 43.21875 C 252.574219 42.570312 253.105469 42.039062 253.753906 42.039062 C 254.40625 42.039062 254.933594 42.570312 254.933594 43.21875 C 254.933594 43.871094 254.40625 44.398438 253.753906 44.398438 " fill-opacity="1" fill-rule="nonzero"/><path fill="#5b0108" d="M 245.316406 38.863281 C 245.316406 39.214844 245.601562 39.496094 245.949219 39.496094 C 246.300781 39.496094 246.585938 39.214844 246.585938 38.863281 C 246.585938 38.515625 246.300781 38.230469 245.949219 38.230469 C 245.601562 38.230469 245.316406 38.515625 245.316406 38.863281 " fill-opacity="1" fill-rule="nonzero"/><path fill="#5b0108" d="M 269.183594 68.335938 C 268.820312 68.335938 268.527344 68.628906 268.527344 68.992188 C 268.527344 69.355469 268.820312 69.648438 269.183594 69.648438 C 269.542969 69.648438 269.839844 69.355469 269.839844 68.992188 C 269.839844 68.628906 269.542969 68.335938 269.183594 68.335938 Z M 269.183594 70.695312 C 268.246094 70.695312 267.480469 69.929688 267.480469 68.992188 C 267.480469 68.054688 268.246094 67.289062 269.183594 67.289062 C 270.121094 67.289062 270.886719 68.054688 270.886719 68.992188 C 270.886719 69.929688 270.121094 70.695312 269.183594 70.695312 " fill-opacity="1" fill-rule="nonzero"/><path fill="#5b0108" d="M 264.375 51.203125 C 264.375 52.15625 265.144531 52.929688 266.097656 52.929688 C 267.050781 52.929688 267.820312 52.15625 267.820312 51.203125 C 267.820312 50.253906 267.050781 49.480469 266.097656 49.480469 C 265.144531 49.480469 264.375 50.253906 264.375 51.203125 " fill-opacity="1" fill-rule="nonzero"/><path fill="#5b0108" d="M 256.75 27.792969 C 256.75 28.140625 257.035156 28.425781 257.386719 28.425781 C 257.738281 28.425781 258.023438 28.140625 258.023438 27.792969 C 258.023438 27.441406 257.738281 27.15625 257.386719 27.15625 C 257.035156 27.15625 256.75 27.441406 256.75 27.792969 " fill-opacity="1" fill-rule="nonzero"/><path fill="#5b0108" d="M 251.125 66.269531 C 251.125 66.820312 251.570312 67.269531 252.121094 67.269531 C 252.671875 67.269531 253.121094 66.820312 253.121094 66.269531 C 253.121094 65.71875 252.671875 65.269531 252.121094 65.269531 C 251.570312 65.269531 251.125 65.71875 251.125 66.269531 " fill-opacity="1" fill-rule="nonzero"/><path fill="#5b0108" d="M 283.160156 42.90625 C 283.628906 42.90625 284.015625 43.292969 284.015625 43.765625 C 284.015625 44.234375 283.628906 44.621094 283.160156 44.621094 C 282.6875 44.621094 282.300781 44.234375 282.300781 43.765625 C 282.300781 43.292969 282.6875 42.90625 283.160156 42.90625 " fill-opacity="1" fill-rule="nonzero"/><path fill="#5b0108" d="M 281.65625 43.765625 C 281.65625 42.9375 282.332031 42.261719 283.160156 42.261719 C 283.988281 42.261719 284.660156 42.9375 284.660156 43.765625 C 284.660156 44.59375 283.988281 45.265625 283.160156 45.265625 C 282.332031 45.265625 281.65625 44.59375 281.65625 43.765625 Z M 284.339844 55.746094 C 284.339844 55.089844 284.867188 54.566406 285.519531 54.566406 C 286.167969 54.566406 286.699219 55.089844 286.699219 55.746094 C 286.699219 56.394531 286.167969 56.921875 285.519531 56.921875 C 284.867188 56.921875 284.339844 56.394531 284.339844 55.746094 Z M 278.046875 50.871094 C 278.046875 57.894531 280.003906 64.375 283.304688 69.558594 C 287.769531 64.75 290.5 58.3125 290.5 51.230469 C 290.5 44.007812 287.660156 37.449219 283.035156 32.609375 C 279.902344 37.71875 278.046875 44.035156 278.046875 50.871094 " fill-opacity="1" fill-rule="nonzero"/><path fill="#5b0108" d="M 266.269531 297.046875 C 251.691406 297.046875 239.835938 308.902344 239.835938 323.476562 C 239.835938 338.050781 251.691406 349.910156 266.269531 349.910156 C 270.414062 349.910156 274.382812 348.976562 278.0625 347.136719 C 287.089844 342.628906 292.699219 333.5625 292.699219 323.476562 C 292.699219 311.890625 284.957031 301.480469 273.871094 298.152344 C 271.414062 297.417969 268.855469 297.046875 266.269531 297.046875 Z M 266.269531 350.953125 C 251.117188 350.953125 238.792969 338.628906 238.792969 323.476562 C 238.792969 308.324219 251.117188 296 266.269531 296 C 268.957031 296 271.617188 296.390625 274.171875 297.15625 C 285.695312 300.609375 293.742188 311.433594 293.742188 323.476562 C 293.742188 333.960938 287.910156 343.386719 278.527344 348.074219 C 274.703125 349.984375 270.578125 350.953125 266.269531 350.953125 " fill-opacity="1" fill-rule="nonzero"/><path fill="#5b0108" d="M 286.132812 327.746094 C 286.570312 327.746094 286.925781 328.101562 286.925781 328.539062 C 286.925781 328.980469 286.570312 329.335938 286.132812 329.335938 C 285.695312 329.335938 285.335938 328.980469 285.335938 328.539062 C 285.335938 328.101562 285.695312 327.746094 286.132812 327.746094 " fill-opacity="1" fill-rule="nonzero"/><path fill="#5b0108" d="M 250.941406 326.355469 C 250.941406 325.707031 251.472656 325.175781 252.121094 325.175781 C 252.773438 325.175781 253.300781 325.707031 253.300781 326.355469 C 253.300781 327.007812 252.773438 327.535156 252.121094 327.535156 C 251.472656 327.535156 250.941406 327.007812 250.941406 326.355469 Z M 259.847656 306.21875 C 259.847656 305.132812 260.726562 304.253906 261.8125 304.253906 C 262.894531 304.253906 263.777344 305.132812 263.777344 306.21875 C 263.777344 307.300781 262.894531 308.183594 261.8125 308.183594 C 260.726562 308.183594 259.847656 307.300781 259.847656 306.21875 Z M 260.019531 322.726562 C 260.019531 321.777344 260.789062 321.003906 261.742188 321.003906 C 262.695312 321.003906 263.464844 321.777344 263.464844 322.726562 C 263.464844 323.679688 262.695312 324.453125 261.742188 324.453125 C 260.789062 324.453125 260.019531 323.679688 260.019531 322.726562 Z M 260.65625 342.335938 C 260.65625 341.398438 261.417969 340.632812 262.355469 340.632812 C 263.292969 340.632812 264.054688 341.398438 264.054688 342.335938 C 264.054688 343.273438 263.292969 344.035156 262.355469 344.035156 C 261.417969 344.035156 260.65625 343.273438 260.65625 342.335938 Z M 273.519531 301.136719 C 273.519531 300.785156 273.804688 300.5 274.152344 300.5 C 274.5 300.5 274.785156 300.785156 274.785156 301.136719 C 274.785156 301.488281 274.5 301.769531 274.152344 301.769531 C 273.804688 301.769531 273.519531 301.488281 273.519531 301.136719 Z M 273.628906 319.097656 C 273.628906 318.449219 274.160156 317.917969 274.808594 317.917969 C 275.460938 317.917969 275.988281 318.449219 275.988281 319.097656 C 275.988281 319.746094 275.460938 320.277344 274.808594 320.277344 C 274.160156 320.277344 273.628906 319.746094 273.628906 319.097656 Z M 278.417969 339.613281 C 278.417969 339.0625 278.863281 338.613281 279.414062 338.613281 C 279.96875 338.613281 280.414062 339.0625 280.414062 339.613281 C 280.414062 340.164062 279.96875 340.613281 279.414062 340.613281 C 278.863281 340.613281 278.417969 340.164062 278.417969 339.613281 Z M 284.613281 328.539062 C 284.613281 327.703125 285.292969 327.019531 286.132812 327.019531 C 286.972656 327.019531 287.652344 327.703125 287.652344 328.539062 C 287.652344 329.378906 286.972656 330.0625 286.132812 330.0625 C 285.292969 330.0625 284.613281 329.378906 284.613281 328.539062 Z M 286.222656 312.207031 C 286.222656 312.558594 285.9375 312.84375 285.585938 312.84375 C 285.234375 312.84375 284.953125 312.558594 284.953125 312.207031 C 284.953125 311.855469 285.234375 311.570312 285.585938 311.570312 C 285.9375 311.570312 286.222656 311.855469 286.222656 312.207031 Z M 245.015625 323.097656 C 245.015625 337.265625 256.503906 348.753906 270.671875 348.753906 C 273.328125 348.753906 275.886719 348.355469 278.292969 347.605469 C 287.144531 343.183594 293.21875 334.039062 293.21875 323.476562 C 293.21875 311.285156 285.125 300.984375 274.019531 297.65625 C 272.925781 297.511719 271.808594 297.4375 270.671875 297.4375 C 256.503906 297.4375 245.015625 308.925781 245.015625 323.097656 " fill-opacity="1" fill-rule="nonzero"/><path fill="#5b0108" d="M 261.8125 305.09375 C 262.429688 305.09375 262.929688 305.597656 262.929688 306.21875 C 262.929688 306.835938 262.429688 307.335938 261.8125 307.335938 C 261.191406 307.335938 260.6875 306.835938 260.6875 306.21875 C 260.6875 305.597656 261.191406 305.09375 261.8125 305.09375 " fill-opacity="1" fill-rule="nonzero"/><path fill="#5b0108" d="M 274.808594 318.644531 C 275.058594 318.644531 275.265625 318.847656 275.265625 319.097656 C 275.265625 319.347656 275.058594 319.550781 274.808594 319.550781 C 274.558594 319.550781 274.355469 319.347656 274.355469 319.097656 C 274.355469 318.847656 274.558594 318.644531 274.808594 318.644531 " fill-opacity="1" fill-rule="nonzero"/><path fill="#5b0108" d="M 252.121094 325.902344 C 252.371094 325.902344 252.574219 326.105469 252.574219 326.355469 C 252.574219 326.605469 252.371094 326.8125 252.121094 326.8125 C 251.871094 326.8125 251.667969 326.605469 251.667969 326.355469 C 251.667969 326.105469 251.871094 325.902344 252.121094 325.902344 " fill-opacity="1" fill-rule="nonzero"/><path fill="#5b0108" d="M 262.355469 341.675781 C 262.71875 341.675781 263.015625 341.972656 263.015625 342.335938 C 263.015625 342.699219 262.71875 342.996094 262.355469 342.996094 C 261.992188 342.996094 261.695312 342.699219 261.695312 342.335938 C 261.695312 341.972656 261.992188 341.675781 262.355469 341.675781 " fill-opacity="1" fill-rule="nonzero"/><path fill="#5b0108" d="M 105.816406 186.507812 C 106.636719 186.996094 107.207031 187.816406 107.589844 189.066406 C 107.960938 187.828125 108.585938 187.019531 109.539062 186.546875 C 108.621094 186.148438 108.046875 185.433594 107.691406 184.078125 C 107.285156 185.402344 106.695312 186.117188 105.816406 186.507812 Z M 107.640625 192.804688 C 107.386719 192.804688 107.171875 192.609375 107.152344 192.351562 C 106.796875 187.910156 105.707031 187.042969 103.699219 186.941406 C 103.441406 186.929688 103.238281 186.714844 103.234375 186.457031 C 103.230469 186.199219 103.429688 185.984375 103.6875 185.960938 C 105.765625 185.808594 106.789062 185.53125 107.269531 180.90625 C 107.296875 180.652344 107.488281 180.453125 107.769531 180.464844 C 108.023438 180.46875 108.230469 180.667969 108.246094 180.921875 C 108.558594 185.734375 109.496094 185.816406 111.769531 186.015625 C 112.019531 186.035156 112.214844 186.246094 112.214844 186.5 C 112.214844 186.757812 112.019531 186.964844 111.765625 186.988281 C 109.371094 187.191406 108.277344 188.007812 108.132812 192.332031 C 108.121094 192.589844 107.914062 192.796875 107.652344 192.804688 C 107.652344 192.804688 107.644531 192.804688 107.640625 192.804688 " fill-opacity="1" fill-rule="nonzero"/><path fill="#5b0108" d="M 180.617188 193.199219 C 178.5625 193.199219 171.960938 192.761719 169.933594 192.058594 C 170.867188 190.75 172.4375 188.964844 173.105469 188.289062 C 172.410156 188.984375 170.511719 190.648438 169.195312 191.570312 C 169.160156 191.53125 169.128906 191.496094 169.101562 191.453125 C 168.296875 190.117188 167.785156 183.199219 167.785156 180.988281 C 167.785156 183.199219 167.277344 190.117188 166.472656 191.453125 C 165.054688 190.417969 163.011719 188.609375 162.332031 187.925781 C 163.003906 188.597656 164.761719 190.578125 165.804688 191.996094 C 163.976562 192.734375 156.828125 193.199219 154.71875 193.199219 C 156.929688 193.199219 164.707031 193.707031 166.039062 194.511719 C 166.066406 194.527344 166.085938 194.550781 166.109375 194.566406 C 165.152344 195.976562 163.074219 198.324219 162.328125 199.070312 C 163.046875 198.355469 165.242188 196.402344 166.664062 195.402344 C 167.359375 197.523438 167.785156 204.238281 167.785156 206.269531 C 167.785156 204.195312 168.234375 197.238281 168.953125 195.273438 C 170.332031 196.203125 172.621094 198.21875 173.367188 198.964844 C 172.609375 198.203125 170.527344 195.835938 169.621094 194.46875 C 171.160156 193.691406 178.441406 193.199219 180.617188 193.199219 " fill-opacity="1" fill-rule="nonzero"/><path fill="#5b0108" d="M 271.269531 117.808594 C 269.875 117.808594 265.390625 117.507812 264.007812 117.03125 C 264.644531 116.140625 265.710938 114.929688 266.167969 114.472656 C 265.695312 114.945312 264.402344 116.074219 263.507812 116.699219 C 263.484375 116.671875 263.460938 116.648438 263.445312 116.621094 C 262.898438 115.710938 262.550781 111.011719 262.550781 109.507812 C 262.550781 111.011719 262.207031 115.710938 261.660156 116.621094 C 260.691406 115.917969 259.308594 114.6875 258.84375 114.222656 C 259.300781 114.679688 260.496094 116.027344 261.203125 116.992188 C 259.964844 117.492188 255.105469 117.808594 253.667969 117.808594 C 255.175781 117.808594 260.457031 118.152344 261.367188 118.699219 C 261.382812 118.710938 261.394531 118.726562 261.410156 118.738281 C 260.761719 119.695312 259.347656 121.292969 258.84375 121.796875 C 259.328125 121.3125 260.824219 119.984375 261.789062 119.304688 C 262.261719 120.75 262.550781 125.3125 262.550781 126.691406 C 262.550781 125.28125 262.855469 120.554688 263.34375 119.214844 C 264.28125 119.847656 265.839844 121.21875 266.34375 121.726562 C 265.832031 121.207031 264.414062 119.601562 263.800781 118.667969 C 264.84375 118.140625 269.796875 117.808594 271.269531 117.808594 " fill-opacity="1" fill-rule="nonzero"/><path fill="#5b0108" d="M 211.617188 172.199219 C 208.917969 172.199219 206.507812 171.578125 204.882812 170.597656 C 204.667969 170.46875 204.484375 170.289062 204.355469 170.074219 C 203.378906 168.445312 202.757812 166.035156 202.757812 163.339844 C 202.757812 166.035156 202.136719 168.445312 201.15625 170.074219 C 201.027344 170.289062 200.847656 170.46875 200.632812 170.597656 C 199.007812 171.578125 196.59375 172.199219 193.898438 172.199219 C 196.59375 172.199219 199.007812 172.816406 200.632812 173.796875 C 200.847656 173.925781 201.027344 174.109375 201.15625 174.324219 C 202.136719 175.949219 202.757812 178.359375 202.757812 181.058594 C 202.757812 178.359375 203.378906 175.949219 204.355469 174.324219 C 204.484375 174.109375 204.667969 173.925781 204.882812 173.796875 C 206.507812 172.816406 208.917969 172.199219 211.617188 172.199219 " fill-opacity="1" fill-rule="nonzero"/><path fill="#5b0108" d="M 150.226562 268.203125 C 147.53125 268.203125 145.117188 267.582031 143.492188 266.601562 C 143.277344 266.472656 143.097656 266.292969 142.964844 266.078125 C 141.988281 264.449219 141.367188 262.039062 141.367188 259.34375 C 141.367188 262.039062 140.746094 264.449219 139.765625 266.078125 C 139.636719 266.292969 139.457031 266.472656 139.242188 266.601562 C 137.617188 267.582031 135.203125 268.203125 132.507812 268.203125 C 135.203125 268.203125 137.617188 268.820312 139.242188 269.800781 C 139.457031 269.933594 139.636719 270.113281 139.765625 270.328125 C 140.746094 271.953125 141.367188 274.367188 141.367188 277.0625 C 141.367188 274.367188 141.988281 271.953125 142.964844 270.328125 C 143.097656 270.113281 143.277344 269.933594 143.492188 269.800781 C 145.117188 268.820312 147.53125 268.203125 150.226562 268.203125 " fill-opacity="1" fill-rule="nonzero"/><path fill="#5b0108" d="M 117.074219 188.234375 C 117.054688 188.234375 117.042969 188.234375 117.023438 188.230469 L 116.933594 188.226562 C 116.496094 188.199219 116.167969 187.824219 116.191406 187.386719 C 116.21875 186.949219 116.613281 186.617188 117.03125 186.644531 L 117.121094 186.648438 C 117.558594 186.675781 117.894531 187.054688 117.863281 187.488281 C 117.839844 187.910156 117.488281 188.234375 117.074219 188.234375 Z M 126.84375 188.832031 C 126.824219 188.832031 126.808594 188.832031 126.792969 188.832031 L 126.707031 188.824219 C 126.269531 188.800781 125.933594 188.421875 125.964844 187.984375 C 125.988281 187.542969 126.367188 187.214844 126.804688 187.238281 L 126.890625 187.246094 C 127.328125 187.269531 127.660156 187.648438 127.632812 188.085938 C 127.609375 188.507812 127.257812 188.832031 126.84375 188.832031 Z M 136.609375 189.429688 C 136.59375 189.429688 136.578125 189.425781 136.5625 189.425781 L 136.472656 189.421875 C 136.035156 189.394531 135.703125 189.019531 135.730469 188.582031 C 135.757812 188.144531 136.140625 187.8125 136.570312 187.839844 L 136.660156 187.839844 C 137.097656 187.871094 137.429688 188.246094 137.402344 188.683594 C 137.375 189.105469 137.027344 189.429688 136.609375 189.429688 Z M 146.382812 190.023438 C 146.363281 190.023438 146.351562 190.023438 146.335938 190.023438 L 146.246094 190.019531 C 145.808594 189.992188 145.476562 189.617188 145.5 189.183594 C 145.523438 188.746094 145.890625 188.410156 146.335938 188.433594 L 146.425781 188.441406 C 146.863281 188.460938 147.195312 188.839844 147.171875 189.277344 C 147.148438 189.695312 146.796875 190.023438 146.382812 190.023438 Z M 156.148438 190.621094 C 156.132812 190.621094 156.113281 190.621094 156.101562 190.621094 L 156.011719 190.613281 C 155.574219 190.585938 155.238281 190.210938 155.269531 189.773438 C 155.292969 189.335938 155.6875 189.007812 156.109375 189.027344 L 156.199219 189.035156 C 156.636719 189.0625 156.964844 189.4375 156.941406 189.875 C 156.914062 190.296875 156.5625 190.621094 156.148438 190.621094 " fill-opacity="1" fill-rule="nonzero"/><path fill="#5b0108" d="M 164.628906 206.449219 C 164.542969 206.449219 164.453125 206.433594 164.367188 206.402344 C 163.953125 206.257812 163.734375 205.800781 163.886719 205.390625 L 163.914062 205.308594 C 164.0625 204.894531 164.511719 204.679688 164.925781 204.828125 C 165.339844 204.972656 165.558594 205.429688 165.40625 205.839844 L 165.378906 205.921875 C 165.261719 206.25 164.957031 206.449219 164.628906 206.449219 Z M 161.316406 215.660156 C 161.226562 215.660156 161.136719 215.644531 161.050781 215.613281 C 160.636719 215.464844 160.421875 215.015625 160.566406 214.601562 L 160.597656 214.515625 C 160.746094 214.101562 161.199219 213.890625 161.613281 214.035156 C 162.023438 214.179688 162.238281 214.636719 162.09375 215.050781 L 162.0625 215.132812 C 161.949219 215.457031 161.644531 215.660156 161.316406 215.660156 Z M 158 224.867188 C 157.914062 224.867188 157.824219 224.851562 157.734375 224.820312 C 157.324219 224.675781 157.105469 224.222656 157.253906 223.808594 L 157.28125 223.726562 C 157.433594 223.3125 157.882812 223.097656 158.296875 223.242188 C 158.710938 223.394531 158.925781 223.84375 158.777344 224.257812 L 158.75 224.34375 C 158.632812 224.664062 158.328125 224.867188 158 224.867188 Z M 154.6875 234.074219 C 154.597656 234.074219 154.507812 234.0625 154.417969 234.03125 C 154.007812 233.886719 153.792969 233.429688 153.9375 233.015625 L 153.96875 232.9375 C 154.113281 232.523438 154.570312 232.304688 154.980469 232.453125 C 155.394531 232.597656 155.609375 233.054688 155.464844 233.464844 L 155.433594 233.546875 C 155.316406 233.875 155.011719 234.074219 154.6875 234.074219 Z M 151.371094 243.285156 C 151.285156 243.285156 151.195312 243.269531 151.105469 243.238281 C 150.695312 243.09375 150.476562 242.636719 150.621094 242.226562 L 150.652344 242.140625 C 150.800781 241.726562 151.253906 241.515625 151.667969 241.660156 C 152.078125 241.804688 152.296875 242.261719 152.148438 242.675781 L 152.117188 242.757812 C 152.003906 243.082031 151.699219 243.285156 151.371094 243.285156 Z M 148.054688 252.492188 C 147.964844 252.492188 147.878906 252.480469 147.792969 252.449219 C 147.375 252.300781 147.160156 251.847656 147.308594 251.433594 L 147.335938 251.351562 C 147.484375 250.9375 147.9375 250.722656 148.351562 250.867188 C 148.761719 251.015625 148.980469 251.46875 148.832031 251.882812 L 148.804688 251.964844 C 148.6875 252.289062 148.382812 252.492188 148.054688 252.492188 Z M 144.742188 261.699219 C 144.652344 261.699219 144.558594 261.6875 144.472656 261.65625 C 144.058594 261.503906 143.847656 261.046875 143.996094 260.636719 L 144.023438 260.554688 C 144.175781 260.140625 144.632812 259.929688 145.042969 260.078125 C 145.453125 260.230469 145.667969 260.683594 145.519531 261.097656 L 145.488281 261.179688 C 145.367188 261.503906 145.066406 261.699219 144.742188 261.699219 " fill-opacity="1" fill-rule="nonzero"/><path fill="#5b0108" d="M 195.183594 178.765625 C 194.90625 178.765625 194.636719 178.621094 194.492188 178.359375 C 194.277344 177.976562 194.414062 177.492188 194.800781 177.28125 L 194.875 177.234375 C 195.257812 177.023438 195.742188 177.160156 195.953125 177.542969 C 196.164062 177.925781 196.03125 178.410156 195.644531 178.621094 L 195.570312 178.667969 C 195.445312 178.734375 195.3125 178.765625 195.183594 178.765625 Z M 186.617188 183.496094 C 186.335938 183.496094 186.066406 183.351562 185.921875 183.089844 C 185.710938 182.703125 185.847656 182.222656 186.234375 182.007812 L 186.308594 181.964844 C 186.691406 181.753906 187.175781 181.894531 187.386719 182.28125 C 187.601562 182.664062 187.460938 183.144531 187.078125 183.355469 L 187 183.398438 C 186.878906 183.46875 186.746094 183.496094 186.617188 183.496094 Z M 178.050781 188.230469 C 177.769531 188.230469 177.5 188.082031 177.355469 187.820312 C 177.144531 187.4375 177.28125 186.953125 177.664062 186.742188 L 177.742188 186.699219 C 178.125 186.484375 178.605469 186.625 178.820312 187.007812 C 179.03125 187.390625 178.894531 187.871094 178.511719 188.085938 L 178.433594 188.128906 C 178.3125 188.199219 178.179688 188.230469 178.050781 188.230469 " fill-opacity="1" fill-rule="nonzero"/><path fill="#5b0108" d="M 252.652344 129.316406 C 252.429688 129.316406 252.210938 129.222656 252.054688 129.046875 C 251.765625 128.71875 251.796875 128.214844 252.125 127.925781 L 252.191406 127.867188 C 252.519531 127.578125 253.023438 127.609375 253.3125 127.9375 C 253.601562 128.269531 253.570312 128.769531 253.242188 129.058594 L 253.175781 129.117188 C 253.023438 129.25 252.835938 129.316406 252.652344 129.316406 Z M 245.332031 135.816406 C 245.117188 135.816406 244.898438 135.726562 244.742188 135.550781 C 244.449219 135.222656 244.476562 134.722656 244.800781 134.429688 L 244.867188 134.371094 C 245.195312 134.078125 245.695312 134.105469 245.992188 134.429688 C 246.28125 134.757812 246.253906 135.261719 245.925781 135.554688 L 245.859375 135.609375 C 245.710938 135.746094 245.519531 135.816406 245.332031 135.816406 Z M 238.015625 142.316406 C 237.796875 142.316406 237.578125 142.222656 237.417969 142.046875 C 237.128906 141.714844 237.160156 141.214844 237.488281 140.925781 L 237.554688 140.867188 C 237.882812 140.578125 238.386719 140.605469 238.675781 140.933594 C 238.964844 141.265625 238.9375 141.765625 238.609375 142.054688 L 238.542969 142.113281 C 238.390625 142.25 238.203125 142.316406 238.015625 142.316406 Z M 230.695312 148.8125 C 230.476562 148.8125 230.257812 148.722656 230.101562 148.546875 C 229.8125 148.21875 229.839844 147.714844 230.167969 147.425781 L 230.234375 147.367188 C 230.566406 147.078125 231.066406 147.105469 231.359375 147.4375 C 231.648438 147.761719 231.617188 148.265625 231.289062 148.554688 L 231.222656 148.613281 C 231.074219 148.746094 230.882812 148.8125 230.695312 148.8125 Z M 223.378906 155.308594 C 223.15625 155.308594 222.941406 155.222656 222.785156 155.042969 C 222.492188 154.710938 222.523438 154.210938 222.855469 153.921875 L 222.921875 153.863281 C 223.25 153.574219 223.75 153.605469 224.042969 153.933594 C 224.332031 154.261719 224.296875 154.765625 223.96875 155.054688 L 223.902344 155.113281 C 223.753906 155.246094 223.566406 155.308594 223.378906 155.308594 Z M 216.0625 161.808594 C 215.84375 161.808594 215.628906 161.71875 215.472656 161.546875 C 215.179688 161.21875 215.207031 160.71875 215.535156 160.425781 L 215.597656 160.367188 C 215.925781 160.074219 216.425781 160.101562 216.71875 160.429688 C 217.011719 160.757812 216.984375 161.257812 216.65625 161.550781 L 216.59375 161.609375 C 216.441406 161.742188 216.25 161.808594 216.0625 161.808594 Z M 208.746094 168.308594 C 208.527344 168.308594 208.308594 168.21875 208.152344 168.042969 C 207.859375 167.714844 207.890625 167.210938 208.21875 166.921875 L 208.285156 166.863281 C 208.613281 166.574219 209.117188 166.601562 209.40625 166.929688 C 209.695312 167.257812 209.664062 167.761719 209.335938 168.054688 L 209.269531 168.109375 C 209.121094 168.246094 208.929688 168.308594 208.746094 168.308594 " fill-opacity="1" fill-rule="nonzero"/></svg>